<svg width="112" height="11" viewBox="0 0 112 11" fill="none" xmlns="http://www.w3.org/2000/svg">
<path d="M4.41173 10.182C5.65973 10.182 6.68673 9.688 7.47973 8.765L6.46573 7.569C5.94573 8.128 5.30873 8.518 4.47673 8.518C2.95573 8.518 1.96773 7.257 1.96773 5.164C1.96773 3.097 3.05973 1.849 4.51573 1.849C5.24373 1.849 5.80273 2.187 6.29673 2.655L7.29773 1.433C6.67373 0.782999 5.69873 0.198 4.47673 0.198C2.04573 0.198 0.00473439 2.057 0.00473439 5.229C0.00473439 8.44 1.98073 10.182 4.41173 10.182ZM15.667 10.182C18.02 10.182 19.385 8.869 19.385 5.671V0.366999H17.539V5.84C17.539 7.842 16.811 8.518 15.667 8.518C14.549 8.518 13.847 7.842 13.847 5.84V0.366999H11.923V5.671C11.923 8.869 13.327 10.182 15.667 10.182ZM24.6449 10H26.5689V6.36H27.9079L29.8839 10H32.0289L29.7799 6.061C30.8849 5.632 31.6129 4.735 31.6129 3.292C31.6129 1.082 30.0139 0.366999 27.9989 0.366999H24.6449V10ZM26.5689 4.839V1.901H27.8169C29.0519 1.901 29.7409 2.252 29.7409 3.292C29.7409 4.319 29.0519 4.839 27.8169 4.839H26.5689ZM36.4516 10H38.3756V6.36H39.7146L41.6906 10H43.8356L41.5866 6.061C42.6916 5.632 43.4196 4.735 43.4196 3.292C43.4196 1.082 41.8206 0.366999 39.8056 0.366999H36.4516V10ZM38.3756 4.839V1.901H39.6236C40.8586 1.901 41.5476 2.252 41.5476 3.292C41.5476 4.319 40.8586 4.839 39.6236 4.839H38.3756ZM48.2582 10H50.1822V0.366999H48.2582V10ZM59.4205 10.182C60.6685 10.182 61.6955 9.688 62.4885 8.765L61.4745 7.569C60.9545 8.128 60.3175 8.518 59.4855 8.518C57.9645 8.518 56.9765 7.257 56.9765 5.164C56.9765 3.097 58.0685 1.849 59.5245 1.849C60.2525 1.849 60.8115 2.187 61.3055 2.655L62.3065 1.433C61.6825 0.782999 60.7075 0.198 59.4855 0.198C57.0545 0.198 55.0135 2.057 55.0135 5.229C55.0135 8.44 56.9895 10.182 59.4205 10.182ZM70.6758 10.182C73.0288 10.182 74.3938 8.869 74.3938 5.671V0.366999H72.5478V5.84C72.5478 7.842 71.8198 8.518 70.6758 8.518C69.5578 8.518 68.8558 7.842 68.8558 5.84V0.366999H66.9318V5.671C66.9318 8.869 68.3358 10.182 70.6758 10.182ZM79.6537 10H85.4907V8.388H81.5777V0.366999H79.6537V10ZM93.8066 10.182C96.1596 10.182 97.5246 8.869 97.5246 5.671V0.366999H95.6786V5.84C95.6786 7.842 94.9506 8.518 93.8066 8.518C92.6886 8.518 91.9866 7.842 91.9866 5.84V0.366999H90.0626V5.671C90.0626 8.869 91.4666 10.182 93.8066 10.182ZM102.785 10H104.514V5.983C104.514 5.073 104.358 3.734 104.267 2.824H104.319L105.086 5.086L106.581 9.129H107.686L109.168 5.086L109.948 2.824H110.013C109.909 3.734 109.766 5.073 109.766 5.983V10H111.521V0.366999H109.389L107.79 4.878C107.582 5.476 107.413 6.113 107.205 6.724H107.14C106.945 6.113 106.763 5.476 106.555 4.878L104.917 0.366999H102.785V10Z" fill="#D29890"/>
</svg>
