<svg width="207" height="56" viewBox="0 0 207 56" fill="none" xmlns="http://www.w3.org/2000/svg">
<rect width="207" height="56" rx="3" fill="#484545"/>
<path d="M26.0615 33H27.6015V29.733C27.6015 28.798 27.4805 27.775 27.4035 26.895H27.4585L28.2835 28.644L30.6375 33H32.2875V24.849H30.7475V28.105C30.7475 29.029 30.8795 30.107 30.9565 30.954H30.9015L30.0875 29.194L27.7225 24.849H26.0615V33ZM34.3008 33H35.9288V24.849H34.3008V33ZM37.9317 33H39.4717V29.733C39.4717 28.798 39.3507 27.775 39.2737 26.895H39.3287L40.1537 28.644L42.5077 33H44.1577V24.849H42.6177V28.105C42.6177 29.029 42.7497 30.107 42.8267 30.954H42.7717L41.9577 29.194L39.5927 24.849H37.9317V33ZM47.9419 28.754C48.1839 27.907 48.4259 26.983 48.6349 26.092H48.6899C48.9209 26.972 49.1409 27.907 49.3939 28.754L49.6359 29.645H47.6999L47.9419 28.754ZM45.1259 33H46.7759L47.3479 30.91H49.9879L50.5599 33H52.2649L49.6469 24.849H47.7329L45.1259 33ZM53.9988 33.154C54.5818 33.154 55.0108 32.692 55.0108 32.098C55.0108 31.493 54.5818 31.042 53.9988 31.042C53.4268 31.042 52.9978 31.493 52.9978 32.098C52.9978 32.692 53.4268 33.154 53.9988 33.154ZM56.7949 33H58.2579V29.601C58.2579 28.831 58.1259 27.698 58.0489 26.928H58.0929L58.7419 28.842L60.0069 32.263H60.9419L62.1959 28.842L62.8559 26.928H62.9109C62.8229 27.698 62.7019 28.831 62.7019 29.601V33H64.1869V24.849H62.3829L61.0299 28.666C60.8539 29.172 60.7109 29.711 60.5349 30.228H60.4799C60.3149 29.711 60.1609 29.172 59.9849 28.666L58.5989 24.849H56.7949V33ZM66.1836 33H71.2986V31.636H67.8116V29.458H70.6716V28.094H67.8116V26.213H71.1776V24.849H66.1836V33ZM72.9512 33H74.4912V29.733C74.4912 28.798 74.3702 27.775 74.2932 26.895H74.3482L75.1732 28.644L77.5272 33H79.1772V24.849H77.6372V28.105C77.6372 29.029 77.7692 30.107 77.8462 30.954H77.7912L76.9772 29.194L74.6122 24.849H72.9512V33ZM81.1905 33H83.5115C85.9095 33 87.4495 31.636 87.4495 28.897C87.4495 26.147 85.9095 24.849 83.4235 24.849H81.1905V33ZM82.8185 31.691V26.158H83.3245C84.8425 26.158 85.7885 26.906 85.7885 28.897C85.7885 30.877 84.8425 31.691 83.3245 31.691H82.8185ZM89.043 33H94.158V31.636H90.671V29.458H93.531V28.094H90.671V26.213H94.037V24.849H89.043V33ZM95.2826 33H101.113V31.636H97.2846L101.08 25.828V24.849H95.6456V26.213H99.0776L95.2826 32.021V33ZM103.954 33H105.901L108.387 24.849H106.737L105.681 28.82C105.428 29.722 105.252 30.536 104.988 31.449H104.933C104.68 30.536 104.504 29.722 104.251 28.82L103.173 24.849H101.468L103.954 33ZM113.581 35.09C114.461 35.09 115.253 34.903 116.001 34.485L115.638 33.583C115.11 33.88 114.384 34.089 113.713 34.089C111.711 34.089 110.039 32.857 110.039 30.404C110.039 27.566 112.173 25.729 114.318 25.729C116.716 25.729 117.75 27.28 117.75 29.139C117.75 30.569 116.958 31.471 116.199 31.471C115.605 31.471 115.407 31.097 115.605 30.294L116.144 27.61H115.143L114.967 28.127H114.945C114.736 27.698 114.406 27.511 113.988 27.511C112.558 27.511 111.502 29.062 111.502 30.525C111.502 31.669 112.162 32.373 113.108 32.373C113.625 32.373 114.252 32.021 114.615 31.537H114.637C114.758 32.153 115.33 32.483 116.034 32.483C117.299 32.483 118.784 31.339 118.784 29.084C118.784 26.521 117.101 24.728 114.45 24.728C111.469 24.728 108.939 26.994 108.939 30.448C108.939 33.561 111.095 35.09 113.581 35.09ZM113.449 31.339C113.02 31.339 112.723 31.053 112.723 30.437C112.723 29.634 113.229 28.567 114.032 28.567C114.318 28.567 114.516 28.688 114.681 28.974L114.362 30.734C114.01 31.174 113.735 31.339 113.449 31.339ZM123.897 33.154C125.03 33.154 125.987 32.714 126.537 32.175V28.501H123.644V29.832H125.085V31.438C124.854 31.636 124.458 31.746 124.073 31.746C122.467 31.746 121.653 30.679 121.653 28.908C121.653 27.159 122.599 26.103 123.952 26.103C124.689 26.103 125.151 26.4 125.558 26.785L126.416 25.751C125.888 25.212 125.074 24.706 123.897 24.706C121.73 24.706 119.992 26.279 119.992 28.963C119.992 31.68 121.686 33.154 123.897 33.154ZM128.284 33H129.747V29.601C129.747 28.831 129.615 27.698 129.538 26.928H129.582L130.231 28.842L131.496 32.263H132.431L133.685 28.842L134.345 26.928H134.4C134.312 27.698 134.191 28.831 134.191 29.601V33H135.676V24.849H133.872L132.519 28.666C132.343 29.172 132.2 29.711 132.024 30.228H131.969C131.804 29.711 131.65 29.172 131.474 28.666L130.088 24.849H128.284V33ZM139.444 28.754C139.686 27.907 139.928 26.983 140.137 26.092H140.192C140.423 26.972 140.643 27.907 140.896 28.754L141.138 29.645H139.202L139.444 28.754ZM136.628 33H138.278L138.85 30.91H141.49L142.062 33H143.767L141.149 24.849H139.235L136.628 33ZM144.72 33H146.348V24.849H144.72V33ZM148.351 33H153.29V31.636H149.979V24.849H148.351V33ZM155.491 33.154C156.074 33.154 156.503 32.692 156.503 32.098C156.503 31.493 156.074 31.042 155.491 31.042C154.919 31.042 154.49 31.493 154.49 32.098C154.49 32.692 154.919 33.154 155.491 33.154ZM161.609 33.154C162.665 33.154 163.534 32.736 164.205 31.955L163.347 30.943C162.907 31.416 162.368 31.746 161.664 31.746C160.377 31.746 159.541 30.679 159.541 28.908C159.541 27.159 160.465 26.103 161.697 26.103C162.313 26.103 162.786 26.389 163.204 26.785L164.051 25.751C163.523 25.201 162.698 24.706 161.664 24.706C159.607 24.706 157.88 26.279 157.88 28.963C157.88 31.68 159.552 33.154 161.609 33.154ZM168.321 33.154C170.477 33.154 171.962 31.537 171.962 28.897C171.962 26.257 170.477 24.706 168.321 24.706C166.165 24.706 164.68 26.246 164.68 28.897C164.68 31.537 166.165 33.154 168.321 33.154ZM168.321 31.746C167.111 31.746 166.341 30.635 166.341 28.897C166.341 27.148 167.111 26.103 168.321 26.103C169.531 26.103 170.301 27.148 170.301 28.897C170.301 30.635 169.531 31.746 168.321 31.746ZM173.552 33H175.015V29.601C175.015 28.831 174.883 27.698 174.806 26.928H174.85L175.499 28.842L176.764 32.263H177.699L178.953 28.842L179.613 26.928H179.668C179.58 27.698 179.459 28.831 179.459 29.601V33H180.944V24.849H179.14L177.787 28.666C177.611 29.172 177.468 29.711 177.292 30.228H177.237C177.072 29.711 176.918 29.172 176.742 28.666L175.356 24.849H173.552V33Z" fill="white"/>
</svg>
