<svg width="81" height="10" viewBox="0 0 81 10" fill="none" xmlns="http://www.w3.org/2000/svg">
<path d="M0.493059 10H6.33006V8.388H2.41706V0.366999H0.493059V10ZM10.954 10H12.878V0.366999H10.954V10ZM18.1903 10H20.0103V6.139C20.0103 5.034 19.8673 3.825 19.7763 2.785H19.8413L20.8163 4.852L23.5983 10H25.5483V0.366999H23.7283V4.215C23.7283 5.307 23.8843 6.581 23.9753 7.582H23.9103L22.9483 5.502L20.1533 0.366999H18.1903V10ZM30.8729 10H32.7969V7.296L34.0579 5.671L36.5539 10H38.6599L35.2019 4.163L38.1399 0.366999H36.0209L32.8359 4.553H32.7969V0.366999H30.8729V10ZM42.7304 10H48.7754V8.388H44.6544V5.814H48.0344V4.202H44.6544V1.979H48.6324V0.366999H42.7304V10ZM53.6737 10H56.4167C59.2507 10 61.0707 8.388 61.0707 5.151C61.0707 1.901 59.2507 0.366999 56.3127 0.366999H53.6737V10ZM55.5977 8.453V1.914H56.1957C57.9897 1.914 59.1077 2.798 59.1077 5.151C59.1077 7.491 57.9897 8.453 56.1957 8.453H55.5977ZM65.8993 10H67.8233V0.366999H65.8993V10ZM73.1356 10H74.9556V6.139C74.9556 5.034 74.8126 3.825 74.7216 2.785H74.7866L75.7616 4.852L78.5436 10H80.4936V0.366999H78.6736V4.215C78.6736 5.307 78.8296 6.581 78.9206 7.582H78.8556L77.8936 5.502L75.0986 0.366999H73.1356V10Z" fill="#D29890"/>
</svg>
