<svg width="287" height="106" viewBox="0 0 287 106" fill="none" xmlns="http://www.w3.org/2000/svg">
<path d="M18.1304 53.504C21.5864 53.504 24.4304 52.136 26.6264 49.58L23.8184 46.268C22.3784 47.816 20.6144 48.896 18.3104 48.896C14.0984 48.896 11.3624 45.404 11.3624 39.608C11.3624 33.884 14.3864 30.428 18.4184 30.428C20.4344 30.428 21.9824 31.364 23.3504 32.66L26.1224 29.276C24.3944 27.476 21.6944 25.856 18.3104 25.856C11.5784 25.856 5.92642 31.004 5.92642 39.788C5.92642 48.68 11.3984 53.504 18.1304 53.504ZM38.9106 53.504C43.9506 53.504 48.5946 49.616 48.5946 42.92C48.5946 36.224 43.9506 32.336 38.9106 32.336C33.8706 32.336 29.2266 36.224 29.2266 42.92C29.2266 49.616 33.8706 53.504 38.9106 53.504ZM38.9106 49.184C36.1746 49.184 34.6266 46.736 34.6266 42.92C34.6266 39.14 36.1746 36.656 38.9106 36.656C41.6466 36.656 43.1946 39.14 43.1946 42.92C43.1946 46.736 41.6466 49.184 38.9106 49.184ZM53.0217 53H58.3137V39.14C59.7897 37.664 60.8337 36.872 62.4897 36.872C64.4697 36.872 65.3337 37.952 65.3337 41.084V53H70.6257V40.436C70.6257 35.36 68.7537 32.336 64.3977 32.336C61.6617 32.336 59.6097 33.776 57.8457 35.504H57.7377L57.3417 32.84H53.0217V53ZM84.5082 53.504C89.5482 53.504 94.1922 49.616 94.1922 42.92C94.1922 36.224 89.5482 32.336 84.5082 32.336C79.4682 32.336 74.8242 36.224 74.8242 42.92C74.8242 49.616 79.4682 53.504 84.5082 53.504ZM84.5082 49.184C81.7722 49.184 80.2242 46.736 80.2242 42.92C80.2242 39.14 81.7722 36.656 84.5082 36.656C87.2442 36.656 88.7922 39.14 88.7922 42.92C88.7922 46.736 87.2442 49.184 84.5082 49.184ZM107.187 53.504C109.419 53.504 111.867 52.748 113.811 51.056L111.687 47.564C110.571 48.5 109.203 49.184 107.763 49.184C104.883 49.184 102.759 46.736 102.759 42.92C102.759 39.14 104.847 36.656 107.943 36.656C109.059 36.656 109.995 37.124 111.003 37.988L113.523 34.568C112.047 33.308 110.139 32.336 107.655 32.336C102.183 32.336 97.3594 36.224 97.3594 42.92C97.3594 49.616 101.607 53.504 107.187 53.504ZM125.298 53.504C127.782 53.504 130.338 52.64 132.318 51.272L130.518 48.032C129.078 48.932 127.638 49.436 125.982 49.436C122.994 49.436 120.834 47.708 120.402 44.396H132.822C132.966 43.928 133.074 42.956 133.074 41.948C133.074 36.404 130.194 32.336 124.65 32.336C119.862 32.336 115.254 36.404 115.254 42.92C115.254 49.58 119.646 53.504 125.298 53.504ZM120.33 40.868C120.726 37.952 122.598 36.44 124.722 36.44C127.314 36.44 128.538 38.168 128.538 40.868H120.33ZM151.6 53.504C154.336 53.504 156.28 52.172 158.008 50.12H158.152L158.548 53H162.868V32.84H157.576V46.448C156.208 48.248 155.128 48.968 153.472 48.968C151.528 48.968 150.664 47.852 150.664 44.756V32.84H145.372V45.44C145.372 50.48 147.244 53.504 151.6 53.504ZM168.51 53H173.802V39.14C175.278 37.664 176.322 36.872 177.978 36.872C179.958 36.872 180.822 37.952 180.822 41.084V53H186.114V40.436C186.114 35.36 184.242 32.336 179.886 32.336C177.15 32.336 175.098 33.776 173.334 35.504H173.226L172.83 32.84H168.51V53ZM199.729 60.74H205.021V54.62L204.841 51.308C206.389 52.712 208.081 53.504 209.845 53.504C214.273 53.504 218.413 49.508 218.413 42.596C218.413 36.404 215.461 32.336 210.493 32.336C208.333 32.336 206.245 33.488 204.553 34.928H204.445L204.049 32.84H199.729V60.74ZM208.657 49.148C207.577 49.148 206.281 48.752 205.021 47.636V38.78C206.389 37.376 207.613 36.692 208.981 36.692C211.753 36.692 212.977 38.816 212.977 42.668C212.977 47.06 211.105 49.148 208.657 49.148ZM231.321 53.504C236.361 53.504 241.005 49.616 241.005 42.92C241.005 36.224 236.361 32.336 231.321 32.336C226.281 32.336 221.637 36.224 221.637 42.92C221.637 49.616 226.281 53.504 231.321 53.504ZM231.321 49.184C228.585 49.184 227.037 46.736 227.037 42.92C227.037 39.14 228.585 36.656 231.321 36.656C234.057 36.656 235.605 39.14 235.605 42.92C235.605 46.736 234.057 49.184 231.321 49.184ZM254 53.504C256.232 53.504 258.68 52.748 260.624 51.056L258.5 47.564C257.384 48.5 256.016 49.184 254.576 49.184C251.696 49.184 249.572 46.736 249.572 42.92C249.572 39.14 251.66 36.656 254.756 36.656C255.872 36.656 256.808 37.124 257.816 37.988L260.336 34.568C258.86 33.308 256.952 32.336 254.468 32.336C248.996 32.336 244.172 36.224 244.172 42.92C244.172 49.616 248.42 53.504 254 53.504ZM271.75 53.504C276.79 53.504 281.434 49.616 281.434 42.92C281.434 36.224 276.79 32.336 271.75 32.336C266.71 32.336 262.066 36.224 262.066 42.92C262.066 49.616 266.71 53.504 271.75 53.504ZM271.75 49.184C269.014 49.184 267.466 46.736 267.466 42.92C267.466 39.14 269.014 36.656 271.75 36.656C274.486 36.656 276.034 39.14 276.034 42.92C276.034 46.736 274.486 49.184 271.75 49.184ZM75.3579 105.504C80.6139 105.504 83.3859 102.66 83.3859 99.132C83.3859 95.388 80.4339 94.056 77.7699 93.048C75.6459 92.256 73.7739 91.716 73.7739 90.24C73.7739 89.088 74.6379 88.296 76.4739 88.296C77.9499 88.296 79.3539 88.98 80.7939 90.024L83.1699 86.82C81.5139 85.56 79.2459 84.336 76.3299 84.336C71.7219 84.336 68.8059 86.892 68.8059 90.492C68.8059 93.876 71.6499 95.424 74.2059 96.396C76.3299 97.224 78.4179 97.908 78.4179 99.42C78.4179 100.68 77.5179 101.544 75.5019 101.544C73.6299 101.544 71.9019 100.752 70.1019 99.348L67.6899 102.66C69.7059 104.316 72.6579 105.504 75.3579 105.504ZM95.8461 105.504C100.886 105.504 105.53 101.616 105.53 94.92C105.53 88.224 100.886 84.336 95.8461 84.336C90.8061 84.336 86.1621 88.224 86.1621 94.92C86.1621 101.616 90.8061 105.504 95.8461 105.504ZM95.8461 101.184C93.1101 101.184 91.5621 98.736 91.5621 94.92C91.5621 91.14 93.1101 88.656 95.8461 88.656C98.5821 88.656 100.13 91.14 100.13 94.92C100.13 98.736 98.5821 101.184 95.8461 101.184ZM120.073 105.504C124.501 105.504 128.641 101.508 128.641 94.56C128.641 88.404 125.653 84.336 120.685 84.336C118.705 84.336 116.689 85.308 115.105 86.748L115.249 83.508V76.272H109.957V105H114.097L114.565 102.876H114.709C116.329 104.568 118.273 105.504 120.073 105.504ZM118.885 101.148C117.805 101.148 116.509 100.752 115.249 99.636V90.78C116.617 89.376 117.841 88.692 119.209 88.692C121.981 88.692 123.205 90.816 123.205 94.668C123.205 99.06 121.333 101.148 118.885 101.148ZM133.125 105H138.417V92.976C139.533 90.06 141.441 89.016 143.025 89.016C143.853 89.016 144.429 89.124 145.149 89.34L146.049 84.768C145.437 84.516 144.789 84.336 143.673 84.336C141.585 84.336 139.425 85.776 137.949 88.404H137.841L137.445 84.84H133.125V105ZM157.167 105.504C159.651 105.504 162.207 104.64 164.187 103.272L162.387 100.032C160.947 100.932 159.507 101.436 157.851 101.436C154.863 101.436 152.703 99.708 152.271 96.396H164.691C164.835 95.928 164.943 94.956 164.943 93.948C164.943 88.404 162.063 84.336 156.519 84.336C151.731 84.336 147.123 88.404 147.123 94.92C147.123 101.58 151.515 105.504 157.167 105.504ZM152.199 92.868C152.595 89.952 154.467 88.44 156.591 88.44C159.183 88.44 160.407 90.168 160.407 92.868H152.199ZM177.457 105H182.749V91.14C184.153 89.628 185.449 88.872 186.601 88.872C188.509 88.872 189.445 89.952 189.445 93.084V105H194.701V91.14C196.141 89.628 197.437 88.872 198.589 88.872C200.497 88.872 201.397 89.952 201.397 93.084V105H206.689V92.436C206.689 87.36 204.709 84.336 200.425 84.336C197.797 84.336 195.853 85.92 194.017 87.864C193.045 85.632 191.353 84.336 188.473 84.336C185.845 84.336 183.973 85.776 182.281 87.54H182.173L181.777 84.84H177.457V105ZM212.157 105H217.449V84.84H212.157V105ZM214.821 81.6C216.621 81.6 217.881 80.448 217.881 78.684C217.881 76.956 216.621 75.804 214.821 75.804C212.985 75.804 211.725 76.956 211.725 78.684C211.725 80.448 212.985 81.6 214.821 81.6Z" fill="#262626"/>
<path d="M107.327 15.2H108.955L108.9 13.682L108.669 9.623H107.613L107.382 13.682L107.327 15.2ZM108.141 8.798C108.713 8.798 109.153 8.347 109.153 7.742C109.153 7.148 108.713 6.686 108.141 6.686C107.569 6.686 107.14 7.148 107.14 7.742C107.14 8.347 107.569 8.798 108.141 8.798ZM111.179 13H112.807V9.48H115.887V13H117.504V4.849H115.887V8.061H112.807V4.849H111.179V13ZM125.23 13.154C127.386 13.154 128.871 11.537 128.871 8.897C128.871 6.257 127.386 4.706 125.23 4.706C123.074 4.706 121.589 6.246 121.589 8.897C121.589 11.537 123.074 13.154 125.23 13.154ZM125.23 11.746C124.02 11.746 123.25 10.635 123.25 8.897C123.25 7.148 124.02 6.103 125.23 6.103C126.44 6.103 127.21 7.148 127.21 8.897C127.21 10.635 126.44 11.746 125.23 11.746ZM132.953 13H137.892V11.636H134.581V4.849H132.953V13ZM143.576 8.754C143.818 7.907 144.06 6.983 144.269 6.092H144.324C144.555 6.972 144.775 7.907 145.028 8.754L145.27 9.645H143.334L143.576 8.754ZM140.76 13H142.41L142.982 10.91H145.622L146.194 13H147.899L145.281 4.849H143.367L140.76 13ZM155.607 8.754C155.849 7.907 156.091 6.983 156.3 6.092H156.355C156.586 6.972 156.806 7.907 157.059 8.754L157.301 9.645H155.365L155.607 8.754ZM152.791 13H154.441L155.013 10.91H157.653L158.225 13H159.93L157.312 4.849H155.398L152.791 13ZM163.375 13H165.003V9.48H168.083V13H169.7V4.849H168.083V8.061H165.003V4.849H163.375V13ZM174.192 13H175.82V4.849H174.192V13ZM174.874 4.453L177.052 2.99L176.194 1.934L174.148 3.639L174.874 4.453ZM178.329 10.228H179.385L179.616 6.169L179.671 4.64H178.043L178.098 6.169L178.329 10.228ZM178.857 13.154C179.429 13.154 179.869 12.692 179.869 12.098C179.869 11.493 179.429 11.042 178.857 11.042C178.285 11.042 177.856 11.493 177.856 12.098C177.856 12.692 178.285 13.154 178.857 13.154Z" fill="#8A8A8A"/>
</svg>
