<svg width="322" height="217" viewBox="0 0 322 217" fill="none" xmlns="http://www.w3.org/2000/svg">
<path d="M40.0338 52H56.7738V47.536H45.3618V40.408H54.7218V35.944H45.3618V29.788H56.3778V25.324H40.0338V52ZM61.7503 52H67.0423V38.14C68.5183 36.664 69.5623 35.872 71.2183 35.872C73.1983 35.872 74.0623 36.952 74.0623 40.084V52H79.3543V39.436C79.3543 34.36 77.4823 31.336 73.1263 31.336C70.3903 31.336 68.3383 32.776 66.5743 34.504H66.4663L66.0703 31.84H61.7503V52ZM93.3808 52.504C95.6128 52.504 98.0608 51.748 100.005 50.056L97.8808 46.564C96.7648 47.5 95.3968 48.184 93.9568 48.184C91.0768 48.184 88.9528 45.736 88.9528 41.92C88.9528 38.14 91.0408 35.656 94.1368 35.656C95.2528 35.656 96.1888 36.124 97.1968 36.988L99.7168 33.568C98.2408 32.308 96.3328 31.336 93.8488 31.336C88.3768 31.336 83.5528 35.224 83.5528 41.92C83.5528 48.616 87.8008 52.504 93.3808 52.504ZM108.343 52.504C110.647 52.504 112.663 51.352 114.427 49.84H114.571L114.931 52H119.251V40.228C119.251 34.396 116.623 31.336 111.511 31.336C108.343 31.336 105.463 32.524 103.087 34L104.995 37.492C106.867 36.412 108.667 35.584 110.539 35.584C113.023 35.584 113.887 37.096 113.995 39.076C105.859 39.94 102.367 42.208 102.367 46.528C102.367 49.948 104.743 52.504 108.343 52.504ZM110.071 48.364C108.523 48.364 107.407 47.68 107.407 46.096C107.407 44.296 109.063 42.928 113.995 42.316V46.384C112.699 47.644 111.583 48.364 110.071 48.364ZM124.645 52H129.937V38.14C131.413 36.664 132.457 35.872 134.113 35.872C136.093 35.872 136.957 36.952 136.957 40.084V52H142.249V39.436C142.249 34.36 140.377 31.336 136.021 31.336C133.285 31.336 131.233 32.776 129.469 34.504H129.361L128.965 31.84H124.645V52ZM155.087 52.504C156.851 52.504 158.255 52.108 159.335 51.748L158.471 47.896C157.931 48.112 157.139 48.328 156.491 48.328C154.691 48.328 153.755 47.248 153.755 44.944V36.016H158.723V31.84H153.755V26.404H149.363L148.751 31.84L145.619 32.092V36.016H148.463V44.944C148.463 49.444 150.299 52.504 155.087 52.504ZM166.949 52.504C169.253 52.504 171.269 51.352 173.033 49.84H173.177L173.537 52H177.857V40.228C177.857 34.396 175.229 31.336 170.117 31.336C166.949 31.336 164.069 32.524 161.693 34L163.601 37.492C165.473 36.412 167.273 35.584 169.145 35.584C171.629 35.584 172.493 37.096 172.601 39.076C164.465 39.94 160.973 42.208 160.973 46.528C160.973 49.948 163.349 52.504 166.949 52.504ZM168.677 48.364C167.129 48.364 166.013 47.68 166.013 46.096C166.013 44.296 167.669 42.928 172.601 42.316V46.384C171.305 47.644 170.189 48.364 168.677 48.364ZM190.342 52.504C192.43 52.504 194.446 51.352 195.922 49.912H196.066L196.462 52H200.746V23.272H195.49V30.364L195.67 33.532C194.23 32.2 192.826 31.336 190.558 31.336C186.202 31.336 182.098 35.368 182.098 41.92C182.098 48.544 185.338 52.504 190.342 52.504ZM191.71 48.148C189.046 48.148 187.534 46.06 187.534 41.884C187.534 37.852 189.442 35.692 191.71 35.692C192.97 35.692 194.266 36.088 195.49 37.204V46.06C194.302 47.572 193.114 48.148 191.71 48.148ZM211.386 52.504C213.69 52.504 215.706 51.352 217.47 49.84H217.614L217.974 52H222.294V40.228C222.294 34.396 219.666 31.336 214.554 31.336C211.386 31.336 208.506 32.524 206.13 34L208.038 37.492C209.91 36.412 211.71 35.584 213.582 35.584C216.066 35.584 216.93 37.096 217.038 39.076C208.902 39.94 205.41 42.208 205.41 46.528C205.41 49.948 207.786 52.504 211.386 52.504ZM213.114 48.364C211.566 48.364 210.45 47.68 210.45 46.096C210.45 44.296 212.106 42.928 217.038 42.316V46.384C215.742 47.644 214.626 48.364 213.114 48.364ZM242.936 52.504C245.024 52.504 247.04 51.352 248.516 49.912H248.66L249.056 52H253.34V23.272H248.084V30.364L248.264 33.532C246.824 32.2 245.42 31.336 243.152 31.336C238.796 31.336 234.692 35.368 234.692 41.92C234.692 48.544 237.932 52.504 242.936 52.504ZM244.304 48.148C241.64 48.148 240.128 46.06 240.128 41.884C240.128 37.852 242.036 35.692 244.304 35.692C245.564 35.692 246.86 36.088 248.084 37.204V46.06C246.896 47.572 245.708 48.148 244.304 48.148ZM267.796 52.504C270.28 52.504 272.836 51.64 274.816 50.272L273.016 47.032C271.576 47.932 270.136 48.436 268.48 48.436C265.492 48.436 263.332 46.708 262.9 43.396H275.32C275.464 42.928 275.572 41.956 275.572 40.948C275.572 35.404 272.692 31.336 267.148 31.336C262.36 31.336 257.752 35.404 257.752 41.92C257.752 48.58 262.144 52.504 267.796 52.504ZM262.828 39.868C263.224 36.952 265.096 35.44 267.22 35.44C269.812 35.44 271.036 37.168 271.036 39.868H262.828ZM13.2421 104.504C15.4741 104.504 17.9221 103.748 19.8661 102.056L17.7421 98.564C16.6261 99.5 15.2581 100.184 13.8181 100.184C10.9381 100.184 8.81408 97.736 8.81408 93.92C8.81408 90.14 10.9021 87.656 13.9981 87.656C15.1141 87.656 16.0501 88.124 17.0581 88.988L19.5781 85.568C18.1021 84.308 16.1941 83.336 13.7101 83.336C8.23808 83.336 3.41408 87.224 3.41408 93.92C3.41408 100.616 7.66208 104.504 13.2421 104.504ZM30.9926 104.504C36.0326 104.504 40.6766 100.616 40.6766 93.92C40.6766 87.224 36.0326 83.336 30.9926 83.336C25.9526 83.336 21.3086 87.224 21.3086 93.92C21.3086 100.616 25.9526 104.504 30.9926 104.504ZM30.9926 100.184C28.2566 100.184 26.7086 97.736 26.7086 93.92C26.7086 90.14 28.2566 87.656 30.9926 87.656C33.7286 87.656 35.2766 90.14 35.2766 93.92C35.2766 97.736 33.7286 100.184 30.9926 100.184ZM45.1038 104H50.3958V90.14C51.8718 88.664 52.9158 87.872 54.5718 87.872C56.5518 87.872 57.4158 88.952 57.4158 92.084V104H62.7078V91.436C62.7078 86.36 60.8358 83.336 56.4798 83.336C53.7438 83.336 51.6918 84.776 49.9278 86.504H49.8198L49.4238 83.84H45.1038V104ZM76.5903 104.504C81.6303 104.504 86.2743 100.616 86.2743 93.92C86.2743 87.224 81.6303 83.336 76.5903 83.336C71.5503 83.336 66.9063 87.224 66.9063 93.92C66.9063 100.616 71.5503 104.504 76.5903 104.504ZM76.5903 100.184C73.8543 100.184 72.3063 97.736 72.3063 93.92C72.3063 90.14 73.8543 87.656 76.5903 87.656C79.3263 87.656 80.8743 90.14 80.8743 93.92C80.8743 97.736 79.3263 100.184 76.5903 100.184ZM99.2694 104.504C101.501 104.504 103.949 103.748 105.893 102.056L103.769 98.564C102.653 99.5 101.285 100.184 99.8454 100.184C96.9654 100.184 94.8414 97.736 94.8414 93.92C94.8414 90.14 96.9294 87.656 100.025 87.656C101.141 87.656 102.077 88.124 103.085 88.988L105.605 85.568C104.129 84.308 102.221 83.336 99.7374 83.336C94.2654 83.336 89.4414 87.224 89.4414 93.92C89.4414 100.616 93.6894 104.504 99.2694 104.504ZM117.38 104.504C119.864 104.504 122.42 103.64 124.4 102.272L122.6 99.032C121.16 99.932 119.72 100.436 118.064 100.436C115.076 100.436 112.916 98.708 112.484 95.396H124.904C125.048 94.928 125.156 93.956 125.156 92.948C125.156 87.404 122.276 83.336 116.732 83.336C111.944 83.336 107.336 87.404 107.336 93.92C107.336 100.58 111.728 104.504 117.38 104.504ZM112.412 91.868C112.808 88.952 114.68 87.44 116.804 87.44C119.396 87.44 120.62 89.168 120.62 91.868H112.412ZM129.514 104H134.806V91.976C135.922 89.06 137.83 88.016 139.414 88.016C140.242 88.016 140.818 88.124 141.538 88.34L142.438 83.768C141.826 83.516 141.178 83.336 140.062 83.336C137.974 83.336 135.814 84.776 134.338 87.404H134.23L133.834 83.84H129.514V104ZM152.574 104.504C154.338 104.504 155.742 104.108 156.822 103.748L155.958 99.896C155.418 100.112 154.626 100.328 153.978 100.328C152.178 100.328 151.242 99.248 151.242 96.944V88.016H156.21V83.84H151.242V78.404H146.85L146.238 83.84L143.106 84.092V88.016H145.95V96.944C145.95 101.444 147.786 104.504 152.574 104.504ZM168.427 104.504C170.911 104.504 173.467 103.64 175.447 102.272L173.647 99.032C172.207 99.932 170.767 100.436 169.111 100.436C166.123 100.436 163.963 98.708 163.531 95.396H175.951C176.095 94.928 176.203 93.956 176.203 92.948C176.203 87.404 173.323 83.336 167.779 83.336C162.991 83.336 158.383 87.404 158.383 93.92C158.383 100.58 162.775 104.504 168.427 104.504ZM163.459 91.868C163.855 88.952 165.727 87.44 167.851 87.44C170.443 87.44 171.667 89.168 171.667 91.868H163.459ZM190.481 112.1C194.981 112.1 197.141 109.364 198.905 104.612L206.069 83.84H200.993L198.221 93.2C197.753 95.072 197.249 97.016 196.781 98.888H196.601C196.025 96.944 195.521 95 194.909 93.2L191.705 83.84H186.377L194.225 103.64L193.865 104.828C193.289 106.592 192.137 107.888 190.085 107.888C189.617 107.888 189.041 107.744 188.681 107.636L187.709 111.704C188.501 111.956 189.293 112.1 190.481 112.1ZM217.545 111.74H222.837V105.62L222.657 102.308C224.205 103.712 225.897 104.504 227.661 104.504C232.089 104.504 236.229 100.508 236.229 93.596C236.229 87.404 233.277 83.336 228.309 83.336C226.149 83.336 224.061 84.488 222.369 85.928H222.261L221.865 83.84H217.545V111.74ZM226.473 100.148C225.393 100.148 224.097 99.752 222.837 98.636V89.78C224.205 88.376 225.429 87.692 226.797 87.692C229.569 87.692 230.793 89.816 230.793 93.668C230.793 98.06 228.921 100.148 226.473 100.148ZM249.137 104.504C254.177 104.504 258.821 100.616 258.821 93.92C258.821 87.224 254.177 83.336 249.137 83.336C244.097 83.336 239.453 87.224 239.453 93.92C239.453 100.616 244.097 104.504 249.137 104.504ZM249.137 100.184C246.401 100.184 244.853 97.736 244.853 93.92C244.853 90.14 246.401 87.656 249.137 87.656C251.873 87.656 253.421 90.14 253.421 93.92C253.421 97.736 251.873 100.184 249.137 100.184ZM270.34 104.504C272.428 104.504 274.444 103.352 275.92 101.912H276.064L276.46 104H280.744V75.272H275.488V82.364L275.668 85.532C274.228 84.2 272.824 83.336 270.556 83.336C266.2 83.336 262.096 87.368 262.096 93.92C262.096 100.544 265.336 104.504 270.34 104.504ZM271.708 100.148C269.044 100.148 267.532 98.06 267.532 93.884C267.532 89.852 269.44 87.692 271.708 87.692C272.968 87.692 274.264 88.088 275.488 89.204V98.06C274.3 99.572 273.112 100.148 271.708 100.148ZM295.2 104.504C297.684 104.504 300.24 103.64 302.22 102.272L300.42 99.032C298.98 99.932 297.54 100.436 295.884 100.436C292.896 100.436 290.736 98.708 290.304 95.396H302.724C302.868 94.928 302.976 93.956 302.976 92.948C302.976 87.404 300.096 83.336 294.552 83.336C289.764 83.336 285.156 87.404 285.156 93.92C285.156 100.58 289.548 104.504 295.2 104.504ZM290.232 91.868C290.628 88.952 292.5 87.44 294.624 87.44C297.216 87.44 298.44 89.168 298.44 91.868H290.232ZM307.334 104H312.626V91.976C313.742 89.06 315.65 88.016 317.234 88.016C318.062 88.016 318.638 88.124 319.358 88.34L320.258 83.768C319.646 83.516 318.998 83.336 317.882 83.336C315.794 83.336 313.634 84.776 312.158 87.404H312.05L311.654 83.84H307.334V104ZM26.6753 156.504C27.9353 156.504 28.7993 156.288 29.4113 156.036L28.7633 152.112C28.4033 152.184 28.2593 152.184 28.0433 152.184C27.5393 152.184 26.9993 151.788 26.9993 150.564V127.272H21.7073V150.348C21.7073 154.092 23.0033 156.504 26.6753 156.504ZM38.0308 156.504C40.3348 156.504 42.3508 155.352 44.1148 153.84H44.2588L44.6188 156H48.9388V144.228C48.9388 138.396 46.3108 135.336 41.1988 135.336C38.0308 135.336 35.1508 136.524 32.7748 138L34.6828 141.492C36.5548 140.412 38.3548 139.584 40.2268 139.584C42.7108 139.584 43.5748 141.096 43.6828 143.076C35.5468 143.94 32.0548 146.208 32.0548 150.528C32.0548 153.948 34.4308 156.504 38.0308 156.504ZM39.7588 152.364C38.2108 152.364 37.0948 151.68 37.0948 150.096C37.0948 148.296 38.7508 146.928 43.6828 146.316V150.384C42.3868 151.644 41.2708 152.364 39.7588 152.364ZM54.3323 156H59.6243V142.14C61.1003 140.664 62.1443 139.872 63.8003 139.872C65.7803 139.872 66.6443 140.952 66.6443 144.084V156H71.9363V143.436C71.9363 138.36 70.0643 135.336 65.7083 135.336C62.9723 135.336 60.9203 136.776 59.1563 138.504H59.0483L58.6523 135.84H54.3323V156ZM76.0268 156H91.9748V151.824H82.6148L91.6508 138.684V135.84H77.0348V140.016H85.0628L76.0268 153.156V156ZM100.082 156.504C102.386 156.504 104.402 155.352 106.166 153.84H106.31L106.67 156H110.99V144.228C110.99 138.396 108.362 135.336 103.25 135.336C100.082 135.336 97.2015 136.524 94.8255 138L96.7335 141.492C98.6055 140.412 100.406 139.584 102.278 139.584C104.762 139.584 105.626 141.096 105.734 143.076C97.5975 143.94 94.1055 146.208 94.1055 150.528C94.1055 153.948 96.4815 156.504 100.082 156.504ZM101.81 152.364C100.262 152.364 99.1455 151.68 99.1455 150.096C99.1455 148.296 100.802 146.928 105.734 146.316V150.384C104.438 151.644 103.322 152.364 101.81 152.364ZM116.383 156H121.675V143.976C122.791 141.06 124.699 140.016 126.283 140.016C127.111 140.016 127.687 140.124 128.407 140.34L129.307 135.768C128.695 135.516 128.047 135.336 126.931 135.336C124.843 135.336 122.683 136.776 121.207 139.404H121.099L120.703 135.84H116.383V156ZM138.815 164.244C143.891 164.244 145.547 160.824 145.547 156.504V135.84H140.255V156.648C140.255 158.916 139.751 160.068 138.059 160.068C137.447 160.068 136.907 159.96 136.367 159.78L135.431 163.704C136.223 163.992 137.267 164.244 138.815 164.244ZM142.883 132.6C144.719 132.6 145.979 131.448 145.979 129.684C145.979 127.956 144.719 126.804 142.883 126.804C141.083 126.804 139.823 127.956 139.823 129.684C139.823 131.448 141.083 132.6 142.883 132.6ZM157.235 156.504C159.971 156.504 161.915 155.172 163.643 153.12H163.787L164.183 156H168.503V135.84H163.211V149.448C161.843 151.248 160.763 151.968 159.107 151.968C157.163 151.968 156.299 150.852 156.299 147.756V135.84H151.007V148.44C151.007 153.48 152.879 156.504 157.235 156.504ZM174.145 156H179.437V142.14C180.913 140.664 181.957 139.872 183.613 139.872C185.593 139.872 186.457 140.952 186.457 144.084V156H191.749V143.436C191.749 138.36 189.877 135.336 185.521 135.336C182.785 135.336 180.733 136.776 178.969 138.504H178.861L178.465 135.84H174.145V156ZM204.587 156.504C206.351 156.504 207.755 156.108 208.835 155.748L207.971 151.896C207.431 152.112 206.639 152.328 205.991 152.328C204.191 152.328 203.255 151.248 203.255 148.944V140.016H208.223V135.84H203.255V130.404H198.863L198.251 135.84L195.119 136.092V140.016H197.963V148.944C197.963 153.444 199.799 156.504 204.587 156.504ZM220.081 156.504C225.121 156.504 229.765 152.616 229.765 145.92C229.765 139.224 225.121 135.336 220.081 135.336C215.041 135.336 210.397 139.224 210.397 145.92C210.397 152.616 215.041 156.504 220.081 156.504ZM220.081 152.184C217.345 152.184 215.797 149.736 215.797 145.92C215.797 142.14 217.345 139.656 220.081 139.656C222.817 139.656 224.365 142.14 224.365 145.92C224.365 149.736 222.817 152.184 220.081 152.184ZM239.776 156.504C245.032 156.504 247.804 153.66 247.804 150.132C247.804 146.388 244.852 145.056 242.188 144.048C240.064 143.256 238.192 142.716 238.192 141.24C238.192 140.088 239.056 139.296 240.892 139.296C242.368 139.296 243.772 139.98 245.212 141.024L247.588 137.82C245.932 136.56 243.664 135.336 240.748 135.336C236.14 135.336 233.224 137.892 233.224 141.492C233.224 144.876 236.068 146.424 238.624 147.396C240.748 148.224 242.836 148.908 242.836 150.42C242.836 151.68 241.936 152.544 239.92 152.544C238.048 152.544 236.32 151.752 234.52 150.348L232.108 153.66C234.124 155.316 237.076 156.504 239.776 156.504ZM266.008 156.504C268.744 156.504 270.688 155.172 272.416 153.12H272.56L272.956 156H277.276V135.84H271.984V149.448C270.616 151.248 269.536 151.968 267.88 151.968C265.936 151.968 265.072 150.852 265.072 147.756V135.84H259.78V148.44C259.78 153.48 261.652 156.504 266.008 156.504ZM282.918 156H288.21V142.14C289.686 140.664 290.73 139.872 292.386 139.872C294.366 139.872 295.23 140.952 295.23 144.084V156H300.522V143.436C300.522 138.36 298.65 135.336 294.294 135.336C291.558 135.336 289.506 136.776 287.742 138.504H287.634L287.238 135.84H282.918V156ZM26.1194 208H31.4114V194.14C32.8874 192.664 33.9314 191.872 35.5874 191.872C37.5674 191.872 38.4314 192.952 38.4314 196.084V208H43.7234V195.436C43.7234 190.36 41.8514 187.336 37.4954 187.336C34.7594 187.336 32.7074 188.776 30.9434 190.504H30.8354L30.4394 187.84H26.1194V208ZM55.1939 208.504C57.9299 208.504 59.8739 207.172 61.6019 205.12H61.7459L62.1419 208H66.4619V187.84H61.1699V201.448C59.8019 203.248 58.7219 203.968 57.0659 203.968C55.1219 203.968 54.2579 202.852 54.2579 199.756V187.84H48.9659V200.44C48.9659 205.48 50.8379 208.504 55.1939 208.504ZM80.8878 208.504C83.3718 208.504 85.9278 207.64 87.9078 206.272L86.1078 203.032C84.6678 203.932 83.2278 204.436 81.5718 204.436C78.5838 204.436 76.4238 202.708 75.9918 199.396H88.4118C88.5558 198.928 88.6638 197.956 88.6638 196.948C88.6638 191.404 85.7838 187.336 80.2398 187.336C75.4518 187.336 70.8438 191.404 70.8438 197.92C70.8438 204.58 75.2358 208.504 80.8878 208.504ZM75.9198 195.868C76.3158 192.952 78.1878 191.44 80.3118 191.44C82.9038 191.44 84.1278 193.168 84.1278 195.868H75.9198ZM97.4171 208H103.537L110.269 187.84H105.193L102.241 197.884C101.701 199.864 101.161 201.952 100.621 204.004H100.441C99.9011 201.952 99.3611 199.864 98.8211 197.884L95.8691 187.84H90.5411L97.4171 208ZM121.766 208.504C126.806 208.504 131.45 204.616 131.45 197.92C131.45 191.224 126.806 187.336 121.766 187.336C116.726 187.336 112.082 191.224 112.082 197.92C112.082 204.616 116.726 208.504 121.766 208.504ZM121.766 204.184C119.03 204.184 117.482 201.736 117.482 197.92C117.482 194.14 119.03 191.656 121.766 191.656C124.502 191.656 126.05 194.14 126.05 197.92C126.05 201.736 124.502 204.184 121.766 204.184ZM144.033 215.74H149.325V209.62L149.145 206.308C150.693 207.712 152.385 208.504 154.149 208.504C158.577 208.504 162.717 204.508 162.717 197.596C162.717 191.404 159.765 187.336 154.797 187.336C152.637 187.336 150.549 188.488 148.857 189.928H148.749L148.353 187.84H144.033V215.74ZM152.961 204.148C151.881 204.148 150.585 203.752 149.325 202.636V193.78C150.693 192.376 151.917 191.692 153.285 191.692C156.057 191.692 157.281 193.816 157.281 197.668C157.281 202.06 155.409 204.148 152.961 204.148ZM167.201 208H172.493V195.976C173.609 193.06 175.517 192.016 177.101 192.016C177.929 192.016 178.505 192.124 179.225 192.34L180.125 187.768C179.513 187.516 178.865 187.336 177.749 187.336C175.661 187.336 173.501 188.776 172.025 191.404H171.917L171.521 187.84H167.201V208ZM190.883 208.504C195.923 208.504 200.567 204.616 200.567 197.92C200.567 191.224 195.923 187.336 190.883 187.336C185.843 187.336 181.199 191.224 181.199 197.92C181.199 204.616 185.843 208.504 190.883 208.504ZM190.883 204.184C188.147 204.184 186.599 201.736 186.599 197.92C186.599 194.14 188.147 191.656 190.883 191.656C193.619 191.656 195.167 194.14 195.167 197.92C195.167 201.736 193.619 204.184 190.883 204.184ZM206.477 216.1C210.977 216.1 213.137 213.364 214.901 208.612L222.065 187.84H216.989L214.217 197.2C213.749 199.072 213.245 201.016 212.777 202.888H212.597C212.021 200.944 211.517 199 210.905 197.2L207.701 187.84H202.373L210.221 207.64L209.861 208.828C209.285 210.592 208.133 211.888 206.081 211.888C205.613 211.888 205.037 211.744 204.677 211.636L203.705 215.704C204.497 215.956 205.289 216.1 206.477 216.1ZM233.888 208.504C236.372 208.504 238.928 207.64 240.908 206.272L239.108 203.032C237.668 203.932 236.228 204.436 234.572 204.436C231.584 204.436 229.424 202.708 228.992 199.396H241.412C241.556 198.928 241.664 197.956 241.664 196.948C241.664 191.404 238.784 187.336 233.24 187.336C228.452 187.336 223.844 191.404 223.844 197.92C223.844 204.58 228.236 208.504 233.888 208.504ZM228.92 195.868C229.316 192.952 231.188 191.44 233.312 191.44C235.904 191.44 237.128 193.168 237.128 195.868H228.92ZM254.59 208.504C256.822 208.504 259.27 207.748 261.214 206.056L259.09 202.564C257.974 203.5 256.606 204.184 255.166 204.184C252.286 204.184 250.162 201.736 250.162 197.92C250.162 194.14 252.25 191.656 255.346 191.656C256.462 191.656 257.398 192.124 258.406 192.988L260.926 189.568C259.45 188.308 257.542 187.336 255.058 187.336C249.586 187.336 244.762 191.224 244.762 197.92C244.762 204.616 249.01 208.504 254.59 208.504ZM271.964 208.504C273.728 208.504 275.132 208.108 276.212 207.748L275.348 203.896C274.808 204.112 274.016 204.328 273.368 204.328C271.568 204.328 270.632 203.248 270.632 200.944V192.016H275.6V187.84H270.632V182.404H266.24L265.628 187.84L262.496 188.092V192.016H265.34V200.944C265.34 205.444 267.176 208.504 271.964 208.504ZM287.457 208.504C292.497 208.504 297.141 204.616 297.141 197.92C297.141 191.224 292.497 187.336 287.457 187.336C282.417 187.336 277.773 191.224 277.773 197.92C277.773 204.616 282.417 208.504 287.457 208.504ZM287.457 204.184C284.721 204.184 283.173 201.736 283.173 197.92C283.173 194.14 284.721 191.656 287.457 191.656C290.193 191.656 291.741 194.14 291.741 197.92C291.741 201.736 290.193 204.184 287.457 204.184Z" fill="black"/>
<path d="M126.388 13.154C127.444 13.154 128.313 12.736 128.984 11.955L128.126 10.943C127.686 11.416 127.147 11.746 126.443 11.746C125.156 11.746 124.32 10.679 124.32 8.908C124.32 7.159 125.244 6.103 126.476 6.103C127.092 6.103 127.565 6.389 127.983 6.785L128.83 5.751C128.302 5.201 127.477 4.706 126.443 4.706C124.386 4.706 122.659 6.279 122.659 8.963C122.659 11.68 124.331 13.154 126.388 13.154ZM136.022 13.154C138.178 13.154 139.663 11.537 139.663 8.897C139.663 6.257 138.178 4.706 136.022 4.706C133.866 4.706 132.381 6.246 132.381 8.897C132.381 11.537 133.866 13.154 136.022 13.154ZM136.022 11.746C134.812 11.746 134.042 10.635 134.042 8.897C134.042 7.148 134.812 6.103 136.022 6.103C137.232 6.103 138.002 7.148 138.002 8.897C138.002 10.635 137.232 11.746 136.022 11.746ZM143.745 13H145.285V9.733C145.285 8.798 145.164 7.775 145.087 6.895H145.142L145.967 8.644L148.321 13H149.971V4.849H148.431V8.105C148.431 9.029 148.563 10.107 148.64 10.954H148.585L147.771 9.194L145.406 4.849H143.745V13ZM156.093 13H157.721V6.213H160.031V4.849H153.805V6.213H156.093V13ZM165.614 8.754C165.856 7.907 166.098 6.983 166.307 6.092H166.362C166.593 6.972 166.813 7.907 167.066 8.754L167.308 9.645H165.372L165.614 8.754ZM162.798 13H164.448L165.02 10.91H167.66L168.232 13H169.937L167.319 4.849H165.405L162.798 13ZM176.704 13.154C177.76 13.154 178.629 12.736 179.3 11.955L178.442 10.943C178.002 11.416 177.463 11.746 176.759 11.746C175.472 11.746 174.636 10.679 174.636 8.908C174.636 7.159 175.56 6.103 176.792 6.103C177.408 6.103 177.881 6.389 178.299 6.785L179.146 5.751C178.618 5.201 177.793 4.706 176.759 4.706C174.702 4.706 172.975 6.279 172.975 8.963C172.975 11.68 174.647 13.154 176.704 13.154ZM184.721 13H186.349V6.213H188.659V4.849H182.433V6.213H184.721V13ZM195.705 13.154C197.861 13.154 199.346 11.537 199.346 8.897C199.346 6.257 197.861 4.706 195.705 4.706C193.549 4.706 192.064 6.246 192.064 8.897C192.064 11.537 193.549 13.154 195.705 13.154ZM195.705 11.746C194.495 11.746 193.725 10.635 193.725 8.897C193.725 7.148 194.495 6.103 195.705 6.103C196.915 6.103 197.685 7.148 197.685 8.897C197.685 10.635 196.915 11.746 195.705 11.746Z" fill="#8A8A8A"/>
</svg>
