<svg width="287" height="158" viewBox="0 0 287 158" fill="none" xmlns="http://www.w3.org/2000/svg">
<path d="M24.152 53H29.48V30.788H37.04V26.324H16.664V30.788H24.152V53ZM46.7237 53.504C49.2077 53.504 51.7637 52.64 53.7437 51.272L51.9437 48.032C50.5037 48.932 49.0637 49.436 47.4077 49.436C44.4197 49.436 42.2597 47.708 41.8277 44.396H54.2477C54.3917 43.928 54.4997 42.956 54.4997 41.948C54.4997 36.404 51.6197 32.336 46.0757 32.336C41.2877 32.336 36.6797 36.404 36.6797 42.92C36.6797 49.58 41.0717 53.504 46.7237 53.504ZM41.7557 40.868C42.1517 37.952 44.0237 36.44 46.1477 36.44C48.7397 36.44 49.9637 38.168 49.9637 40.868H41.7557ZM67.0139 53H72.3059V32.84H67.0139V53ZM69.6779 29.6C71.4779 29.6 72.7379 28.448 72.7379 26.684C72.7379 24.956 71.4779 23.804 69.6779 23.804C67.8419 23.804 66.5819 24.956 66.5819 26.684C66.5819 28.448 67.8419 29.6 69.6779 29.6ZM77.9475 53H83.2395V39.14C84.7155 37.664 85.7595 36.872 87.4155 36.872C89.3955 36.872 90.2595 37.952 90.2595 41.084V53H95.5515V40.436C95.5515 35.36 93.6795 32.336 89.3235 32.336C86.5875 32.336 84.5355 33.776 82.7715 35.504H82.6635L82.2675 32.84H77.9475V53ZM105.546 53H111.666L118.398 32.84H113.322L110.37 42.884C109.83 44.864 109.29 46.952 108.75 49.004H108.57C108.03 46.952 107.49 44.864 106.95 42.884L103.998 32.84H98.67L105.546 53ZM121.752 53H127.044V32.84H121.752V53ZM124.416 29.6C126.216 29.6 127.476 28.448 127.476 26.684C127.476 24.956 126.216 23.804 124.416 23.804C122.58 23.804 121.32 24.956 121.32 26.684C121.32 28.448 122.58 29.6 124.416 29.6ZM140.066 53.504C141.83 53.504 143.234 53.108 144.314 52.748L143.45 48.896C142.91 49.112 142.118 49.328 141.47 49.328C139.67 49.328 138.734 48.248 138.734 45.944V37.016H143.702V32.84H138.734V27.404H134.342L133.73 32.84L130.598 33.092V37.016H133.442V45.944C133.442 50.444 135.278 53.504 140.066 53.504ZM155.559 53.504C160.599 53.504 165.243 49.616 165.243 42.92C165.243 36.224 160.599 32.336 155.559 32.336C150.519 32.336 145.875 36.224 145.875 42.92C145.875 49.616 150.519 53.504 155.559 53.504ZM155.559 49.184C152.823 49.184 151.275 46.736 151.275 42.92C151.275 39.14 152.823 36.656 155.559 36.656C158.295 36.656 159.843 39.14 159.843 42.92C159.843 46.736 158.295 49.184 155.559 49.184ZM182.794 53.504C185.098 53.504 187.114 52.352 188.878 50.84H189.022L189.382 53H193.702V41.228C193.702 35.396 191.074 32.336 185.962 32.336C182.794 32.336 179.914 33.524 177.538 35L179.446 38.492C181.318 37.412 183.118 36.584 184.99 36.584C187.474 36.584 188.338 38.096 188.446 40.076C180.31 40.94 176.818 43.208 176.818 47.528C176.818 50.948 179.194 53.504 182.794 53.504ZM184.522 49.364C182.974 49.364 181.858 48.68 181.858 47.096C181.858 45.296 183.514 43.928 188.446 43.316V47.384C187.15 48.644 186.034 49.364 184.522 49.364ZM219.492 60.74H224.748V32.84H220.608L220.176 34.82H220.032C218.412 33.128 216.792 32.336 214.56 32.336C210.204 32.336 206.1 36.368 206.1 42.92C206.1 49.544 209.34 53.504 214.344 53.504C216.324 53.504 218.304 52.496 219.672 51.092L219.492 54.332V60.74ZM215.712 49.148C213.048 49.148 211.536 47.06 211.536 42.884C211.536 38.852 213.444 36.692 215.712 36.692C216.972 36.692 218.268 37.088 219.492 38.204V47.06C218.304 48.572 217.116 49.148 215.712 49.148ZM236.432 53.504C239.168 53.504 241.112 52.172 242.84 50.12H242.984L243.38 53H247.7V32.84H242.408V46.448C241.04 48.248 239.96 48.968 238.304 48.968C236.36 48.968 235.496 47.852 235.496 44.756V32.84H230.204V45.44C230.204 50.48 232.076 53.504 236.432 53.504ZM262.126 53.504C264.61 53.504 267.166 52.64 269.146 51.272L267.346 48.032C265.906 48.932 264.466 49.436 262.81 49.436C259.822 49.436 257.662 47.708 257.23 44.396H269.65C269.794 43.928 269.902 42.956 269.902 41.948C269.902 36.404 267.022 32.336 261.478 32.336C256.69 32.336 252.082 36.404 252.082 42.92C252.082 49.58 256.474 53.504 262.126 53.504ZM257.158 40.868C257.554 37.952 259.426 36.44 261.55 36.44C264.142 36.44 265.366 38.168 265.366 40.868H257.158ZM36.6749 105H42.7949L49.5269 84.84H44.4509L41.4989 94.884C40.9589 96.864 40.4189 98.952 39.8789 101.004H39.6989C39.1589 98.952 38.6189 96.864 38.0789 94.884L35.1269 84.84H29.7989L36.6749 105ZM61.3839 105.504C63.8679 105.504 66.4239 104.64 68.4039 103.272L66.6039 100.032C65.1639 100.932 63.7239 101.436 62.0679 101.436C59.0799 101.436 56.9199 99.708 56.4879 96.396H68.9079C69.0519 95.928 69.1599 94.956 69.1599 93.948C69.1599 88.404 66.2799 84.336 60.7359 84.336C55.9479 84.336 51.3399 88.404 51.3399 94.92C51.3399 101.58 55.7319 105.504 61.3839 105.504ZM56.4159 92.868C56.8119 89.952 58.6839 88.44 60.8079 88.44C63.3999 88.44 64.6239 90.168 64.6239 92.868H56.4159ZM77.9936 105.504C80.2976 105.504 82.3136 104.352 84.0776 102.84H84.2216L84.5816 105H88.9016V93.228C88.9016 87.396 86.2736 84.336 81.1616 84.336C77.9936 84.336 75.1136 85.524 72.7376 87L74.6456 90.492C76.5176 89.412 78.3176 88.584 80.1896 88.584C82.6736 88.584 83.5376 90.096 83.6456 92.076C75.5096 92.94 72.0176 95.208 72.0176 99.528C72.0176 102.948 74.3936 105.504 77.9936 105.504ZM79.7216 101.364C78.1736 101.364 77.0576 100.68 77.0576 99.096C77.0576 97.296 78.7136 95.928 83.6456 95.316V99.384C82.3496 100.644 81.2336 101.364 79.7216 101.364ZM100.055 105.504C105.311 105.504 108.083 102.66 108.083 99.132C108.083 95.388 105.131 94.056 102.467 93.048C100.343 92.256 98.4712 91.716 98.4712 90.24C98.4712 89.088 99.3352 88.296 101.171 88.296C102.647 88.296 104.051 88.98 105.491 90.024L107.867 86.82C106.211 85.56 103.943 84.336 101.027 84.336C96.4192 84.336 93.5032 86.892 93.5032 90.492C93.5032 93.876 96.3472 95.424 98.9032 96.396C101.027 97.224 103.115 97.908 103.115 99.42C103.115 100.68 102.215 101.544 100.199 101.544C98.3272 101.544 96.5992 100.752 94.7992 99.348L92.3872 102.66C94.4032 104.316 97.3552 105.504 100.055 105.504ZM125.244 105.504C127.548 105.504 129.564 104.352 131.328 102.84H131.472L131.832 105H136.152V93.228C136.152 87.396 133.524 84.336 128.412 84.336C125.244 84.336 122.364 85.524 119.988 87L121.896 90.492C123.768 89.412 125.568 88.584 127.44 88.584C129.924 88.584 130.788 90.096 130.896 92.076C122.76 92.94 119.268 95.208 119.268 99.528C119.268 102.948 121.644 105.504 125.244 105.504ZM126.972 101.364C125.424 101.364 124.308 100.68 124.308 99.096C124.308 97.296 125.964 95.928 130.896 95.316V99.384C129.6 100.644 128.484 101.364 126.972 101.364ZM146.513 105.504C147.773 105.504 148.637 105.288 149.249 105.036L148.601 101.112C148.241 101.184 148.097 101.184 147.881 101.184C147.377 101.184 146.837 100.788 146.837 99.564V76.272H141.545V99.348C141.545 103.092 142.841 105.504 146.513 105.504ZM159.993 113.748C166.725 113.748 170.973 110.652 170.973 106.584C170.973 103.056 168.309 101.544 163.449 101.544H160.029C157.653 101.544 156.861 100.968 156.861 99.888C156.861 99.06 157.185 98.628 157.725 98.16C158.589 98.448 159.525 98.628 160.317 98.628C164.637 98.628 168.093 96.324 168.093 91.788C168.093 90.528 167.697 89.412 167.193 88.728H170.613V84.84H163.341C162.513 84.552 161.433 84.336 160.317 84.336C156.033 84.336 152.181 86.892 152.181 91.608C152.181 93.984 153.477 95.892 154.881 96.9V97.044C153.657 97.908 152.613 99.312 152.613 100.824C152.613 102.48 153.405 103.524 154.449 104.208V104.388C152.613 105.432 151.569 106.872 151.569 108.564C151.569 112.128 155.241 113.748 159.993 113.748ZM160.317 95.352C158.553 95.352 157.149 94.02 157.149 91.608C157.149 89.268 158.517 87.936 160.317 87.936C162.117 87.936 163.485 89.268 163.485 91.608C163.485 94.02 162.081 95.352 160.317 95.352ZM160.785 110.4C157.869 110.4 155.997 109.428 155.997 107.736C155.997 106.908 156.393 106.116 157.293 105.396C158.013 105.576 158.877 105.684 160.101 105.684H162.549C164.709 105.684 165.897 106.044 165.897 107.484C165.897 109.068 163.809 110.4 160.785 110.4ZM180.393 105.504C183.129 105.504 185.073 104.172 186.801 102.12H186.945L187.341 105H191.661V84.84H186.369V98.448C185.001 100.248 183.921 100.968 182.265 100.968C180.321 100.968 179.457 99.852 179.457 96.756V84.84H174.165V97.44C174.165 102.48 176.037 105.504 180.393 105.504ZM197.303 105H202.595V91.14C204.071 89.664 205.115 88.872 206.771 88.872C208.751 88.872 209.615 89.952 209.615 93.084V105H214.907V92.436C214.907 87.36 213.035 84.336 208.679 84.336C205.943 84.336 203.891 85.776 202.127 87.504H202.019L201.623 84.84H197.303V105ZM228.789 105.504C233.829 105.504 238.473 101.616 238.473 94.92C238.473 88.224 233.829 84.336 228.789 84.336C223.749 84.336 219.105 88.224 219.105 94.92C219.105 101.616 223.749 105.504 228.789 105.504ZM228.789 101.184C226.053 101.184 224.505 98.736 224.505 94.92C224.505 91.14 226.053 88.656 228.789 88.656C231.525 88.656 233.073 91.14 233.073 94.92C233.073 98.736 231.525 101.184 228.789 101.184ZM248.485 105.504C253.741 105.504 256.513 102.66 256.513 99.132C256.513 95.388 253.561 94.056 250.897 93.048C248.773 92.256 246.901 91.716 246.901 90.24C246.901 89.088 247.765 88.296 249.601 88.296C251.077 88.296 252.481 88.98 253.921 90.024L256.297 86.82C254.641 85.56 252.373 84.336 249.457 84.336C244.849 84.336 241.933 86.892 241.933 90.492C241.933 93.876 244.777 95.424 247.333 96.396C249.457 97.224 251.545 97.908 251.545 99.42C251.545 100.68 250.645 101.544 248.629 101.544C246.757 101.544 245.029 100.752 243.229 99.348L240.817 102.66C242.833 104.316 245.785 105.504 248.485 105.504ZM85.4087 157.504C87.4967 157.504 89.5127 156.352 90.9887 154.912H91.1327L91.5287 157H95.8127V128.272H90.5567V135.364L90.7367 138.532C89.2967 137.2 87.8927 136.336 85.6247 136.336C81.2687 136.336 77.1647 140.368 77.1647 146.92C77.1647 153.544 80.4047 157.504 85.4087 157.504ZM86.7767 153.148C84.1127 153.148 82.6007 151.06 82.6007 146.884C82.6007 142.852 84.5087 140.692 86.7767 140.692C88.0367 140.692 89.3327 141.088 90.5567 142.204V151.06C89.3687 152.572 88.1807 153.148 86.7767 153.148ZM110.269 157.504C112.753 157.504 115.309 156.64 117.289 155.272L115.489 152.032C114.049 152.932 112.609 153.436 110.953 153.436C107.965 153.436 105.805 151.708 105.373 148.396H117.793C117.937 147.928 118.045 146.956 118.045 145.948C118.045 140.404 115.165 136.336 109.621 136.336C104.833 136.336 100.225 140.404 100.225 146.92C100.225 153.58 104.617 157.504 110.269 157.504ZM105.301 144.868C105.697 141.952 107.569 140.44 109.693 140.44C112.285 140.44 113.509 142.168 113.509 144.868H105.301ZM139.343 157.504C141.827 157.504 144.383 156.64 146.363 155.272L144.563 152.032C143.123 152.932 141.683 153.436 140.027 153.436C137.039 153.436 134.879 151.708 134.447 148.396H146.867C147.011 147.928 147.119 146.956 147.119 145.948C147.119 140.404 144.239 136.336 138.695 136.336C133.907 136.336 129.299 140.404 129.299 146.92C129.299 153.58 133.691 157.504 139.343 157.504ZM134.375 144.868C134.771 141.952 136.643 140.44 138.767 140.44C141.359 140.44 142.583 142.168 142.583 144.868H134.375ZM156.445 157.504C157.705 157.504 158.569 157.288 159.181 157.036L158.533 153.112C158.173 153.184 158.029 153.184 157.813 153.184C157.309 153.184 156.769 152.788 156.769 151.564V128.272H151.477V151.348C151.477 155.092 152.773 157.504 156.445 157.504ZM167.8 157.504C169.06 157.504 169.924 157.288 170.536 157.036L169.888 153.112C169.528 153.184 169.384 153.184 169.168 153.184C168.664 153.184 168.124 152.788 168.124 151.564V128.272H162.832V151.348C162.832 155.092 164.128 157.504 167.8 157.504ZM182.612 157.504C187.652 157.504 192.296 153.616 192.296 146.92C192.296 140.224 187.652 136.336 182.612 136.336C177.572 136.336 172.928 140.224 172.928 146.92C172.928 153.616 177.572 157.504 182.612 157.504ZM182.612 153.184C179.876 153.184 178.328 150.736 178.328 146.92C178.328 143.14 179.876 140.656 182.612 140.656C185.348 140.656 186.896 143.14 186.896 146.92C186.896 150.736 185.348 153.184 182.612 153.184ZM202.307 157.504C207.563 157.504 210.335 154.66 210.335 151.132C210.335 147.388 207.383 146.056 204.719 145.048C202.595 144.256 200.723 143.716 200.723 142.24C200.723 141.088 201.587 140.296 203.423 140.296C204.899 140.296 206.303 140.98 207.743 142.024L210.119 138.82C208.463 137.56 206.195 136.336 203.279 136.336C198.671 136.336 195.755 138.892 195.755 142.492C195.755 145.876 198.599 147.424 201.155 148.396C203.279 149.224 205.367 149.908 205.367 151.42C205.367 152.68 204.467 153.544 202.451 153.544C200.579 153.544 198.851 152.752 197.051 151.348L194.639 154.66C196.655 156.316 199.607 157.504 202.307 157.504Z" fill="#D29890"/>
<path d="M52.6929 13H54.3209V10.107H55.4099C57.1589 10.107 58.5559 9.271 58.5559 7.412C58.5559 5.487 57.1699 4.849 55.3659 4.849H52.6929V13ZM54.3209 8.82V6.147H55.2449C56.3669 6.147 56.9609 6.466 56.9609 7.412C56.9609 8.347 56.4219 8.82 55.2999 8.82H54.3209ZM62.522 13H64.15V9.92H65.283L66.955 13H68.77L66.867 9.667C67.802 9.304 68.418 8.545 68.418 7.324C68.418 5.454 67.065 4.849 65.36 4.849H62.522V13ZM64.15 8.633V6.147H65.206C66.251 6.147 66.834 6.444 66.834 7.324C66.834 8.193 66.251 8.633 65.206 8.633H64.15ZM75.7462 13.154C77.9022 13.154 79.3872 11.537 79.3872 8.897C79.3872 6.257 77.9022 4.706 75.7462 4.706C73.5902 4.706 72.1052 6.246 72.1052 8.897C72.1052 11.537 73.5902 13.154 75.7462 13.154ZM75.7462 11.746C74.5362 11.746 73.7662 10.635 73.7662 8.897C73.7662 7.148 74.5362 6.103 75.7462 6.103C76.9562 6.103 77.7262 7.148 77.7262 8.897C77.7262 10.635 76.9562 11.746 75.7462 11.746ZM84.8443 13H86.4723V10.019L88.9253 4.849H87.2313L86.4173 6.84C86.1863 7.445 85.9443 8.017 85.6913 8.644H85.6473C85.3943 8.017 85.1743 7.445 84.9433 6.84L84.1293 4.849H82.4023L84.8443 10.019V13ZM92.3531 13H97.4681V11.636H93.9811V9.458H96.8411V8.094H93.9811V6.213H97.3471V4.849H92.3531V13ZM104.935 13.154C105.991 13.154 106.86 12.736 107.531 11.955L106.673 10.943C106.233 11.416 105.694 11.746 104.99 11.746C103.703 11.746 102.867 10.679 102.867 8.908C102.867 7.159 103.791 6.103 105.023 6.103C105.639 6.103 106.112 6.389 106.53 6.785L107.377 5.751C106.849 5.201 106.024 4.706 104.99 4.706C102.933 4.706 101.206 6.279 101.206 8.963C101.206 11.68 102.878 13.154 104.935 13.154ZM112.951 13H114.579V6.213H116.889V4.849H110.663V6.213H112.951V13ZM123.936 13.154C126.092 13.154 127.577 11.537 127.577 8.897C127.577 6.257 126.092 4.706 123.936 4.706C121.78 4.706 120.295 6.246 120.295 8.897C120.295 11.537 121.78 13.154 123.936 13.154ZM123.936 11.746C122.726 11.746 121.956 10.635 121.956 8.897C121.956 7.148 122.726 6.103 123.936 6.103C125.146 6.103 125.916 7.148 125.916 8.897C125.916 10.635 125.146 11.746 123.936 11.746ZM131.598 13.154C133.479 13.154 134.59 12.021 134.59 10.69C134.59 9.513 133.941 8.886 132.951 8.479L131.884 8.028C131.191 7.753 130.619 7.544 130.619 6.961C130.619 6.422 131.07 6.103 131.785 6.103C132.456 6.103 132.995 6.345 133.512 6.774L134.337 5.751C133.677 5.08 132.731 4.706 131.785 4.706C130.135 4.706 128.969 5.729 128.969 7.06C128.969 8.248 129.794 8.908 130.619 9.249L131.708 9.711C132.434 10.019 132.929 10.206 132.929 10.811C132.929 11.383 132.478 11.746 131.631 11.746C130.916 11.746 130.146 11.383 129.563 10.844L128.628 11.966C129.42 12.725 130.509 13.154 131.598 13.154ZM141.015 13H143.336C145.734 13 147.274 11.636 147.274 8.897C147.274 6.147 145.734 4.849 143.248 4.849H141.015V13ZM142.643 11.691V6.158H143.149C144.667 6.158 145.613 6.906 145.613 8.897C145.613 10.877 144.667 11.691 143.149 11.691H142.643ZM151.36 13H156.475V11.636H152.988V9.458H155.848V8.094H152.988V6.213H156.354V4.849H151.36V13ZM163.051 13.154C164.932 13.154 166.043 12.021 166.043 10.69C166.043 9.513 165.394 8.886 164.404 8.479L163.337 8.028C162.644 7.753 162.072 7.544 162.072 6.961C162.072 6.422 162.523 6.103 163.238 6.103C163.909 6.103 164.448 6.345 164.965 6.774L165.79 5.751C165.13 5.08 164.184 4.706 163.238 4.706C161.588 4.706 160.422 5.729 160.422 7.06C160.422 8.248 161.247 8.908 162.072 9.249L163.161 9.711C163.887 10.019 164.382 10.206 164.382 10.811C164.382 11.383 163.931 11.746 163.084 11.746C162.369 11.746 161.599 11.383 161.016 10.844L160.081 11.966C160.873 12.725 161.962 13.154 163.051 13.154ZM171.593 13H173.221V6.213H175.531V4.849H169.305V6.213H171.593V13ZM181.114 8.754C181.356 7.907 181.598 6.983 181.807 6.092H181.862C182.093 6.972 182.313 7.907 182.566 8.754L182.808 9.645H180.872L181.114 8.754ZM178.298 13H179.948L180.52 10.91H183.16L183.732 13H185.437L182.819 4.849H180.905L178.298 13ZM192.204 13.154C193.26 13.154 194.129 12.736 194.8 11.955L193.942 10.943C193.502 11.416 192.963 11.746 192.259 11.746C190.972 11.746 190.136 10.679 190.136 8.908C190.136 7.159 191.06 6.103 192.292 6.103C192.908 6.103 193.381 6.389 193.799 6.785L194.646 5.751C194.118 5.201 193.293 4.706 192.259 4.706C190.202 4.706 188.475 6.279 188.475 8.963C188.475 11.68 190.147 13.154 192.204 13.154ZM200.375 8.754C200.617 7.907 200.859 6.983 201.068 6.092H201.123C201.354 6.972 201.574 7.907 201.827 8.754L202.069 9.645H200.133L200.375 8.754ZM197.559 13H199.209L199.781 10.91H202.421L202.993 13H204.698L202.08 4.849H200.166L197.559 13ZM208.143 13H210.464C212.862 13 214.402 11.636 214.402 8.897C214.402 6.147 212.862 4.849 210.376 4.849H208.143V13ZM209.771 11.691V6.158H210.277C211.795 6.158 212.741 6.906 212.741 8.897C212.741 10.877 211.795 11.691 210.277 11.691H209.771ZM221.722 13.154C223.878 13.154 225.363 11.537 225.363 8.897C225.363 6.257 223.878 4.706 221.722 4.706C219.566 4.706 218.081 6.246 218.081 8.897C218.081 11.537 219.566 13.154 221.722 13.154ZM221.722 11.746C220.512 11.746 219.742 10.635 219.742 8.897C219.742 7.148 220.512 6.103 221.722 6.103C222.932 6.103 223.702 7.148 223.702 8.897C223.702 10.635 222.932 11.746 221.722 11.746ZM231.876 13.154C233.757 13.154 234.868 12.021 234.868 10.69C234.868 9.513 234.219 8.886 233.229 8.479L232.162 8.028C231.469 7.753 230.897 7.544 230.897 6.961C230.897 6.422 231.348 6.103 232.063 6.103C232.734 6.103 233.273 6.345 233.79 6.774L234.615 5.751C233.955 5.08 233.009 4.706 232.063 4.706C230.413 4.706 229.247 5.729 229.247 7.06C229.247 8.248 230.072 8.908 230.897 9.249L231.986 9.711C232.712 10.019 233.207 10.206 233.207 10.811C233.207 11.383 232.756 11.746 231.909 11.746C231.194 11.746 230.424 11.383 229.841 10.844L228.906 11.966C229.698 12.725 230.787 13.154 231.876 13.154Z" fill="#8A8A8A"/>
</svg>
