<svg width="281" height="302" viewBox="0 0 281 302" fill="none" xmlns="http://www.w3.org/2000/svg">
<path d="M11.544 31.518C17.871 31.518 21.608 27.707 21.608 23.23C21.608 19.271 19.425 17.162 16.095 15.793L12.506 14.276C10.175 13.351 8.251 12.648 8.251 10.687C8.251 8.874 9.768 7.801 12.173 7.801C14.43 7.801 16.243 8.615 17.982 10.058L20.757 6.617C18.537 4.36 15.355 3.102 12.173 3.102C6.623 3.102 2.701 6.543 2.701 11.02C2.701 15.016 5.476 17.236 8.251 18.383L11.914 19.937C14.356 20.973 16.021 21.602 16.021 23.637C16.021 25.561 14.504 26.782 11.655 26.782C9.25 26.782 6.66 25.561 4.699 23.748L1.554 27.522C4.218 30.075 7.881 31.518 11.544 31.518ZM35.4099 31.518C40.5899 31.518 45.3629 27.522 45.3629 20.64C45.3629 13.758 40.5899 9.762 35.4099 9.762C30.2299 9.762 25.4569 13.758 25.4569 20.64C25.4569 27.522 30.2299 31.518 35.4099 31.518ZM35.4099 27.078C32.5979 27.078 31.0069 24.562 31.0069 20.64C31.0069 16.755 32.5979 14.202 35.4099 14.202C38.2219 14.202 39.8129 16.755 39.8129 20.64C39.8129 24.562 38.2219 27.078 35.4099 27.078ZM52.1769 39.325C56.8019 39.325 59.0219 36.513 60.8349 31.629L68.1979 10.28H62.9809L60.1319 19.9C59.6509 21.824 59.1329 23.822 58.6519 25.746H58.4669C57.8749 23.748 57.3569 21.75 56.7279 19.9L53.4349 10.28H47.9589L56.0249 30.63L55.6549 31.851C55.0629 33.664 53.8789 34.996 51.7699 34.996C51.2889 34.996 50.6969 34.848 50.3269 34.737L49.3279 38.918C50.1419 39.177 50.9559 39.325 52.1769 39.325ZM93.0908 31.518C96.6428 31.518 99.5658 30.112 101.823 27.485L98.9368 24.081C97.4568 25.672 95.6438 26.782 93.2758 26.782C88.9468 26.782 86.1348 23.193 86.1348 17.236C86.1348 11.353 89.2428 7.801 93.3868 7.801C95.4588 7.801 97.0498 8.763 98.4558 10.095L101.305 6.617C99.5288 4.767 96.7538 3.102 93.2758 3.102C86.3568 3.102 80.5478 8.393 80.5478 17.421C80.5478 26.56 86.1718 31.518 93.0908 31.518ZM111.636 31.518C114.004 31.518 116.076 30.334 117.889 28.78H118.037L118.407 31H122.847V18.901C122.847 12.907 120.146 9.762 114.892 9.762C111.636 9.762 108.676 10.983 106.234 12.5L108.195 16.089C110.119 14.979 111.969 14.128 113.893 14.128C116.446 14.128 117.334 15.682 117.445 17.717C109.083 18.605 105.494 20.936 105.494 25.376C105.494 28.891 107.936 31.518 111.636 31.518ZM113.412 27.263C111.821 27.263 110.674 26.56 110.674 24.932C110.674 23.082 112.376 21.676 117.445 21.047V25.228C116.113 26.523 114.966 27.263 113.412 27.263ZM129.131 31H134.57V18.642C135.717 15.645 137.678 14.572 139.306 14.572C140.157 14.572 140.749 14.683 141.489 14.905L142.414 10.206C141.785 9.947 141.119 9.762 139.972 9.762C137.826 9.762 135.606 11.242 134.089 13.943H133.978L133.571 10.28H129.131V31ZM154.21 31.518C159.39 31.518 164.163 27.522 164.163 20.64C164.163 13.758 159.39 9.762 154.21 9.762C149.03 9.762 144.257 13.758 144.257 20.64C144.257 27.522 149.03 31.518 154.21 31.518ZM154.21 27.078C151.398 27.078 149.807 24.562 149.807 20.64C149.807 16.755 151.398 14.202 154.21 14.202C157.022 14.202 158.613 16.755 158.613 20.64C158.613 24.562 157.022 27.078 154.21 27.078ZM174.559 31.518C175.854 31.518 176.742 31.296 177.371 31.037L176.705 27.004C176.335 27.078 176.187 27.078 175.965 27.078C175.447 27.078 174.892 26.671 174.892 25.413V1.474H169.453V25.191C169.453 29.039 170.785 31.518 174.559 31.518ZM181.864 31H187.303V10.28H181.864V31ZM184.602 6.95C186.452 6.95 187.747 5.766 187.747 3.953C187.747 2.177 186.452 0.992998 184.602 0.992998C182.715 0.992998 181.42 2.177 181.42 3.953C181.42 5.766 182.715 6.95 184.602 6.95ZM193.842 31H199.281V16.755C200.798 15.238 201.871 14.424 203.573 14.424C205.608 14.424 206.496 15.534 206.496 18.753V31H211.935V18.087C211.935 12.87 210.011 9.762 205.534 9.762C202.722 9.762 200.613 11.242 198.8 13.018H198.689L198.282 10.28H193.842V31ZM223.391 31.518C225.759 31.518 227.831 30.334 229.644 28.78H229.792L230.162 31H234.602V18.901C234.602 12.907 231.901 9.762 226.647 9.762C223.391 9.762 220.431 10.983 217.989 12.5L219.95 16.089C221.874 14.979 223.724 14.128 225.648 14.128C228.201 14.128 229.089 15.682 229.2 17.717C220.838 18.605 217.249 20.936 217.249 25.376C217.249 28.891 219.691 31.518 223.391 31.518ZM225.167 27.263C223.576 27.263 222.429 26.56 222.429 24.932C222.429 23.082 224.131 21.676 229.2 21.047V25.228C227.868 26.523 226.721 27.263 225.167 27.263ZM3.367 85H8.288V73.567C8.288 70.977 7.844 67.166 7.585 64.576H7.733L9.916 71.014L14.171 82.521H17.316L21.534 71.014L23.754 64.576H23.939C23.643 67.166 23.236 70.977 23.236 73.567V85H28.231V57.583H22.163L17.612 70.422C17.02 72.124 16.539 73.937 15.947 75.676H15.762C15.207 73.937 14.689 72.124 14.097 70.422L9.435 57.583H3.367V85ZM44.2711 85.518C46.8241 85.518 49.4511 84.63 51.4861 83.224L49.6361 79.894C48.1561 80.819 46.6761 81.337 44.9741 81.337C41.9031 81.337 39.6831 79.561 39.2391 76.157H52.0041C52.1521 75.676 52.2631 74.677 52.2631 73.641C52.2631 67.943 49.3031 63.762 43.6051 63.762C38.6841 63.762 33.9481 67.943 33.9481 74.64C33.9481 81.485 38.4621 85.518 44.2711 85.518ZM39.1651 72.531C39.5721 69.534 41.4961 67.98 43.6791 67.98C46.3431 67.98 47.6011 69.756 47.6011 72.531H39.1651ZM43.7161 60.95L51.0051 54.438L47.3051 50.812L41.0151 58.323L43.7161 60.95ZM57.4821 85H62.9211V70.755C64.4381 69.238 65.5111 68.424 67.2131 68.424C69.2481 68.424 70.1361 69.534 70.1361 72.753V85H75.5751V72.087C75.5751 66.87 73.6511 63.762 69.1741 63.762C66.3621 63.762 64.2531 65.242 62.4401 67.018H62.3291L61.9221 64.28H57.4821V85ZM89.2142 85.518C91.3602 85.518 93.4322 84.334 94.9492 82.854H95.0972L95.5042 85H99.9072V55.474H94.5052V62.763L94.6902 66.019C93.2102 64.65 91.7672 63.762 89.4362 63.762C84.9592 63.762 80.7412 67.906 80.7412 74.64C80.7412 81.448 84.0712 85.518 89.2142 85.518ZM90.6202 81.041C87.8822 81.041 86.3282 78.895 86.3282 74.603C86.3282 70.459 88.2892 68.239 90.6202 68.239C91.9152 68.239 93.2472 68.646 94.5052 69.793V78.895C93.2842 80.449 92.0632 81.041 90.6202 81.041ZM115.505 85.518C118.058 85.518 120.685 84.63 122.72 83.224L120.87 79.894C119.39 80.819 117.91 81.337 116.208 81.337C113.137 81.337 110.917 79.561 110.473 76.157H123.238C123.386 75.676 123.497 74.677 123.497 73.641C123.497 67.943 120.537 63.762 114.839 63.762C109.918 63.762 105.182 67.943 105.182 74.64C105.182 81.485 109.696 85.518 115.505 85.518ZM110.399 72.531C110.806 69.534 112.73 67.98 114.913 67.98C117.577 67.98 118.835 69.756 118.835 72.531H110.399ZM127.093 85H143.484V80.708H133.864L143.151 67.203V64.28H128.129V68.572H136.38L127.093 82.077V85ZM3.367 139H11.174C19.24 139 24.42 134.412 24.42 125.199C24.42 115.949 19.24 111.583 10.878 111.583H3.367V139ZM8.843 134.597V115.986H10.545C15.651 115.986 18.833 118.502 18.833 125.199C18.833 131.859 15.651 134.597 10.545 134.597H8.843ZM30.0761 139H35.5151V118.28H30.0761V139ZM32.8141 114.95C34.6641 114.95 35.9591 113.766 35.9591 111.953C35.9591 110.177 34.6641 108.993 32.8141 108.993C30.9271 108.993 29.6321 110.177 29.6321 111.953C29.6321 113.766 30.9271 114.95 32.8141 114.95ZM47.9734 139.518C53.3754 139.518 56.2244 136.595 56.2244 132.969C56.2244 129.121 53.1904 127.752 50.4524 126.716C48.2694 125.902 46.3454 125.347 46.3454 123.83C46.3454 122.646 47.2334 121.832 49.1204 121.832C50.6374 121.832 52.0804 122.535 53.5604 123.608L56.0024 120.315C54.3004 119.02 51.9694 117.762 48.9724 117.762C44.2364 117.762 41.2394 120.389 41.2394 124.089C41.2394 127.567 44.1624 129.158 46.7894 130.157C48.9724 131.008 51.1184 131.711 51.1184 133.265C51.1184 134.56 50.1934 135.448 48.1214 135.448C46.1974 135.448 44.4214 134.634 42.5714 133.191L40.0924 136.595C42.1644 138.297 45.1984 139.518 47.9734 139.518ZM70.1407 139.518C72.6937 139.518 75.3207 138.63 77.3557 137.224L75.5057 133.894C74.0257 134.819 72.5457 135.337 70.8437 135.337C67.7727 135.337 65.5527 133.561 65.1087 130.157H77.8737C78.0217 129.676 78.1327 128.677 78.1327 127.641C78.1327 121.943 75.1727 117.762 69.4747 117.762C64.5537 117.762 59.8177 121.943 59.8177 128.64C59.8177 135.485 64.3317 139.518 70.1407 139.518ZM65.0347 126.531C65.4417 123.534 67.3657 121.98 69.5487 121.98C72.2127 121.98 73.4707 123.756 73.4707 126.531H65.0347ZM83.3517 139H88.7907V124.755C90.3077 123.238 91.3807 122.424 93.0827 122.424C95.1177 122.424 96.0058 123.534 96.0058 126.753V139H101.445V126.087C101.445 120.87 99.5208 117.762 95.0437 117.762C92.2317 117.762 90.1227 119.242 88.3097 121.018H88.1987L87.7917 118.28H83.3517V139ZM96.2277 114.876C99.3727 114.876 101.038 112.73 101.112 108.697L97.7077 108.512C97.5598 110.214 97.0418 111.065 96.1168 111.065C94.5997 111.065 93.2307 108.179 90.4927 108.179C87.3477 108.179 85.6827 110.325 85.6087 114.395L89.0497 114.58C89.1607 112.804 89.6787 111.99 90.6037 111.99C92.1207 111.99 93.4897 114.876 96.2277 114.876ZM112.901 139.518C115.269 139.518 117.341 138.334 119.154 136.78H119.302L119.672 139H124.112V126.901C124.112 120.907 121.411 117.762 116.157 117.762C112.901 117.762 109.941 118.983 107.499 120.5L109.46 124.089C111.384 122.979 113.234 122.128 115.158 122.128C117.711 122.128 118.599 123.682 118.71 125.717C110.348 126.605 106.759 128.936 106.759 133.376C106.759 136.891 109.201 139.518 112.901 139.518ZM114.677 135.263C113.086 135.263 111.939 134.56 111.939 132.932C111.939 131.082 113.641 129.676 118.71 129.047V133.228C117.378 134.523 116.231 135.263 114.677 135.263ZM137.684 139.518C139.83 139.518 141.902 138.334 143.419 136.854H143.567L143.974 139H148.377V109.474H142.975V116.763L143.16 120.019C141.68 118.65 140.237 117.762 137.906 117.762C133.429 117.762 129.211 121.906 129.211 128.64C129.211 135.448 132.541 139.518 137.684 139.518ZM139.09 135.041C136.352 135.041 134.798 132.895 134.798 128.603C134.798 124.459 136.759 122.239 139.09 122.239C140.385 122.239 141.717 122.646 142.975 123.793V132.895C141.754 134.449 140.533 135.041 139.09 135.041ZM163.605 139.518C168.785 139.518 173.558 135.522 173.558 128.64C173.558 121.758 168.785 117.762 163.605 117.762C158.425 117.762 153.652 121.758 153.652 128.64C153.652 135.522 158.425 139.518 163.605 139.518ZM163.605 135.078C160.793 135.078 159.202 132.562 159.202 128.64C159.202 124.755 160.793 122.202 163.605 122.202C166.417 122.202 168.008 124.755 168.008 128.64C168.008 132.562 166.417 135.078 163.605 135.078ZM178.848 139H184.287V126.642C185.434 123.645 187.395 122.572 189.023 122.572C189.874 122.572 190.466 122.683 191.206 122.905L192.131 118.206C191.502 117.947 190.836 117.762 189.689 117.762C187.543 117.762 185.323 119.242 183.806 121.943H183.695L183.288 118.28H178.848V139ZM199.653 139.518C202.021 139.518 204.093 138.334 205.906 136.78H206.054L206.424 139H210.864V126.901C210.864 120.907 208.163 117.762 202.909 117.762C199.653 117.762 196.693 118.983 194.251 120.5L196.212 124.089C198.136 122.979 199.986 122.128 201.91 122.128C204.463 122.128 205.351 123.682 205.462 125.717C197.1 126.605 193.511 128.936 193.511 133.376C193.511 136.891 195.953 139.518 199.653 139.518ZM201.429 135.263C199.838 135.263 198.691 134.56 198.691 132.932C198.691 131.082 200.393 129.676 205.462 129.047V133.228C204.13 134.523 202.983 135.263 201.429 135.263ZM237.222 139.518C243.919 139.518 247.804 135.781 247.804 126.679V111.583H242.55V127.16C242.55 132.858 240.478 134.782 237.222 134.782C234.04 134.782 232.042 132.858 232.042 127.16V111.583H226.566V126.679C226.566 135.781 230.562 139.518 237.222 139.518ZM251.849 139H257.658L260.581 132.932C261.247 131.526 261.913 130.083 262.579 128.418H262.727C263.541 130.083 264.17 131.526 264.873 132.932L267.944 139H274.012L266.316 125.125L273.531 111.583H267.759L265.169 117.244C264.577 118.539 264.022 119.871 263.356 121.573H263.171C262.357 119.871 261.802 118.539 261.136 117.244L258.398 111.583H252.33L259.545 124.866L251.849 139ZM10.508 193.518C12.321 193.518 13.764 193.111 14.874 192.741L13.986 188.782C13.431 189.004 12.617 189.226 11.951 189.226C10.101 189.226 9.139 188.116 9.139 185.748V176.572H14.245V172.28H9.139V166.693H4.625L3.996 172.28L0.777 172.539V176.572H3.7V185.748C3.7 190.373 5.587 193.518 10.508 193.518ZM23.4389 193.518C25.8069 193.518 27.8789 192.334 29.6919 190.78H29.8399L30.2099 193H34.6499V180.901C34.6499 174.907 31.9489 171.762 26.6949 171.762C23.4389 171.762 20.4789 172.983 18.0369 174.5L19.9979 178.089C21.9219 176.979 23.7719 176.128 25.6959 176.128C28.2489 176.128 29.1369 177.682 29.2479 179.717C20.8859 180.605 17.2969 182.936 17.2969 187.376C17.2969 190.891 19.7389 193.518 23.4389 193.518ZM25.2149 189.263C23.6239 189.263 22.4769 188.56 22.4769 186.932C22.4769 185.082 24.1789 183.676 29.2479 183.047V187.228C27.9159 188.523 26.7689 189.263 25.2149 189.263ZM40.9333 193H46.3723V178.755C47.8153 177.201 49.1473 176.424 50.3313 176.424C52.2923 176.424 53.2543 177.534 53.2543 180.753V193H58.6563V178.755C60.1363 177.201 61.4683 176.424 62.6523 176.424C64.6133 176.424 65.5383 177.534 65.5383 180.753V193H70.9773V180.087C70.9773 174.87 68.9423 171.762 64.5393 171.762C61.8383 171.762 59.8403 173.39 57.9533 175.388C56.9543 173.094 55.2153 171.762 52.2553 171.762C49.5543 171.762 47.6303 173.242 45.8913 175.055H45.7803L45.3733 172.28H40.9333V193ZM87.7334 193.518C92.2844 193.518 96.5394 189.411 96.5394 182.27C96.5394 175.943 93.4684 171.762 88.3624 171.762C86.3274 171.762 84.2554 172.761 82.6274 174.241L82.7754 170.911V163.474H77.3364V193H81.5914L82.0724 190.817H82.2204C83.8854 192.556 85.8834 193.518 87.7334 193.518ZM86.5124 189.041C85.4024 189.041 84.0704 188.634 82.7754 187.487V178.385C84.1814 176.942 85.4394 176.239 86.8454 176.239C89.6944 176.239 90.9524 178.422 90.9524 182.381C90.9524 186.895 89.0284 189.041 86.5124 189.041ZM101.888 193H107.327V172.28H101.888V193ZM104.626 168.95C106.476 168.95 107.771 167.766 107.771 165.953C107.771 164.177 106.476 162.993 104.626 162.993C102.739 162.993 101.444 164.177 101.444 165.953C101.444 167.766 102.739 168.95 104.626 168.95ZM122.893 193.518C125.446 193.518 128.073 192.63 130.108 191.224L128.258 187.894C126.778 188.819 125.298 189.337 123.596 189.337C120.525 189.337 118.305 187.561 117.861 184.157H130.626C130.774 183.676 130.885 182.677 130.885 181.641C130.885 175.943 127.925 171.762 122.227 171.762C117.306 171.762 112.57 175.943 112.57 182.64C112.57 189.485 117.084 193.518 122.893 193.518ZM117.787 180.531C118.194 177.534 120.118 175.98 122.301 175.98C124.965 175.98 126.223 177.756 126.223 180.531H117.787ZM122.338 168.95L129.627 162.438L125.927 158.812L119.637 166.323L122.338 168.95ZM136.104 193H141.543V178.755C143.06 177.238 144.133 176.424 145.835 176.424C147.87 176.424 148.758 177.534 148.758 180.753V193H154.197V180.087C154.197 174.87 152.273 171.762 147.796 171.762C144.984 171.762 142.875 173.242 141.062 175.018H140.951L140.544 172.28H136.104V193ZM11.729 247.518C14.023 247.518 16.539 246.741 18.537 245.002L16.354 241.413C15.207 242.375 13.801 243.078 12.321 243.078C9.361 243.078 7.178 240.562 7.178 236.64C7.178 232.755 9.324 230.202 12.506 230.202C13.653 230.202 14.615 230.683 15.651 231.571L18.241 228.056C16.724 226.761 14.763 225.762 12.21 225.762C6.586 225.762 1.628 229.758 1.628 236.64C1.628 243.522 5.994 247.518 11.729 247.518ZM30.7126 247.518C35.8926 247.518 40.6656 243.522 40.6656 236.64C40.6656 229.758 35.8926 225.762 30.7126 225.762C25.5326 225.762 20.7596 229.758 20.7596 236.64C20.7596 243.522 25.5326 247.518 30.7126 247.518ZM30.7126 243.078C27.9006 243.078 26.3096 240.562 26.3096 236.64C26.3096 232.755 27.9006 230.202 30.7126 230.202C33.5246 230.202 35.1156 232.755 35.1156 236.64C35.1156 240.562 33.5246 243.078 30.7126 243.078ZM45.9557 247H51.3947V232.755C52.9117 231.238 53.9847 230.424 55.6867 230.424C57.7217 230.424 58.6097 231.534 58.6097 234.753V247H64.0487V234.087C64.0487 228.87 62.1247 225.762 57.6477 225.762C54.8357 225.762 52.7267 227.242 50.9137 229.018H50.8027L50.3957 226.28H45.9557V247ZM79.0569 247.518C84.2369 247.518 89.0099 243.522 89.0099 236.64C89.0099 229.758 84.2369 225.762 79.0569 225.762C73.8769 225.762 69.1039 229.758 69.1039 236.64C69.1039 243.522 73.8769 247.518 79.0569 247.518ZM79.0569 243.078C76.2449 243.078 74.6539 240.562 74.6539 236.64C74.6539 232.755 76.2449 230.202 79.0569 230.202C81.8689 230.202 83.4599 232.755 83.4599 236.64C83.4599 240.562 81.8689 243.078 79.0569 243.078ZM103.106 247.518C105.4 247.518 107.916 246.741 109.914 245.002L107.731 241.413C106.584 242.375 105.178 243.078 103.698 243.078C100.738 243.078 98.555 240.562 98.555 236.64C98.555 232.755 100.701 230.202 103.883 230.202C105.03 230.202 105.992 230.683 107.028 231.571L109.618 228.056C108.101 226.761 106.14 225.762 103.587 225.762C97.963 225.762 93.005 229.758 93.005 236.64C93.005 243.522 97.371 247.518 103.106 247.518ZM114.552 247H119.991V226.28H114.552V247ZM117.29 222.95C119.14 222.95 120.435 221.766 120.435 219.953C120.435 218.177 119.14 216.993 117.29 216.993C115.403 216.993 114.108 218.177 114.108 219.953C114.108 221.766 115.403 222.95 117.29 222.95ZM133.818 247.518C135.964 247.518 138.036 246.334 139.553 244.854H139.701L140.108 247H144.511V217.474H139.109V224.763L139.294 228.019C137.814 226.65 136.371 225.762 134.04 225.762C129.563 225.762 125.345 229.906 125.345 236.64C125.345 243.448 128.675 247.518 133.818 247.518ZM135.224 243.041C132.486 243.041 130.932 240.895 130.932 236.603C130.932 232.459 132.893 230.239 135.224 230.239C136.519 230.239 137.851 230.646 139.109 231.793V240.895C137.888 242.449 136.667 243.041 135.224 243.041ZM156.187 247.518C158.555 247.518 160.627 246.334 162.44 244.78H162.588L162.958 247H167.398V234.901C167.398 228.907 164.697 225.762 159.443 225.762C156.187 225.762 153.227 226.983 150.785 228.5L152.746 232.089C154.67 230.979 156.52 230.128 158.444 230.128C160.997 230.128 161.885 231.682 161.996 233.717C153.634 234.605 150.045 236.936 150.045 241.376C150.045 244.891 152.487 247.518 156.187 247.518ZM157.963 243.263C156.372 243.263 155.225 242.56 155.225 240.932C155.225 239.082 156.927 237.676 161.996 237.047V241.228C160.664 242.523 159.517 243.263 157.963 243.263ZM191.61 247.518C193.904 247.518 196.42 246.741 198.418 245.002L196.235 241.413C195.088 242.375 193.682 243.078 192.202 243.078C189.242 243.078 187.059 240.562 187.059 236.64C187.059 232.755 189.205 230.202 192.387 230.202C193.534 230.202 194.496 230.683 195.532 231.571L198.122 228.056C196.605 226.761 194.644 225.762 192.091 225.762C186.467 225.762 181.509 229.758 181.509 236.64C181.509 243.522 185.875 247.518 191.61 247.518ZM210.593 247.518C215.773 247.518 220.546 243.522 220.546 236.64C220.546 229.758 215.773 225.762 210.593 225.762C205.413 225.762 200.64 229.758 200.64 236.64C200.64 243.522 205.413 247.518 210.593 247.518ZM210.593 243.078C207.781 243.078 206.19 240.562 206.19 236.64C206.19 232.755 207.781 230.202 210.593 230.202C213.405 230.202 214.996 232.755 214.996 236.64C214.996 240.562 213.405 243.078 210.593 243.078ZM225.836 247H231.275V232.755C232.718 231.201 234.05 230.424 235.234 230.424C237.195 230.424 238.157 231.534 238.157 234.753V247H243.559V232.755C245.039 231.201 246.371 230.424 247.555 230.424C249.516 230.424 250.441 231.534 250.441 234.753V247H255.88V234.087C255.88 228.87 253.845 225.762 249.442 225.762C246.741 225.762 244.743 227.39 242.856 229.388C241.857 227.094 240.118 225.762 237.158 225.762C234.457 225.762 232.533 227.242 230.794 229.055H230.683L230.276 226.28H225.836V247ZM270.898 247.518C276.078 247.518 280.851 243.522 280.851 236.64C280.851 229.758 276.078 225.762 270.898 225.762C265.718 225.762 260.945 229.758 260.945 236.64C260.945 243.522 265.718 247.518 270.898 247.518ZM270.898 243.078C268.086 243.078 266.495 240.562 266.495 236.64C266.495 232.755 268.086 230.202 270.898 230.202C273.71 230.202 275.301 232.755 275.301 236.64C275.301 240.562 273.71 243.078 270.898 243.078ZM3.367 301H8.547V290.011C8.547 286.866 8.14 283.425 7.881 280.465H8.066L10.841 286.348L18.759 301H24.309V273.583H19.129V284.535C19.129 287.643 19.573 291.269 19.832 294.118H19.647L16.909 288.198L8.954 273.583H3.367V301ZM31.3769 301H36.8159V280.28H31.3769V301ZM34.1149 276.95C35.9649 276.95 37.2599 275.766 37.2599 273.953C37.2599 272.177 35.9649 270.993 34.1149 270.993C32.2279 270.993 30.9329 272.177 30.9329 273.953C30.9329 275.766 32.2279 276.95 34.1149 276.95ZM43.3542 301H48.7932V286.755C50.3102 285.238 51.3832 284.424 53.0852 284.424C55.1202 284.424 56.0082 285.534 56.0082 288.753V301H61.4472V288.087C61.4472 282.87 59.5232 279.762 55.0462 279.762C52.2342 279.762 50.1252 281.242 48.3122 283.018H48.2012L47.7942 280.28H43.3542V301ZM72.9033 301.518C75.2713 301.518 77.3433 300.334 79.1563 298.78H79.3043L79.6743 301H84.1143V288.901C84.1143 282.907 81.4133 279.762 76.1593 279.762C72.9033 279.762 69.9433 280.983 67.5013 282.5L69.4623 286.089C71.3863 284.979 73.2363 284.128 75.1603 284.128C77.7133 284.128 78.6013 285.682 78.7123 287.717C70.3503 288.605 66.7613 290.936 66.7613 295.376C66.7613 298.891 69.2033 301.518 72.9033 301.518ZM74.6793 297.263C73.0883 297.263 71.9413 296.56 71.9413 294.932C71.9413 293.082 73.6433 291.676 78.7123 291.047V295.228C77.3803 296.523 76.2333 297.263 74.6793 297.263Z" fill="white"/>
</svg>
