<svg width="284" height="123" viewBox="0 0 284 123" fill="none" xmlns="http://www.w3.org/2000/svg">
<path d="M87.0344 16H94.0094V14.14H89.2544V11.17H93.1544V9.31H89.2544V6.745H93.8444V4.885H87.0344V16ZM99.6614 16H106.396V14.14H101.881V4.885H99.6614V16ZM115.13 16H118.295C121.565 16 123.665 14.14 123.665 10.405C123.665 6.655 121.565 4.885 118.175 4.885H115.13V16ZM117.35 14.215V6.67H118.04C120.11 6.67 121.4 7.69 121.4 10.405C121.4 13.105 120.11 14.215 118.04 14.215H117.35ZM129.237 16H136.212V14.14H131.457V11.17H135.357V9.31H131.457V6.745H136.047V4.885H129.237V16ZM145.179 16.21C147.744 16.21 149.259 14.665 149.259 12.85C149.259 11.245 148.374 10.39 147.024 9.835L145.569 9.22C144.624 8.845 143.844 8.56 143.844 7.765C143.844 7.03 144.459 6.595 145.434 6.595C146.349 6.595 147.084 6.925 147.789 7.51L148.914 6.115C148.014 5.2 146.724 4.69 145.434 4.69C143.184 4.69 141.594 6.085 141.594 7.9C141.594 9.52 142.719 10.42 143.844 10.885L145.329 11.515C146.319 11.935 146.994 12.19 146.994 13.015C146.994 13.795 146.379 14.29 145.224 14.29C144.249 14.29 143.199 13.795 142.404 13.06L141.129 14.59C142.209 15.625 143.694 16.21 145.179 16.21ZM157.037 10.21C157.367 9.055 157.697 7.795 157.982 6.58H158.057C158.372 7.78 158.672 9.055 159.017 10.21L159.347 11.425H156.707L157.037 10.21ZM153.197 16H155.447L156.227 13.15H159.827L160.607 16H162.932L159.362 4.885H156.752L153.197 16ZM167.63 16H169.85V11.5H173.795V9.64H169.85V6.745H174.47V4.885H167.63V16ZM179.803 16H182.023V4.885H179.803V16ZM180.733 4.345L183.703 2.35L182.533 0.909999L179.743 3.235L180.733 4.345ZM192.563 16.21C195.503 16.21 197.528 14.005 197.528 10.405C197.528 6.805 195.503 4.69 192.563 4.69C189.623 4.69 187.598 6.79 187.598 10.405C187.598 14.005 189.623 16.21 192.563 16.21ZM192.563 14.29C190.913 14.29 189.863 12.775 189.863 10.405C189.863 8.02 190.913 6.595 192.563 6.595C194.213 6.595 195.263 8.02 195.263 10.405C195.263 12.775 194.213 14.29 192.563 14.29Z" fill="#D29890"/>
<path d="M9.01039 62.066C10.1444 62.066 11.0264 61.52 11.6984 60.778L10.9564 60.106C10.4664 60.666 9.85039 61.016 9.15039 61.016C8.15639 61.016 7.63839 60.33 7.63839 59.476C7.63839 57.824 10.1304 56.928 9.79439 54.492H8.66039C8.91239 56.69 6.39239 57.516 6.39239 59.574C6.39239 61.114 7.44239 62.066 9.01039 62.066ZM9.19239 53.162C9.71039 53.162 10.1164 52.756 10.1164 52.182C10.1164 51.608 9.71039 51.202 9.19239 51.202C8.68839 51.202 8.26839 51.608 8.26839 52.182C8.26839 52.756 8.68839 53.162 9.19239 53.162ZM16.8757 59.182C18.2057 59.182 19.2137 58.65 20.0257 57.712L19.3117 56.9C18.6537 57.614 17.9117 58.048 16.9317 58.048C14.9717 58.048 13.7397 56.424 13.7397 53.834C13.7397 51.272 15.0277 49.676 16.9737 49.676C17.8557 49.676 18.5417 50.082 19.0737 50.656L19.7737 49.816C19.1857 49.158 18.2057 48.542 16.9597 48.542C14.3557 48.542 12.4097 50.558 12.4097 53.876C12.4097 57.208 14.3277 59.182 16.8757 59.182ZM24.7674 59.182C26.6294 59.182 28.2954 57.726 28.2954 55.206C28.2954 52.672 26.6294 51.202 24.7674 51.202C22.9054 51.202 21.2394 52.672 21.2394 55.206C21.2394 57.726 22.9054 59.182 24.7674 59.182ZM24.7674 58.118C23.4514 58.118 22.5694 56.956 22.5694 55.206C22.5694 53.456 23.4514 52.266 24.7674 52.266C26.0834 52.266 26.9794 53.456 26.9794 55.206C26.9794 56.956 26.0834 58.118 24.7674 58.118ZM24.5434 50.026L26.9934 47.646L26.0974 46.792L23.8854 49.396L24.5434 50.026ZM30.3036 59H31.5776V53.484C32.2776 52.7 32.9216 52.322 33.4956 52.322C34.4616 52.322 34.9096 52.924 34.9096 54.352V59H36.1836V53.484C36.8976 52.7 37.5136 52.322 38.1016 52.322C39.0676 52.322 39.5156 52.924 39.5156 54.352V59H40.7896V54.184C40.7896 52.238 40.0476 51.202 38.4796 51.202C37.5556 51.202 36.7576 51.804 35.9736 52.658C35.6656 51.762 35.0356 51.202 33.8736 51.202C32.9636 51.202 32.1656 51.776 31.5076 52.504H31.4656L31.3536 51.398H30.3036V59ZM46.2186 59.182C48.0806 59.182 49.7466 57.726 49.7466 55.206C49.7466 52.672 48.0806 51.202 46.2186 51.202C44.3566 51.202 42.6906 52.672 42.6906 55.206C42.6906 57.726 44.3566 59.182 46.2186 59.182ZM46.2186 58.118C44.9026 58.118 44.0206 56.956 44.0206 55.206C44.0206 53.456 44.9026 52.266 46.2186 52.266C47.5346 52.266 48.4306 53.456 48.4306 55.206C48.4306 56.956 47.5346 58.118 46.2186 58.118ZM57.4757 59.182C58.3857 59.182 59.1837 58.692 59.7857 58.104H59.8277L59.9397 59H60.9757V47.856H59.7157V50.782L59.7717 52.098C59.0997 51.538 58.5257 51.202 57.6297 51.202C55.8937 51.202 54.3397 52.742 54.3397 55.206C54.3397 57.74 55.5717 59.182 57.4757 59.182ZM57.7557 58.118C56.4117 58.118 55.6557 57.026 55.6557 55.192C55.6557 53.456 56.6217 52.28 57.8537 52.28C58.4837 52.28 59.0577 52.504 59.7157 53.078V57.068C59.0717 57.768 58.4557 58.118 57.7557 58.118ZM63.5673 59H64.8413V51.398H63.5673V59ZM64.2113 49.83C64.7153 49.83 65.0653 49.494 65.0653 48.976C65.0653 48.486 64.7153 48.15 64.2113 48.15C63.7073 48.15 63.3573 48.486 63.3573 48.976C63.3573 49.494 63.7073 49.83 64.2113 49.83ZM69.4108 59.182C71.2028 59.182 72.1828 58.16 72.1828 56.928C72.1828 55.486 70.9648 55.038 69.8588 54.618C69.0048 54.296 68.2208 54.03 68.2208 53.302C68.2208 52.714 68.6688 52.21 69.6348 52.21C70.3068 52.21 70.8388 52.49 71.3568 52.882L71.9728 52.056C71.3848 51.594 70.5588 51.202 69.6208 51.202C67.9688 51.202 66.9888 52.154 66.9888 53.358C66.9888 54.646 68.1508 55.164 69.2148 55.556C70.0548 55.878 70.9508 56.214 70.9508 56.998C70.9508 57.656 70.4608 58.188 69.4528 58.188C68.5428 58.188 67.8568 57.824 67.1988 57.292L66.5688 58.132C67.2968 58.734 68.3328 59.182 69.4108 59.182ZM77.0376 59.182C78.0736 59.182 78.8856 58.832 79.5576 58.398L79.0956 57.558C78.5356 57.936 77.9336 58.16 77.1916 58.16C75.7496 58.16 74.7556 57.124 74.6716 55.5H79.7956C79.8236 55.318 79.8516 55.052 79.8516 54.772C79.8516 52.602 78.7596 51.202 76.8276 51.202C75.0636 51.202 73.3976 52.742 73.3976 55.206C73.3976 57.712 75.0216 59.182 77.0376 59.182ZM74.6576 54.576C74.8116 53.092 75.7636 52.224 76.8416 52.224C78.0316 52.224 78.7316 53.05 78.7316 54.576H74.6576ZM81.7235 59H82.9975V53.484C83.7675 52.714 84.2995 52.322 85.0835 52.322C86.0915 52.322 86.5255 52.924 86.5255 54.352V59H87.7995V54.184C87.7995 52.238 87.0715 51.202 85.4755 51.202C84.4395 51.202 83.6555 51.776 82.9275 52.49H82.8855L82.7735 51.398H81.7235V59ZM86.1755 49.97C87.2535 49.97 87.7015 49.046 87.7435 47.856L86.8895 47.814C86.8475 48.528 86.6375 49.032 86.1755 49.032C85.4335 49.032 85.0135 47.716 83.9215 47.716C82.8295 47.716 82.3815 48.626 82.3395 49.844L83.2075 49.9C83.2355 49.144 83.4595 48.654 83.9215 48.654C84.6495 48.654 85.0695 49.97 86.1755 49.97ZM92.0321 59.182C92.9701 59.182 93.8241 58.692 94.5521 58.09H94.5941L94.7061 59H95.7561V54.324C95.7561 52.448 94.9721 51.202 93.1241 51.202C91.9061 51.202 90.8281 51.748 90.1281 52.196L90.6321 53.078C91.2341 52.672 92.0321 52.266 92.9141 52.266C94.1601 52.266 94.4821 53.204 94.4821 54.184C91.2481 54.548 89.8061 55.374 89.8061 57.026C89.8061 58.398 90.7581 59.182 92.0321 59.182ZM92.3961 58.16C91.6401 58.16 91.0521 57.81 91.0521 56.942C91.0521 55.962 91.9201 55.332 94.4821 55.024V57.152C93.7401 57.81 93.1381 58.16 92.3961 58.16ZM98.1845 59H99.4585V54.114C99.9625 52.812 100.746 52.364 101.376 52.364C101.684 52.364 101.866 52.392 102.118 52.49L102.356 51.37C102.118 51.244 101.88 51.202 101.544 51.202C100.69 51.202 99.9205 51.818 99.3885 52.784H99.3465L99.2345 51.398H98.1845V59ZM108.955 59.182C110.005 59.182 110.761 58.636 111.475 57.81H111.517L111.615 59H112.679V51.398H111.405V56.788C110.677 57.698 110.131 58.076 109.347 58.076C108.339 58.076 107.919 57.474 107.919 56.06V51.398H106.645V56.214C106.645 58.146 107.359 59.182 108.955 59.182ZM115.247 59H116.521V53.484C117.291 52.714 117.823 52.322 118.607 52.322C119.615 52.322 120.049 52.924 120.049 54.352V59H121.323V54.184C121.323 52.238 120.595 51.202 118.999 51.202C117.963 51.202 117.179 51.776 116.451 52.49H116.409L116.297 51.398H115.247V59ZM125.556 59.182C126.494 59.182 127.348 58.692 128.076 58.09H128.118L128.23 59H129.28V54.324C129.28 52.448 128.496 51.202 126.648 51.202C125.43 51.202 124.352 51.748 123.652 52.196L124.156 53.078C124.758 52.672 125.556 52.266 126.438 52.266C127.684 52.266 128.006 53.204 128.006 54.184C124.772 54.548 123.33 55.374 123.33 57.026C123.33 58.398 124.282 59.182 125.556 59.182ZM125.92 58.16C125.164 58.16 124.576 57.81 124.576 56.942C124.576 55.962 125.444 55.332 128.006 55.024V57.152C127.264 57.81 126.662 58.16 125.92 58.16ZM134.839 62.206H136.113V59.63L136.085 58.3C136.771 58.86 137.499 59.182 138.185 59.182C139.935 59.182 141.489 57.684 141.489 55.08C141.489 52.742 140.425 51.202 138.465 51.202C137.583 51.202 136.729 51.706 136.043 52.266H136.001L135.889 51.398H134.839V62.206ZM137.975 58.118C137.471 58.118 136.799 57.908 136.113 57.32V53.33C136.855 52.644 137.513 52.28 138.157 52.28C139.599 52.28 140.159 53.414 140.159 55.094C140.159 56.984 139.235 58.118 137.975 58.118ZM144.864 59.182C145.214 59.182 145.424 59.14 145.606 59.07L145.424 58.09C145.284 58.118 145.228 58.118 145.158 58.118C144.962 58.118 144.794 57.964 144.794 57.572V47.856H143.52V57.488C143.52 58.566 143.912 59.182 144.864 59.182ZM149.263 59.182C150.201 59.182 151.055 58.692 151.783 58.09H151.825L151.937 59H152.987V54.324C152.987 52.448 152.203 51.202 150.355 51.202C149.137 51.202 148.059 51.748 147.359 52.196L147.863 53.078C148.465 52.672 149.263 52.266 150.145 52.266C151.391 52.266 151.713 53.204 151.713 54.184C148.479 54.548 147.037 55.374 147.037 57.026C147.037 58.398 147.989 59.182 149.263 59.182ZM149.627 58.16C148.871 58.16 148.283 57.81 148.283 56.942C148.283 55.962 149.151 55.332 151.713 55.024V57.152C150.971 57.81 150.369 58.16 149.627 58.16ZM157.604 59.182C158.066 59.182 158.57 59.042 159.004 58.902L158.752 57.95C158.5 58.048 158.15 58.146 157.884 58.146C157.002 58.146 156.708 57.614 156.708 56.676V52.434H158.766V51.398H156.708V49.256H155.644L155.49 51.398L154.3 51.468V52.434H155.434V56.648C155.434 58.16 155.98 59.182 157.604 59.182ZM161.895 59.182C162.833 59.182 163.687 58.692 164.415 58.09H164.457L164.569 59H165.619V54.324C165.619 52.448 164.835 51.202 162.987 51.202C161.769 51.202 160.691 51.748 159.991 52.196L160.495 53.078C161.097 52.672 161.895 52.266 162.777 52.266C164.023 52.266 164.345 53.204 164.345 54.184C161.111 54.548 159.669 55.374 159.669 57.026C159.669 58.398 160.621 59.182 161.895 59.182ZM162.259 58.16C161.503 58.16 160.915 57.81 160.915 56.942C160.915 55.962 161.783 55.332 164.345 55.024V57.152C163.603 57.81 163.001 58.16 162.259 58.16ZM168.258 59H169.532V52.434H171.142V51.398H169.532V50.194C169.532 49.214 169.882 48.696 170.61 48.696C170.876 48.696 171.184 48.766 171.464 48.892L171.744 47.926C171.394 47.772 170.932 47.674 170.47 47.674C168.958 47.674 168.258 48.64 168.258 50.18V51.398L167.222 51.468V52.434H168.258V59ZM175.404 59.182C177.266 59.182 178.932 57.726 178.932 55.206C178.932 52.672 177.266 51.202 175.404 51.202C173.542 51.202 171.876 52.672 171.876 55.206C171.876 57.726 173.542 59.182 175.404 59.182ZM175.404 58.118C174.088 58.118 173.206 56.956 173.206 55.206C173.206 53.456 174.088 52.266 175.404 52.266C176.72 52.266 177.616 53.456 177.616 55.206C177.616 56.956 176.72 58.118 175.404 58.118ZM180.94 59H182.214V54.114C182.718 52.812 183.502 52.364 184.132 52.364C184.44 52.364 184.622 52.392 184.874 52.49L185.112 51.37C184.874 51.244 184.636 51.202 184.3 51.202C183.446 51.202 182.676 51.818 182.144 52.784H182.102L181.99 51.398H180.94V59ZM186.368 59H187.642V53.484C188.342 52.7 188.986 52.322 189.56 52.322C190.526 52.322 190.974 52.924 190.974 54.352V59H192.248V53.484C192.962 52.7 193.578 52.322 194.166 52.322C195.132 52.322 195.58 52.924 195.58 54.352V59H196.854V54.184C196.854 52.238 196.112 51.202 194.544 51.202C193.62 51.202 192.822 51.804 192.038 52.658C191.73 51.762 191.1 51.202 189.938 51.202C189.028 51.202 188.23 51.776 187.572 52.504H187.53L187.418 51.398H186.368V59ZM201.079 59.182C202.017 59.182 202.871 58.692 203.599 58.09H203.641L203.753 59H204.803V54.324C204.803 52.448 204.019 51.202 202.171 51.202C200.953 51.202 199.875 51.748 199.175 52.196L199.679 53.078C200.281 52.672 201.079 52.266 201.961 52.266C203.207 52.266 203.529 53.204 203.529 54.184C200.295 54.548 198.853 55.374 198.853 57.026C198.853 58.398 199.805 59.182 201.079 59.182ZM201.443 58.16C200.687 58.16 200.099 57.81 200.099 56.942C200.099 55.962 200.967 55.332 203.529 55.024V57.152C202.787 57.81 202.185 58.16 201.443 58.16ZM213.316 59.182C215.178 59.182 216.844 57.726 216.844 55.206C216.844 52.672 215.178 51.202 213.316 51.202C211.454 51.202 209.788 52.672 209.788 55.206C209.788 57.726 211.454 59.182 213.316 59.182ZM213.316 58.118C212 58.118 211.118 56.956 211.118 55.206C211.118 53.456 212 52.266 213.316 52.266C214.632 52.266 215.528 53.456 215.528 55.206C215.528 56.956 214.632 58.118 213.316 58.118ZM218.852 59H220.126V53.484C220.896 52.714 221.428 52.322 222.212 52.322C223.22 52.322 223.654 52.924 223.654 54.352V59H224.928V54.184C224.928 52.238 224.2 51.202 222.604 51.202C221.568 51.202 220.784 51.776 220.056 52.49H220.014L219.902 51.398H218.852V59ZM228.755 59.182C229.105 59.182 229.315 59.14 229.497 59.07L229.315 58.09C229.175 58.118 229.119 58.118 229.049 58.118C228.853 58.118 228.685 57.964 228.685 57.572V47.856H227.411V57.488C227.411 58.566 227.803 59.182 228.755 59.182ZM231.403 59H232.677V51.398H231.403V59ZM232.047 49.83C232.551 49.83 232.901 49.494 232.901 48.976C232.901 48.486 232.551 48.15 232.047 48.15C231.543 48.15 231.193 48.486 231.193 48.976C231.193 49.494 231.543 49.83 232.047 49.83ZM235.259 59H236.533V53.484C237.303 52.714 237.835 52.322 238.619 52.322C239.627 52.322 240.061 52.924 240.061 54.352V59H241.335V54.184C241.335 52.238 240.607 51.202 239.011 51.202C237.975 51.202 237.191 51.776 236.463 52.49H236.421L236.309 51.398H235.259V59ZM246.883 59.182C247.919 59.182 248.731 58.832 249.403 58.398L248.941 57.558C248.381 57.936 247.779 58.16 247.037 58.16C245.595 58.16 244.601 57.124 244.517 55.5H249.641C249.669 55.318 249.697 55.052 249.697 54.772C249.697 52.602 248.605 51.202 246.673 51.202C244.909 51.202 243.243 52.742 243.243 55.206C243.243 57.712 244.867 59.182 246.883 59.182ZM244.503 54.576C244.657 53.092 245.609 52.224 246.687 52.224C247.877 52.224 248.577 53.05 248.577 54.576H244.503ZM259.53 62.206H260.79V51.398H259.782L259.656 52.126H259.614C258.956 51.524 258.326 51.202 257.444 51.202C255.708 51.202 254.154 52.742 254.154 55.206C254.154 57.74 255.386 59.182 257.29 59.182C258.172 59.182 258.97 58.72 259.586 58.118L259.53 59.504V62.206ZM257.57 58.118C256.226 58.118 255.47 57.026 255.47 55.192C255.47 53.456 256.436 52.28 257.668 52.28C258.298 52.28 258.872 52.504 259.53 53.078V57.068C258.886 57.768 258.27 58.118 257.57 58.118ZM265.594 59.182C266.644 59.182 267.4 58.636 268.114 57.81H268.156L268.254 59H269.318V51.398H268.044V56.788C267.316 57.698 266.77 58.076 265.986 58.076C264.978 58.076 264.558 57.474 264.558 56.06V51.398H263.284V56.214C263.284 58.146 263.998 59.182 265.594 59.182ZM274.952 59.182C275.988 59.182 276.8 58.832 277.472 58.398L277.01 57.558C276.45 57.936 275.848 58.16 275.106 58.16C273.664 58.16 272.67 57.124 272.586 55.5H277.71C277.738 55.318 277.766 55.052 277.766 54.772C277.766 52.602 276.674 51.202 274.742 51.202C272.978 51.202 271.312 52.742 271.312 55.206C271.312 57.712 272.936 59.182 274.952 59.182ZM272.572 54.576C272.726 53.092 273.678 52.224 274.756 52.224C275.946 52.224 276.646 53.05 276.646 54.576H272.572ZM13.2266 79.182C14.1366 79.182 14.9346 78.692 15.5366 78.104H15.5786L15.6906 79H16.7266V67.856H15.4666V70.782L15.5226 72.098C14.8506 71.538 14.2766 71.202 13.3806 71.202C11.6446 71.202 10.0906 72.742 10.0906 75.206C10.0906 77.74 11.3226 79.182 13.2266 79.182ZM13.5066 78.118C12.1626 78.118 11.4066 77.026 11.4066 75.192C11.4066 73.456 12.3726 72.28 13.6046 72.28C14.2346 72.28 14.8086 72.504 15.4666 73.078V77.068C14.8226 77.768 14.2066 78.118 13.5066 78.118ZM22.3843 79.182C23.4203 79.182 24.2323 78.832 24.9043 78.398L24.4423 77.558C23.8823 77.936 23.2803 78.16 22.5383 78.16C21.0963 78.16 20.1023 77.124 20.0183 75.5H25.1423C25.1703 75.318 25.1983 75.052 25.1983 74.772C25.1983 72.602 24.1063 71.202 22.1743 71.202C20.4103 71.202 18.7443 72.742 18.7443 75.206C18.7443 77.712 20.3683 79.182 22.3843 79.182ZM20.0043 74.576C20.1583 73.092 21.1103 72.224 22.1883 72.224C23.3783 72.224 24.0783 73.05 24.0783 74.576H20.0043ZM29.0582 79.182C30.8502 79.182 31.8302 78.16 31.8302 76.928C31.8302 75.486 30.6122 75.038 29.5062 74.618C28.6522 74.296 27.8682 74.03 27.8682 73.302C27.8682 72.714 28.3162 72.21 29.2822 72.21C29.9542 72.21 30.4862 72.49 31.0042 72.882L31.6202 72.056C31.0322 71.594 30.2062 71.202 29.2682 71.202C27.6162 71.202 26.6362 72.154 26.6362 73.358C26.6362 74.646 27.7982 75.164 28.8622 75.556C29.7022 75.878 30.5982 76.214 30.5982 76.998C30.5982 77.656 30.1082 78.188 29.1002 78.188C28.1902 78.188 27.5042 77.824 26.8462 77.292L26.2162 78.132C26.9442 78.734 27.9802 79.182 29.0582 79.182ZM33.6191 82.206H34.8931V79.63L34.8651 78.3C35.5511 78.86 36.2791 79.182 36.9651 79.182C38.7151 79.182 40.2691 77.684 40.2691 75.08C40.2691 72.742 39.2051 71.202 37.2451 71.202C36.3631 71.202 35.5091 71.706 34.8231 72.266H34.7811L34.6691 71.398H33.6191V82.206ZM36.7551 78.118C36.2511 78.118 35.5791 77.908 34.8931 77.32V73.33C35.6351 72.644 36.2931 72.28 36.9371 72.28C38.3791 72.28 38.9391 73.414 38.9391 75.094C38.9391 76.984 38.0151 78.118 36.7551 78.118ZM43.6447 79.182C43.9947 79.182 44.2047 79.14 44.3867 79.07L44.2047 78.09C44.0647 78.118 44.0087 78.118 43.9387 78.118C43.7427 78.118 43.5747 77.964 43.5747 77.572V67.856H42.3007V77.488C42.3007 78.566 42.6927 79.182 43.6447 79.182ZM46.2929 79H47.5669V71.398H46.2929V79ZM46.9369 69.83C47.4409 69.83 47.7909 69.494 47.7909 68.976C47.7909 68.486 47.4409 68.15 46.9369 68.15C46.4329 68.15 46.0829 68.486 46.0829 68.976C46.0829 69.494 46.4329 69.83 46.9369 69.83ZM53.2144 79.182C54.2504 79.182 55.0624 78.832 55.7344 78.398L55.2724 77.558C54.7124 77.936 54.1104 78.16 53.3684 78.16C51.9264 78.16 50.9324 77.124 50.8484 75.5H55.9724C56.0004 75.318 56.0284 75.052 56.0284 74.772C56.0284 72.602 54.9364 71.202 53.0044 71.202C51.2404 71.202 49.5744 72.742 49.5744 75.206C49.5744 77.712 51.1984 79.182 53.2144 79.182ZM50.8344 74.576C50.9884 73.092 51.9404 72.224 53.0184 72.224C54.2084 72.224 54.9084 73.05 54.9084 74.576H50.8344ZM60.3119 82.5C62.6639 82.5 64.1619 81.282 64.1619 79.868C64.1619 78.622 63.2659 78.062 61.5019 78.062H60.0179C58.9959 78.062 58.6879 77.726 58.6879 77.236C58.6879 76.816 58.8979 76.564 59.1779 76.326C59.5139 76.494 59.9339 76.592 60.3119 76.592C61.8519 76.592 63.0839 75.57 63.0839 73.946C63.0839 73.288 62.8319 72.728 62.4679 72.378H64.0219V71.398H61.3759C61.1099 71.3 60.7319 71.202 60.3119 71.202C58.7719 71.202 57.4559 72.252 57.4559 73.918C57.4559 74.828 57.9459 75.556 58.4499 75.962V76.018C58.0579 76.298 57.5959 76.802 57.5959 77.432C57.5959 78.034 57.8899 78.44 58.2959 78.678V78.734C57.5819 79.196 57.1759 79.812 57.1759 80.456C57.1759 81.772 58.4499 82.5 60.3119 82.5ZM60.3119 75.724C59.4299 75.724 58.6879 75.024 58.6879 73.918C58.6879 72.798 59.4159 72.14 60.3119 72.14C61.2079 72.14 61.9359 72.812 61.9359 73.918C61.9359 75.024 61.1799 75.724 60.3119 75.724ZM60.4939 81.632C59.1219 81.632 58.2959 81.1 58.2959 80.288C58.2959 79.84 58.5199 79.392 59.0659 79C59.4019 79.084 59.7659 79.126 60.0459 79.126H61.3619C62.3699 79.126 62.9159 79.364 62.9159 80.064C62.9159 80.862 61.9499 81.632 60.4939 81.632ZM67.8506 79.182C68.9006 79.182 69.6566 78.636 70.3706 77.81H70.4126L70.5106 79H71.5746V71.398H70.3006V76.788C69.5726 77.698 69.0266 78.076 68.2426 78.076C67.2346 78.076 66.8146 77.474 66.8146 76.06V71.398H65.5406V76.214C65.5406 78.146 66.2546 79.182 67.8506 79.182ZM77.2085 79.182C78.2445 79.182 79.0565 78.832 79.7285 78.398L79.2665 77.558C78.7065 77.936 78.1045 78.16 77.3625 78.16C75.9205 78.16 74.9265 77.124 74.8425 75.5H79.9665C79.9945 75.318 80.0225 75.052 80.0225 74.772C80.0225 72.602 78.9305 71.202 76.9985 71.202C75.2345 71.202 73.5685 72.742 73.5685 75.206C73.5685 77.712 75.1925 79.182 77.2085 79.182ZM74.8285 74.576C74.9825 73.092 75.9345 72.224 77.0125 72.224C78.2025 72.224 78.9025 73.05 78.9025 74.576H74.8285ZM89.5002 79.182C89.8502 79.182 90.0602 79.14 90.2422 79.07L90.0602 78.09C89.9202 78.118 89.8642 78.118 89.7942 78.118C89.5982 78.118 89.4302 77.964 89.4302 77.572V67.856H88.1562V77.488C88.1562 78.566 88.5482 79.182 89.5002 79.182ZM93.8984 79.182C94.8364 79.182 95.6904 78.692 96.4184 78.09H96.4604L96.5724 79H97.6224V74.324C97.6224 72.448 96.8384 71.202 94.9904 71.202C93.7724 71.202 92.6944 71.748 91.9944 72.196L92.4984 73.078C93.1004 72.672 93.8984 72.266 94.7804 72.266C96.0264 72.266 96.3484 73.204 96.3484 74.184C93.1144 74.548 91.6724 75.374 91.6724 77.026C91.6724 78.398 92.6244 79.182 93.8984 79.182ZM94.2624 78.16C93.5064 78.16 92.9184 77.81 92.9184 76.942C92.9184 75.962 93.7864 75.332 96.3484 75.024V77.152C95.6064 77.81 95.0044 78.16 94.2624 78.16ZM103.182 79H104.456V71.398H103.182V79ZM103.826 69.83C104.33 69.83 104.68 69.494 104.68 68.976C104.68 68.486 104.33 68.15 103.826 68.15C103.322 68.15 102.972 68.486 102.972 68.976C102.972 69.494 103.322 69.83 103.826 69.83ZM107.037 79H108.311V73.484C109.081 72.714 109.613 72.322 110.397 72.322C111.405 72.322 111.839 72.924 111.839 74.352V79H113.113V74.184C113.113 72.238 112.385 71.202 110.789 71.202C109.753 71.202 108.969 71.776 108.241 72.49H108.199L108.087 71.398H107.037V79ZM115.806 79H117.08V72.434H118.69V71.398H117.08V70.194C117.08 69.214 117.43 68.696 118.158 68.696C118.424 68.696 118.732 68.766 119.012 68.892L119.292 67.926C118.942 67.772 118.48 67.674 118.018 67.674C116.506 67.674 115.806 68.64 115.806 70.18V71.398L114.77 71.468V72.434H115.806V79ZM122.952 79.182C124.814 79.182 126.48 77.726 126.48 75.206C126.48 72.672 124.814 71.202 122.952 71.202C121.09 71.202 119.424 72.672 119.424 75.206C119.424 77.726 121.09 79.182 122.952 79.182ZM122.952 78.118C121.636 78.118 120.754 76.956 120.754 75.206C120.754 73.456 121.636 72.266 122.952 72.266C124.268 72.266 125.164 73.456 125.164 75.206C125.164 76.956 124.268 78.118 122.952 78.118ZM128.488 79H129.762V74.114C130.266 72.812 131.05 72.364 131.68 72.364C131.988 72.364 132.17 72.392 132.422 72.49L132.66 71.37C132.422 71.244 132.184 71.202 131.848 71.202C130.994 71.202 130.224 71.818 129.692 72.784H129.65L129.538 71.398H128.488V79ZM133.916 79H135.19V73.484C135.89 72.7 136.534 72.322 137.108 72.322C138.074 72.322 138.522 72.924 138.522 74.352V79H139.796V73.484C140.51 72.7 141.126 72.322 141.714 72.322C142.68 72.322 143.128 72.924 143.128 74.352V79H144.402V74.184C144.402 72.238 143.66 71.202 142.092 71.202C141.168 71.202 140.37 71.804 139.586 72.658C139.278 71.762 138.648 71.202 137.486 71.202C136.576 71.202 135.778 71.776 135.12 72.504H135.078L134.966 71.398H133.916V79ZM148.627 79.182C149.565 79.182 150.419 78.692 151.147 78.09H151.189L151.301 79H152.351V74.324C152.351 72.448 151.567 71.202 149.719 71.202C148.501 71.202 147.423 71.748 146.723 72.196L147.227 73.078C147.829 72.672 148.627 72.266 149.509 72.266C150.755 72.266 151.077 73.204 151.077 74.184C147.843 74.548 146.401 75.374 146.401 77.026C146.401 78.398 147.353 79.182 148.627 79.182ZM148.991 78.16C148.235 78.16 147.647 77.81 147.647 76.942C147.647 75.962 148.515 75.332 151.077 75.024V77.152C150.335 77.81 149.733 78.16 148.991 78.16ZM157.775 79.182C158.685 79.182 159.553 78.832 160.239 78.216L159.679 77.362C159.203 77.796 158.587 78.118 157.887 78.118C156.487 78.118 155.535 76.956 155.535 75.206C155.535 73.456 156.543 72.266 157.929 72.266C158.531 72.266 158.993 72.546 159.441 72.938L160.099 72.098C159.553 71.622 158.867 71.202 157.873 71.202C155.927 71.202 154.205 72.672 154.205 75.206C154.205 77.726 155.759 79.182 157.775 79.182ZM161.902 79H163.176V71.398H161.902V79ZM162.546 69.83C163.05 69.83 163.4 69.494 163.4 68.976C163.4 68.486 163.05 68.15 162.546 68.15C162.042 68.15 161.692 68.486 161.692 68.976C161.692 69.494 162.042 69.83 162.546 69.83ZM168.712 79.182C170.574 79.182 172.24 77.726 172.24 75.206C172.24 72.672 170.574 71.202 168.712 71.202C166.85 71.202 165.184 72.672 165.184 75.206C165.184 77.726 166.85 79.182 168.712 79.182ZM168.712 78.118C167.396 78.118 166.514 76.956 166.514 75.206C166.514 73.456 167.396 72.266 168.712 72.266C170.028 72.266 170.924 73.456 170.924 75.206C170.924 76.956 170.028 78.118 168.712 78.118ZM168.488 70.026L170.938 67.646L170.042 66.792L167.83 69.396L168.488 70.026ZM174.248 79H175.522V73.484C176.292 72.714 176.824 72.322 177.608 72.322C178.616 72.322 179.05 72.924 179.05 74.352V79H180.324V74.184C180.324 72.238 179.596 71.202 178 71.202C176.964 71.202 176.18 71.776 175.452 72.49H175.41L175.298 71.398H174.248V79ZM187.925 79.182C189.717 79.182 190.697 78.16 190.697 76.928C190.697 75.486 189.479 75.038 188.373 74.618C187.519 74.296 186.735 74.03 186.735 73.302C186.735 72.714 187.183 72.21 188.149 72.21C188.821 72.21 189.353 72.49 189.871 72.882L190.487 72.056C189.899 71.594 189.073 71.202 188.135 71.202C186.483 71.202 185.503 72.154 185.503 73.358C185.503 74.646 186.665 75.164 187.729 75.556C188.569 75.878 189.465 76.214 189.465 76.998C189.465 77.656 188.975 78.188 187.967 78.188C187.057 78.188 186.371 77.824 185.713 77.292L185.083 78.132C185.811 78.734 186.847 79.182 187.925 79.182ZM192.486 79H193.76V71.398H192.486V79ZM193.13 69.83C193.634 69.83 193.984 69.494 193.984 68.976C193.984 68.486 193.634 68.15 193.13 68.15C192.626 68.15 192.276 68.486 192.276 68.976C192.276 69.494 192.626 69.83 193.13 69.83ZM198.33 79.182C200.122 79.182 201.102 78.16 201.102 76.928C201.102 75.486 199.884 75.038 198.778 74.618C197.924 74.296 197.14 74.03 197.14 73.302C197.14 72.714 197.588 72.21 198.554 72.21C199.226 72.21 199.758 72.49 200.276 72.882L200.892 72.056C200.304 71.594 199.478 71.202 198.54 71.202C196.888 71.202 195.908 72.154 195.908 73.358C195.908 74.646 197.07 75.164 198.134 75.556C198.974 75.878 199.87 76.214 199.87 76.998C199.87 77.656 199.38 78.188 198.372 78.188C197.462 78.188 196.776 77.824 196.118 77.292L195.488 78.132C196.216 78.734 197.252 79.182 198.33 79.182ZM204.97 79.182C205.432 79.182 205.936 79.042 206.37 78.902L206.118 77.95C205.866 78.048 205.516 78.146 205.25 78.146C204.368 78.146 204.074 77.614 204.074 76.676V72.434H206.132V71.398H204.074V69.256H203.01L202.856 71.398L201.666 71.468V72.434H202.8V76.648C202.8 78.16 203.346 79.182 204.97 79.182ZM210.714 79.182C211.75 79.182 212.562 78.832 213.234 78.398L212.772 77.558C212.212 77.936 211.61 78.16 210.868 78.16C209.426 78.16 208.432 77.124 208.348 75.5H213.472C213.5 75.318 213.528 75.052 213.528 74.772C213.528 72.602 212.436 71.202 210.504 71.202C208.74 71.202 207.074 72.742 207.074 75.206C207.074 77.712 208.698 79.182 210.714 79.182ZM208.334 74.576C208.488 73.092 209.44 72.224 210.518 72.224C211.708 72.224 212.408 73.05 212.408 74.576H208.334ZM215.4 79H216.674V73.484C217.374 72.7 218.018 72.322 218.592 72.322C219.558 72.322 220.006 72.924 220.006 74.352V79H221.28V73.484C221.994 72.7 222.61 72.322 223.198 72.322C224.164 72.322 224.612 72.924 224.612 74.352V79H225.886V74.184C225.886 72.238 225.144 71.202 223.576 71.202C222.652 71.202 221.854 71.804 221.07 72.658C220.762 71.762 220.132 71.202 218.97 71.202C218.06 71.202 217.262 71.776 216.604 72.504H216.562L216.45 71.398H215.4V79ZM230.111 79.182C231.049 79.182 231.903 78.692 232.631 78.09H232.673L232.785 79H233.835V74.324C233.835 72.448 233.051 71.202 231.203 71.202C229.985 71.202 228.907 71.748 228.207 72.196L228.711 73.078C229.313 72.672 230.111 72.266 230.993 72.266C232.239 72.266 232.561 73.204 232.561 74.184C229.327 74.548 227.885 75.374 227.885 77.026C227.885 78.398 228.837 79.182 230.111 79.182ZM230.475 78.16C229.719 78.16 229.131 77.81 229.131 76.942C229.131 75.962 229.999 75.332 232.561 75.024V77.152C231.819 77.81 231.217 78.16 230.475 78.16ZM238.453 79.182C238.915 79.182 239.419 79.042 239.853 78.902L239.601 77.95C239.349 78.048 238.999 78.146 238.733 78.146C237.851 78.146 237.557 77.614 237.557 76.676V72.434H239.615V71.398H237.557V69.256H236.493L236.339 71.398L235.149 71.468V72.434H236.283V76.648C236.283 78.16 236.829 79.182 238.453 79.182ZM241.336 79H242.61V71.398H241.336V79ZM241.98 69.83C242.484 69.83 242.834 69.494 242.834 68.976C242.834 68.486 242.484 68.15 241.98 68.15C241.476 68.15 241.126 68.486 241.126 68.976C241.126 69.494 241.476 69.83 241.98 69.83ZM244.393 79H250.147V77.964H246.003L250.007 72.084V71.398H244.827V72.434H248.397L244.393 78.314V79ZM253.203 79.182C254.141 79.182 254.995 78.692 255.723 78.09H255.765L255.877 79H256.927V74.324C256.927 72.448 256.143 71.202 254.295 71.202C253.077 71.202 251.999 71.748 251.299 72.196L251.803 73.078C252.405 72.672 253.203 72.266 254.085 72.266C255.331 72.266 255.653 73.204 255.653 74.184C252.419 74.548 250.977 75.374 250.977 77.026C250.977 78.398 251.929 79.182 253.203 79.182ZM253.567 78.16C252.811 78.16 252.223 77.81 252.223 76.942C252.223 75.962 253.091 75.332 255.653 75.024V77.152C254.911 77.81 254.309 78.16 253.567 78.16ZM261.945 79.182C262.855 79.182 263.653 78.692 264.255 78.104H264.297L264.409 79H265.445V67.856H264.185V70.782L264.241 72.098C263.569 71.538 262.995 71.202 262.099 71.202C260.363 71.202 258.809 72.742 258.809 75.206C258.809 77.74 260.041 79.182 261.945 79.182ZM262.225 78.118C260.881 78.118 260.125 77.026 260.125 75.192C260.125 73.456 261.091 72.28 262.323 72.28C262.953 72.28 263.527 72.504 264.185 73.078V77.068C263.541 77.768 262.925 78.118 262.225 78.118ZM269.787 79.182C270.725 79.182 271.579 78.692 272.307 78.09H272.349L272.461 79H273.511V74.324C273.511 72.448 272.727 71.202 270.879 71.202C269.661 71.202 268.583 71.748 267.883 72.196L268.387 73.078C268.989 72.672 269.787 72.266 270.669 72.266C271.915 72.266 272.237 73.204 272.237 74.184C269.003 74.548 267.561 75.374 267.561 77.026C267.561 78.398 268.513 79.182 269.787 79.182ZM270.151 78.16C269.395 78.16 268.807 77.81 268.807 76.942C268.807 75.962 269.675 75.332 272.237 75.024V77.152C271.495 77.81 270.893 78.16 270.151 78.16ZM17.2393 99.182C18.1493 99.182 18.9473 98.692 19.5493 98.104H19.5913L19.7033 99H20.7393V87.856H19.4793V90.782L19.5353 92.098C18.8633 91.538 18.2893 91.202 17.3933 91.202C15.6573 91.202 14.1033 92.742 14.1033 95.206C14.1033 97.74 15.3353 99.182 17.2393 99.182ZM17.5193 98.118C16.1753 98.118 15.4193 97.026 15.4193 95.192C15.4193 93.456 16.3853 92.28 17.6173 92.28C18.2473 92.28 18.8213 92.504 19.4793 93.078V97.068C18.8353 97.768 18.2193 98.118 17.5193 98.118ZM26.397 99.182C27.433 99.182 28.245 98.832 28.917 98.398L28.455 97.558C27.895 97.936 27.293 98.16 26.551 98.16C25.109 98.16 24.115 97.124 24.031 95.5H29.155C29.183 95.318 29.211 95.052 29.211 94.772C29.211 92.602 28.119 91.202 26.187 91.202C24.423 91.202 22.757 92.742 22.757 95.206C22.757 97.712 24.381 99.182 26.397 99.182ZM24.017 94.576C24.171 93.092 25.123 92.224 26.201 92.224C27.391 92.224 28.091 93.05 28.091 94.576H24.017ZM32.4269 99.182C32.7769 99.182 32.9869 99.14 33.1689 99.07L32.9869 98.09C32.8469 98.118 32.7909 98.118 32.7209 98.118C32.5249 98.118 32.3569 97.964 32.3569 97.572V87.856H31.0829V97.488C31.0829 98.566 31.4749 99.182 32.4269 99.182ZM38.206 99H39.48V93.484C40.18 92.7 40.824 92.322 41.398 92.322C42.364 92.322 42.812 92.924 42.812 94.352V99H44.086V93.484C44.8 92.7 45.416 92.322 46.004 92.322C46.97 92.322 47.418 92.924 47.418 94.352V99H48.692V94.184C48.692 92.238 47.95 91.202 46.382 91.202C45.458 91.202 44.66 91.804 43.876 92.658C43.568 91.762 42.938 91.202 41.776 91.202C40.866 91.202 40.068 91.776 39.41 92.504H39.368L39.256 91.398H38.206V99ZM54.2329 99.182C55.2689 99.182 56.0809 98.832 56.7529 98.398L56.2909 97.558C55.7309 97.936 55.1289 98.16 54.3869 98.16C52.9449 98.16 51.9509 97.124 51.8669 95.5H56.9909C57.0189 95.318 57.0469 95.052 57.0469 94.772C57.0469 92.602 55.9549 91.202 54.0229 91.202C52.2589 91.202 50.5929 92.742 50.5929 95.206C50.5929 97.712 52.2169 99.182 54.2329 99.182ZM51.8529 94.576C52.0069 93.092 52.9589 92.224 54.0369 92.224C55.2269 92.224 55.9269 93.05 55.9269 94.576H51.8529ZM58.9189 99H60.1929V94.114C60.6969 92.812 61.4809 92.364 62.1109 92.364C62.4189 92.364 62.6009 92.392 62.8529 92.49L63.0909 91.37C62.8529 91.244 62.6149 91.202 62.2789 91.202C61.4249 91.202 60.6549 91.818 60.1229 92.784H60.0809L59.9689 91.398H58.9189V99ZM67.1922 99.182C68.1022 99.182 68.9702 98.832 69.6562 98.216L69.0962 97.362C68.6202 97.796 68.0042 98.118 67.3042 98.118C65.9042 98.118 64.9522 96.956 64.9522 95.206C64.9522 93.456 65.9602 92.266 67.3462 92.266C67.9482 92.266 68.4102 92.546 68.8582 92.938L69.5162 92.098C68.9702 91.622 68.2842 91.202 67.2902 91.202C65.3442 91.202 63.6222 92.672 63.6222 95.206C63.6222 97.726 65.1762 99.182 67.1922 99.182ZM72.9189 99.182C73.8569 99.182 74.7109 98.692 75.4389 98.09H75.4809L75.5929 99H76.6429V94.324C76.6429 92.448 75.8589 91.202 74.0109 91.202C72.7929 91.202 71.7149 91.748 71.0149 92.196L71.5189 93.078C72.1209 92.672 72.9189 92.266 73.8009 92.266C75.0469 92.266 75.3689 93.204 75.3689 94.184C72.1349 94.548 70.6929 95.374 70.6929 97.026C70.6929 98.398 71.6449 99.182 72.9189 99.182ZM73.2829 98.16C72.5269 98.16 71.9389 97.81 71.9389 96.942C71.9389 95.962 72.8069 95.332 75.3689 95.024V97.152C74.6269 97.81 74.0249 98.16 73.2829 98.16ZM81.6612 99.182C82.5712 99.182 83.3692 98.692 83.9712 98.104H84.0132L84.1252 99H85.1612V87.856H83.9012V90.782L83.9572 92.098C83.2852 91.538 82.7112 91.202 81.8152 91.202C80.0792 91.202 78.5252 92.742 78.5252 95.206C78.5252 97.74 79.7572 99.182 81.6612 99.182ZM81.9412 98.118C80.5972 98.118 79.8412 97.026 79.8412 95.192C79.8412 93.456 80.8072 92.28 82.0392 92.28C82.6692 92.28 83.2432 92.504 83.9012 93.078V97.068C83.2572 97.768 82.6412 98.118 81.9412 98.118ZM90.7068 99.182C92.5688 99.182 94.2348 97.726 94.2348 95.206C94.2348 92.672 92.5688 91.202 90.7068 91.202C88.8448 91.202 87.1788 92.672 87.1788 95.206C87.1788 97.726 88.8448 99.182 90.7068 99.182ZM90.7068 98.118C89.3908 98.118 88.5088 96.956 88.5088 95.206C88.5088 93.456 89.3908 92.266 90.7068 92.266C92.0228 92.266 92.9188 93.456 92.9188 95.206C92.9188 96.956 92.0228 98.118 90.7068 98.118ZM100.718 99.182C101.068 99.182 101.278 99.14 101.46 99.07L101.278 98.09C101.138 98.118 101.082 98.118 101.012 98.118C100.816 98.118 100.648 97.964 100.648 97.572V87.856H99.3739V97.488C99.3739 98.566 99.7659 99.182 100.718 99.182ZM105.116 99.182C106.054 99.182 106.908 98.692 107.636 98.09H107.678L107.79 99H108.84V94.324C108.84 92.448 108.056 91.202 106.208 91.202C104.99 91.202 103.912 91.748 103.212 92.196L103.716 93.078C104.318 92.672 105.116 92.266 105.998 92.266C107.244 92.266 107.566 93.204 107.566 94.184C104.332 94.548 102.89 95.374 102.89 97.026C102.89 98.398 103.842 99.182 105.116 99.182ZM105.48 98.16C104.724 98.16 104.136 97.81 104.136 96.942C104.136 95.962 105.004 95.332 107.566 95.024V97.152C106.824 97.81 106.222 98.16 105.48 98.16ZM114.614 99.182C116.364 99.182 117.918 97.684 117.918 95.066C117.918 92.742 116.854 91.202 114.88 91.202C114.04 91.202 113.186 91.678 112.5 92.28L112.542 90.908V87.856H111.268V99H112.29L112.402 98.216H112.458C113.116 98.818 113.914 99.182 114.614 99.182ZM114.404 98.118C113.9 98.118 113.214 97.908 112.542 97.32V93.33C113.27 92.644 113.942 92.28 114.586 92.28C116.028 92.28 116.588 93.414 116.588 95.094C116.588 96.984 115.664 98.118 114.404 98.118ZM122.877 99.182C124.739 99.182 126.405 97.726 126.405 95.206C126.405 92.672 124.739 91.202 122.877 91.202C121.015 91.202 119.349 92.672 119.349 95.206C119.349 97.726 121.015 99.182 122.877 99.182ZM122.877 98.118C121.561 98.118 120.679 96.956 120.679 95.206C120.679 93.456 121.561 92.266 122.877 92.266C124.193 92.266 125.089 93.456 125.089 95.206C125.089 96.956 124.193 98.118 122.877 98.118ZM128.413 99H129.687V94.114C130.191 92.812 130.975 92.364 131.605 92.364C131.913 92.364 132.095 92.392 132.347 92.49L132.585 91.37C132.347 91.244 132.109 91.202 131.773 91.202C130.919 91.202 130.149 91.818 129.617 92.784H129.575L129.463 91.398H128.413V99ZM135.208 99.182C136.146 99.182 137 98.692 137.728 98.09H137.77L137.882 99H138.932V94.324C138.932 92.448 138.148 91.202 136.3 91.202C135.082 91.202 134.004 91.748 133.304 92.196L133.808 93.078C134.41 92.672 135.208 92.266 136.09 92.266C137.336 92.266 137.658 93.204 137.658 94.184C134.424 94.548 132.982 95.374 132.982 97.026C132.982 98.398 133.934 99.182 135.208 99.182ZM135.572 98.16C134.816 98.16 134.228 97.81 134.228 96.942C134.228 95.962 135.096 95.332 137.658 95.024V97.152C136.916 97.81 136.314 98.16 135.572 98.16ZM142.704 99.182C143.054 99.182 143.264 99.14 143.446 99.07L143.264 98.09C143.124 98.118 143.068 98.118 142.998 98.118C142.802 98.118 142.634 97.964 142.634 97.572V87.856H141.36V97.488C141.36 98.566 141.752 99.182 142.704 99.182ZM150.233 99.182C151.171 99.182 152.025 98.692 152.753 98.09H152.795L152.907 99H153.957V94.324C153.957 92.448 153.173 91.202 151.325 91.202C150.107 91.202 149.029 91.748 148.329 92.196L148.833 93.078C149.435 92.672 150.233 92.266 151.115 92.266C152.361 92.266 152.683 93.204 152.683 94.184C149.449 94.548 148.007 95.374 148.007 97.026C148.007 98.398 148.959 99.182 150.233 99.182ZM150.597 98.16C149.841 98.16 149.253 97.81 149.253 96.942C149.253 95.962 150.121 95.332 152.683 95.024V97.152C151.941 97.81 151.339 98.16 150.597 98.16ZM159.517 99H160.791V93.484C161.561 92.714 162.093 92.322 162.877 92.322C163.885 92.322 164.319 92.924 164.319 94.352V99H165.593V94.184C165.593 92.238 164.865 91.202 163.269 91.202C162.233 91.202 161.449 91.776 160.721 92.49H160.679L160.567 91.398H159.517V99ZM168.075 99H169.349V91.398H168.075V99ZM168.719 89.83C169.223 89.83 169.573 89.494 169.573 88.976C169.573 88.486 169.223 88.15 168.719 88.15C168.215 88.15 167.865 88.486 167.865 88.976C167.865 89.494 168.215 89.83 168.719 89.83ZM173.569 99H175.053L177.755 91.398H176.495L175.053 95.724C174.829 96.466 174.591 97.25 174.353 97.964H174.297C174.059 97.25 173.821 96.466 173.583 95.724L172.155 91.398H170.825L173.569 99ZM182.243 99.182C183.279 99.182 184.091 98.832 184.763 98.398L184.301 97.558C183.741 97.936 183.139 98.16 182.397 98.16C180.955 98.16 179.961 97.124 179.877 95.5H185.001C185.029 95.318 185.057 95.052 185.057 94.772C185.057 92.602 183.965 91.202 182.033 91.202C180.269 91.202 178.603 92.742 178.603 95.206C178.603 97.712 180.227 99.182 182.243 99.182ZM179.863 94.576C180.017 93.092 180.969 92.224 182.047 92.224C183.237 92.224 183.937 93.05 183.937 94.576H179.863ZM188.273 99.182C188.623 99.182 188.833 99.14 189.015 99.07L188.833 98.09C188.693 98.118 188.637 98.118 188.567 98.118C188.371 98.118 188.203 97.964 188.203 97.572V87.856H186.929V97.488C186.929 98.566 187.321 99.182 188.273 99.182ZM196.642 99.182C197.552 99.182 198.35 98.692 198.952 98.104H198.994L199.106 99H200.142V87.856H198.882V90.782L198.938 92.098C198.266 91.538 197.692 91.202 196.796 91.202C195.06 91.202 193.506 92.742 193.506 95.206C193.506 97.74 194.738 99.182 196.642 99.182ZM196.922 98.118C195.578 98.118 194.822 97.026 194.822 95.192C194.822 93.456 195.788 92.28 197.02 92.28C197.65 92.28 198.224 92.504 198.882 93.078V97.068C198.238 97.768 197.622 98.118 196.922 98.118ZM205.799 99.182C206.835 99.182 207.647 98.832 208.319 98.398L207.857 97.558C207.297 97.936 206.695 98.16 205.953 98.16C204.511 98.16 203.517 97.124 203.433 95.5H208.557C208.585 95.318 208.613 95.052 208.613 94.772C208.613 92.602 207.521 91.202 205.589 91.202C203.825 91.202 202.159 92.742 202.159 95.206C202.159 97.712 203.783 99.182 205.799 99.182ZM203.419 94.576C203.573 93.092 204.525 92.224 205.603 92.224C206.793 92.224 207.493 93.05 207.493 94.576H203.419ZM215.604 99.182C217.396 99.182 218.376 98.16 218.376 96.928C218.376 95.486 217.158 95.038 216.052 94.618C215.198 94.296 214.414 94.03 214.414 93.302C214.414 92.714 214.862 92.21 215.828 92.21C216.5 92.21 217.032 92.49 217.55 92.882L218.166 92.056C217.578 91.594 216.752 91.202 215.814 91.202C214.162 91.202 213.182 92.154 213.182 93.358C213.182 94.646 214.344 95.164 215.408 95.556C216.248 95.878 217.144 96.214 217.144 96.998C217.144 97.656 216.654 98.188 215.646 98.188C214.736 98.188 214.05 97.824 213.392 97.292L212.762 98.132C213.49 98.734 214.526 99.182 215.604 99.182ZM223.231 99.182C224.267 99.182 225.079 98.832 225.751 98.398L225.289 97.558C224.729 97.936 224.127 98.16 223.385 98.16C221.943 98.16 220.949 97.124 220.865 95.5H225.989C226.017 95.318 226.045 95.052 226.045 94.772C226.045 92.602 224.953 91.202 223.021 91.202C221.257 91.202 219.591 92.742 219.591 95.206C219.591 97.712 221.215 99.182 223.231 99.182ZM220.851 94.576C221.005 93.092 221.957 92.224 223.035 92.224C224.225 92.224 224.925 93.05 224.925 94.576H220.851ZM230.913 99.182C231.823 99.182 232.691 98.832 233.377 98.216L232.817 97.362C232.341 97.796 231.725 98.118 231.025 98.118C229.625 98.118 228.673 96.956 228.673 95.206C228.673 93.456 229.681 92.266 231.067 92.266C231.669 92.266 232.131 92.546 232.579 92.938L233.237 92.098C232.691 91.622 232.005 91.202 231.011 91.202C229.065 91.202 227.343 92.672 227.343 95.206C227.343 97.726 228.897 99.182 230.913 99.182ZM237.284 99.182C237.746 99.182 238.25 99.042 238.684 98.902L238.432 97.95C238.18 98.048 237.83 98.146 237.564 98.146C236.682 98.146 236.388 97.614 236.388 96.676V92.434H238.446V91.398H236.388V89.256H235.324L235.17 91.398L233.98 91.468V92.434H235.114V96.648C235.114 98.16 235.66 99.182 237.284 99.182ZM242.916 99.182C244.778 99.182 246.444 97.726 246.444 95.206C246.444 92.672 244.778 91.202 242.916 91.202C241.054 91.202 239.388 92.672 239.388 95.206C239.388 97.726 241.054 99.182 242.916 99.182ZM242.916 98.118C241.6 98.118 240.718 96.956 240.718 95.206C240.718 93.456 241.6 92.266 242.916 92.266C244.232 92.266 245.128 93.456 245.128 95.206C245.128 96.956 244.232 98.118 242.916 98.118ZM248.452 99H249.726V94.114C250.23 92.812 251.014 92.364 251.644 92.364C251.952 92.364 252.134 92.392 252.386 92.49L252.624 91.37C252.386 91.244 252.148 91.202 251.812 91.202C250.958 91.202 250.188 91.818 249.656 92.784H249.614L249.502 91.398H248.452V99ZM256.795 99.182C257.831 99.182 258.643 98.832 259.315 98.398L258.853 97.558C258.293 97.936 257.691 98.16 256.949 98.16C255.507 98.16 254.513 97.124 254.429 95.5H259.553C259.581 95.318 259.609 95.052 259.609 94.772C259.609 92.602 258.517 91.202 256.585 91.202C254.821 91.202 253.155 92.742 253.155 95.206C253.155 97.712 254.779 99.182 256.795 99.182ZM254.415 94.576C254.569 93.092 255.521 92.224 256.599 92.224C257.789 92.224 258.489 93.05 258.489 94.576H254.415ZM263.469 99.182C265.261 99.182 266.241 98.16 266.241 96.928C266.241 95.486 265.023 95.038 263.917 94.618C263.063 94.296 262.279 94.03 262.279 93.302C262.279 92.714 262.727 92.21 263.693 92.21C264.365 92.21 264.897 92.49 265.415 92.882L266.031 92.056C265.443 91.594 264.617 91.202 263.679 91.202C262.027 91.202 261.047 92.154 261.047 93.358C261.047 94.646 262.209 95.164 263.273 95.556C264.113 95.878 265.009 96.214 265.009 96.998C265.009 97.656 264.519 98.188 263.511 98.188C262.601 98.188 261.915 97.824 261.257 97.292L260.627 98.132C261.355 98.734 262.391 99.182 263.469 99.182ZM267.792 101.66C269.052 101.128 269.836 100.078 269.836 98.734C269.836 97.796 269.43 97.222 268.758 97.222C268.24 97.222 267.792 97.572 267.792 98.118C267.792 98.706 268.24 99.014 268.73 99.014C268.786 99.014 268.828 99.014 268.884 99C268.884 99.826 268.366 100.512 267.484 100.904L267.792 101.66ZM56.657 119.182C58.519 119.182 60.185 117.726 60.185 115.206C60.185 112.672 58.519 111.202 56.657 111.202C54.795 111.202 53.129 112.672 53.129 115.206C53.129 117.726 54.795 119.182 56.657 119.182ZM56.657 118.118C55.341 118.118 54.459 116.956 54.459 115.206C54.459 113.456 55.341 112.266 56.657 112.266C57.973 112.266 58.869 113.456 58.869 115.206C58.869 116.956 57.973 118.118 56.657 118.118ZM65.1893 119.182C66.0993 119.182 66.9673 118.832 67.6533 118.216L67.0933 117.362C66.6173 117.796 66.0013 118.118 65.3013 118.118C63.9013 118.118 62.9493 116.956 62.9493 115.206C62.9493 113.456 63.9573 112.266 65.3433 112.266C65.9453 112.266 66.4073 112.546 66.8553 112.938L67.5133 112.098C66.9673 111.622 66.2813 111.202 65.2873 111.202C63.3413 111.202 61.6193 112.672 61.6193 115.206C61.6193 117.726 63.1733 119.182 65.1893 119.182ZM71.5283 119.182C72.5783 119.182 73.3343 118.636 74.0483 117.81H74.0903L74.1883 119H75.2523V111.398H73.9783V116.788C73.2503 117.698 72.7043 118.076 71.9203 118.076C70.9123 118.076 70.4923 117.474 70.4923 116.06V111.398H69.2183V116.214C69.2183 118.146 69.9323 119.182 71.5283 119.182ZM77.8202 122.206H79.0942V119.63L79.0662 118.3C79.7522 118.86 80.4802 119.182 81.1662 119.182C82.9162 119.182 84.4702 117.684 84.4702 115.08C84.4702 112.742 83.4062 111.202 81.4462 111.202C80.5642 111.202 79.7102 111.706 79.0242 112.266H78.9822L78.8702 111.398H77.8202V122.206ZM80.9562 118.118C80.4522 118.118 79.7802 117.908 79.0942 117.32V113.33C79.8362 112.644 80.4942 112.28 81.1382 112.28C82.5802 112.28 83.1402 113.414 83.1402 115.094C83.1402 116.984 82.2162 118.118 80.9562 118.118ZM88.0331 119.182C88.9711 119.182 89.8251 118.692 90.5531 118.09H90.5951L90.7071 119H91.7571V114.324C91.7571 112.448 90.9731 111.202 89.1251 111.202C87.9071 111.202 86.8291 111.748 86.1291 112.196L86.6331 113.078C87.2351 112.672 88.0331 112.266 88.9151 112.266C90.1611 112.266 90.4831 113.204 90.4831 114.184C87.2491 114.548 85.8071 115.374 85.8071 117.026C85.8071 118.398 86.7591 119.182 88.0331 119.182ZM88.3971 118.16C87.6411 118.16 87.0531 117.81 87.0531 116.942C87.0531 115.962 87.9211 115.332 90.4831 115.024V117.152C89.7411 117.81 89.1391 118.16 88.3971 118.16ZM97.1815 119.182C98.0915 119.182 98.9595 118.832 99.6455 118.216L99.0855 117.362C98.6095 117.796 97.9935 118.118 97.2935 118.118C95.8935 118.118 94.9415 116.956 94.9415 115.206C94.9415 113.456 95.9495 112.266 97.3355 112.266C97.9375 112.266 98.3995 112.546 98.8475 112.938L99.5055 112.098C98.9595 111.622 98.2735 111.202 97.2795 111.202C95.3335 111.202 93.6115 112.672 93.6115 115.206C93.6115 117.726 95.1655 119.182 97.1815 119.182ZM101.309 119H102.583V111.398H101.309V119ZM101.953 109.83C102.457 109.83 102.807 109.494 102.807 108.976C102.807 108.486 102.457 108.15 101.953 108.15C101.449 108.15 101.099 108.486 101.099 108.976C101.099 109.494 101.449 109.83 101.953 109.83ZM108.118 119.182C109.98 119.182 111.646 117.726 111.646 115.206C111.646 112.672 109.98 111.202 108.118 111.202C106.256 111.202 104.59 112.672 104.59 115.206C104.59 117.726 106.256 119.182 108.118 119.182ZM108.118 118.118C106.802 118.118 105.92 116.956 105.92 115.206C105.92 113.456 106.802 112.266 108.118 112.266C109.434 112.266 110.33 113.456 110.33 115.206C110.33 116.956 109.434 118.118 108.118 118.118ZM113.654 119H114.928V113.484C115.698 112.714 116.23 112.322 117.014 112.322C118.022 112.322 118.456 112.924 118.456 114.352V119H119.73V114.184C119.73 112.238 119.002 111.202 117.406 111.202C116.37 111.202 115.586 111.776 114.858 112.49H114.816L114.704 111.398H113.654V119ZM125.279 119.182C126.315 119.182 127.127 118.832 127.799 118.398L127.337 117.558C126.777 117.936 126.175 118.16 125.433 118.16C123.991 118.16 122.997 117.124 122.913 115.5H128.037C128.065 115.318 128.093 115.052 128.093 114.772C128.093 112.602 127.001 111.202 125.069 111.202C123.305 111.202 121.639 112.742 121.639 115.206C121.639 117.712 123.263 119.182 125.279 119.182ZM122.899 114.576C123.053 113.092 124.005 112.224 125.083 112.224C126.273 112.224 126.973 113.05 126.973 114.576H122.899ZM131.953 119.182C133.745 119.182 134.725 118.16 134.725 116.928C134.725 115.486 133.507 115.038 132.401 114.618C131.547 114.296 130.763 114.03 130.763 113.302C130.763 112.714 131.211 112.21 132.177 112.21C132.849 112.21 133.381 112.49 133.899 112.882L134.515 112.056C133.927 111.594 133.101 111.202 132.163 111.202C130.511 111.202 129.531 112.154 129.531 113.358C129.531 114.646 130.693 115.164 131.757 115.556C132.597 115.878 133.493 116.214 133.493 116.998C133.493 117.656 133.003 118.188 131.995 118.188C131.085 118.188 130.399 117.824 129.741 117.292L129.111 118.132C129.839 118.734 130.875 119.182 131.953 119.182ZM139.77 122.276C141.282 122.276 142.08 121.128 142.598 119.63L145.468 111.398H144.222L142.864 115.626C142.654 116.298 142.43 117.068 142.22 117.754H142.15C141.912 117.068 141.646 116.284 141.422 115.626L139.868 111.398H138.538L141.59 119.014L141.422 119.588C141.114 120.526 140.568 121.226 139.7 121.226C139.504 121.226 139.28 121.156 139.126 121.1L138.874 122.122C139.112 122.22 139.406 122.276 139.77 122.276ZM150.076 119H151.35V113.484C152.12 112.714 152.652 112.322 153.436 112.322C154.444 112.322 154.878 112.924 154.878 114.352V119H156.152V114.184C156.152 112.238 155.424 111.202 153.828 111.202C152.792 111.202 152.008 111.776 151.308 112.476L151.35 110.908V107.856H150.076V119ZM160.33 119.182C161.268 119.182 162.122 118.692 162.85 118.09H162.892L163.004 119H164.054V114.324C164.054 112.448 163.27 111.202 161.422 111.202C160.204 111.202 159.126 111.748 158.426 112.196L158.93 113.078C159.532 112.672 160.33 112.266 161.212 112.266C162.458 112.266 162.78 113.204 162.78 114.184C159.546 114.548 158.104 115.374 158.104 117.026C158.104 118.398 159.056 119.182 160.33 119.182ZM160.694 118.16C159.938 118.16 159.35 117.81 159.35 116.942C159.35 115.962 160.218 115.332 162.78 115.024V117.152C162.038 117.81 161.436 118.16 160.694 118.16ZM169.828 119.182C171.578 119.182 173.132 117.684 173.132 115.066C173.132 112.742 172.068 111.202 170.094 111.202C169.254 111.202 168.4 111.678 167.714 112.28L167.756 110.908V107.856H166.482V119H167.504L167.616 118.216H167.672C168.33 118.818 169.128 119.182 169.828 119.182ZM169.618 118.118C169.114 118.118 168.428 117.908 167.756 117.32V113.33C168.484 112.644 169.156 112.28 169.8 112.28C171.242 112.28 171.802 113.414 171.802 115.094C171.802 116.984 170.878 118.118 169.618 118.118ZM175.137 119H176.411V111.398H175.137V119ZM175.781 109.83C176.285 109.83 176.635 109.494 176.635 108.976C176.635 108.486 176.285 108.15 175.781 108.15C175.277 108.15 174.927 108.486 174.927 108.976C174.927 109.494 175.277 109.83 175.781 109.83ZM180.336 119.182C180.686 119.182 180.896 119.14 181.078 119.07L180.896 118.09C180.756 118.118 180.7 118.118 180.63 118.118C180.434 118.118 180.266 117.964 180.266 117.572V107.856H178.992V117.488C178.992 118.566 179.384 119.182 180.336 119.182ZM182.984 119H184.258V111.398H182.984V119ZM183.628 109.83C184.132 109.83 184.482 109.494 184.482 108.976C184.482 108.486 184.132 108.15 183.628 108.15C183.124 108.15 182.774 108.486 182.774 108.976C182.774 109.494 183.124 109.83 183.628 109.83ZM189.43 119.182C190.34 119.182 191.138 118.692 191.74 118.104H191.782L191.894 119H192.93V107.856H191.67V110.782L191.726 112.098C191.054 111.538 190.48 111.202 189.584 111.202C187.848 111.202 186.294 112.742 186.294 115.206C186.294 117.74 187.526 119.182 189.43 119.182ZM189.71 118.118C188.366 118.118 187.61 117.026 187.61 115.192C187.61 113.456 188.576 112.28 189.808 112.28C190.438 112.28 191.012 112.504 191.67 113.078V117.068C191.026 117.768 190.41 118.118 189.71 118.118ZM197.271 119.182C198.209 119.182 199.063 118.692 199.791 118.09H199.833L199.945 119H200.995V114.324C200.995 112.448 200.211 111.202 198.363 111.202C197.145 111.202 196.067 111.748 195.367 112.196L195.871 113.078C196.473 112.672 197.271 112.266 198.153 112.266C199.399 112.266 199.721 113.204 199.721 114.184C196.487 114.548 195.045 115.374 195.045 117.026C195.045 118.398 195.997 119.182 197.271 119.182ZM197.635 118.16C196.879 118.16 196.291 117.81 196.291 116.942C196.291 115.962 197.159 115.332 199.721 115.024V117.152C198.979 117.81 198.377 118.16 197.635 118.16ZM206.014 119.182C206.924 119.182 207.722 118.692 208.324 118.104H208.366L208.478 119H209.514V107.856H208.254V110.782L208.31 112.098C207.638 111.538 207.064 111.202 206.168 111.202C204.432 111.202 202.878 112.742 202.878 115.206C202.878 117.74 204.11 119.182 206.014 119.182ZM206.294 118.118C204.95 118.118 204.194 117.026 204.194 115.192C204.194 113.456 205.16 112.28 206.392 112.28C207.022 112.28 207.596 112.504 208.254 113.078V117.068C207.61 117.768 206.994 118.118 206.294 118.118ZM215.171 119.182C216.207 119.182 217.019 118.832 217.691 118.398L217.229 117.558C216.669 117.936 216.067 118.16 215.325 118.16C213.883 118.16 212.889 117.124 212.805 115.5H217.929C217.957 115.318 217.985 115.052 217.985 114.772C217.985 112.602 216.893 111.202 214.961 111.202C213.197 111.202 211.531 112.742 211.531 115.206C211.531 117.712 213.155 119.182 215.171 119.182ZM212.791 114.576C212.945 113.092 213.897 112.224 214.975 112.224C216.165 112.224 216.865 113.05 216.865 114.576H212.791ZM221.845 119.182C223.637 119.182 224.617 118.16 224.617 116.928C224.617 115.486 223.399 115.038 222.293 114.618C221.439 114.296 220.655 114.03 220.655 113.302C220.655 112.714 221.103 112.21 222.069 112.21C222.741 112.21 223.273 112.49 223.791 112.882L224.407 112.056C223.819 111.594 222.993 111.202 222.055 111.202C220.403 111.202 219.423 112.154 219.423 113.358C219.423 114.646 220.585 115.164 221.649 115.556C222.489 115.878 223.385 116.214 223.385 116.998C223.385 117.656 222.895 118.188 221.887 118.188C220.977 118.188 220.291 117.824 219.633 117.292L219.003 118.132C219.731 118.734 220.767 119.182 221.845 119.182ZM227.446 115.906H228.58C228.328 113.708 230.848 112.882 230.848 110.824C230.848 109.298 229.812 108.332 228.23 108.332C227.096 108.332 226.2 108.878 225.556 109.62L226.284 110.292C226.774 109.732 227.39 109.396 228.09 109.396C229.084 109.396 229.602 110.068 229.602 110.908C229.602 112.574 227.124 113.47 227.446 115.906ZM228.048 119.182C228.566 119.182 228.986 118.79 228.986 118.216C228.986 117.628 228.566 117.222 228.048 117.222C227.544 117.222 227.124 117.628 227.124 118.216C227.124 118.79 227.544 119.182 228.048 119.182Z" fill="#484545"/>
</svg>
