<svg width="284" height="118" viewBox="0 0 284 118" fill="none" xmlns="http://www.w3.org/2000/svg">
<path d="M66.4168 18H68.6368V13.2H72.8368V18H75.0418V6.885H72.8368V11.265H68.6368V6.885H66.4168V18ZM85.5777 18.21C88.5177 18.21 90.5427 16.005 90.5427 12.405C90.5427 8.805 88.5177 6.69 85.5777 6.69C82.6377 6.69 80.6127 8.79 80.6127 12.405C80.6127 16.005 82.6377 18.21 85.5777 18.21ZM85.5777 16.29C83.9277 16.29 82.8777 14.775 82.8777 12.405C82.8777 10.02 83.9277 8.595 85.5777 8.595C87.2277 8.595 88.2777 10.02 88.2777 12.405C88.2777 14.775 87.2277 16.29 85.5777 16.29ZM97.1591 18H99.8741L101.089 12.51C101.269 11.64 101.419 10.785 101.569 9.93H101.629C101.764 10.785 101.929 11.64 102.109 12.51L103.354 18H106.114L108.169 6.885H106.069L105.184 12.315C105.019 13.47 104.854 14.655 104.689 15.855H104.614C104.374 14.655 104.149 13.455 103.909 12.315L102.634 6.885H100.729L99.4391 12.315C99.1991 13.47 98.9591 14.655 98.7341 15.855H98.6741C98.5091 14.655 98.3291 13.485 98.1641 12.315L97.2791 6.885H95.0291L97.1591 18ZM116.632 18H118.627V13.365C118.627 12.315 118.447 10.77 118.342 9.72H118.402L119.287 12.33L121.012 16.995H122.287L123.997 12.33L124.897 9.72H124.972C124.852 10.77 124.687 12.315 124.687 13.365V18H126.712V6.885H124.252L122.407 12.09C122.167 12.78 121.972 13.515 121.732 14.22H121.657C121.432 13.515 121.222 12.78 120.982 12.09L119.092 6.885H116.632V18ZM132.833 18H135.053V6.885H132.833V18ZM145.952 18.21C147.497 18.21 148.802 17.61 149.552 16.875V11.865H145.607V13.68H147.572V15.87C147.257 16.14 146.717 16.29 146.192 16.29C144.002 16.29 142.892 14.835 142.892 12.42C142.892 10.035 144.182 8.595 146.027 8.595C147.032 8.595 147.662 9 148.217 9.525L149.387 8.115C148.667 7.38 147.557 6.69 145.952 6.69C142.997 6.69 140.627 8.835 140.627 12.495C140.627 16.2 142.937 18.21 145.952 18.21ZM155.333 18H157.553V13.2H161.753V18H163.958V6.885H161.753V11.265H157.553V6.885H155.333V18ZM172.289 18H174.509V8.745H177.659V6.885H169.169V8.745H172.289V18ZM187.306 18H190.021L191.236 12.51C191.416 11.64 191.566 10.785 191.716 9.93H191.776C191.911 10.785 192.076 11.64 192.256 12.51L193.501 18H196.261L198.316 6.885H196.216L195.331 12.315C195.166 13.47 195.001 14.655 194.836 15.855H194.761C194.521 14.655 194.296 13.455 194.056 12.315L192.781 6.885H190.876L189.586 12.315C189.346 13.47 189.106 14.655 188.881 15.855H188.821C188.656 14.655 188.476 13.485 188.311 12.315L187.426 6.885H185.176L187.306 18ZM203.38 18H210.355V16.14H205.6V13.17H209.5V11.31H205.6V8.745H210.19V6.885H203.38V18ZM213.898 14.22H215.818C215.593 12.105 218.203 11.385 218.203 9.255C218.203 7.335 216.883 6.405 215.083 6.405C213.778 6.405 212.713 7.02 211.933 7.905L213.148 9.015C213.628 8.52 214.153 8.175 214.813 8.175C215.593 8.175 216.088 8.655 216.088 9.405C216.088 10.83 213.538 11.805 213.898 14.22ZM214.858 18.21C215.653 18.21 216.238 17.58 216.238 16.77C216.238 15.945 215.653 15.33 214.858 15.33C214.078 15.33 213.493 15.945 213.493 16.77C213.493 17.58 214.078 18.21 214.858 18.21Z" fill="#D29890"/>
<path d="M8.32801 60.847C9.38101 60.847 10.2 60.34 10.824 59.651L10.135 59.027C9.68001 59.547 9.10801 59.872 8.45801 59.872C7.53501 59.872 7.05401 59.235 7.05401 58.442C7.05401 56.908 9.36801 56.076 9.05601 53.814H8.00301C8.23701 55.855 5.89701 56.622 5.89701 58.533C5.89701 59.963 6.87201 60.847 8.32801 60.847ZM8.49701 52.579C8.97801 52.579 9.35501 52.202 9.35501 51.669C9.35501 51.136 8.97801 50.759 8.49701 50.759C8.02901 50.759 7.63901 51.136 7.63901 51.669C7.63901 52.202 8.02901 52.579 8.49701 52.579ZM15.6315 58.169C16.8665 58.169 17.8025 57.675 18.5565 56.804L17.8935 56.05C17.2825 56.713 16.5935 57.116 15.6835 57.116C13.8635 57.116 12.7195 55.608 12.7195 53.203C12.7195 50.824 13.9155 49.342 15.7225 49.342C16.5415 49.342 17.1785 49.719 17.6725 50.252L18.3225 49.472C17.7765 48.861 16.8665 48.289 15.7095 48.289C13.2915 48.289 11.4845 50.161 11.4845 53.242C11.4845 56.336 13.2655 58.169 15.6315 58.169ZM22.9595 58.169C24.6885 58.169 26.2355 56.817 26.2355 54.477C26.2355 52.124 24.6885 50.759 22.9595 50.759C21.2305 50.759 19.6835 52.124 19.6835 54.477C19.6835 56.817 21.2305 58.169 22.9595 58.169ZM22.9595 57.181C21.7375 57.181 20.9185 56.102 20.9185 54.477C20.9185 52.852 21.7375 51.747 22.9595 51.747C24.1815 51.747 25.0135 52.852 25.0135 54.477C25.0135 56.102 24.1815 57.181 22.9595 57.181ZM22.7515 49.667L25.0265 47.457L24.1945 46.664L22.1405 49.082L22.7515 49.667ZM28.1003 58H29.2833V52.878C29.9333 52.15 30.5313 51.799 31.0643 51.799C31.9613 51.799 32.3773 52.358 32.3773 53.684V58H33.5603V52.878C34.2233 52.15 34.7953 51.799 35.3413 51.799C36.2383 51.799 36.6543 52.358 36.6543 53.684V58H37.8373V53.528C37.8373 51.721 37.1483 50.759 35.6923 50.759C34.8343 50.759 34.0933 51.318 33.3653 52.111C33.0793 51.279 32.4943 50.759 31.4153 50.759C30.5703 50.759 29.8293 51.292 29.2183 51.968H29.1793L29.0753 50.941H28.1003V58ZM42.8785 58.169C44.6075 58.169 46.1545 56.817 46.1545 54.477C46.1545 52.124 44.6075 50.759 42.8785 50.759C41.1495 50.759 39.6025 52.124 39.6025 54.477C39.6025 56.817 41.1495 58.169 42.8785 58.169ZM42.8785 57.181C41.6565 57.181 40.8375 56.102 40.8375 54.477C40.8375 52.852 41.6565 51.747 42.8785 51.747C44.1005 51.747 44.9325 52.852 44.9325 54.477C44.9325 56.102 44.1005 57.181 42.8785 57.181ZM50.9265 60.977H52.1095V58.585L52.0835 57.35C52.7205 57.87 53.3965 58.169 54.0335 58.169C55.6585 58.169 57.1015 56.778 57.1015 54.36C57.1015 52.189 56.1135 50.759 54.2935 50.759C53.4745 50.759 52.6815 51.227 52.0445 51.747H52.0055L51.9015 50.941H50.9265V60.977ZM53.8385 57.181C53.3705 57.181 52.7465 56.986 52.1095 56.44V52.735C52.7985 52.098 53.4095 51.76 54.0075 51.76C55.3465 51.76 55.8665 52.813 55.8665 54.373C55.8665 56.128 55.0085 57.181 53.8385 57.181ZM61.731 58.169C63.46 58.169 65.007 56.817 65.007 54.477C65.007 52.124 63.46 50.759 61.731 50.759C60.002 50.759 58.455 52.124 58.455 54.477C58.455 56.817 60.002 58.169 61.731 58.169ZM61.731 57.181C60.509 57.181 59.69 56.102 59.69 54.477C59.69 52.852 60.509 51.747 61.731 51.747C62.953 51.747 63.785 52.852 63.785 54.477C63.785 56.102 62.953 57.181 61.731 57.181ZM69.2768 58.169C70.1218 58.169 70.8628 57.714 71.4218 57.168H71.4608L71.5648 58H72.5268V47.652H71.3568V50.369L71.4088 51.591C70.7848 51.071 70.2518 50.759 69.4198 50.759C67.8078 50.759 66.3648 52.189 66.3648 54.477C66.3648 56.83 67.5088 58.169 69.2768 58.169ZM69.5368 57.181C68.2888 57.181 67.5868 56.167 67.5868 54.464C67.5868 52.852 68.4838 51.76 69.6278 51.76C70.2128 51.76 70.7458 51.968 71.3568 52.501V56.206C70.7588 56.856 70.1868 57.181 69.5368 57.181ZM74.9333 58H76.1163V53.463C76.5843 52.254 77.3123 51.838 77.8973 51.838C78.1833 51.838 78.3523 51.864 78.5863 51.955L78.8073 50.915C78.5863 50.798 78.3653 50.759 78.0533 50.759C77.2603 50.759 76.5453 51.331 76.0513 52.228H76.0123L75.9083 50.941H74.9333V58ZM79.9733 58H81.1563V50.941H79.9733V58ZM80.3633 49.667L82.6383 47.457L81.8063 46.664L79.7523 49.082L80.3633 49.667ZM85.1784 58.169C86.0494 58.169 86.8424 57.714 87.5184 57.155H87.5574L87.6614 58H88.6364V53.658C88.6364 51.916 87.9084 50.759 86.1924 50.759C85.0614 50.759 84.0604 51.266 83.4104 51.682L83.8784 52.501C84.4374 52.124 85.1784 51.747 85.9974 51.747C87.1544 51.747 87.4534 52.618 87.4534 53.528C84.4504 53.866 83.1114 54.633 83.1114 56.167C83.1114 57.441 83.9954 58.169 85.1784 58.169ZM85.5164 57.22C84.8144 57.22 84.2684 56.895 84.2684 56.089C84.2684 55.179 85.0744 54.594 87.4534 54.308V56.284C86.7644 56.895 86.2054 57.22 85.5164 57.22ZM90.8913 58H92.0743V52.878C92.7243 52.15 93.3223 51.799 93.8553 51.799C94.7523 51.799 95.1683 52.358 95.1683 53.684V58H96.3513V52.878C97.0143 52.15 97.5863 51.799 98.1323 51.799C99.0293 51.799 99.4453 52.358 99.4453 53.684V58H100.628V53.528C100.628 51.721 99.9393 50.759 98.4833 50.759C97.6253 50.759 96.8843 51.318 96.1563 52.111C95.8703 51.279 95.2853 50.759 94.2063 50.759C93.3613 50.759 92.6203 51.292 92.0093 51.968H91.9703L91.8663 50.941H90.8913V58ZM105.669 58.169C107.398 58.169 108.945 56.817 108.945 54.477C108.945 52.124 107.398 50.759 105.669 50.759C103.94 50.759 102.393 52.124 102.393 54.477C102.393 56.817 103.94 58.169 105.669 58.169ZM105.669 57.181C104.447 57.181 103.628 56.102 103.628 54.477C103.628 52.852 104.447 51.747 105.669 51.747C106.891 51.747 107.723 52.852 107.723 54.477C107.723 56.102 106.891 57.181 105.669 57.181ZM112.656 58.169C114.32 58.169 115.23 57.22 115.23 56.076C115.23 54.737 114.099 54.321 113.072 53.931C112.279 53.632 111.551 53.385 111.551 52.709C111.551 52.163 111.967 51.695 112.864 51.695C113.488 51.695 113.982 51.955 114.463 52.319L115.035 51.552C114.489 51.123 113.722 50.759 112.851 50.759C111.317 50.759 110.407 51.643 110.407 52.761C110.407 53.957 111.486 54.438 112.474 54.802C113.254 55.101 114.086 55.413 114.086 56.141C114.086 56.752 113.631 57.246 112.695 57.246C111.85 57.246 111.213 56.908 110.602 56.414L110.017 57.194C110.693 57.753 111.655 58.169 112.656 58.169ZM119.799 58H120.982V52.878C121.697 52.163 122.191 51.799 122.919 51.799C123.855 51.799 124.258 52.358 124.258 53.684V58H125.441V53.528C125.441 51.721 124.765 50.759 123.283 50.759C122.321 50.759 121.593 51.292 120.943 51.942L120.982 50.486V47.652H119.799V58ZM129.32 58.169C130.191 58.169 130.984 57.714 131.66 57.155H131.699L131.803 58H132.778V53.658C132.778 51.916 132.05 50.759 130.334 50.759C129.203 50.759 128.202 51.266 127.552 51.682L128.02 52.501C128.579 52.124 129.32 51.747 130.139 51.747C131.296 51.747 131.595 52.618 131.595 53.528C128.592 53.866 127.253 54.633 127.253 56.167C127.253 57.441 128.137 58.169 129.32 58.169ZM129.658 57.22C128.956 57.22 128.41 56.895 128.41 56.089C128.41 55.179 129.216 54.594 131.595 54.308V56.284C130.906 56.895 130.347 57.22 129.658 57.22ZM137.815 58.169C138.66 58.169 139.466 57.844 140.103 57.272L139.583 56.479C139.141 56.882 138.569 57.181 137.919 57.181C136.619 57.181 135.735 56.102 135.735 54.477C135.735 52.852 136.671 51.747 137.958 51.747C138.517 51.747 138.946 52.007 139.362 52.371L139.973 51.591C139.466 51.149 138.829 50.759 137.906 50.759C136.099 50.759 134.5 52.124 134.5 54.477C134.5 56.817 135.943 58.169 137.815 58.169ZM144.177 58.169C145.139 58.169 145.893 57.844 146.517 57.441L146.088 56.661C145.568 57.012 145.009 57.22 144.32 57.22C142.981 57.22 142.058 56.258 141.98 54.75H146.738C146.764 54.581 146.79 54.334 146.79 54.074C146.79 52.059 145.776 50.759 143.982 50.759C142.344 50.759 140.797 52.189 140.797 54.477C140.797 56.804 142.305 58.169 144.177 58.169ZM141.967 53.892C142.11 52.514 142.994 51.708 143.995 51.708C145.1 51.708 145.75 52.475 145.75 53.892H141.967ZM148.528 58H149.711V53.463C150.179 52.254 150.907 51.838 151.492 51.838C151.778 51.838 151.947 51.864 152.181 51.955L152.402 50.915C152.181 50.798 151.96 50.759 151.648 50.759C150.855 50.759 150.14 51.331 149.646 52.228H149.607L149.503 50.941H148.528V58ZM158.321 58.169C159.985 58.169 160.895 57.22 160.895 56.076C160.895 54.737 159.764 54.321 158.737 53.931C157.944 53.632 157.216 53.385 157.216 52.709C157.216 52.163 157.632 51.695 158.529 51.695C159.153 51.695 159.647 51.955 160.128 52.319L160.7 51.552C160.154 51.123 159.387 50.759 158.516 50.759C156.982 50.759 156.072 51.643 156.072 52.761C156.072 53.957 157.151 54.438 158.139 54.802C158.919 55.101 159.751 55.413 159.751 56.141C159.751 56.752 159.296 57.246 158.36 57.246C157.515 57.246 156.878 56.908 156.267 56.414L155.682 57.194C156.358 57.753 157.32 58.169 158.321 58.169ZM165.403 58.169C166.365 58.169 167.119 57.844 167.743 57.441L167.314 56.661C166.794 57.012 166.235 57.22 165.546 57.22C164.207 57.22 163.284 56.258 163.206 54.75H167.964C167.99 54.581 168.016 54.334 168.016 54.074C168.016 52.059 167.002 50.759 165.208 50.759C163.57 50.759 162.023 52.189 162.023 54.477C162.023 56.804 163.531 58.169 165.403 58.169ZM163.193 53.892C163.336 52.514 164.22 51.708 165.221 51.708C166.326 51.708 166.976 52.475 166.976 53.892H163.193ZM169.755 58H170.938V52.878C171.653 52.163 172.147 51.799 172.875 51.799C173.811 51.799 174.214 52.358 174.214 53.684V58H175.397V53.528C175.397 51.721 174.721 50.759 173.239 50.759C172.277 50.759 171.549 51.292 170.873 51.955H170.834L170.73 50.941H169.755V58ZM179.925 58.169C180.354 58.169 180.822 58.039 181.225 57.909L180.991 57.025C180.757 57.116 180.432 57.207 180.185 57.207C179.366 57.207 179.093 56.713 179.093 55.842V51.903H181.004V50.941H179.093V48.952H178.105L177.962 50.941L176.857 51.006V51.903H177.91V55.816C177.91 57.22 178.417 58.169 179.925 58.169ZM182.602 58H183.785V50.941H182.602V58ZM183.2 49.485C183.668 49.485 183.993 49.173 183.993 48.692C183.993 48.237 183.668 47.925 183.2 47.925C182.732 47.925 182.407 48.237 182.407 48.692C182.407 49.173 182.732 49.485 183.2 49.485ZM186.182 58H187.365V53.463C187.833 52.254 188.561 51.838 189.146 51.838C189.432 51.838 189.601 51.864 189.835 51.955L190.056 50.915C189.835 50.798 189.614 50.759 189.302 50.759C188.509 50.759 187.794 51.331 187.3 52.228H187.261L187.157 50.941H186.182V58ZM195.755 58.169C196.626 58.169 197.419 57.714 198.095 57.155H198.134L198.238 58H199.213V53.658C199.213 51.916 198.485 50.759 196.769 50.759C195.638 50.759 194.637 51.266 193.987 51.682L194.455 52.501C195.014 52.124 195.755 51.747 196.574 51.747C197.731 51.747 198.03 52.618 198.03 53.528C195.027 53.866 193.688 54.633 193.688 56.167C193.688 57.441 194.572 58.169 195.755 58.169ZM196.093 57.22C195.391 57.22 194.845 56.895 194.845 56.089C194.845 55.179 195.651 54.594 198.03 54.308V56.284C197.341 56.895 196.782 57.22 196.093 57.22ZM205.623 58.169C205.948 58.169 206.143 58.13 206.312 58.065L206.143 57.155C206.013 57.181 205.961 57.181 205.896 57.181C205.714 57.181 205.558 57.038 205.558 56.674V47.652H204.375V56.596C204.375 57.597 204.739 58.169 205.623 58.169ZM209.707 58.169C210.578 58.169 211.371 57.714 212.047 57.155H212.086L212.19 58H213.165V53.658C213.165 51.916 212.437 50.759 210.721 50.759C209.59 50.759 208.589 51.266 207.939 51.682L208.407 52.501C208.966 52.124 209.707 51.747 210.526 51.747C211.683 51.747 211.982 52.618 211.982 53.528C208.979 53.866 207.64 54.633 207.64 56.167C207.64 57.441 208.524 58.169 209.707 58.169ZM210.045 57.22C209.343 57.22 208.797 56.895 208.797 56.089C208.797 55.179 209.603 54.594 211.982 54.308V56.284C211.293 56.895 210.734 57.22 210.045 57.22ZM217.266 58.169C218.93 58.169 219.84 57.22 219.84 56.076C219.84 54.737 218.709 54.321 217.682 53.931C216.889 53.632 216.161 53.385 216.161 52.709C216.161 52.163 216.577 51.695 217.474 51.695C218.098 51.695 218.592 51.955 219.073 52.319L219.645 51.552C219.099 51.123 218.332 50.759 217.461 50.759C215.927 50.759 215.017 51.643 215.017 52.761C215.017 53.957 216.096 54.438 217.084 54.802C217.864 55.101 218.696 55.413 218.696 56.141C218.696 56.752 218.241 57.246 217.305 57.246C216.46 57.246 215.823 56.908 215.212 56.414L214.627 57.194C215.303 57.753 216.265 58.169 217.266 58.169ZM224.408 60.977H225.591V58.585L225.565 57.35C226.202 57.87 226.878 58.169 227.515 58.169C229.14 58.169 230.583 56.778 230.583 54.36C230.583 52.189 229.595 50.759 227.775 50.759C226.956 50.759 226.163 51.227 225.526 51.747H225.487L225.383 50.941H224.408V60.977ZM227.32 57.181C226.852 57.181 226.228 56.986 225.591 56.44V52.735C226.28 52.098 226.891 51.76 227.489 51.76C228.828 51.76 229.348 52.813 229.348 54.373C229.348 56.128 228.49 57.181 227.32 57.181ZM235.316 58.169C236.278 58.169 237.032 57.844 237.656 57.441L237.227 56.661C236.707 57.012 236.148 57.22 235.459 57.22C234.12 57.22 233.197 56.258 233.119 54.75H237.877C237.903 54.581 237.929 54.334 237.929 54.074C237.929 52.059 236.915 50.759 235.121 50.759C233.483 50.759 231.936 52.189 231.936 54.477C231.936 56.804 233.444 58.169 235.316 58.169ZM233.106 53.892C233.249 52.514 234.133 51.708 235.134 51.708C236.239 51.708 236.889 52.475 236.889 53.892H233.106ZM239.668 58H240.851V53.463C241.319 52.254 242.047 51.838 242.632 51.838C242.918 51.838 243.087 51.864 243.321 51.955L243.542 50.915C243.321 50.798 243.1 50.759 242.788 50.759C241.995 50.759 241.28 51.331 240.786 52.228H240.747L240.643 50.941H239.668V58ZM246.503 58.169C248.167 58.169 249.077 57.22 249.077 56.076C249.077 54.737 247.946 54.321 246.919 53.931C246.126 53.632 245.398 53.385 245.398 52.709C245.398 52.163 245.814 51.695 246.711 51.695C247.335 51.695 247.829 51.955 248.31 52.319L248.882 51.552C248.336 51.123 247.569 50.759 246.698 50.759C245.164 50.759 244.254 51.643 244.254 52.761C244.254 53.957 245.333 54.438 246.321 54.802C247.101 55.101 247.933 55.413 247.933 56.141C247.933 56.752 247.478 57.246 246.542 57.246C245.697 57.246 245.06 56.908 244.449 56.414L243.864 57.194C244.54 57.753 245.502 58.169 246.503 58.169ZM253.481 58.169C255.21 58.169 256.757 56.817 256.757 54.477C256.757 52.124 255.21 50.759 253.481 50.759C251.752 50.759 250.205 52.124 250.205 54.477C250.205 56.817 251.752 58.169 253.481 58.169ZM253.481 57.181C252.259 57.181 251.44 56.102 251.44 54.477C251.44 52.852 252.259 51.747 253.481 51.747C254.703 51.747 255.535 52.852 255.535 54.477C255.535 56.102 254.703 57.181 253.481 57.181ZM258.622 58H259.805V52.878C260.52 52.163 261.014 51.799 261.742 51.799C262.678 51.799 263.081 52.358 263.081 53.684V58H264.264V53.528C264.264 51.721 263.588 50.759 262.106 50.759C261.144 50.759 260.416 51.292 259.74 51.955H259.701L259.597 50.941H258.622V58ZM268.194 58.169C269.065 58.169 269.858 57.714 270.534 57.155H270.573L270.677 58H271.652V53.658C271.652 51.916 270.924 50.759 269.208 50.759C268.077 50.759 267.076 51.266 266.426 51.682L266.894 52.501C267.453 52.124 268.194 51.747 269.013 51.747C270.17 51.747 270.469 52.618 270.469 53.528C267.466 53.866 266.127 54.633 266.127 56.167C266.127 57.441 267.011 58.169 268.194 58.169ZM268.532 57.22C267.83 57.22 267.284 56.895 267.284 56.089C267.284 55.179 268.09 54.594 270.469 54.308V56.284C269.78 56.895 269.221 57.22 268.532 57.22ZM275.753 58.169C277.417 58.169 278.327 57.22 278.327 56.076C278.327 54.737 277.196 54.321 276.169 53.931C275.376 53.632 274.648 53.385 274.648 52.709C274.648 52.163 275.064 51.695 275.961 51.695C276.585 51.695 277.079 51.955 277.56 52.319L278.132 51.552C277.586 51.123 276.819 50.759 275.948 50.759C274.414 50.759 273.504 51.643 273.504 52.761C273.504 53.957 274.583 54.438 275.571 54.802C276.351 55.101 277.183 55.413 277.183 56.141C277.183 56.752 276.728 57.246 275.792 57.246C274.947 57.246 274.31 56.908 273.699 56.414L273.114 57.194C273.79 57.753 274.752 58.169 275.753 58.169ZM39.3519 79.977H40.5219V69.941H39.5859L39.4689 70.617H39.4299C38.8189 70.058 38.2339 69.759 37.4149 69.759C35.8029 69.759 34.3599 71.189 34.3599 73.477C34.3599 75.83 35.5039 77.169 37.2719 77.169C38.0909 77.169 38.8319 76.74 39.4039 76.181L39.3519 77.468V79.977ZM37.5319 76.181C36.2839 76.181 35.5819 75.167 35.5819 73.464C35.5819 71.852 36.4789 70.76 37.6229 70.76C38.2079 70.76 38.7409 70.968 39.3519 71.501V75.206C38.7539 75.856 38.1819 76.181 37.5319 76.181ZM44.9824 77.169C45.9574 77.169 46.6594 76.662 47.3224 75.895H47.3614L47.4524 77H48.4404V69.941H47.2574V74.946C46.5814 75.791 46.0744 76.142 45.3464 76.142C44.4104 76.142 44.0204 75.583 44.0204 74.27V69.941H42.8374V74.413C42.8374 76.207 43.5004 77.169 44.9824 77.169ZM53.6719 77.169C54.6339 77.169 55.3879 76.844 56.0119 76.441L55.5829 75.661C55.0629 76.012 54.5039 76.22 53.8149 76.22C52.4759 76.22 51.5529 75.258 51.4749 73.75H56.2329C56.2589 73.581 56.2849 73.334 56.2849 73.074C56.2849 71.059 55.2709 69.759 53.4769 69.759C51.8389 69.759 50.2919 71.189 50.2919 73.477C50.2919 75.804 51.7999 77.169 53.6719 77.169ZM51.4619 72.892C51.6049 71.514 52.4889 70.708 53.4899 70.708C54.5949 70.708 55.2449 71.475 55.2449 72.892H51.4619ZM62.1784 77.169C62.5034 77.169 62.6984 77.13 62.8674 77.065L62.6984 76.155C62.5684 76.181 62.5164 76.181 62.4514 76.181C62.2694 76.181 62.1134 76.038 62.1134 75.674V66.652H60.9304V75.596C60.9304 76.597 61.2944 77.169 62.1784 77.169ZM66.2624 77.169C67.1334 77.169 67.9264 76.714 68.6024 76.155H68.6414L68.7454 77H69.7204V72.658C69.7204 70.916 68.9924 69.759 67.2764 69.759C66.1454 69.759 65.1444 70.266 64.4944 70.682L64.9624 71.501C65.5214 71.124 66.2624 70.747 67.0814 70.747C68.2384 70.747 68.5374 71.618 68.5374 72.528C65.5344 72.866 64.1954 73.633 64.1954 75.167C64.1954 76.441 65.0794 77.169 66.2624 77.169ZM66.6004 76.22C65.8984 76.22 65.3524 75.895 65.3524 75.089C65.3524 74.179 66.1584 73.594 68.5374 73.308V75.284C67.8484 75.895 67.2894 76.22 66.6004 76.22ZM73.8213 77.169C75.4853 77.169 76.3953 76.22 76.3953 75.076C76.3953 73.737 75.2643 73.321 74.2373 72.931C73.4443 72.632 72.7163 72.385 72.7163 71.709C72.7163 71.163 73.1323 70.695 74.0293 70.695C74.6533 70.695 75.1473 70.955 75.6283 71.319L76.2003 70.552C75.6543 70.123 74.8873 69.759 74.0163 69.759C72.4823 69.759 71.5723 70.643 71.5723 71.761C71.5723 72.957 72.6513 73.438 73.6393 73.802C74.4193 74.101 75.2513 74.413 75.2513 75.141C75.2513 75.752 74.7963 76.246 73.8603 76.246C73.0153 76.246 72.3783 75.908 71.7673 75.414L71.1823 76.194C71.8583 76.753 72.8203 77.169 73.8213 77.169ZM83.7066 77.169C85.4356 77.169 86.9826 75.817 86.9826 73.477C86.9826 71.124 85.4356 69.759 83.7066 69.759C81.9776 69.759 80.4306 71.124 80.4306 73.477C80.4306 75.817 81.9776 77.169 83.7066 77.169ZM83.7066 76.181C82.4846 76.181 81.6656 75.102 81.6656 73.477C81.6656 71.852 82.4846 70.747 83.7066 70.747C84.9286 70.747 85.7606 71.852 85.7606 73.477C85.7606 75.102 84.9286 76.181 83.7066 76.181ZM88.8474 79.977H90.0304V77.585L90.0044 76.35C90.6414 76.87 91.3174 77.169 91.9544 77.169C93.5794 77.169 95.0224 75.778 95.0224 73.36C95.0224 71.189 94.0344 69.759 92.2144 69.759C91.3954 69.759 90.6024 70.227 89.9654 70.747H89.9264L89.8224 69.941H88.8474V79.977ZM91.7594 76.181C91.2914 76.181 90.6674 75.986 90.0304 75.44V71.735C90.7194 71.098 91.3304 70.76 91.9284 70.76C93.2674 70.76 93.7874 71.813 93.7874 73.373C93.7874 75.128 92.9294 76.181 91.7594 76.181ZM99.6519 77.169C101.381 77.169 102.928 75.817 102.928 73.477C102.928 71.124 101.381 69.759 99.6519 69.759C97.9229 69.759 96.3759 71.124 96.3759 73.477C96.3759 75.817 97.9229 77.169 99.6519 77.169ZM99.6519 76.181C98.4299 76.181 97.6109 75.102 97.6109 73.477C97.6109 71.852 98.4299 70.747 99.6519 70.747C100.874 70.747 101.706 71.852 101.706 73.477C101.706 75.102 100.874 76.181 99.6519 76.181ZM104.793 77H105.976V72.463C106.444 71.254 107.172 70.838 107.757 70.838C108.043 70.838 108.212 70.864 108.446 70.955L108.667 69.915C108.446 69.798 108.225 69.759 107.913 69.759C107.12 69.759 106.405 70.331 105.911 71.228H105.872L105.768 69.941H104.793V77ZM112.056 77.169C112.485 77.169 112.953 77.039 113.356 76.909L113.122 76.025C112.888 76.116 112.563 76.207 112.316 76.207C111.497 76.207 111.224 75.713 111.224 74.842V70.903H113.135V69.941H111.224V67.952H110.236L110.093 69.941L108.988 70.006V70.903H110.041V74.816C110.041 76.22 110.548 77.169 112.056 77.169ZM116.787 77.169C117.762 77.169 118.464 76.662 119.127 75.895H119.166L119.257 77H120.245V69.941H119.062V74.946C118.386 75.791 117.879 76.142 117.151 76.142C116.215 76.142 115.825 75.583 115.825 74.27V69.941H114.642V74.413C114.642 76.207 115.305 77.169 116.787 77.169ZM122.63 77H123.813V71.878C124.528 71.163 125.022 70.799 125.75 70.799C126.686 70.799 127.089 71.358 127.089 72.684V77H128.272V72.528C128.272 70.721 127.596 69.759 126.114 69.759C125.152 69.759 124.424 70.292 123.748 70.955H123.709L123.605 69.941H122.63V77ZM130.577 77H131.76V69.941H130.577V77ZM131.175 68.485C131.643 68.485 131.968 68.173 131.968 67.692C131.968 67.237 131.643 66.925 131.175 66.925C130.707 66.925 130.382 67.237 130.382 67.692C130.382 68.173 130.707 68.485 131.175 68.485ZM136.562 77.169C137.407 77.169 138.148 76.714 138.707 76.168H138.746L138.85 77H139.812V66.652H138.642V69.369L138.694 70.591C138.07 70.071 137.537 69.759 136.705 69.759C135.093 69.759 133.65 71.189 133.65 73.477C133.65 75.83 134.794 77.169 136.562 77.169ZM136.822 76.181C135.574 76.181 134.872 75.167 134.872 73.464C134.872 71.852 135.769 70.76 136.913 70.76C137.498 70.76 138.031 70.968 138.642 71.501V75.206C138.044 75.856 137.472 76.181 136.822 76.181ZM143.843 77.169C144.714 77.169 145.507 76.714 146.183 76.155H146.222L146.326 77H147.301V72.658C147.301 70.916 146.573 69.759 144.857 69.759C143.726 69.759 142.725 70.266 142.075 70.682L142.543 71.501C143.102 71.124 143.843 70.747 144.662 70.747C145.819 70.747 146.118 71.618 146.118 72.528C143.115 72.866 141.776 73.633 141.776 75.167C141.776 76.441 142.66 77.169 143.843 77.169ZM144.181 76.22C143.479 76.22 142.933 75.895 142.933 75.089C142.933 74.179 143.739 73.594 146.118 73.308V75.284C145.429 75.895 144.87 76.22 144.181 76.22ZM151.961 77.169C152.806 77.169 153.547 76.714 154.106 76.168H154.145L154.249 77H155.211V66.652H154.041V69.369L154.093 70.591C153.469 70.071 152.936 69.759 152.104 69.759C150.492 69.759 149.049 71.189 149.049 73.477C149.049 75.83 150.193 77.169 151.961 77.169ZM152.221 76.181C150.973 76.181 150.271 75.167 150.271 73.464C150.271 71.852 151.168 70.76 152.312 70.76C152.897 70.76 153.43 70.968 154.041 71.501V75.206C153.443 75.856 152.871 76.181 152.221 76.181ZM160.465 77.169C161.427 77.169 162.181 76.844 162.805 76.441L162.376 75.661C161.856 76.012 161.297 76.22 160.608 76.22C159.269 76.22 158.346 75.258 158.268 73.75H163.026C163.052 73.581 163.078 73.334 163.078 73.074C163.078 71.059 162.064 69.759 160.27 69.759C158.632 69.759 157.085 71.189 157.085 73.477C157.085 75.804 158.593 77.169 160.465 77.169ZM158.255 72.892C158.398 71.514 159.282 70.708 160.283 70.708C161.388 70.708 162.038 71.475 162.038 72.892H158.255ZM166.662 77.169C168.326 77.169 169.236 76.22 169.236 75.076C169.236 73.737 168.105 73.321 167.078 72.931C166.285 72.632 165.557 72.385 165.557 71.709C165.557 71.163 165.973 70.695 166.87 70.695C167.494 70.695 167.988 70.955 168.469 71.319L169.041 70.552C168.495 70.123 167.728 69.759 166.857 69.759C165.323 69.759 164.413 70.643 164.413 71.761C164.413 72.957 165.492 73.438 166.48 73.802C167.26 74.101 168.092 74.413 168.092 75.141C168.092 75.752 167.637 76.246 166.701 76.246C165.856 76.246 165.219 75.908 164.608 75.414L164.023 76.194C164.699 76.753 165.661 77.169 166.662 77.169ZM178.289 79.977H179.459V69.941H178.523L178.406 70.617H178.367C177.756 70.058 177.171 69.759 176.352 69.759C174.74 69.759 173.297 71.189 173.297 73.477C173.297 75.83 174.441 77.169 176.209 77.169C177.028 77.169 177.769 76.74 178.341 76.181L178.289 77.468V79.977ZM176.469 76.181C175.221 76.181 174.519 75.167 174.519 73.464C174.519 71.852 175.416 70.76 176.56 70.76C177.145 70.76 177.678 70.968 178.289 71.501V75.206C177.691 75.856 177.119 76.181 176.469 76.181ZM183.92 77.169C184.895 77.169 185.597 76.662 186.26 75.895H186.299L186.39 77H187.378V69.941H186.195V74.946C185.519 75.791 185.012 76.142 184.284 76.142C183.348 76.142 182.958 75.583 182.958 74.27V69.941H181.775V74.413C181.775 76.207 182.438 77.169 183.92 77.169ZM192.609 77.169C193.571 77.169 194.325 76.844 194.949 76.441L194.52 75.661C194 76.012 193.441 76.22 192.752 76.22C191.413 76.22 190.49 75.258 190.412 73.75H195.17C195.196 73.581 195.222 73.334 195.222 73.074C195.222 71.059 194.208 69.759 192.414 69.759C190.776 69.759 189.229 71.189 189.229 73.477C189.229 75.804 190.737 77.169 192.609 77.169ZM190.399 72.892C190.542 71.514 191.426 70.708 192.427 70.708C193.532 70.708 194.182 71.475 194.182 72.892H190.399ZM202.611 77.169C204.34 77.169 205.887 75.817 205.887 73.477C205.887 71.124 204.34 69.759 202.611 69.759C200.882 69.759 199.335 71.124 199.335 73.477C199.335 75.817 200.882 77.169 202.611 77.169ZM202.611 76.181C201.389 76.181 200.57 75.102 200.57 73.477C200.57 71.852 201.389 70.747 202.611 70.747C203.833 70.747 204.665 71.852 204.665 73.477C204.665 75.102 203.833 76.181 202.611 76.181ZM207.947 77H209.13V70.903H210.625V69.941H209.13V68.823C209.13 67.913 209.455 67.432 210.131 67.432C210.378 67.432 210.664 67.497 210.924 67.614L211.184 66.717C210.859 66.574 210.43 66.483 210.001 66.483C208.597 66.483 207.947 67.38 207.947 68.81V69.941L206.985 70.006V70.903H207.947V77ZM211.979 77H213.162V72.463C213.63 71.254 214.358 70.838 214.943 70.838C215.229 70.838 215.398 70.864 215.632 70.955L215.853 69.915C215.632 69.798 215.411 69.759 215.099 69.759C214.306 69.759 213.591 70.331 213.097 71.228H213.058L212.954 69.941H211.979V77ZM219.727 77.169C220.689 77.169 221.443 76.844 222.067 76.441L221.638 75.661C221.118 76.012 220.559 76.22 219.87 76.22C218.531 76.22 217.608 75.258 217.53 73.75H222.288C222.314 73.581 222.34 73.334 222.34 73.074C222.34 71.059 221.326 69.759 219.532 69.759C217.894 69.759 216.347 71.189 216.347 73.477C216.347 75.804 217.855 77.169 219.727 77.169ZM217.517 72.892C217.66 71.514 218.544 70.708 219.545 70.708C220.65 70.708 221.3 71.475 221.3 72.892H217.517ZM226.86 77.169C227.705 77.169 228.511 76.844 229.148 76.272L228.628 75.479C228.186 75.882 227.614 76.181 226.964 76.181C225.664 76.181 224.78 75.102 224.78 73.477C224.78 71.852 225.716 70.747 227.003 70.747C227.562 70.747 227.991 71.007 228.407 71.371L229.018 70.591C228.511 70.149 227.874 69.759 226.951 69.759C225.144 69.759 223.545 71.124 223.545 73.477C223.545 75.817 224.988 77.169 226.86 77.169ZM233.222 77.169C234.184 77.169 234.938 76.844 235.562 76.441L235.133 75.661C234.613 76.012 234.054 76.22 233.365 76.22C232.026 76.22 231.103 75.258 231.025 73.75H235.783C235.809 73.581 235.835 73.334 235.835 73.074C235.835 71.059 234.821 69.759 233.027 69.759C231.389 69.759 229.842 71.189 229.842 73.477C229.842 75.804 231.35 77.169 233.222 77.169ZM231.012 72.892C231.155 71.514 232.039 70.708 233.04 70.708C234.145 70.708 234.795 71.475 234.795 72.892H231.012ZM241.728 77.169C242.053 77.169 242.248 77.13 242.417 77.065L242.248 76.155C242.118 76.181 242.066 76.181 242.001 76.181C241.819 76.181 241.663 76.038 241.663 75.674V66.652H240.48V75.596C240.48 76.597 240.844 77.169 241.728 77.169ZM245.812 77.169C246.683 77.169 247.476 76.714 248.152 76.155H248.191L248.295 77H249.27V72.658C249.27 70.916 248.542 69.759 246.826 69.759C245.695 69.759 244.694 70.266 244.044 70.682L244.512 71.501C245.071 71.124 245.812 70.747 246.631 70.747C247.788 70.747 248.087 71.618 248.087 72.528C245.084 72.866 243.745 73.633 243.745 75.167C243.745 76.441 244.629 77.169 245.812 77.169ZM246.15 76.22C245.448 76.22 244.902 75.895 244.902 75.089C244.902 74.179 245.708 73.594 248.087 73.308V75.284C247.398 75.895 246.839 76.22 246.15 76.22ZM24.5583 98.977H25.7413V96.585L25.7153 95.35C26.3523 95.87 27.0283 96.169 27.6653 96.169C29.2903 96.169 30.7333 94.778 30.7333 92.36C30.7333 90.189 29.7453 88.759 27.9253 88.759C27.1063 88.759 26.3133 89.227 25.6763 89.747H25.6373L25.5333 88.941H24.5583V98.977ZM27.4703 95.181C27.0023 95.181 26.3783 94.986 25.7413 94.44V90.735C26.4303 90.098 27.0413 89.76 27.6393 89.76C28.9783 89.76 29.4983 90.813 29.4983 92.373C29.4983 94.128 28.6403 95.181 27.4703 95.181ZM33.8678 96.169C34.1928 96.169 34.3878 96.13 34.5568 96.065L34.3878 95.155C34.2578 95.181 34.2058 95.181 34.1408 95.181C33.9588 95.181 33.8028 95.038 33.8028 94.674V85.652H32.6198V94.596C32.6198 95.597 32.9838 96.169 33.8678 96.169ZM37.9519 96.169C38.8229 96.169 39.6159 95.714 40.2919 95.155H40.3309L40.4349 96H41.4099V91.658C41.4099 89.916 40.6819 88.759 38.9659 88.759C37.8349 88.759 36.8339 89.266 36.1839 89.682L36.6519 90.501C37.2109 90.124 37.9519 89.747 38.7709 89.747C39.9279 89.747 40.2269 90.618 40.2269 91.528C37.2239 91.866 35.8849 92.633 35.8849 94.167C35.8849 95.441 36.7689 96.169 37.9519 96.169ZM38.2899 95.22C37.5879 95.22 37.0419 94.895 37.0419 94.089C37.0419 93.179 37.8479 92.594 40.2269 92.308V94.284C39.5379 94.895 38.9789 95.22 38.2899 95.22ZM45.6973 96.169C46.1263 96.169 46.5943 96.039 46.9973 95.909L46.7633 95.025C46.5293 95.116 46.2043 95.207 45.9573 95.207C45.1383 95.207 44.8653 94.713 44.8653 93.842V89.903H46.7763V88.941H44.8653V86.952H43.8773L43.7343 88.941L42.6293 89.006V89.903H43.6823V93.816C43.6823 95.22 44.1893 96.169 45.6973 96.169ZM49.6823 96.169C50.5533 96.169 51.3463 95.714 52.0223 95.155H52.0613L52.1653 96H53.1403V91.658C53.1403 89.916 52.4123 88.759 50.6963 88.759C49.5653 88.759 48.5643 89.266 47.9143 89.682L48.3823 90.501C48.9413 90.124 49.6823 89.747 50.5013 89.747C51.6583 89.747 51.9573 90.618 51.9573 91.528C48.9543 91.866 47.6153 92.633 47.6153 94.167C47.6153 95.441 48.4993 96.169 49.6823 96.169ZM50.0203 95.22C49.3183 95.22 48.7723 94.895 48.7723 94.089C48.7723 93.179 49.5783 92.594 51.9573 92.308V94.284C51.2683 94.895 50.7093 95.22 50.0203 95.22ZM55.5902 96H56.7732V89.903H58.2682V88.941H56.7732V87.823C56.7732 86.913 57.0982 86.432 57.7742 86.432C58.0212 86.432 58.3072 86.497 58.5672 86.614L58.8272 85.717C58.5022 85.574 58.0732 85.483 57.6442 85.483C56.2402 85.483 55.5902 86.38 55.5902 87.81V88.941L54.6282 89.006V89.903H55.5902V96ZM62.2261 96.169C63.9551 96.169 65.5021 94.817 65.5021 92.477C65.5021 90.124 63.9551 88.759 62.2261 88.759C60.4971 88.759 58.9501 90.124 58.9501 92.477C58.9501 94.817 60.4971 96.169 62.2261 96.169ZM62.2261 95.181C61.0041 95.181 60.1851 94.102 60.1851 92.477C60.1851 90.852 61.0041 89.747 62.2261 89.747C63.4481 89.747 64.2801 90.852 64.2801 92.477C64.2801 94.102 63.4481 95.181 62.2261 95.181ZM67.3669 96H68.5499V91.463C69.0179 90.254 69.7459 89.838 70.3309 89.838C70.6169 89.838 70.7859 89.864 71.0199 89.955L71.2409 88.915C71.0199 88.798 70.7989 88.759 70.4869 88.759C69.6939 88.759 68.9789 89.331 68.4849 90.228H68.4459L68.3419 88.941H67.3669V96ZM72.4069 96H73.5899V90.878C74.2399 90.15 74.8379 89.799 75.3709 89.799C76.2679 89.799 76.6839 90.358 76.6839 91.684V96H77.8669V90.878C78.5299 90.15 79.1019 89.799 79.6479 89.799C80.5449 89.799 80.9609 90.358 80.9609 91.684V96H82.1439V91.528C82.1439 89.721 81.4549 88.759 79.9989 88.759C79.1409 88.759 78.3999 89.318 77.6719 90.111C77.3859 89.279 76.8009 88.759 75.7219 88.759C74.8769 88.759 74.1359 89.292 73.5249 89.968H73.4859L73.3819 88.941H72.4069V96ZM86.0671 96.169C86.9381 96.169 87.7311 95.714 88.4071 95.155H88.4461L88.5501 96H89.5251V91.658C89.5251 89.916 88.7971 88.759 87.0811 88.759C85.9501 88.759 84.9491 89.266 84.2991 89.682L84.7671 90.501C85.3261 90.124 86.0671 89.747 86.8861 89.747C88.0431 89.747 88.3421 90.618 88.3421 91.528C85.3391 91.866 84.0001 92.633 84.0001 94.167C84.0001 95.441 84.8841 96.169 86.0671 96.169ZM86.4051 95.22C85.7031 95.22 85.1571 94.895 85.1571 94.089C85.1571 93.179 85.9631 92.594 88.3421 92.308V94.284C87.6531 94.895 87.0941 95.22 86.4051 95.22ZM94.6872 96H95.8702V91.463C96.3382 90.254 97.0662 89.838 97.6512 89.838C97.9372 89.838 98.1062 89.864 98.3402 89.955L98.5612 88.915C98.3402 88.798 98.1192 88.759 97.8072 88.759C97.0142 88.759 96.2992 89.331 95.8052 90.228H95.7662L95.6622 88.941H94.6872V96ZM102.435 96.169C103.397 96.169 104.151 95.844 104.775 95.441L104.346 94.661C103.826 95.012 103.267 95.22 102.578 95.22C101.239 95.22 100.316 94.258 100.238 92.75H104.996C105.022 92.581 105.048 92.334 105.048 92.074C105.048 90.059 104.034 88.759 102.24 88.759C100.602 88.759 99.0546 90.189 99.0546 92.477C99.0546 94.804 100.563 96.169 102.435 96.169ZM100.225 91.892C100.368 90.514 101.252 89.708 102.253 89.708C103.358 89.708 104.008 90.475 104.008 91.892H100.225ZM108.208 96.169C109.079 96.169 109.872 95.714 110.548 95.155H110.587L110.691 96H111.666V91.658C111.666 89.916 110.938 88.759 109.222 88.759C108.091 88.759 107.09 89.266 106.44 89.682L106.908 90.501C107.467 90.124 108.208 89.747 109.027 89.747C110.184 89.747 110.483 90.618 110.483 91.528C107.48 91.866 106.141 92.633 106.141 94.167C106.141 95.441 107.025 96.169 108.208 96.169ZM108.546 95.22C107.844 95.22 107.298 94.895 107.298 94.089C107.298 93.179 108.104 92.594 110.483 92.308V94.284C109.794 94.895 109.235 95.22 108.546 95.22ZM115.169 96.169C115.494 96.169 115.689 96.13 115.858 96.065L115.689 95.155C115.559 95.181 115.507 95.181 115.442 95.181C115.26 95.181 115.104 95.038 115.104 94.674V85.652H113.921V94.596C113.921 95.597 114.285 96.169 115.169 96.169ZM117.628 96H118.811V90.878C119.461 90.15 120.059 89.799 120.592 89.799C121.489 89.799 121.905 90.358 121.905 91.684V96H123.088V90.878C123.751 90.15 124.323 89.799 124.869 89.799C125.766 89.799 126.182 90.358 126.182 91.684V96H127.365V91.528C127.365 89.721 126.676 88.759 125.22 88.759C124.362 88.759 123.621 89.318 122.893 90.111C122.607 89.279 122.022 88.759 120.943 88.759C120.098 88.759 119.357 89.292 118.746 89.968H118.707L118.603 88.941H117.628V96ZM132.51 96.169C133.472 96.169 134.226 95.844 134.85 95.441L134.421 94.661C133.901 95.012 133.342 95.22 132.653 95.22C131.314 95.22 130.391 94.258 130.313 92.75H135.071C135.097 92.581 135.123 92.334 135.123 92.074C135.123 90.059 134.109 88.759 132.315 88.759C130.677 88.759 129.13 90.189 129.13 92.477C129.13 94.804 130.638 96.169 132.51 96.169ZM130.3 91.892C130.443 90.514 131.327 89.708 132.328 89.708C133.433 89.708 134.083 90.475 134.083 91.892H130.3ZM136.861 96H138.044V90.878C138.759 90.163 139.253 89.799 139.981 89.799C140.917 89.799 141.32 90.358 141.32 91.684V96H142.503V91.528C142.503 89.721 141.827 88.759 140.345 88.759C139.383 88.759 138.655 89.292 137.979 89.955H137.94L137.836 88.941H136.861V96ZM147.031 96.169C147.46 96.169 147.928 96.039 148.331 95.909L148.097 95.025C147.863 95.116 147.538 95.207 147.291 95.207C146.472 95.207 146.199 94.713 146.199 93.842V89.903H148.11V88.941H146.199V86.952H145.211L145.068 88.941L143.963 89.006V89.903H145.016V93.816C145.016 95.22 145.523 96.169 147.031 96.169ZM152.365 96.169C153.327 96.169 154.081 95.844 154.705 95.441L154.276 94.661C153.756 95.012 153.197 95.22 152.508 95.22C151.169 95.22 150.246 94.258 150.168 92.75H154.926C154.952 92.581 154.978 92.334 154.978 92.074C154.978 90.059 153.964 88.759 152.17 88.759C150.532 88.759 148.985 90.189 148.985 92.477C148.985 94.804 150.493 96.169 152.365 96.169ZM150.155 91.892C150.298 90.514 151.182 89.708 152.183 89.708C153.288 89.708 153.938 90.475 153.938 91.892H150.155ZM159.624 96H160.807V90.878C161.522 90.163 162.016 89.799 162.744 89.799C163.68 89.799 164.083 90.358 164.083 91.684V96H165.266V91.528C165.266 89.721 164.59 88.759 163.108 88.759C162.146 88.759 161.418 89.292 160.768 89.942L160.807 88.486V85.652H159.624V96ZM169.145 96.169C170.016 96.169 170.809 95.714 171.485 95.155H171.524L171.628 96H172.603V91.658C172.603 89.916 171.875 88.759 170.159 88.759C169.028 88.759 168.027 89.266 167.377 89.682L167.845 90.501C168.404 90.124 169.145 89.747 169.964 89.747C171.121 89.747 171.42 90.618 171.42 91.528C168.417 91.866 167.078 92.633 167.078 94.167C167.078 95.441 167.962 96.169 169.145 96.169ZM169.483 95.22C168.781 95.22 168.235 94.895 168.235 94.089C168.235 93.179 169.041 92.594 171.42 92.308V94.284C170.731 94.895 170.172 95.22 169.483 95.22ZM174.858 96H176.041V91.463C176.509 90.254 177.237 89.838 177.822 89.838C178.108 89.838 178.277 89.864 178.511 89.955L178.732 88.915C178.511 88.798 178.29 88.759 177.978 88.759C177.185 88.759 176.47 89.331 175.976 90.228H175.937L175.833 88.941H174.858V96ZM181.168 96.169C182.039 96.169 182.832 95.714 183.508 95.155H183.547L183.651 96H184.626V91.658C184.626 89.916 183.898 88.759 182.182 88.759C181.051 88.759 180.05 89.266 179.4 89.682L179.868 90.501C180.427 90.124 181.168 89.747 181.987 89.747C183.144 89.747 183.443 90.618 183.443 91.528C180.44 91.866 179.101 92.633 179.101 94.167C179.101 95.441 179.985 96.169 181.168 96.169ZM181.506 95.22C180.804 95.22 180.258 94.895 180.258 94.089C180.258 93.179 181.064 92.594 183.443 92.308V94.284C182.754 94.895 182.195 95.22 181.506 95.22ZM182.026 87.667L184.301 85.457L183.469 84.664L181.415 87.082L182.026 87.667ZM186.881 96H188.064V90.878C188.779 90.163 189.273 89.799 190.001 89.799C190.937 89.799 191.34 90.358 191.34 91.684V96H192.523V91.528C192.523 89.721 191.847 88.759 190.365 88.759C189.403 88.759 188.675 89.292 187.999 89.955H187.96L187.856 88.941H186.881V96ZM199.789 96.169C200.764 96.169 201.466 95.662 202.129 94.895H202.168L202.259 96H203.247V88.941H202.064V93.946C201.388 94.791 200.881 95.142 200.153 95.142C199.217 95.142 198.827 94.583 198.827 93.27V88.941H197.644V93.413C197.644 95.207 198.307 96.169 199.789 96.169ZM205.632 96H206.815V90.878C207.53 90.163 208.024 89.799 208.752 89.799C209.688 89.799 210.091 90.358 210.091 91.684V96H211.274V91.528C211.274 89.721 210.598 88.759 209.116 88.759C208.154 88.759 207.426 89.292 206.75 89.955H206.711L206.607 88.941H205.632V96ZM219.268 96.169C220.113 96.169 220.919 95.844 221.556 95.272L221.036 94.479C220.594 94.882 220.022 95.181 219.372 95.181C218.072 95.181 217.188 94.102 217.188 92.477C217.188 90.852 218.124 89.747 219.411 89.747C219.97 89.747 220.399 90.007 220.815 90.371L221.426 89.591C220.919 89.149 220.282 88.759 219.359 88.759C217.552 88.759 215.953 90.124 215.953 92.477C215.953 94.817 217.396 96.169 219.268 96.169ZM224.586 96.169C225.457 96.169 226.25 95.714 226.926 95.155H226.965L227.069 96H228.044V91.658C228.044 89.916 227.316 88.759 225.6 88.759C224.469 88.759 223.468 89.266 222.818 89.682L223.286 90.501C223.845 90.124 224.586 89.747 225.405 89.747C226.562 89.747 226.861 90.618 226.861 91.528C223.858 91.866 222.519 92.633 222.519 94.167C222.519 95.441 223.403 96.169 224.586 96.169ZM224.924 95.22C224.222 95.22 223.676 94.895 223.676 94.089C223.676 93.179 224.482 92.594 226.861 92.308V94.284C226.172 94.895 225.613 95.22 224.924 95.22ZM230.299 96H231.482V90.878C232.132 90.15 232.73 89.799 233.263 89.799C234.16 89.799 234.576 90.358 234.576 91.684V96H235.759V90.878C236.422 90.15 236.994 89.799 237.54 89.799C238.437 89.799 238.853 90.358 238.853 91.684V96H240.036V91.528C240.036 89.721 239.347 88.759 237.891 88.759C237.033 88.759 236.292 89.318 235.564 90.111C235.278 89.279 234.693 88.759 233.614 88.759C232.769 88.759 232.028 89.292 231.417 89.968H231.378L231.274 88.941H230.299V96ZM245.441 96.169C247.066 96.169 248.509 94.778 248.509 92.347C248.509 90.189 247.521 88.759 245.688 88.759C244.908 88.759 244.115 89.201 243.478 89.76L243.517 88.486V85.652H242.334V96H243.283L243.387 95.272H243.439C244.05 95.831 244.791 96.169 245.441 96.169ZM245.246 95.181C244.778 95.181 244.141 94.986 243.517 94.44V90.735C244.193 90.098 244.817 89.76 245.415 89.76C246.754 89.76 247.274 90.813 247.274 92.373C247.274 94.128 246.416 95.181 245.246 95.181ZM250.37 96H251.553V88.941H250.37V96ZM250.968 87.485C251.436 87.485 251.761 87.173 251.761 86.692C251.761 86.237 251.436 85.925 250.968 85.925C250.5 85.925 250.175 86.237 250.175 86.692C250.175 87.173 250.5 87.485 250.968 87.485ZM256.693 96.169C258.422 96.169 259.969 94.817 259.969 92.477C259.969 90.124 258.422 88.759 256.693 88.759C254.964 88.759 253.417 90.124 253.417 92.477C253.417 94.817 254.964 96.169 256.693 96.169ZM256.693 95.181C255.471 95.181 254.652 94.102 254.652 92.477C254.652 90.852 255.471 89.747 256.693 89.747C257.915 89.747 258.747 90.852 258.747 92.477C258.747 94.102 257.915 95.181 256.693 95.181ZM59.7116 117.977H60.8946V115.585L60.8686 114.35C61.5056 114.87 62.1816 115.169 62.8186 115.169C64.4436 115.169 65.8866 113.778 65.8866 111.36C65.8866 109.189 64.8986 107.759 63.0786 107.759C62.2596 107.759 61.4666 108.227 60.8296 108.747H60.7906L60.6866 107.941H59.7116V117.977ZM62.6236 114.181C62.1556 114.181 61.5316 113.986 60.8946 113.44V109.735C61.5836 109.098 62.1946 108.76 62.7926 108.76C64.1316 108.76 64.6516 109.813 64.6516 111.373C64.6516 113.128 63.7936 114.181 62.6236 114.181ZM70.5161 115.169C72.2451 115.169 73.7921 113.817 73.7921 111.477C73.7921 109.124 72.2451 107.759 70.5161 107.759C68.7871 107.759 67.2401 109.124 67.2401 111.477C67.2401 113.817 68.7871 115.169 70.5161 115.169ZM70.5161 114.181C69.2941 114.181 68.4751 113.102 68.4751 111.477C68.4751 109.852 69.2941 108.747 70.5161 108.747C71.7381 108.747 72.5701 109.852 72.5701 111.477C72.5701 113.102 71.7381 114.181 70.5161 114.181ZM77.5029 115.169C79.1669 115.169 80.0769 114.22 80.0769 113.076C80.0769 111.737 78.9459 111.321 77.9189 110.931C77.1259 110.632 76.3979 110.385 76.3979 109.709C76.3979 109.163 76.8139 108.695 77.7109 108.695C78.3349 108.695 78.8289 108.955 79.3099 109.319L79.8819 108.552C79.3359 108.123 78.5689 107.759 77.6979 107.759C76.1639 107.759 75.2539 108.643 75.2539 109.761C75.2539 110.957 76.3329 111.438 77.3209 111.802C78.1009 112.101 78.9329 112.413 78.9329 113.141C78.9329 113.752 78.4779 114.246 77.5419 114.246C76.6969 114.246 76.0599 113.908 75.4489 113.414L74.8639 114.194C75.5399 114.753 76.5019 115.169 77.5029 115.169ZM81.738 115H82.921V107.941H81.738V115ZM82.336 106.485C82.804 106.485 83.129 106.173 83.129 105.692C83.129 105.237 82.804 104.925 82.336 104.925C81.868 104.925 81.543 105.237 81.543 105.692C81.543 106.173 81.868 106.485 82.336 106.485ZM87.5411 115.169C87.9701 115.169 88.4381 115.039 88.8411 114.909L88.6071 114.025C88.3731 114.116 88.0481 114.207 87.8011 114.207C86.9821 114.207 86.7091 113.713 86.7091 112.842V108.903H88.6201V107.941H86.7091V105.952H85.7211L85.5781 107.941L84.4731 108.006V108.903H85.5261V112.816C85.5261 114.22 86.0331 115.169 87.5411 115.169ZM90.2185 115H91.4015V107.941H90.2185V115ZM90.8165 106.485C91.2845 106.485 91.6095 106.173 91.6095 105.692C91.6095 105.237 91.2845 104.925 90.8165 104.925C90.3485 104.925 90.0235 105.237 90.0235 105.692C90.0235 106.173 90.3485 106.485 90.8165 106.485ZM95.3195 115H96.6975L99.2065 107.941H98.0365L96.6975 111.958C96.4895 112.647 96.2685 113.375 96.0475 114.038H95.9955C95.7745 113.375 95.5535 112.647 95.3325 111.958L94.0065 107.941H92.7715L95.3195 115ZM103.27 115.169C104.999 115.169 106.546 113.817 106.546 111.477C106.546 109.124 104.999 107.759 103.27 107.759C101.541 107.759 99.9941 109.124 99.9941 111.477C99.9941 113.817 101.541 115.169 103.27 115.169ZM103.27 114.181C102.048 114.181 101.229 113.102 101.229 111.477C101.229 109.852 102.048 108.747 103.27 108.747C104.492 108.747 105.324 109.852 105.324 111.477C105.324 113.102 104.492 114.181 103.27 114.181ZM114.165 115.169C115.127 115.169 115.881 114.844 116.505 114.441L116.076 113.661C115.556 114.012 114.997 114.22 114.308 114.22C112.969 114.22 112.046 113.258 111.968 111.75H116.726C116.752 111.581 116.778 111.334 116.778 111.074C116.778 109.059 115.764 107.759 113.97 107.759C112.332 107.759 110.785 109.189 110.785 111.477C110.785 113.804 112.293 115.169 114.165 115.169ZM111.955 110.892C112.098 109.514 112.982 108.708 113.983 108.708C115.088 108.708 115.738 109.475 115.738 110.892H111.955ZM118.516 115H119.699V109.878C120.414 109.163 120.908 108.799 121.636 108.799C122.572 108.799 122.975 109.358 122.975 110.684V115H124.158V110.528C124.158 108.721 123.482 107.759 122 107.759C121.038 107.759 120.31 108.292 119.634 108.955H119.595L119.491 107.941H118.516V115ZM131.217 115.169C132.881 115.169 133.791 114.22 133.791 113.076C133.791 111.737 132.66 111.321 131.633 110.931C130.84 110.632 130.112 110.385 130.112 109.709C130.112 109.163 130.528 108.695 131.425 108.695C132.049 108.695 132.543 108.955 133.024 109.319L133.596 108.552C133.05 108.123 132.283 107.759 131.412 107.759C129.878 107.759 128.968 108.643 128.968 109.761C128.968 110.957 130.047 111.438 131.035 111.802C131.815 112.101 132.647 112.413 132.647 113.141C132.647 113.752 132.192 114.246 131.256 114.246C130.411 114.246 129.774 113.908 129.163 113.414L128.578 114.194C129.254 114.753 130.216 115.169 131.217 115.169ZM137.506 115.169C138.481 115.169 139.183 114.662 139.846 113.895H139.885L139.976 115H140.964V107.941H139.781V112.946C139.105 113.791 138.598 114.142 137.87 114.142C136.934 114.142 136.544 113.583 136.544 112.27V107.941H135.361V112.413C135.361 114.207 136.024 115.169 137.506 115.169ZM147.777 115H149.155L151.664 107.941H150.494L149.155 111.958C148.947 112.647 148.726 113.375 148.505 114.038H148.453C148.232 113.375 148.011 112.647 147.79 111.958L146.464 107.941H145.229L147.777 115ZM153.035 115H154.218V107.941H153.035V115ZM153.633 106.485C154.101 106.485 154.426 106.173 154.426 105.692C154.426 105.237 154.101 104.925 153.633 104.925C153.165 104.925 152.84 105.237 152.84 105.692C152.84 106.173 153.165 106.485 153.633 106.485ZM159.02 115.169C159.865 115.169 160.606 114.714 161.165 114.168H161.204L161.308 115H162.27V104.652H161.1V107.369L161.152 108.591C160.528 108.071 159.995 107.759 159.163 107.759C157.551 107.759 156.108 109.189 156.108 111.477C156.108 113.83 157.252 115.169 159.02 115.169ZM159.28 114.181C158.032 114.181 157.33 113.167 157.33 111.464C157.33 109.852 158.227 108.76 159.371 108.76C159.956 108.76 160.489 108.968 161.1 109.501V113.206C160.502 113.856 159.93 114.181 159.28 114.181ZM166.301 115.169C167.172 115.169 167.965 114.714 168.641 114.155H168.68L168.784 115H169.759V110.658C169.759 108.916 169.031 107.759 167.315 107.759C166.184 107.759 165.183 108.266 164.533 108.682L165.001 109.501C165.56 109.124 166.301 108.747 167.12 108.747C168.277 108.747 168.576 109.618 168.576 110.528C165.573 110.866 164.234 111.633 164.234 113.167C164.234 114.441 165.118 115.169 166.301 115.169ZM166.639 114.22C165.937 114.22 165.391 113.895 165.391 113.089C165.391 112.179 166.197 111.594 168.576 111.308V113.284C167.887 113.895 167.328 114.22 166.639 114.22ZM176.17 115.169C176.495 115.169 176.69 115.13 176.859 115.065L176.69 114.155C176.56 114.181 176.508 114.181 176.443 114.181C176.261 114.181 176.105 114.038 176.105 113.674V104.652H174.922V113.596C174.922 114.597 175.286 115.169 176.17 115.169ZM180.254 115.169C181.125 115.169 181.918 114.714 182.594 114.155H182.633L182.737 115H183.712V110.658C183.712 108.916 182.984 107.759 181.268 107.759C180.137 107.759 179.136 108.266 178.486 108.682L178.954 109.501C179.513 109.124 180.254 108.747 181.073 108.747C182.23 108.747 182.529 109.618 182.529 110.528C179.526 110.866 178.187 111.633 178.187 113.167C178.187 114.441 179.071 115.169 180.254 115.169ZM180.592 114.22C179.89 114.22 179.344 113.895 179.344 113.089C179.344 112.179 180.15 111.594 182.529 111.308V113.284C181.84 113.895 181.281 114.22 180.592 114.22ZM189.074 115.169C190.699 115.169 192.142 113.778 192.142 111.347C192.142 109.189 191.154 107.759 189.321 107.759C188.541 107.759 187.748 108.201 187.111 108.76L187.15 107.486V104.652H185.967V115H186.916L187.02 114.272H187.072C187.683 114.831 188.424 115.169 189.074 115.169ZM188.879 114.181C188.411 114.181 187.774 113.986 187.15 113.44V109.735C187.826 109.098 188.45 108.76 189.048 108.76C190.387 108.76 190.907 109.813 190.907 111.373C190.907 113.128 190.049 114.181 188.879 114.181ZM196.746 115.169C198.475 115.169 200.022 113.817 200.022 111.477C200.022 109.124 198.475 107.759 196.746 107.759C195.017 107.759 193.47 109.124 193.47 111.477C193.47 113.817 195.017 115.169 196.746 115.169ZM196.746 114.181C195.524 114.181 194.705 113.102 194.705 111.477C194.705 109.852 195.524 108.747 196.746 108.747C197.968 108.747 198.8 109.852 198.8 111.477C198.8 113.102 197.968 114.181 196.746 114.181ZM201.886 115H203.069V110.463C203.537 109.254 204.265 108.838 204.85 108.838C205.136 108.838 205.305 108.864 205.539 108.955L205.76 107.915C205.539 107.798 205.318 107.759 205.006 107.759C204.213 107.759 203.498 108.331 203.004 109.228H202.965L202.861 107.941H201.886V115ZM208.196 115.169C209.067 115.169 209.86 114.714 210.536 114.155H210.575L210.679 115H211.654V110.658C211.654 108.916 210.926 107.759 209.21 107.759C208.079 107.759 207.078 108.266 206.428 108.682L206.896 109.501C207.455 109.124 208.196 108.747 209.015 108.747C210.172 108.747 210.471 109.618 210.471 110.528C207.468 110.866 206.129 111.633 206.129 113.167C206.129 114.441 207.013 115.169 208.196 115.169ZM208.534 114.22C207.832 114.22 207.286 113.895 207.286 113.089C207.286 112.179 208.092 111.594 210.471 111.308V113.284C209.782 113.895 209.223 114.22 208.534 114.22ZM215.157 115.169C215.482 115.169 215.677 115.13 215.846 115.065L215.677 114.155C215.547 114.181 215.495 114.181 215.43 114.181C215.248 114.181 215.092 114.038 215.092 113.674V104.652H213.909V113.596C213.909 114.597 214.273 115.169 215.157 115.169ZM218.734 112.127H219.787C219.553 110.086 221.893 109.319 221.893 107.408C221.893 105.991 220.931 105.094 219.462 105.094C218.409 105.094 217.577 105.601 216.979 106.29L217.655 106.914C218.11 106.394 218.682 106.082 219.332 106.082C220.255 106.082 220.736 106.706 220.736 107.486C220.736 109.033 218.435 109.865 218.734 112.127ZM219.293 115.169C219.774 115.169 220.164 114.805 220.164 114.272C220.164 113.726 219.774 113.349 219.293 113.349C218.825 113.349 218.435 113.726 218.435 114.272C218.435 114.805 218.825 115.169 219.293 115.169Z" fill="#484545"/>
</svg>
