<svg width="284" height="86" viewBox="0 0 284 86" fill="none" xmlns="http://www.w3.org/2000/svg">
<path d="M51.6812 59.504C55.1372 59.504 57.9812 58.136 60.1772 55.58L57.3692 52.268C55.9292 53.816 54.1652 54.896 51.8612 54.896C47.6492 54.896 44.9132 51.404 44.9132 45.608C44.9132 39.884 47.9372 36.428 51.9692 36.428C53.9852 36.428 55.5332 37.364 56.9012 38.66L59.6732 35.276C57.9452 33.476 55.2452 31.856 51.8612 31.856C45.1292 31.856 39.4772 37.004 39.4772 45.788C39.4772 54.68 44.9492 59.504 51.6812 59.504ZM64.0374 59H69.3294V45.14C70.8054 43.664 71.8494 42.872 73.5054 42.872C75.4854 42.872 76.3494 43.952 76.3494 47.084V59H81.6414V46.436C81.6414 41.36 79.7694 38.336 75.4134 38.336C72.6774 38.336 70.6974 39.776 69.0774 41.288L69.3294 37.508V30.272H64.0374V59ZM87.0647 59H92.3567V38.84H87.0647V59ZM89.7287 35.6C91.5287 35.6 92.7887 34.448 92.7887 32.684C92.7887 30.956 91.5287 29.804 89.7287 29.804C87.8927 29.804 86.6327 30.956 86.6327 32.684C86.6327 34.448 87.8927 35.6 89.7287 35.6ZM102.966 59.504C104.226 59.504 105.09 59.288 105.702 59.036L105.054 55.112C104.694 55.184 104.55 55.184 104.334 55.184C103.83 55.184 103.29 54.788 103.29 53.564V30.272H97.9983V53.348C97.9983 57.092 99.2943 59.504 102.966 59.504ZM118.138 59.504C120.622 59.504 123.178 58.64 125.158 57.272L123.358 54.032C121.918 54.932 120.478 55.436 118.822 55.436C115.834 55.436 113.674 53.708 113.242 50.396H125.662C125.806 49.928 125.914 48.956 125.914 47.948C125.914 42.404 123.034 38.336 117.49 38.336C112.702 38.336 108.094 42.404 108.094 48.92C108.094 55.58 112.486 59.504 118.138 59.504ZM113.17 46.868C113.566 43.952 115.438 42.44 117.562 42.44C120.154 42.44 121.378 44.168 121.378 46.868H113.17ZM142.964 59H149.084L155.816 38.84H150.74L147.788 48.884C147.248 50.864 146.708 52.952 146.168 55.004H145.988C145.448 52.952 144.908 50.864 144.368 48.884L141.416 38.84H136.088L142.964 59ZM163.294 59.504C165.598 59.504 167.614 58.352 169.378 56.84H169.522L169.882 59H174.202V47.228C174.202 41.396 171.574 38.336 166.462 38.336C163.294 38.336 160.414 39.524 158.038 41L159.946 44.492C161.818 43.412 163.618 42.584 165.49 42.584C167.974 42.584 168.838 44.096 168.946 46.076C160.81 46.94 157.318 49.208 157.318 53.528C157.318 56.948 159.694 59.504 163.294 59.504ZM165.022 55.364C163.474 55.364 162.358 54.68 162.358 53.096C162.358 51.296 164.014 49.928 168.946 49.316V53.384C167.65 54.644 166.534 55.364 165.022 55.364ZM184.564 59.504C185.824 59.504 186.688 59.288 187.3 59.036L186.652 55.112C186.292 55.184 186.148 55.184 185.932 55.184C185.428 55.184 184.888 54.788 184.888 53.564V30.272H179.596V53.348C179.596 57.092 180.892 59.504 184.564 59.504ZM199.375 59.504C204.415 59.504 209.059 55.616 209.059 48.92C209.059 42.224 204.415 38.336 199.375 38.336C194.335 38.336 189.691 42.224 189.691 48.92C189.691 55.616 194.335 59.504 199.375 59.504ZM199.375 55.184C196.639 55.184 195.091 52.736 195.091 48.92C195.091 45.14 196.639 42.656 199.375 42.656C202.111 42.656 203.659 45.14 203.659 48.92C203.659 52.736 202.111 55.184 199.375 55.184ZM213.487 59H218.779V46.976C219.895 44.06 221.803 43.016 223.387 43.016C224.215 43.016 224.791 43.124 225.511 43.34L226.411 38.768C225.799 38.516 225.151 38.336 224.035 38.336C221.947 38.336 219.787 39.776 218.311 42.404H218.203L217.807 38.84H213.487V59ZM233.009 59.504C235.313 59.504 237.329 58.352 239.093 56.84H239.237L239.597 59H243.917V47.228C243.917 41.396 241.289 38.336 236.177 38.336C233.009 38.336 230.129 39.524 227.753 41L229.661 44.492C231.533 43.412 233.333 42.584 235.205 42.584C237.689 42.584 238.553 44.096 238.661 46.076C230.525 46.94 227.033 49.208 227.033 53.528C227.033 56.948 229.409 59.504 233.009 59.504ZM234.737 55.364C233.189 55.364 232.073 54.68 232.073 53.096C232.073 51.296 233.729 49.928 238.661 49.316V53.384C237.365 54.644 236.249 55.364 234.737 55.364Z" fill="#262626"/>
<path d="M58.4741 19.154C60.4651 19.154 61.6201 18.043 61.6201 15.337V10.849H60.0581V15.48C60.0581 17.174 59.4421 17.746 58.4741 17.746C57.5281 17.746 56.9341 17.174 56.9341 15.48V10.849H55.3061V15.337C55.3061 18.043 56.4941 19.154 58.4741 19.154ZM65.2238 19H66.9508L67.8198 17.196C68.0178 16.778 68.2158 16.349 68.4138 15.854H68.4578C68.6998 16.349 68.8868 16.778 69.0958 17.196L70.0088 19H71.8128L69.5248 14.875L71.6698 10.849H69.9538L69.1838 12.532C69.0078 12.917 68.8428 13.313 68.6448 13.819H68.5898C68.3478 13.313 68.1828 12.917 67.9848 12.532L67.1708 10.849H65.3668L67.5118 14.798L65.2238 19ZM77.9517 19H83.0667V17.636H79.5797V15.458H82.4397V14.094H79.5797V12.213H82.9457V10.849H77.9517V19ZM87.2114 19H88.7514V15.733C88.7514 14.798 88.6304 13.775 88.5534 12.895H88.6084L89.4334 14.644L91.7874 19H93.4374V10.849H91.8974V14.105C91.8974 15.029 92.0294 16.107 92.1064 16.954H92.0514L91.2374 15.194L88.8724 10.849H87.2114V19ZM100.435 19H102.063V16.107H103.152C104.901 16.107 106.298 15.271 106.298 13.412C106.298 11.487 104.912 10.849 103.108 10.849H100.435V19ZM102.063 14.82V12.147H102.987C104.109 12.147 104.703 12.466 104.703 13.412C104.703 14.347 104.164 14.82 103.042 14.82H102.063ZM110.264 19H115.203V17.636H111.892V10.849H110.264V19ZM120.887 14.754C121.129 13.907 121.371 12.983 121.58 12.092H121.635C121.866 12.972 122.086 13.907 122.339 14.754L122.581 15.645H120.645L120.887 14.754ZM118.071 19H119.721L120.293 16.91H122.933L123.505 19H125.21L122.592 10.849H120.678L118.071 19ZM130.272 19H131.9V12.213H134.21V10.849H127.984V12.213H130.272V19ZM139.793 14.754C140.035 13.907 140.277 12.983 140.486 12.092H140.541C140.772 12.972 140.992 13.907 141.245 14.754L141.487 15.645H139.551L139.793 14.754ZM136.977 19H138.627L139.199 16.91H141.839L142.411 19H144.116L141.498 10.849H139.584L136.977 19ZM147.561 19H149.189V15.7H152.082V14.336H149.189V12.213H152.577V10.849H147.561V19ZM159.722 19.154C161.878 19.154 163.363 17.537 163.363 14.897C163.363 12.257 161.878 10.706 159.722 10.706C157.566 10.706 156.081 12.246 156.081 14.897C156.081 17.537 157.566 19.154 159.722 19.154ZM159.722 17.746C158.512 17.746 157.742 16.635 157.742 14.897C157.742 13.148 158.512 12.103 159.722 12.103C160.932 12.103 161.702 13.148 161.702 14.897C161.702 16.635 160.932 17.746 159.722 17.746ZM167.445 19H169.073V15.92H170.206L171.878 19H173.693L171.79 15.667C172.725 15.304 173.341 14.545 173.341 13.324C173.341 11.454 171.988 10.849 170.283 10.849H167.445V19ZM169.073 14.633V12.147H170.129C171.174 12.147 171.757 12.444 171.757 13.324C171.757 14.193 171.174 14.633 170.129 14.633H169.073ZM177.435 19H178.898V15.601C178.898 14.831 178.766 13.698 178.689 12.928H178.733L179.382 14.842L180.647 18.263H181.582L182.836 14.842L183.496 12.928H183.551C183.463 13.698 183.342 14.831 183.342 15.601V19H184.827V10.849H183.023L181.67 14.666C181.494 15.172 181.351 15.711 181.175 16.228H181.12C180.955 15.711 180.801 15.172 180.625 14.666L179.239 10.849H177.435V19ZM191.087 14.754C191.329 13.907 191.571 12.983 191.78 12.092H191.835C192.066 12.972 192.286 13.907 192.539 14.754L192.781 15.645H190.845L191.087 14.754ZM188.271 19H189.921L190.493 16.91H193.133L193.705 19H195.41L192.792 10.849H190.878L188.271 19ZM202.117 19H204.108L204.999 14.974C205.131 14.336 205.241 13.709 205.351 13.082H205.395C205.494 13.709 205.615 14.336 205.747 14.974L206.66 19H208.684L210.191 10.849H208.651L208.002 14.831C207.881 15.678 207.76 16.547 207.639 17.427H207.584C207.408 16.547 207.243 15.667 207.067 14.831L206.132 10.849H204.735L203.789 14.831C203.613 15.678 203.437 16.547 203.272 17.427H203.228C203.107 16.547 202.975 15.689 202.854 14.831L202.205 10.849H200.555L202.117 19ZM213.905 19H219.02V17.636H215.533V15.458H218.393V14.094H215.533V12.213H218.899V10.849H213.905V19ZM223.165 19H226.069C227.862 19 229.226 18.241 229.226 16.602C229.226 15.502 228.577 14.886 227.697 14.677V14.622C228.39 14.38 228.808 13.61 228.808 12.862C228.808 11.344 227.532 10.849 225.86 10.849H223.165V19ZM224.793 14.171V12.103H225.761C226.74 12.103 227.224 12.389 227.224 13.104C227.224 13.753 226.773 14.171 225.739 14.171H224.793ZM224.793 17.746V15.37H225.926C227.048 15.37 227.642 15.711 227.642 16.503C227.642 17.35 227.037 17.746 225.926 17.746H224.793Z" fill="#8A8A8A"/>
</svg>
