<svg width="822" height="74" viewBox="0 0 822 74" fill="none" xmlns="http://www.w3.org/2000/svg">
<path d="M352.37 18H359.81V16.016H354.738V12.848H358.898V10.864H354.738V8.128H359.634V6.144H352.37V18ZM365.839 18H373.023V16.016H368.207V6.144H365.839V18ZM382.339 18H385.715C389.203 18 391.443 16.016 391.443 12.032C391.443 8.032 389.203 6.144 385.587 6.144H382.339V18ZM384.707 16.096V8.048H385.443C387.651 8.048 389.027 9.136 389.027 12.032C389.027 14.912 387.651 16.096 385.443 16.096H384.707ZM397.386 18H404.826V16.016H399.754V12.848H403.914V10.864H399.754V8.128H404.65V6.144H397.386V18ZM414.39 18.224C417.126 18.224 418.742 16.576 418.742 14.64C418.742 12.928 417.798 12.016 416.358 11.424L414.806 10.768C413.798 10.368 412.966 10.064 412.966 9.216C412.966 8.432 413.622 7.968 414.662 7.968C415.638 7.968 416.422 8.32 417.174 8.944L418.374 7.456C417.414 6.48 416.038 5.936 414.662 5.936C412.262 5.936 410.566 7.424 410.566 9.36C410.566 11.088 411.766 12.048 412.966 12.544L414.55 13.216C415.606 13.664 416.326 13.936 416.326 14.816C416.326 15.648 415.67 16.176 414.438 16.176C413.398 16.176 412.278 15.648 411.43 14.864L410.07 16.496C411.222 17.6 412.806 18.224 414.39 18.224ZM427.04 11.824C427.392 10.592 427.744 9.248 428.048 7.952H428.128C428.464 9.232 428.784 10.592 429.152 11.824L429.504 13.12H426.688L427.04 11.824ZM422.944 18H425.344L426.176 14.96H430.016L430.848 18H433.328L429.52 6.144H426.736L422.944 18ZM438.339 18H440.707V13.2H444.915V11.216H440.707V8.128H445.635V6.144H438.339V18ZM451.323 18H453.691V6.144H451.323V18ZM452.315 5.568L455.483 3.44L454.235 1.904L451.259 4.384L452.315 5.568ZM464.933 18.224C468.069 18.224 470.229 15.872 470.229 12.032C470.229 8.192 468.069 5.936 464.933 5.936C461.797 5.936 459.637 8.176 459.637 12.032C459.637 15.872 461.797 18.224 464.933 18.224ZM464.933 16.176C463.173 16.176 462.053 14.56 462.053 12.032C462.053 9.488 463.173 7.968 464.933 7.968C466.693 7.968 467.813 9.488 467.813 12.032C467.813 14.56 466.693 16.176 464.933 16.176Z" fill="#D29890"/>
<path d="M200.773 53.066C201.907 53.066 202.789 52.52 203.461 51.778L202.719 51.106C202.229 51.666 201.613 52.016 200.913 52.016C199.919 52.016 199.401 51.33 199.401 50.476C199.401 48.824 201.893 47.928 201.557 45.492H200.423C200.675 47.69 198.155 48.516 198.155 50.574C198.155 52.114 199.205 53.066 200.773 53.066ZM200.955 44.162C201.473 44.162 201.879 43.756 201.879 43.182C201.879 42.608 201.473 42.202 200.955 42.202C200.451 42.202 200.031 42.608 200.031 43.182C200.031 43.756 200.451 44.162 200.955 44.162ZM208.638 50.182C209.968 50.182 210.976 49.65 211.788 48.712L211.074 47.9C210.416 48.614 209.674 49.048 208.694 49.048C206.734 49.048 205.502 47.424 205.502 44.834C205.502 42.272 206.79 40.676 208.736 40.676C209.618 40.676 210.304 41.082 210.836 41.656L211.536 40.816C210.948 40.158 209.968 39.542 208.722 39.542C206.118 39.542 204.172 41.558 204.172 44.876C204.172 48.208 206.09 50.182 208.638 50.182ZM216.53 50.182C218.392 50.182 220.058 48.726 220.058 46.206C220.058 43.672 218.392 42.202 216.53 42.202C214.668 42.202 213.002 43.672 213.002 46.206C213.002 48.726 214.668 50.182 216.53 50.182ZM216.53 49.118C215.214 49.118 214.332 47.956 214.332 46.206C214.332 44.456 215.214 43.266 216.53 43.266C217.846 43.266 218.742 44.456 218.742 46.206C218.742 47.956 217.846 49.118 216.53 49.118ZM216.306 41.026L218.756 38.646L217.86 37.792L215.648 40.396L216.306 41.026ZM222.066 50H223.34V44.484C224.04 43.7 224.684 43.322 225.258 43.322C226.224 43.322 226.672 43.924 226.672 45.352V50H227.946V44.484C228.66 43.7 229.276 43.322 229.864 43.322C230.83 43.322 231.278 43.924 231.278 45.352V50H232.552V45.184C232.552 43.238 231.81 42.202 230.242 42.202C229.318 42.202 228.52 42.804 227.736 43.658C227.428 42.762 226.798 42.202 225.636 42.202C224.726 42.202 223.928 42.776 223.27 43.504H223.228L223.116 42.398H222.066V50ZM237.981 50.182C239.843 50.182 241.509 48.726 241.509 46.206C241.509 43.672 239.843 42.202 237.981 42.202C236.119 42.202 234.453 43.672 234.453 46.206C234.453 48.726 236.119 50.182 237.981 50.182ZM237.981 49.118C236.665 49.118 235.783 47.956 235.783 46.206C235.783 44.456 236.665 43.266 237.981 43.266C239.297 43.266 240.193 44.456 240.193 46.206C240.193 47.956 239.297 49.118 237.981 49.118ZM246.648 53.206H247.922V50.63L247.894 49.3C248.58 49.86 249.308 50.182 249.994 50.182C251.744 50.182 253.298 48.684 253.298 46.08C253.298 43.742 252.234 42.202 250.274 42.202C249.392 42.202 248.538 42.706 247.852 43.266H247.81L247.698 42.398H246.648V53.206ZM249.784 49.118C249.28 49.118 248.608 48.908 247.922 48.32V44.33C248.664 43.644 249.322 43.28 249.966 43.28C251.408 43.28 251.968 44.414 251.968 46.094C251.968 47.984 251.044 49.118 249.784 49.118ZM258.284 50.182C260.146 50.182 261.812 48.726 261.812 46.206C261.812 43.672 260.146 42.202 258.284 42.202C256.422 42.202 254.756 43.672 254.756 46.206C254.756 48.726 256.422 50.182 258.284 50.182ZM258.284 49.118C256.968 49.118 256.086 47.956 256.086 46.206C256.086 44.456 256.968 43.266 258.284 43.266C259.6 43.266 260.496 44.456 260.496 46.206C260.496 47.956 259.6 49.118 258.284 49.118ZM266.41 50.182C267.32 50.182 268.118 49.692 268.72 49.104H268.762L268.874 50H269.91V38.856H268.65V41.782L268.706 43.098C268.034 42.538 267.46 42.202 266.564 42.202C264.828 42.202 263.274 43.742 263.274 46.206C263.274 48.74 264.506 50.182 266.41 50.182ZM266.69 49.118C265.346 49.118 264.59 48.026 264.59 46.192C264.59 44.456 265.556 43.28 266.788 43.28C267.418 43.28 267.992 43.504 268.65 44.078V48.068C268.006 48.768 267.39 49.118 266.69 49.118ZM275.568 50.182C276.604 50.182 277.416 49.832 278.088 49.398L277.626 48.558C277.066 48.936 276.464 49.16 275.722 49.16C274.28 49.16 273.286 48.124 273.202 46.5H278.326C278.354 46.318 278.382 46.052 278.382 45.772C278.382 43.602 277.29 42.202 275.358 42.202C273.594 42.202 271.928 43.742 271.928 46.206C271.928 48.712 273.552 50.182 275.568 50.182ZM273.188 45.576C273.342 44.092 274.294 43.224 275.372 43.224C276.562 43.224 277.262 44.05 277.262 45.576H273.188ZM280.254 50H281.528V44.484C282.228 43.7 282.872 43.322 283.446 43.322C284.412 43.322 284.86 43.924 284.86 45.352V50H286.134V44.484C286.848 43.7 287.464 43.322 288.052 43.322C289.018 43.322 289.466 43.924 289.466 45.352V50H290.74V45.184C290.74 43.238 289.998 42.202 288.43 42.202C287.506 42.202 286.708 42.804 285.924 43.658C285.616 42.762 284.986 42.202 283.824 42.202C282.914 42.202 282.116 42.776 281.458 43.504H281.416L281.304 42.398H280.254V50ZM296.169 50.182C298.031 50.182 299.697 48.726 299.697 46.206C299.697 43.672 298.031 42.202 296.169 42.202C294.307 42.202 292.641 43.672 292.641 46.206C292.641 48.726 294.307 50.182 296.169 50.182ZM296.169 49.118C294.853 49.118 293.971 47.956 293.971 46.206C293.971 44.456 294.853 43.266 296.169 43.266C297.485 43.266 298.381 44.456 298.381 46.206C298.381 47.956 297.485 49.118 296.169 49.118ZM303.693 50.182C305.485 50.182 306.465 49.16 306.465 47.928C306.465 46.486 305.247 46.038 304.141 45.618C303.287 45.296 302.503 45.03 302.503 44.302C302.503 43.714 302.951 43.21 303.917 43.21C304.589 43.21 305.121 43.49 305.639 43.882L306.255 43.056C305.667 42.594 304.841 42.202 303.903 42.202C302.251 42.202 301.271 43.154 301.271 44.358C301.271 45.646 302.433 46.164 303.497 46.556C304.337 46.878 305.233 47.214 305.233 47.998C305.233 48.656 304.743 49.188 303.735 49.188C302.825 49.188 302.139 48.824 301.481 48.292L300.851 49.132C301.579 49.734 302.615 50.182 303.693 50.182ZM311.385 50H312.659V45.114C313.163 43.812 313.947 43.364 314.577 43.364C314.885 43.364 315.067 43.392 315.319 43.49L315.557 42.37C315.319 42.244 315.081 42.202 314.745 42.202C313.891 42.202 313.121 42.818 312.589 43.784H312.547L312.435 42.398H311.385V50ZM319.728 50.182C320.764 50.182 321.576 49.832 322.248 49.398L321.786 48.558C321.226 48.936 320.624 49.16 319.882 49.16C318.44 49.16 317.446 48.124 317.362 46.5H322.486C322.514 46.318 322.542 46.052 322.542 45.772C322.542 43.602 321.45 42.202 319.518 42.202C317.754 42.202 316.088 43.742 316.088 46.206C316.088 48.712 317.712 50.182 319.728 50.182ZM317.348 45.576C317.502 44.092 318.454 43.224 319.532 43.224C320.722 43.224 321.422 44.05 321.422 45.576H317.348ZM327.004 50.182C327.914 50.182 328.712 49.692 329.314 49.104H329.356L329.468 50H330.504V38.856H329.244V41.782L329.3 43.098C328.628 42.538 328.054 42.202 327.158 42.202C325.422 42.202 323.868 43.742 323.868 46.206C323.868 48.74 325.1 50.182 327.004 50.182ZM327.284 49.118C325.94 49.118 325.184 48.026 325.184 46.192C325.184 44.456 326.15 43.28 327.382 43.28C328.012 43.28 328.586 43.504 329.244 44.078V48.068C328.6 48.768 327.984 49.118 327.284 49.118ZM333.096 50H334.37V42.398H333.096V50ZM333.74 40.83C334.244 40.83 334.594 40.494 334.594 39.976C334.594 39.486 334.244 39.15 333.74 39.15C333.236 39.15 332.886 39.486 332.886 39.976C332.886 40.494 333.236 40.83 333.74 40.83ZM338.939 50.182C340.731 50.182 341.711 49.16 341.711 47.928C341.711 46.486 340.493 46.038 339.387 45.618C338.533 45.296 337.749 45.03 337.749 44.302C337.749 43.714 338.197 43.21 339.163 43.21C339.835 43.21 340.367 43.49 340.885 43.882L341.501 43.056C340.913 42.594 340.087 42.202 339.149 42.202C337.497 42.202 336.517 43.154 336.517 44.358C336.517 45.646 337.679 46.164 338.743 46.556C339.583 46.878 340.479 47.214 340.479 47.998C340.479 48.656 339.989 49.188 338.981 49.188C338.071 49.188 337.385 48.824 336.727 48.292L336.097 49.132C336.825 49.734 337.861 50.182 338.939 50.182ZM346.566 50.182C347.602 50.182 348.414 49.832 349.086 49.398L348.624 48.558C348.064 48.936 347.462 49.16 346.72 49.16C345.278 49.16 344.284 48.124 344.2 46.5H349.324C349.352 46.318 349.38 46.052 349.38 45.772C349.38 43.602 348.288 42.202 346.356 42.202C344.592 42.202 342.926 43.742 342.926 46.206C342.926 48.712 344.55 50.182 346.566 50.182ZM344.186 45.576C344.34 44.092 345.292 43.224 346.37 43.224C347.56 43.224 348.26 44.05 348.26 45.576H344.186ZM351.252 50H352.526V44.484C353.296 43.714 353.828 43.322 354.612 43.322C355.62 43.322 356.054 43.924 356.054 45.352V50H357.328V45.184C357.328 43.238 356.6 42.202 355.004 42.202C353.968 42.202 353.184 42.776 352.456 43.49H352.414L352.302 42.398H351.252V50ZM355.704 40.97C356.782 40.97 357.23 40.046 357.272 38.856L356.418 38.814C356.376 39.528 356.166 40.032 355.704 40.032C354.962 40.032 354.542 38.716 353.45 38.716C352.358 38.716 351.91 39.626 351.868 40.844L352.736 40.9C352.764 40.144 352.988 39.654 353.45 39.654C354.178 39.654 354.598 40.97 355.704 40.97ZM361.56 50.182C362.498 50.182 363.352 49.692 364.08 49.09H364.122L364.234 50H365.284V45.324C365.284 43.448 364.5 42.202 362.652 42.202C361.434 42.202 360.356 42.748 359.656 43.196L360.16 44.078C360.762 43.672 361.56 43.266 362.442 43.266C363.688 43.266 364.01 44.204 364.01 45.184C360.776 45.548 359.334 46.374 359.334 48.026C359.334 49.398 360.286 50.182 361.56 50.182ZM361.924 49.16C361.168 49.16 360.58 48.81 360.58 47.942C360.58 46.962 361.448 46.332 364.01 46.024V48.152C363.268 48.81 362.666 49.16 361.924 49.16ZM367.713 50H368.987V45.114C369.491 43.812 370.275 43.364 370.905 43.364C371.213 43.364 371.395 43.392 371.647 43.49L371.885 42.37C371.647 42.244 371.409 42.202 371.073 42.202C370.219 42.202 369.449 42.818 368.917 43.784H368.875L368.763 42.398H367.713V50ZM378.483 50.182C379.533 50.182 380.289 49.636 381.003 48.81H381.045L381.143 50H382.207V42.398H380.933V47.788C380.205 48.698 379.659 49.076 378.875 49.076C377.867 49.076 377.447 48.474 377.447 47.06V42.398H376.173V47.214C376.173 49.146 376.887 50.182 378.483 50.182ZM384.775 50H386.049V44.484C386.819 43.714 387.351 43.322 388.135 43.322C389.143 43.322 389.577 43.924 389.577 45.352V50H390.851V45.184C390.851 43.238 390.123 42.202 388.527 42.202C387.491 42.202 386.707 42.776 385.979 43.49H385.937L385.825 42.398H384.775V50ZM395.084 50.182C396.022 50.182 396.876 49.692 397.604 49.09H397.646L397.758 50H398.808V45.324C398.808 43.448 398.024 42.202 396.176 42.202C394.958 42.202 393.88 42.748 393.18 43.196L393.684 44.078C394.286 43.672 395.084 43.266 395.966 43.266C397.212 43.266 397.534 44.204 397.534 45.184C394.3 45.548 392.858 46.374 392.858 48.026C392.858 49.398 393.81 50.182 395.084 50.182ZM395.448 49.16C394.692 49.16 394.104 48.81 394.104 47.942C394.104 46.962 394.972 46.332 397.534 46.024V48.152C396.792 48.81 396.19 49.16 395.448 49.16ZM406.117 50.182C407.055 50.182 407.909 49.692 408.637 49.09H408.679L408.791 50H409.841V45.324C409.841 43.448 409.057 42.202 407.209 42.202C405.991 42.202 404.913 42.748 404.213 43.196L404.717 44.078C405.319 43.672 406.117 43.266 406.999 43.266C408.245 43.266 408.567 44.204 408.567 45.184C405.333 45.548 403.891 46.374 403.891 48.026C403.891 49.398 404.843 50.182 406.117 50.182ZM406.481 49.16C405.725 49.16 405.137 48.81 405.137 47.942C405.137 46.962 406.005 46.332 408.567 46.024V48.152C407.825 48.81 407.223 49.16 406.481 49.16ZM412.269 53.206H413.543V50.63L413.515 49.3C414.201 49.86 414.929 50.182 415.615 50.182C417.365 50.182 418.919 48.684 418.919 46.08C418.919 43.742 417.855 42.202 415.895 42.202C415.013 42.202 414.159 42.706 413.473 43.266H413.431L413.319 42.398H412.269V53.206ZM415.405 49.118C414.901 49.118 414.229 48.908 413.543 48.32V44.33C414.285 43.644 414.943 43.28 415.587 43.28C417.029 43.28 417.589 44.414 417.589 46.094C417.589 47.984 416.665 49.118 415.405 49.118ZM422.295 50.182C422.645 50.182 422.855 50.14 423.037 50.07L422.855 49.09C422.715 49.118 422.659 49.118 422.589 49.118C422.393 49.118 422.225 48.964 422.225 48.572V38.856H420.951V48.488C420.951 49.566 421.343 50.182 422.295 50.182ZM424.943 50H426.217V42.398H424.943V50ZM425.587 40.83C426.091 40.83 426.441 40.494 426.441 39.976C426.441 39.486 426.091 39.15 425.587 39.15C425.083 39.15 424.733 39.486 424.733 39.976C424.733 40.494 425.083 40.83 425.587 40.83ZM431.795 50.182C432.705 50.182 433.573 49.832 434.259 49.216L433.699 48.362C433.223 48.796 432.607 49.118 431.907 49.118C430.507 49.118 429.555 47.956 429.555 46.206C429.555 44.456 430.563 43.266 431.949 43.266C432.551 43.266 433.013 43.546 433.461 43.938L434.119 43.098C433.573 42.622 432.887 42.202 431.893 42.202C429.947 42.202 428.225 43.672 428.225 46.206C428.225 48.726 429.779 50.182 431.795 50.182ZM437.521 50.182C438.459 50.182 439.313 49.692 440.041 49.09H440.083L440.195 50H441.245V45.324C441.245 43.448 440.461 42.202 438.613 42.202C437.395 42.202 436.317 42.748 435.617 43.196L436.121 44.078C436.723 43.672 437.521 43.266 438.403 43.266C439.649 43.266 439.971 44.204 439.971 45.184C436.737 45.548 435.295 46.374 435.295 48.026C435.295 49.398 436.247 50.182 437.521 50.182ZM437.885 49.16C437.129 49.16 436.541 48.81 436.541 47.942C436.541 46.962 437.409 46.332 439.971 46.024V48.152C439.229 48.81 438.627 49.16 437.885 49.16ZM446.67 50.182C447.58 50.182 448.448 49.832 449.134 49.216L448.574 48.362C448.098 48.796 447.482 49.118 446.782 49.118C445.382 49.118 444.43 47.956 444.43 46.206C444.43 44.456 445.438 43.266 446.824 43.266C447.426 43.266 447.888 43.546 448.336 43.938L448.994 43.098C448.448 42.622 447.762 42.202 446.768 42.202C444.822 42.202 443.1 43.672 443.1 46.206C443.1 48.726 444.654 50.182 446.67 50.182ZM450.797 50H452.071V42.398H450.797V50ZM451.441 40.83C451.945 40.83 452.295 40.494 452.295 39.976C452.295 39.486 451.945 39.15 451.441 39.15C450.937 39.15 450.587 39.486 450.587 39.976C450.587 40.494 450.937 40.83 451.441 40.83ZM457.606 50.182C459.468 50.182 461.134 48.726 461.134 46.206C461.134 43.672 459.468 42.202 457.606 42.202C455.744 42.202 454.078 43.672 454.078 46.206C454.078 48.726 455.744 50.182 457.606 50.182ZM457.606 49.118C456.29 49.118 455.408 47.956 455.408 46.206C455.408 44.456 456.29 43.266 457.606 43.266C458.922 43.266 459.818 44.456 459.818 46.206C459.818 47.956 458.922 49.118 457.606 49.118ZM457.382 41.026L459.832 38.646L458.936 37.792L456.724 40.396L457.382 41.026ZM463.142 50H464.416V44.484C465.186 43.714 465.718 43.322 466.502 43.322C467.51 43.322 467.944 43.924 467.944 45.352V50H469.218V45.184C469.218 43.238 468.49 42.202 466.894 42.202C465.858 42.202 465.074 42.776 464.346 43.49H464.304L464.192 42.398H463.142V50ZM477.898 50.182C478.934 50.182 479.746 49.832 480.418 49.398L479.956 48.558C479.396 48.936 478.794 49.16 478.052 49.16C476.61 49.16 475.616 48.124 475.532 46.5H480.656C480.684 46.318 480.712 46.052 480.712 45.772C480.712 43.602 479.62 42.202 477.688 42.202C475.924 42.202 474.258 43.742 474.258 46.206C474.258 48.712 475.882 50.182 477.898 50.182ZM475.518 45.576C475.672 44.092 476.624 43.224 477.702 43.224C478.892 43.224 479.592 44.05 479.592 45.576H475.518ZM482.584 50H483.858V44.484C484.628 43.714 485.16 43.322 485.944 43.322C486.952 43.322 487.386 43.924 487.386 45.352V50H488.66V45.184C488.66 43.238 487.932 42.202 486.336 42.202C485.3 42.202 484.516 42.776 483.788 43.49H483.746L483.634 42.398H482.584V50ZM496.485 50.182C497.535 50.182 498.291 49.636 499.005 48.81H499.047L499.145 50H500.209V42.398H498.935V47.788C498.207 48.698 497.661 49.076 496.877 49.076C495.869 49.076 495.449 48.474 495.449 47.06V42.398H494.175V47.214C494.175 49.146 494.889 50.182 496.485 50.182ZM502.777 50H504.051V44.484C504.821 43.714 505.353 43.322 506.137 43.322C507.145 43.322 507.579 43.924 507.579 45.352V50H508.853V45.184C508.853 43.238 508.125 42.202 506.529 42.202C505.493 42.202 504.709 42.776 503.981 43.49H503.939L503.827 42.398H502.777V50ZM513.086 50.182C514.024 50.182 514.878 49.692 515.606 49.09H515.648L515.76 50H516.81V45.324C516.81 43.448 516.026 42.202 514.178 42.202C512.96 42.202 511.882 42.748 511.182 43.196L511.686 44.078C512.288 43.672 513.086 43.266 513.968 43.266C515.214 43.266 515.536 44.204 515.536 45.184C512.302 45.548 510.86 46.374 510.86 48.026C510.86 49.398 511.812 50.182 513.086 50.182ZM513.45 49.16C512.694 49.16 512.106 48.81 512.106 47.942C512.106 46.962 512.974 46.332 515.536 46.024V48.152C514.794 48.81 514.192 49.16 513.45 49.16ZM524.357 50.182C526.149 50.182 527.129 49.16 527.129 47.928C527.129 46.486 525.911 46.038 524.805 45.618C523.951 45.296 523.167 45.03 523.167 44.302C523.167 43.714 523.615 43.21 524.581 43.21C525.253 43.21 525.785 43.49 526.303 43.882L526.919 43.056C526.331 42.594 525.505 42.202 524.567 42.202C522.915 42.202 521.935 43.154 521.935 44.358C521.935 45.646 523.097 46.164 524.161 46.556C525.001 46.878 525.897 47.214 525.897 47.998C525.897 48.656 525.407 49.188 524.399 49.188C523.489 49.188 522.803 48.824 522.145 48.292L521.515 49.132C522.243 49.734 523.279 50.182 524.357 50.182ZM531.984 50.182C533.02 50.182 533.832 49.832 534.504 49.398L534.042 48.558C533.482 48.936 532.88 49.16 532.138 49.16C530.696 49.16 529.702 48.124 529.618 46.5H534.742C534.77 46.318 534.798 46.052 534.798 45.772C534.798 43.602 533.706 42.202 531.774 42.202C530.01 42.202 528.344 43.742 528.344 46.206C528.344 48.712 529.968 50.182 531.984 50.182ZM529.604 45.576C529.758 44.092 530.71 43.224 531.788 43.224C532.978 43.224 533.678 44.05 533.678 45.576H529.604ZM536.67 50H537.944V44.484C538.644 43.7 539.288 43.322 539.862 43.322C540.828 43.322 541.276 43.924 541.276 45.352V50H542.55V44.484C543.264 43.7 543.88 43.322 544.468 43.322C545.434 43.322 545.882 43.924 545.882 45.352V50H547.156V45.184C547.156 43.238 546.414 42.202 544.846 42.202C543.922 42.202 543.124 42.804 542.34 43.658C542.032 42.762 541.402 42.202 540.24 42.202C539.33 42.202 538.532 42.776 537.874 43.504H537.832L537.72 42.398H536.67V50ZM551.381 50.182C552.319 50.182 553.173 49.692 553.901 49.09H553.943L554.055 50H555.105V45.324C555.105 43.448 554.321 42.202 552.473 42.202C551.255 42.202 550.177 42.748 549.477 43.196L549.981 44.078C550.583 43.672 551.381 43.266 552.263 43.266C553.509 43.266 553.831 44.204 553.831 45.184C550.597 45.548 549.155 46.374 549.155 48.026C549.155 49.398 550.107 50.182 551.381 50.182ZM551.745 49.16C550.989 49.16 550.401 48.81 550.401 47.942C550.401 46.962 551.269 46.332 553.831 46.024V48.152C553.089 48.81 552.487 49.16 551.745 49.16ZM557.533 50H558.807V44.484C559.577 43.714 560.109 43.322 560.893 43.322C561.901 43.322 562.335 43.924 562.335 45.352V50H563.609V45.184C563.609 43.238 562.881 42.202 561.285 42.202C560.249 42.202 559.465 42.776 558.737 43.49H558.695L558.583 42.398H557.533V50ZM567.842 50.182C568.78 50.182 569.634 49.692 570.362 49.09H570.404L570.516 50H571.566V45.324C571.566 43.448 570.782 42.202 568.934 42.202C567.716 42.202 566.638 42.748 565.938 43.196L566.442 44.078C567.044 43.672 567.842 43.266 568.724 43.266C569.97 43.266 570.292 44.204 570.292 45.184C567.058 45.548 565.616 46.374 565.616 48.026C565.616 49.398 566.568 50.182 567.842 50.182ZM568.206 49.16C567.45 49.16 566.862 48.81 566.862 47.942C566.862 46.962 567.73 46.332 570.292 46.024V48.152C569.55 48.81 568.948 49.16 568.206 49.16ZM577.251 53.276C578.763 53.276 579.561 52.128 580.079 50.63L582.949 42.398H581.703L580.345 46.626C580.135 47.298 579.911 48.068 579.701 48.754H579.631C579.393 48.068 579.127 47.284 578.903 46.626L577.349 42.398H576.019L579.071 50.014L578.903 50.588C578.595 51.526 578.049 52.226 577.181 52.226C576.985 52.226 576.761 52.156 576.607 52.1L576.355 53.122C576.593 53.22 576.887 53.276 577.251 53.276ZM592.387 53.206H593.647V42.398H592.639L592.513 43.126H592.471C591.813 42.524 591.183 42.202 590.301 42.202C588.565 42.202 587.011 43.742 587.011 46.206C587.011 48.74 588.243 50.182 590.147 50.182C591.029 50.182 591.827 49.72 592.443 49.118L592.387 50.504V53.206ZM590.427 49.118C589.083 49.118 588.327 48.026 588.327 46.192C588.327 44.456 589.293 43.28 590.525 43.28C591.155 43.28 591.729 43.504 592.387 44.078V48.068C591.743 48.768 591.127 49.118 590.427 49.118ZM598.45 50.182C599.5 50.182 600.256 49.636 600.97 48.81H601.012L601.11 50H602.174V42.398H600.9V47.788C600.172 48.698 599.626 49.076 598.842 49.076C597.834 49.076 597.414 48.474 597.414 47.06V42.398H596.14V47.214C596.14 49.146 596.854 50.182 598.45 50.182ZM607.808 50.182C608.844 50.182 609.656 49.832 610.328 49.398L609.866 48.558C609.306 48.936 608.704 49.16 607.962 49.16C606.52 49.16 605.526 48.124 605.442 46.5H610.566C610.594 46.318 610.622 46.052 610.622 45.772C610.622 43.602 609.53 42.202 607.598 42.202C605.834 42.202 604.168 43.742 604.168 46.206C604.168 48.712 605.792 50.182 607.808 50.182ZM605.428 45.576C605.582 44.092 606.534 43.224 607.612 43.224C608.802 43.224 609.502 44.05 609.502 45.576H605.428ZM269.248 70.182C270.186 70.182 271.04 69.692 271.768 69.09H271.81L271.922 70H272.972V65.324C272.972 63.448 272.188 62.202 270.34 62.202C269.122 62.202 268.044 62.748 267.344 63.196L267.848 64.078C268.45 63.672 269.248 63.266 270.13 63.266C271.376 63.266 271.698 64.204 271.698 65.184C268.464 65.548 267.022 66.374 267.022 68.026C267.022 69.398 267.974 70.182 269.248 70.182ZM269.612 69.16C268.856 69.16 268.268 68.81 268.268 67.942C268.268 66.962 269.136 66.332 271.698 66.024V68.152C270.956 68.81 270.354 69.16 269.612 69.16ZM275.526 73.276C277.038 73.276 277.836 72.128 278.354 70.63L281.224 62.398H279.978L278.62 66.626C278.41 67.298 278.186 68.068 277.976 68.754H277.906C277.668 68.068 277.402 67.284 277.178 66.626L275.624 62.398H274.294L277.346 70.014L277.178 70.588C276.87 71.526 276.324 72.226 275.456 72.226C275.26 72.226 275.036 72.156 274.882 72.1L274.63 73.122C274.868 73.22 275.162 73.276 275.526 73.276ZM284.913 70.182C285.963 70.182 286.719 69.636 287.433 68.81H287.475L287.573 70H288.637V62.398H287.363V67.788C286.635 68.698 286.089 69.076 285.305 69.076C284.297 69.076 283.877 68.474 283.877 67.06V62.398H282.603V67.214C282.603 69.146 283.317 70.182 284.913 70.182ZM293.795 70.182C294.705 70.182 295.503 69.692 296.105 69.104H296.147L296.259 70H297.295V58.856H296.035V61.782L296.091 63.098C295.419 62.538 294.845 62.202 293.949 62.202C292.213 62.202 290.659 63.742 290.659 66.206C290.659 68.74 291.891 70.182 293.795 70.182ZM294.075 69.118C292.731 69.118 291.975 68.026 291.975 66.192C291.975 64.456 292.941 63.28 294.173 63.28C294.803 63.28 295.377 63.504 296.035 64.078V68.068C295.391 68.768 294.775 69.118 294.075 69.118ZM302.953 70.182C303.989 70.182 304.801 69.832 305.473 69.398L305.011 68.558C304.451 68.936 303.849 69.16 303.107 69.16C301.665 69.16 300.671 68.124 300.587 66.5H305.711C305.739 66.318 305.767 66.052 305.767 65.772C305.767 63.602 304.675 62.202 302.743 62.202C300.979 62.202 299.313 63.742 299.313 66.206C299.313 68.712 300.937 70.182 302.953 70.182ZM300.573 65.576C300.727 64.092 301.679 63.224 302.757 63.224C303.947 63.224 304.647 64.05 304.647 65.576H300.573ZM312.519 70.182C313.457 70.182 314.311 69.692 315.039 69.09H315.081L315.193 70H316.243V65.324C316.243 63.448 315.459 62.202 313.611 62.202C312.393 62.202 311.315 62.748 310.615 63.196L311.119 64.078C311.721 63.672 312.519 63.266 313.401 63.266C314.647 63.266 314.969 64.204 314.969 65.184C311.735 65.548 310.293 66.374 310.293 68.026C310.293 69.398 311.245 70.182 312.519 70.182ZM312.883 69.16C312.127 69.16 311.539 68.81 311.539 67.942C311.539 66.962 312.407 66.332 314.969 66.024V68.152C314.227 68.81 313.625 69.16 312.883 69.16ZM320.016 70.182C320.366 70.182 320.576 70.14 320.758 70.07L320.576 69.09C320.436 69.118 320.38 69.118 320.31 69.118C320.114 69.118 319.946 68.964 319.946 68.572V58.856H318.672V68.488C318.672 69.566 319.064 70.182 320.016 70.182ZM325.795 73.206H327.069V70.63L327.041 69.3C327.727 69.86 328.455 70.182 329.141 70.182C330.891 70.182 332.445 68.684 332.445 66.08C332.445 63.742 331.381 62.202 329.421 62.202C328.539 62.202 327.685 62.706 326.999 63.266H326.957L326.845 62.398H325.795V73.206ZM328.931 69.118C328.427 69.118 327.755 68.908 327.069 68.32V64.33C327.811 63.644 328.469 63.28 329.113 63.28C330.555 63.28 331.115 64.414 331.115 66.094C331.115 67.984 330.191 69.118 328.931 69.118ZM334.476 70H335.75V65.114C336.254 63.812 337.038 63.364 337.668 63.364C337.976 63.364 338.158 63.392 338.41 63.49L338.648 62.37C338.41 62.244 338.172 62.202 337.836 62.202C336.982 62.202 336.212 62.818 335.68 63.784H335.638L335.526 62.398H334.476V70ZM342.708 70.182C344.57 70.182 346.236 68.726 346.236 66.206C346.236 63.672 344.57 62.202 342.708 62.202C340.846 62.202 339.18 63.672 339.18 66.206C339.18 68.726 340.846 70.182 342.708 70.182ZM342.708 69.118C341.392 69.118 340.51 67.956 340.51 66.206C340.51 64.456 341.392 63.266 342.708 63.266C344.024 63.266 344.92 64.456 344.92 66.206C344.92 67.956 344.024 69.118 342.708 69.118ZM348.454 70H349.728V63.434H351.338V62.398H349.728V61.194C349.728 60.214 350.078 59.696 350.806 59.696C351.072 59.696 351.38 59.766 351.66 59.892L351.94 58.926C351.59 58.772 351.128 58.674 350.666 58.674C349.154 58.674 348.454 59.64 348.454 61.18V62.398L347.418 62.468V63.434H348.454V70ZM355.712 70.182C356.748 70.182 357.56 69.832 358.232 69.398L357.77 68.558C357.21 68.936 356.608 69.16 355.866 69.16C354.424 69.16 353.43 68.124 353.346 66.5H358.47C358.498 66.318 358.526 66.052 358.526 65.772C358.526 63.602 357.434 62.202 355.502 62.202C353.738 62.202 352.072 63.742 352.072 66.206C352.072 68.712 353.696 70.182 355.712 70.182ZM353.332 65.576C353.486 64.092 354.438 63.224 355.516 63.224C356.706 63.224 357.406 64.05 357.406 65.576H353.332ZM362.386 70.182C364.178 70.182 365.158 69.16 365.158 67.928C365.158 66.486 363.94 66.038 362.834 65.618C361.98 65.296 361.196 65.03 361.196 64.302C361.196 63.714 361.644 63.21 362.61 63.21C363.282 63.21 363.814 63.49 364.332 63.882L364.948 63.056C364.36 62.594 363.534 62.202 362.596 62.202C360.944 62.202 359.964 63.154 359.964 64.358C359.964 65.646 361.126 66.164 362.19 66.556C363.03 66.878 363.926 67.214 363.926 67.998C363.926 68.656 363.436 69.188 362.428 69.188C361.518 69.188 360.832 68.824 360.174 68.292L359.544 69.132C360.272 69.734 361.308 70.182 362.386 70.182ZM366.947 70H368.221V62.398H366.947V70ZM367.591 60.83C368.095 60.83 368.445 60.494 368.445 59.976C368.445 59.486 368.095 59.15 367.591 59.15C367.087 59.15 366.737 59.486 366.737 59.976C366.737 60.494 367.087 60.83 367.591 60.83ZM373.757 70.182C375.619 70.182 377.285 68.726 377.285 66.206C377.285 63.672 375.619 62.202 373.757 62.202C371.895 62.202 370.229 63.672 370.229 66.206C370.229 68.726 371.895 70.182 373.757 70.182ZM373.757 69.118C372.441 69.118 371.559 67.956 371.559 66.206C371.559 64.456 372.441 63.266 373.757 63.266C375.073 63.266 375.969 64.456 375.969 66.206C375.969 67.956 375.073 69.118 373.757 69.118ZM379.293 70H380.567V64.484C381.337 63.714 381.869 63.322 382.653 63.322C383.661 63.322 384.095 63.924 384.095 65.352V70H385.369V65.184C385.369 63.238 384.641 62.202 383.045 62.202C382.009 62.202 381.225 62.776 380.497 63.49H380.455L380.343 62.398H379.293V70ZM389.601 70.182C390.539 70.182 391.393 69.692 392.121 69.09H392.163L392.275 70H393.325V65.324C393.325 63.448 392.541 62.202 390.693 62.202C389.475 62.202 388.397 62.748 387.697 63.196L388.201 64.078C388.803 63.672 389.601 63.266 390.483 63.266C391.729 63.266 392.051 64.204 392.051 65.184C388.817 65.548 387.375 66.374 387.375 68.026C387.375 69.398 388.327 70.182 389.601 70.182ZM389.965 69.16C389.209 69.16 388.621 68.81 388.621 67.942C388.621 66.962 389.489 66.332 392.051 66.024V68.152C391.309 68.81 390.707 69.16 389.965 69.16ZM397.098 70.182C397.448 70.182 397.658 70.14 397.84 70.07L397.658 69.09C397.518 69.118 397.462 69.118 397.392 69.118C397.196 69.118 397.028 68.964 397.028 68.572V58.856H395.754V68.488C395.754 69.566 396.146 70.182 397.098 70.182ZM404.627 70.182C405.565 70.182 406.419 69.692 407.147 69.09H407.189L407.301 70H408.351V65.324C408.351 63.448 407.567 62.202 405.719 62.202C404.501 62.202 403.423 62.748 402.723 63.196L403.227 64.078C403.829 63.672 404.627 63.266 405.509 63.266C406.755 63.266 407.077 64.204 407.077 65.184C403.843 65.548 402.401 66.374 402.401 68.026C402.401 69.398 403.353 70.182 404.627 70.182ZM404.991 69.16C404.235 69.16 403.647 68.81 403.647 67.942C403.647 66.962 404.515 66.332 407.077 66.024V68.152C406.335 68.81 405.733 69.16 404.991 69.16ZM413.91 70H415.184V65.114C415.688 63.812 416.472 63.364 417.102 63.364C417.41 63.364 417.592 63.392 417.844 63.49L418.082 62.37C417.844 62.244 417.606 62.202 417.27 62.202C416.416 62.202 415.646 62.818 415.114 63.784H415.072L414.96 62.398H413.91V70ZM422.253 70.182C423.289 70.182 424.101 69.832 424.773 69.398L424.311 68.558C423.751 68.936 423.149 69.16 422.407 69.16C420.965 69.16 419.971 68.124 419.887 66.5H425.011C425.039 66.318 425.067 66.052 425.067 65.772C425.067 63.602 423.975 62.202 422.043 62.202C420.279 62.202 418.613 63.742 418.613 66.206C418.613 68.712 420.237 70.182 422.253 70.182ZM419.873 65.576C420.027 64.092 420.979 63.224 422.057 63.224C423.247 63.224 423.947 64.05 423.947 65.576H419.873ZM429.351 73.5C431.703 73.5 433.201 72.282 433.201 70.868C433.201 69.622 432.305 69.062 430.541 69.062H429.057C428.035 69.062 427.727 68.726 427.727 68.236C427.727 67.816 427.937 67.564 428.217 67.326C428.553 67.494 428.973 67.592 429.351 67.592C430.891 67.592 432.123 66.57 432.123 64.946C432.123 64.288 431.871 63.728 431.507 63.378H433.061V62.398H430.415C430.149 62.3 429.771 62.202 429.351 62.202C427.811 62.202 426.495 63.252 426.495 64.918C426.495 65.828 426.985 66.556 427.489 66.962V67.018C427.097 67.298 426.635 67.802 426.635 68.432C426.635 69.034 426.929 69.44 427.335 69.678V69.734C426.621 70.196 426.215 70.812 426.215 71.456C426.215 72.772 427.489 73.5 429.351 73.5ZM429.351 66.724C428.469 66.724 427.727 66.024 427.727 64.918C427.727 63.798 428.455 63.14 429.351 63.14C430.247 63.14 430.975 63.812 430.975 64.918C430.975 66.024 430.219 66.724 429.351 66.724ZM429.533 72.632C428.161 72.632 427.335 72.1 427.335 71.288C427.335 70.84 427.559 70.392 428.105 70C428.441 70.084 428.805 70.126 429.085 70.126H430.401C431.409 70.126 431.955 70.364 431.955 71.064C431.955 71.862 430.989 72.632 429.533 72.632ZM434.678 70H435.952V62.398H434.678V70ZM435.322 60.83C435.826 60.83 436.176 60.494 436.176 59.976C436.176 59.486 435.826 59.15 435.322 59.15C434.818 59.15 434.468 59.486 434.468 59.976C434.468 60.494 434.818 60.83 435.322 60.83ZM440.521 70.182C442.313 70.182 443.293 69.16 443.293 67.928C443.293 66.486 442.075 66.038 440.969 65.618C440.115 65.296 439.331 65.03 439.331 64.302C439.331 63.714 439.779 63.21 440.745 63.21C441.417 63.21 441.949 63.49 442.467 63.882L443.083 63.056C442.495 62.594 441.669 62.202 440.731 62.202C439.079 62.202 438.099 63.154 438.099 64.358C438.099 65.646 439.261 66.164 440.325 66.556C441.165 66.878 442.061 67.214 442.061 67.998C442.061 68.656 441.571 69.188 440.563 69.188C439.653 69.188 438.967 68.824 438.309 68.292L437.679 69.132C438.407 69.734 439.443 70.182 440.521 70.182ZM447.161 70.182C447.623 70.182 448.127 70.042 448.561 69.902L448.309 68.95C448.057 69.048 447.707 69.146 447.441 69.146C446.559 69.146 446.265 68.614 446.265 67.676V63.434H448.323V62.398H446.265V60.256H445.201L445.047 62.398L443.857 62.468V63.434H444.991V67.648C444.991 69.16 445.537 70.182 447.161 70.182ZM450.045 70H451.319V65.114C451.823 63.812 452.607 63.364 453.237 63.364C453.545 63.364 453.727 63.392 453.979 63.49L454.217 62.37C453.979 62.244 453.741 62.202 453.405 62.202C452.551 62.202 451.781 62.818 451.249 63.784H451.207L451.095 62.398H450.045V70ZM456.84 70.182C457.778 70.182 458.632 69.692 459.36 69.09H459.402L459.514 70H460.564V65.324C460.564 63.448 459.78 62.202 457.932 62.202C456.714 62.202 455.636 62.748 454.936 63.196L455.44 64.078C456.042 63.672 456.84 63.266 457.722 63.266C458.968 63.266 459.29 64.204 459.29 65.184C456.056 65.548 454.614 66.374 454.614 68.026C454.614 69.398 455.566 70.182 456.84 70.182ZM457.204 69.16C456.448 69.16 455.86 68.81 455.86 67.942C455.86 66.962 456.728 66.332 459.29 66.024V68.152C458.548 68.81 457.946 69.16 457.204 69.16ZM462.992 70H464.266V65.114C464.77 63.812 465.554 63.364 466.184 63.364C466.492 63.364 466.674 63.392 466.926 63.49L467.164 62.37C466.926 62.244 466.688 62.202 466.352 62.202C465.498 62.202 464.728 62.818 464.196 63.784H464.154L464.042 62.398H462.992V70ZM473.539 70.182C475.331 70.182 476.311 69.16 476.311 67.928C476.311 66.486 475.093 66.038 473.987 65.618C473.133 65.296 472.349 65.03 472.349 64.302C472.349 63.714 472.797 63.21 473.763 63.21C474.435 63.21 474.967 63.49 475.485 63.882L476.101 63.056C475.513 62.594 474.687 62.202 473.749 62.202C472.097 62.202 471.117 63.154 471.117 64.358C471.117 65.646 472.279 66.164 473.343 66.556C474.183 66.878 475.079 67.214 475.079 67.998C475.079 68.656 474.589 69.188 473.581 69.188C472.671 69.188 471.985 68.824 471.327 68.292L470.697 69.132C471.425 69.734 472.461 70.182 473.539 70.182ZM480.311 70.182C481.361 70.182 482.117 69.636 482.831 68.81H482.873L482.971 70H484.035V62.398H482.761V67.788C482.033 68.698 481.487 69.076 480.703 69.076C479.695 69.076 479.275 68.474 479.275 67.06V62.398H478.001V67.214C478.001 69.146 478.715 70.182 480.311 70.182ZM488.591 70.182C490.383 70.182 491.363 69.16 491.363 67.928C491.363 66.486 490.145 66.038 489.039 65.618C488.185 65.296 487.401 65.03 487.401 64.302C487.401 63.714 487.849 63.21 488.815 63.21C489.487 63.21 490.019 63.49 490.537 63.882L491.153 63.056C490.565 62.594 489.739 62.202 488.801 62.202C487.149 62.202 486.169 63.154 486.169 64.358C486.169 65.646 487.331 66.164 488.395 66.556C489.235 66.878 490.131 67.214 490.131 67.998C490.131 68.656 489.641 69.188 488.633 69.188C487.723 69.188 487.037 68.824 486.379 68.292L485.749 69.132C486.477 69.734 487.513 70.182 488.591 70.182ZM497.921 70H499.405L502.107 62.398H500.847L499.405 66.724C499.181 67.466 498.943 68.25 498.705 68.964H498.649C498.411 68.25 498.173 67.466 497.935 66.724L496.507 62.398H495.177L497.921 70ZM503.584 70H504.858V62.398H503.584V70ZM504.228 60.83C504.732 60.83 505.082 60.494 505.082 59.976C505.082 59.486 504.732 59.15 504.228 59.15C503.724 59.15 503.374 59.486 503.374 59.976C503.374 60.494 503.724 60.83 504.228 60.83ZM509.427 70.182C511.219 70.182 512.199 69.16 512.199 67.928C512.199 66.486 510.981 66.038 509.875 65.618C509.021 65.296 508.237 65.03 508.237 64.302C508.237 63.714 508.685 63.21 509.651 63.21C510.323 63.21 510.855 63.49 511.373 63.882L511.989 63.056C511.401 62.594 510.575 62.202 509.637 62.202C507.985 62.202 507.005 63.154 507.005 64.358C507.005 65.646 508.167 66.164 509.231 66.556C510.071 66.878 510.967 67.214 510.967 67.998C510.967 68.656 510.477 69.188 509.469 69.188C508.559 69.188 507.873 68.824 507.215 68.292L506.585 69.132C507.313 69.734 508.349 70.182 509.427 70.182ZM513.988 70H515.262V62.398H513.988V70ZM514.632 60.83C515.136 60.83 515.486 60.494 515.486 59.976C515.486 59.486 515.136 59.15 514.632 59.15C514.128 59.15 513.778 59.486 513.778 59.976C513.778 60.494 514.128 60.83 514.632 60.83ZM520.238 70.182C520.7 70.182 521.204 70.042 521.638 69.902L521.386 68.95C521.134 69.048 520.784 69.146 520.518 69.146C519.636 69.146 519.342 68.614 519.342 67.676V63.434H521.4V62.398H519.342V60.256H518.278L518.124 62.398L516.934 62.468V63.434H518.068V67.648C518.068 69.16 518.614 70.182 520.238 70.182ZM524.529 70.182C525.467 70.182 526.321 69.692 527.049 69.09H527.091L527.203 70H528.253V65.324C528.253 63.448 527.469 62.202 525.621 62.202C524.403 62.202 523.325 62.748 522.625 63.196L523.129 64.078C523.731 63.672 524.529 63.266 525.411 63.266C526.657 63.266 526.979 64.204 526.979 65.184C523.745 65.548 522.303 66.374 522.303 68.026C522.303 69.398 523.255 70.182 524.529 70.182ZM524.893 69.16C524.137 69.16 523.549 68.81 523.549 67.942C523.549 66.962 524.417 66.332 526.979 66.024V68.152C526.237 68.81 525.635 69.16 524.893 69.16ZM532.67 70.182C534.462 70.182 535.442 69.16 535.442 67.928C535.442 66.486 534.224 66.038 533.118 65.618C532.264 65.296 531.48 65.03 531.48 64.302C531.48 63.714 531.928 63.21 532.894 63.21C533.566 63.21 534.098 63.49 534.616 63.882L535.232 63.056C534.644 62.594 533.818 62.202 532.88 62.202C531.228 62.202 530.248 63.154 530.248 64.358C530.248 65.646 531.41 66.164 532.474 66.556C533.314 66.878 534.21 67.214 534.21 67.998C534.21 68.656 533.72 69.188 532.712 69.188C531.802 69.188 531.116 68.824 530.458 68.292L529.828 69.132C530.556 69.734 531.592 70.182 532.67 70.182ZM538.27 66.906H539.404C539.152 64.708 541.672 63.882 541.672 61.824C541.672 60.298 540.636 59.332 539.054 59.332C537.92 59.332 537.024 59.878 536.38 60.62L537.108 61.292C537.598 60.732 538.214 60.396 538.914 60.396C539.908 60.396 540.426 61.068 540.426 61.908C540.426 63.574 537.948 64.47 538.27 66.906ZM538.872 70.182C539.39 70.182 539.81 69.79 539.81 69.216C539.81 68.628 539.39 68.222 538.872 68.222C538.368 68.222 537.948 68.628 537.948 69.216C537.948 69.79 538.368 70.182 538.872 70.182Z" fill="#484545"/>
</svg>
