<svg width="814" height="72" viewBox="0 0 814 72" fill="none" xmlns="http://www.w3.org/2000/svg">
<path d="M348.37 18H355.81V16.016H350.738V12.848H354.898V10.864H350.738V8.128H355.634V6.144H348.37V18ZM361.839 18H369.023V16.016H364.207V6.144H361.839V18ZM378.339 18H381.715C385.203 18 387.443 16.016 387.443 12.032C387.443 8.032 385.203 6.144 381.587 6.144H378.339V18ZM380.707 16.096V8.048H381.443C383.651 8.048 385.027 9.136 385.027 12.032C385.027 14.912 383.651 16.096 381.443 16.096H380.707ZM393.386 18H400.826V16.016H395.754V12.848H399.914V10.864H395.754V8.128H400.65V6.144H393.386V18ZM410.39 18.224C413.126 18.224 414.742 16.576 414.742 14.64C414.742 12.928 413.798 12.016 412.358 11.424L410.806 10.768C409.798 10.368 408.966 10.064 408.966 9.216C408.966 8.432 409.622 7.968 410.662 7.968C411.638 7.968 412.422 8.32 413.174 8.944L414.374 7.456C413.414 6.48 412.038 5.936 410.662 5.936C408.262 5.936 406.566 7.424 406.566 9.36C406.566 11.088 407.766 12.048 408.966 12.544L410.55 13.216C411.606 13.664 412.326 13.936 412.326 14.816C412.326 15.648 411.67 16.176 410.438 16.176C409.398 16.176 408.278 15.648 407.43 14.864L406.07 16.496C407.222 17.6 408.806 18.224 410.39 18.224ZM423.04 11.824C423.392 10.592 423.744 9.248 424.048 7.952H424.128C424.464 9.232 424.784 10.592 425.152 11.824L425.504 13.12H422.688L423.04 11.824ZM418.944 18H421.344L422.176 14.96H426.016L426.848 18H429.328L425.52 6.144H422.736L418.944 18ZM434.339 18H436.707V13.2H440.915V11.216H436.707V8.128H441.635V6.144H434.339V18ZM447.323 18H449.691V6.144H447.323V18ZM448.315 5.568L451.483 3.44L450.235 1.904L447.259 4.384L448.315 5.568ZM460.933 18.224C464.069 18.224 466.229 15.872 466.229 12.032C466.229 8.192 464.069 5.936 460.933 5.936C457.797 5.936 455.637 8.176 455.637 12.032C455.637 15.872 457.797 18.224 460.933 18.224ZM460.933 16.176C459.173 16.176 458.053 14.56 458.053 12.032C458.053 9.488 459.173 7.968 460.933 7.968C462.693 7.968 463.813 9.488 463.813 12.032C463.813 14.56 462.693 16.176 460.933 16.176Z" fill="#D29890"/>
<path d="M123.004 44.366V44.744C123.004 45.0987 122.967 45.4067 122.892 45.668C122.827 45.92 122.705 46.1627 122.528 46.396C122.36 46.6293 122.127 46.872 121.828 47.124C121.464 47.432 121.179 47.6887 120.974 47.894C120.778 48.0993 120.638 48.3 120.554 48.496C120.47 48.692 120.428 48.93 120.428 49.21C120.428 49.658 120.573 50.0033 120.862 50.246C121.151 50.4887 121.571 50.61 122.122 50.61C122.579 50.61 122.985 50.5493 123.34 50.428C123.695 50.316 124.035 50.1807 124.362 50.022L124.796 51.002C124.423 51.198 124.007 51.3613 123.55 51.492C123.102 51.6227 122.598 51.688 122.038 51.688C121.151 51.688 120.465 51.4687 119.98 51.03C119.495 50.5913 119.252 49.994 119.252 49.238C119.252 48.818 119.317 48.4633 119.448 48.174C119.588 47.8753 119.779 47.6047 120.022 47.362C120.274 47.11 120.568 46.844 120.904 46.564C121.212 46.3027 121.445 46.074 121.604 45.878C121.772 45.682 121.884 45.4907 121.94 45.304C121.996 45.108 122.024 44.8747 122.024 44.604V44.366H123.004ZM123.326 42.308C123.326 42.6533 123.242 42.896 123.074 43.036C122.915 43.176 122.71 43.246 122.458 43.246C122.225 43.246 122.024 43.176 121.856 43.036C121.688 42.896 121.604 42.6533 121.604 42.308C121.604 41.972 121.688 41.7293 121.856 41.58C122.024 41.4307 122.225 41.356 122.458 41.356C122.71 41.356 122.915 41.4307 123.074 41.58C123.242 41.7293 123.326 41.972 123.326 42.308ZM130.628 39.97C129.555 39.97 128.71 40.3293 128.094 41.048C127.478 41.7667 127.17 42.7513 127.17 44.002C127.17 45.2433 127.455 46.228 128.024 46.956C128.603 47.6747 129.466 48.034 130.614 48.034C131.053 48.034 131.468 47.9967 131.86 47.922C132.252 47.8473 132.635 47.754 133.008 47.642V48.734C132.635 48.874 132.248 48.9767 131.846 49.042C131.454 49.1073 130.983 49.14 130.432 49.14C129.415 49.14 128.566 48.93 127.884 48.51C127.203 48.09 126.69 47.4927 126.344 46.718C126.008 45.9433 125.84 45.0333 125.84 43.988C125.84 42.98 126.022 42.0933 126.386 41.328C126.76 40.5533 127.306 39.9513 128.024 39.522C128.743 39.0833 129.616 38.864 130.642 38.864C131.697 38.864 132.616 39.06 133.4 39.452L132.896 40.516C132.588 40.376 132.243 40.25 131.86 40.138C131.487 40.026 131.076 39.97 130.628 39.97ZM141.546 45.234C141.546 46.4753 141.229 47.4367 140.594 48.118C139.969 48.7993 139.119 49.14 138.046 49.14C137.383 49.14 136.791 48.9907 136.268 48.692C135.755 48.384 135.349 47.9407 135.05 47.362C134.751 46.774 134.602 46.0647 134.602 45.234C134.602 43.9927 134.915 43.036 135.54 42.364C136.165 41.692 137.015 41.356 138.088 41.356C138.769 41.356 139.367 41.51 139.88 41.818C140.403 42.1167 140.809 42.5553 141.098 43.134C141.397 43.7033 141.546 44.4033 141.546 45.234ZM135.876 45.234C135.876 46.1207 136.049 46.8253 136.394 47.348C136.749 47.8613 137.309 48.118 138.074 48.118C138.83 48.118 139.385 47.8613 139.74 47.348C140.095 46.8253 140.272 46.1207 140.272 45.234C140.272 44.3473 140.095 43.652 139.74 43.148C139.385 42.644 138.825 42.392 138.06 42.392C137.295 42.392 136.739 42.644 136.394 43.148C136.049 43.652 135.876 44.3473 135.876 45.234ZM140.048 38.276V38.416C139.936 38.584 139.763 38.8033 139.53 39.074C139.297 39.3353 139.045 39.6013 138.774 39.872C138.513 40.1333 138.27 40.348 138.046 40.516H137.234V40.348C137.374 40.1707 137.523 39.9607 137.682 39.718C137.85 39.4753 138.013 39.228 138.172 38.976C138.331 38.7147 138.461 38.4813 138.564 38.276H140.048ZM151.731 41.356C152.58 41.356 153.215 41.5753 153.635 42.014C154.055 42.4433 154.265 43.1433 154.265 44.114V49H153.047V44.17C153.047 42.9847 152.538 42.392 151.521 42.392C150.793 42.392 150.27 42.602 149.953 43.022C149.645 43.442 149.491 44.0533 149.491 44.856V49H148.273V44.17C148.273 42.9847 147.759 42.392 146.733 42.392C145.977 42.392 145.454 42.6253 145.165 43.092C144.875 43.5587 144.731 44.2307 144.731 45.108V49H143.499V41.496H144.493L144.675 42.518H144.745C144.978 42.126 145.291 41.8367 145.683 41.65C146.084 41.454 146.509 41.356 146.957 41.356C148.133 41.356 148.898 41.776 149.253 42.616H149.323C149.575 42.1867 149.915 41.8693 150.345 41.664C150.783 41.4587 151.245 41.356 151.731 41.356ZM163.107 45.234C163.107 46.4753 162.789 47.4367 162.155 48.118C161.529 48.7993 160.68 49.14 159.607 49.14C158.944 49.14 158.351 48.9907 157.829 48.692C157.315 48.384 156.909 47.9407 156.611 47.362C156.312 46.774 156.163 46.0647 156.163 45.234C156.163 43.9927 156.475 43.036 157.101 42.364C157.726 41.692 158.575 41.356 159.649 41.356C160.33 41.356 160.927 41.51 161.441 41.818C161.963 42.1167 162.369 42.5553 162.659 43.134C162.957 43.7033 163.107 44.4033 163.107 45.234ZM157.437 45.234C157.437 46.1207 157.609 46.8253 157.955 47.348C158.309 47.8613 158.869 48.118 159.635 48.118C160.391 48.118 160.946 47.8613 161.301 47.348C161.655 46.8253 161.833 46.1207 161.833 45.234C161.833 44.3473 161.655 43.652 161.301 43.148C160.946 42.644 160.386 42.392 159.621 42.392C158.855 42.392 158.3 42.644 157.955 43.148C157.609 43.652 157.437 44.3473 157.437 45.234ZM171.356 49.14C170.423 49.14 169.676 48.818 169.116 48.174C168.556 47.5207 168.276 46.55 168.276 45.262C168.276 43.974 168.556 43.0033 169.116 42.35C169.685 41.6873 170.437 41.356 171.37 41.356C171.949 41.356 172.42 41.4633 172.784 41.678C173.157 41.8927 173.461 42.154 173.694 42.462H173.778C173.769 42.3407 173.75 42.1633 173.722 41.93C173.703 41.6873 173.694 41.496 173.694 41.356V38.36H174.926V49H173.932L173.75 47.992H173.694C173.47 48.3093 173.171 48.58 172.798 48.804C172.425 49.028 171.944 49.14 171.356 49.14ZM171.552 48.118C172.345 48.118 172.901 47.9033 173.218 47.474C173.545 47.0353 173.708 46.3773 173.708 45.5V45.276C173.708 44.3427 173.554 43.6287 173.246 43.134C172.938 42.63 172.369 42.378 171.538 42.378C170.875 42.378 170.376 42.644 170.04 43.176C169.713 43.6987 169.55 44.4033 169.55 45.29C169.55 46.186 169.713 46.8813 170.04 47.376C170.376 47.8707 170.88 48.118 171.552 48.118ZM177.939 38.682C178.126 38.682 178.289 38.7473 178.429 38.878C178.578 38.9993 178.653 39.1953 178.653 39.466C178.653 39.7273 178.578 39.9233 178.429 40.054C178.289 40.1847 178.126 40.25 177.939 40.25C177.734 40.25 177.561 40.1847 177.421 40.054C177.281 39.9233 177.211 39.7273 177.211 39.466C177.211 39.1953 177.281 38.9993 177.421 38.878C177.561 38.7473 177.734 38.682 177.939 38.682ZM178.541 41.496V49H177.309V41.496H178.541ZM185.805 46.928C185.805 47.656 185.534 48.2067 184.993 48.58C184.451 48.9533 183.723 49.14 182.809 49.14C182.286 49.14 181.833 49.098 181.451 49.014C181.077 48.93 180.746 48.8133 180.457 48.664V47.544C180.755 47.6933 181.115 47.8333 181.535 47.964C181.964 48.0853 182.398 48.146 182.837 48.146C183.462 48.146 183.915 48.048 184.195 47.852C184.475 47.6467 184.615 47.376 184.615 47.04C184.615 46.8533 184.563 46.6853 184.461 46.536C184.358 46.3867 184.171 46.2373 183.901 46.088C183.639 45.9387 183.261 45.7707 182.767 45.584C182.281 45.3973 181.866 45.2107 181.521 45.024C181.175 44.8373 180.909 44.6133 180.723 44.352C180.536 44.0907 180.443 43.7547 180.443 43.344C180.443 42.7093 180.699 42.2193 181.213 41.874C181.735 41.5287 182.417 41.356 183.257 41.356C183.714 41.356 184.139 41.4027 184.531 41.496C184.932 41.58 185.305 41.7013 185.651 41.86L185.231 42.84C184.913 42.7093 184.582 42.5973 184.237 42.504C183.891 42.4107 183.537 42.364 183.173 42.364C182.669 42.364 182.281 42.448 182.011 42.616C181.749 42.7747 181.619 42.994 181.619 43.274C181.619 43.4793 181.679 43.6567 181.801 43.806C181.922 43.946 182.123 44.086 182.403 44.226C182.692 44.3567 183.075 44.5153 183.551 44.702C184.027 44.8793 184.433 45.0613 184.769 45.248C185.105 45.4347 185.361 45.6633 185.539 45.934C185.716 46.1953 185.805 46.5267 185.805 46.928ZM190.516 41.356C191.16 41.356 191.71 41.496 192.168 41.776C192.634 42.056 192.989 42.4527 193.232 42.966C193.484 43.47 193.61 44.0627 193.61 44.744V45.486H188.472C188.49 46.3353 188.705 46.984 189.116 47.432C189.536 47.8707 190.119 48.09 190.866 48.09C191.342 48.09 191.762 48.048 192.126 47.964C192.499 47.8707 192.882 47.74 193.274 47.572V48.65C192.891 48.818 192.513 48.9393 192.14 49.014C191.766 49.098 191.323 49.14 190.81 49.14C190.1 49.14 189.47 48.9953 188.92 48.706C188.378 48.4167 187.954 47.9873 187.646 47.418C187.347 46.8393 187.198 46.1347 187.198 45.304C187.198 44.4827 187.333 43.778 187.604 43.19C187.884 42.602 188.271 42.1493 188.766 41.832C189.27 41.5147 189.853 41.356 190.516 41.356ZM190.502 42.364C189.914 42.364 189.447 42.5553 189.102 42.938C188.766 43.3113 188.565 43.834 188.5 44.506H192.322C192.312 43.8713 192.163 43.358 191.874 42.966C191.584 42.5647 191.127 42.364 190.502 42.364ZM199.132 41.356C200.028 41.356 200.705 41.5753 201.162 42.014C201.619 42.4433 201.848 43.1433 201.848 44.114V49H200.63V44.198C200.63 42.994 200.07 42.392 198.95 42.392C198.119 42.392 197.545 42.6253 197.228 43.092C196.911 43.5587 196.752 44.2307 196.752 45.108V49H195.52V41.496H196.514L196.696 42.518H196.766C197.009 42.126 197.345 41.8367 197.774 41.65C198.203 41.454 198.656 41.356 199.132 41.356ZM196.08 40.516C196.136 39.9653 196.295 39.5313 196.556 39.214C196.827 38.8873 197.181 38.724 197.62 38.724C197.9 38.724 198.161 38.794 198.404 38.934C198.656 39.0647 198.894 39.1953 199.118 39.326C199.342 39.4567 199.552 39.522 199.748 39.522C199.963 39.522 200.126 39.4567 200.238 39.326C200.359 39.186 200.453 38.9807 200.518 38.71H201.218C201.162 39.2513 201.003 39.6853 200.742 40.012C200.481 40.3387 200.131 40.502 199.692 40.502C199.431 40.502 199.174 40.4367 198.922 40.306C198.679 40.1753 198.441 40.0447 198.208 39.914C197.984 39.774 197.769 39.704 197.564 39.704C197.34 39.704 197.172 39.774 197.06 39.914C196.948 40.0447 196.859 40.2453 196.794 40.516H196.08ZM207.016 41.37C207.931 41.37 208.608 41.5707 209.046 41.972C209.485 42.3733 209.704 43.0127 209.704 43.89V49H208.808L208.57 47.936H208.514C208.188 48.3467 207.842 48.65 207.478 48.846C207.124 49.042 206.629 49.14 205.994 49.14C205.313 49.14 204.748 48.9627 204.3 48.608C203.852 48.244 203.628 47.6793 203.628 46.914C203.628 46.1673 203.922 45.5933 204.51 45.192C205.098 44.7813 206.004 44.5573 207.226 44.52L208.5 44.478V44.03C208.5 43.4047 208.365 42.9707 208.094 42.728C207.824 42.4853 207.441 42.364 206.946 42.364C206.554 42.364 206.181 42.4247 205.826 42.546C205.472 42.658 205.14 42.7887 204.832 42.938L204.454 42.014C204.781 41.8367 205.168 41.6873 205.616 41.566C206.064 41.4353 206.531 41.37 207.016 41.37ZM208.486 45.332L207.38 45.374C206.447 45.4113 205.798 45.5607 205.434 45.822C205.08 46.0833 204.902 46.452 204.902 46.928C204.902 47.348 205.028 47.656 205.28 47.852C205.542 48.048 205.873 48.146 206.274 48.146C206.909 48.146 207.436 47.9733 207.856 47.628C208.276 47.2733 208.486 46.732 208.486 46.004V45.332ZM215.522 41.356C215.662 41.356 215.811 41.3653 215.97 41.384C216.138 41.3933 216.283 41.412 216.404 41.44L216.25 42.574C216.129 42.546 215.993 42.5227 215.844 42.504C215.704 42.4853 215.569 42.476 215.438 42.476C215.055 42.476 214.696 42.5833 214.36 42.798C214.024 43.0033 213.753 43.2973 213.548 43.68C213.352 44.0533 213.254 44.492 213.254 44.996V49H212.022V41.496H213.03L213.17 42.868H213.226C213.469 42.4573 213.781 42.1027 214.164 41.804C214.547 41.5053 214.999 41.356 215.522 41.356ZM227.714 41.496V49H226.706L226.524 48.006H226.468C226.225 48.398 225.889 48.6873 225.46 48.874C225.031 49.0513 224.573 49.14 224.088 49.14C223.183 49.14 222.501 48.9253 222.044 48.496C221.587 48.0573 221.358 47.362 221.358 46.41V41.496H222.604V46.326C222.604 47.5207 223.159 48.118 224.27 48.118C225.101 48.118 225.675 47.8847 225.992 47.418C226.319 46.9513 226.482 46.2793 226.482 45.402V41.496H227.714ZM233.708 41.356C234.604 41.356 235.281 41.5753 235.738 42.014C236.196 42.4433 236.424 43.1433 236.424 44.114V49H235.206V44.198C235.206 42.994 234.646 42.392 233.526 42.392C232.696 42.392 232.122 42.6253 231.804 43.092C231.487 43.5587 231.328 44.2307 231.328 45.108V49H230.096V41.496H231.09L231.272 42.518H231.342C231.585 42.126 231.921 41.8367 232.35 41.65C232.78 41.454 233.232 41.356 233.708 41.356ZM241.593 41.37C242.507 41.37 243.184 41.5707 243.623 41.972C244.061 42.3733 244.281 43.0127 244.281 43.89V49H243.385L243.147 47.936H243.091C242.764 48.3467 242.419 48.65 242.055 48.846C241.7 49.042 241.205 49.14 240.571 49.14C239.889 49.14 239.325 48.9627 238.877 48.608C238.429 48.244 238.205 47.6793 238.205 46.914C238.205 46.1673 238.499 45.5933 239.087 45.192C239.675 44.7813 240.58 44.5573 241.803 44.52L243.077 44.478V44.03C243.077 43.4047 242.941 42.9707 242.671 42.728C242.4 42.4853 242.017 42.364 241.523 42.364C241.131 42.364 240.757 42.4247 240.403 42.546C240.048 42.658 239.717 42.7887 239.409 42.938L239.031 42.014C239.357 41.8367 239.745 41.6873 240.193 41.566C240.641 41.4353 241.107 41.37 241.593 41.37ZM243.063 45.332L241.957 45.374C241.023 45.4113 240.375 45.5607 240.011 45.822C239.656 46.0833 239.479 46.452 239.479 46.928C239.479 47.348 239.605 47.656 239.857 47.852C240.118 48.048 240.449 48.146 240.851 48.146C241.485 48.146 242.013 47.9733 242.433 47.628C242.853 47.2733 243.063 46.732 243.063 46.004V45.332ZM253.805 41.356C254.729 41.356 255.471 41.678 256.031 42.322C256.6 42.966 256.885 43.9367 256.885 45.234C256.885 46.5127 256.6 47.4833 256.031 48.146C255.471 48.8087 254.724 49.14 253.791 49.14C253.212 49.14 252.732 49.0327 252.349 48.818C251.976 48.594 251.682 48.3373 251.467 48.048H251.383C251.402 48.2067 251.42 48.4073 251.439 48.65C251.458 48.8927 251.467 49.1027 251.467 49.28V52.36H250.235V41.496H251.243L251.411 42.518H251.467C251.691 42.1913 251.985 41.916 252.349 41.692C252.713 41.468 253.198 41.356 253.805 41.356ZM253.581 42.392C252.816 42.392 252.274 42.6067 251.957 43.036C251.649 43.4653 251.486 44.1187 251.467 44.996V45.234C251.467 46.158 251.616 46.872 251.915 47.376C252.223 47.8707 252.788 48.118 253.609 48.118C254.066 48.118 254.44 47.992 254.729 47.74C255.028 47.488 255.247 47.1473 255.387 46.718C255.536 46.2793 255.611 45.78 255.611 45.22C255.611 44.3613 255.443 43.6753 255.107 43.162C254.78 42.6487 254.272 42.392 253.581 42.392ZM260.08 49H258.848V38.36H260.08V49ZM265.3 41.37C266.214 41.37 266.891 41.5707 267.33 41.972C267.768 42.3733 267.988 43.0127 267.988 43.89V49H267.092L266.854 47.936H266.798C266.471 48.3467 266.126 48.65 265.762 48.846C265.407 49.042 264.912 49.14 264.278 49.14C263.596 49.14 263.032 48.9627 262.584 48.608C262.136 48.244 261.912 47.6793 261.912 46.914C261.912 46.1673 262.206 45.5933 262.794 45.192C263.382 44.7813 264.287 44.5573 265.51 44.52L266.784 44.478V44.03C266.784 43.4047 266.648 42.9707 266.378 42.728C266.107 42.4853 265.724 42.364 265.23 42.364C264.838 42.364 264.464 42.4247 264.11 42.546C263.755 42.658 263.424 42.7887 263.116 42.938L262.738 42.014C263.064 41.8367 263.452 41.6873 263.9 41.566C264.348 41.4353 264.814 41.37 265.3 41.37ZM266.77 45.332L265.664 45.374C264.73 45.4113 264.082 45.5607 263.718 45.822C263.363 46.0833 263.186 46.452 263.186 46.928C263.186 47.348 263.312 47.656 263.564 47.852C263.825 48.048 264.156 48.146 264.558 48.146C265.192 48.146 265.72 47.9733 266.14 47.628C266.56 47.2733 266.77 46.732 266.77 46.004V45.332ZM272.811 48.132C272.998 48.132 273.189 48.118 273.385 48.09C273.581 48.0527 273.74 48.0153 273.861 47.978V48.916C273.731 48.9813 273.544 49.0327 273.301 49.07C273.059 49.1167 272.825 49.14 272.601 49.14C272.209 49.14 271.845 49.0747 271.509 48.944C271.183 48.804 270.917 48.566 270.711 48.23C270.506 47.894 270.403 47.4227 270.403 46.816V42.448H269.339V41.86L270.417 41.37L270.907 39.774H271.635V41.496H273.805V42.448H271.635V46.788C271.635 47.2453 271.743 47.586 271.957 47.81C272.181 48.0247 272.466 48.132 272.811 48.132ZM278.206 41.37C279.12 41.37 279.797 41.5707 280.236 41.972C280.674 42.3733 280.894 43.0127 280.894 43.89V49H279.998L279.76 47.936H279.704C279.377 48.3467 279.032 48.65 278.668 48.846C278.313 49.042 277.818 49.14 277.184 49.14C276.502 49.14 275.938 48.9627 275.49 48.608C275.042 48.244 274.818 47.6793 274.818 46.914C274.818 46.1673 275.112 45.5933 275.7 45.192C276.288 44.7813 277.193 44.5573 278.416 44.52L279.69 44.478V44.03C279.69 43.4047 279.554 42.9707 279.284 42.728C279.013 42.4853 278.63 42.364 278.136 42.364C277.744 42.364 277.37 42.4247 277.016 42.546C276.661 42.658 276.33 42.7887 276.022 42.938L275.644 42.014C275.97 41.8367 276.358 41.6873 276.806 41.566C277.254 41.4353 277.72 41.37 278.206 41.37ZM279.676 45.332L278.57 45.374C277.636 45.4113 276.988 45.5607 276.624 45.822C276.269 46.0833 276.092 46.452 276.092 46.928C276.092 47.348 276.218 47.656 276.47 47.852C276.731 48.048 277.062 48.146 277.464 48.146C278.098 48.146 278.626 47.9733 279.046 47.628C279.466 47.2733 279.676 46.732 279.676 46.004V45.332ZM286.669 42.448H284.779V49H283.547V42.448H282.231V41.874L283.547 41.454V41.02C283.547 40.0493 283.762 39.354 284.191 38.934C284.621 38.5047 285.218 38.29 285.983 38.29C286.282 38.29 286.553 38.318 286.795 38.374C287.047 38.4207 287.262 38.4767 287.439 38.542L287.117 39.508C286.968 39.4613 286.795 39.4147 286.599 39.368C286.403 39.3213 286.203 39.298 285.997 39.298C285.587 39.298 285.279 39.438 285.073 39.718C284.877 39.9887 284.779 40.418 284.779 41.006V41.496H286.669V42.448ZM294.548 45.234C294.548 46.4753 294.231 47.4367 293.596 48.118C292.971 48.7993 292.121 49.14 291.048 49.14C290.385 49.14 289.793 48.9907 289.27 48.692C288.757 48.384 288.351 47.9407 288.052 47.362C287.753 46.774 287.604 46.0647 287.604 45.234C287.604 43.9927 287.917 43.036 288.542 42.364C289.167 41.692 290.017 41.356 291.09 41.356C291.771 41.356 292.369 41.51 292.882 41.818C293.405 42.1167 293.811 42.5553 294.1 43.134C294.399 43.7033 294.548 44.4033 294.548 45.234ZM288.878 45.234C288.878 46.1207 289.051 46.8253 289.396 47.348C289.751 47.8613 290.311 48.118 291.076 48.118C291.832 48.118 292.387 47.8613 292.742 47.348C293.097 46.8253 293.274 46.1207 293.274 45.234C293.274 44.3473 293.097 43.652 292.742 43.148C292.387 42.644 291.827 42.392 291.062 42.392C290.297 42.392 289.741 42.644 289.396 43.148C289.051 43.652 288.878 44.3473 288.878 45.234ZM300.001 41.356C300.141 41.356 300.29 41.3653 300.449 41.384C300.617 41.3933 300.761 41.412 300.883 41.44L300.729 42.574C300.607 42.546 300.472 42.5227 300.323 42.504C300.183 42.4853 300.047 42.476 299.917 42.476C299.534 42.476 299.175 42.5833 298.839 42.798C298.503 43.0033 298.232 43.2973 298.027 43.68C297.831 44.0533 297.733 44.492 297.733 44.996V49H296.501V41.496H297.509L297.649 42.868H297.705C297.947 42.4573 298.26 42.1027 298.643 41.804C299.025 41.5053 299.478 41.356 300.001 41.356ZM310.516 41.356C311.365 41.356 312 41.5753 312.42 42.014C312.84 42.4433 313.05 43.1433 313.05 44.114V49H311.832V44.17C311.832 42.9847 311.323 42.392 310.306 42.392C309.578 42.392 309.055 42.602 308.738 43.022C308.43 43.442 308.276 44.0533 308.276 44.856V49H307.058V44.17C307.058 42.9847 306.544 42.392 305.518 42.392C304.762 42.392 304.239 42.6253 303.95 43.092C303.66 43.5587 303.516 44.2307 303.516 45.108V49H302.284V41.496H303.278L303.46 42.518H303.53C303.763 42.126 304.076 41.8367 304.468 41.65C304.869 41.454 305.294 41.356 305.742 41.356C306.918 41.356 307.683 41.776 308.038 42.616H308.108C308.36 42.1867 308.7 41.8693 309.13 41.664C309.568 41.4587 310.03 41.356 310.516 41.356ZM318.21 41.37C319.124 41.37 319.801 41.5707 320.24 41.972C320.678 42.3733 320.898 43.0127 320.898 43.89V49H320.002L319.764 47.936H319.708C319.381 48.3467 319.036 48.65 318.672 48.846C318.317 49.042 317.822 49.14 317.188 49.14C316.506 49.14 315.942 48.9627 315.494 48.608C315.046 48.244 314.822 47.6793 314.822 46.914C314.822 46.1673 315.116 45.5933 315.704 45.192C316.292 44.7813 317.197 44.5573 318.42 44.52L319.694 44.478V44.03C319.694 43.4047 319.558 42.9707 319.288 42.728C319.017 42.4853 318.634 42.364 318.14 42.364C317.748 42.364 317.374 42.4247 317.02 42.546C316.665 42.658 316.334 42.7887 316.026 42.938L315.648 42.014C315.974 41.8367 316.362 41.6873 316.81 41.566C317.258 41.4353 317.724 41.37 318.21 41.37ZM319.68 45.332L318.574 45.374C317.64 45.4113 316.992 45.5607 316.628 45.822C316.273 46.0833 316.096 46.452 316.096 46.928C316.096 47.348 316.222 47.656 316.474 47.852C316.735 48.048 317.066 48.146 317.468 48.146C318.102 48.146 318.63 47.9733 319.05 47.628C319.47 47.2733 319.68 46.732 319.68 46.004V45.332ZM333.376 45.234C333.376 46.4753 333.059 47.4367 332.424 48.118C331.799 48.7993 330.949 49.14 329.876 49.14C329.213 49.14 328.621 48.9907 328.098 48.692C327.585 48.384 327.179 47.9407 326.88 47.362C326.581 46.774 326.432 46.0647 326.432 45.234C326.432 43.9927 326.745 43.036 327.37 42.364C327.995 41.692 328.845 41.356 329.918 41.356C330.599 41.356 331.197 41.51 331.71 41.818C332.233 42.1167 332.639 42.5553 332.928 43.134C333.227 43.7033 333.376 44.4033 333.376 45.234ZM327.706 45.234C327.706 46.1207 327.879 46.8253 328.224 47.348C328.579 47.8613 329.139 48.118 329.904 48.118C330.66 48.118 331.215 47.8613 331.57 47.348C331.925 46.8253 332.102 46.1207 332.102 45.234C332.102 44.3473 331.925 43.652 331.57 43.148C331.215 42.644 330.655 42.392 329.89 42.392C329.125 42.392 328.569 42.644 328.224 43.148C327.879 43.652 327.706 44.3473 327.706 45.234ZM338.941 41.356C339.837 41.356 340.513 41.5753 340.971 42.014C341.428 42.4433 341.657 43.1433 341.657 44.114V49H340.439V44.198C340.439 42.994 339.879 42.392 338.759 42.392C337.928 42.392 337.354 42.6253 337.037 43.092C336.719 43.5587 336.561 44.2307 336.561 45.108V49H335.329V41.496H336.323L336.505 42.518H336.575C336.817 42.126 337.153 41.8367 337.583 41.65C338.012 41.454 338.465 41.356 338.941 41.356ZM345.215 49H343.983V38.36H345.215V49ZM348.222 38.682C348.409 38.682 348.572 38.7473 348.712 38.878C348.862 38.9993 348.936 39.1953 348.936 39.466C348.936 39.7273 348.862 39.9233 348.712 40.054C348.572 40.1847 348.409 40.25 348.222 40.25C348.017 40.25 347.844 40.1847 347.704 40.054C347.564 39.9233 347.494 39.7273 347.494 39.466C347.494 39.1953 347.564 38.9993 347.704 38.878C347.844 38.7473 348.017 38.682 348.222 38.682ZM348.824 41.496V49H347.592V41.496H348.824ZM354.814 41.356C355.71 41.356 356.386 41.5753 356.844 42.014C357.301 42.4433 357.53 43.1433 357.53 44.114V49H356.312V44.198C356.312 42.994 355.752 42.392 354.632 42.392C353.801 42.392 353.227 42.6253 352.91 43.092C352.592 43.5587 352.434 44.2307 352.434 45.108V49H351.202V41.496H352.196L352.378 42.518H352.448C352.69 42.126 353.026 41.8367 353.456 41.65C353.885 41.454 354.338 41.356 354.814 41.356ZM362.754 41.356C363.398 41.356 363.949 41.496 364.406 41.776C364.873 42.056 365.227 42.4527 365.47 42.966C365.722 43.47 365.848 44.0627 365.848 44.744V45.486H360.71C360.729 46.3353 360.943 46.984 361.354 47.432C361.774 47.8707 362.357 48.09 363.104 48.09C363.58 48.09 364 48.048 364.364 47.964C364.737 47.8707 365.12 47.74 365.512 47.572V48.65C365.129 48.818 364.751 48.9393 364.378 49.014C364.005 49.098 363.561 49.14 363.048 49.14C362.339 49.14 361.709 48.9953 361.158 48.706C360.617 48.4167 360.192 47.9873 359.884 47.418C359.585 46.8393 359.436 46.1347 359.436 45.304C359.436 44.4827 359.571 43.778 359.842 43.19C360.122 42.602 360.509 42.1493 361.004 41.832C361.508 41.5147 362.091 41.356 362.754 41.356ZM362.74 42.364C362.152 42.364 361.685 42.5553 361.34 42.938C361.004 43.3113 360.803 43.834 360.738 44.506H364.56C364.551 43.8713 364.401 43.358 364.112 42.966C363.823 42.5647 363.365 42.364 362.74 42.364ZM376.393 52.36V49.154C376.393 48.986 376.398 48.79 376.407 48.566C376.416 48.342 376.435 48.1507 376.463 47.992H376.379C376.164 48.3093 375.866 48.58 375.483 48.804C375.11 49.028 374.624 49.14 374.027 49.14C373.122 49.14 372.384 48.818 371.815 48.174C371.255 47.5207 370.975 46.55 370.975 45.262C370.975 43.974 371.26 43.0033 371.829 42.35C372.408 41.6873 373.154 41.356 374.069 41.356C374.657 41.356 375.138 41.468 375.511 41.692C375.884 41.916 376.183 42.1913 376.407 42.518H376.463L376.645 41.496H377.625V52.36H376.393ZM374.265 48.118C375.04 48.118 375.586 47.908 375.903 47.488C376.23 47.0587 376.398 46.4053 376.407 45.528V45.276C376.407 44.324 376.248 43.6053 375.931 43.12C375.614 42.6253 375.049 42.378 374.237 42.378C373.565 42.378 373.066 42.644 372.739 43.176C372.412 43.6987 372.249 44.4033 372.249 45.29C372.249 46.1767 372.412 46.872 372.739 47.376C373.075 47.8707 373.584 48.118 374.265 48.118ZM386.28 41.496V49H385.272L385.09 48.006H385.034C384.792 48.398 384.456 48.6873 384.026 48.874C383.597 49.0513 383.14 49.14 382.654 49.14C381.749 49.14 381.068 48.9253 380.61 48.496C380.153 48.0573 379.924 47.362 379.924 46.41V41.496H381.17V46.326C381.17 47.5207 381.726 48.118 382.836 48.118C383.667 48.118 384.241 47.8847 384.558 47.418C384.885 46.9513 385.048 46.2793 385.048 45.402V41.496H386.28ZM391.561 41.356C392.205 41.356 392.755 41.496 393.213 41.776C393.679 42.056 394.034 42.4527 394.277 42.966C394.529 43.47 394.655 44.0627 394.655 44.744V45.486H389.517C389.535 46.3353 389.75 46.984 390.161 47.432C390.581 47.8707 391.164 48.09 391.911 48.09C392.387 48.09 392.807 48.048 393.171 47.964C393.544 47.8707 393.927 47.74 394.319 47.572V48.65C393.936 48.818 393.558 48.9393 393.185 49.014C392.811 49.098 392.368 49.14 391.855 49.14C391.145 49.14 390.515 48.9953 389.965 48.706C389.423 48.4167 388.999 47.9873 388.691 47.418C388.392 46.8393 388.243 46.1347 388.243 45.304C388.243 44.4827 388.378 43.778 388.649 43.19C388.929 42.602 389.316 42.1493 389.811 41.832C390.315 41.5147 390.898 41.356 391.561 41.356ZM391.547 42.364C390.959 42.364 390.492 42.5553 390.147 42.938C389.811 43.3113 389.61 43.834 389.545 44.506H393.367C393.357 43.8713 393.208 43.358 392.919 42.966C392.629 42.5647 392.172 42.364 391.547 42.364ZM402.862 49.14C401.928 49.14 401.182 48.818 400.622 48.174C400.062 47.5207 399.782 46.55 399.782 45.262C399.782 43.974 400.062 43.0033 400.622 42.35C401.191 41.6873 401.942 41.356 402.876 41.356C403.454 41.356 403.926 41.4633 404.29 41.678C404.663 41.8927 404.966 42.154 405.2 42.462H405.284C405.274 42.3407 405.256 42.1633 405.228 41.93C405.209 41.6873 405.2 41.496 405.2 41.356V38.36H406.432V49H405.438L405.256 47.992H405.2C404.976 48.3093 404.677 48.58 404.304 48.804C403.93 49.028 403.45 49.14 402.862 49.14ZM403.058 48.118C403.851 48.118 404.406 47.9033 404.724 47.474C405.05 47.0353 405.214 46.3773 405.214 45.5V45.276C405.214 44.3427 405.06 43.6287 404.752 43.134C404.444 42.63 403.874 42.378 403.044 42.378C402.381 42.378 401.882 42.644 401.546 43.176C401.219 43.6987 401.056 44.4033 401.056 45.29C401.056 46.186 401.219 46.8813 401.546 47.376C401.882 47.8707 402.386 48.118 403.058 48.118ZM411.713 41.356C412.357 41.356 412.908 41.496 413.365 41.776C413.832 42.056 414.186 42.4527 414.429 42.966C414.681 43.47 414.807 44.0627 414.807 44.744V45.486H409.669C409.688 46.3353 409.902 46.984 410.313 47.432C410.733 47.8707 411.316 48.09 412.063 48.09C412.539 48.09 412.959 48.048 413.323 47.964C413.696 47.8707 414.079 47.74 414.471 47.572V48.65C414.088 48.818 413.71 48.9393 413.337 49.014C412.964 49.098 412.52 49.14 412.007 49.14C411.298 49.14 410.668 48.9953 410.117 48.706C409.576 48.4167 409.151 47.9873 408.843 47.418C408.544 46.8393 408.395 46.1347 408.395 45.304C408.395 44.4827 408.53 43.778 408.801 43.19C409.081 42.602 409.468 42.1493 409.963 41.832C410.467 41.5147 411.05 41.356 411.713 41.356ZM411.699 42.364C411.111 42.364 410.644 42.5553 410.299 42.938C409.963 43.3113 409.762 43.834 409.697 44.506H413.519C413.51 43.8713 413.36 43.358 413.071 42.966C412.782 42.5647 412.324 42.364 411.699 42.364ZM421.603 46.928C421.603 47.656 421.333 48.2067 420.791 48.58C420.25 48.9533 419.522 49.14 418.607 49.14C418.085 49.14 417.632 49.098 417.249 49.014C416.876 48.93 416.545 48.8133 416.255 48.664V47.544C416.554 47.6933 416.913 47.8333 417.333 47.964C417.763 48.0853 418.197 48.146 418.635 48.146C419.261 48.146 419.713 48.048 419.993 47.852C420.273 47.6467 420.413 47.376 420.413 47.04C420.413 46.8533 420.362 46.6853 420.259 46.536C420.157 46.3867 419.97 46.2373 419.699 46.088C419.438 45.9387 419.06 45.7707 418.565 45.584C418.08 45.3973 417.665 45.2107 417.319 45.024C416.974 44.8373 416.708 44.6133 416.521 44.352C416.335 44.0907 416.241 43.7547 416.241 43.344C416.241 42.7093 416.498 42.2193 417.011 41.874C417.534 41.5287 418.215 41.356 419.055 41.356C419.513 41.356 419.937 41.4027 420.329 41.496C420.731 41.58 421.104 41.7013 421.449 41.86L421.029 42.84C420.712 42.7093 420.381 42.5973 420.035 42.504C419.69 42.4107 419.335 42.364 418.971 42.364C418.467 42.364 418.08 42.448 417.809 42.616C417.548 42.7747 417.417 42.994 417.417 43.274C417.417 43.4793 417.478 43.6567 417.599 43.806C417.721 43.946 417.921 44.086 418.201 44.226C418.491 44.3567 418.873 44.5153 419.349 44.702C419.825 44.8793 420.231 45.0613 420.567 45.248C420.903 45.4347 421.16 45.6633 421.337 45.934C421.515 46.1953 421.603 46.5267 421.603 46.928ZM426.987 41.356C427.911 41.356 428.653 41.678 429.213 42.322C429.782 42.966 430.067 43.9367 430.067 45.234C430.067 46.5127 429.782 47.4833 429.213 48.146C428.653 48.8087 427.906 49.14 426.973 49.14C426.394 49.14 425.913 49.0327 425.531 48.818C425.157 48.594 424.863 48.3373 424.649 48.048H424.565C424.583 48.2067 424.602 48.4073 424.621 48.65C424.639 48.8927 424.649 49.1027 424.649 49.28V52.36H423.417V41.496H424.425L424.593 42.518H424.649C424.873 42.1913 425.167 41.916 425.531 41.692C425.895 41.468 426.38 41.356 426.987 41.356ZM426.763 42.392C425.997 42.392 425.456 42.6067 425.139 43.036C424.831 43.4653 424.667 44.1187 424.649 44.996V45.234C424.649 46.158 424.798 46.872 425.097 47.376C425.405 47.8707 425.969 48.118 426.791 48.118C427.248 48.118 427.621 47.992 427.911 47.74C428.209 47.488 428.429 47.1473 428.569 46.718C428.718 46.2793 428.793 45.78 428.793 45.22C428.793 44.3613 428.625 43.6753 428.289 43.162C427.962 42.6487 427.453 42.392 426.763 42.392ZM433.262 49H432.03V38.36H433.262V49ZM436.269 38.682C436.456 38.682 436.619 38.7473 436.759 38.878C436.909 38.9993 436.983 39.1953 436.983 39.466C436.983 39.7273 436.909 39.9233 436.759 40.054C436.619 40.1847 436.456 40.25 436.269 40.25C436.064 40.25 435.891 40.1847 435.751 40.054C435.611 39.9233 435.541 39.7273 435.541 39.466C435.541 39.1953 435.611 38.9993 435.751 38.878C435.891 38.7473 436.064 38.682 436.269 38.682ZM436.871 41.496V49H435.639V41.496H436.871ZM442.147 41.356C442.791 41.356 443.341 41.496 443.799 41.776C444.265 42.056 444.62 42.4527 444.863 42.966C445.115 43.47 445.241 44.0627 445.241 44.744V45.486H440.103C440.121 46.3353 440.336 46.984 440.747 47.432C441.167 47.8707 441.75 48.09 442.497 48.09C442.973 48.09 443.393 48.048 443.757 47.964C444.13 47.8707 444.513 47.74 444.905 47.572V48.65C444.522 48.818 444.144 48.9393 443.771 49.014C443.397 49.098 442.954 49.14 442.441 49.14C441.731 49.14 441.101 48.9953 440.551 48.706C440.009 48.4167 439.585 47.9873 439.277 47.418C438.978 46.8393 438.829 46.1347 438.829 45.304C438.829 44.4827 438.964 43.778 439.235 43.19C439.515 42.602 439.902 42.1493 440.397 41.832C440.901 41.5147 441.484 41.356 442.147 41.356ZM442.133 42.364C441.545 42.364 441.078 42.5553 440.733 42.938C440.397 43.3113 440.196 43.834 440.131 44.506H443.953C443.943 43.8713 443.794 43.358 443.505 42.966C443.215 42.5647 442.758 42.364 442.133 42.364ZM449.811 41.356C450.306 41.356 450.749 41.4493 451.141 41.636C451.542 41.8227 451.883 42.1073 452.163 42.49H452.233L452.401 41.496H453.381V49.126C453.381 50.1993 453.106 51.0067 452.555 51.548C452.014 52.0893 451.169 52.36 450.021 52.36C448.92 52.36 448.019 52.2013 447.319 51.884V50.75C448.056 51.142 448.98 51.338 450.091 51.338C450.735 51.338 451.239 51.1467 451.603 50.764C451.976 50.3907 452.163 49.8773 452.163 49.224V48.93C452.163 48.818 452.168 48.6593 452.177 48.454C452.186 48.2393 452.196 48.09 452.205 48.006H452.149C451.645 48.762 450.87 49.14 449.825 49.14C448.854 49.14 448.094 48.7993 447.543 48.118C447.002 47.4367 446.731 46.4847 446.731 45.262C446.731 44.0673 447.002 43.12 447.543 42.42C448.094 41.7107 448.85 41.356 449.811 41.356ZM449.979 42.392C449.354 42.392 448.868 42.644 448.523 43.148C448.178 43.6427 448.005 44.352 448.005 45.276C448.005 46.2 448.173 46.9093 448.509 47.404C448.854 47.8893 449.354 48.132 450.007 48.132C450.763 48.132 451.314 47.9313 451.659 47.53C452.004 47.1193 452.177 46.4613 452.177 45.556V45.262C452.177 44.2353 452 43.5027 451.645 43.064C451.29 42.616 450.735 42.392 449.979 42.392ZM462.036 41.496V49H461.028L460.846 48.006H460.79C460.548 48.398 460.212 48.6873 459.782 48.874C459.353 49.0513 458.896 49.14 458.41 49.14C457.505 49.14 456.824 48.9253 456.366 48.496C455.909 48.0573 455.68 47.362 455.68 46.41V41.496H456.926V46.326C456.926 47.5207 457.482 48.118 458.592 48.118C459.423 48.118 459.997 47.8847 460.314 47.418C460.641 46.9513 460.804 46.2793 460.804 45.402V41.496H462.036ZM467.317 41.356C467.961 41.356 468.511 41.496 468.969 41.776C469.435 42.056 469.79 42.4527 470.033 42.966C470.285 43.47 470.411 44.0627 470.411 44.744V45.486H465.273C465.291 46.3353 465.506 46.984 465.917 47.432C466.337 47.8707 466.92 48.09 467.667 48.09C468.143 48.09 468.563 48.048 468.927 47.964C469.3 47.8707 469.683 47.74 470.075 47.572V48.65C469.692 48.818 469.314 48.9393 468.941 49.014C468.567 49.098 468.124 49.14 467.611 49.14C466.901 49.14 466.271 48.9953 465.721 48.706C465.179 48.4167 464.755 47.9873 464.447 47.418C464.148 46.8393 463.999 46.1347 463.999 45.304C463.999 44.4827 464.134 43.778 464.405 43.19C464.685 42.602 465.072 42.1493 465.567 41.832C466.071 41.5147 466.654 41.356 467.317 41.356ZM467.303 42.364C466.715 42.364 466.248 42.5553 465.903 42.938C465.567 43.3113 465.366 43.834 465.301 44.506H469.123C469.113 43.8713 468.964 43.358 468.675 42.966C468.385 42.5647 467.928 42.364 467.303 42.364ZM480.826 49H479.594V38.36H480.826V49ZM486.046 41.37C486.96 41.37 487.637 41.5707 488.076 41.972C488.514 42.3733 488.734 43.0127 488.734 43.89V49H487.838L487.6 47.936H487.544C487.217 48.3467 486.872 48.65 486.508 48.846C486.153 49.042 485.658 49.14 485.024 49.14C484.342 49.14 483.778 48.9627 483.33 48.608C482.882 48.244 482.658 47.6793 482.658 46.914C482.658 46.1673 482.952 45.5933 483.54 45.192C484.128 44.7813 485.033 44.5573 486.256 44.52L487.53 44.478V44.03C487.53 43.4047 487.394 42.9707 487.124 42.728C486.853 42.4853 486.47 42.364 485.976 42.364C485.584 42.364 485.21 42.4247 484.856 42.546C484.501 42.658 484.17 42.7887 483.862 42.938L483.484 42.014C483.81 41.8367 484.198 41.6873 484.646 41.566C485.094 41.4353 485.56 41.37 486.046 41.37ZM487.516 45.332L486.41 45.374C485.476 45.4113 484.828 45.5607 484.464 45.822C484.109 46.0833 483.932 46.452 483.932 46.928C483.932 47.348 484.058 47.656 484.31 47.852C484.571 48.048 484.902 48.146 485.304 48.146C485.938 48.146 486.466 47.9733 486.886 47.628C487.306 47.2733 487.516 46.732 487.516 46.004V45.332ZM495.318 38.682C495.505 38.682 495.668 38.7473 495.808 38.878C495.957 38.9993 496.032 39.1953 496.032 39.466C496.032 39.7273 495.957 39.9233 495.808 40.054C495.668 40.1847 495.505 40.25 495.318 40.25C495.113 40.25 494.94 40.1847 494.8 40.054C494.66 39.9233 494.59 39.7273 494.59 39.466C494.59 39.1953 494.66 38.9993 494.8 38.878C494.94 38.7473 495.113 38.682 495.318 38.682ZM495.92 41.496V49H494.688V41.496H495.92ZM501.909 41.356C502.805 41.356 503.482 41.5753 503.939 42.014C504.397 42.4433 504.625 43.1433 504.625 44.114V49H503.407V44.198C503.407 42.994 502.847 42.392 501.727 42.392C500.897 42.392 500.323 42.6253 500.005 43.092C499.688 43.5587 499.529 44.2307 499.529 45.108V49H498.297V41.496H499.291L499.473 42.518H499.543C499.786 42.126 500.122 41.8367 500.551 41.65C500.981 41.454 501.433 41.356 501.909 41.356ZM510.41 42.448H508.52V49H507.288V42.448H505.972V41.874L507.288 41.454V41.02C507.288 40.0493 507.502 39.354 507.932 38.934C508.361 38.5047 508.958 38.29 509.724 38.29C510.022 38.29 510.293 38.318 510.536 38.374C510.788 38.4207 511.002 38.4767 511.18 38.542L510.858 39.508C510.708 39.4613 510.536 39.4147 510.34 39.368C510.144 39.3213 509.943 39.298 509.738 39.298C509.327 39.298 509.019 39.438 508.814 39.718C508.618 39.9887 508.52 40.418 508.52 41.006V41.496H510.41V42.448ZM518.288 45.234C518.288 46.4753 517.971 47.4367 517.336 48.118C516.711 48.7993 515.862 49.14 514.788 49.14C514.126 49.14 513.533 48.9907 513.01 48.692C512.497 48.384 512.091 47.9407 511.792 47.362C511.494 46.774 511.344 46.0647 511.344 45.234C511.344 43.9927 511.657 43.036 512.282 42.364C512.908 41.692 513.757 41.356 514.83 41.356C515.512 41.356 516.109 41.51 516.622 41.818C517.145 42.1167 517.551 42.5553 517.84 43.134C518.139 43.7033 518.288 44.4033 518.288 45.234ZM512.618 45.234C512.618 46.1207 512.791 46.8253 513.136 47.348C513.491 47.8613 514.051 48.118 514.816 48.118C515.572 48.118 516.128 47.8613 516.482 47.348C516.837 46.8253 517.014 46.1207 517.014 45.234C517.014 44.3473 516.837 43.652 516.482 43.148C516.128 42.644 515.568 42.392 514.802 42.392C514.037 42.392 513.482 42.644 513.136 43.148C512.791 43.652 512.618 44.3473 512.618 45.234ZM523.741 41.356C523.881 41.356 524.03 41.3653 524.189 41.384C524.357 41.3933 524.501 41.412 524.623 41.44L524.469 42.574C524.347 42.546 524.212 42.5227 524.063 42.504C523.923 42.4853 523.787 42.476 523.657 42.476C523.274 42.476 522.915 42.5833 522.579 42.798C522.243 43.0033 521.972 43.2973 521.767 43.68C521.571 44.0533 521.473 44.492 521.473 44.996V49H520.241V41.496H521.249L521.389 42.868H521.445C521.687 42.4573 522 42.1027 522.383 41.804C522.765 41.5053 523.218 41.356 523.741 41.356ZM534.256 41.356C535.105 41.356 535.74 41.5753 536.16 42.014C536.58 42.4433 536.79 43.1433 536.79 44.114V49H535.572V44.17C535.572 42.9847 535.063 42.392 534.046 42.392C533.318 42.392 532.795 42.602 532.478 43.022C532.17 43.442 532.016 44.0533 532.016 44.856V49H530.798V44.17C530.798 42.9847 530.285 42.392 529.258 42.392C528.502 42.392 527.979 42.6253 527.69 43.092C527.401 43.5587 527.256 44.2307 527.256 45.108V49H526.024V41.496H527.018L527.2 42.518H527.27C527.503 42.126 527.816 41.8367 528.208 41.65C528.609 41.454 529.034 41.356 529.482 41.356C530.658 41.356 531.423 41.776 531.778 42.616H531.848C532.1 42.1867 532.441 41.8693 532.87 41.664C533.309 41.4587 533.771 41.356 534.256 41.356ZM541.95 41.37C542.865 41.37 543.541 41.5707 543.98 41.972C544.419 42.3733 544.638 43.0127 544.638 43.89V49H543.742L543.504 47.936H543.448C543.121 48.3467 542.776 48.65 542.412 48.846C542.057 49.042 541.563 49.14 540.928 49.14C540.247 49.14 539.682 48.9627 539.234 48.608C538.786 48.244 538.562 47.6793 538.562 46.914C538.562 46.1673 538.856 45.5933 539.444 45.192C540.032 44.7813 540.937 44.5573 542.16 44.52L543.434 44.478V44.03C543.434 43.4047 543.299 42.9707 543.028 42.728C542.757 42.4853 542.375 42.364 541.88 42.364C541.488 42.364 541.115 42.4247 540.76 42.546C540.405 42.658 540.074 42.7887 539.766 42.938L539.388 42.014C539.715 41.8367 540.102 41.6873 540.55 41.566C540.998 41.4353 541.465 41.37 541.95 41.37ZM543.42 45.332L542.314 45.374C541.381 45.4113 540.732 45.5607 540.368 45.822C540.013 46.0833 539.836 46.452 539.836 46.928C539.836 47.348 539.962 47.656 540.214 47.852C540.475 48.048 540.807 48.146 541.208 48.146C541.843 48.146 542.37 47.9733 542.79 47.628C543.21 47.2733 543.42 46.732 543.42 46.004V45.332ZM549.966 49.14C549.303 49.14 548.71 49.0047 548.188 48.734C547.674 48.4633 547.268 48.0433 546.97 47.474C546.68 46.9047 546.536 46.1767 546.536 45.29C546.536 44.366 546.69 43.6147 546.998 43.036C547.306 42.4573 547.721 42.0327 548.244 41.762C548.776 41.4913 549.378 41.356 550.05 41.356C550.432 41.356 550.801 41.398 551.156 41.482C551.51 41.5567 551.8 41.65 552.024 41.762L551.646 42.784C551.422 42.7 551.16 42.6207 550.862 42.546C550.563 42.4713 550.283 42.434 550.022 42.434C548.547 42.434 547.81 43.3813 547.81 45.276C547.81 46.1813 547.987 46.8767 548.342 47.362C548.706 47.838 549.242 48.076 549.952 48.076C550.362 48.076 550.722 48.034 551.03 47.95C551.347 47.866 551.636 47.7633 551.898 47.642V48.734C551.646 48.8647 551.366 48.9627 551.058 49.028C550.759 49.1027 550.395 49.14 549.966 49.14ZM554.312 38.682C554.499 38.682 554.662 38.7473 554.802 38.878C554.952 38.9993 555.026 39.1953 555.026 39.466C555.026 39.7273 554.952 39.9233 554.802 40.054C554.662 40.1847 554.499 40.25 554.312 40.25C554.107 40.25 553.934 40.1847 553.794 40.054C553.654 39.9233 553.584 39.7273 553.584 39.466C553.584 39.1953 553.654 38.9993 553.794 38.878C553.934 38.7473 554.107 38.682 554.312 38.682ZM554.914 41.496V49H553.682V41.496H554.914ZM563.816 45.234C563.816 46.4753 563.498 47.4367 562.864 48.118C562.238 48.7993 561.389 49.14 560.316 49.14C559.653 49.14 559.06 48.9907 558.538 48.692C558.024 48.384 557.618 47.9407 557.32 47.362C557.021 46.774 556.872 46.0647 556.872 45.234C556.872 43.9927 557.184 43.036 557.81 42.364C558.435 41.692 559.284 41.356 560.358 41.356C561.039 41.356 561.636 41.51 562.15 41.818C562.672 42.1167 563.078 42.5553 563.368 43.134C563.666 43.7033 563.816 44.4033 563.816 45.234ZM558.146 45.234C558.146 46.1207 558.318 46.8253 558.664 47.348C559.018 47.8613 559.578 48.118 560.344 48.118C561.1 48.118 561.655 47.8613 562.01 47.348C562.364 46.8253 562.542 46.1207 562.542 45.234C562.542 44.3473 562.364 43.652 562.01 43.148C561.655 42.644 561.095 42.392 560.33 42.392C559.564 42.392 559.009 42.644 558.664 43.148C558.318 43.652 558.146 44.3473 558.146 45.234ZM562.318 38.276V38.416C562.206 38.584 562.033 38.8033 561.8 39.074C561.566 39.3353 561.314 39.6013 561.044 39.872C560.782 40.1333 560.54 40.348 560.316 40.516H559.504V40.348C559.644 40.1707 559.793 39.9607 559.952 39.718C560.12 39.4753 560.283 39.228 560.442 38.976C560.6 38.7147 560.731 38.4813 560.834 38.276H562.318ZM569.38 41.356C570.276 41.356 570.953 41.5753 571.41 42.014C571.867 42.4433 572.096 43.1433 572.096 44.114V49H570.878V44.198C570.878 42.994 570.318 42.392 569.198 42.392C568.367 42.392 567.793 42.6253 567.476 43.092C567.159 43.5587 567 44.2307 567 45.108V49H565.768V41.496H566.762L566.944 42.518H567.014C567.257 42.126 567.593 41.8367 568.022 41.65C568.451 41.454 568.904 41.356 569.38 41.356ZM582.945 46.928C582.945 47.656 582.674 48.2067 582.133 48.58C581.592 48.9533 580.864 49.14 579.949 49.14C579.426 49.14 578.974 49.098 578.591 49.014C578.218 48.93 577.886 48.8133 577.597 48.664V47.544C577.896 47.6933 578.255 47.8333 578.675 47.964C579.104 48.0853 579.538 48.146 579.977 48.146C580.602 48.146 581.055 48.048 581.335 47.852C581.615 47.6467 581.755 47.376 581.755 47.04C581.755 46.8533 581.704 46.6853 581.601 46.536C581.498 46.3867 581.312 46.2373 581.041 46.088C580.78 45.9387 580.402 45.7707 579.907 45.584C579.422 45.3973 579.006 45.2107 578.661 45.024C578.316 44.8373 578.05 44.6133 577.863 44.352C577.676 44.0907 577.583 43.7547 577.583 43.344C577.583 42.7093 577.84 42.2193 578.353 41.874C578.876 41.5287 579.557 41.356 580.397 41.356C580.854 41.356 581.279 41.4027 581.671 41.496C582.072 41.58 582.446 41.7013 582.791 41.86L582.371 42.84C582.054 42.7093 581.722 42.5973 581.377 42.504C581.032 42.4107 580.677 42.364 580.313 42.364C579.809 42.364 579.422 42.448 579.151 42.616C578.89 42.7747 578.759 42.994 578.759 43.274C578.759 43.4793 578.82 43.6567 578.941 43.806C579.062 43.946 579.263 44.086 579.543 44.226C579.832 44.3567 580.215 44.5153 580.691 44.702C581.167 44.8793 581.573 45.0613 581.909 45.248C582.245 45.4347 582.502 45.6633 582.679 45.934C582.856 46.1953 582.945 46.5267 582.945 46.928ZM585.388 38.682C585.575 38.682 585.738 38.7473 585.878 38.878C586.028 38.9993 586.102 39.1953 586.102 39.466C586.102 39.7273 586.028 39.9233 585.878 40.054C585.738 40.1847 585.575 40.25 585.388 40.25C585.183 40.25 585.01 40.1847 584.87 40.054C584.73 39.9233 584.66 39.7273 584.66 39.466C584.66 39.1953 584.73 38.9993 584.87 38.878C585.01 38.7473 585.183 38.682 585.388 38.682ZM585.99 41.496V49H584.758V41.496H585.99ZM593.254 46.928C593.254 47.656 592.983 48.2067 592.442 48.58C591.9 48.9533 591.172 49.14 590.258 49.14C589.735 49.14 589.282 49.098 588.9 49.014C588.526 48.93 588.195 48.8133 587.906 48.664V47.544C588.204 47.6933 588.564 47.8333 588.984 47.964C589.413 48.0853 589.847 48.146 590.286 48.146C590.911 48.146 591.364 48.048 591.644 47.852C591.924 47.6467 592.064 47.376 592.064 47.04C592.064 46.8533 592.012 46.6853 591.91 46.536C591.807 46.3867 591.62 46.2373 591.35 46.088C591.088 45.9387 590.71 45.7707 590.216 45.584C589.73 45.3973 589.315 45.2107 588.97 45.024C588.624 44.8373 588.358 44.6133 588.172 44.352C587.985 44.0907 587.892 43.7547 587.892 43.344C587.892 42.7093 588.148 42.2193 588.662 41.874C589.184 41.5287 589.866 41.356 590.706 41.356C591.163 41.356 591.588 41.4027 591.98 41.496C592.381 41.58 592.754 41.7013 593.1 41.86L592.68 42.84C592.362 42.7093 592.031 42.5973 591.686 42.504C591.34 42.4107 590.986 42.364 590.622 42.364C590.118 42.364 589.73 42.448 589.46 42.616C589.198 42.7747 589.068 42.994 589.068 43.274C589.068 43.4793 589.128 43.6567 589.25 43.806C589.371 43.946 589.572 44.086 589.852 44.226C590.141 44.3567 590.524 44.5153 591 44.702C591.476 44.8793 591.882 45.0613 592.218 45.248C592.554 45.4347 592.81 45.6633 592.988 45.934C593.165 46.1953 593.254 46.5267 593.254 46.928ZM597.573 48.132C597.76 48.132 597.951 48.118 598.147 48.09C598.343 48.0527 598.502 48.0153 598.623 47.978V48.916C598.492 48.9813 598.306 49.0327 598.063 49.07C597.82 49.1167 597.587 49.14 597.363 49.14C596.971 49.14 596.607 49.0747 596.271 48.944C595.944 48.804 595.678 48.566 595.473 48.23C595.268 47.894 595.165 47.4227 595.165 46.816V42.448H594.101V41.86L595.179 41.37L595.669 39.774H596.397V41.496H598.567V42.448H596.397V46.788C596.397 47.2453 596.504 47.586 596.719 47.81C596.943 48.0247 597.228 48.132 597.573 48.132ZM603.024 41.356C603.668 41.356 604.218 41.496 604.676 41.776C605.142 42.056 605.497 42.4527 605.74 42.966C605.992 43.47 606.118 44.0627 606.118 44.744V45.486H600.98C600.998 46.3353 601.213 46.984 601.624 47.432C602.044 47.8707 602.627 48.09 603.374 48.09C603.85 48.09 604.27 48.048 604.634 47.964C605.007 47.8707 605.39 47.74 605.782 47.572V48.65C605.399 48.818 605.021 48.9393 604.648 49.014C604.274 49.098 603.831 49.14 603.318 49.14C602.608 49.14 601.978 48.9953 601.428 48.706C600.886 48.4167 600.462 47.9873 600.154 47.418C599.855 46.8393 599.706 46.1347 599.706 45.304C599.706 44.4827 599.841 43.778 600.112 43.19C600.392 42.602 600.779 42.1493 601.274 41.832C601.778 41.5147 602.361 41.356 603.024 41.356ZM603.01 42.364C602.422 42.364 601.955 42.5553 601.61 42.938C601.274 43.3113 601.073 43.834 601.008 44.506H604.83C604.82 43.8713 604.671 43.358 604.382 42.966C604.092 42.5647 603.635 42.364 603.01 42.364ZM616.26 41.356C617.109 41.356 617.744 41.5753 618.164 42.014C618.584 42.4433 618.794 43.1433 618.794 44.114V49H617.576V44.17C617.576 42.9847 617.067 42.392 616.05 42.392C615.322 42.392 614.799 42.602 614.482 43.022C614.174 43.442 614.02 44.0533 614.02 44.856V49H612.802V44.17C612.802 42.9847 612.289 42.392 611.262 42.392C610.506 42.392 609.983 42.6253 609.694 43.092C609.405 43.5587 609.26 44.2307 609.26 45.108V49H608.028V41.496H609.022L609.204 42.518H609.274C609.507 42.126 609.82 41.8367 610.212 41.65C610.613 41.454 611.038 41.356 611.486 41.356C612.662 41.356 613.427 41.776 613.782 42.616H613.852C614.104 42.1867 614.445 41.8693 614.874 41.664C615.313 41.4587 615.775 41.356 616.26 41.356ZM623.954 41.37C624.869 41.37 625.545 41.5707 625.984 41.972C626.423 42.3733 626.642 43.0127 626.642 43.89V49H625.746L625.508 47.936H625.452C625.125 48.3467 624.78 48.65 624.416 48.846C624.061 49.042 623.567 49.14 622.932 49.14C622.251 49.14 621.686 48.9627 621.238 48.608C620.79 48.244 620.566 47.6793 620.566 46.914C620.566 46.1673 620.86 45.5933 621.448 45.192C622.036 44.7813 622.941 44.5573 624.164 44.52L625.438 44.478V44.03C625.438 43.4047 625.303 42.9707 625.032 42.728C624.761 42.4853 624.379 42.364 623.884 42.364C623.492 42.364 623.119 42.4247 622.764 42.546C622.409 42.658 622.078 42.7887 621.77 42.938L621.392 42.014C621.719 41.8367 622.106 41.6873 622.554 41.566C623.002 41.4353 623.469 41.37 623.954 41.37ZM625.424 45.332L624.318 45.374C623.385 45.4113 622.736 45.5607 622.372 45.822C622.017 46.0833 621.84 46.452 621.84 46.928C621.84 47.348 621.966 47.656 622.218 47.852C622.479 48.048 622.811 48.146 623.212 48.146C623.847 48.146 624.374 47.9733 624.794 47.628C625.214 47.2733 625.424 46.732 625.424 46.004V45.332ZM631.466 48.132C631.652 48.132 631.844 48.118 632.04 48.09C632.236 48.0527 632.394 48.0153 632.516 47.978V48.916C632.385 48.9813 632.198 49.0327 631.956 49.07C631.713 49.1167 631.48 49.14 631.256 49.14C630.864 49.14 630.5 49.0747 630.164 48.944C629.837 48.804 629.571 48.566 629.366 48.23C629.16 47.894 629.058 47.4227 629.058 46.816V42.448H627.994V41.86L629.072 41.37L629.562 39.774H630.29V41.496H632.46V42.448H630.29V46.788C630.29 47.2453 630.397 47.586 630.612 47.81C630.836 48.0247 631.12 48.132 631.466 48.132ZM634.648 38.682C634.835 38.682 634.998 38.7473 635.138 38.878C635.287 38.9993 635.362 39.1953 635.362 39.466C635.362 39.7273 635.287 39.9233 635.138 40.054C634.998 40.1847 634.835 40.25 634.648 40.25C634.443 40.25 634.27 40.1847 634.13 40.054C633.99 39.9233 633.92 39.7273 633.92 39.466C633.92 39.1953 633.99 38.9993 634.13 38.878C634.27 38.7473 634.443 38.682 634.648 38.682ZM635.25 41.496V49H634.018V41.496H635.25ZM642.472 49H636.984V48.188L641.016 42.448H637.222V41.496H642.374V42.42L638.398 48.048H642.472V49ZM647.046 41.37C647.96 41.37 648.637 41.5707 649.076 41.972C649.514 42.3733 649.734 43.0127 649.734 43.89V49H648.838L648.6 47.936H648.544C648.217 48.3467 647.872 48.65 647.508 48.846C647.153 49.042 646.658 49.14 646.024 49.14C645.342 49.14 644.778 48.9627 644.33 48.608C643.882 48.244 643.658 47.6793 643.658 46.914C643.658 46.1673 643.952 45.5933 644.54 45.192C645.128 44.7813 646.033 44.5573 647.256 44.52L648.53 44.478V44.03C648.53 43.4047 648.394 42.9707 648.124 42.728C647.853 42.4853 647.47 42.364 646.976 42.364C646.584 42.364 646.21 42.4247 645.856 42.546C645.501 42.658 645.17 42.7887 644.862 42.938L644.484 42.014C644.81 41.8367 645.198 41.6873 645.646 41.566C646.094 41.4353 646.56 41.37 647.046 41.37ZM648.516 45.332L647.41 45.374C646.476 45.4113 645.828 45.5607 645.464 45.822C645.109 46.0833 644.932 46.452 644.932 46.928C644.932 47.348 645.058 47.656 645.31 47.852C645.571 48.048 645.902 48.146 646.304 48.146C646.938 48.146 647.466 47.9733 647.886 47.628C648.306 47.2733 648.516 46.732 648.516 46.004V45.332ZM654.711 49.14C653.778 49.14 653.031 48.818 652.471 48.174C651.911 47.5207 651.631 46.55 651.631 45.262C651.631 43.974 651.911 43.0033 652.471 42.35C653.041 41.6873 653.792 41.356 654.725 41.356C655.304 41.356 655.775 41.4633 656.139 41.678C656.513 41.8927 656.816 42.154 657.049 42.462H657.133C657.124 42.3407 657.105 42.1633 657.077 41.93C657.059 41.6873 657.049 41.496 657.049 41.356V38.36H658.281V49H657.287L657.105 47.992H657.049C656.825 48.3093 656.527 48.58 656.153 48.804C655.78 49.028 655.299 49.14 654.711 49.14ZM654.907 48.118C655.701 48.118 656.256 47.9033 656.573 47.474C656.9 47.0353 657.063 46.3773 657.063 45.5V45.276C657.063 44.3427 656.909 43.6287 656.601 43.134C656.293 42.63 655.724 42.378 654.893 42.378C654.231 42.378 653.731 42.644 653.395 43.176C653.069 43.6987 652.905 44.4033 652.905 45.29C652.905 46.186 653.069 46.8813 653.395 47.376C653.731 47.8707 654.235 48.118 654.907 48.118ZM663.507 41.37C664.421 41.37 665.098 41.5707 665.537 41.972C665.975 42.3733 666.195 43.0127 666.195 43.89V49H665.299L665.061 47.936H665.005C664.678 48.3467 664.333 48.65 663.969 48.846C663.614 49.042 663.119 49.14 662.485 49.14C661.803 49.14 661.239 48.9627 660.791 48.608C660.343 48.244 660.119 47.6793 660.119 46.914C660.119 46.1673 660.413 45.5933 661.001 45.192C661.589 44.7813 662.494 44.5573 663.717 44.52L664.991 44.478V44.03C664.991 43.4047 664.855 42.9707 664.585 42.728C664.314 42.4853 663.931 42.364 663.437 42.364C663.045 42.364 662.671 42.4247 662.317 42.546C661.962 42.658 661.631 42.7887 661.323 42.938L660.945 42.014C661.271 41.8367 661.659 41.6873 662.107 41.566C662.555 41.4353 663.021 41.37 663.507 41.37ZM664.977 45.332L663.871 45.374C662.937 45.4113 662.289 45.5607 661.925 45.822C661.57 46.0833 661.393 46.452 661.393 46.928C661.393 47.348 661.519 47.656 661.771 47.852C662.032 48.048 662.363 48.146 662.765 48.146C663.399 48.146 663.927 47.9733 664.347 47.628C664.767 47.2733 664.977 46.732 664.977 46.004V45.332ZM674.809 49.14C673.876 49.14 673.129 48.818 672.569 48.174C672.009 47.5207 671.729 46.55 671.729 45.262C671.729 43.974 672.009 43.0033 672.569 42.35C673.138 41.6873 673.89 41.356 674.823 41.356C675.402 41.356 675.873 41.4633 676.237 41.678C676.61 41.8927 676.914 42.154 677.147 42.462H677.231C677.222 42.3407 677.203 42.1633 677.175 41.93C677.156 41.6873 677.147 41.496 677.147 41.356V38.36H678.379V49H677.385L677.203 47.992H677.147C676.923 48.3093 676.624 48.58 676.251 48.804C675.878 49.028 675.397 49.14 674.809 49.14ZM675.005 48.118C675.798 48.118 676.354 47.9033 676.671 47.474C676.998 47.0353 677.161 46.3773 677.161 45.5V45.276C677.161 44.3427 677.007 43.6287 676.699 43.134C676.391 42.63 675.822 42.378 674.991 42.378C674.328 42.378 673.829 42.644 673.493 43.176C673.166 43.6987 673.003 44.4033 673.003 45.29C673.003 46.186 673.166 46.8813 673.493 47.376C673.829 47.8707 674.333 48.118 675.005 48.118ZM683.66 41.356C684.304 41.356 684.855 41.496 685.312 41.776C685.779 42.056 686.134 42.4527 686.376 42.966C686.628 43.47 686.754 44.0627 686.754 44.744V45.486H681.616C681.635 46.3353 681.85 46.984 682.26 47.432C682.68 47.8707 683.264 48.09 684.01 48.09C684.486 48.09 684.906 48.048 685.27 47.964C685.644 47.8707 686.026 47.74 686.418 47.572V48.65C686.036 48.818 685.658 48.9393 685.284 49.014C684.911 49.098 684.468 49.14 683.954 49.14C683.245 49.14 682.615 48.9953 682.064 48.706C681.523 48.4167 681.098 47.9873 680.79 47.418C680.492 46.8393 680.342 46.1347 680.342 45.304C680.342 44.4827 680.478 43.778 680.748 43.19C681.028 42.602 681.416 42.1493 681.91 41.832C682.414 41.5147 682.998 41.356 683.66 41.356ZM683.646 42.364C683.058 42.364 682.592 42.5553 682.246 42.938C681.91 43.3113 681.71 43.834 681.644 44.506H685.466C685.457 43.8713 685.308 43.358 685.018 42.966C684.729 42.5647 684.272 42.364 683.646 42.364ZM689.897 49H688.665V38.36H689.897V49ZM205.447 60.356C206.297 60.356 206.931 60.5753 207.351 61.014C207.771 61.4433 207.981 62.1433 207.981 63.114V68H206.763V63.17C206.763 61.9847 206.255 61.392 205.237 61.392C204.509 61.392 203.987 61.602 203.669 62.022C203.361 62.442 203.207 63.0533 203.207 63.856V68H201.989V63.17C201.989 61.9847 201.476 61.392 200.449 61.392C199.693 61.392 199.171 61.6253 198.881 62.092C198.592 62.5587 198.447 63.2307 198.447 64.108V68H197.215V60.496H198.209L198.391 61.518H198.461C198.695 61.126 199.007 60.8367 199.399 60.65C199.801 60.454 200.225 60.356 200.673 60.356C201.849 60.356 202.615 60.776 202.969 61.616H203.039C203.291 61.1867 203.632 60.8693 204.061 60.664C204.5 60.4587 204.962 60.356 205.447 60.356ZM213.197 60.356C213.841 60.356 214.392 60.496 214.849 60.776C215.316 61.056 215.671 61.4527 215.913 61.966C216.165 62.47 216.291 63.0627 216.291 63.744V64.486H211.153C211.172 65.3353 211.387 65.984 211.797 66.432C212.217 66.8707 212.801 67.09 213.547 67.09C214.023 67.09 214.443 67.048 214.807 66.964C215.181 66.8707 215.563 66.74 215.955 66.572V67.65C215.573 67.818 215.195 67.9393 214.821 68.014C214.448 68.098 214.005 68.14 213.491 68.14C212.782 68.14 212.152 67.9953 211.601 67.706C211.06 67.4167 210.635 66.9873 210.327 66.418C210.029 65.8393 209.879 65.1347 209.879 64.304C209.879 63.4827 210.015 62.778 210.285 62.19C210.565 61.602 210.953 61.1493 211.447 60.832C211.951 60.5147 212.535 60.356 213.197 60.356ZM213.183 61.364C212.595 61.364 212.129 61.5553 211.783 61.938C211.447 62.3113 211.247 62.834 211.181 63.506H215.003C214.994 62.8713 214.845 62.358 214.555 61.966C214.266 61.5647 213.809 61.364 213.183 61.364ZM221.702 60.356C221.842 60.356 221.991 60.3653 222.15 60.384C222.318 60.3933 222.462 60.412 222.584 60.44L222.43 61.574C222.308 61.546 222.173 61.5227 222.024 61.504C221.884 61.4853 221.748 61.476 221.618 61.476C221.235 61.476 220.876 61.5833 220.54 61.798C220.204 62.0033 219.933 62.2973 219.728 62.68C219.532 63.0533 219.434 63.492 219.434 63.996V68H218.202V60.496H219.21L219.35 61.868H219.406C219.648 61.4573 219.961 61.1027 220.344 60.804C220.726 60.5053 221.179 60.356 221.702 60.356ZM226.721 68.14C226.059 68.14 225.466 68.0047 224.943 67.734C224.43 67.4633 224.024 67.0433 223.725 66.474C223.436 65.9047 223.291 65.1767 223.291 64.29C223.291 63.366 223.445 62.6147 223.753 62.036C224.061 61.4573 224.477 61.0327 224.999 60.762C225.531 60.4913 226.133 60.356 226.805 60.356C227.188 60.356 227.557 60.398 227.911 60.482C228.266 60.5567 228.555 60.65 228.779 60.762L228.401 61.784C228.177 61.7 227.916 61.6207 227.617 61.546C227.319 61.4713 227.039 61.434 226.777 61.434C225.303 61.434 224.565 62.3813 224.565 64.276C224.565 65.1813 224.743 65.8767 225.097 66.362C225.461 66.838 225.998 67.076 226.707 67.076C227.118 67.076 227.477 67.034 227.785 66.95C228.103 66.866 228.392 66.7633 228.653 66.642V67.734C228.401 67.8647 228.121 67.9627 227.813 68.028C227.515 68.1027 227.151 68.14 226.721 68.14ZM233.28 60.37C234.195 60.37 234.871 60.5707 235.31 60.972C235.749 61.3733 235.968 62.0127 235.968 62.89V68H235.072L234.834 66.936H234.778C234.451 67.3467 234.106 67.65 233.742 67.846C233.387 68.042 232.893 68.14 232.258 68.14C231.577 68.14 231.012 67.9627 230.564 67.608C230.116 67.244 229.892 66.6793 229.892 65.914C229.892 65.1673 230.186 64.5933 230.774 64.192C231.362 63.7813 232.267 63.5573 233.49 63.52L234.764 63.478V63.03C234.764 62.4047 234.629 61.9707 234.358 61.728C234.087 61.4853 233.705 61.364 233.21 61.364C232.818 61.364 232.445 61.4247 232.09 61.546C231.735 61.658 231.404 61.7887 231.096 61.938L230.718 61.014C231.045 60.8367 231.432 60.6873 231.88 60.566C232.328 60.4353 232.795 60.37 233.28 60.37ZM234.75 64.332L233.644 64.374C232.711 64.4113 232.062 64.5607 231.698 64.822C231.343 65.0833 231.166 65.452 231.166 65.928C231.166 66.348 231.292 66.656 231.544 66.852C231.805 67.048 232.137 67.146 232.538 67.146C233.173 67.146 233.7 66.9733 234.12 66.628C234.54 66.2733 234.75 65.732 234.75 65.004V64.332ZM240.946 68.14C240.012 68.14 239.266 67.818 238.706 67.174C238.146 66.5207 237.866 65.55 237.866 64.262C237.866 62.974 238.146 62.0033 238.706 61.35C239.275 60.6873 240.026 60.356 240.96 60.356C241.538 60.356 242.01 60.4633 242.374 60.678C242.747 60.8927 243.05 61.154 243.284 61.462H243.368C243.358 61.3407 243.34 61.1633 243.312 60.93C243.293 60.6873 243.284 60.496 243.284 60.356V57.36H244.516V68H243.522L243.34 66.992H243.284C243.06 67.3093 242.761 67.58 242.388 67.804C242.014 68.028 241.534 68.14 240.946 68.14ZM241.142 67.118C241.935 67.118 242.49 66.9033 242.808 66.474C243.134 66.0353 243.298 65.3773 243.298 64.5V64.276C243.298 63.3427 243.144 62.6287 242.836 62.134C242.528 61.63 241.958 61.378 241.128 61.378C240.465 61.378 239.966 61.644 239.63 62.176C239.303 62.6987 239.14 63.4033 239.14 64.29C239.14 65.186 239.303 65.8813 239.63 66.376C239.966 66.8707 240.47 67.118 241.142 67.118ZM253.423 64.234C253.423 65.4753 253.106 66.4367 252.471 67.118C251.846 67.7993 250.996 68.14 249.923 68.14C249.26 68.14 248.668 67.9907 248.145 67.692C247.632 67.384 247.226 66.9407 246.927 66.362C246.628 65.774 246.479 65.0647 246.479 64.234C246.479 62.9927 246.792 62.036 247.417 61.364C248.042 60.692 248.892 60.356 249.965 60.356C250.646 60.356 251.244 60.51 251.757 60.818C252.28 61.1167 252.686 61.5553 252.975 62.134C253.274 62.7033 253.423 63.4033 253.423 64.234ZM247.753 64.234C247.753 65.1207 247.926 65.8253 248.271 66.348C248.626 66.8613 249.186 67.118 249.951 67.118C250.707 67.118 251.262 66.8613 251.617 66.348C251.972 65.8253 252.149 65.1207 252.149 64.234C252.149 63.3473 251.972 62.652 251.617 62.148C251.262 61.644 250.702 61.392 249.937 61.392C249.172 61.392 248.616 61.644 248.271 62.148C247.926 62.652 247.753 63.3473 247.753 64.234ZM260.244 68H259.012V57.36H260.244V68ZM265.464 60.37C266.378 60.37 267.055 60.5707 267.494 60.972C267.932 61.3733 268.152 62.0127 268.152 62.89V68H267.256L267.018 66.936H266.962C266.635 67.3467 266.29 67.65 265.926 67.846C265.571 68.042 265.076 68.14 264.442 68.14C263.76 68.14 263.196 67.9627 262.748 67.608C262.3 67.244 262.076 66.6793 262.076 65.914C262.076 65.1673 262.37 64.5933 262.958 64.192C263.546 63.7813 264.451 63.5573 265.674 63.52L266.948 63.478V63.03C266.948 62.4047 266.812 61.9707 266.542 61.728C266.271 61.4853 265.888 61.364 265.394 61.364C265.002 61.364 264.628 61.4247 264.274 61.546C263.919 61.658 263.588 61.7887 263.28 61.938L262.902 61.014C263.228 60.8367 263.616 60.6873 264.064 60.566C264.512 60.4353 264.978 60.37 265.464 60.37ZM266.934 64.332L265.828 64.374C264.894 64.4113 264.246 64.5607 263.882 64.822C263.527 65.0833 263.35 65.452 263.35 65.928C263.35 66.348 263.476 66.656 263.728 66.852C263.989 67.048 264.32 67.146 264.722 67.146C265.356 67.146 265.884 66.9733 266.304 66.628C266.724 66.2733 266.934 65.732 266.934 65.004V64.332ZM271.701 57.36V59.95C271.701 60.2673 271.692 60.566 271.673 60.846C271.664 61.1167 271.65 61.3313 271.631 61.49H271.701C271.916 61.1727 272.21 60.9067 272.583 60.692C272.957 60.4773 273.437 60.37 274.025 60.37C274.959 60.37 275.705 60.6967 276.265 61.35C276.835 61.994 277.119 62.96 277.119 64.248C277.119 65.536 276.835 66.5067 276.265 67.16C275.696 67.8133 274.949 68.14 274.025 68.14C273.437 68.14 272.957 68.0327 272.583 67.818C272.21 67.6033 271.916 67.3467 271.701 67.048H271.603L271.351 68H270.469V57.36H271.701ZM273.815 61.392C273.022 61.392 272.471 61.6207 272.163 62.078C271.855 62.5353 271.701 63.2447 271.701 64.206V64.262C271.701 65.186 271.851 65.8953 272.149 66.39C272.457 66.8753 273.022 67.118 273.843 67.118C274.515 67.118 275.015 66.8707 275.341 66.376C275.677 65.8813 275.845 65.1673 275.845 64.234C275.845 62.3393 275.169 61.392 273.815 61.392ZM285.607 64.234C285.607 65.4753 285.289 66.4367 284.655 67.118C284.029 67.7993 283.18 68.14 282.107 68.14C281.444 68.14 280.851 67.9907 280.329 67.692C279.815 67.384 279.409 66.9407 279.111 66.362C278.812 65.774 278.663 65.0647 278.663 64.234C278.663 62.9927 278.975 62.036 279.601 61.364C280.226 60.692 281.075 60.356 282.149 60.356C282.83 60.356 283.427 60.51 283.941 60.818C284.463 61.1167 284.869 61.5553 285.159 62.134C285.457 62.7033 285.607 63.4033 285.607 64.234ZM279.937 64.234C279.937 65.1207 280.109 65.8253 280.455 66.348C280.809 66.8613 281.369 67.118 282.135 67.118C282.891 67.118 283.446 66.8613 283.801 66.348C284.155 65.8253 284.333 65.1207 284.333 64.234C284.333 63.3473 284.155 62.652 283.801 62.148C283.446 61.644 282.886 61.392 282.121 61.392C281.355 61.392 280.8 61.644 280.455 62.148C280.109 62.652 279.937 63.3473 279.937 64.234ZM291.059 60.356C291.199 60.356 291.348 60.3653 291.507 60.384C291.675 60.3933 291.82 60.412 291.941 60.44L291.787 61.574C291.666 61.546 291.53 61.5227 291.381 61.504C291.241 61.4853 291.106 61.476 290.975 61.476C290.592 61.476 290.233 61.5833 289.897 61.798C289.561 62.0033 289.29 62.2973 289.085 62.68C288.889 63.0533 288.791 63.492 288.791 63.996V68H287.559V60.496H288.567L288.707 61.868H288.763C289.006 61.4573 289.318 61.1027 289.701 60.804C290.084 60.5053 290.536 60.356 291.059 60.356ZM295.911 60.37C296.826 60.37 297.502 60.5707 297.941 60.972C298.38 61.3733 298.599 62.0127 298.599 62.89V68H297.703L297.465 66.936H297.409C297.082 67.3467 296.737 67.65 296.373 67.846C296.018 68.042 295.524 68.14 294.889 68.14C294.208 68.14 293.643 67.9627 293.195 67.608C292.747 67.244 292.523 66.6793 292.523 65.914C292.523 65.1673 292.817 64.5933 293.405 64.192C293.993 63.7813 294.898 63.5573 296.121 63.52L297.395 63.478V63.03C297.395 62.4047 297.26 61.9707 296.989 61.728C296.718 61.4853 296.336 61.364 295.841 61.364C295.449 61.364 295.076 61.4247 294.721 61.546C294.366 61.658 294.035 61.7887 293.727 61.938L293.349 61.014C293.676 60.8367 294.063 60.6873 294.511 60.566C294.959 60.4353 295.426 60.37 295.911 60.37ZM297.381 64.332L296.275 64.374C295.342 64.4113 294.693 64.5607 294.329 64.822C293.974 65.0833 293.797 65.452 293.797 65.928C293.797 66.348 293.923 66.656 294.175 66.852C294.436 67.048 294.768 67.146 295.169 67.146C295.804 67.146 296.331 66.9733 296.751 66.628C297.171 66.2733 297.381 65.732 297.381 65.004V64.332ZM302.149 68H300.917V57.36H302.149V68ZM311.005 60.37C311.919 60.37 312.596 60.5707 313.035 60.972C313.473 61.3733 313.693 62.0127 313.693 62.89V68H312.797L312.559 66.936H312.503C312.176 67.3467 311.831 67.65 311.467 67.846C311.112 68.042 310.617 68.14 309.983 68.14C309.301 68.14 308.737 67.9627 308.289 67.608C307.841 67.244 307.617 66.6793 307.617 65.914C307.617 65.1673 307.911 64.5933 308.499 64.192C309.087 63.7813 309.992 63.5573 311.215 63.52L312.489 63.478V63.03C312.489 62.4047 312.353 61.9707 312.083 61.728C311.812 61.4853 311.429 61.364 310.935 61.364C310.543 61.364 310.169 61.4247 309.815 61.546C309.46 61.658 309.129 61.7887 308.821 61.938L308.443 61.014C308.769 60.8367 309.157 60.6873 309.605 60.566C310.053 60.4353 310.519 60.37 311.005 60.37ZM312.475 64.332L311.369 64.374C310.435 64.4113 309.787 64.5607 309.423 64.822C309.068 65.0833 308.891 65.452 308.891 65.928C308.891 66.348 309.017 66.656 309.269 66.852C309.53 67.048 309.861 67.146 310.263 67.146C310.897 67.146 311.425 66.9733 311.845 66.628C312.265 66.2733 312.475 65.732 312.475 65.004V64.332ZM323.259 60.356C324.155 60.356 324.832 60.5753 325.289 61.014C325.746 61.4433 325.975 62.1433 325.975 63.114V68H324.757V63.198C324.757 61.994 324.197 61.392 323.077 61.392C322.246 61.392 321.672 61.6253 321.355 62.092C321.038 62.5587 320.879 63.2307 320.879 64.108V68H319.647V60.496H320.641L320.823 61.518H320.893C321.136 61.126 321.472 60.8367 321.901 60.65C322.33 60.454 322.783 60.356 323.259 60.356ZM328.931 57.682C329.118 57.682 329.281 57.7473 329.421 57.878C329.571 57.9993 329.645 58.1953 329.645 58.466C329.645 58.7273 329.571 58.9233 329.421 59.054C329.281 59.1847 329.118 59.25 328.931 59.25C328.726 59.25 328.553 59.1847 328.413 59.054C328.273 58.9233 328.203 58.7273 328.203 58.466C328.203 58.1953 328.273 57.9993 328.413 57.878C328.553 57.7473 328.726 57.682 328.931 57.682ZM329.533 60.496V68H328.301V60.496H329.533ZM333.563 68L330.721 60.496H332.037L333.633 64.92C333.707 65.1253 333.787 65.354 333.871 65.606C333.955 65.858 334.029 66.1007 334.095 66.334C334.16 66.558 334.207 66.7493 334.235 66.908H334.291C334.328 66.7493 334.379 66.5533 334.445 66.32C334.519 66.0867 334.599 65.844 334.683 65.592C334.776 65.34 334.855 65.116 334.921 64.92L336.517 60.496H337.833L334.977 68H333.563ZM341.918 60.356C342.562 60.356 343.113 60.496 343.57 60.776C344.037 61.056 344.391 61.4527 344.634 61.966C344.886 62.47 345.012 63.0627 345.012 63.744V64.486H339.874C339.893 65.3353 340.107 65.984 340.518 66.432C340.938 66.8707 341.521 67.09 342.268 67.09C342.744 67.09 343.164 67.048 343.528 66.964C343.901 66.8707 344.284 66.74 344.676 66.572V67.65C344.293 67.818 343.915 67.9393 343.542 68.014C343.169 68.098 342.725 68.14 342.212 68.14C341.503 68.14 340.873 67.9953 340.322 67.706C339.781 67.4167 339.356 66.9873 339.048 66.418C338.749 65.8393 338.6 65.1347 338.6 64.304C338.6 63.4827 338.735 62.778 339.006 62.19C339.286 61.602 339.673 61.1493 340.168 60.832C340.672 60.5147 341.255 60.356 341.918 60.356ZM341.904 61.364C341.316 61.364 340.849 61.5553 340.504 61.938C340.168 62.3113 339.967 62.834 339.902 63.506H343.724C343.715 62.8713 343.565 62.358 343.276 61.966C342.987 61.5647 342.529 61.364 341.904 61.364ZM348.154 68H346.922V57.36H348.154V68ZM356.829 68.14C355.895 68.14 355.149 67.818 354.589 67.174C354.029 66.5207 353.749 65.55 353.749 64.262C353.749 62.974 354.029 62.0033 354.589 61.35C355.158 60.6873 355.909 60.356 356.843 60.356C357.421 60.356 357.893 60.4633 358.257 60.678C358.63 60.8927 358.933 61.154 359.167 61.462H359.251C359.241 61.3407 359.223 61.1633 359.195 60.93C359.176 60.6873 359.167 60.496 359.167 60.356V57.36H360.399V68H359.405L359.223 66.992H359.167C358.943 67.3093 358.644 67.58 358.271 67.804C357.897 68.028 357.417 68.14 356.829 68.14ZM357.025 67.118C357.818 67.118 358.373 66.9033 358.691 66.474C359.017 66.0353 359.181 65.3773 359.181 64.5V64.276C359.181 63.3427 359.027 62.6287 358.719 62.134C358.411 61.63 357.841 61.378 357.011 61.378C356.348 61.378 355.849 61.644 355.513 62.176C355.186 62.6987 355.023 63.4033 355.023 64.29C355.023 65.186 355.186 65.8813 355.513 66.376C355.849 66.8707 356.353 67.118 357.025 67.118ZM365.68 60.356C366.324 60.356 366.874 60.496 367.332 60.776C367.798 61.056 368.153 61.4527 368.396 61.966C368.648 62.47 368.774 63.0627 368.774 63.744V64.486H363.636C363.654 65.3353 363.869 65.984 364.28 66.432C364.7 66.8707 365.283 67.09 366.03 67.09C366.506 67.09 366.926 67.048 367.29 66.964C367.663 66.8707 368.046 66.74 368.438 66.572V67.65C368.055 67.818 367.677 67.9393 367.304 68.014C366.93 68.098 366.487 68.14 365.974 68.14C365.264 68.14 364.634 67.9953 364.084 67.706C363.542 67.4167 363.118 66.9873 362.81 66.418C362.511 65.8393 362.362 65.1347 362.362 64.304C362.362 63.4827 362.497 62.778 362.768 62.19C363.048 61.602 363.435 61.1493 363.93 60.832C364.434 60.5147 365.017 60.356 365.68 60.356ZM365.666 61.364C365.078 61.364 364.611 61.5553 364.266 61.938C363.93 62.3113 363.729 62.834 363.664 63.506H367.486C367.476 62.8713 367.327 62.358 367.038 61.966C366.748 61.5647 366.291 61.364 365.666 61.364ZM379.207 65.928C379.207 66.656 378.936 67.2067 378.395 67.58C377.854 67.9533 377.126 68.14 376.211 68.14C375.688 68.14 375.236 68.098 374.853 68.014C374.48 67.93 374.148 67.8133 373.859 67.664V66.544C374.158 66.6933 374.517 66.8333 374.937 66.964C375.366 67.0853 375.8 67.146 376.239 67.146C376.864 67.146 377.317 67.048 377.597 66.852C377.877 66.6467 378.017 66.376 378.017 66.04C378.017 65.8533 377.966 65.6853 377.863 65.536C377.76 65.3867 377.574 65.2373 377.303 65.088C377.042 64.9387 376.664 64.7707 376.169 64.584C375.684 64.3973 375.268 64.2107 374.923 64.024C374.578 63.8373 374.312 63.6133 374.125 63.352C373.938 63.0907 373.845 62.7547 373.845 62.344C373.845 61.7093 374.102 61.2193 374.615 60.874C375.138 60.5287 375.819 60.356 376.659 60.356C377.116 60.356 377.541 60.4027 377.933 60.496C378.334 60.58 378.708 60.7013 379.053 60.86L378.633 61.84C378.316 61.7093 377.984 61.5973 377.639 61.504C377.294 61.4107 376.939 61.364 376.575 61.364C376.071 61.364 375.684 61.448 375.413 61.616C375.152 61.7747 375.021 61.994 375.021 62.274C375.021 62.4793 375.082 62.6567 375.203 62.806C375.324 62.946 375.525 63.086 375.805 63.226C376.094 63.3567 376.477 63.5153 376.953 63.702C377.429 63.8793 377.835 64.0613 378.171 64.248C378.507 64.4347 378.764 64.6633 378.941 64.934C379.118 65.1953 379.207 65.5267 379.207 65.928ZM383.918 60.356C384.562 60.356 385.113 60.496 385.57 60.776C386.037 61.056 386.391 61.4527 386.634 61.966C386.886 62.47 387.012 63.0627 387.012 63.744V64.486H381.874C381.893 65.3353 382.107 65.984 382.518 66.432C382.938 66.8707 383.521 67.09 384.268 67.09C384.744 67.09 385.164 67.048 385.528 66.964C385.901 66.8707 386.284 66.74 386.676 66.572V67.65C386.293 67.818 385.915 67.9393 385.542 68.014C385.169 68.098 384.725 68.14 384.212 68.14C383.503 68.14 382.873 67.9953 382.322 67.706C381.781 67.4167 381.356 66.9873 381.048 66.418C380.749 65.8393 380.6 65.1347 380.6 64.304C380.6 63.4827 380.735 62.778 381.006 62.19C381.286 61.602 381.673 61.1493 382.168 60.832C382.672 60.5147 383.255 60.356 383.918 60.356ZM383.904 61.364C383.316 61.364 382.849 61.5553 382.504 61.938C382.168 62.3113 381.967 62.834 381.902 63.506H385.724C385.715 62.8713 385.565 62.358 385.276 61.966C384.987 61.5647 384.529 61.364 383.904 61.364ZM391.932 68.14C391.27 68.14 390.677 68.0047 390.154 67.734C389.641 67.4633 389.235 67.0433 388.936 66.474C388.647 65.9047 388.502 65.1767 388.502 64.29C388.502 63.366 388.656 62.6147 388.964 62.036C389.272 61.4573 389.688 61.0327 390.21 60.762C390.742 60.4913 391.344 60.356 392.016 60.356C392.399 60.356 392.768 60.398 393.122 60.482C393.477 60.5567 393.766 60.65 393.99 60.762L393.612 61.784C393.388 61.7 393.127 61.6207 392.828 61.546C392.53 61.4713 392.25 61.434 391.988 61.434C390.514 61.434 389.776 62.3813 389.776 64.276C389.776 65.1813 389.954 65.8767 390.308 66.362C390.672 66.838 391.209 67.076 391.918 67.076C392.329 67.076 392.688 67.034 392.996 66.95C393.314 66.866 393.603 66.7633 393.864 66.642V67.734C393.612 67.8647 393.332 67.9627 393.024 68.028C392.726 68.1027 392.362 68.14 391.932 68.14ZM398.155 67.132C398.342 67.132 398.533 67.118 398.729 67.09C398.925 67.0527 399.084 67.0153 399.205 66.978V67.916C399.074 67.9813 398.888 68.0327 398.645 68.07C398.402 68.1167 398.169 68.14 397.945 68.14C397.553 68.14 397.189 68.0747 396.853 67.944C396.526 67.804 396.26 67.566 396.055 67.23C395.85 66.894 395.747 66.4227 395.747 65.816V61.448H394.683V60.86L395.761 60.37L396.251 58.774H396.979V60.496H399.149V61.448H396.979V65.788C396.979 66.2453 397.086 66.586 397.301 66.81C397.525 67.0247 397.81 67.132 398.155 67.132ZM407.232 64.234C407.232 65.4753 406.914 66.4367 406.28 67.118C405.654 67.7993 404.805 68.14 403.732 68.14C403.069 68.14 402.476 67.9907 401.954 67.692C401.44 67.384 401.034 66.9407 400.736 66.362C400.437 65.774 400.288 65.0647 400.288 64.234C400.288 62.9927 400.6 62.036 401.226 61.364C401.851 60.692 402.7 60.356 403.774 60.356C404.455 60.356 405.052 60.51 405.566 60.818C406.088 61.1167 406.494 61.5553 406.784 62.134C407.082 62.7033 407.232 63.4033 407.232 64.234ZM401.562 64.234C401.562 65.1207 401.734 65.8253 402.08 66.348C402.434 66.8613 402.994 67.118 403.76 67.118C404.516 67.118 405.071 66.8613 405.426 66.348C405.78 65.8253 405.958 65.1207 405.958 64.234C405.958 63.3473 405.78 62.652 405.426 62.148C405.071 61.644 404.511 61.392 403.746 61.392C402.98 61.392 402.425 61.644 402.08 62.148C401.734 62.652 401.562 63.3473 401.562 64.234ZM412.684 60.356C412.824 60.356 412.973 60.3653 413.132 60.384C413.3 60.3933 413.445 60.412 413.566 60.44L413.412 61.574C413.291 61.546 413.155 61.5227 413.006 61.504C412.866 61.4853 412.731 61.476 412.6 61.476C412.217 61.476 411.858 61.5833 411.522 61.798C411.186 62.0033 410.915 62.2973 410.71 62.68C410.514 63.0533 410.416 63.492 410.416 63.996V68H409.184V60.496H410.192L410.332 61.868H410.388C410.631 61.4573 410.943 61.1027 411.326 60.804C411.709 60.5053 412.161 60.356 412.684 60.356ZM417.592 60.356C418.236 60.356 418.787 60.496 419.244 60.776C419.711 61.056 420.065 61.4527 420.308 61.966C420.56 62.47 420.686 63.0627 420.686 63.744V64.486H415.548C415.567 65.3353 415.781 65.984 416.192 66.432C416.612 66.8707 417.195 67.09 417.942 67.09C418.418 67.09 418.838 67.048 419.202 66.964C419.575 66.8707 419.958 66.74 420.35 66.572V67.65C419.967 67.818 419.589 67.9393 419.216 68.014C418.843 68.098 418.399 68.14 417.886 68.14C417.177 68.14 416.547 67.9953 415.996 67.706C415.455 67.4167 415.03 66.9873 414.722 66.418C414.423 65.8393 414.274 65.1347 414.274 64.304C414.274 63.4827 414.409 62.778 414.68 62.19C414.96 61.602 415.347 61.1493 415.842 60.832C416.346 60.5147 416.929 60.356 417.592 60.356ZM417.578 61.364C416.99 61.364 416.523 61.5553 416.178 61.938C415.842 62.3113 415.641 62.834 415.576 63.506H419.398C419.389 62.8713 419.239 62.358 418.95 61.966C418.661 61.5647 418.203 61.364 417.578 61.364ZM427.482 65.928C427.482 66.656 427.212 67.2067 426.67 67.58C426.129 67.9533 425.401 68.14 424.486 68.14C423.964 68.14 423.511 68.098 423.128 68.014C422.755 67.93 422.424 67.8133 422.134 67.664V66.544C422.433 66.6933 422.792 66.8333 423.212 66.964C423.642 67.0853 424.076 67.146 424.514 67.146C425.14 67.146 425.592 67.048 425.872 66.852C426.152 66.6467 426.292 66.376 426.292 66.04C426.292 65.8533 426.241 65.6853 426.138 65.536C426.036 65.3867 425.849 65.2373 425.578 65.088C425.317 64.9387 424.939 64.7707 424.444 64.584C423.959 64.3973 423.544 64.2107 423.198 64.024C422.853 63.8373 422.587 63.6133 422.4 63.352C422.214 63.0907 422.12 62.7547 422.12 62.344C422.12 61.7093 422.377 61.2193 422.89 60.874C423.413 60.5287 424.094 60.356 424.934 60.356C425.392 60.356 425.816 60.4027 426.208 60.496C426.61 60.58 426.983 60.7013 427.328 60.86L426.908 61.84C426.591 61.7093 426.26 61.5973 425.914 61.504C425.569 61.4107 425.214 61.364 424.85 61.364C424.346 61.364 423.959 61.448 423.688 61.616C423.427 61.7747 423.296 61.994 423.296 62.274C423.296 62.4793 423.357 62.6567 423.478 62.806C423.6 62.946 423.8 63.086 424.08 63.226C424.37 63.3567 424.752 63.5153 425.228 63.702C425.704 63.8793 426.11 64.0613 426.446 64.248C426.782 64.4347 427.039 64.6633 427.216 64.934C427.394 65.1953 427.482 65.5267 427.482 65.928ZM430.695 66.376L430.793 66.53C430.672 67.0247 430.495 67.566 430.261 68.154C430.037 68.7513 429.813 69.302 429.589 69.806H428.679C428.81 69.274 428.941 68.6907 429.071 68.056C429.211 67.4213 429.314 66.8613 429.379 66.376H430.695ZM443.202 64.234C443.202 65.4753 442.885 66.4367 442.25 67.118C441.625 67.7993 440.776 68.14 439.702 68.14C439.04 68.14 438.447 67.9907 437.924 67.692C437.411 67.384 437.005 66.9407 436.706 66.362C436.408 65.774 436.258 65.0647 436.258 64.234C436.258 62.9927 436.571 62.036 437.196 61.364C437.822 60.692 438.671 60.356 439.744 60.356C440.426 60.356 441.023 60.51 441.536 60.818C442.059 61.1167 442.465 61.5553 442.754 62.134C443.053 62.7033 443.202 63.4033 443.202 64.234ZM437.532 64.234C437.532 65.1207 437.705 65.8253 438.05 66.348C438.405 66.8613 438.965 67.118 439.73 67.118C440.486 67.118 441.042 66.8613 441.396 66.348C441.751 65.8253 441.928 65.1207 441.928 64.234C441.928 63.3473 441.751 62.652 441.396 62.148C441.042 61.644 440.482 61.392 439.716 61.392C438.951 61.392 438.396 61.644 438.05 62.148C437.705 62.652 437.532 63.3473 437.532 64.234ZM448.165 68.14C447.502 68.14 446.91 68.0047 446.387 67.734C445.874 67.4633 445.468 67.0433 445.169 66.474C444.88 65.9047 444.735 65.1767 444.735 64.29C444.735 63.366 444.889 62.6147 445.197 62.036C445.505 61.4573 445.92 61.0327 446.443 60.762C446.975 60.4913 447.577 60.356 448.249 60.356C448.632 60.356 449 60.398 449.355 60.482C449.71 60.5567 449.999 60.65 450.223 60.762L449.845 61.784C449.621 61.7 449.36 61.6207 449.061 61.546C448.762 61.4713 448.482 61.434 448.221 61.434C446.746 61.434 446.009 62.3813 446.009 64.276C446.009 65.1813 446.186 65.8767 446.541 66.362C446.905 66.838 447.442 67.076 448.151 67.076C448.562 67.076 448.921 67.034 449.229 66.95C449.546 66.866 449.836 66.7633 450.097 66.642V67.734C449.845 67.8647 449.565 67.9627 449.257 68.028C448.958 68.1027 448.594 68.14 448.165 68.14ZM458.153 60.496V68H457.145L456.963 67.006H456.907C456.665 67.398 456.329 67.6873 455.899 67.874C455.47 68.0513 455.013 68.14 454.527 68.14C453.622 68.14 452.941 67.9253 452.483 67.496C452.026 67.0573 451.797 66.362 451.797 65.41V60.496H453.043V65.326C453.043 66.5207 453.599 67.118 454.709 67.118C455.54 67.118 456.114 66.8847 456.431 66.418C456.758 65.9513 456.921 65.2793 456.921 64.402V60.496H458.153ZM464.106 60.356C465.03 60.356 465.772 60.678 466.332 61.322C466.901 61.966 467.186 62.9367 467.186 64.234C467.186 65.5127 466.901 66.4833 466.332 67.146C465.772 67.8087 465.025 68.14 464.092 68.14C463.513 68.14 463.032 68.0327 462.65 67.818C462.276 67.594 461.982 67.3373 461.768 67.048H461.684C461.702 67.2067 461.721 67.4073 461.74 67.65C461.758 67.8927 461.768 68.1027 461.768 68.28V71.36H460.536V60.496H461.544L461.712 61.518H461.768C461.992 61.1913 462.286 60.916 462.65 60.692C463.014 60.468 463.499 60.356 464.106 60.356ZM463.882 61.392C463.116 61.392 462.575 61.6067 462.258 62.036C461.95 62.4653 461.786 63.1187 461.768 63.996V64.234C461.768 65.158 461.917 65.872 462.216 66.376C462.524 66.8707 463.088 67.118 463.91 67.118C464.367 67.118 464.74 66.992 465.03 66.74C465.328 66.488 465.548 66.1473 465.688 65.718C465.837 65.2793 465.912 64.78 465.912 64.22C465.912 63.3613 465.744 62.6753 465.408 62.162C465.081 61.6487 464.572 61.392 463.882 61.392ZM471.991 60.37C472.906 60.37 473.582 60.5707 474.021 60.972C474.46 61.3733 474.679 62.0127 474.679 62.89V68H473.783L473.545 66.936H473.489C473.162 67.3467 472.817 67.65 472.453 67.846C472.098 68.042 471.604 68.14 470.969 68.14C470.288 68.14 469.723 67.9627 469.275 67.608C468.827 67.244 468.603 66.6793 468.603 65.914C468.603 65.1673 468.897 64.5933 469.485 64.192C470.073 63.7813 470.978 63.5573 472.201 63.52L473.475 63.478V63.03C473.475 62.4047 473.34 61.9707 473.069 61.728C472.798 61.4853 472.416 61.364 471.921 61.364C471.529 61.364 471.156 61.4247 470.801 61.546C470.446 61.658 470.115 61.7887 469.807 61.938L469.429 61.014C469.756 60.8367 470.143 60.6873 470.591 60.566C471.039 60.4353 471.506 60.37 471.991 60.37ZM473.461 64.332L472.355 64.374C471.422 64.4113 470.773 64.5607 470.409 64.822C470.054 65.0833 469.877 65.452 469.877 65.928C469.877 66.348 470.003 66.656 470.255 66.852C470.516 67.048 470.848 67.146 471.249 67.146C471.884 67.146 472.411 66.9733 472.831 66.628C473.251 66.2733 473.461 65.732 473.461 65.004V64.332ZM480.007 68.14C479.344 68.14 478.751 68.0047 478.229 67.734C477.715 67.4633 477.309 67.0433 477.011 66.474C476.721 65.9047 476.577 65.1767 476.577 64.29C476.577 63.366 476.731 62.6147 477.039 62.036C477.347 61.4573 477.762 61.0327 478.285 60.762C478.817 60.4913 479.419 60.356 480.091 60.356C480.473 60.356 480.842 60.398 481.197 60.482C481.551 60.5567 481.841 60.65 482.065 60.762L481.687 61.784C481.463 61.7 481.201 61.6207 480.903 61.546C480.604 61.4713 480.324 61.434 480.063 61.434C478.588 61.434 477.851 62.3813 477.851 64.276C477.851 65.1813 478.028 65.8767 478.383 66.362C478.747 66.838 479.283 67.076 479.993 67.076C480.403 67.076 480.763 67.034 481.071 66.95C481.388 66.866 481.677 66.7633 481.939 66.642V67.734C481.687 67.8647 481.407 67.9627 481.099 68.028C480.8 68.1027 480.436 68.14 480.007 68.14ZM484.353 57.682C484.54 57.682 484.703 57.7473 484.843 57.878C484.993 57.9993 485.067 58.1953 485.067 58.466C485.067 58.7273 484.993 58.9233 484.843 59.054C484.703 59.1847 484.54 59.25 484.353 59.25C484.148 59.25 483.975 59.1847 483.835 59.054C483.695 58.9233 483.625 58.7273 483.625 58.466C483.625 58.1953 483.695 57.9993 483.835 57.878C483.975 57.7473 484.148 57.682 484.353 57.682ZM484.955 60.496V68H483.723V60.496H484.955ZM493.857 64.234C493.857 65.4753 493.539 66.4367 492.905 67.118C492.279 67.7993 491.43 68.14 490.357 68.14C489.694 68.14 489.101 67.9907 488.579 67.692C488.065 67.384 487.659 66.9407 487.361 66.362C487.062 65.774 486.913 65.0647 486.913 64.234C486.913 62.9927 487.225 62.036 487.851 61.364C488.476 60.692 489.325 60.356 490.399 60.356C491.08 60.356 491.677 60.51 492.191 60.818C492.713 61.1167 493.119 61.5553 493.409 62.134C493.707 62.7033 493.857 63.4033 493.857 64.234ZM488.187 64.234C488.187 65.1207 488.359 65.8253 488.705 66.348C489.059 66.8613 489.619 67.118 490.385 67.118C491.141 67.118 491.696 66.8613 492.051 66.348C492.405 65.8253 492.583 65.1207 492.583 64.234C492.583 63.3473 492.405 62.652 492.051 62.148C491.696 61.644 491.136 61.392 490.371 61.392C489.605 61.392 489.05 61.644 488.705 62.148C488.359 62.652 488.187 63.3473 488.187 64.234ZM499.421 60.356C500.317 60.356 500.994 60.5753 501.451 61.014C501.908 61.4433 502.137 62.1433 502.137 63.114V68H500.919V63.198C500.919 61.994 500.359 61.392 499.239 61.392C498.408 61.392 497.834 61.6253 497.517 62.092C497.2 62.5587 497.041 63.2307 497.041 64.108V68H495.809V60.496H496.803L496.985 61.518H497.055C497.298 61.126 497.634 60.8367 498.063 60.65C498.492 60.454 498.945 60.356 499.421 60.356ZM507.361 60.356C508.005 60.356 508.556 60.496 509.013 60.776C509.48 61.056 509.835 61.4527 510.077 61.966C510.329 62.47 510.455 63.0627 510.455 63.744V64.486H505.317C505.336 65.3353 505.551 65.984 505.961 66.432C506.381 66.8707 506.965 67.09 507.711 67.09C508.187 67.09 508.607 67.048 508.971 66.964C509.345 66.8707 509.727 66.74 510.119 66.572V67.65C509.737 67.818 509.359 67.9393 508.985 68.014C508.612 68.098 508.169 68.14 507.655 68.14C506.946 68.14 506.316 67.9953 505.765 67.706C505.224 67.4167 504.799 66.9873 504.491 66.418C504.193 65.8393 504.043 65.1347 504.043 64.304C504.043 63.4827 504.179 62.778 504.449 62.19C504.729 61.602 505.117 61.1493 505.611 60.832C506.115 60.5147 506.699 60.356 507.361 60.356ZM507.347 61.364C506.759 61.364 506.293 61.5553 505.947 61.938C505.611 62.3113 505.411 62.834 505.345 63.506H509.167C509.158 62.8713 509.009 62.358 508.719 61.966C508.43 61.5647 507.973 61.364 507.347 61.364ZM517.252 65.928C517.252 66.656 516.981 67.2067 516.44 67.58C515.898 67.9533 515.17 68.14 514.256 68.14C513.733 68.14 513.28 68.098 512.898 68.014C512.524 67.93 512.193 67.8133 511.904 67.664V66.544C512.202 66.6933 512.562 66.8333 512.982 66.964C513.411 67.0853 513.845 67.146 514.284 67.146C514.909 67.146 515.362 67.048 515.642 66.852C515.922 66.6467 516.062 66.376 516.062 66.04C516.062 65.8533 516.01 65.6853 515.908 65.536C515.805 65.3867 515.618 65.2373 515.348 65.088C515.086 64.9387 514.708 64.7707 514.214 64.584C513.728 64.3973 513.313 64.2107 512.968 64.024C512.622 63.8373 512.356 63.6133 512.17 63.352C511.983 63.0907 511.89 62.7547 511.89 62.344C511.89 61.7093 512.146 61.2193 512.66 60.874C513.182 60.5287 513.864 60.356 514.704 60.356C515.161 60.356 515.586 60.4027 515.978 60.496C516.379 60.58 516.752 60.7013 517.098 60.86L516.678 61.84C516.36 61.7093 516.029 61.5973 515.684 61.504C515.338 61.4107 514.984 61.364 514.62 61.364C514.116 61.364 513.728 61.448 513.458 61.616C513.196 61.7747 513.066 61.994 513.066 62.274C513.066 62.4793 513.126 62.6567 513.248 62.806C513.369 62.946 513.57 63.086 513.85 63.226C514.139 63.3567 514.522 63.5153 514.998 63.702C515.474 63.8793 515.88 64.0613 516.216 64.248C516.552 64.4347 516.808 64.6633 516.986 64.934C517.163 65.1953 517.252 65.5267 517.252 65.928ZM521.526 60.496H522.842L524.466 64.766C524.606 65.1393 524.732 65.4987 524.844 65.844C524.956 66.18 525.04 66.502 525.096 66.81H525.152C525.208 66.5767 525.296 66.2733 525.418 65.9C525.539 65.5173 525.665 65.1347 525.796 64.752L527.322 60.496H528.652L525.418 69.036C525.156 69.7453 524.816 70.31 524.396 70.73C523.985 71.15 523.416 71.36 522.688 71.36C522.464 71.36 522.268 71.346 522.1 71.318C521.932 71.2993 521.787 71.276 521.666 71.248V70.268C521.768 70.2867 521.89 70.3053 522.03 70.324C522.179 70.3427 522.333 70.352 522.492 70.352C522.921 70.352 523.266 70.2307 523.528 69.988C523.798 69.7453 524.008 69.4233 524.158 69.022L524.55 68.028L521.526 60.496ZM534.707 57.36V60.482C534.707 60.8553 534.684 61.2053 534.637 61.532H534.721C534.964 61.1493 535.29 60.86 535.701 60.664C536.121 60.468 536.574 60.37 537.059 60.37C537.974 60.37 538.66 60.5893 539.117 61.028C539.574 61.4573 539.803 62.1527 539.803 63.114V68H538.585V63.198C538.585 61.994 538.025 61.392 536.905 61.392C536.065 61.392 535.486 61.63 535.169 62.106C534.861 62.5727 534.707 63.2447 534.707 64.122V68H533.475V57.36H534.707ZM544.971 60.37C545.886 60.37 546.563 60.5707 547.001 60.972C547.44 61.3733 547.659 62.0127 547.659 62.89V68H546.763L546.525 66.936H546.469C546.143 67.3467 545.797 67.65 545.433 67.846C545.079 68.042 544.584 68.14 543.949 68.14C543.268 68.14 542.703 67.9627 542.255 67.608C541.807 67.244 541.583 66.6793 541.583 65.914C541.583 65.1673 541.877 64.5933 542.465 64.192C543.053 63.7813 543.959 63.5573 545.181 63.52L546.455 63.478V63.03C546.455 62.4047 546.32 61.9707 546.049 61.728C545.779 61.4853 545.396 61.364 544.901 61.364C544.509 61.364 544.136 61.4247 543.781 61.546C543.427 61.658 543.095 61.7887 542.787 61.938L542.409 61.014C542.736 60.8367 543.123 60.6873 543.571 60.566C544.019 60.4353 544.486 60.37 544.971 60.37ZM546.441 64.332L545.335 64.374C544.402 64.4113 543.753 64.5607 543.389 64.822C543.035 65.0833 542.857 65.452 542.857 65.928C542.857 66.348 542.983 66.656 543.235 66.852C543.497 67.048 543.828 67.146 544.229 67.146C544.864 67.146 545.391 66.9733 545.811 66.628C546.231 66.2733 546.441 65.732 546.441 65.004V64.332ZM551.209 57.36V59.95C551.209 60.2673 551.2 60.566 551.181 60.846C551.172 61.1167 551.158 61.3313 551.139 61.49H551.209C551.424 61.1727 551.718 60.9067 552.091 60.692C552.464 60.4773 552.945 60.37 553.533 60.37C554.466 60.37 555.213 60.6967 555.773 61.35C556.342 61.994 556.627 62.96 556.627 64.248C556.627 65.536 556.342 66.5067 555.773 67.16C555.204 67.8133 554.457 68.14 553.533 68.14C552.945 68.14 552.464 68.0327 552.091 67.818C551.718 67.6033 551.424 67.3467 551.209 67.048H551.111L550.859 68H549.977V57.36H551.209ZM553.323 61.392C552.53 61.392 551.979 61.6207 551.671 62.078C551.363 62.5353 551.209 63.2447 551.209 64.206V64.262C551.209 65.186 551.358 65.8953 551.657 66.39C551.965 66.8753 552.53 67.118 553.351 67.118C554.023 67.118 554.522 66.8707 554.849 66.376C555.185 65.8813 555.353 65.1673 555.353 64.234C555.353 62.3393 554.676 61.392 553.323 61.392ZM559.22 57.682C559.407 57.682 559.57 57.7473 559.71 57.878C559.86 57.9993 559.934 58.1953 559.934 58.466C559.934 58.7273 559.86 58.9233 559.71 59.054C559.57 59.1847 559.407 59.25 559.22 59.25C559.015 59.25 558.842 59.1847 558.702 59.054C558.562 58.9233 558.492 58.7273 558.492 58.466C558.492 58.1953 558.562 57.9993 558.702 57.878C558.842 57.7473 559.015 57.682 559.22 57.682ZM559.822 60.496V68H558.59V60.496H559.822ZM563.432 68H562.2V57.36H563.432V68ZM566.439 57.682C566.626 57.682 566.789 57.7473 566.929 57.878C567.078 57.9993 567.153 58.1953 567.153 58.466C567.153 58.7273 567.078 58.9233 566.929 59.054C566.789 59.1847 566.626 59.25 566.439 59.25C566.234 59.25 566.061 59.1847 565.921 59.054C565.781 58.9233 565.711 58.7273 565.711 58.466C565.711 58.1953 565.781 57.9993 565.921 57.878C566.061 57.7473 566.234 57.682 566.439 57.682ZM567.041 60.496V68H565.809V60.496H567.041ZM572.079 68.14C571.145 68.14 570.399 67.818 569.839 67.174C569.279 66.5207 568.999 65.55 568.999 64.262C568.999 62.974 569.279 62.0033 569.839 61.35C570.408 60.6873 571.159 60.356 572.093 60.356C572.671 60.356 573.143 60.4633 573.507 60.678C573.88 60.8927 574.183 61.154 574.417 61.462H574.501C574.491 61.3407 574.473 61.1633 574.445 60.93C574.426 60.6873 574.417 60.496 574.417 60.356V57.36H575.649V68H574.655L574.473 66.992H574.417C574.193 67.3093 573.894 67.58 573.521 67.804C573.147 68.028 572.667 68.14 572.079 68.14ZM572.275 67.118C573.068 67.118 573.623 66.9033 573.941 66.474C574.267 66.0353 574.431 65.3773 574.431 64.5V64.276C574.431 63.3427 574.277 62.6287 573.969 62.134C573.661 61.63 573.091 61.378 572.261 61.378C571.598 61.378 571.099 61.644 570.763 62.176C570.436 62.6987 570.273 63.4033 570.273 64.29C570.273 65.186 570.436 65.8813 570.763 66.376C571.099 66.8707 571.603 67.118 572.275 67.118ZM580.874 60.37C581.788 60.37 582.465 60.5707 582.904 60.972C583.342 61.3733 583.562 62.0127 583.562 62.89V68H582.666L582.428 66.936H582.372C582.045 67.3467 581.7 67.65 581.336 67.846C580.981 68.042 580.486 68.14 579.852 68.14C579.17 68.14 578.606 67.9627 578.158 67.608C577.71 67.244 577.486 66.6793 577.486 65.914C577.486 65.1673 577.78 64.5933 578.368 64.192C578.956 63.7813 579.861 63.5573 581.084 63.52L582.358 63.478V63.03C582.358 62.4047 582.222 61.9707 581.952 61.728C581.681 61.4853 581.298 61.364 580.804 61.364C580.412 61.364 580.038 61.4247 579.684 61.546C579.329 61.658 578.998 61.7887 578.69 61.938L578.312 61.014C578.638 60.8367 579.026 60.6873 579.474 60.566C579.922 60.4353 580.388 60.37 580.874 60.37ZM582.344 64.332L581.238 64.374C580.304 64.4113 579.656 64.5607 579.292 64.822C578.937 65.0833 578.76 65.452 578.76 65.928C578.76 66.348 578.886 66.656 579.138 66.852C579.399 67.048 579.73 67.146 580.132 67.146C580.766 67.146 581.294 66.9733 581.714 66.628C582.134 66.2733 582.344 65.732 582.344 65.004V64.332ZM588.539 68.14C587.606 68.14 586.859 67.818 586.299 67.174C585.739 66.5207 585.459 65.55 585.459 64.262C585.459 62.974 585.739 62.0033 586.299 61.35C586.869 60.6873 587.62 60.356 588.553 60.356C589.132 60.356 589.603 60.4633 589.967 60.678C590.341 60.8927 590.644 61.154 590.877 61.462H590.961C590.952 61.3407 590.933 61.1633 590.905 60.93C590.887 60.6873 590.877 60.496 590.877 60.356V57.36H592.109V68H591.115L590.933 66.992H590.877C590.653 67.3093 590.355 67.58 589.981 67.804C589.608 68.028 589.127 68.14 588.539 68.14ZM588.735 67.118C589.529 67.118 590.084 66.9033 590.401 66.474C590.728 66.0353 590.891 65.3773 590.891 64.5V64.276C590.891 63.3427 590.737 62.6287 590.429 62.134C590.121 61.63 589.552 61.378 588.721 61.378C588.059 61.378 587.559 61.644 587.223 62.176C586.897 62.6987 586.733 63.4033 586.733 64.29C586.733 65.186 586.897 65.8813 587.223 66.376C587.559 66.8707 588.063 67.118 588.735 67.118ZM597.391 60.356C598.035 60.356 598.585 60.496 599.043 60.776C599.509 61.056 599.864 61.4527 600.107 61.966C600.359 62.47 600.485 63.0627 600.485 63.744V64.486H595.347C595.365 65.3353 595.58 65.984 595.991 66.432C596.411 66.8707 596.994 67.09 597.741 67.09C598.217 67.09 598.637 67.048 599.001 66.964C599.374 66.8707 599.757 66.74 600.149 66.572V67.65C599.766 67.818 599.388 67.9393 599.015 68.014C598.641 68.098 598.198 68.14 597.685 68.14C596.975 68.14 596.345 67.9953 595.795 67.706C595.253 67.4167 594.829 66.9873 594.521 66.418C594.222 65.8393 594.073 65.1347 594.073 64.304C594.073 63.4827 594.208 62.778 594.479 62.19C594.759 61.602 595.146 61.1493 595.641 60.832C596.145 60.5147 596.728 60.356 597.391 60.356ZM597.377 61.364C596.789 61.364 596.322 61.5553 595.977 61.938C595.641 62.3113 595.44 62.834 595.375 63.506H599.197C599.187 62.8713 599.038 62.358 598.749 61.966C598.459 61.5647 598.002 61.364 597.377 61.364ZM607.281 65.928C607.281 66.656 607.01 67.2067 606.469 67.58C605.928 67.9533 605.2 68.14 604.285 68.14C603.762 68.14 603.31 68.098 602.927 68.014C602.554 67.93 602.222 67.8133 601.933 67.664V66.544C602.232 66.6933 602.591 66.8333 603.011 66.964C603.44 67.0853 603.874 67.146 604.313 67.146C604.938 67.146 605.391 67.048 605.671 66.852C605.951 66.6467 606.091 66.376 606.091 66.04C606.091 65.8533 606.04 65.6853 605.937 65.536C605.834 65.3867 605.648 65.2373 605.377 65.088C605.116 64.9387 604.738 64.7707 604.243 64.584C603.758 64.3973 603.342 64.2107 602.997 64.024C602.652 63.8373 602.386 63.6133 602.199 63.352C602.012 63.0907 601.919 62.7547 601.919 62.344C601.919 61.7093 602.176 61.2193 602.689 60.874C603.212 60.5287 603.893 60.356 604.733 60.356C605.19 60.356 605.615 60.4027 606.007 60.496C606.408 60.58 606.782 60.7013 607.127 60.86L606.707 61.84C606.39 61.7093 606.058 61.5973 605.713 61.504C605.368 61.4107 605.013 61.364 604.649 61.364C604.145 61.364 603.758 61.448 603.487 61.616C603.226 61.7747 603.095 61.994 603.095 62.274C603.095 62.4793 603.156 62.6567 603.277 62.806C603.398 62.946 603.599 63.086 603.879 63.226C604.168 63.3567 604.551 63.5153 605.027 63.702C605.503 63.8793 605.909 64.0613 606.245 64.248C606.581 64.4347 606.838 64.6633 607.015 64.934C607.192 65.1953 607.281 65.5267 607.281 65.928ZM609.864 65.186V64.808C609.864 64.4533 609.897 64.15 609.962 63.898C610.037 63.6367 610.158 63.3893 610.326 63.156C610.504 62.9227 610.742 62.68 611.04 62.428C611.404 62.12 611.684 61.8633 611.88 61.658C612.086 61.4527 612.23 61.252 612.314 61.056C612.398 60.86 612.44 60.622 612.44 60.342C612.44 59.894 612.296 59.5487 612.006 59.306C611.717 59.0633 611.297 58.942 610.746 58.942C610.289 58.942 609.883 59.0027 609.528 59.124C609.174 59.236 608.833 59.3713 608.506 59.53L608.072 58.55C608.446 58.354 608.856 58.1907 609.304 58.06C609.762 57.9293 610.27 57.864 610.83 57.864C611.717 57.864 612.403 58.0833 612.888 58.522C613.374 58.9607 613.616 59.558 613.616 60.314C613.616 60.734 613.546 61.0933 613.406 61.392C613.276 61.6813 613.084 61.952 612.832 62.204C612.59 62.4467 612.3 62.708 611.964 62.988C611.656 63.2493 611.418 63.478 611.25 63.674C611.092 63.87 610.984 64.066 610.928 64.262C610.872 64.4487 610.844 64.6773 610.844 64.948V65.186H609.864ZM609.542 67.244C609.542 66.8987 609.622 66.656 609.78 66.516C609.948 66.376 610.158 66.306 610.41 66.306C610.644 66.306 610.844 66.376 611.012 66.516C611.18 66.656 611.264 66.8987 611.264 67.244C611.264 67.58 611.18 67.8227 611.012 67.972C610.844 68.1213 610.644 68.196 610.41 68.196C610.158 68.196 609.948 68.1213 609.78 67.972C609.622 67.8227 609.542 67.58 609.542 67.244Z" fill="#484545"/>
</svg>
