<svg width="818" height="97" viewBox="0 0 818 97" fill="none" xmlns="http://www.w3.org/2000/svg">
<path d="M1.456 18H8.896V16.016H3.824V12.848H7.984V10.864H3.824V8.128H8.72V6.144H1.456V18ZM17.0048 18H19.8368L23.4528 6.144H21.0528L19.5168 11.92C19.1488 13.232 18.8928 14.416 18.5088 15.744H18.4288C18.0608 14.416 17.8048 13.232 17.4368 11.92L15.8688 6.144H13.3887L17.0048 18ZM31.0164 11.824C31.3684 10.592 31.7204 9.248 32.0244 7.952H32.1044C32.4404 9.232 32.7604 10.592 33.1284 11.824L33.4804 13.12H30.6644L31.0164 11.824ZM26.9204 18H29.3204L30.1524 14.96H33.9924L34.8244 18H37.3044L33.4964 6.144H30.7124L26.9204 18ZM42.3154 18H49.4994V16.016H44.6834V6.144H42.3154V18ZM59.7344 18.224C62.6304 18.224 64.3104 16.608 64.3104 12.672V6.144H62.0384V12.88C62.0384 15.344 61.1424 16.176 59.7344 16.176C58.3584 16.176 57.4944 15.344 57.4944 12.88V6.144H55.1264V12.672C55.1264 16.608 56.8544 18.224 59.7344 18.224ZM73.3601 11.824C73.7121 10.592 74.0641 9.248 74.3681 7.952H74.4481C74.7841 9.232 75.1041 10.592 75.4721 11.824L75.8241 13.12H73.0081L73.3601 11.824ZM69.2641 18H71.6641L72.4961 14.96H76.3361L77.1681 18H79.6481L75.8401 6.144H73.0561L69.2641 18ZM89.4911 18.224C91.0271 18.224 92.2911 17.616 93.2671 16.48L92.0191 15.008C91.3791 15.696 90.5951 16.176 89.5711 16.176C87.6991 16.176 86.4831 14.624 86.4831 12.048C86.4831 9.504 87.8271 7.968 89.6191 7.968C90.5151 7.968 91.2031 8.384 91.8111 8.96L93.0431 7.456C92.2751 6.656 91.0751 5.936 89.5711 5.936C86.5791 5.936 84.0671 8.224 84.0671 12.128C84.0671 16.08 86.4991 18.224 89.4911 18.224ZM98.7998 18H101.168V6.144H98.7998V18ZM112.41 18.224C115.546 18.224 117.706 15.872 117.706 12.032C117.706 8.192 115.546 5.936 112.41 5.936C109.274 5.936 107.114 8.176 107.114 12.032C107.114 15.872 109.274 18.224 112.41 18.224ZM112.41 16.176C110.65 16.176 109.53 14.56 109.53 12.032C109.53 9.488 110.65 7.968 112.41 7.968C114.17 7.968 115.29 9.488 115.29 12.032C115.29 14.56 114.17 16.176 112.41 16.176ZM112.186 5.568L115.37 3.44L114.106 1.904L111.146 4.384L112.186 5.568ZM123.644 18H125.884V13.248C125.884 11.888 125.708 10.4 125.596 9.12H125.676L126.876 11.664L130.3 18H132.7V6.144H130.46V10.88C130.46 12.224 130.652 13.792 130.764 15.024H130.684L129.5 12.464L126.06 6.144H123.644V18ZM142.878 18H145.246V12.88H149.726V18H152.078V6.144H149.726V10.816H145.246V6.144H142.878V18ZM158.612 18H166.052V16.016H160.98V12.848H165.14V10.864H160.98V8.128H165.876V6.144H158.612V18ZM176.625 18.224C179.521 18.224 181.201 16.608 181.201 12.672V6.144H178.929V12.88C178.929 15.344 178.033 16.176 176.625 16.176C175.249 16.176 174.385 15.344 174.385 12.88V6.144H172.017V12.672C172.017 16.608 173.745 18.224 176.625 18.224ZM187.675 18H190.043V13.52H191.691L194.123 18H196.763L193.995 13.152C195.355 12.624 196.251 11.52 196.251 9.744C196.251 7.024 194.283 6.144 191.803 6.144H187.675V18ZM190.043 11.648V8.032H191.579C193.099 8.032 193.947 8.464 193.947 9.744C193.947 11.008 193.099 11.648 191.579 11.648H190.043ZM202.206 18H204.574V6.144H202.206V18ZM203.198 5.568L206.366 3.44L205.118 1.904L202.142 4.384L203.198 5.568ZM214.648 18.224C217.384 18.224 219 16.576 219 14.64C219 12.928 218.056 12.016 216.616 11.424L215.064 10.768C214.056 10.368 213.224 10.064 213.224 9.216C213.224 8.432 213.88 7.968 214.92 7.968C215.896 7.968 216.68 8.32 217.432 8.944L218.632 7.456C217.672 6.48 216.296 5.936 214.92 5.936C212.52 5.936 210.824 7.424 210.824 9.36C210.824 11.088 212.024 12.048 213.224 12.544L214.808 13.216C215.864 13.664 216.584 13.936 216.584 14.816C216.584 15.648 215.928 16.176 214.696 16.176C213.656 16.176 212.536 15.648 211.688 14.864L210.328 16.496C211.48 17.6 213.064 18.224 214.648 18.224ZM227.074 18H229.442V8.128H232.802V6.144H223.746V8.128H227.074V18ZM238.347 18H240.715V6.144H238.347V18ZM252.085 18.224C253.621 18.224 254.885 17.616 255.861 16.48L254.613 15.008C253.973 15.696 253.189 16.176 252.165 16.176C250.293 16.176 249.077 14.624 249.077 12.048C249.077 9.504 250.421 7.968 252.213 7.968C253.109 7.968 253.797 8.384 254.405 8.96L255.637 7.456C254.869 6.656 253.669 5.936 252.165 5.936C249.173 5.936 246.661 8.224 246.661 12.128C246.661 16.08 249.093 18.224 252.085 18.224ZM263.97 11.824C264.322 10.592 264.674 9.248 264.978 7.952H265.058C265.394 9.232 265.714 10.592 266.082 11.824L266.434 13.12H263.618L263.97 11.824ZM259.873 18H262.274L263.106 14.96H266.946L267.778 18H270.258L266.45 6.144H263.666L259.873 18Z" fill="#262626"/>
<path d="M1.4 50H7.182V48.894H2.702V39.724H1.4V50ZM11.6658 50.182C13.5278 50.182 15.1938 48.726 15.1938 46.206C15.1938 43.672 13.5278 42.202 11.6658 42.202C9.80383 42.202 8.13783 43.672 8.13783 46.206C8.13783 48.726 9.80383 50.182 11.6658 50.182ZM11.6658 49.118C10.3498 49.118 9.46783 47.956 9.46783 46.206C9.46783 44.456 10.3498 43.266 11.6658 43.266C12.9818 43.266 13.8778 44.456 13.8778 46.206C13.8778 47.956 12.9818 49.118 11.6658 49.118ZM19.1901 50.182C20.9821 50.182 21.9621 49.16 21.9621 47.928C21.9621 46.486 20.7441 46.038 19.6381 45.618C18.7841 45.296 18.0001 45.03 18.0001 44.302C18.0001 43.714 18.4481 43.21 19.4141 43.21C20.0861 43.21 20.6181 43.49 21.1361 43.882L21.7521 43.056C21.1641 42.594 20.3381 42.202 19.4001 42.202C17.7481 42.202 16.7681 43.154 16.7681 44.358C16.7681 45.646 17.9301 46.164 18.9941 46.556C19.8341 46.878 20.7301 47.214 20.7301 47.998C20.7301 48.656 20.2401 49.188 19.2321 49.188C18.3221 49.188 17.6361 48.824 16.9781 48.292L16.3481 49.132C17.0761 49.734 18.1121 50.182 19.1901 50.182ZM29.8778 50.182C30.7878 50.182 31.6558 49.832 32.3418 49.216L31.7818 48.362C31.3058 48.796 30.6898 49.118 29.9898 49.118C28.5898 49.118 27.6378 47.956 27.6378 46.206C27.6378 44.456 28.6458 43.266 30.0318 43.266C30.6338 43.266 31.0958 43.546 31.5438 43.938L32.2018 43.098C31.6558 42.622 30.9698 42.202 29.9758 42.202C28.0298 42.202 26.3078 43.672 26.3078 46.206C26.3078 48.726 27.8618 50.182 29.8778 50.182ZM35.3488 50.182C35.6988 50.182 35.9088 50.14 36.0908 50.07L35.9088 49.09C35.7688 49.118 35.7128 49.118 35.6428 49.118C35.4468 49.118 35.2788 48.964 35.2788 48.572V38.856H34.0048V48.488C34.0048 49.566 34.3968 50.182 35.3488 50.182ZM37.997 50H39.271V42.398H37.997V50ZM38.641 40.83C39.145 40.83 39.495 40.494 39.495 39.976C39.495 39.486 39.145 39.15 38.641 39.15C38.137 39.15 37.787 39.486 37.787 39.976C37.787 40.494 38.137 40.83 38.641 40.83ZM44.9185 50.182C45.9545 50.182 46.7665 49.832 47.4385 49.398L46.9765 48.558C46.4165 48.936 45.8145 49.16 45.0725 49.16C43.6305 49.16 42.6365 48.124 42.5525 46.5H47.6765C47.7045 46.318 47.7325 46.052 47.7325 45.772C47.7325 43.602 46.6405 42.202 44.7085 42.202C42.9445 42.202 41.2785 43.742 41.2785 46.206C41.2785 48.712 42.9025 50.182 44.9185 50.182ZM42.5385 45.576C42.6925 44.092 43.6445 43.224 44.7225 43.224C45.9125 43.224 46.6125 44.05 46.6125 45.576H42.5385ZM49.6044 50H50.8784V44.484C51.6484 43.714 52.1804 43.322 52.9644 43.322C53.9724 43.322 54.4064 43.924 54.4064 45.352V50H55.6804V45.184C55.6804 43.238 54.9524 42.202 53.3564 42.202C52.3204 42.202 51.5364 42.776 50.8084 43.49H50.7664L50.6544 42.398H49.6044V50ZM60.557 50.182C61.019 50.182 61.523 50.042 61.957 49.902L61.705 48.95C61.453 49.048 61.103 49.146 60.837 49.146C59.955 49.146 59.661 48.614 59.661 47.676V43.434H61.719V42.398H59.661V40.256H58.597L58.443 42.398L57.253 42.468V43.434H58.387V47.648C58.387 49.16 58.933 50.182 60.557 50.182ZM66.3013 50.182C67.3373 50.182 68.1493 49.832 68.8213 49.398L68.3593 48.558C67.7993 48.936 67.1973 49.16 66.4553 49.16C65.0133 49.16 64.0193 48.124 63.9353 46.5H69.0593C69.0873 46.318 69.1153 46.052 69.1153 45.772C69.1153 43.602 68.0233 42.202 66.0913 42.202C64.3273 42.202 62.6613 43.742 62.6613 46.206C62.6613 48.712 64.2853 50.182 66.3013 50.182ZM63.9213 45.576C64.0753 44.092 65.0273 43.224 66.1053 43.224C67.2953 43.224 67.9953 44.05 67.9953 45.576H63.9213ZM72.9752 50.182C74.7672 50.182 75.7472 49.16 75.7472 47.928C75.7472 46.486 74.5292 46.038 73.4232 45.618C72.5692 45.296 71.7852 45.03 71.7852 44.302C71.7852 43.714 72.2332 43.21 73.1992 43.21C73.8712 43.21 74.4032 43.49 74.9212 43.882L75.5372 43.056C74.9492 42.594 74.1232 42.202 73.1852 42.202C71.5332 42.202 70.5532 43.154 70.5532 44.358C70.5532 45.646 71.7152 46.164 72.7792 46.556C73.6192 46.878 74.5152 47.214 74.5152 47.998C74.5152 48.656 74.0252 49.188 73.0172 49.188C72.1072 49.188 71.4212 48.824 70.7632 48.292L70.1332 49.132C70.8612 49.734 71.8972 50.182 72.9752 50.182ZM82.0109 50.182C82.3609 50.182 82.5709 50.14 82.7529 50.07L82.5709 49.09C82.4309 49.118 82.3749 49.118 82.3049 49.118C82.1089 49.118 81.9409 48.964 81.9409 48.572V38.856H80.6669V48.488C80.6669 49.566 81.0589 50.182 82.0109 50.182ZM87.7251 50.182C88.7611 50.182 89.5731 49.832 90.2451 49.398L89.7831 48.558C89.2231 48.936 88.6211 49.16 87.8791 49.16C86.4371 49.16 85.4431 48.124 85.3591 46.5H90.4831C90.5111 46.318 90.5391 46.052 90.5391 45.772C90.5391 43.602 89.4471 42.202 87.5151 42.202C85.7511 42.202 84.0851 43.742 84.0851 46.206C84.0851 48.712 85.7091 50.182 87.7251 50.182ZM85.3451 45.576C85.4991 44.092 86.4511 43.224 87.5291 43.224C88.7191 43.224 89.4191 44.05 89.4191 45.576H85.3451ZM94.1174 50H95.6014L98.3034 42.398H97.0434L95.6014 46.724C95.3774 47.466 95.1394 48.25 94.9014 48.964H94.8454C94.6074 48.25 94.3694 47.466 94.1314 46.724L92.7034 42.398H91.3734L94.1174 50ZM101.216 50.182C102.154 50.182 103.008 49.692 103.736 49.09H103.778L103.89 50H104.94V45.324C104.94 43.448 104.156 42.202 102.308 42.202C101.09 42.202 100.012 42.748 99.3117 43.196L99.8157 44.078C100.418 43.672 101.216 43.266 102.098 43.266C103.344 43.266 103.666 44.204 103.666 45.184C100.432 45.548 98.9897 46.374 98.9897 48.026C98.9897 49.398 99.9417 50.182 101.216 50.182ZM101.58 49.16C100.824 49.16 100.236 48.81 100.236 47.942C100.236 46.962 101.104 46.332 103.666 46.024V48.152C102.924 48.81 102.322 49.16 101.58 49.16ZM107.368 50H108.642V44.484C109.412 43.714 109.944 43.322 110.728 43.322C111.736 43.322 112.17 43.924 112.17 45.352V50H113.444V45.184C113.444 43.238 112.716 42.202 111.12 42.202C110.084 42.202 109.3 42.776 108.572 43.49H108.53L108.418 42.398H107.368V50ZM118.321 50.182C118.783 50.182 119.287 50.042 119.721 49.902L119.469 48.95C119.217 49.048 118.867 49.146 118.601 49.146C117.719 49.146 117.425 48.614 117.425 47.676V43.434H119.483V42.398H117.425V40.256H116.361L116.207 42.398L115.017 42.468V43.434H116.151V47.648C116.151 49.16 116.697 50.182 118.321 50.182ZM122.612 50.182C123.55 50.182 124.404 49.692 125.132 49.09H125.174L125.286 50H126.336V45.324C126.336 43.448 125.552 42.202 123.704 42.202C122.486 42.202 121.408 42.748 120.708 43.196L121.212 44.078C121.814 43.672 122.612 43.266 123.494 43.266C124.74 43.266 125.062 44.204 125.062 45.184C121.828 45.548 120.386 46.374 120.386 48.026C120.386 49.398 121.338 50.182 122.612 50.182ZM122.976 49.16C122.22 49.16 121.632 48.81 121.632 47.942C121.632 46.962 122.5 46.332 125.062 46.024V48.152C124.32 48.81 123.718 49.16 122.976 49.16ZM128.765 50H130.039V45.114C130.543 43.812 131.327 43.364 131.957 43.364C132.265 43.364 132.447 43.392 132.699 43.49L132.937 42.37C132.699 42.244 132.461 42.202 132.125 42.202C131.271 42.202 130.501 42.818 129.969 43.784H129.927L129.815 42.398H128.765V50ZM136.996 50.182C138.858 50.182 140.524 48.726 140.524 46.206C140.524 43.672 138.858 42.202 136.996 42.202C135.134 42.202 133.468 43.672 133.468 46.206C133.468 48.726 135.134 50.182 136.996 50.182ZM136.996 49.118C135.68 49.118 134.798 47.956 134.798 46.206C134.798 44.456 135.68 43.266 136.996 43.266C138.312 43.266 139.208 44.456 139.208 46.206C139.208 47.956 138.312 49.118 136.996 49.118ZM142.532 50H143.806V44.484C144.576 43.714 145.108 43.322 145.892 43.322C146.9 43.322 147.334 43.924 147.334 45.352V50H148.608V45.184C148.608 43.238 147.88 42.202 146.284 42.202C145.248 42.202 144.464 42.776 143.736 43.49H143.694L143.582 42.398H142.532V50ZM150.853 52.66C152.113 52.128 152.897 51.078 152.897 49.734C152.897 48.796 152.491 48.222 151.819 48.222C151.301 48.222 150.853 48.572 150.853 49.118C150.853 49.706 151.301 50.014 151.791 50.014C151.847 50.014 151.889 50.014 151.945 50C151.945 50.826 151.427 51.512 150.545 51.904L150.853 52.66ZM160.708 50.182C161.618 50.182 162.416 49.692 163.018 49.104H163.06L163.172 50H164.208V38.856H162.948V41.782L163.004 43.098C162.332 42.538 161.758 42.202 160.862 42.202C159.126 42.202 157.572 43.742 157.572 46.206C157.572 48.74 158.804 50.182 160.708 50.182ZM160.988 49.118C159.644 49.118 158.888 48.026 158.888 46.192C158.888 44.456 159.854 43.28 161.086 43.28C161.716 43.28 162.29 43.504 162.948 44.078V48.068C162.304 48.768 161.688 49.118 160.988 49.118ZM169.012 50.182C170.062 50.182 170.818 49.636 171.532 48.81H171.574L171.672 50H172.736V42.398H171.462V47.788C170.734 48.698 170.188 49.076 169.404 49.076C168.396 49.076 167.976 48.474 167.976 47.06V42.398H166.702V47.214C166.702 49.146 167.416 50.182 169.012 50.182ZM175.304 50H176.578V45.114C177.082 43.812 177.866 43.364 178.496 43.364C178.804 43.364 178.986 43.392 179.238 43.49L179.476 42.37C179.238 42.244 179 42.202 178.664 42.202C177.81 42.202 177.04 42.818 176.508 43.784H176.466L176.354 42.398H175.304V50ZM182.099 50.182C183.037 50.182 183.891 49.692 184.619 49.09H184.661L184.773 50H185.823V45.324C185.823 43.448 185.039 42.202 183.191 42.202C181.973 42.202 180.895 42.748 180.195 43.196L180.699 44.078C181.301 43.672 182.099 43.266 182.981 43.266C184.227 43.266 184.549 44.204 184.549 45.184C181.315 45.548 179.873 46.374 179.873 48.026C179.873 49.398 180.825 50.182 182.099 50.182ZM182.463 49.16C181.707 49.16 181.119 48.81 181.119 47.942C181.119 46.962 181.987 46.332 184.549 46.024V48.152C183.807 48.81 183.205 49.16 182.463 49.16ZM188.251 50H189.525V44.484C190.295 43.714 190.827 43.322 191.611 43.322C192.619 43.322 193.053 43.924 193.053 45.352V50H194.327V45.184C194.327 43.238 193.599 42.202 192.003 42.202C190.967 42.202 190.183 42.776 189.455 43.49H189.413L189.301 42.398H188.251V50ZM199.203 50.182C199.665 50.182 200.169 50.042 200.603 49.902L200.351 48.95C200.099 49.048 199.749 49.146 199.483 49.146C198.601 49.146 198.307 48.614 198.307 47.676V43.434H200.365V42.398H198.307V40.256H197.243L197.089 42.398L195.899 42.468V43.434H197.033V47.648C197.033 49.16 197.579 50.182 199.203 50.182ZM204.948 50.182C205.984 50.182 206.796 49.832 207.468 49.398L207.006 48.558C206.446 48.936 205.844 49.16 205.102 49.16C203.66 49.16 202.666 48.124 202.582 46.5H207.706C207.734 46.318 207.762 46.052 207.762 45.772C207.762 43.602 206.67 42.202 204.738 42.202C202.974 42.202 201.308 43.742 201.308 46.206C201.308 48.712 202.932 50.182 204.948 50.182ZM202.568 45.576C202.722 44.092 203.674 43.224 204.752 43.224C205.942 43.224 206.642 44.05 206.642 45.576H202.568ZM214.109 50.182C214.459 50.182 214.669 50.14 214.851 50.07L214.669 49.09C214.529 49.118 214.473 49.118 214.403 49.118C214.207 49.118 214.039 48.964 214.039 48.572V38.856H212.765V48.488C212.765 49.566 213.157 50.182 214.109 50.182ZM218.507 50.182C219.445 50.182 220.299 49.692 221.027 49.09H221.069L221.181 50H222.231V45.324C222.231 43.448 221.447 42.202 219.599 42.202C218.381 42.202 217.303 42.748 216.603 43.196L217.107 44.078C217.709 43.672 218.507 43.266 219.389 43.266C220.635 43.266 220.957 44.204 220.957 45.184C217.723 45.548 216.281 46.374 216.281 48.026C216.281 49.398 217.233 50.182 218.507 50.182ZM218.871 49.16C218.115 49.16 217.527 48.81 217.527 47.942C217.527 46.962 218.395 46.332 220.957 46.024V48.152C220.215 48.81 219.613 49.16 218.871 49.16ZM230.856 50.182C231.892 50.182 232.704 49.832 233.376 49.398L232.914 48.558C232.354 48.936 231.752 49.16 231.01 49.16C229.568 49.16 228.574 48.124 228.49 46.5H233.614C233.642 46.318 233.67 46.052 233.67 45.772C233.67 43.602 232.578 42.202 230.646 42.202C228.882 42.202 227.216 43.742 227.216 46.206C227.216 48.712 228.84 50.182 230.856 50.182ZM228.476 45.576C228.63 44.092 229.582 43.224 230.66 43.224C231.85 43.224 232.55 44.05 232.55 45.576H228.476ZM235.542 50H236.816V44.484C237.586 43.714 238.118 43.322 238.902 43.322C239.91 43.322 240.344 43.924 240.344 45.352V50H241.618V45.184C241.618 43.238 240.89 42.202 239.294 42.202C238.258 42.202 237.474 42.776 236.746 43.49H236.704L236.592 42.398H235.542V50ZM246.495 50.182C246.957 50.182 247.461 50.042 247.895 49.902L247.643 48.95C247.391 49.048 247.041 49.146 246.775 49.146C245.893 49.146 245.599 48.614 245.599 47.676V43.434H247.657V42.398H245.599V40.256H244.535L244.381 42.398L243.191 42.468V43.434H244.325V47.648C244.325 49.16 244.87 50.182 246.495 50.182ZM249.378 50H250.652V45.114C251.156 43.812 251.94 43.364 252.57 43.364C252.878 43.364 253.06 43.392 253.312 43.49L253.55 42.37C253.312 42.244 253.074 42.202 252.738 42.202C251.884 42.202 251.114 42.818 250.582 43.784H250.54L250.428 42.398H249.378V50ZM257.721 50.182C258.757 50.182 259.569 49.832 260.241 49.398L259.779 48.558C259.219 48.936 258.617 49.16 257.875 49.16C256.433 49.16 255.439 48.124 255.355 46.5H260.479C260.507 46.318 260.535 46.052 260.535 45.772C260.535 43.602 259.443 42.202 257.511 42.202C255.747 42.202 254.081 43.742 254.081 46.206C254.081 48.712 255.705 50.182 257.721 50.182ZM255.341 45.576C255.495 44.092 256.447 43.224 257.525 43.224C258.715 43.224 259.415 44.05 259.415 45.576H255.341ZM264.114 50H265.598L268.3 42.398H267.04L265.598 46.724C265.374 47.466 265.136 48.25 264.898 48.964H264.842C264.604 48.25 264.366 47.466 264.128 46.724L262.7 42.398H261.37L264.114 50ZM269.776 50H271.05V42.398H269.776V50ZM270.42 40.83C270.924 40.83 271.274 40.494 271.274 39.976C271.274 39.486 270.924 39.15 270.42 39.15C269.916 39.15 269.566 39.486 269.566 39.976C269.566 40.494 269.916 40.83 270.42 40.83ZM275.62 50.182C277.412 50.182 278.392 49.16 278.392 47.928C278.392 46.486 277.174 46.038 276.068 45.618C275.214 45.296 274.43 45.03 274.43 44.302C274.43 43.714 274.878 43.21 275.844 43.21C276.516 43.21 277.048 43.49 277.566 43.882L278.182 43.056C277.594 42.594 276.768 42.202 275.83 42.202C274.178 42.202 273.198 43.154 273.198 44.358C273.198 45.646 274.36 46.164 275.424 46.556C276.264 46.878 277.16 47.214 277.16 47.998C277.16 48.656 276.67 49.188 275.662 49.188C274.752 49.188 274.066 48.824 273.408 48.292L272.778 49.132C273.506 49.734 274.542 50.182 275.62 50.182ZM282.26 50.182C282.722 50.182 283.226 50.042 283.66 49.902L283.408 48.95C283.156 49.048 282.806 49.146 282.54 49.146C281.658 49.146 281.364 48.614 281.364 47.676V43.434H283.422V42.398H281.364V40.256H280.3L280.146 42.398L278.956 42.468V43.434H280.09V47.648C280.09 49.16 280.636 50.182 282.26 50.182ZM286.552 50.182C287.49 50.182 288.344 49.692 289.072 49.09H289.114L289.226 50H290.276V45.324C290.276 43.448 289.492 42.202 287.644 42.202C286.426 42.202 285.348 42.748 284.648 43.196L285.152 44.078C285.754 43.672 286.552 43.266 287.434 43.266C288.68 43.266 289.002 44.204 289.002 45.184C285.768 45.548 284.326 46.374 284.326 48.026C284.326 49.398 285.278 50.182 286.552 50.182ZM286.916 49.16C286.16 49.16 285.572 48.81 285.572 47.942C285.572 46.962 286.44 46.332 289.002 46.024V48.152C288.26 48.81 287.658 49.16 286.916 49.16ZM298.831 50.182C299.741 50.182 300.609 49.832 301.295 49.216L300.735 48.362C300.259 48.796 299.643 49.118 298.943 49.118C297.543 49.118 296.591 47.956 296.591 46.206C296.591 44.456 297.599 43.266 298.985 43.266C299.587 43.266 300.049 43.546 300.497 43.938L301.155 43.098C300.609 42.622 299.923 42.202 298.929 42.202C296.983 42.202 295.261 43.672 295.261 46.206C295.261 48.726 296.815 50.182 298.831 50.182ZM305.57 50.182C307.432 50.182 309.098 48.726 309.098 46.206C309.098 43.672 307.432 42.202 305.57 42.202C303.708 42.202 302.042 43.672 302.042 46.206C302.042 48.726 303.708 50.182 305.57 50.182ZM305.57 49.118C304.254 49.118 303.372 47.956 303.372 46.206C303.372 44.456 304.254 43.266 305.57 43.266C306.886 43.266 307.782 44.456 307.782 46.206C307.782 47.956 306.886 49.118 305.57 49.118ZM311.106 50H312.38V44.484C313.15 43.714 313.682 43.322 314.466 43.322C315.474 43.322 315.908 43.924 315.908 45.352V50H317.182V45.184C317.182 43.238 316.454 42.202 314.858 42.202C313.822 42.202 313.038 42.776 312.31 43.49H312.268L312.156 42.398H311.106V50ZM324.14 50.182C324.49 50.182 324.7 50.14 324.882 50.07L324.7 49.09C324.56 49.118 324.504 49.118 324.434 49.118C324.238 49.118 324.07 48.964 324.07 48.572V38.856H322.796V48.488C322.796 49.566 323.188 50.182 324.14 50.182ZM329.742 50.182C331.604 50.182 333.27 48.726 333.27 46.206C333.27 43.672 331.604 42.202 329.742 42.202C327.88 42.202 326.214 43.672 326.214 46.206C326.214 48.726 327.88 50.182 329.742 50.182ZM329.742 49.118C328.426 49.118 327.544 47.956 327.544 46.206C327.544 44.456 328.426 43.266 329.742 43.266C331.058 43.266 331.954 44.456 331.954 46.206C331.954 47.956 331.058 49.118 329.742 49.118ZM337.266 50.182C339.058 50.182 340.038 49.16 340.038 47.928C340.038 46.486 338.82 46.038 337.714 45.618C336.86 45.296 336.076 45.03 336.076 44.302C336.076 43.714 336.524 43.21 337.49 43.21C338.162 43.21 338.694 43.49 339.212 43.882L339.828 43.056C339.24 42.594 338.414 42.202 337.476 42.202C335.824 42.202 334.844 43.154 334.844 44.358C334.844 45.646 336.006 46.164 337.07 46.556C337.91 46.878 338.806 47.214 338.806 47.998C338.806 48.656 338.316 49.188 337.308 49.188C336.398 49.188 335.712 48.824 335.054 48.292L334.424 49.132C335.152 49.734 336.188 50.182 337.266 50.182ZM344.958 50H346.232V44.484C346.932 43.7 347.576 43.322 348.15 43.322C349.116 43.322 349.564 43.924 349.564 45.352V50H350.838V44.484C351.552 43.7 352.168 43.322 352.756 43.322C353.722 43.322 354.17 43.924 354.17 45.352V50H355.444V45.184C355.444 43.238 354.702 42.202 353.134 42.202C352.21 42.202 351.412 42.804 350.628 43.658C350.32 42.762 349.69 42.202 348.528 42.202C347.618 42.202 346.82 42.776 346.162 43.504H346.12L346.008 42.398H344.958V50ZM357.919 50H359.193V42.398H357.919V50ZM358.563 40.83C359.067 40.83 359.417 40.494 359.417 39.976C359.417 39.486 359.067 39.15 358.563 39.15C358.059 39.15 357.709 39.486 357.709 39.976C357.709 40.494 358.059 40.83 358.563 40.83ZM363.762 50.182C365.554 50.182 366.534 49.16 366.534 47.928C366.534 46.486 365.316 46.038 364.21 45.618C363.356 45.296 362.572 45.03 362.572 44.302C362.572 43.714 363.02 43.21 363.986 43.21C364.658 43.21 365.19 43.49 365.708 43.882L366.324 43.056C365.736 42.594 364.91 42.202 363.972 42.202C362.32 42.202 361.34 43.154 361.34 44.358C361.34 45.646 362.502 46.164 363.566 46.556C364.406 46.878 365.302 47.214 365.302 47.998C365.302 48.656 364.812 49.188 363.804 49.188C362.894 49.188 362.208 48.824 361.55 48.292L360.92 49.132C361.648 49.734 362.684 50.182 363.762 50.182ZM368.323 50H369.597V44.484C370.297 43.7 370.941 43.322 371.515 43.322C372.481 43.322 372.929 43.924 372.929 45.352V50H374.203V44.484C374.917 43.7 375.533 43.322 376.121 43.322C377.087 43.322 377.535 43.924 377.535 45.352V50H378.809V45.184C378.809 43.238 378.067 42.202 376.499 42.202C375.575 42.202 374.777 42.804 373.993 43.658C373.685 42.762 373.055 42.202 371.893 42.202C370.983 42.202 370.185 42.776 369.527 43.504H369.485L369.373 42.398H368.323V50ZM384.238 50.182C386.1 50.182 387.766 48.726 387.766 46.206C387.766 43.672 386.1 42.202 384.238 42.202C382.376 42.202 380.71 43.672 380.71 46.206C380.71 48.726 382.376 50.182 384.238 50.182ZM384.238 49.118C382.922 49.118 382.04 47.956 382.04 46.206C382.04 44.456 382.922 43.266 384.238 43.266C385.554 43.266 386.45 44.456 386.45 46.206C386.45 47.956 385.554 49.118 384.238 49.118ZM391.762 50.182C393.554 50.182 394.534 49.16 394.534 47.928C394.534 46.486 393.316 46.038 392.21 45.618C391.356 45.296 390.572 45.03 390.572 44.302C390.572 43.714 391.02 43.21 391.986 43.21C392.658 43.21 393.19 43.49 393.708 43.882L394.324 43.056C393.736 42.594 392.91 42.202 391.972 42.202C390.32 42.202 389.34 43.154 389.34 44.358C389.34 45.646 390.502 46.164 391.566 46.556C392.406 46.878 393.302 47.214 393.302 47.998C393.302 48.656 392.812 49.188 391.804 49.188C390.894 49.188 390.208 48.824 389.55 48.292L388.92 49.132C389.648 49.734 390.684 50.182 391.762 50.182ZM396.085 52.66C397.345 52.128 398.129 51.078 398.129 49.734C398.129 48.796 397.723 48.222 397.051 48.222C396.533 48.222 396.085 48.572 396.085 49.118C396.085 49.706 396.533 50.014 397.023 50.014C397.079 50.014 397.121 50.014 397.177 50C397.177 50.826 396.659 51.512 395.777 51.904L396.085 52.66ZM408.181 53.206H409.441V42.398H408.433L408.307 43.126H408.265C407.607 42.524 406.977 42.202 406.095 42.202C404.359 42.202 402.805 43.742 402.805 46.206C402.805 48.74 404.037 50.182 405.941 50.182C406.823 50.182 407.621 49.72 408.237 49.118L408.181 50.504V53.206ZM406.221 49.118C404.877 49.118 404.12 48.026 404.12 46.192C404.12 44.456 405.087 43.28 406.319 43.28C406.949 43.28 407.523 43.504 408.181 44.078V48.068C407.537 48.768 406.921 49.118 406.221 49.118ZM414.244 50.182C415.294 50.182 416.05 49.636 416.764 48.81H416.806L416.904 50H417.968V42.398H416.694V47.788C415.966 48.698 415.42 49.076 414.636 49.076C413.628 49.076 413.208 48.474 413.208 47.06V42.398H411.934V47.214C411.934 49.146 412.648 50.182 414.244 50.182ZM423.602 50.182C424.638 50.182 425.45 49.832 426.122 49.398L425.66 48.558C425.1 48.936 424.498 49.16 423.756 49.16C422.314 49.16 421.32 48.124 421.236 46.5H426.36C426.388 46.318 426.416 46.052 426.416 45.772C426.416 43.602 425.324 42.202 423.392 42.202C421.628 42.202 419.962 43.742 419.962 46.206C419.962 48.712 421.586 50.182 423.602 50.182ZM421.222 45.576C421.376 44.092 422.328 43.224 423.406 43.224C424.596 43.224 425.296 44.05 425.296 45.576H421.222ZM432.763 50.182C433.113 50.182 433.323 50.14 433.505 50.07L433.323 49.09C433.183 49.118 433.127 49.118 433.057 49.118C432.861 49.118 432.693 48.964 432.693 48.572V38.856H431.419V48.488C431.419 49.566 431.811 50.182 432.763 50.182ZM437.161 50.182C438.099 50.182 438.953 49.692 439.681 49.09H439.723L439.835 50H440.885V45.324C440.885 43.448 440.101 42.202 438.253 42.202C437.035 42.202 435.957 42.748 435.257 43.196L435.761 44.078C436.363 43.672 437.161 43.266 438.043 43.266C439.289 43.266 439.611 44.204 439.611 45.184C436.377 45.548 434.935 46.374 434.935 48.026C434.935 49.398 435.887 50.182 437.161 50.182ZM437.525 49.16C436.769 49.16 436.181 48.81 436.181 47.942C436.181 46.962 437.049 46.332 439.611 46.024V48.152C438.869 48.81 438.267 49.16 437.525 49.16ZM446.444 53.206H447.718V50.63L447.69 49.3C448.376 49.86 449.104 50.182 449.79 50.182C451.54 50.182 453.094 48.684 453.094 46.08C453.094 43.742 452.03 42.202 450.07 42.202C449.188 42.202 448.334 42.706 447.648 43.266H447.606L447.494 42.398H446.444V53.206ZM449.58 49.118C449.076 49.118 448.404 48.908 447.718 48.32V44.33C448.46 43.644 449.118 43.28 449.762 43.28C451.204 43.28 451.764 44.414 451.764 46.094C451.764 47.984 450.84 49.118 449.58 49.118ZM456.47 50.182C456.82 50.182 457.03 50.14 457.212 50.07L457.03 49.09C456.89 49.118 456.834 49.118 456.764 49.118C456.568 49.118 456.4 48.964 456.4 48.572V38.856H455.126V48.488C455.126 49.566 455.518 50.182 456.47 50.182ZM460.868 50.182C461.806 50.182 462.66 49.692 463.388 49.09H463.43L463.542 50H464.592V45.324C464.592 43.448 463.808 42.202 461.96 42.202C460.742 42.202 459.664 42.748 458.964 43.196L459.468 44.078C460.07 43.672 460.868 43.266 461.75 43.266C462.996 43.266 463.318 44.204 463.318 45.184C460.084 45.548 458.642 46.374 458.642 48.026C458.642 49.398 459.594 50.182 460.868 50.182ZM461.232 49.16C460.476 49.16 459.888 48.81 459.888 47.942C459.888 46.962 460.756 46.332 463.318 46.024V48.152C462.576 48.81 461.974 49.16 461.232 49.16ZM469.209 50.182C469.671 50.182 470.175 50.042 470.609 49.902L470.357 48.95C470.105 49.048 469.755 49.146 469.489 49.146C468.607 49.146 468.313 48.614 468.313 47.676V43.434H470.371V42.398H468.313V40.256H467.249L467.095 42.398L465.905 42.468V43.434H467.039V47.648C467.039 49.16 467.585 50.182 469.209 50.182ZM473.501 50.182C474.439 50.182 475.293 49.692 476.021 49.09H476.063L476.175 50H477.225V45.324C477.225 43.448 476.441 42.202 474.593 42.202C473.375 42.202 472.297 42.748 471.597 43.196L472.101 44.078C472.703 43.672 473.501 43.266 474.383 43.266C475.629 43.266 475.951 44.204 475.951 45.184C472.717 45.548 471.275 46.374 471.275 48.026C471.275 49.398 472.227 50.182 473.501 50.182ZM473.865 49.16C473.109 49.16 472.521 48.81 472.521 47.942C472.521 46.962 473.389 46.332 475.951 46.024V48.152C475.209 48.81 474.607 49.16 473.865 49.16ZM479.863 50H481.137V43.434H482.747V42.398H481.137V41.194C481.137 40.214 481.487 39.696 482.215 39.696C482.481 39.696 482.789 39.766 483.069 39.892L483.349 38.926C482.999 38.772 482.537 38.674 482.075 38.674C480.563 38.674 479.863 39.64 479.863 41.18V42.398L478.827 42.468V43.434H479.863V50ZM487.01 50.182C488.872 50.182 490.538 48.726 490.538 46.206C490.538 43.672 488.872 42.202 487.01 42.202C485.148 42.202 483.482 43.672 483.482 46.206C483.482 48.726 485.148 50.182 487.01 50.182ZM487.01 49.118C485.694 49.118 484.812 47.956 484.812 46.206C484.812 44.456 485.694 43.266 487.01 43.266C488.326 43.266 489.222 44.456 489.222 46.206C489.222 47.956 488.326 49.118 487.01 49.118ZM492.546 50H493.82V45.114C494.324 43.812 495.108 43.364 495.738 43.364C496.046 43.364 496.228 43.392 496.48 43.49L496.718 42.37C496.48 42.244 496.242 42.202 495.906 42.202C495.052 42.202 494.282 42.818 493.75 43.784H493.708L493.596 42.398H492.546V50ZM497.974 50H499.248V44.484C499.948 43.7 500.592 43.322 501.166 43.322C502.132 43.322 502.58 43.924 502.58 45.352V50H503.854V44.484C504.568 43.7 505.184 43.322 505.772 43.322C506.738 43.322 507.186 43.924 507.186 45.352V50H508.46V45.184C508.46 43.238 507.718 42.202 506.15 42.202C505.226 42.202 504.428 42.804 503.644 43.658C503.336 42.762 502.706 42.202 501.544 42.202C500.634 42.202 499.836 42.776 499.178 43.504H499.136L499.024 42.398H497.974V50ZM512.684 50.182C513.622 50.182 514.476 49.692 515.204 49.09H515.246L515.358 50H516.408V45.324C516.408 43.448 515.624 42.202 513.776 42.202C512.558 42.202 511.48 42.748 510.78 43.196L511.284 44.078C511.886 43.672 512.684 43.266 513.566 43.266C514.812 43.266 515.134 44.204 515.134 45.184C511.9 45.548 510.458 46.374 510.458 48.026C510.458 49.398 511.41 50.182 512.684 50.182ZM513.048 49.16C512.292 49.16 511.704 48.81 511.704 47.942C511.704 46.962 512.572 46.332 515.134 46.024V48.152C514.392 48.81 513.79 49.16 513.048 49.16ZM523.606 50H525.09L527.792 42.398H526.532L525.09 46.724C524.866 47.466 524.628 48.25 524.39 48.964H524.334C524.096 48.25 523.858 47.466 523.62 46.724L522.192 42.398H520.862L523.606 50ZM529.268 50H530.542V42.398H529.268V50ZM529.912 40.83C530.416 40.83 530.766 40.494 530.766 39.976C530.766 39.486 530.416 39.15 529.912 39.15C529.408 39.15 529.058 39.486 529.058 39.976C529.058 40.494 529.408 40.83 529.912 40.83ZM535.686 53.5C538.038 53.5 539.536 52.282 539.536 50.868C539.536 49.622 538.64 49.062 536.876 49.062H535.392C534.37 49.062 534.062 48.726 534.062 48.236C534.062 47.816 534.272 47.564 534.552 47.326C534.888 47.494 535.308 47.592 535.686 47.592C537.226 47.592 538.458 46.57 538.458 44.946C538.458 44.288 538.206 43.728 537.842 43.378H539.396V42.398H536.75C536.484 42.3 536.106 42.202 535.686 42.202C534.146 42.202 532.83 43.252 532.83 44.918C532.83 45.828 533.32 46.556 533.824 46.962V47.018C533.432 47.298 532.97 47.802 532.97 48.432C532.97 49.034 533.264 49.44 533.67 49.678V49.734C532.956 50.196 532.55 50.812 532.55 51.456C532.55 52.772 533.824 53.5 535.686 53.5ZM535.686 46.724C534.804 46.724 534.062 46.024 534.062 44.918C534.062 43.798 534.79 43.14 535.686 43.14C536.582 43.14 537.31 43.812 537.31 44.918C537.31 46.024 536.554 46.724 535.686 46.724ZM535.868 52.632C534.496 52.632 533.67 52.1 533.67 51.288C533.67 50.84 533.894 50.392 534.44 50C534.776 50.084 535.14 50.126 535.42 50.126H536.736C537.744 50.126 538.29 50.364 538.29 51.064C538.29 51.862 537.324 52.632 535.868 52.632ZM543.874 50.182C544.91 50.182 545.722 49.832 546.394 49.398L545.932 48.558C545.372 48.936 544.77 49.16 544.028 49.16C542.586 49.16 541.592 48.124 541.508 46.5H546.632C546.66 46.318 546.688 46.052 546.688 45.772C546.688 43.602 545.596 42.202 543.664 42.202C541.9 42.202 540.234 43.742 540.234 46.206C540.234 48.712 541.858 50.182 543.874 50.182ZM541.494 45.576C541.648 44.092 542.6 43.224 543.678 43.224C544.868 43.224 545.568 44.05 545.568 45.576H541.494ZM548.559 50H549.833V44.484C550.603 43.714 551.135 43.322 551.919 43.322C552.927 43.322 553.361 43.924 553.361 45.352V50H554.635V45.184C554.635 43.238 553.907 42.202 552.311 42.202C551.275 42.202 550.491 42.776 549.763 43.49H549.721L549.609 42.398H548.559V50ZM559.512 50.182C559.974 50.182 560.478 50.042 560.912 49.902L560.66 48.95C560.408 49.048 560.058 49.146 559.792 49.146C558.91 49.146 558.616 48.614 558.616 47.676V43.434H560.674V42.398H558.616V40.256H557.552L557.398 42.398L556.208 42.468V43.434H557.342V47.648C557.342 49.16 557.888 50.182 559.512 50.182ZM565.256 50.182C566.292 50.182 567.104 49.832 567.776 49.398L567.314 48.558C566.754 48.936 566.152 49.16 565.41 49.16C563.968 49.16 562.974 48.124 562.89 46.5H568.014C568.042 46.318 568.07 46.052 568.07 45.772C568.07 43.602 566.978 42.202 565.046 42.202C563.282 42.202 561.616 43.742 561.616 46.206C561.616 48.712 563.24 50.182 565.256 50.182ZM562.876 45.576C563.03 44.092 563.982 43.224 565.06 43.224C566.25 43.224 566.95 44.05 566.95 45.576H562.876ZM576.139 50.182C577.175 50.182 577.987 49.832 578.659 49.398L578.197 48.558C577.637 48.936 577.035 49.16 576.293 49.16C574.851 49.16 573.857 48.124 573.773 46.5H578.897C578.925 46.318 578.953 46.052 578.953 45.772C578.953 43.602 577.861 42.202 575.929 42.202C574.165 42.202 572.499 43.742 572.499 46.206C572.499 48.712 574.123 50.182 576.139 50.182ZM573.759 45.576C573.913 44.092 574.865 43.224 575.943 43.224C577.133 43.224 577.833 44.05 577.833 45.576H573.759ZM582.813 50.182C584.605 50.182 585.585 49.16 585.585 47.928C585.585 46.486 584.367 46.038 583.261 45.618C582.407 45.296 581.623 45.03 581.623 44.302C581.623 43.714 582.071 43.21 583.037 43.21C583.709 43.21 584.241 43.49 584.759 43.882L585.375 43.056C584.787 42.594 583.961 42.202 583.023 42.202C581.371 42.202 580.391 43.154 580.391 44.358C580.391 45.646 581.553 46.164 582.617 46.556C583.457 46.878 584.353 47.214 584.353 47.998C584.353 48.656 583.863 49.188 582.855 49.188C581.945 49.188 581.259 48.824 580.601 48.292L579.971 49.132C580.699 49.734 581.735 50.182 582.813 50.182ZM589.453 50.182C589.915 50.182 590.419 50.042 590.853 49.902L590.601 48.95C590.349 49.048 589.999 49.146 589.733 49.146C588.851 49.146 588.557 48.614 588.557 47.676V43.434H590.615V42.398H588.557V40.256H587.493L587.339 42.398L586.149 42.468V43.434H587.283V47.648C587.283 49.16 587.829 50.182 589.453 50.182ZM593.745 50.182C594.683 50.182 595.537 49.692 596.265 49.09H596.307L596.419 50H597.469V45.324C597.469 43.448 596.685 42.202 594.837 42.202C593.619 42.202 592.541 42.748 591.841 43.196L592.345 44.078C592.947 43.672 593.745 43.266 594.627 43.266C595.873 43.266 596.195 44.204 596.195 45.184C592.961 45.548 591.519 46.374 591.519 48.026C591.519 49.398 592.471 50.182 593.745 50.182ZM594.109 49.16C593.353 49.16 592.765 48.81 592.765 47.942C592.765 46.962 593.633 46.332 596.195 46.024V48.152C595.453 48.81 594.851 49.16 594.109 49.16ZM603.243 50.182C604.993 50.182 606.547 48.684 606.547 46.066C606.547 43.742 605.483 42.202 603.509 42.202C602.669 42.202 601.815 42.678 601.129 43.28L601.171 41.908V38.856H599.897V50H600.919L601.031 49.216H601.087C601.745 49.818 602.543 50.182 603.243 50.182ZM603.033 49.118C602.529 49.118 601.843 48.908 601.171 48.32V44.33C601.899 43.644 602.571 43.28 603.215 43.28C604.657 43.28 605.217 44.414 605.217 46.094C605.217 47.984 604.293 49.118 603.033 49.118ZM610.083 50.182C611.021 50.182 611.875 49.692 612.603 49.09H612.645L612.757 50H613.807V45.324C613.807 43.448 613.023 42.202 611.175 42.202C609.957 42.202 608.879 42.748 608.179 43.196L608.683 44.078C609.285 43.672 610.083 43.266 610.965 43.266C612.211 43.266 612.533 44.204 612.533 45.184C609.299 45.548 607.857 46.374 607.857 48.026C607.857 49.398 608.809 50.182 610.083 50.182ZM610.447 49.16C609.691 49.16 609.103 48.81 609.103 47.942C609.103 46.962 609.971 46.332 612.533 46.024V48.152C611.791 48.81 611.189 49.16 610.447 49.16ZM621.354 50.182C623.146 50.182 624.126 49.16 624.126 47.928C624.126 46.486 622.908 46.038 621.802 45.618C620.948 45.296 620.164 45.03 620.164 44.302C620.164 43.714 620.612 43.21 621.578 43.21C622.25 43.21 622.782 43.49 623.3 43.882L623.916 43.056C623.328 42.594 622.502 42.202 621.564 42.202C619.912 42.202 618.932 43.154 618.932 44.358C618.932 45.646 620.094 46.164 621.158 46.556C621.998 46.878 622.894 47.214 622.894 47.998C622.894 48.656 622.404 49.188 621.396 49.188C620.486 49.188 619.8 48.824 619.142 48.292L618.512 49.132C619.24 49.734 620.276 50.182 621.354 50.182ZM625.915 50H627.189V42.398H625.915V50ZM626.559 40.83C627.063 40.83 627.413 40.494 627.413 39.976C627.413 39.486 627.063 39.15 626.559 39.15C626.055 39.15 625.705 39.486 625.705 39.976C625.705 40.494 626.055 40.83 626.559 40.83ZM632.836 50.182C633.872 50.182 634.684 49.832 635.356 49.398L634.894 48.558C634.334 48.936 633.732 49.16 632.99 49.16C631.548 49.16 630.554 48.124 630.47 46.5H635.594C635.622 46.318 635.65 46.052 635.65 45.772C635.65 43.602 634.558 42.202 632.626 42.202C630.862 42.202 629.196 43.742 629.196 46.206C629.196 48.712 630.82 50.182 632.836 50.182ZM630.456 45.576C630.61 44.092 631.562 43.224 632.64 43.224C633.83 43.224 634.53 44.05 634.53 45.576H630.456ZM637.522 50H638.796V44.484C639.566 43.714 640.098 43.322 640.882 43.322C641.89 43.322 642.324 43.924 642.324 45.352V50H643.598V45.184C643.598 43.238 642.87 42.202 641.274 42.202C640.238 42.202 639.454 42.776 638.726 43.49H638.684L638.572 42.398H637.522V50ZM648.671 50.182C649.581 50.182 650.379 49.692 650.981 49.104H651.023L651.135 50H652.171V38.856H650.911V41.782L650.967 43.098C650.295 42.538 649.721 42.202 648.825 42.202C647.089 42.202 645.535 43.742 645.535 46.206C645.535 48.74 646.767 50.182 648.671 50.182ZM648.951 49.118C647.607 49.118 646.851 48.026 646.851 46.192C646.851 44.456 647.817 43.28 649.049 43.28C649.679 43.28 650.253 43.504 650.911 44.078V48.068C650.267 48.768 649.651 49.118 648.951 49.118ZM657.717 50.182C659.579 50.182 661.245 48.726 661.245 46.206C661.245 43.672 659.579 42.202 657.717 42.202C655.855 42.202 654.189 43.672 654.189 46.206C654.189 48.726 655.855 50.182 657.717 50.182ZM657.717 49.118C656.401 49.118 655.519 47.956 655.519 46.206C655.519 44.456 656.401 43.266 657.717 43.266C659.033 43.266 659.929 44.456 659.929 46.206C659.929 47.956 659.033 49.118 657.717 49.118ZM666.384 53.206H667.658V50.63L667.63 49.3C668.316 49.86 669.044 50.182 669.73 50.182C671.48 50.182 673.034 48.684 673.034 46.08C673.034 43.742 671.97 42.202 670.01 42.202C669.128 42.202 668.274 42.706 667.588 43.266H667.546L667.434 42.398H666.384V53.206ZM669.52 49.118C669.016 49.118 668.344 48.908 667.658 48.32V44.33C668.4 43.644 669.058 43.28 669.702 43.28C671.144 43.28 671.704 44.414 671.704 46.094C671.704 47.984 670.78 49.118 669.52 49.118ZM678.019 50.182C679.881 50.182 681.547 48.726 681.547 46.206C681.547 43.672 679.881 42.202 678.019 42.202C676.157 42.202 674.491 43.672 674.491 46.206C674.491 48.726 676.157 50.182 678.019 50.182ZM678.019 49.118C676.703 49.118 675.821 47.956 675.821 46.206C675.821 44.456 676.703 43.266 678.019 43.266C679.335 43.266 680.231 44.456 680.231 46.206C680.231 47.956 679.335 49.118 678.019 49.118ZM686.552 50.182C687.462 50.182 688.33 49.832 689.016 49.216L688.456 48.362C687.98 48.796 687.364 49.118 686.664 49.118C685.264 49.118 684.312 47.956 684.312 46.206C684.312 44.456 685.32 43.266 686.706 43.266C687.308 43.266 687.77 43.546 688.218 43.938L688.876 43.098C688.33 42.622 687.644 42.202 686.65 42.202C684.704 42.202 682.982 43.672 682.982 46.206C682.982 48.726 684.536 50.182 686.552 50.182ZM693.291 50.182C695.153 50.182 696.819 48.726 696.819 46.206C696.819 43.672 695.153 42.202 693.291 42.202C691.429 42.202 689.763 43.672 689.763 46.206C689.763 48.726 691.429 50.182 693.291 50.182ZM693.291 49.118C691.975 49.118 691.093 47.956 691.093 46.206C691.093 44.456 691.975 43.266 693.291 43.266C694.607 43.266 695.503 44.456 695.503 46.206C695.503 47.956 694.607 49.118 693.291 49.118ZM704.954 50.182C705.864 50.182 706.732 49.832 707.418 49.216L706.858 48.362C706.382 48.796 705.766 49.118 705.066 49.118C703.666 49.118 702.714 47.956 702.714 46.206C702.714 44.456 703.722 43.266 705.108 43.266C705.71 43.266 706.172 43.546 706.62 43.938L707.278 43.098C706.732 42.622 706.046 42.202 705.052 42.202C703.106 42.202 701.384 43.672 701.384 46.206C701.384 48.726 702.938 50.182 704.954 50.182ZM711.693 50.182C713.555 50.182 715.221 48.726 715.221 46.206C715.221 43.672 713.555 42.202 711.693 42.202C709.831 42.202 708.165 43.672 708.165 46.206C708.165 48.726 709.831 50.182 711.693 50.182ZM711.693 49.118C710.377 49.118 709.495 47.956 709.495 46.206C709.495 44.456 710.377 43.266 711.693 43.266C713.009 43.266 713.905 44.456 713.905 46.206C713.905 47.956 713.009 49.118 711.693 49.118ZM717.229 50H718.503V44.484C719.203 43.7 719.847 43.322 720.421 43.322C721.387 43.322 721.835 43.924 721.835 45.352V50H723.109V44.484C723.823 43.7 724.439 43.322 725.027 43.322C725.993 43.322 726.441 43.924 726.441 45.352V50H727.715V45.184C727.715 43.238 726.973 42.202 725.405 42.202C724.481 42.202 723.683 42.804 722.899 43.658C722.591 42.762 721.961 42.202 720.799 42.202C719.889 42.202 719.091 42.776 718.433 43.504H718.391L718.279 42.398H717.229V50ZM730.19 53.206H731.464V50.63L731.436 49.3C732.122 49.86 732.85 50.182 733.536 50.182C735.286 50.182 736.84 48.684 736.84 46.08C736.84 43.742 735.776 42.202 733.816 42.202C732.934 42.202 732.08 42.706 731.394 43.266H731.352L731.24 42.398H730.19V53.206ZM733.326 49.118C732.822 49.118 732.15 48.908 731.464 48.32V44.33C732.206 43.644 732.864 43.28 733.508 43.28C734.95 43.28 735.51 44.414 735.51 46.094C735.51 47.984 734.586 49.118 733.326 49.118ZM738.872 50H740.146V45.114C740.65 43.812 741.434 43.364 742.064 43.364C742.372 43.364 742.554 43.392 742.806 43.49L743.044 42.37C742.806 42.244 742.568 42.202 742.232 42.202C741.378 42.202 740.608 42.818 740.076 43.784H740.034L739.922 42.398H738.872V50ZM747.215 50.182C748.251 50.182 749.063 49.832 749.735 49.398L749.273 48.558C748.713 48.936 748.111 49.16 747.369 49.16C745.927 49.16 744.933 48.124 744.849 46.5H749.973C750.001 46.318 750.029 46.052 750.029 45.772C750.029 43.602 748.937 42.202 747.005 42.202C745.241 42.202 743.575 43.742 743.575 46.206C743.575 48.712 745.199 50.182 747.215 50.182ZM744.835 45.576C744.989 44.092 745.941 43.224 747.019 43.224C748.209 43.224 748.909 44.05 748.909 45.576H744.835ZM751.901 50H753.175V44.484C753.945 43.714 754.477 43.322 755.261 43.322C756.269 43.322 756.703 43.924 756.703 45.352V50H757.977V45.184C757.977 43.238 757.249 42.202 755.653 42.202C754.617 42.202 753.833 42.776 753.105 43.49H753.063L752.951 42.398H751.901V50ZM763.05 50.182C763.96 50.182 764.758 49.692 765.36 49.104H765.402L765.514 50H766.55V38.856H765.29V41.782L765.346 43.098C764.674 42.538 764.1 42.202 763.204 42.202C761.468 42.202 759.914 43.742 759.914 46.206C759.914 48.74 761.146 50.182 763.05 50.182ZM763.33 49.118C761.986 49.118 761.23 48.026 761.23 46.192C761.23 44.456 762.196 43.28 763.428 43.28C764.058 43.28 764.632 43.504 765.29 44.078V48.068C764.646 48.768 764.03 49.118 763.33 49.118ZM769.142 50H770.416V42.398H769.142V50ZM769.786 40.83C770.29 40.83 770.64 40.494 770.64 39.976C770.64 39.486 770.29 39.15 769.786 39.15C769.282 39.15 768.932 39.486 768.932 39.976C768.932 40.494 769.282 40.83 769.786 40.83ZM775.587 50.182C776.497 50.182 777.295 49.692 777.897 49.104H777.939L778.051 50H779.087V38.856H777.827V41.782L777.883 43.098C777.211 42.538 776.637 42.202 775.741 42.202C774.005 42.202 772.451 43.742 772.451 46.206C772.451 48.74 773.683 50.182 775.587 50.182ZM775.867 49.118C774.523 49.118 773.767 48.026 773.767 46.192C773.767 44.456 774.733 43.28 775.965 43.28C776.595 43.28 777.169 43.504 777.827 44.078V48.068C777.183 48.768 776.567 49.118 775.867 49.118ZM783.429 50.182C784.367 50.182 785.221 49.692 785.949 49.09H785.991L786.103 50H787.153V45.324C787.153 43.448 786.369 42.202 784.521 42.202C783.303 42.202 782.225 42.748 781.525 43.196L782.029 44.078C782.631 43.672 783.429 43.266 784.311 43.266C785.557 43.266 785.879 44.204 785.879 45.184C782.645 45.548 781.203 46.374 781.203 48.026C781.203 49.398 782.155 50.182 783.429 50.182ZM783.793 49.16C783.037 49.16 782.449 48.81 782.449 47.942C782.449 46.962 783.317 46.332 785.879 46.024V48.152C785.137 48.81 784.535 49.16 783.793 49.16ZM792.838 53.276C794.35 53.276 795.148 52.128 795.666 50.63L798.536 42.398H797.29L795.932 46.626C795.722 47.298 795.498 48.068 795.288 48.754H795.218C794.98 48.068 794.714 47.284 794.49 46.626L792.936 42.398H791.606L794.658 50.014L794.49 50.588C794.182 51.526 793.636 52.226 792.768 52.226C792.572 52.226 792.348 52.156 792.194 52.1L791.942 53.122C792.18 53.22 792.474 53.276 792.838 53.276ZM4.354 70.182C5.39 70.182 6.202 69.832 6.874 69.398L6.412 68.558C5.852 68.936 5.25 69.16 4.508 69.16C3.066 69.16 2.072 68.124 1.988 66.5H7.112C7.14 66.318 7.168 66.052 7.168 65.772C7.168 63.602 6.076 62.202 4.144 62.202C2.38 62.202 0.714 63.742 0.714 66.206C0.714 68.712 2.338 70.182 4.354 70.182ZM1.974 65.576C2.128 64.092 3.08 63.224 4.158 63.224C5.348 63.224 6.048 64.05 6.048 65.576H1.974ZM11.028 70.182C12.82 70.182 13.8 69.16 13.8 67.928C13.8 66.486 12.582 66.038 11.476 65.618C10.622 65.296 9.83795 65.03 9.83795 64.302C9.83795 63.714 10.286 63.21 11.252 63.21C11.924 63.21 12.456 63.49 12.974 63.882L13.59 63.056C13.002 62.594 12.176 62.202 11.238 62.202C9.58595 62.202 8.60595 63.154 8.60595 64.358C8.60595 65.646 9.76795 66.164 10.832 66.556C11.672 66.878 12.568 67.214 12.568 67.998C12.568 68.656 12.078 69.188 11.07 69.188C10.16 69.188 9.47395 68.824 8.81595 68.292L8.18595 69.132C8.91395 69.734 9.94995 70.182 11.028 70.182ZM18.5848 70.182C19.4948 70.182 20.3628 69.832 21.0488 69.216L20.4888 68.362C20.0128 68.796 19.3968 69.118 18.6968 69.118C17.2968 69.118 16.3448 67.956 16.3448 66.206C16.3448 64.456 17.3528 63.266 18.7388 63.266C19.3408 63.266 19.8028 63.546 20.2508 63.938L20.9088 63.098C20.3628 62.622 19.6768 62.202 18.6828 62.202C16.7368 62.202 15.0148 63.672 15.0148 66.206C15.0148 68.726 16.5688 70.182 18.5848 70.182ZM24.3114 70.182C25.2494 70.182 26.1034 69.692 26.8314 69.09H26.8734L26.9854 70H28.0354V65.324C28.0354 63.448 27.2514 62.202 25.4034 62.202C24.1854 62.202 23.1074 62.748 22.4074 63.196L22.9114 64.078C23.5134 63.672 24.3114 63.266 25.1934 63.266C26.4394 63.266 26.7614 64.204 26.7614 65.184C23.5274 65.548 22.0854 66.374 22.0854 68.026C22.0854 69.398 23.0374 70.182 24.3114 70.182ZM24.6754 69.16C23.9194 69.16 23.3314 68.81 23.3314 67.942C23.3314 66.962 24.1994 66.332 26.7614 66.024V68.152C26.0194 68.81 25.4174 69.16 24.6754 69.16ZM32.4518 70.182C34.2438 70.182 35.2238 69.16 35.2238 67.928C35.2238 66.486 34.0058 66.038 32.8998 65.618C32.0458 65.296 31.2618 65.03 31.2618 64.302C31.2618 63.714 31.7098 63.21 32.6758 63.21C33.3478 63.21 33.8798 63.49 34.3978 63.882L35.0138 63.056C34.4258 62.594 33.5998 62.202 32.6618 62.202C31.0098 62.202 30.0298 63.154 30.0298 64.358C30.0298 65.646 31.1918 66.164 32.2558 66.556C33.0958 66.878 33.9918 67.214 33.9918 67.998C33.9918 68.656 33.5018 69.188 32.4938 69.188C31.5838 69.188 30.8978 68.824 30.2398 68.292L29.6098 69.132C30.3378 69.734 31.3738 70.182 32.4518 70.182ZM38.7626 70.182C39.7006 70.182 40.5546 69.692 41.2826 69.09H41.3246L41.4366 70H42.4866V65.324C42.4866 63.448 41.7026 62.202 39.8546 62.202C38.6366 62.202 37.5586 62.748 36.8586 63.196L37.3626 64.078C37.9646 63.672 38.7626 63.266 39.6446 63.266C40.8906 63.266 41.2126 64.204 41.2126 65.184C37.9786 65.548 36.5366 66.374 36.5366 68.026C36.5366 69.398 37.4886 70.182 38.7626 70.182ZM39.1266 69.16C38.3706 69.16 37.7826 68.81 37.7826 67.942C37.7826 66.962 38.6506 66.332 41.2126 66.024V68.152C40.4706 68.81 39.8686 69.16 39.1266 69.16ZM44.915 70H46.189V64.484C46.889 63.7 47.533 63.322 48.107 63.322C49.073 63.322 49.521 63.924 49.521 65.352V70H50.795V64.484C51.509 63.7 52.125 63.322 52.713 63.322C53.679 63.322 54.127 63.924 54.127 65.352V70H55.401V65.184C55.401 63.238 54.659 62.202 53.091 62.202C52.167 62.202 51.369 62.804 50.585 63.658C50.277 62.762 49.647 62.202 48.485 62.202C47.575 62.202 46.777 62.776 46.119 63.504H46.077L45.965 62.398H44.915V70ZM60.9419 70.182C61.9779 70.182 62.7899 69.832 63.4619 69.398L62.9999 68.558C62.4399 68.936 61.8379 69.16 61.0959 69.16C59.6539 69.16 58.6599 68.124 58.5759 66.5H63.6999C63.7279 66.318 63.7559 66.052 63.7559 65.772C63.7559 63.602 62.6639 62.202 60.7319 62.202C58.9679 62.202 57.3019 63.742 57.3019 66.206C57.3019 68.712 58.9259 70.182 60.9419 70.182ZM58.5619 65.576C58.7159 64.092 59.6679 63.224 60.7459 63.224C61.9359 63.224 62.6359 64.05 62.6359 65.576H58.5619ZM65.6278 70H66.9018V64.484C67.6718 63.714 68.2038 63.322 68.9878 63.322C69.9958 63.322 70.4298 63.924 70.4298 65.352V70H71.7038V65.184C71.7038 63.238 70.9758 62.202 69.3798 62.202C68.3438 62.202 67.5598 62.776 66.8318 63.49H66.7898L66.6778 62.398H65.6278V70ZM76.5804 70.182C77.0424 70.182 77.5464 70.042 77.9804 69.902L77.7284 68.95C77.4764 69.048 77.1264 69.146 76.8604 69.146C75.9784 69.146 75.6844 68.614 75.6844 67.676V63.434H77.7424V62.398H75.6844V60.256H74.6204L74.4664 62.398L73.2764 62.468V63.434H74.4104V67.648C74.4104 69.16 74.9564 70.182 76.5804 70.182ZM82.3247 70.182C83.3607 70.182 84.1727 69.832 84.8447 69.398L84.3827 68.558C83.8227 68.936 83.2207 69.16 82.4787 69.16C81.0367 69.16 80.0427 68.124 79.9587 66.5H85.0827C85.1107 66.318 85.1387 66.052 85.1387 65.772C85.1387 63.602 84.0467 62.202 82.1147 62.202C80.3507 62.202 78.6847 63.742 78.6847 66.206C78.6847 68.712 80.3087 70.182 82.3247 70.182ZM79.9447 65.576C80.0987 64.092 81.0507 63.224 82.1287 63.224C83.3187 63.224 84.0187 64.05 84.0187 65.576H79.9447ZM92.3535 70.182C93.4035 70.182 94.1595 69.636 94.8735 68.81H94.9155L95.0135 70H96.0775V62.398H94.8035V67.788C94.0755 68.698 93.5295 69.076 92.7455 69.076C91.7375 69.076 91.3175 68.474 91.3175 67.06V62.398H90.0435V67.214C90.0435 69.146 90.7575 70.182 92.3535 70.182ZM100.633 70.182C102.425 70.182 103.405 69.16 103.405 67.928C103.405 66.486 102.187 66.038 101.081 65.618C100.227 65.296 99.4434 65.03 99.4434 64.302C99.4434 63.714 99.8914 63.21 100.857 63.21C101.529 63.21 102.061 63.49 102.579 63.882L103.195 63.056C102.607 62.594 101.781 62.202 100.843 62.202C99.1914 62.202 98.2114 63.154 98.2114 64.358C98.2114 65.646 99.3734 66.164 100.437 66.556C101.277 66.878 102.173 67.214 102.173 67.998C102.173 68.656 101.683 69.188 100.675 69.188C99.7654 69.188 99.0794 68.824 98.4214 68.292L97.7914 69.132C98.5194 69.734 99.5554 70.182 100.633 70.182ZM106.944 70.182C107.882 70.182 108.736 69.692 109.464 69.09H109.506L109.618 70H110.668V65.324C110.668 63.448 109.884 62.202 108.036 62.202C106.818 62.202 105.74 62.748 105.04 63.196L105.544 64.078C106.146 63.672 106.944 63.266 107.826 63.266C109.072 63.266 109.394 64.204 109.394 65.184C106.16 65.548 104.718 66.374 104.718 68.026C104.718 69.398 105.67 70.182 106.944 70.182ZM107.308 69.16C106.552 69.16 105.964 68.81 105.964 67.942C105.964 66.962 106.832 66.332 109.394 66.024V68.152C108.652 68.81 108.05 69.16 107.308 69.16ZM115.687 70.182C116.597 70.182 117.395 69.692 117.997 69.104H118.039L118.151 70H119.187V58.856H117.927V61.782L117.983 63.098C117.311 62.538 116.737 62.202 115.841 62.202C114.105 62.202 112.551 63.742 112.551 66.206C112.551 68.74 113.783 70.182 115.687 70.182ZM115.967 69.118C114.623 69.118 113.867 68.026 113.867 66.192C113.867 64.456 114.833 63.28 116.065 63.28C116.695 63.28 117.269 63.504 117.927 64.078V68.068C117.283 68.768 116.667 69.118 115.967 69.118ZM123.528 70.182C124.466 70.182 125.32 69.692 126.048 69.09H126.09L126.202 70H127.252V65.324C127.252 63.448 126.468 62.202 124.62 62.202C123.402 62.202 122.324 62.748 121.624 63.196L122.128 64.078C122.73 63.672 123.528 63.266 124.41 63.266C125.656 63.266 125.978 64.204 125.978 65.184C122.744 65.548 121.302 66.374 121.302 68.026C121.302 69.398 122.254 70.182 123.528 70.182ZM123.892 69.16C123.136 69.16 122.548 68.81 122.548 67.942C122.548 66.962 123.416 66.332 125.978 66.024V68.152C125.236 68.81 124.634 69.16 123.892 69.16ZM130.339 70.182C130.843 70.182 131.263 69.79 131.263 69.216C131.263 68.628 130.843 68.222 130.339 68.222C129.835 68.222 129.415 68.628 129.415 69.216C129.415 69.79 129.835 70.182 130.339 70.182ZM140.852 70.182C142.238 70.182 143.372 69.678 144.03 68.992V64.68H140.67V65.758H142.84V68.446C142.434 68.824 141.72 69.048 140.992 69.048C138.78 69.048 137.562 67.424 137.562 64.834C137.562 62.272 138.906 60.676 140.964 60.676C142.014 60.676 142.672 61.11 143.19 61.656L143.89 60.816C143.302 60.186 142.364 59.542 140.936 59.542C138.22 59.542 136.232 61.558 136.232 64.876C136.232 68.208 138.164 70.182 140.852 70.182ZM146.36 70H147.634V65.114C148.138 63.812 148.922 63.364 149.552 63.364C149.86 63.364 150.042 63.392 150.294 63.49L150.532 62.37C150.294 62.244 150.056 62.202 149.72 62.202C148.866 62.202 148.096 62.818 147.564 63.784H147.522L147.41 62.398H146.36V70ZM153.155 70.182C154.093 70.182 154.947 69.692 155.675 69.09H155.717L155.829 70H156.879V65.324C156.879 63.448 156.095 62.202 154.247 62.202C153.029 62.202 151.951 62.748 151.251 63.196L151.755 64.078C152.357 63.672 153.155 63.266 154.037 63.266C155.283 63.266 155.605 64.204 155.605 65.184C152.371 65.548 150.929 66.374 150.929 68.026C150.929 69.398 151.881 70.182 153.155 70.182ZM153.519 69.16C152.763 69.16 152.175 68.81 152.175 67.942C152.175 66.962 153.043 66.332 155.605 66.024V68.152C154.863 68.81 154.261 69.16 153.519 69.16ZM162.304 70.182C163.214 70.182 164.082 69.832 164.768 69.216L164.208 68.362C163.732 68.796 163.116 69.118 162.416 69.118C161.016 69.118 160.064 67.956 160.064 66.206C160.064 64.456 161.072 63.266 162.458 63.266C163.06 63.266 163.522 63.546 163.97 63.938L164.628 63.098C164.082 62.622 163.396 62.202 162.402 62.202C160.456 62.202 158.734 63.672 158.734 66.206C158.734 68.726 160.288 70.182 162.304 70.182ZM166.431 70H167.705V62.398H166.431V70ZM167.075 60.83C167.579 60.83 167.929 60.494 167.929 59.976C167.929 59.486 167.579 59.15 167.075 59.15C166.571 59.15 166.221 59.486 166.221 59.976C166.221 60.494 166.571 60.83 167.075 60.83ZM172.036 70.182C172.974 70.182 173.828 69.692 174.556 69.09H174.598L174.71 70H175.76V65.324C175.76 63.448 174.976 62.202 173.128 62.202C171.91 62.202 170.832 62.748 170.132 63.196L170.636 64.078C171.238 63.672 172.036 63.266 172.918 63.266C174.164 63.266 174.486 64.204 174.486 65.184C171.252 65.548 169.81 66.374 169.81 68.026C169.81 69.398 170.762 70.182 172.036 70.182ZM172.4 69.16C171.644 69.16 171.056 68.81 171.056 67.942C171.056 66.962 171.924 66.332 174.486 66.024V68.152C173.744 68.81 173.142 69.16 172.4 69.16ZM180.176 70.182C181.968 70.182 182.948 69.16 182.948 67.928C182.948 66.486 181.73 66.038 180.624 65.618C179.77 65.296 178.986 65.03 178.986 64.302C178.986 63.714 179.434 63.21 180.4 63.21C181.072 63.21 181.604 63.49 182.122 63.882L182.738 63.056C182.15 62.594 181.324 62.202 180.386 62.202C178.734 62.202 177.754 63.154 177.754 64.358C177.754 65.646 178.916 66.164 179.98 66.556C180.82 66.878 181.716 67.214 181.716 67.998C181.716 68.656 181.226 69.188 180.218 69.188C179.308 69.188 178.622 68.824 177.964 68.292L177.334 69.132C178.062 69.734 179.098 70.182 180.176 70.182ZM189.618 70.182C190.556 70.182 191.41 69.692 192.138 69.09H192.18L192.292 70H193.342V65.324C193.342 63.448 192.558 62.202 190.71 62.202C189.492 62.202 188.414 62.748 187.714 63.196L188.218 64.078C188.82 63.672 189.618 63.266 190.5 63.266C191.746 63.266 192.068 64.204 192.068 65.184C188.834 65.548 187.392 66.374 187.392 68.026C187.392 69.398 188.344 70.182 189.618 70.182ZM189.982 69.16C189.226 69.16 188.638 68.81 188.638 67.942C188.638 66.962 189.506 66.332 192.068 66.024V68.152C191.326 68.81 190.724 69.16 189.982 69.16ZM200.245 70.182C200.595 70.182 200.805 70.14 200.987 70.07L200.805 69.09C200.665 69.118 200.609 69.118 200.539 69.118C200.343 69.118 200.175 68.964 200.175 68.572V58.856H198.901V68.488C198.901 69.566 199.293 70.182 200.245 70.182ZM205.847 70.182C207.709 70.182 209.375 68.726 209.375 66.206C209.375 63.672 207.709 62.202 205.847 62.202C203.985 62.202 202.319 63.672 202.319 66.206C202.319 68.726 203.985 70.182 205.847 70.182ZM205.847 69.118C204.531 69.118 203.649 67.956 203.649 66.206C203.649 64.456 204.531 63.266 205.847 63.266C207.163 63.266 208.059 64.456 208.059 66.206C208.059 67.956 207.163 69.118 205.847 69.118ZM216.265 70.182C217.203 70.182 218.057 69.692 218.785 69.09H218.827L218.939 70H219.989V65.324C219.989 63.448 219.205 62.202 217.357 62.202C216.139 62.202 215.061 62.748 214.361 63.196L214.865 64.078C215.467 63.672 216.265 63.266 217.147 63.266C218.393 63.266 218.715 64.204 218.715 65.184C215.481 65.548 214.039 66.374 214.039 68.026C214.039 69.398 214.991 70.182 216.265 70.182ZM216.629 69.16C215.873 69.16 215.285 68.81 215.285 67.942C215.285 66.962 216.153 66.332 218.715 66.024V68.152C217.973 68.81 217.371 69.16 216.629 69.16ZM222.417 70H223.691V64.484C224.461 63.714 224.993 63.322 225.777 63.322C226.785 63.322 227.219 63.924 227.219 65.352V70H228.493V65.184C228.493 63.238 227.765 62.202 226.169 62.202C225.133 62.202 224.349 62.776 223.621 63.49H223.579L223.467 62.398H222.417V70ZM233.37 70.182C233.832 70.182 234.336 70.042 234.77 69.902L234.518 68.95C234.266 69.048 233.916 69.146 233.65 69.146C232.768 69.146 232.474 68.614 232.474 67.676V63.434H234.532V62.398H232.474V60.256H231.41L231.256 62.398L230.066 62.468V63.434H231.2V67.648C231.2 69.16 231.745 70.182 233.37 70.182ZM239.114 70.182C240.15 70.182 240.962 69.832 241.634 69.398L241.172 68.558C240.612 68.936 240.01 69.16 239.268 69.16C237.826 69.16 236.832 68.124 236.748 66.5H241.872C241.9 66.318 241.928 66.052 241.928 65.772C241.928 63.602 240.836 62.202 238.904 62.202C237.14 62.202 235.474 63.742 235.474 66.206C235.474 68.712 237.098 70.182 239.114 70.182ZM236.734 65.576C236.888 64.092 237.84 63.224 238.918 63.224C240.108 63.224 240.808 64.05 240.808 65.576H236.734ZM243.8 70H245.074V65.114C245.578 63.812 246.362 63.364 246.992 63.364C247.3 63.364 247.482 63.392 247.734 63.49L247.972 62.37C247.734 62.244 247.496 62.202 247.16 62.202C246.306 62.202 245.536 62.818 245.004 63.784H244.962L244.85 62.398H243.8V70ZM249.227 70H250.501V62.398H249.227V70ZM249.871 60.83C250.375 60.83 250.725 60.494 250.725 59.976C250.725 59.486 250.375 59.15 249.871 59.15C249.367 59.15 249.017 59.486 249.017 59.976C249.017 60.494 249.367 60.83 249.871 60.83ZM256.037 70.182C257.899 70.182 259.565 68.726 259.565 66.206C259.565 63.672 257.899 62.202 256.037 62.202C254.175 62.202 252.509 63.672 252.509 66.206C252.509 68.726 254.175 70.182 256.037 70.182ZM256.037 69.118C254.721 69.118 253.839 67.956 253.839 66.206C253.839 64.456 254.721 63.266 256.037 63.266C257.353 63.266 258.249 64.456 258.249 66.206C258.249 67.956 257.353 69.118 256.037 69.118ZM261.573 70H262.847V65.114C263.351 63.812 264.135 63.364 264.765 63.364C265.073 63.364 265.255 63.392 265.507 63.49L265.745 62.37C265.507 62.244 265.269 62.202 264.933 62.202C264.079 62.202 263.309 62.818 262.777 63.784H262.735L262.623 62.398H261.573V70ZM272.12 70.182C273.912 70.182 274.892 69.16 274.892 67.928C274.892 66.486 273.674 66.038 272.568 65.618C271.714 65.296 270.93 65.03 270.93 64.302C270.93 63.714 271.378 63.21 272.344 63.21C273.016 63.21 273.548 63.49 274.066 63.882L274.682 63.056C274.094 62.594 273.268 62.202 272.33 62.202C270.678 62.202 269.698 63.154 269.698 64.358C269.698 65.646 270.86 66.164 271.924 66.556C272.764 66.878 273.66 67.214 273.66 67.998C273.66 68.656 273.17 69.188 272.162 69.188C271.252 69.188 270.566 68.824 269.908 68.292L269.278 69.132C270.006 69.734 271.042 70.182 272.12 70.182ZM279.747 70.182C280.783 70.182 281.595 69.832 282.267 69.398L281.805 68.558C281.245 68.936 280.643 69.16 279.901 69.16C278.459 69.16 277.465 68.124 277.381 66.5H282.505C282.533 66.318 282.561 66.052 282.561 65.772C282.561 63.602 281.469 62.202 279.537 62.202C277.773 62.202 276.107 63.742 276.107 66.206C276.107 68.712 277.731 70.182 279.747 70.182ZM277.367 65.576C277.521 64.092 278.473 63.224 279.551 63.224C280.741 63.224 281.441 64.05 281.441 65.576H277.367ZM290.153 70.182C291.063 70.182 291.861 69.692 292.463 69.104H292.505L292.617 70H293.653V58.856H292.393V61.782L292.449 63.098C291.777 62.538 291.203 62.202 290.307 62.202C288.571 62.202 287.017 63.742 287.017 66.206C287.017 68.74 288.249 70.182 290.153 70.182ZM290.433 69.118C289.089 69.118 288.333 68.026 288.333 66.192C288.333 64.456 289.299 63.28 290.531 63.28C291.161 63.28 291.735 63.504 292.393 64.078V68.068C291.749 68.768 291.133 69.118 290.433 69.118ZM299.311 70.182C300.347 70.182 301.159 69.832 301.831 69.398L301.369 68.558C300.809 68.936 300.207 69.16 299.465 69.16C298.023 69.16 297.029 68.124 296.945 66.5H302.069C302.097 66.318 302.125 66.052 302.125 65.772C302.125 63.602 301.033 62.202 299.101 62.202C297.337 62.202 295.671 63.742 295.671 66.206C295.671 68.712 297.295 70.182 299.311 70.182ZM296.931 65.576C297.085 64.092 298.037 63.224 299.115 63.224C300.305 63.224 301.005 64.05 301.005 65.576H296.931ZM306.993 70.182C307.903 70.182 308.771 69.832 309.457 69.216L308.897 68.362C308.421 68.796 307.805 69.118 307.105 69.118C305.705 69.118 304.753 67.956 304.753 66.206C304.753 64.456 305.761 63.266 307.147 63.266C307.749 63.266 308.211 63.546 308.659 63.938L309.317 63.098C308.771 62.622 308.085 62.202 307.091 62.202C305.145 62.202 303.423 63.672 303.423 66.206C303.423 68.726 304.977 70.182 306.993 70.182ZM311.12 70H312.394V62.398H311.12V70ZM311.764 60.83C312.268 60.83 312.618 60.494 312.618 59.976C312.618 59.486 312.268 59.15 311.764 59.15C311.26 59.15 310.91 59.486 310.91 59.976C310.91 60.494 311.26 60.83 311.764 60.83ZM317.566 70.182C318.476 70.182 319.274 69.692 319.876 69.104H319.918L320.03 70H321.066V58.856H319.806V61.782L319.862 63.098C319.19 62.538 318.616 62.202 317.72 62.202C315.984 62.202 314.43 63.742 314.43 66.206C314.43 68.74 315.662 70.182 317.566 70.182ZM317.846 69.118C316.502 69.118 315.745 68.026 315.745 66.192C315.745 64.456 316.712 63.28 317.944 63.28C318.574 63.28 319.148 63.504 319.806 64.078V68.068C319.162 68.768 318.546 69.118 317.846 69.118ZM323.657 70H324.931V62.398H323.657V70ZM324.301 60.83C324.805 60.83 325.155 60.494 325.155 59.976C325.155 59.486 324.805 59.15 324.301 59.15C323.797 59.15 323.447 59.486 323.447 59.976C323.447 60.494 323.797 60.83 324.301 60.83ZM330.467 70.182C332.329 70.182 333.995 68.726 333.995 66.206C333.995 63.672 332.329 62.202 330.467 62.202C328.605 62.202 326.939 63.672 326.939 66.206C326.939 68.726 328.605 70.182 330.467 70.182ZM330.467 69.118C329.151 69.118 328.269 67.956 328.269 66.206C328.269 64.456 329.151 63.266 330.467 63.266C331.783 63.266 332.679 64.456 332.679 66.206C332.679 67.956 331.783 69.118 330.467 69.118ZM330.243 61.026L332.693 58.646L331.797 57.792L329.585 60.396L330.243 61.026ZM339.134 70H340.408V64.484C341.178 63.714 341.71 63.322 342.494 63.322C343.502 63.322 343.936 63.924 343.936 65.352V70H345.21V65.184C345.21 63.238 344.482 62.202 342.886 62.202C341.85 62.202 341.066 62.776 340.366 63.476L340.408 61.908V58.856H339.134V70ZM349.388 70.182C350.326 70.182 351.18 69.692 351.908 69.09H351.95L352.062 70H353.112V65.324C353.112 63.448 352.328 62.202 350.48 62.202C349.262 62.202 348.184 62.748 347.484 63.196L347.988 64.078C348.59 63.672 349.388 63.266 350.27 63.266C351.516 63.266 351.838 64.204 351.838 65.184C348.604 65.548 347.162 66.374 347.162 68.026C347.162 69.398 348.114 70.182 349.388 70.182ZM349.752 69.16C348.996 69.16 348.408 68.81 348.408 67.942C348.408 66.962 349.276 66.332 351.838 66.024V68.152C351.096 68.81 350.494 69.16 349.752 69.16ZM358.536 70.182C359.446 70.182 360.314 69.832 361 69.216L360.44 68.362C359.964 68.796 359.348 69.118 358.648 69.118C357.248 69.118 356.296 67.956 356.296 66.206C356.296 64.456 357.304 63.266 358.69 63.266C359.292 63.266 359.754 63.546 360.202 63.938L360.86 63.098C360.314 62.622 359.628 62.202 358.634 62.202C356.688 62.202 354.966 63.672 354.966 66.206C354.966 68.726 356.52 70.182 358.536 70.182ZM365.387 70.182C366.423 70.182 367.235 69.832 367.907 69.398L367.445 68.558C366.885 68.936 366.283 69.16 365.541 69.16C364.099 69.16 363.105 68.124 363.021 66.5H368.145C368.173 66.318 368.201 66.052 368.201 65.772C368.201 63.602 367.109 62.202 365.177 62.202C363.413 62.202 361.747 63.742 361.747 66.206C361.747 68.712 363.371 70.182 365.387 70.182ZM363.007 65.576C363.161 64.092 364.113 63.224 365.191 63.224C366.381 63.224 367.081 64.05 367.081 65.576H363.007ZM370.073 70H371.347V65.114C371.851 63.812 372.635 63.364 373.265 63.364C373.573 63.364 373.755 63.392 374.007 63.49L374.245 62.37C374.007 62.244 373.769 62.202 373.433 62.202C372.579 62.202 371.809 62.818 371.277 63.784H371.235L371.123 62.398H370.073V70ZM380.844 70.182C381.894 70.182 382.65 69.636 383.364 68.81H383.406L383.504 70H384.568V62.398H383.294V67.788C382.566 68.698 382.02 69.076 381.236 69.076C380.228 69.076 379.808 68.474 379.808 67.06V62.398H378.534V67.214C378.534 69.146 379.248 70.182 380.844 70.182ZM387.136 70H388.41V64.484C389.18 63.714 389.712 63.322 390.496 63.322C391.504 63.322 391.938 63.924 391.938 65.352V70H393.212V65.184C393.212 63.238 392.484 62.202 390.888 62.202C389.852 62.202 389.068 62.776 388.34 63.49H388.298L388.186 62.398H387.136V70ZM400.575 70.182C401.513 70.182 402.367 69.692 403.095 69.09H403.137L403.249 70H404.299V65.324C404.299 63.448 403.515 62.202 401.667 62.202C400.449 62.202 399.371 62.748 398.671 63.196L399.175 64.078C399.777 63.672 400.575 63.266 401.457 63.266C402.703 63.266 403.025 64.204 403.025 65.184C399.791 65.548 398.349 66.374 398.349 68.026C398.349 69.398 399.301 70.182 400.575 70.182ZM400.939 69.16C400.183 69.16 399.595 68.81 399.595 67.942C399.595 66.962 400.463 66.332 403.025 66.024V68.152C402.283 68.81 401.681 69.16 400.939 69.16ZM406.727 70H408.001V64.484C408.771 63.714 409.303 63.322 410.087 63.322C411.095 63.322 411.529 63.924 411.529 65.352V70H412.803V65.184C412.803 63.238 412.075 62.202 410.479 62.202C409.443 62.202 408.659 62.776 407.931 63.49H407.889L407.777 62.398H406.727V70ZM417.036 70.182C417.974 70.182 418.828 69.692 419.556 69.09H419.598L419.71 70H420.76V65.324C420.76 63.448 419.976 62.202 418.128 62.202C416.91 62.202 415.832 62.748 415.132 63.196L415.636 64.078C416.238 63.672 417.036 63.266 417.918 63.266C419.164 63.266 419.486 64.204 419.486 65.184C416.252 65.548 414.81 66.374 414.81 68.026C414.81 69.398 415.762 70.182 417.036 70.182ZM417.4 69.16C416.644 69.16 416.056 68.81 416.056 67.942C416.056 66.962 416.924 66.332 419.486 66.024V68.152C418.744 68.81 418.142 69.16 417.4 69.16ZM417.96 61.026L420.41 58.646L419.514 57.792L417.302 60.396L417.96 61.026ZM424.532 70.182C424.882 70.182 425.092 70.14 425.274 70.07L425.092 69.09C424.952 69.118 424.896 69.118 424.826 69.118C424.63 69.118 424.462 68.964 424.462 68.572V58.856H423.188V68.488C423.188 69.566 423.58 70.182 424.532 70.182ZM427.181 70H428.455V62.398H427.181V70ZM427.825 60.83C428.329 60.83 428.679 60.494 428.679 59.976C428.679 59.486 428.329 59.15 427.825 59.15C427.321 59.15 426.971 59.486 426.971 59.976C426.971 60.494 427.321 60.83 427.825 60.83ZM433.024 70.182C434.816 70.182 435.796 69.16 435.796 67.928C435.796 66.486 434.578 66.038 433.472 65.618C432.618 65.296 431.834 65.03 431.834 64.302C431.834 63.714 432.282 63.21 433.248 63.21C433.92 63.21 434.452 63.49 434.97 63.882L435.586 63.056C434.998 62.594 434.172 62.202 433.234 62.202C431.582 62.202 430.602 63.154 430.602 64.358C430.602 65.646 431.764 66.164 432.828 66.556C433.668 66.878 434.564 67.214 434.564 67.998C434.564 68.656 434.074 69.188 433.066 69.188C432.156 69.188 431.47 68.824 430.812 68.292L430.182 69.132C430.91 69.734 431.946 70.182 433.024 70.182ZM437.585 70H438.859V62.398H437.585V70ZM438.229 60.83C438.733 60.83 439.083 60.494 439.083 59.976C439.083 59.486 438.733 59.15 438.229 59.15C437.725 59.15 437.375 59.486 437.375 59.976C437.375 60.494 437.725 60.83 438.229 60.83ZM443.428 70.182C445.22 70.182 446.2 69.16 446.2 67.928C446.2 66.486 444.982 66.038 443.876 65.618C443.022 65.296 442.238 65.03 442.238 64.302C442.238 63.714 442.686 63.21 443.652 63.21C444.324 63.21 444.856 63.49 445.374 63.882L445.99 63.056C445.402 62.594 444.576 62.202 443.638 62.202C441.986 62.202 441.006 63.154 441.006 64.358C441.006 65.646 442.168 66.164 443.232 66.556C444.072 66.878 444.968 67.214 444.968 67.998C444.968 68.656 444.478 69.188 443.47 69.188C442.56 69.188 441.874 68.824 441.216 68.292L440.586 69.132C441.314 69.734 442.35 70.182 443.428 70.182ZM451.12 73.206H452.394V70.63L452.366 69.3C453.052 69.86 453.78 70.182 454.466 70.182C456.216 70.182 457.77 68.684 457.77 66.08C457.77 63.742 456.706 62.202 454.746 62.202C453.864 62.202 453.01 62.706 452.324 63.266H452.282L452.17 62.398H451.12V73.206ZM454.256 69.118C453.752 69.118 453.08 68.908 452.394 68.32V64.33C453.136 63.644 453.794 63.28 454.438 63.28C455.88 63.28 456.44 64.414 456.44 66.094C456.44 67.984 455.516 69.118 454.256 69.118ZM459.802 70H461.076V65.114C461.58 63.812 462.364 63.364 462.994 63.364C463.302 63.364 463.484 63.392 463.736 63.49L463.974 62.37C463.736 62.244 463.498 62.202 463.162 62.202C462.308 62.202 461.538 62.818 461.006 63.784H460.964L460.852 62.398H459.802V70ZM468.033 70.182C469.895 70.182 471.561 68.726 471.561 66.206C471.561 63.672 469.895 62.202 468.033 62.202C466.171 62.202 464.505 63.672 464.505 66.206C464.505 68.726 466.171 70.182 468.033 70.182ZM468.033 69.118C466.717 69.118 465.835 67.956 465.835 66.206C465.835 64.456 466.717 63.266 468.033 63.266C469.349 63.266 470.245 64.456 470.245 66.206C470.245 67.956 469.349 69.118 468.033 69.118ZM473.779 70H475.053V63.434H476.663V62.398H475.053V61.194C475.053 60.214 475.403 59.696 476.131 59.696C476.397 59.696 476.705 59.766 476.985 59.892L477.265 58.926C476.915 58.772 476.453 58.674 475.991 58.674C474.479 58.674 473.779 59.64 473.779 61.18V62.398L472.743 62.468V63.434H473.779V70ZM480.334 70.182C481.384 70.182 482.14 69.636 482.854 68.81H482.896L482.994 70H484.058V62.398H482.784V67.788C482.056 68.698 481.51 69.076 480.726 69.076C479.718 69.076 479.298 68.474 479.298 67.06V62.398H478.024V67.214C478.024 69.146 478.738 70.182 480.334 70.182ZM486.626 70H487.9V64.484C488.67 63.714 489.202 63.322 489.986 63.322C490.994 63.322 491.428 63.924 491.428 65.352V70H492.702V65.184C492.702 63.238 491.974 62.202 490.378 62.202C489.342 62.202 488.558 62.776 487.83 63.49H487.788L487.676 62.398H486.626V70ZM497.774 70.182C498.684 70.182 499.482 69.692 500.084 69.104H500.126L500.238 70H501.274V58.856H500.014V61.782L500.07 63.098C499.398 62.538 498.824 62.202 497.928 62.202C496.192 62.202 494.638 63.742 494.638 66.206C494.638 68.74 495.87 70.182 497.774 70.182ZM498.054 69.118C496.71 69.118 495.954 68.026 495.954 66.192C495.954 64.456 496.92 63.28 498.152 63.28C498.782 63.28 499.356 63.504 500.014 64.078V68.068C499.37 68.768 498.754 69.118 498.054 69.118ZM506.82 70.182C508.682 70.182 510.348 68.726 510.348 66.206C510.348 63.672 508.682 62.202 506.82 62.202C504.958 62.202 503.292 63.672 503.292 66.206C503.292 68.726 504.958 70.182 506.82 70.182ZM506.82 69.118C505.504 69.118 504.622 67.956 504.622 66.206C504.622 64.456 505.504 63.266 506.82 63.266C508.136 63.266 509.032 64.456 509.032 66.206C509.032 67.956 508.136 69.118 506.82 69.118ZM518.077 70.182C518.987 70.182 519.785 69.692 520.387 69.104H520.429L520.541 70H521.577V58.856H520.317V61.782L520.373 63.098C519.701 62.538 519.127 62.202 518.231 62.202C516.495 62.202 514.941 63.742 514.941 66.206C514.941 68.74 516.173 70.182 518.077 70.182ZM518.357 69.118C517.013 69.118 516.257 68.026 516.257 66.192C516.257 64.456 517.223 63.28 518.455 63.28C519.085 63.28 519.659 63.504 520.317 64.078V68.068C519.673 68.768 519.057 69.118 518.357 69.118ZM527.235 70.182C528.271 70.182 529.083 69.832 529.755 69.398L529.293 68.558C528.733 68.936 528.131 69.16 527.389 69.16C525.947 69.16 524.953 68.124 524.869 66.5H529.993C530.021 66.318 530.049 66.052 530.049 65.772C530.049 63.602 528.957 62.202 527.025 62.202C525.261 62.202 523.595 63.742 523.595 66.206C523.595 68.712 525.219 70.182 527.235 70.182ZM524.855 65.576C525.009 64.092 525.961 63.224 527.039 63.224C528.229 63.224 528.929 64.05 528.929 65.576H524.855ZM536.396 70.182C536.746 70.182 536.956 70.14 537.138 70.07L536.956 69.09C536.816 69.118 536.76 69.118 536.69 69.118C536.494 69.118 536.326 68.964 536.326 68.572V58.856H535.052V68.488C535.052 69.566 535.444 70.182 536.396 70.182ZM540.794 70.182C541.732 70.182 542.586 69.692 543.314 69.09H543.356L543.468 70H544.518V65.324C544.518 63.448 543.734 62.202 541.886 62.202C540.668 62.202 539.59 62.748 538.89 63.196L539.394 64.078C539.996 63.672 540.794 63.266 541.676 63.266C542.922 63.266 543.244 64.204 543.244 65.184C540.01 65.548 538.568 66.374 538.568 68.026C538.568 69.398 539.52 70.182 540.794 70.182ZM541.158 69.16C540.402 69.16 539.814 68.81 539.814 67.942C539.814 66.962 540.682 66.332 543.244 66.024V68.152C542.502 68.81 541.9 69.16 541.158 69.16ZM551.827 70.182C552.765 70.182 553.619 69.692 554.347 69.09H554.389L554.501 70H555.551V65.324C555.551 63.448 554.767 62.202 552.919 62.202C551.701 62.202 550.623 62.748 549.923 63.196L550.427 64.078C551.029 63.672 551.827 63.266 552.709 63.266C553.955 63.266 554.277 64.204 554.277 65.184C551.043 65.548 549.601 66.374 549.601 68.026C549.601 69.398 550.553 70.182 551.827 70.182ZM552.191 69.16C551.435 69.16 550.847 68.81 550.847 67.942C550.847 66.962 551.715 66.332 554.277 66.024V68.152C553.535 68.81 552.933 69.16 552.191 69.16ZM557.979 73.206H559.253V70.63L559.225 69.3C559.911 69.86 560.639 70.182 561.325 70.182C563.075 70.182 564.629 68.684 564.629 66.08C564.629 63.742 563.565 62.202 561.605 62.202C560.723 62.202 559.869 62.706 559.183 63.266H559.141L559.029 62.398H557.979V73.206ZM561.115 69.118C560.611 69.118 559.939 68.908 559.253 68.32V64.33C559.995 63.644 560.653 63.28 561.297 63.28C562.739 63.28 563.299 64.414 563.299 66.094C563.299 67.984 562.375 69.118 561.115 69.118ZM566.661 73.206H567.935V70.63L567.907 69.3C568.593 69.86 569.321 70.182 570.007 70.182C571.757 70.182 573.311 68.684 573.311 66.08C573.311 63.742 572.247 62.202 570.287 62.202C569.405 62.202 568.551 62.706 567.865 63.266H567.823L567.711 62.398H566.661V73.206ZM569.797 69.118C569.293 69.118 568.621 68.908 567.935 68.32V64.33C568.677 63.644 569.335 63.28 569.979 63.28C571.421 63.28 571.981 64.414 571.981 66.094C571.981 67.984 571.057 69.118 569.797 69.118ZM581.54 70.182C582.576 70.182 583.388 69.832 584.06 69.398L583.598 68.558C583.038 68.936 582.436 69.16 581.694 69.16C580.252 69.16 579.258 68.124 579.174 66.5H584.298C584.326 66.318 584.354 66.052 584.354 65.772C584.354 63.602 583.262 62.202 581.33 62.202C579.566 62.202 577.9 63.742 577.9 66.206C577.9 68.712 579.524 70.182 581.54 70.182ZM579.16 65.576C579.314 64.092 580.266 63.224 581.344 63.224C582.534 63.224 583.234 64.05 583.234 65.576H579.16ZM586.226 70H587.5V64.484C588.27 63.714 588.802 63.322 589.586 63.322C590.594 63.322 591.028 63.924 591.028 65.352V70H592.302V65.184C592.302 63.238 591.574 62.202 589.978 62.202C588.942 62.202 588.158 62.776 587.43 63.49H587.388L587.276 62.398H586.226V70ZM601.261 70.182C603.011 70.182 604.565 68.684 604.565 66.066C604.565 63.742 603.501 62.202 601.527 62.202C600.687 62.202 599.833 62.678 599.147 63.28L599.189 61.908V58.856H597.915V70H598.937L599.049 69.216H599.105C599.763 69.818 600.561 70.182 601.261 70.182ZM601.051 69.118C600.547 69.118 599.861 68.908 599.189 68.32V64.33C599.917 63.644 600.589 63.28 601.233 63.28C602.675 63.28 603.235 64.414 603.235 66.094C603.235 67.984 602.311 69.118 601.051 69.118ZM608.781 70.182C609.831 70.182 610.587 69.636 611.301 68.81H611.343L611.441 70H612.505V62.398H611.231V67.788C610.503 68.698 609.957 69.076 609.173 69.076C608.165 69.076 607.745 68.474 607.745 67.06V62.398H606.471V67.214C606.471 69.146 607.185 70.182 608.781 70.182ZM617.061 70.182C618.853 70.182 619.833 69.16 619.833 67.928C619.833 66.486 618.615 66.038 617.509 65.618C616.655 65.296 615.871 65.03 615.871 64.302C615.871 63.714 616.319 63.21 617.285 63.21C617.957 63.21 618.489 63.49 619.007 63.882L619.623 63.056C619.035 62.594 618.209 62.202 617.271 62.202C615.619 62.202 614.639 63.154 614.639 64.358C614.639 65.646 615.801 66.164 616.865 66.556C617.705 66.878 618.601 67.214 618.601 67.998C618.601 68.656 618.111 69.188 617.103 69.188C616.193 69.188 615.507 68.824 614.849 68.292L614.219 69.132C614.947 69.734 615.983 70.182 617.061 70.182ZM624.618 70.182C625.528 70.182 626.396 69.832 627.082 69.216L626.522 68.362C626.046 68.796 625.43 69.118 624.73 69.118C623.33 69.118 622.378 67.956 622.378 66.206C622.378 64.456 623.386 63.266 624.772 63.266C625.374 63.266 625.836 63.546 626.284 63.938L626.942 63.098C626.396 62.622 625.71 62.202 624.716 62.202C622.77 62.202 621.048 63.672 621.048 66.206C621.048 68.726 622.602 70.182 624.618 70.182ZM630.345 70.182C631.283 70.182 632.137 69.692 632.865 69.09H632.907L633.019 70H634.069V65.324C634.069 63.448 633.285 62.202 631.437 62.202C630.219 62.202 629.141 62.748 628.441 63.196L628.945 64.078C629.547 63.672 630.345 63.266 631.227 63.266C632.473 63.266 632.795 64.204 632.795 65.184C629.561 65.548 628.119 66.374 628.119 68.026C628.119 69.398 629.071 70.182 630.345 70.182ZM630.709 69.16C629.953 69.16 629.365 68.81 629.365 67.942C629.365 66.962 630.233 66.332 632.795 66.024V68.152C632.053 68.81 631.451 69.16 630.709 69.16ZM642.218 70.182C643.128 70.182 643.926 69.692 644.528 69.104H644.57L644.682 70H645.718V58.856H644.458V61.782L644.514 63.098C643.842 62.538 643.268 62.202 642.372 62.202C640.636 62.202 639.082 63.742 639.082 66.206C639.082 68.74 640.314 70.182 642.218 70.182ZM642.498 69.118C641.154 69.118 640.398 68.026 640.398 66.192C640.398 64.456 641.364 63.28 642.596 63.28C643.226 63.28 643.8 63.504 644.458 64.078V68.068C643.814 68.768 643.198 69.118 642.498 69.118ZM651.375 70.182C652.411 70.182 653.223 69.832 653.895 69.398L653.433 68.558C652.873 68.936 652.271 69.16 651.529 69.16C650.087 69.16 649.093 68.124 649.009 66.5H654.133C654.161 66.318 654.189 66.052 654.189 65.772C654.189 63.602 653.097 62.202 651.165 62.202C649.401 62.202 647.735 63.742 647.735 66.206C647.735 68.712 649.359 70.182 651.375 70.182ZM648.995 65.576C649.149 64.092 650.101 63.224 651.179 63.224C652.369 63.224 653.069 64.05 653.069 65.576H648.995ZM662.146 70.182C664.008 70.182 665.674 68.726 665.674 66.206C665.674 63.672 664.008 62.202 662.146 62.202C660.284 62.202 658.618 63.672 658.618 66.206C658.618 68.726 660.284 70.182 662.146 70.182ZM662.146 69.118C660.83 69.118 659.948 67.956 659.948 66.206C659.948 64.456 660.83 63.266 662.146 63.266C663.462 63.266 664.358 64.456 664.358 66.206C664.358 67.956 663.462 69.118 662.146 69.118ZM667.683 73.206H668.957V70.63L668.929 69.3C669.615 69.86 670.343 70.182 671.029 70.182C672.779 70.182 674.333 68.684 674.333 66.08C674.333 63.742 673.269 62.202 671.309 62.202C670.427 62.202 669.573 62.706 668.887 63.266H668.845L668.733 62.398H667.683V73.206ZM670.819 69.118C670.315 69.118 669.643 68.908 668.957 68.32V64.33C669.699 63.644 670.357 63.28 671.001 63.28C672.443 63.28 673.003 64.414 673.003 66.094C673.003 67.984 672.079 69.118 670.819 69.118ZM679.318 70.182C681.18 70.182 682.846 68.726 682.846 66.206C682.846 63.672 681.18 62.202 679.318 62.202C677.456 62.202 675.79 63.672 675.79 66.206C675.79 68.726 677.456 70.182 679.318 70.182ZM679.318 69.118C678.002 69.118 677.12 67.956 677.12 66.206C677.12 64.456 678.002 63.266 679.318 63.266C680.634 63.266 681.53 64.456 681.53 66.206C681.53 67.956 680.634 69.118 679.318 69.118ZM684.854 70H686.128V65.114C686.632 63.812 687.416 63.364 688.046 63.364C688.354 63.364 688.536 63.392 688.788 63.49L689.026 62.37C688.788 62.244 688.55 62.202 688.214 62.202C687.36 62.202 686.59 62.818 686.058 63.784H686.016L685.904 62.398H684.854V70ZM692.676 70.182C693.138 70.182 693.642 70.042 694.076 69.902L693.824 68.95C693.572 69.048 693.222 69.146 692.956 69.146C692.074 69.146 691.78 68.614 691.78 67.676V63.434H693.838V62.398H691.78V60.256H690.716L690.562 62.398L689.372 62.468V63.434H690.506V67.648C690.506 69.16 691.052 70.182 692.676 70.182ZM697.771 70.182C698.821 70.182 699.577 69.636 700.291 68.81H700.333L700.431 70H701.495V62.398H700.221V67.788C699.493 68.698 698.947 69.076 698.163 69.076C697.155 69.076 696.735 68.474 696.735 67.06V62.398H695.461V67.214C695.461 69.146 696.175 70.182 697.771 70.182ZM704.063 70H705.337V64.484C706.107 63.714 706.639 63.322 707.423 63.322C708.431 63.322 708.865 63.924 708.865 65.352V70H710.139V65.184C710.139 63.238 709.411 62.202 707.815 62.202C706.779 62.202 705.995 62.776 705.267 63.49H705.225L705.113 62.398H704.063V70ZM712.622 70H713.896V62.398H712.622V70ZM713.266 60.83C713.77 60.83 714.12 60.494 714.12 59.976C714.12 59.486 713.77 59.15 713.266 59.15C712.762 59.15 712.412 59.486 712.412 59.976C712.412 60.494 712.762 60.83 713.266 60.83ZM719.067 70.182C719.977 70.182 720.775 69.692 721.377 69.104H721.419L721.531 70H722.567V58.856H721.307V61.782L721.363 63.098C720.691 62.538 720.117 62.202 719.221 62.202C717.485 62.202 715.931 63.742 715.931 66.206C715.931 68.74 717.163 70.182 719.067 70.182ZM719.347 69.118C718.003 69.118 717.247 68.026 717.247 66.192C717.247 64.456 718.213 63.28 719.445 63.28C720.075 63.28 720.649 63.504 721.307 64.078V68.068C720.663 68.768 720.047 69.118 719.347 69.118ZM726.909 70.182C727.847 70.182 728.701 69.692 729.429 69.09H729.471L729.583 70H730.633V65.324C730.633 63.448 729.849 62.202 728.001 62.202C726.783 62.202 725.705 62.748 725.005 63.196L725.509 64.078C726.111 63.672 726.909 63.266 727.791 63.266C729.037 63.266 729.359 64.204 729.359 65.184C726.125 65.548 724.683 66.374 724.683 68.026C724.683 69.398 725.635 70.182 726.909 70.182ZM727.273 69.16C726.517 69.16 725.929 68.81 725.929 67.942C725.929 66.962 726.797 66.332 729.359 66.024V68.152C728.617 68.81 728.015 69.16 727.273 69.16ZM735.651 70.182C736.561 70.182 737.359 69.692 737.961 69.104H738.003L738.115 70H739.151V58.856H737.891V61.782L737.947 63.098C737.275 62.538 736.701 62.202 735.805 62.202C734.069 62.202 732.515 63.742 732.515 66.206C732.515 68.74 733.747 70.182 735.651 70.182ZM735.931 69.118C734.587 69.118 733.831 68.026 733.831 66.192C733.831 64.456 734.797 63.28 736.029 63.28C736.659 63.28 737.233 63.504 737.891 64.078V68.068C737.247 68.768 736.631 69.118 735.931 69.118ZM744.809 70.182C745.845 70.182 746.657 69.832 747.329 69.398L746.867 68.558C746.307 68.936 745.705 69.16 744.963 69.16C743.521 69.16 742.527 68.124 742.443 66.5H747.567C747.595 66.318 747.623 66.052 747.623 65.772C747.623 63.602 746.531 62.202 744.599 62.202C742.835 62.202 741.169 63.742 741.169 66.206C741.169 68.712 742.793 70.182 744.809 70.182ZM742.429 65.576C742.583 64.092 743.535 63.224 744.613 63.224C745.803 63.224 746.503 64.05 746.503 65.576H742.429ZM751.483 70.182C753.275 70.182 754.255 69.16 754.255 67.928C754.255 66.486 753.037 66.038 751.931 65.618C751.077 65.296 750.293 65.03 750.293 64.302C750.293 63.714 750.741 63.21 751.707 63.21C752.379 63.21 752.911 63.49 753.429 63.882L754.045 63.056C753.457 62.594 752.631 62.202 751.693 62.202C750.041 62.202 749.061 63.154 749.061 64.358C749.061 65.646 750.223 66.164 751.287 66.556C752.127 66.878 753.023 67.214 753.023 67.998C753.023 68.656 752.533 69.188 751.525 69.188C750.615 69.188 749.929 68.824 749.271 68.292L748.641 69.132C749.369 69.734 750.405 70.182 751.483 70.182ZM761.765 70.182C762.675 70.182 763.473 69.692 764.075 69.104H764.117L764.229 70H765.265V58.856H764.005V61.782L764.061 63.098C763.389 62.538 762.815 62.202 761.919 62.202C760.183 62.202 758.629 63.742 758.629 66.206C758.629 68.74 759.861 70.182 761.765 70.182ZM762.045 69.118C760.701 69.118 759.945 68.026 759.945 66.192C759.945 64.456 760.911 63.28 762.143 63.28C762.773 63.28 763.347 63.504 764.005 64.078V68.068C763.361 68.768 762.745 69.118 762.045 69.118ZM770.922 70.182C771.958 70.182 772.77 69.832 773.442 69.398L772.98 68.558C772.42 68.936 771.818 69.16 771.076 69.16C769.634 69.16 768.64 68.124 768.556 66.5H773.68C773.708 66.318 773.736 66.052 773.736 65.772C773.736 63.602 772.644 62.202 770.712 62.202C768.948 62.202 767.282 63.742 767.282 66.206C767.282 68.712 768.906 70.182 770.922 70.182ZM768.542 65.576C768.696 64.092 769.648 63.224 770.726 63.224C771.916 63.224 772.616 64.05 772.616 65.576H768.542ZM1.288 90H2.562V84.484C3.262 83.7 3.906 83.322 4.48 83.322C5.446 83.322 5.894 83.924 5.894 85.352V90H7.168V84.484C7.882 83.7 8.498 83.322 9.086 83.322C10.052 83.322 10.5 83.924 10.5 85.352V90H11.774V85.184C11.774 83.238 11.032 82.202 9.464 82.202C8.54 82.202 7.742 82.804 6.958 83.658C6.65 82.762 6.02 82.202 4.858 82.202C3.948 82.202 3.15 82.776 2.492 83.504H2.45L2.338 82.398H1.288V90ZM17.3149 90.182C18.3509 90.182 19.1629 89.832 19.8349 89.398L19.3729 88.558C18.8129 88.936 18.2109 89.16 17.4689 89.16C16.0269 89.16 15.0329 88.124 14.9489 86.5H20.0729C20.1009 86.318 20.1289 86.052 20.1289 85.772C20.1289 83.602 19.0369 82.202 17.1049 82.202C15.3409 82.202 13.6749 83.742 13.6749 86.206C13.6749 88.712 15.2989 90.182 17.3149 90.182ZM14.9349 85.576C15.0889 84.092 16.0409 83.224 17.1189 83.224C18.3089 83.224 19.0089 84.05 19.0089 85.576H14.9349ZM21.2169 93.402C22.7149 93.402 23.2889 92.422 23.2889 90.868V82.398H22.0149V90.868C22.0149 91.792 21.8329 92.366 21.0769 92.366C20.7969 92.366 20.5449 92.296 20.3489 92.226L20.0969 93.206C20.3629 93.304 20.7549 93.402 21.2169 93.402ZM22.6449 80.83C23.1349 80.83 23.4849 80.494 23.4849 79.976C23.4849 79.486 23.1349 79.15 22.6449 79.15C22.1409 79.15 21.7909 79.486 21.7909 79.976C21.7909 80.494 22.1409 80.83 22.6449 80.83ZM28.824 90.182C30.686 90.182 32.352 88.726 32.352 86.206C32.352 83.672 30.686 82.202 28.824 82.202C26.962 82.202 25.296 83.672 25.296 86.206C25.296 88.726 26.962 90.182 28.824 90.182ZM28.824 89.118C27.508 89.118 26.626 87.956 26.626 86.206C26.626 84.456 27.508 83.266 28.824 83.266C30.14 83.266 31.036 84.456 31.036 86.206C31.036 87.956 30.14 89.118 28.824 89.118ZM34.3603 90H35.6343V85.114C36.1383 83.812 36.9223 83.364 37.5523 83.364C37.8603 83.364 38.0423 83.392 38.2943 83.49L38.5323 82.37C38.2943 82.244 38.0563 82.202 37.7203 82.202C36.8663 82.202 36.0963 82.818 35.5643 83.784H35.5223L35.4103 82.398H34.3603V90ZM41.1552 90.182C42.0932 90.182 42.9472 89.692 43.6752 89.09H43.7172L43.8292 90H44.8792V85.324C44.8792 83.448 44.0952 82.202 42.2472 82.202C41.0292 82.202 39.9512 82.748 39.2512 83.196L39.7552 84.078C40.3572 83.672 41.1552 83.266 42.0372 83.266C43.2832 83.266 43.6052 84.204 43.6052 85.184C40.3712 85.548 38.9292 86.374 38.9292 88.026C38.9292 89.398 39.8812 90.182 41.1552 90.182ZM41.5192 89.16C40.7632 89.16 40.1752 88.81 40.1752 87.942C40.1752 86.962 41.0432 86.332 43.6052 86.024V88.152C42.8632 88.81 42.2612 89.16 41.5192 89.16ZM53.4344 90.182C54.3444 90.182 55.2124 89.832 55.8984 89.216L55.3384 88.362C54.8624 88.796 54.2464 89.118 53.5464 89.118C52.1464 89.118 51.1944 87.956 51.1944 86.206C51.1944 84.456 52.2024 83.266 53.5884 83.266C54.1904 83.266 54.6524 83.546 55.1004 83.938L55.7584 83.098C55.2124 82.622 54.5264 82.202 53.5324 82.202C51.5864 82.202 49.8644 83.672 49.8644 86.206C49.8644 88.726 51.4184 90.182 53.4344 90.182ZM60.1736 90.182C62.0356 90.182 63.7016 88.726 63.7016 86.206C63.7016 83.672 62.0356 82.202 60.1736 82.202C58.3116 82.202 56.6456 83.672 56.6456 86.206C56.6456 88.726 58.3116 90.182 60.1736 90.182ZM60.1736 89.118C58.8576 89.118 57.9756 87.956 57.9756 86.206C57.9756 84.456 58.8576 83.266 60.1736 83.266C61.4896 83.266 62.3856 84.456 62.3856 86.206C62.3856 87.956 61.4896 89.118 60.1736 89.118ZM65.7099 90H66.9839V84.484C67.7539 83.714 68.2859 83.322 69.0699 83.322C70.0779 83.322 70.5119 83.924 70.5119 85.352V90H71.7859V85.184C71.7859 83.238 71.0579 82.202 69.4619 82.202C68.4259 82.202 67.6419 82.776 66.9139 83.49H66.8719L66.7599 82.398H65.7099V90ZM77.3993 90H78.6733V85.114C79.1773 83.812 79.9613 83.364 80.5913 83.364C80.8993 83.364 81.0813 83.392 81.3333 83.49L81.5713 82.37C81.3333 82.244 81.0953 82.202 80.7593 82.202C79.9053 82.202 79.1353 82.818 78.6033 83.784H78.5613L78.4493 82.398H77.3993V90ZM85.7427 90.182C86.7787 90.182 87.5907 89.832 88.2627 89.398L87.8007 88.558C87.2407 88.936 86.6387 89.16 85.8967 89.16C84.4547 89.16 83.4607 88.124 83.3767 86.5H88.5007C88.5287 86.318 88.5567 86.052 88.5567 85.772C88.5567 83.602 87.4647 82.202 85.5327 82.202C83.7687 82.202 82.1027 83.742 82.1027 86.206C82.1027 88.712 83.7267 90.182 85.7427 90.182ZM83.3627 85.576C83.5167 84.092 84.4687 83.224 85.5467 83.224C86.7367 83.224 87.4367 84.05 87.4367 85.576H83.3627ZM92.4166 90.182C94.2086 90.182 95.1886 89.16 95.1886 87.928C95.1886 86.486 93.9706 86.038 92.8646 85.618C92.0106 85.296 91.2266 85.03 91.2266 84.302C91.2266 83.714 91.6746 83.21 92.6406 83.21C93.3126 83.21 93.8446 83.49 94.3626 83.882L94.9786 83.056C94.3906 82.594 93.5646 82.202 92.6266 82.202C90.9746 82.202 89.9946 83.154 89.9946 84.358C89.9946 85.646 91.1566 86.164 92.2206 86.556C93.0606 86.878 93.9566 87.214 93.9566 87.998C93.9566 88.656 93.4666 89.188 92.4586 89.188C91.5486 89.188 90.8626 88.824 90.2046 88.292L89.5746 89.132C90.3026 89.734 91.3386 90.182 92.4166 90.182ZM96.9775 93.206H98.2515V90.63L98.2235 89.3C98.9095 89.86 99.6375 90.182 100.323 90.182C102.073 90.182 103.627 88.684 103.627 86.08C103.627 83.742 102.563 82.202 100.603 82.202C99.7215 82.202 98.8675 82.706 98.1815 83.266H98.1395L98.0275 82.398H96.9775V93.206ZM100.113 89.118C99.6095 89.118 98.9375 88.908 98.2515 88.32V84.33C98.9935 83.644 99.6515 83.28 100.295 83.28C101.737 83.28 102.297 84.414 102.297 86.094C102.297 87.984 101.373 89.118 100.113 89.118ZM108.725 90.182C109.761 90.182 110.573 89.832 111.245 89.398L110.783 88.558C110.223 88.936 109.621 89.16 108.879 89.16C107.437 89.16 106.443 88.124 106.359 86.5H111.483C111.511 86.318 111.539 86.052 111.539 85.772C111.539 83.602 110.447 82.202 108.515 82.202C106.751 82.202 105.085 83.742 105.085 86.206C105.085 88.712 106.709 90.182 108.725 90.182ZM106.345 85.576C106.499 84.092 107.451 83.224 108.529 83.224C109.719 83.224 110.419 84.05 110.419 85.576H106.345ZM116.407 90.182C117.317 90.182 118.185 89.832 118.871 89.216L118.311 88.362C117.835 88.796 117.219 89.118 116.519 89.118C115.119 89.118 114.167 87.956 114.167 86.206C114.167 84.456 115.175 83.266 116.561 83.266C117.163 83.266 117.625 83.546 118.073 83.938L118.731 83.098C118.185 82.622 117.499 82.202 116.505 82.202C114.559 82.202 112.837 83.672 112.837 86.206C112.837 88.726 114.391 90.182 116.407 90.182ZM122.778 90.182C123.24 90.182 123.744 90.042 124.178 89.902L123.926 88.95C123.674 89.048 123.324 89.146 123.058 89.146C122.176 89.146 121.882 88.614 121.882 87.676V83.434H123.94V82.398H121.882V80.256H120.818L120.664 82.398L119.474 82.468V83.434H120.608V87.648C120.608 89.16 121.154 90.182 122.778 90.182ZM128.41 90.182C130.272 90.182 131.938 88.726 131.938 86.206C131.938 83.672 130.272 82.202 128.41 82.202C126.548 82.202 124.882 83.672 124.882 86.206C124.882 88.726 126.548 90.182 128.41 90.182ZM128.41 89.118C127.094 89.118 126.212 87.956 126.212 86.206C126.212 84.456 127.094 83.266 128.41 83.266C129.726 83.266 130.622 84.456 130.622 86.206C130.622 87.956 129.726 89.118 128.41 89.118ZM138.827 90.182C139.765 90.182 140.619 89.692 141.347 89.09H141.389L141.501 90H142.551V85.324C142.551 83.448 141.767 82.202 139.919 82.202C138.701 82.202 137.623 82.748 136.923 83.196L137.427 84.078C138.029 83.672 138.827 83.266 139.709 83.266C140.955 83.266 141.277 84.204 141.277 85.184C138.043 85.548 136.601 86.374 136.601 88.026C136.601 89.398 137.553 90.182 138.827 90.182ZM139.191 89.16C138.435 89.16 137.847 88.81 137.847 87.942C137.847 86.962 138.715 86.332 141.277 86.024V88.152C140.535 88.81 139.933 89.16 139.191 89.16ZM149.454 90.182C149.804 90.182 150.014 90.14 150.196 90.07L150.014 89.09C149.874 89.118 149.818 89.118 149.748 89.118C149.552 89.118 149.384 88.964 149.384 88.572V78.856H148.11V88.488C148.11 89.566 148.502 90.182 149.454 90.182ZM153.852 90.182C154.79 90.182 155.644 89.692 156.372 89.09H156.414L156.526 90H157.576V85.324C157.576 83.448 156.792 82.202 154.944 82.202C153.726 82.202 152.648 82.748 151.948 83.196L152.452 84.078C153.054 83.672 153.852 83.266 154.734 83.266C155.98 83.266 156.302 84.204 156.302 85.184C153.068 85.548 151.626 86.374 151.626 88.026C151.626 89.398 152.578 90.182 153.852 90.182ZM154.216 89.16C153.46 89.16 152.872 88.81 152.872 87.942C152.872 86.962 153.74 86.332 156.302 86.024V88.152C155.56 88.81 154.958 89.16 154.216 89.16ZM165.348 90.182C166.398 90.182 167.154 89.636 167.868 88.81H167.91L168.008 90H169.072V82.398H167.798V87.788C167.07 88.698 166.524 89.076 165.74 89.076C164.732 89.076 164.312 88.474 164.312 87.06V82.398H163.038V87.214C163.038 89.146 163.752 90.182 165.348 90.182ZM173.628 90.182C175.42 90.182 176.4 89.16 176.4 87.928C176.4 86.486 175.182 86.038 174.076 85.618C173.222 85.296 172.438 85.03 172.438 84.302C172.438 83.714 172.886 83.21 173.852 83.21C174.524 83.21 175.056 83.49 175.574 83.882L176.19 83.056C175.602 82.594 174.776 82.202 173.838 82.202C172.186 82.202 171.206 83.154 171.206 84.358C171.206 85.646 172.368 86.164 173.432 86.556C174.272 86.878 175.168 87.214 175.168 87.998C175.168 88.656 174.678 89.188 173.67 89.188C172.76 89.188 172.074 88.824 171.416 88.292L170.786 89.132C171.514 89.734 172.55 90.182 173.628 90.182ZM179.938 90.182C180.876 90.182 181.73 89.692 182.458 89.09H182.5L182.612 90H183.662V85.324C183.662 83.448 182.878 82.202 181.03 82.202C179.812 82.202 178.734 82.748 178.034 83.196L178.538 84.078C179.14 83.672 179.938 83.266 180.82 83.266C182.066 83.266 182.388 84.204 182.388 85.184C179.154 85.548 177.712 86.374 177.712 88.026C177.712 89.398 178.664 90.182 179.938 90.182ZM180.302 89.16C179.546 89.16 178.958 88.81 178.958 87.942C178.958 86.962 179.826 86.332 182.388 86.024V88.152C181.646 88.81 181.044 89.16 180.302 89.16ZM189.437 90.182C191.187 90.182 192.741 88.684 192.741 86.066C192.741 83.742 191.677 82.202 189.703 82.202C188.863 82.202 188.009 82.678 187.323 83.28L187.365 81.908V78.856H186.091V90H187.113L187.225 89.216H187.281C187.939 89.818 188.737 90.182 189.437 90.182ZM189.227 89.118C188.723 89.118 188.037 88.908 187.365 88.32V84.33C188.093 83.644 188.765 83.28 189.409 83.28C190.851 83.28 191.411 84.414 191.411 86.094C191.411 87.984 190.487 89.118 189.227 89.118ZM194.745 90H196.019V82.398H194.745V90ZM195.389 80.83C195.893 80.83 196.243 80.494 196.243 79.976C196.243 79.486 195.893 79.15 195.389 79.15C194.885 79.15 194.535 79.486 194.535 79.976C194.535 80.494 194.885 80.83 195.389 80.83ZM199.945 90.182C200.295 90.182 200.505 90.14 200.687 90.07L200.505 89.09C200.365 89.118 200.309 89.118 200.239 89.118C200.043 89.118 199.875 88.964 199.875 88.572V78.856H198.601V88.488C198.601 89.566 198.993 90.182 199.945 90.182ZM202.593 90H203.867V82.398H202.593V90ZM203.237 80.83C203.741 80.83 204.091 80.494 204.091 79.976C204.091 79.486 203.741 79.15 203.237 79.15C202.733 79.15 202.383 79.486 202.383 79.976C202.383 80.494 202.733 80.83 203.237 80.83ZM209.038 90.182C209.948 90.182 210.746 89.692 211.348 89.104H211.39L211.502 90H212.538V78.856H211.278V81.782L211.334 83.098C210.662 82.538 210.088 82.202 209.192 82.202C207.456 82.202 205.902 83.742 205.902 86.206C205.902 88.74 207.134 90.182 209.038 90.182ZM209.318 89.118C207.974 89.118 207.218 88.026 207.218 86.192C207.218 84.456 208.184 83.28 209.416 83.28C210.046 83.28 210.62 83.504 211.278 84.078V88.068C210.634 88.768 210.018 89.118 209.318 89.118ZM216.88 90.182C217.818 90.182 218.672 89.692 219.4 89.09H219.442L219.554 90H220.604V85.324C220.604 83.448 219.82 82.202 217.972 82.202C216.754 82.202 215.676 82.748 214.976 83.196L215.48 84.078C216.082 83.672 216.88 83.266 217.762 83.266C219.008 83.266 219.33 84.204 219.33 85.184C216.096 85.548 214.654 86.374 214.654 88.026C214.654 89.398 215.606 90.182 216.88 90.182ZM217.244 89.16C216.488 89.16 215.9 88.81 215.9 87.942C215.9 86.962 216.768 86.332 219.33 86.024V88.152C218.588 88.81 217.986 89.16 217.244 89.16ZM225.622 90.182C226.532 90.182 227.33 89.692 227.932 89.104H227.974L228.086 90H229.122V78.856H227.862V81.782L227.918 83.098C227.246 82.538 226.672 82.202 225.776 82.202C224.04 82.202 222.486 83.742 222.486 86.206C222.486 88.74 223.718 90.182 225.622 90.182ZM225.902 89.118C224.558 89.118 223.802 88.026 223.802 86.192C223.802 84.456 224.768 83.28 226 83.28C226.63 83.28 227.204 83.504 227.862 84.078V88.068C227.218 88.768 226.602 89.118 225.902 89.118ZM237.911 90.182C238.947 90.182 239.759 89.832 240.431 89.398L239.969 88.558C239.409 88.936 238.807 89.16 238.065 89.16C236.623 89.16 235.629 88.124 235.545 86.5H240.669C240.697 86.318 240.725 86.052 240.725 85.772C240.725 83.602 239.633 82.202 237.701 82.202C235.937 82.202 234.271 83.742 234.271 86.206C234.271 88.712 235.895 90.182 237.911 90.182ZM235.531 85.576C235.685 84.092 236.637 83.224 237.715 83.224C238.905 83.224 239.605 84.05 239.605 85.576H235.531ZM245.727 90H247.001V82.398H245.727V90ZM246.371 80.83C246.875 80.83 247.225 80.494 247.225 79.976C247.225 79.486 246.875 79.15 246.371 79.15C245.867 79.15 245.517 79.486 245.517 79.976C245.517 80.494 245.867 80.83 246.371 80.83ZM249.583 90H250.857V84.484C251.627 83.714 252.159 83.322 252.943 83.322C253.951 83.322 254.385 83.924 254.385 85.352V90H255.659V85.184C255.659 83.238 254.931 82.202 253.335 82.202C252.299 82.202 251.515 82.776 250.787 83.49H250.745L250.633 82.398H249.583V90ZM260.536 90.182C260.998 90.182 261.502 90.042 261.936 89.902L261.684 88.95C261.432 89.048 261.082 89.146 260.816 89.146C259.934 89.146 259.64 88.614 259.64 87.676V83.434H261.698V82.398H259.64V80.256H258.576L258.422 82.398L257.232 82.468V83.434H258.366V87.648C258.366 89.16 258.912 90.182 260.536 90.182ZM266.28 90.182C267.316 90.182 268.128 89.832 268.8 89.398L268.338 88.558C267.778 88.936 267.176 89.16 266.434 89.16C264.992 89.16 263.998 88.124 263.914 86.5H269.038C269.066 86.318 269.094 86.052 269.094 85.772C269.094 83.602 268.002 82.202 266.07 82.202C264.306 82.202 262.64 83.742 262.64 86.206C262.64 88.712 264.264 90.182 266.28 90.182ZM263.9 85.576C264.054 84.092 265.006 83.224 266.084 83.224C267.274 83.224 267.974 84.05 267.974 85.576H263.9ZM270.966 90H272.24V85.114C272.744 83.812 273.528 83.364 274.158 83.364C274.466 83.364 274.648 83.392 274.9 83.49L275.138 82.37C274.9 82.244 274.662 82.202 274.326 82.202C273.472 82.202 272.702 82.818 272.17 83.784H272.128L272.016 82.398H270.966V90ZM277.761 90.182C278.699 90.182 279.553 89.692 280.281 89.09H280.323L280.435 90H281.485V85.324C281.485 83.448 280.701 82.202 278.853 82.202C277.635 82.202 276.557 82.748 275.857 83.196L276.361 84.078C276.963 83.672 277.761 83.266 278.643 83.266C279.889 83.266 280.211 84.204 280.211 85.184C276.977 85.548 275.535 86.374 275.535 88.026C275.535 89.398 276.487 90.182 277.761 90.182ZM278.125 89.16C277.369 89.16 276.781 88.81 276.781 87.942C276.781 86.962 277.649 86.332 280.211 86.024V88.152C279.469 88.81 278.867 89.16 278.125 89.16ZM286.909 90.182C287.819 90.182 288.687 89.832 289.373 89.216L288.813 88.362C288.337 88.796 287.721 89.118 287.021 89.118C285.621 89.118 284.669 87.956 284.669 86.206C284.669 84.456 285.677 83.266 287.063 83.266C287.665 83.266 288.127 83.546 288.575 83.938L289.233 83.098C288.687 82.622 288.001 82.202 287.007 82.202C285.061 82.202 283.339 83.672 283.339 86.206C283.339 88.726 284.893 90.182 286.909 90.182ZM293.69 90.182C294.6 90.182 295.468 89.832 296.154 89.216L295.594 88.362C295.118 88.796 294.502 89.118 293.802 89.118C292.402 89.118 291.45 87.956 291.45 86.206C291.45 84.456 292.458 83.266 293.844 83.266C294.446 83.266 294.908 83.546 295.356 83.938L296.014 83.098C295.468 82.622 294.782 82.202 293.788 82.202C291.842 82.202 290.12 83.672 290.12 86.206C290.12 88.726 291.674 90.182 293.69 90.182ZM297.817 90H299.091V82.398H297.817V90ZM298.461 80.83C298.965 80.83 299.315 80.494 299.315 79.976C299.315 79.486 298.965 79.15 298.461 79.15C297.957 79.15 297.607 79.486 297.607 79.976C297.607 80.494 297.957 80.83 298.461 80.83ZM304.627 90.182C306.489 90.182 308.155 88.726 308.155 86.206C308.155 83.672 306.489 82.202 304.627 82.202C302.765 82.202 301.099 83.672 301.099 86.206C301.099 88.726 302.765 90.182 304.627 90.182ZM304.627 89.118C303.311 89.118 302.429 87.956 302.429 86.206C302.429 84.456 303.311 83.266 304.627 83.266C305.943 83.266 306.839 84.456 306.839 86.206C306.839 87.956 305.943 89.118 304.627 89.118ZM304.403 81.026L306.853 78.646L305.957 77.792L303.745 80.396L304.403 81.026ZM310.163 90H311.437V84.484C312.207 83.714 312.739 83.322 313.523 83.322C314.531 83.322 314.965 83.924 314.965 85.352V90H316.239V85.184C316.239 83.238 315.511 82.202 313.915 82.202C312.879 82.202 312.095 82.776 311.367 83.49H311.325L311.213 82.398H310.163V90ZM319.38 90.182C319.884 90.182 320.304 89.79 320.304 89.216C320.304 88.628 319.884 88.222 319.38 88.222C318.876 88.222 318.456 88.628 318.456 89.216C318.456 89.79 318.876 90.182 319.38 90.182Z" fill="#484545"/>
</svg>
