<svg width="100" height="18" viewBox="0 0 100 18" fill="none" xmlns="http://www.w3.org/2000/svg">
<path d="M0.456 17H2.824V5.144H0.456V17ZM9.36225 17H12.7383C16.2263 17 18.4663 15.016 18.4663 11.032C18.4663 7.032 16.2263 5.144 12.6102 5.144H9.36225V17ZM11.7303 15.096V7.048H12.4663C14.6743 7.048 16.0503 8.136 16.0503 11.032C16.0503 13.912 14.6743 15.096 12.4663 15.096H11.7303ZM24.4091 17H31.8491V15.016H26.7771V11.848H30.9371V9.864H26.7771V7.128H31.6731V5.144H24.4091V17ZM40.4539 10.824C40.8059 9.592 41.1579 8.248 41.4619 6.952H41.5419C41.8779 8.232 42.1979 9.592 42.5659 10.824L42.9179 12.12H40.1019L40.4539 10.824ZM36.3579 17H38.7579L39.5899 13.96H43.4299L44.2619 17H46.7419L42.9339 5.144H40.1499L36.3579 17ZM56.5849 17.224C58.1209 17.224 59.3849 16.616 60.3609 15.48L59.1129 14.008C58.4729 14.696 57.6889 15.176 56.6649 15.176C54.7929 15.176 53.5769 13.624 53.5769 11.048C53.5769 8.504 54.9209 6.968 56.7129 6.968C57.6089 6.968 58.2969 7.384 58.9049 7.96L60.1369 6.456C59.3689 5.656 58.1689 4.936 56.6649 4.936C53.6729 4.936 51.1609 7.224 51.1609 11.128C51.1609 15.08 53.5929 17.224 56.5849 17.224ZM65.8935 17H68.2615V5.144H65.8935V17ZM79.5038 17.224C82.6398 17.224 84.7998 14.872 84.7998 11.032C84.7998 7.192 82.6398 4.936 79.5038 4.936C76.3678 4.936 74.2078 7.176 74.2078 11.032C74.2078 14.872 76.3678 17.224 79.5038 17.224ZM79.5038 15.176C77.7438 15.176 76.6238 13.56 76.6238 11.032C76.6238 8.488 77.7438 6.968 79.5038 6.968C81.2638 6.968 82.3837 8.488 82.3837 11.032C82.3837 13.56 81.2638 15.176 79.5038 15.176ZM79.2798 4.568L82.4638 2.44L81.1998 0.903999L78.2398 3.384L79.2798 4.568ZM90.7373 17H92.9773V12.248C92.9773 10.888 92.8013 9.4 92.6893 8.12H92.7693L93.9693 10.664L97.3933 17H99.7933V5.144H97.5533V9.88C97.5533 11.224 97.7453 12.792 97.8573 14.024H97.7773L96.5933 11.464L93.1533 5.144H90.7373V17Z" fill="#262626"/>
</svg>
