<svg width="817" height="74" viewBox="0 0 817 74" fill="none" xmlns="http://www.w3.org/2000/svg">
<path d="M5.432 50.182C6.818 50.182 7.952 49.678 8.61 48.992V44.68H5.25V45.758H7.42V48.446C7.014 48.824 6.3 49.048 5.572 49.048C3.36 49.048 2.142 47.424 2.142 44.834C2.142 42.272 3.486 40.676 5.544 40.676C6.594 40.676 7.252 41.11 7.77 41.656L8.47 40.816C7.882 40.186 6.944 39.542 5.516 39.542C2.8 39.542 0.812 41.558 0.812 44.876C0.812 48.208 2.744 50.182 5.432 50.182ZM10.9403 50H12.2143V45.114C12.7183 43.812 13.5023 43.364 14.1323 43.364C14.4403 43.364 14.6223 43.392 14.8743 43.49L15.1123 42.37C14.8743 42.244 14.6363 42.202 14.3003 42.202C13.4463 42.202 12.6763 42.818 12.1443 43.784H12.1023L11.9903 42.398H10.9403V50ZM17.7353 50.182C18.6733 50.182 19.5273 49.692 20.2553 49.09H20.2973L20.4093 50H21.4593V45.324C21.4593 43.448 20.6753 42.202 18.8273 42.202C17.6093 42.202 16.5313 42.748 15.8313 43.196L16.3353 44.078C16.9373 43.672 17.7353 43.266 18.6173 43.266C19.8633 43.266 20.1853 44.204 20.1853 45.184C16.9513 45.548 15.5093 46.374 15.5093 48.026C15.5093 49.398 16.4613 50.182 17.7353 50.182ZM18.0993 49.16C17.3433 49.16 16.7553 48.81 16.7553 47.942C16.7553 46.962 17.6233 46.332 20.1853 46.024V48.152C19.4433 48.81 18.8413 49.16 18.0993 49.16ZM26.8836 50.182C27.7936 50.182 28.6616 49.832 29.3476 49.216L28.7876 48.362C28.3116 48.796 27.6956 49.118 26.9956 49.118C25.5956 49.118 24.6436 47.956 24.6436 46.206C24.6436 44.456 25.6516 43.266 27.0376 43.266C27.6396 43.266 28.1016 43.546 28.5496 43.938L29.2076 43.098C28.6616 42.622 27.9756 42.202 26.9816 42.202C25.0356 42.202 23.3136 43.672 23.3136 46.206C23.3136 48.726 24.8676 50.182 26.8836 50.182ZM31.0107 50H32.2847V42.398H31.0107V50ZM31.6547 40.83C32.1587 40.83 32.5087 40.494 32.5087 39.976C32.5087 39.486 32.1587 39.15 31.6547 39.15C31.1507 39.15 30.8007 39.486 30.8007 39.976C30.8007 40.494 31.1507 40.83 31.6547 40.83ZM36.6161 50.182C37.5541 50.182 38.4081 49.692 39.1361 49.09H39.1781L39.2901 50H40.3401V45.324C40.3401 43.448 39.5561 42.202 37.7081 42.202C36.4901 42.202 35.4121 42.748 34.7121 43.196L35.2161 44.078C35.8181 43.672 36.6161 43.266 37.4981 43.266C38.7441 43.266 39.0661 44.204 39.0661 45.184C35.8321 45.548 34.3901 46.374 34.3901 48.026C34.3901 49.398 35.3421 50.182 36.6161 50.182ZM36.9801 49.16C36.2241 49.16 35.6361 48.81 35.6361 47.942C35.6361 46.962 36.5041 46.332 39.0661 46.024V48.152C38.3241 48.81 37.7221 49.16 36.9801 49.16ZM44.7565 50.182C46.5485 50.182 47.5285 49.16 47.5285 47.928C47.5285 46.486 46.3105 46.038 45.2045 45.618C44.3505 45.296 43.5665 45.03 43.5665 44.302C43.5665 43.714 44.0145 43.21 44.9805 43.21C45.6525 43.21 46.1845 43.49 46.7025 43.882L47.3185 43.056C46.7305 42.594 45.9045 42.202 44.9665 42.202C43.3145 42.202 42.3345 43.154 42.3345 44.358C42.3345 45.646 43.4965 46.164 44.5605 46.556C45.4005 46.878 46.2965 47.214 46.2965 47.998C46.2965 48.656 45.8065 49.188 44.7985 49.188C43.8885 49.188 43.2025 48.824 42.5445 48.292L41.9145 49.132C42.6425 49.734 43.6785 50.182 44.7565 50.182ZM54.1982 50.182C55.1362 50.182 55.9902 49.692 56.7182 49.09H56.7602L56.8722 50H57.9222V45.324C57.9222 43.448 57.1382 42.202 55.2902 42.202C54.0722 42.202 52.9942 42.748 52.2942 43.196L52.7982 44.078C53.4002 43.672 54.1982 43.266 55.0802 43.266C56.3262 43.266 56.6482 44.204 56.6482 45.184C53.4142 45.548 51.9722 46.374 51.9722 48.026C51.9722 49.398 52.9242 50.182 54.1982 50.182ZM54.5622 49.16C53.8062 49.16 53.2182 48.81 53.2182 47.942C53.2182 46.962 54.0862 46.332 56.6482 46.024V48.152C55.9062 48.81 55.3042 49.16 54.5622 49.16ZM64.8254 50.182C65.1754 50.182 65.3854 50.14 65.5674 50.07L65.3854 49.09C65.2454 49.118 65.1894 49.118 65.1194 49.118C64.9234 49.118 64.7554 48.964 64.7554 48.572V38.856H63.4814V48.488C63.4814 49.566 63.8734 50.182 64.8254 50.182ZM70.4275 50.182C72.2895 50.182 73.9555 48.726 73.9555 46.206C73.9555 43.672 72.2895 42.202 70.4275 42.202C68.5655 42.202 66.8995 43.672 66.8995 46.206C66.8995 48.726 68.5655 50.182 70.4275 50.182ZM70.4275 49.118C69.1115 49.118 68.2295 47.956 68.2295 46.206C68.2295 44.456 69.1115 43.266 70.4275 43.266C71.7435 43.266 72.6395 44.456 72.6395 46.206C72.6395 47.956 71.7435 49.118 70.4275 49.118ZM77.9518 50.182C79.7438 50.182 80.7238 49.16 80.7238 47.928C80.7238 46.486 79.5058 46.038 78.3998 45.618C77.5458 45.296 76.7618 45.03 76.7618 44.302C76.7618 43.714 77.2098 43.21 78.1758 43.21C78.8478 43.21 79.3798 43.49 79.8978 43.882L80.5138 43.056C79.9258 42.594 79.0998 42.202 78.1618 42.202C76.5098 42.202 75.5298 43.154 75.5298 44.358C75.5298 45.646 76.6918 46.164 77.7558 46.556C78.5958 46.878 79.4918 47.214 79.4918 47.998C79.4918 48.656 79.0018 49.188 77.9938 49.188C77.0838 49.188 76.3978 48.824 75.7398 48.292L75.1098 49.132C75.8378 49.734 76.8738 50.182 77.9518 50.182ZM85.6435 53.206H86.9175V50.63L86.8895 49.3C87.5755 49.86 88.3035 50.182 88.9895 50.182C90.7395 50.182 92.2935 48.684 92.2935 46.08C92.2935 43.742 91.2295 42.202 89.2695 42.202C88.3875 42.202 87.5335 42.706 86.8475 43.266H86.8055L86.6935 42.398H85.6435V53.206ZM88.7795 49.118C88.2755 49.118 87.6035 48.908 86.9175 48.32V44.33C87.6595 43.644 88.3175 43.28 88.9615 43.28C90.4035 43.28 90.9635 44.414 90.9635 46.094C90.9635 47.984 90.0395 49.118 88.7795 49.118ZM95.8564 50.182C96.7944 50.182 97.6484 49.692 98.3764 49.09H98.4184L98.5304 50H99.5804V45.324C99.5804 43.448 98.7964 42.202 96.9484 42.202C95.7304 42.202 94.6524 42.748 93.9524 43.196L94.4564 44.078C95.0584 43.672 95.8564 43.266 96.7384 43.266C97.9844 43.266 98.3064 44.204 98.3064 45.184C95.0724 45.548 93.6304 46.374 93.6304 48.026C93.6304 49.398 94.5824 50.182 95.8564 50.182ZM96.2204 49.16C95.4644 49.16 94.8764 48.81 94.8764 47.942C94.8764 46.962 95.7444 46.332 98.3064 46.024V48.152C97.5644 48.81 96.9624 49.16 96.2204 49.16ZM103.997 50.182C105.789 50.182 106.769 49.16 106.769 47.928C106.769 46.486 105.551 46.038 104.445 45.618C103.591 45.296 102.807 45.03 102.807 44.302C102.807 43.714 103.255 43.21 104.221 43.21C104.893 43.21 105.425 43.49 105.943 43.882L106.559 43.056C105.971 42.594 105.145 42.202 104.207 42.202C102.555 42.202 101.575 43.154 101.575 44.358C101.575 45.646 102.737 46.164 103.801 46.556C104.641 46.878 105.537 47.214 105.537 47.998C105.537 48.656 105.047 49.188 104.039 49.188C103.129 49.188 102.443 48.824 101.785 48.292L101.155 49.132C101.883 49.734 102.919 50.182 103.997 50.182ZM111.512 50.182C113.374 50.182 115.04 48.726 115.04 46.206C115.04 43.672 113.374 42.202 111.512 42.202C109.65 42.202 107.984 43.672 107.984 46.206C107.984 48.726 109.65 50.182 111.512 50.182ZM111.512 49.118C110.196 49.118 109.314 47.956 109.314 46.206C109.314 44.456 110.196 43.266 111.512 43.266C112.828 43.266 113.724 44.456 113.724 46.206C113.724 47.956 112.828 49.118 111.512 49.118ZM119.036 50.182C120.828 50.182 121.808 49.16 121.808 47.928C121.808 46.486 120.59 46.038 119.484 45.618C118.63 45.296 117.846 45.03 117.846 44.302C117.846 43.714 118.294 43.21 119.26 43.21C119.932 43.21 120.464 43.49 120.982 43.882L121.598 43.056C121.01 42.594 120.184 42.202 119.246 42.202C117.594 42.202 116.614 43.154 116.614 44.358C116.614 45.646 117.776 46.164 118.84 46.556C119.68 46.878 120.576 47.214 120.576 47.998C120.576 48.656 120.086 49.188 119.078 49.188C118.168 49.188 117.482 48.824 116.824 48.292L116.194 49.132C116.922 49.734 117.958 50.182 119.036 50.182ZM126.727 53.206H128.001V50.63L127.973 49.3C128.659 49.86 129.387 50.182 130.073 50.182C131.823 50.182 133.377 48.684 133.377 46.08C133.377 43.742 132.313 42.202 130.353 42.202C129.471 42.202 128.617 42.706 127.931 43.266H127.889L127.777 42.398H126.727V53.206ZM129.863 49.118C129.359 49.118 128.687 48.908 128.001 48.32V44.33C128.743 43.644 129.401 43.28 130.045 43.28C131.487 43.28 132.047 44.414 132.047 46.094C132.047 47.984 131.123 49.118 129.863 49.118ZM135.409 50H136.683V45.114C137.187 43.812 137.971 43.364 138.601 43.364C138.909 43.364 139.091 43.392 139.343 43.49L139.581 42.37C139.343 42.244 139.105 42.202 138.769 42.202C137.915 42.202 137.145 42.818 136.613 43.784H136.571L136.459 42.398H135.409V50ZM143.752 50.182C144.788 50.182 145.6 49.832 146.272 49.398L145.81 48.558C145.25 48.936 144.648 49.16 143.906 49.16C142.464 49.16 141.47 48.124 141.386 46.5H146.51C146.538 46.318 146.566 46.052 146.566 45.772C146.566 43.602 145.474 42.202 143.542 42.202C141.778 42.202 140.112 43.742 140.112 46.206C140.112 48.712 141.736 50.182 143.752 50.182ZM141.372 45.576C141.526 44.092 142.478 43.224 143.556 43.224C144.746 43.224 145.446 44.05 145.446 45.576H141.372ZM150.145 50H151.629L154.331 42.398H153.071L151.629 46.724C151.405 47.466 151.167 48.25 150.929 48.964H150.873C150.635 48.25 150.397 47.466 150.159 46.724L148.731 42.398H147.401L150.145 50ZM155.808 50H157.082V42.398H155.808V50ZM156.452 40.83C156.956 40.83 157.306 40.494 157.306 39.976C157.306 39.486 156.956 39.15 156.452 39.15C155.948 39.15 155.598 39.486 155.598 39.976C155.598 40.494 155.948 40.83 156.452 40.83ZM162.617 50.182C164.479 50.182 166.145 48.726 166.145 46.206C166.145 43.672 164.479 42.202 162.617 42.202C160.755 42.202 159.089 43.672 159.089 46.206C159.089 48.726 160.755 50.182 162.617 50.182ZM162.617 49.118C161.301 49.118 160.419 47.956 160.419 46.206C160.419 44.456 161.301 43.266 162.617 43.266C163.933 43.266 164.829 44.456 164.829 46.206C164.829 47.956 163.933 49.118 162.617 49.118ZM170.141 50.182C171.933 50.182 172.913 49.16 172.913 47.928C172.913 46.486 171.695 46.038 170.589 45.618C169.735 45.296 168.951 45.03 168.951 44.302C168.951 43.714 169.399 43.21 170.365 43.21C171.037 43.21 171.569 43.49 172.087 43.882L172.703 43.056C172.115 42.594 171.289 42.202 170.351 42.202C168.699 42.202 167.719 43.154 167.719 44.358C167.719 45.646 168.881 46.164 169.945 46.556C170.785 46.878 171.681 47.214 171.681 47.998C171.681 48.656 171.191 49.188 170.183 49.188C169.273 49.188 168.587 48.824 167.929 48.292L167.299 49.132C168.027 49.734 169.063 50.182 170.141 50.182ZM179.821 50.182C181.613 50.182 182.593 49.16 182.593 47.928C182.593 46.486 181.375 46.038 180.269 45.618C179.415 45.296 178.631 45.03 178.631 44.302C178.631 43.714 179.079 43.21 180.045 43.21C180.717 43.21 181.249 43.49 181.767 43.882L182.383 43.056C181.795 42.594 180.969 42.202 180.031 42.202C178.379 42.202 177.399 43.154 177.399 44.358C177.399 45.646 178.561 46.164 179.625 46.556C180.465 46.878 181.361 47.214 181.361 47.998C181.361 48.656 180.871 49.188 179.863 49.188C178.953 49.188 178.267 48.824 177.609 48.292L176.979 49.132C177.707 49.734 178.743 50.182 179.821 50.182ZM187.448 50.182C188.484 50.182 189.296 49.832 189.968 49.398L189.506 48.558C188.946 48.936 188.344 49.16 187.602 49.16C186.16 49.16 185.166 48.124 185.082 46.5H190.206C190.234 46.318 190.262 46.052 190.262 45.772C190.262 43.602 189.17 42.202 187.238 42.202C185.474 42.202 183.808 43.742 183.808 46.206C183.808 48.712 185.432 50.182 187.448 50.182ZM185.068 45.576C185.222 44.092 186.174 43.224 187.252 43.224C188.442 43.224 189.142 44.05 189.142 45.576H185.068ZM196.609 50.182C196.959 50.182 197.169 50.14 197.351 50.07L197.169 49.09C197.029 49.118 196.973 49.118 196.903 49.118C196.707 49.118 196.539 48.964 196.539 48.572V38.856H195.265V48.488C195.265 49.566 195.657 50.182 196.609 50.182ZM202.211 50.182C204.073 50.182 205.739 48.726 205.739 46.206C205.739 43.672 204.073 42.202 202.211 42.202C200.349 42.202 198.683 43.672 198.683 46.206C198.683 48.726 200.349 50.182 202.211 50.182ZM202.211 49.118C200.895 49.118 200.013 47.956 200.013 46.206C200.013 44.456 200.895 43.266 202.211 43.266C203.527 43.266 204.423 44.456 204.423 46.206C204.423 47.956 203.527 49.118 202.211 49.118ZM210.309 53.5C212.661 53.5 214.159 52.282 214.159 50.868C214.159 49.622 213.263 49.062 211.499 49.062H210.015C208.993 49.062 208.685 48.726 208.685 48.236C208.685 47.816 208.895 47.564 209.175 47.326C209.511 47.494 209.931 47.592 210.309 47.592C211.849 47.592 213.081 46.57 213.081 44.946C213.081 44.288 212.829 43.728 212.465 43.378H214.019V42.398H211.373C211.107 42.3 210.729 42.202 210.309 42.202C208.769 42.202 207.453 43.252 207.453 44.918C207.453 45.828 207.943 46.556 208.447 46.962V47.018C208.055 47.298 207.593 47.802 207.593 48.432C207.593 49.034 207.887 49.44 208.293 49.678V49.734C207.579 50.196 207.173 50.812 207.173 51.456C207.173 52.772 208.447 53.5 210.309 53.5ZM210.309 46.724C209.427 46.724 208.685 46.024 208.685 44.918C208.685 43.798 209.413 43.14 210.309 43.14C211.205 43.14 211.933 43.812 211.933 44.918C211.933 46.024 211.177 46.724 210.309 46.724ZM210.491 52.632C209.119 52.632 208.293 52.1 208.293 51.288C208.293 50.84 208.517 50.392 209.063 50C209.399 50.084 209.763 50.126 210.043 50.126H211.359C212.367 50.126 212.913 50.364 212.913 51.064C212.913 51.862 211.947 52.632 210.491 52.632ZM215.636 50H216.91V45.114C217.414 43.812 218.198 43.364 218.828 43.364C219.136 43.364 219.318 43.392 219.57 43.49L219.808 42.37C219.57 42.244 219.332 42.202 218.996 42.202C218.142 42.202 217.372 42.818 216.84 43.784H216.798L216.686 42.398H215.636V50ZM223.867 50.182C225.729 50.182 227.395 48.726 227.395 46.206C227.395 43.672 225.729 42.202 223.867 42.202C222.005 42.202 220.339 43.672 220.339 46.206C220.339 48.726 222.005 50.182 223.867 50.182ZM223.867 49.118C222.551 49.118 221.669 47.956 221.669 46.206C221.669 44.456 222.551 43.266 223.867 43.266C225.183 43.266 226.079 44.456 226.079 46.206C226.079 47.956 225.183 49.118 223.867 49.118ZM223.643 41.026L226.093 38.646L225.197 37.792L222.985 40.396L223.643 41.026ZM235.124 50.182C236.034 50.182 236.832 49.692 237.434 49.104H237.476L237.588 50H238.624V38.856H237.364V41.782L237.42 43.098C236.748 42.538 236.174 42.202 235.278 42.202C233.542 42.202 231.988 43.742 231.988 46.206C231.988 48.74 233.22 50.182 235.124 50.182ZM235.404 49.118C234.06 49.118 233.304 48.026 233.304 46.192C233.304 44.456 234.27 43.28 235.502 43.28C236.132 43.28 236.706 43.504 237.364 44.078V48.068C236.72 48.768 236.104 49.118 235.404 49.118ZM244.282 50.182C245.318 50.182 246.13 49.832 246.802 49.398L246.34 48.558C245.78 48.936 245.178 49.16 244.436 49.16C242.994 49.16 242 48.124 241.916 46.5H247.04C247.068 46.318 247.096 46.052 247.096 45.772C247.096 43.602 246.004 42.202 244.072 42.202C242.308 42.202 240.642 43.742 240.642 46.206C240.642 48.712 242.266 50.182 244.282 50.182ZM241.902 45.576C242.056 44.092 243.008 43.224 244.086 43.224C245.276 43.224 245.976 44.05 245.976 45.576H241.902ZM249.178 50H250.452V43.434H252.062V42.398H250.452V41.194C250.452 40.214 250.802 39.696 251.53 39.696C251.796 39.696 252.104 39.766 252.384 39.892L252.664 38.926C252.314 38.772 251.852 38.674 251.39 38.674C249.878 38.674 249.178 39.64 249.178 41.18V42.398L248.142 42.468V43.434H249.178V50ZM253.518 50H254.806V42.398H253.518V50ZM254.162 40.83C254.666 40.83 255.03 40.494 255.03 39.976C255.03 39.486 254.666 39.15 254.162 39.15C253.672 39.15 253.322 39.486 253.322 39.976C253.322 40.494 253.672 40.83 254.162 40.83ZM257.362 50H258.636V44.484C259.406 43.714 259.938 43.322 260.722 43.322C261.73 43.322 262.164 43.924 262.164 45.352V50H263.438V45.184C263.438 43.238 262.71 42.202 261.114 42.202C260.078 42.202 259.294 42.776 258.566 43.49H258.524L258.412 42.398H257.362V50ZM265.921 50H267.195V42.398H265.921V50ZM266.565 40.83C267.069 40.83 267.419 40.494 267.419 39.976C267.419 39.486 267.069 39.15 266.565 39.15C266.061 39.15 265.711 39.486 265.711 39.976C265.711 40.494 266.061 40.83 266.565 40.83ZM269.776 50H271.05V45.114C271.554 43.812 272.338 43.364 272.968 43.364C273.276 43.364 273.458 43.392 273.71 43.49L273.948 42.37C273.71 42.244 273.472 42.202 273.136 42.202C272.282 42.202 271.512 42.818 270.98 43.784H270.938L270.826 42.398H269.776V50ZM279.679 50.182C280.029 50.182 280.239 50.14 280.421 50.07L280.239 49.09C280.099 49.118 280.043 49.118 279.973 49.118C279.777 49.118 279.609 48.964 279.609 48.572V38.856H278.335V48.488C278.335 49.566 278.727 50.182 279.679 50.182ZM284.077 50.182C285.015 50.182 285.869 49.692 286.597 49.09H286.639L286.751 50H287.801V45.324C287.801 43.448 287.017 42.202 285.169 42.202C283.951 42.202 282.873 42.748 282.173 43.196L282.677 44.078C283.279 43.672 284.077 43.266 284.959 43.266C286.205 43.266 286.527 44.204 286.527 45.184C283.293 45.548 281.851 46.374 281.851 48.026C281.851 49.398 282.803 50.182 284.077 50.182ZM284.441 49.16C283.685 49.16 283.097 48.81 283.097 47.942C283.097 46.962 283.965 46.332 286.527 46.024V48.152C285.785 48.81 285.183 49.16 284.441 49.16ZM292.217 50.182C294.009 50.182 294.989 49.16 294.989 47.928C294.989 46.486 293.771 46.038 292.665 45.618C291.811 45.296 291.027 45.03 291.027 44.302C291.027 43.714 291.475 43.21 292.441 43.21C293.113 43.21 293.645 43.49 294.163 43.882L294.779 43.056C294.191 42.594 293.365 42.202 292.427 42.202C290.775 42.202 289.795 43.154 289.795 44.358C289.795 45.646 290.957 46.164 292.021 46.556C292.861 46.878 293.757 47.214 293.757 47.998C293.757 48.656 293.267 49.188 292.259 49.188C291.349 49.188 290.663 48.824 290.005 48.292L289.375 49.132C290.103 49.734 291.139 50.182 292.217 50.182ZM299.909 53.206H301.183V50.63L301.155 49.3C301.841 49.86 302.569 50.182 303.255 50.182C305.005 50.182 306.559 48.684 306.559 46.08C306.559 43.742 305.495 42.202 303.535 42.202C302.653 42.202 301.799 42.706 301.113 43.266H301.071L300.959 42.398H299.909V53.206ZM303.045 49.118C302.541 49.118 301.869 48.908 301.183 48.32V44.33C301.925 43.644 302.583 43.28 303.227 43.28C304.669 43.28 305.229 44.414 305.229 46.094C305.229 47.984 304.305 49.118 303.045 49.118ZM308.591 50H309.865V45.114C310.369 43.812 311.153 43.364 311.783 43.364C312.091 43.364 312.273 43.392 312.525 43.49L312.763 42.37C312.525 42.244 312.287 42.202 311.951 42.202C311.097 42.202 310.327 42.818 309.795 43.784H309.753L309.641 42.398H308.591V50ZM314.018 50H315.292V42.398H314.018V50ZM314.662 40.83C315.166 40.83 315.516 40.494 315.516 39.976C315.516 39.486 315.166 39.15 314.662 39.15C314.158 39.15 313.808 39.486 313.808 39.976C313.808 40.494 314.158 40.83 314.662 40.83ZM317.874 50H319.148V44.484C319.918 43.714 320.45 43.322 321.234 43.322C322.242 43.322 322.676 43.924 322.676 45.352V50H323.95V45.184C323.95 43.238 323.222 42.202 321.626 42.202C320.59 42.202 319.806 42.776 319.078 43.49H319.036L318.924 42.398H317.874V50ZM329.429 50.182C330.339 50.182 331.207 49.832 331.893 49.216L331.333 48.362C330.857 48.796 330.241 49.118 329.541 49.118C328.141 49.118 327.189 47.956 327.189 46.206C327.189 44.456 328.197 43.266 329.583 43.266C330.185 43.266 330.647 43.546 331.095 43.938L331.753 43.098C331.207 42.622 330.521 42.202 329.527 42.202C327.581 42.202 325.859 43.672 325.859 46.206C325.859 48.726 327.413 50.182 329.429 50.182ZM333.556 50H334.83V42.398H333.556V50ZM334.2 40.83C334.704 40.83 335.054 40.494 335.054 39.976C335.054 39.486 334.704 39.15 334.2 39.15C333.696 39.15 333.346 39.486 333.346 39.976C333.346 40.494 333.696 40.83 334.2 40.83ZM337.411 53.206H338.685V50.63L338.657 49.3C339.343 49.86 340.071 50.182 340.757 50.182C342.507 50.182 344.061 48.684 344.061 46.08C344.061 43.742 342.997 42.202 341.037 42.202C340.155 42.202 339.301 42.706 338.615 43.266H338.573L338.461 42.398H337.411V53.206ZM340.547 49.118C340.043 49.118 339.371 48.908 338.685 48.32V44.33C339.427 43.644 340.085 43.28 340.729 43.28C342.171 43.28 342.731 44.414 342.731 46.094C342.731 47.984 341.807 49.118 340.547 49.118ZM347.624 50.182C348.562 50.182 349.416 49.692 350.144 49.09H350.186L350.298 50H351.348V45.324C351.348 43.448 350.564 42.202 348.716 42.202C347.498 42.202 346.42 42.748 345.72 43.196L346.224 44.078C346.826 43.672 347.624 43.266 348.506 43.266C349.752 43.266 350.074 44.204 350.074 45.184C346.84 45.548 345.398 46.374 345.398 48.026C345.398 49.398 346.35 50.182 347.624 50.182ZM347.988 49.16C347.232 49.16 346.644 48.81 346.644 47.942C346.644 46.962 347.512 46.332 350.074 46.024V48.152C349.332 48.81 348.73 49.16 347.988 49.16ZM355.12 50.182C355.47 50.182 355.68 50.14 355.862 50.07L355.68 49.09C355.54 49.118 355.484 49.118 355.414 49.118C355.218 49.118 355.05 48.964 355.05 48.572V38.856H353.776V48.488C353.776 49.566 354.168 50.182 355.12 50.182ZM360.834 50.182C361.87 50.182 362.682 49.832 363.354 49.398L362.892 48.558C362.332 48.936 361.73 49.16 360.988 49.16C359.546 49.16 358.552 48.124 358.468 46.5H363.592C363.62 46.318 363.648 46.052 363.648 45.772C363.648 43.602 362.556 42.202 360.624 42.202C358.86 42.202 357.194 43.742 357.194 46.206C357.194 48.712 358.818 50.182 360.834 50.182ZM358.454 45.576C358.608 44.092 359.56 43.224 360.638 43.224C361.828 43.224 362.528 44.05 362.528 45.576H358.454ZM367.508 50.182C369.3 50.182 370.28 49.16 370.28 47.928C370.28 46.486 369.062 46.038 367.956 45.618C367.102 45.296 366.318 45.03 366.318 44.302C366.318 43.714 366.766 43.21 367.732 43.21C368.404 43.21 368.936 43.49 369.454 43.882L370.07 43.056C369.482 42.594 368.656 42.202 367.718 42.202C366.066 42.202 365.086 43.154 365.086 44.358C365.086 45.646 366.248 46.164 367.312 46.556C368.152 46.878 369.048 47.214 369.048 47.998C369.048 48.656 368.558 49.188 367.55 49.188C366.64 49.188 365.954 48.824 365.296 48.292L364.666 49.132C365.394 49.734 366.43 50.182 367.508 50.182ZM378.196 50.182C379.106 50.182 379.974 49.832 380.66 49.216L380.1 48.362C379.624 48.796 379.008 49.118 378.308 49.118C376.908 49.118 375.956 47.956 375.956 46.206C375.956 44.456 376.964 43.266 378.35 43.266C378.952 43.266 379.414 43.546 379.862 43.938L380.52 43.098C379.974 42.622 379.288 42.202 378.294 42.202C376.348 42.202 374.626 43.672 374.626 46.206C374.626 48.726 376.18 50.182 378.196 50.182ZM383.923 50.182C384.861 50.182 385.715 49.692 386.443 49.09H386.485L386.597 50H387.647V45.324C387.647 43.448 386.863 42.202 385.015 42.202C383.797 42.202 382.719 42.748 382.019 43.196L382.523 44.078C383.125 43.672 383.923 43.266 384.805 43.266C386.051 43.266 386.373 44.204 386.373 45.184C383.139 45.548 381.697 46.374 381.697 48.026C381.697 49.398 382.649 50.182 383.923 50.182ZM384.287 49.16C383.531 49.16 382.943 48.81 382.943 47.942C382.943 46.962 383.811 46.332 386.373 46.024V48.152C385.631 48.81 385.029 49.16 384.287 49.16ZM390.075 50H391.349V45.114C391.853 43.812 392.637 43.364 393.267 43.364C393.575 43.364 393.757 43.392 394.009 43.49L394.247 42.37C394.009 42.244 393.771 42.202 393.435 42.202C392.581 42.202 391.811 42.818 391.279 43.784H391.237L391.125 42.398H390.075V50ZM396.87 50.182C397.808 50.182 398.662 49.692 399.39 49.09H399.432L399.544 50H400.594V45.324C400.594 43.448 399.81 42.202 397.962 42.202C396.744 42.202 395.666 42.748 394.966 43.196L395.47 44.078C396.072 43.672 396.87 43.266 397.752 43.266C398.998 43.266 399.32 44.204 399.32 45.184C396.086 45.548 394.644 46.374 394.644 48.026C394.644 49.398 395.596 50.182 396.87 50.182ZM397.234 49.16C396.478 49.16 395.89 48.81 395.89 47.942C395.89 46.962 396.758 46.332 399.32 46.024V48.152C398.578 48.81 397.976 49.16 397.234 49.16ZM406.018 50.182C406.928 50.182 407.796 49.832 408.482 49.216L407.922 48.362C407.446 48.796 406.83 49.118 406.13 49.118C404.73 49.118 403.778 47.956 403.778 46.206C403.778 44.456 404.786 43.266 406.172 43.266C406.774 43.266 407.236 43.546 407.684 43.938L408.342 43.098C407.796 42.622 407.11 42.202 406.116 42.202C404.17 42.202 402.448 43.672 402.448 46.206C402.448 48.726 404.002 50.182 406.018 50.182ZM412.389 50.182C412.851 50.182 413.355 50.042 413.789 49.902L413.537 48.95C413.285 49.048 412.935 49.146 412.669 49.146C411.787 49.146 411.493 48.614 411.493 47.676V43.434H413.551V42.398H411.493V40.256H410.429L410.275 42.398L409.085 42.468V43.434H410.219V47.648C410.219 49.16 410.765 50.182 412.389 50.182ZM418.133 50.182C419.169 50.182 419.981 49.832 420.653 49.398L420.191 48.558C419.631 48.936 419.029 49.16 418.287 49.16C416.845 49.16 415.851 48.124 415.767 46.5H420.891C420.919 46.318 420.947 46.052 420.947 45.772C420.947 43.602 419.855 42.202 417.923 42.202C416.159 42.202 414.493 43.742 414.493 46.206C414.493 48.712 416.117 50.182 418.133 50.182ZM415.753 45.576C415.907 44.092 416.859 43.224 417.937 43.224C419.127 43.224 419.827 44.05 419.827 45.576H415.753ZM422.819 50H424.093V45.114C424.597 43.812 425.381 43.364 426.011 43.364C426.319 43.364 426.501 43.392 426.753 43.49L426.991 42.37C426.753 42.244 426.515 42.202 426.179 42.202C425.325 42.202 424.555 42.818 424.023 43.784H423.981L423.869 42.398H422.819V50ZM428.247 50H429.521V42.398H428.247V50ZM428.667 41.026L431.117 38.646L430.221 37.792L428.009 40.396L428.667 41.026ZM434.09 50.182C435.882 50.182 436.862 49.16 436.862 47.928C436.862 46.486 435.644 46.038 434.538 45.618C433.684 45.296 432.9 45.03 432.9 44.302C432.9 43.714 433.348 43.21 434.314 43.21C434.986 43.21 435.518 43.49 436.036 43.882L436.652 43.056C436.064 42.594 435.238 42.202 434.3 42.202C432.648 42.202 431.668 43.154 431.668 44.358C431.668 45.646 432.83 46.164 433.894 46.556C434.734 46.878 435.63 47.214 435.63 47.998C435.63 48.656 435.14 49.188 434.132 49.188C433.222 49.188 432.536 48.824 431.878 48.292L431.248 49.132C431.976 49.734 433.012 50.182 434.09 50.182ZM440.731 50.182C441.193 50.182 441.697 50.042 442.131 49.902L441.879 48.95C441.627 49.048 441.277 49.146 441.011 49.146C440.129 49.146 439.835 48.614 439.835 47.676V43.434H441.893V42.398H439.835V40.256H438.771L438.617 42.398L437.427 42.468V43.434H438.561V47.648C438.561 49.16 439.107 50.182 440.731 50.182ZM443.614 50H444.888V42.398H443.614V50ZM444.258 40.83C444.762 40.83 445.112 40.494 445.112 39.976C445.112 39.486 444.762 39.15 444.258 39.15C443.754 39.15 443.404 39.486 443.404 39.976C443.404 40.494 443.754 40.83 444.258 40.83ZM450.466 50.182C451.376 50.182 452.244 49.832 452.93 49.216L452.37 48.362C451.894 48.796 451.278 49.118 450.578 49.118C449.178 49.118 448.226 47.956 448.226 46.206C448.226 44.456 449.234 43.266 450.62 43.266C451.222 43.266 451.684 43.546 452.132 43.938L452.79 43.098C452.244 42.622 451.558 42.202 450.564 42.202C448.618 42.202 446.896 43.672 446.896 46.206C446.896 48.726 448.45 50.182 450.466 50.182ZM456.192 50.182C457.13 50.182 457.984 49.692 458.712 49.09H458.754L458.866 50H459.916V45.324C459.916 43.448 459.132 42.202 457.284 42.202C456.066 42.202 454.988 42.748 454.288 43.196L454.792 44.078C455.394 43.672 456.192 43.266 457.074 43.266C458.32 43.266 458.642 44.204 458.642 45.184C455.408 45.548 453.966 46.374 453.966 48.026C453.966 49.398 454.918 50.182 456.192 50.182ZM456.556 49.16C455.8 49.16 455.212 48.81 455.212 47.942C455.212 46.962 456.08 46.332 458.642 46.024V48.152C457.9 48.81 457.298 49.16 456.556 49.16ZM464.333 50.182C466.125 50.182 467.105 49.16 467.105 47.928C467.105 46.486 465.887 46.038 464.781 45.618C463.927 45.296 463.143 45.03 463.143 44.302C463.143 43.714 463.591 43.21 464.557 43.21C465.229 43.21 465.761 43.49 466.279 43.882L466.895 43.056C466.307 42.594 465.481 42.202 464.543 42.202C462.891 42.202 461.911 43.154 461.911 44.358C461.911 45.646 463.073 46.164 464.137 46.556C464.977 46.878 465.873 47.214 465.873 47.998C465.873 48.656 465.383 49.188 464.375 49.188C463.465 49.188 462.779 48.824 462.121 48.292L461.491 49.132C462.219 49.734 463.255 50.182 464.333 50.182ZM476.854 53.206H478.114V42.398H477.106L476.98 43.126H476.938C476.28 42.524 475.65 42.202 474.768 42.202C473.032 42.202 471.478 43.742 471.478 46.206C471.478 48.74 472.71 50.182 474.614 50.182C475.496 50.182 476.294 49.72 476.91 49.118L476.854 50.504V53.206ZM474.894 49.118C473.55 49.118 472.794 48.026 472.794 46.192C472.794 44.456 473.76 43.28 474.992 43.28C475.622 43.28 476.196 43.504 476.854 44.078V48.068C476.21 48.768 475.594 49.118 474.894 49.118ZM482.918 50.182C483.968 50.182 484.724 49.636 485.438 48.81H485.48L485.578 50H486.642V42.398H485.368V47.788C484.64 48.698 484.094 49.076 483.31 49.076C482.302 49.076 481.882 48.474 481.882 47.06V42.398H480.608V47.214C480.608 49.146 481.322 50.182 482.918 50.182ZM492.276 50.182C493.312 50.182 494.124 49.832 494.796 49.398L494.334 48.558C493.774 48.936 493.172 49.16 492.43 49.16C490.988 49.16 489.994 48.124 489.91 46.5H495.034C495.062 46.318 495.09 46.052 495.09 45.772C495.09 43.602 493.998 42.202 492.066 42.202C490.302 42.202 488.636 43.742 488.636 46.206C488.636 48.712 490.26 50.182 492.276 50.182ZM489.896 45.576C490.05 44.092 491.002 43.224 492.08 43.224C493.27 43.224 493.97 44.05 493.97 45.576H489.896ZM502.487 50.182C502.949 50.182 503.453 50.042 503.887 49.902L503.635 48.95C503.383 49.048 503.033 49.146 502.767 49.146C501.885 49.146 501.591 48.614 501.591 47.676V43.434H503.649V42.398H501.591V40.256H500.527L500.373 42.398L499.183 42.468V43.434H500.317V47.648C500.317 49.16 500.863 50.182 502.487 50.182ZM508.231 50.182C509.267 50.182 510.079 49.832 510.751 49.398L510.289 48.558C509.729 48.936 509.127 49.16 508.385 49.16C506.943 49.16 505.949 48.124 505.865 46.5H510.989C511.017 46.318 511.045 46.052 511.045 45.772C511.045 43.602 509.953 42.202 508.021 42.202C506.257 42.202 504.591 43.742 504.591 46.206C504.591 48.712 506.215 50.182 508.231 50.182ZM505.851 45.576C506.005 44.092 506.957 43.224 508.035 43.224C509.225 43.224 509.925 44.05 509.925 45.576H505.851ZM512.917 50H514.191V44.484C514.961 43.714 515.493 43.322 516.277 43.322C517.285 43.322 517.719 43.924 517.719 45.352V50H518.993V45.184C518.993 43.238 518.265 42.202 516.669 42.202C515.633 42.202 514.849 42.776 514.121 43.49H514.079L513.967 42.398H512.917V50ZM524.066 50.182C524.976 50.182 525.774 49.692 526.376 49.104H526.418L526.53 50H527.566V38.856H526.306V41.782L526.362 43.098C525.69 42.538 525.116 42.202 524.22 42.202C522.484 42.202 520.93 43.742 520.93 46.206C520.93 48.74 522.162 50.182 524.066 50.182ZM524.346 49.118C523.002 49.118 522.245 48.026 522.245 46.192C522.245 44.456 523.212 43.28 524.444 43.28C525.074 43.28 525.648 43.504 526.306 44.078V48.068C525.662 48.768 525.046 49.118 524.346 49.118ZM530.157 50H531.431V45.114C531.935 43.812 532.719 43.364 533.349 43.364C533.657 43.364 533.839 43.392 534.091 43.49L534.329 42.37C534.091 42.244 533.853 42.202 533.517 42.202C532.663 42.202 531.893 42.818 531.361 43.784H531.319L531.207 42.398H530.157V50ZM535.585 50H536.859V42.398H535.585V50ZM536.005 41.026L538.455 38.646L537.559 37.792L535.347 40.396L536.005 41.026ZM541.19 50.182C542.128 50.182 542.982 49.692 543.71 49.09H543.752L543.864 50H544.914V45.324C544.914 43.448 544.13 42.202 542.282 42.202C541.064 42.202 539.986 42.748 539.286 43.196L539.79 44.078C540.392 43.672 541.19 43.266 542.072 43.266C543.318 43.266 543.64 44.204 543.64 45.184C540.406 45.548 538.964 46.374 538.964 48.026C538.964 49.398 539.916 50.182 541.19 50.182ZM541.554 49.16C540.798 49.16 540.21 48.81 540.21 47.942C540.21 46.962 541.078 46.332 543.64 46.024V48.152C542.898 48.81 542.296 49.16 541.554 49.16ZM551.818 50.182C552.168 50.182 552.378 50.14 552.56 50.07L552.378 49.09C552.238 49.118 552.182 49.118 552.112 49.118C551.916 49.118 551.748 48.964 551.748 48.572V38.856H550.474V48.488C550.474 49.566 550.866 50.182 551.818 50.182ZM556.216 50.182C557.154 50.182 558.008 49.692 558.736 49.09H558.778L558.89 50H559.94V45.324C559.94 43.448 559.156 42.202 557.308 42.202C556.09 42.202 555.012 42.748 554.312 43.196L554.816 44.078C555.418 43.672 556.216 43.266 557.098 43.266C558.344 43.266 558.666 44.204 558.666 45.184C555.432 45.548 553.99 46.374 553.99 48.026C553.99 49.398 554.942 50.182 556.216 50.182ZM556.58 49.16C555.824 49.16 555.236 48.81 555.236 47.942C555.236 46.962 556.104 46.332 558.666 46.024V48.152C557.924 48.81 557.322 49.16 556.58 49.16ZM567.249 50.182C568.187 50.182 569.041 49.692 569.769 49.09H569.811L569.923 50H570.973V45.324C570.973 43.448 570.189 42.202 568.341 42.202C567.123 42.202 566.045 42.748 565.345 43.196L565.849 44.078C566.451 43.672 567.249 43.266 568.131 43.266C569.377 43.266 569.699 44.204 569.699 45.184C566.465 45.548 565.023 46.374 565.023 48.026C565.023 49.398 565.975 50.182 567.249 50.182ZM567.613 49.16C566.857 49.16 566.269 48.81 566.269 47.942C566.269 46.962 567.137 46.332 569.699 46.024V48.152C568.957 48.81 568.355 49.16 567.613 49.16ZM573.401 53.206H574.675V50.63L574.647 49.3C575.333 49.86 576.061 50.182 576.747 50.182C578.497 50.182 580.051 48.684 580.051 46.08C580.051 43.742 578.987 42.202 577.027 42.202C576.145 42.202 575.291 42.706 574.605 43.266H574.563L574.451 42.398H573.401V53.206ZM576.537 49.118C576.033 49.118 575.361 48.908 574.675 48.32V44.33C575.417 43.644 576.075 43.28 576.719 43.28C578.161 43.28 578.721 44.414 578.721 46.094C578.721 47.984 577.797 49.118 576.537 49.118ZM583.427 50.182C583.777 50.182 583.987 50.14 584.169 50.07L583.987 49.09C583.847 49.118 583.791 49.118 583.721 49.118C583.525 49.118 583.357 48.964 583.357 48.572V38.856H582.083V48.488C582.083 49.566 582.475 50.182 583.427 50.182ZM586.075 50H587.349V42.398H586.075V50ZM586.719 40.83C587.223 40.83 587.573 40.494 587.573 39.976C587.573 39.486 587.223 39.15 586.719 39.15C586.215 39.15 585.865 39.486 585.865 39.976C585.865 40.494 586.215 40.83 586.719 40.83ZM592.927 50.182C593.837 50.182 594.705 49.832 595.391 49.216L594.831 48.362C594.355 48.796 593.739 49.118 593.039 49.118C591.639 49.118 590.687 47.956 590.687 46.206C590.687 44.456 591.695 43.266 593.081 43.266C593.683 43.266 594.145 43.546 594.593 43.938L595.251 43.098C594.705 42.622 594.019 42.202 593.025 42.202C591.079 42.202 589.357 43.672 589.357 46.206C589.357 48.726 590.911 50.182 592.927 50.182ZM598.653 50.182C599.591 50.182 600.445 49.692 601.173 49.09H601.215L601.327 50H602.377V45.324C602.377 43.448 601.593 42.202 599.745 42.202C598.527 42.202 597.449 42.748 596.749 43.196L597.253 44.078C597.855 43.672 598.653 43.266 599.535 43.266C600.781 43.266 601.103 44.204 601.103 45.184C597.869 45.548 596.427 46.374 596.427 48.026C596.427 49.398 597.379 50.182 598.653 50.182ZM599.017 49.16C598.261 49.16 597.673 48.81 597.673 47.942C597.673 46.962 598.541 46.332 601.103 46.024V48.152C600.361 48.81 599.759 49.16 599.017 49.16ZM607.802 50.182C608.712 50.182 609.58 49.832 610.266 49.216L609.706 48.362C609.23 48.796 608.614 49.118 607.914 49.118C606.514 49.118 605.562 47.956 605.562 46.206C605.562 44.456 606.57 43.266 607.956 43.266C608.558 43.266 609.02 43.546 609.468 43.938L610.126 43.098C609.58 42.622 608.894 42.202 607.9 42.202C605.954 42.202 604.232 43.672 604.232 46.206C604.232 48.726 605.786 50.182 607.802 50.182ZM611.929 50H613.203V42.398H611.929V50ZM612.573 40.83C613.077 40.83 613.427 40.494 613.427 39.976C613.427 39.486 613.077 39.15 612.573 39.15C612.069 39.15 611.719 39.486 611.719 39.976C611.719 40.494 612.069 40.83 612.573 40.83ZM618.738 50.182C620.6 50.182 622.266 48.726 622.266 46.206C622.266 43.672 620.6 42.202 618.738 42.202C616.876 42.202 615.21 43.672 615.21 46.206C615.21 48.726 616.876 50.182 618.738 50.182ZM618.738 49.118C617.422 49.118 616.54 47.956 616.54 46.206C616.54 44.456 617.422 43.266 618.738 43.266C620.054 43.266 620.95 44.456 620.95 46.206C620.95 47.956 620.054 49.118 618.738 49.118ZM618.514 41.026L620.964 38.646L620.068 37.792L617.856 40.396L618.514 41.026ZM624.274 50H625.548V44.484C626.318 43.714 626.85 43.322 627.634 43.322C628.642 43.322 629.076 43.924 629.076 45.352V50H630.35V45.184C630.35 43.238 629.622 42.202 628.026 42.202C626.99 42.202 626.206 42.776 625.478 43.49H625.436L625.324 42.398H624.274V50ZM639.03 50.182C640.066 50.182 640.878 49.832 641.55 49.398L641.088 48.558C640.528 48.936 639.926 49.16 639.184 49.16C637.742 49.16 636.748 48.124 636.664 46.5H641.788C641.816 46.318 641.844 46.052 641.844 45.772C641.844 43.602 640.752 42.202 638.82 42.202C637.056 42.202 635.39 43.742 635.39 46.206C635.39 48.712 637.014 50.182 639.03 50.182ZM636.65 45.576C636.804 44.092 637.756 43.224 638.834 43.224C640.024 43.224 640.724 44.05 640.724 45.576H636.65ZM643.716 50H644.99V44.484C645.76 43.714 646.292 43.322 647.076 43.322C648.084 43.322 648.518 43.924 648.518 45.352V50H649.792V45.184C649.792 43.238 649.064 42.202 647.468 42.202C646.432 42.202 645.648 42.776 644.92 43.49H644.878L644.766 42.398H643.716V50ZM657.393 50.182C659.185 50.182 660.165 49.16 660.165 47.928C660.165 46.486 658.947 46.038 657.841 45.618C656.987 45.296 656.203 45.03 656.203 44.302C656.203 43.714 656.651 43.21 657.617 43.21C658.289 43.21 658.821 43.49 659.339 43.882L659.955 43.056C659.367 42.594 658.541 42.202 657.603 42.202C655.951 42.202 654.971 43.154 654.971 44.358C654.971 45.646 656.133 46.164 657.197 46.556C658.037 46.878 658.933 47.214 658.933 47.998C658.933 48.656 658.443 49.188 657.435 49.188C656.525 49.188 655.839 48.824 655.181 48.292L654.551 49.132C655.279 49.734 656.315 50.182 657.393 50.182ZM664.166 50.182C665.216 50.182 665.972 49.636 666.686 48.81H666.728L666.826 50H667.89V42.398H666.616V47.788C665.888 48.698 665.342 49.076 664.558 49.076C663.55 49.076 663.13 48.474 663.13 47.06V42.398H661.856V47.214C661.856 49.146 662.57 50.182 664.166 50.182ZM675.227 50H676.711L679.413 42.398H678.153L676.711 46.724C676.487 47.466 676.249 48.25 676.011 48.964H675.955C675.717 48.25 675.479 47.466 675.241 46.724L673.813 42.398H672.483L675.227 50ZM683.901 50.182C684.937 50.182 685.749 49.832 686.421 49.398L685.959 48.558C685.399 48.936 684.797 49.16 684.055 49.16C682.613 49.16 681.619 48.124 681.535 46.5H686.659C686.687 46.318 686.715 46.052 686.715 45.772C686.715 43.602 685.623 42.202 683.691 42.202C681.927 42.202 680.261 43.742 680.261 46.206C680.261 48.712 681.885 50.182 683.901 50.182ZM681.521 45.576C681.675 44.092 682.627 43.224 683.705 43.224C684.895 43.224 685.595 44.05 685.595 45.576H681.521ZM688.587 50H689.861V45.114C690.365 43.812 691.149 43.364 691.779 43.364C692.087 43.364 692.269 43.392 692.521 43.49L692.759 42.37C692.521 42.244 692.283 42.202 691.947 42.202C691.093 42.202 690.323 42.818 689.791 43.784H689.749L689.637 42.398H688.587V50ZM695.948 50.182C697.74 50.182 698.72 49.16 698.72 47.928C698.72 46.486 697.502 46.038 696.396 45.618C695.542 45.296 694.758 45.03 694.758 44.302C694.758 43.714 695.206 43.21 696.172 43.21C696.844 43.21 697.376 43.49 697.894 43.882L698.51 43.056C697.922 42.594 697.096 42.202 696.158 42.202C694.506 42.202 693.526 43.154 693.526 44.358C693.526 45.646 694.688 46.164 695.752 46.556C696.592 46.878 697.488 47.214 697.488 47.998C697.488 48.656 696.998 49.188 695.99 49.188C695.08 49.188 694.394 48.824 693.736 48.292L693.106 49.132C693.834 49.734 694.87 50.182 695.948 50.182ZM700.509 50H701.783V42.398H700.509V50ZM701.153 40.83C701.657 40.83 702.007 40.494 702.007 39.976C702.007 39.486 701.657 39.15 701.153 39.15C700.649 39.15 700.299 39.486 700.299 39.976C700.299 40.494 700.649 40.83 701.153 40.83ZM707.318 50.182C709.18 50.182 710.846 48.726 710.846 46.206C710.846 43.672 709.18 42.202 707.318 42.202C705.456 42.202 703.79 43.672 703.79 46.206C703.79 48.726 705.456 50.182 707.318 50.182ZM707.318 49.118C706.002 49.118 705.12 47.956 705.12 46.206C705.12 44.456 706.002 43.266 707.318 43.266C708.634 43.266 709.53 44.456 709.53 46.206C709.53 47.956 708.634 49.118 707.318 49.118ZM707.094 41.026L709.544 38.646L708.648 37.792L706.436 40.396L707.094 41.026ZM712.854 50H714.128V44.484C714.898 43.714 715.43 43.322 716.214 43.322C717.222 43.322 717.656 43.924 717.656 45.352V50H718.93V45.184C718.93 43.238 718.202 42.202 716.606 42.202C715.57 42.202 714.786 42.776 714.058 43.49H714.016L713.904 42.398H712.854V50ZM724.544 50H725.818V44.484C726.518 43.7 727.162 43.322 727.736 43.322C728.702 43.322 729.15 43.924 729.15 45.352V50H730.424V44.484C731.138 43.7 731.754 43.322 732.342 43.322C733.308 43.322 733.756 43.924 733.756 45.352V50H735.03V45.184C735.03 43.238 734.288 42.202 732.72 42.202C731.796 42.202 730.998 42.804 730.214 43.658C729.906 42.762 729.276 42.202 728.114 42.202C727.204 42.202 726.406 42.776 725.748 43.504H725.706L725.594 42.398H724.544V50ZM740.459 50.182C742.321 50.182 743.987 48.726 743.987 46.206C743.987 43.672 742.321 42.202 740.459 42.202C738.597 42.202 736.931 43.672 736.931 46.206C736.931 48.726 738.597 50.182 740.459 50.182ZM740.459 49.118C739.143 49.118 738.261 47.956 738.261 46.206C738.261 44.456 739.143 43.266 740.459 43.266C741.775 43.266 742.671 44.456 742.671 46.206C742.671 47.956 741.775 49.118 740.459 49.118ZM749.341 50.182C751.091 50.182 752.645 48.684 752.645 46.066C752.645 43.742 751.581 42.202 749.607 42.202C748.767 42.202 747.913 42.678 747.227 43.28L747.269 41.908V38.856H745.995V50H747.017L747.129 49.216H747.185C747.843 49.818 748.641 50.182 749.341 50.182ZM749.131 49.118C748.627 49.118 747.941 48.908 747.269 48.32V44.33C747.997 43.644 748.669 43.28 749.313 43.28C750.755 43.28 751.315 44.414 751.315 46.094C751.315 47.984 750.391 49.118 749.131 49.118ZM754.649 50H755.923V42.398H754.649V50ZM755.293 40.83C755.797 40.83 756.147 40.494 756.147 39.976C756.147 39.486 755.797 39.15 755.293 39.15C754.789 39.15 754.439 39.486 754.439 39.976C754.439 40.494 754.789 40.83 755.293 40.83ZM759.849 50.182C760.199 50.182 760.409 50.14 760.591 50.07L760.409 49.09C760.269 49.118 760.213 49.118 760.143 49.118C759.947 49.118 759.779 48.964 759.779 48.572V38.856H758.505V48.488C758.505 49.566 758.897 50.182 759.849 50.182ZM765.563 50.182C766.599 50.182 767.411 49.832 768.083 49.398L767.621 48.558C767.061 48.936 766.459 49.16 765.717 49.16C764.275 49.16 763.281 48.124 763.197 46.5H768.321C768.349 46.318 768.377 46.052 768.377 45.772C768.377 43.602 767.285 42.202 765.353 42.202C763.589 42.202 761.923 43.742 761.923 46.206C761.923 48.712 763.547 50.182 765.563 50.182ZM763.183 45.576C763.337 44.092 764.289 43.224 765.367 43.224C766.557 43.224 767.257 44.05 767.257 45.576H763.183ZM775.438 52.758L776.236 52.38C775.018 50.392 774.444 48.026 774.444 45.646C774.444 43.266 775.018 40.914 776.236 38.912L775.438 38.548C774.15 40.634 773.38 42.902 773.38 45.646C773.38 48.404 774.15 50.658 775.438 52.758ZM780.7 50.182C781.61 50.182 782.408 49.692 783.01 49.104H783.052L783.164 50H784.2V38.856H782.94V41.782L782.996 43.098C782.324 42.538 781.75 42.202 780.854 42.202C779.118 42.202 777.564 43.742 777.564 46.206C777.564 48.74 778.796 50.182 780.7 50.182ZM780.98 49.118C779.636 49.118 778.88 48.026 778.88 46.192C778.88 44.456 779.846 43.28 781.078 43.28C781.708 43.28 782.282 43.504 782.94 44.078V48.068C782.296 48.768 781.68 49.118 780.98 49.118ZM788.542 50.182C789.48 50.182 790.334 49.692 791.062 49.09H791.104L791.216 50H792.266V45.324C792.266 43.448 791.482 42.202 789.634 42.202C788.416 42.202 787.338 42.748 786.638 43.196L787.142 44.078C787.744 43.672 788.542 43.266 789.424 43.266C790.67 43.266 790.992 44.204 790.992 45.184C787.758 45.548 786.316 46.374 786.316 48.026C786.316 49.398 787.268 50.182 788.542 50.182ZM788.906 49.16C788.15 49.16 787.562 48.81 787.562 47.942C787.562 46.962 788.43 46.332 790.992 46.024V48.152C790.25 48.81 789.648 49.16 788.906 49.16ZM797.284 50.182C798.194 50.182 798.992 49.692 799.594 49.104H799.636L799.748 50H800.784V38.856H799.524V41.782L799.58 43.098C798.908 42.538 798.334 42.202 797.438 42.202C795.702 42.202 794.148 43.742 794.148 46.206C794.148 48.74 795.38 50.182 797.284 50.182ZM797.564 49.118C796.22 49.118 795.464 48.026 795.464 46.192C795.464 44.456 796.43 43.28 797.662 43.28C798.292 43.28 798.866 43.504 799.524 44.078V48.068C798.88 48.768 798.264 49.118 797.564 49.118ZM806.33 50.182C808.192 50.182 809.858 48.726 809.858 46.206C809.858 43.672 808.192 42.202 806.33 42.202C804.468 42.202 802.802 43.672 802.802 46.206C802.802 48.726 804.468 50.182 806.33 50.182ZM806.33 49.118C805.014 49.118 804.132 47.956 804.132 46.206C804.132 44.456 805.014 43.266 806.33 43.266C807.646 43.266 808.542 44.456 808.542 46.206C808.542 47.956 807.646 49.118 806.33 49.118ZM2.632 70.182C2.982 70.182 3.192 70.14 3.374 70.07L3.192 69.09C3.052 69.118 2.996 69.118 2.926 69.118C2.73 69.118 2.562 68.964 2.562 68.572V58.856H1.288V68.488C1.288 69.566 1.68 70.182 2.632 70.182ZM7.03019 70.182C7.96819 70.182 8.82219 69.692 9.55019 69.09H9.59219L9.70419 70H10.7542V65.324C10.7542 63.448 9.97019 62.202 8.12219 62.202C6.90419 62.202 5.82619 62.748 5.12619 63.196L5.63019 64.078C6.23219 63.672 7.03019 63.266 7.91219 63.266C9.15819 63.266 9.48019 64.204 9.48019 65.184C6.24619 65.548 4.80419 66.374 4.80419 68.026C4.80419 69.398 5.75619 70.182 7.03019 70.182ZM7.39419 69.16C6.63819 69.16 6.05019 68.81 6.05019 67.942C6.05019 66.962 6.91819 66.332 9.48019 66.024V68.152C8.73819 68.81 8.13619 69.16 7.39419 69.16ZM15.1705 70.182C16.9625 70.182 17.9425 69.16 17.9425 67.928C17.9425 66.486 16.7245 66.038 15.6185 65.618C14.7645 65.296 13.9805 65.03 13.9805 64.302C13.9805 63.714 14.4285 63.21 15.3945 63.21C16.0665 63.21 16.5985 63.49 17.1165 63.882L17.7325 63.056C17.1445 62.594 16.3185 62.202 15.3805 62.202C13.7285 62.202 12.7485 63.154 12.7485 64.358C12.7485 65.646 13.9105 66.164 14.9745 66.556C15.8145 66.878 16.7105 67.214 16.7105 67.998C16.7105 68.656 16.2205 69.188 15.2125 69.188C14.3025 69.188 13.6165 68.824 12.9585 68.292L12.3285 69.132C13.0565 69.734 14.0925 70.182 15.1705 70.182ZM22.8622 70H24.1362V64.484C24.9062 63.714 25.4382 63.322 26.2222 63.322C27.2302 63.322 27.6642 63.924 27.6642 65.352V70H28.9382V65.184C28.9382 63.238 28.2102 62.202 26.6142 62.202C25.5782 62.202 24.7942 62.776 24.0662 63.49H24.0242L23.9122 62.398H22.8622V70ZM34.4868 70.182C35.5228 70.182 36.3348 69.832 37.0068 69.398L36.5448 68.558C35.9848 68.936 35.3828 69.16 34.6408 69.16C33.1988 69.16 32.2048 68.124 32.1208 66.5H37.2448C37.2728 66.318 37.3008 66.052 37.3008 65.772C37.3008 63.602 36.2088 62.202 34.2768 62.202C32.5128 62.202 30.8468 63.742 30.8468 66.206C30.8468 68.712 32.4708 70.182 34.4868 70.182ZM32.1068 65.576C32.2608 64.092 33.2128 63.224 34.2908 63.224C35.4808 63.224 36.1808 64.05 36.1808 65.576H32.1068ZM42.1688 70.182C43.0788 70.182 43.9468 69.832 44.6328 69.216L44.0728 68.362C43.5968 68.796 42.9808 69.118 42.2808 69.118C40.8808 69.118 39.9288 67.956 39.9288 66.206C39.9288 64.456 40.9368 63.266 42.3228 63.266C42.9248 63.266 43.3868 63.546 43.8348 63.938L44.4928 63.098C43.9468 62.622 43.2608 62.202 42.2668 62.202C40.3208 62.202 38.5988 63.672 38.5988 66.206C38.5988 68.726 40.1528 70.182 42.1688 70.182ZM49.02 70.182C50.056 70.182 50.868 69.832 51.54 69.398L51.078 68.558C50.518 68.936 49.916 69.16 49.174 69.16C47.732 69.16 46.738 68.124 46.654 66.5H51.778C51.806 66.318 51.834 66.052 51.834 65.772C51.834 63.602 50.742 62.202 48.81 62.202C47.046 62.202 45.38 63.742 45.38 66.206C45.38 68.712 47.004 70.182 49.02 70.182ZM46.64 65.576C46.794 64.092 47.746 63.224 48.824 63.224C50.014 63.224 50.714 64.05 50.714 65.576H46.64ZM55.694 70.182C57.486 70.182 58.466 69.16 58.466 67.928C58.466 66.486 57.248 66.038 56.142 65.618C55.288 65.296 54.504 65.03 54.504 64.302C54.504 63.714 54.952 63.21 55.918 63.21C56.59 63.21 57.122 63.49 57.64 63.882L58.256 63.056C57.668 62.594 56.842 62.202 55.904 62.202C54.252 62.202 53.272 63.154 53.272 64.358C53.272 65.646 54.434 66.164 55.498 66.556C56.338 66.878 57.234 67.214 57.234 67.998C57.234 68.656 56.744 69.188 55.736 69.188C54.826 69.188 54.14 68.824 53.482 68.292L52.852 69.132C53.58 69.734 54.616 70.182 55.694 70.182ZM60.2548 70H61.5288V62.398H60.2548V70ZM60.8988 60.83C61.4028 60.83 61.7528 60.494 61.7528 59.976C61.7528 59.486 61.4028 59.15 60.8988 59.15C60.3948 59.15 60.0448 59.486 60.0448 59.976C60.0448 60.494 60.3948 60.83 60.8988 60.83ZM66.7003 70.182C67.6103 70.182 68.4083 69.692 69.0103 69.104H69.0523L69.1643 70H70.2003V58.856H68.9403V61.782L68.9963 63.098C68.3243 62.538 67.7503 62.202 66.8543 62.202C65.1183 62.202 63.5643 63.742 63.5643 66.206C63.5643 68.74 64.7963 70.182 66.7003 70.182ZM66.9803 69.118C65.6363 69.118 64.8803 68.026 64.8803 66.192C64.8803 64.456 65.8463 63.28 67.0783 63.28C67.7083 63.28 68.2823 63.504 68.9403 64.078V68.068C68.2963 68.768 67.6803 69.118 66.9803 69.118ZM74.5419 70.182C75.4799 70.182 76.3339 69.692 77.0619 69.09H77.1039L77.2159 70H78.2659V65.324C78.2659 63.448 77.4819 62.202 75.6339 62.202C74.4159 62.202 73.3379 62.748 72.6379 63.196L73.1419 64.078C73.7439 63.672 74.5419 63.266 75.4239 63.266C76.6699 63.266 76.9919 64.204 76.9919 65.184C73.7579 65.548 72.3159 66.374 72.3159 68.026C72.3159 69.398 73.2679 70.182 74.5419 70.182ZM74.9059 69.16C74.1499 69.16 73.5619 68.81 73.5619 67.942C73.5619 66.962 74.4299 66.332 76.9919 66.024V68.152C76.2499 68.81 75.6479 69.16 74.9059 69.16ZM83.2843 70.182C84.1943 70.182 84.9923 69.692 85.5943 69.104H85.6363L85.7483 70H86.7843V58.856H85.5243V61.782L85.5803 63.098C84.9083 62.538 84.3343 62.202 83.4383 62.202C81.7023 62.202 80.1483 63.742 80.1483 66.206C80.1483 68.74 81.3803 70.182 83.2843 70.182ZM83.5643 69.118C82.2203 69.118 81.4642 68.026 81.4642 66.192C81.4642 64.456 82.4303 63.28 83.6623 63.28C84.2923 63.28 84.8663 63.504 85.5243 64.078V68.068C84.8803 68.768 84.2643 69.118 83.5643 69.118ZM92.4419 70.182C93.4779 70.182 94.2899 69.832 94.9619 69.398L94.4999 68.558C93.9399 68.936 93.3379 69.16 92.5959 69.16C91.1539 69.16 90.1599 68.124 90.0759 66.5H95.1999C95.2279 66.318 95.2559 66.052 95.2559 65.772C95.2559 63.602 94.1639 62.202 92.2319 62.202C90.4679 62.202 88.8019 63.742 88.8019 66.206C88.8019 68.712 90.4259 70.182 92.4419 70.182ZM90.0619 65.576C90.2159 64.092 91.1679 63.224 92.2459 63.224C93.4359 63.224 94.1359 64.05 94.1359 65.576H90.0619ZM99.1158 70.182C100.908 70.182 101.888 69.16 101.888 67.928C101.888 66.486 100.67 66.038 99.5638 65.618C98.7098 65.296 97.9258 65.03 97.9258 64.302C97.9258 63.714 98.3738 63.21 99.3398 63.21C100.012 63.21 100.544 63.49 101.062 63.882L101.678 63.056C101.09 62.594 100.264 62.202 99.3258 62.202C97.6738 62.202 96.6938 63.154 96.6938 64.358C96.6938 65.646 97.8558 66.164 98.9198 66.556C99.7598 66.878 100.656 67.214 100.656 67.998C100.656 68.656 100.166 69.188 99.1578 69.188C98.2478 69.188 97.5618 68.824 96.9038 68.292L96.2738 69.132C97.0018 69.734 98.0378 70.182 99.1158 70.182ZM109.762 70.182C111.624 70.182 113.29 68.726 113.29 66.206C113.29 63.672 111.624 62.202 109.762 62.202C107.9 62.202 106.234 63.672 106.234 66.206C106.234 68.726 107.9 70.182 109.762 70.182ZM109.762 69.118C108.446 69.118 107.564 67.956 107.564 66.206C107.564 64.456 108.446 63.266 109.762 63.266C111.078 63.266 111.974 64.456 111.974 66.206C111.974 67.956 111.078 69.118 109.762 69.118ZM118.644 70.182C120.394 70.182 121.948 68.684 121.948 66.066C121.948 63.742 120.884 62.202 118.91 62.202C118.07 62.202 117.216 62.678 116.53 63.28L116.572 61.908V58.856H115.298V70H116.32L116.432 69.216H116.488C117.146 69.818 117.944 70.182 118.644 70.182ZM118.434 69.118C117.93 69.118 117.244 68.908 116.572 68.32V64.33C117.3 63.644 117.972 63.28 118.616 63.28C120.058 63.28 120.618 64.414 120.618 66.094C120.618 67.984 119.694 69.118 118.434 69.118ZM125.94 70.182C127.732 70.182 128.712 69.16 128.712 67.928C128.712 66.486 127.494 66.038 126.388 65.618C125.534 65.296 124.75 65.03 124.75 64.302C124.75 63.714 125.198 63.21 126.164 63.21C126.836 63.21 127.368 63.49 127.886 63.882L128.502 63.056C127.914 62.594 127.088 62.202 126.15 62.202C124.498 62.202 123.518 63.154 123.518 64.358C123.518 65.646 124.68 66.164 125.744 66.556C126.584 66.878 127.48 67.214 127.48 67.998C127.48 68.656 126.99 69.188 125.982 69.188C125.072 69.188 124.386 68.824 123.728 68.292L123.098 69.132C123.826 69.734 124.862 70.182 125.94 70.182ZM133.567 70.182C134.603 70.182 135.415 69.832 136.087 69.398L135.625 68.558C135.065 68.936 134.463 69.16 133.721 69.16C132.279 69.16 131.285 68.124 131.201 66.5H136.325C136.353 66.318 136.381 66.052 136.381 65.772C136.381 63.602 135.289 62.202 133.357 62.202C131.593 62.202 129.927 63.742 129.927 66.206C129.927 68.712 131.551 70.182 133.567 70.182ZM131.187 65.576C131.341 64.092 132.293 63.224 133.371 63.224C134.561 63.224 135.261 64.05 135.261 65.576H131.187ZM138.253 70H139.527V65.114C140.031 63.812 140.815 63.364 141.445 63.364C141.753 63.364 141.935 63.392 142.187 63.49L142.425 62.37C142.187 62.244 141.949 62.202 141.613 62.202C140.759 62.202 139.989 62.818 139.457 63.784H139.415L139.303 62.398H138.253V70ZM145.729 70H147.213L149.915 62.398H148.655L147.213 66.724C146.989 67.466 146.751 68.25 146.513 68.964H146.457C146.219 68.25 145.981 67.466 145.743 66.724L144.315 62.398H142.985L145.729 70ZM152.827 70.182C153.765 70.182 154.619 69.692 155.347 69.09H155.389L155.501 70H156.551V65.324C156.551 63.448 155.767 62.202 153.919 62.202C152.701 62.202 151.623 62.748 150.923 63.196L151.427 64.078C152.029 63.672 152.827 63.266 153.709 63.266C154.955 63.266 155.277 64.204 155.277 65.184C152.043 65.548 150.601 66.374 150.601 68.026C150.601 69.398 151.553 70.182 152.827 70.182ZM153.191 69.16C152.435 69.16 151.847 68.81 151.847 67.942C151.847 66.962 152.715 66.332 155.277 66.024V68.152C154.535 68.81 153.933 69.16 153.191 69.16ZM161.569 70.182C162.479 70.182 163.277 69.692 163.879 69.104H163.921L164.033 70H165.069V58.856H163.809V61.782L163.865 63.098C163.193 62.538 162.619 62.202 161.723 62.202C159.987 62.202 158.433 63.742 158.433 66.206C158.433 68.74 159.665 70.182 161.569 70.182ZM161.849 69.118C160.505 69.118 159.749 68.026 159.749 66.192C159.749 64.456 160.715 63.28 161.947 63.28C162.577 63.28 163.151 63.504 163.809 64.078V68.068C163.165 68.768 162.549 69.118 161.849 69.118ZM169.411 70.182C170.349 70.182 171.203 69.692 171.931 69.09H171.973L172.085 70H173.135V65.324C173.135 63.448 172.351 62.202 170.503 62.202C169.285 62.202 168.207 62.748 167.507 63.196L168.011 64.078C168.613 63.672 169.411 63.266 170.293 63.266C171.539 63.266 171.861 64.204 171.861 65.184C168.627 65.548 167.185 66.374 167.185 68.026C167.185 69.398 168.137 70.182 169.411 70.182ZM169.775 69.16C169.019 69.16 168.431 68.81 168.431 67.942C168.431 66.962 169.299 66.332 171.861 66.024V68.152C171.119 68.81 170.517 69.16 169.775 69.16ZM177.551 70.182C179.343 70.182 180.323 69.16 180.323 67.928C180.323 66.486 179.105 66.038 177.999 65.618C177.145 65.296 176.361 65.03 176.361 64.302C176.361 63.714 176.809 63.21 177.775 63.21C178.447 63.21 178.979 63.49 179.497 63.882L180.113 63.056C179.525 62.594 178.699 62.202 177.761 62.202C176.109 62.202 175.129 63.154 175.129 64.358C175.129 65.646 176.291 66.164 177.355 66.556C178.195 66.878 179.091 67.214 179.091 67.998C179.091 68.656 178.601 69.188 177.593 69.188C176.683 69.188 175.997 68.824 175.339 68.292L174.709 69.132C175.437 69.734 176.473 70.182 177.551 70.182ZM182.21 72.758C183.512 70.658 184.282 68.404 184.282 65.646C184.282 62.902 183.512 60.634 182.21 58.548L181.426 58.912C182.63 60.914 183.218 63.266 183.218 65.646C183.218 68.026 182.63 70.392 181.426 72.38L182.21 72.758Z" fill="#484545"/>
<path d="M2.456 18H4.824V6.144H2.456V18ZM11.3623 18H14.7383C18.2263 18 20.4663 16.016 20.4663 12.032C20.4663 8.032 18.2263 6.144 14.6102 6.144H11.3623V18ZM13.7303 16.096V8.048H14.4663C16.6743 8.048 18.0503 9.136 18.0503 12.032C18.0503 14.912 16.6743 16.096 14.4663 16.096H13.7303ZM26.4091 18H33.8491V16.016H28.7771V12.848H32.9371V10.864H28.7771V8.128H33.6731V6.144H26.4091V18ZM42.4539 11.824C42.8059 10.592 43.1579 9.248 43.4619 7.952H43.5419C43.8779 9.232 44.1979 10.592 44.5659 11.824L44.9179 13.12H42.1019L42.4539 11.824ZM38.3579 18H40.7579L41.5899 14.96H45.4299L46.2619 18H48.7419L44.9339 6.144H42.1499L38.3579 18ZM58.5849 18.224C60.1209 18.224 61.3849 17.616 62.3609 16.48L61.1129 15.008C60.4729 15.696 59.6889 16.176 58.6649 16.176C56.7929 16.176 55.5769 14.624 55.5769 12.048C55.5769 9.504 56.9209 7.968 58.7129 7.968C59.6089 7.968 60.2969 8.384 60.9049 8.96L62.1369 7.456C61.3689 6.656 60.1689 5.936 58.6649 5.936C55.6729 5.936 53.1609 8.224 53.1609 12.128C53.1609 16.08 55.5929 18.224 58.5849 18.224ZM67.8935 18H70.2615V6.144H67.8935V18ZM81.5038 18.224C84.6398 18.224 86.7998 15.872 86.7998 12.032C86.7998 8.192 84.6398 5.936 81.5038 5.936C78.3678 5.936 76.2078 8.176 76.2078 12.032C76.2078 15.872 78.3678 18.224 81.5038 18.224ZM81.5038 16.176C79.7438 16.176 78.6238 14.56 78.6238 12.032C78.6238 9.488 79.7438 7.968 81.5038 7.968C83.2638 7.968 84.3837 9.488 84.3837 12.032C84.3837 14.56 83.2638 16.176 81.5038 16.176ZM81.2798 5.568L84.4638 3.44L83.1998 1.904L80.2398 4.384L81.2798 5.568ZM92.7373 18H94.9773V13.248C94.9773 11.888 94.8013 10.4 94.6893 9.12H94.7693L95.9693 11.664L99.3933 18H101.793V6.144H99.5533V10.88C99.5533 12.224 99.7453 13.792 99.8573 15.024H99.7773L98.5933 12.464L95.1533 6.144H92.7373V18Z" fill="#262626"/>
</svg>
