<svg width="734" height="211" viewBox="0 0 734 211" fill="none" xmlns="http://www.w3.org/2000/svg">
<path d="M71.2 105.765H68.2V108.765V158H29.7V91.3529V88.3529H26.7H7.94772L89 16.9969L170.052 88.3529H151.3H148.3V91.3529V158H109.8V108.765V105.765H106.8H71.2Z" stroke="black" stroke-width="6"/>
<path d="M160 77L172 89.5" stroke="black"/>
<path d="M69.1202 89.3304C75.6356 88.3738 82.0604 87.4833 88.5279 86.3407C90.577 85.9787 92.6198 85.5877 94.6395 85.1297C97.4529 84.4917 98.4034 84.2191 95.176 84.2025C88.883 84.1702 82.553 84.4772 76.2581 84.5621C68.9323 84.6609 75.3212 85.0807 77.5411 85.2054C84.0341 85.5702 103.558 85.0218 97.0655 85.3946C90.9653 85.745 84.8498 85.9195 78.7541 86.3218C76.6588 86.4601 74.554 86.5588 72.4792 86.8327C71.4293 86.9713 67.8247 87.4931 71.2662 88.2329C78.3755 89.7613 100.548 89.5737 93.2166 90.0495C87.1133 90.4455 80.981 90.4925 74.9052 91.1848C67.5891 92.0184 71.2846 92.7774 76.2115 93.2851C85.4218 94.2343 94.6979 94.7656 103.923 95.6126C104.929 95.7048 106.014 95.5903 106.933 95.9342C109.832 97.0196 100.558 95.6183 97.3687 95.499C89.4402 95.2025 81.4836 95.0281 73.5522 95.3855C72.8175 95.4186 72.0009 95.301 71.3595 95.5936C69.4246 96.4765 75.7915 95.8092 78.0076 95.9153C85.9029 96.2934 109.436 98.7239 101.637 97.6561C88.7782 95.8955 49.8313 93.1504 62.6354 95.1584C69.9066 96.2988 77.4029 96.8981 84.749 97.6372C96.4673 98.8162 82.9374 96.7474 82.6963 96.71C74.5778 95.4527 66.1927 94.9816 58.1333 93.5501C53.6579 92.7551 67.2447 92.6131 71.826 92.585C78.3997 92.5447 83.2329 92.6868 89.6942 93.0013C91.2593 93.0775 92.8202 93.201 94.3829 93.3041C96.3327 93.4327 96.4065 93.4946 92.1435 93.077C84.7416 92.3518 77.3423 91.5765 69.9599 90.7307C68.3713 90.5486 66.7786 90.3821 65.2013 90.1441C61.4302 89.575 67.1446 89.7836 67.2074 89.7846C78.9779 89.9582 114.238 91.5847 102.501 90.8442C96.2921 90.4525 90.0328 90.4061 83.8159 90.1252C79.2442 89.9185 65.5969 88.8468 70.0999 89.5196C82.5679 91.3827 95.5888 92.5517 108.216 93.4554C125.295 94.6779 74.063 90.8904 56.9437 90.1252C55.056 90.0408 53.1583 89.838 51.2753 89.9738C47.8667 90.2196 57.9976 91.0513 61.399 91.3551C71.6396 92.2696 82.0412 93.0083 92.3535 92.5093C93.562 92.4509 94.8048 92.4026 95.9458 92.0741C98.3844 91.3722 90.83 91.3985 88.248 91.2605C73.7758 90.4871 59.3121 89.7348 44.8605 88.7249C34.9548 88.0327 38.7478 88.2662 42.2945 88.4222C56.0116 89.0255 69.6781 89.3739 83.4194 89.2169C87.285 89.1727 91.1497 89.0738 95.0127 88.952C97.2145 88.8826 103.742 88.8099 101.591 88.4222C94.6444 87.17 86.746 87.1737 79.7104 86.6435C74.3717 86.2411 58.3567 85.5847 63.7084 85.3189C75.6349 84.7266 88.3167 85.3663 100.168 85.8677C109.315 86.2547 136.545 88.6751 127.39 88.9141C115.081 89.2355 102.356 87.088 90.1374 86.1515C85.4638 85.7933 79.7504 85.4241 74.8585 85.2054C71.2465 85.0439 82.0702 85.6853 85.6821 85.8488C88.7526 85.9877 91.8245 86.1047 94.8961 86.2272C97.5162 86.3317 100.138 86.4039 102.757 86.53C103.677 86.5742 106.285 86.3339 105.51 86.7381C104.554 87.2366 103.241 86.8706 102.104 86.8706C93.9766 86.8706 84.9057 86.5888 76.9112 86.1894C71.6107 85.9245 66.316 85.5828 61.0258 85.2054C56.7668 84.9016 52.5179 84.5105 48.2661 84.1458C46.7095 84.0122 44.9599 83.0806 43.6008 83.7106C42.3278 84.3007 46.4905 84.1157 47.9396 84.2972C57.3684 85.4777 69.4662 86.9222 78.6841 87.8923C84.1434 88.4669 89.6105 88.9944 95.0827 89.4818C99.7824 89.9004 113.671 91.7178 109.219 90.4279C107.882 90.0406 106.406 90.1089 104.997 89.9738C83.7987 87.9428 105.696 90.1765 81.0634 87.741C75.7218 87.2128 64.799 86.0833 58.9031 85.3946C58.106 85.3015 55.7186 85.0696 56.5238 85.054C61.8809 84.9506 67.1946 85.864 72.5258 86.3029C88.5526 87.6224 104.594 88.9129 120.579 90.5414C122.474 90.7345 124.399 90.8324 126.247 91.2226C129.849 91.9832 118.807 90.9728 115.097 90.7307C104.983 90.0706 94.7536 89.5084 84.7023 88.3465C78.8669 87.6719 96.5076 88.162 102.384 88.5357C117.971 89.527 133.414 91.9494 148.991 92.8121C158.9 93.3609 129.452 89.8077 119.576 88.952C111.798 88.2782 91.6627 86.8344 82.8829 86.1894C82.2309 86.1415 64.8229 84.8116 79.6171 86.4164C90.7123 87.62 101.865 88.3825 113.044 88.8195C114.762 88.8867 132.485 89.468 114.467 88.2708C99.7768 87.2947 85.086 86.3707 70.4031 85.3189C52.9247 84.0669 71.9808 85.901 72.2459 85.9245C87.8398 87.3058 134.919 88.2711 119.272 87.3625C112.016 86.9412 104.742 86.7509 97.4853 86.3407C86.2515 85.7058 74.2583 85.5053 63.1719 83.6538C62.7354 83.5809 64.056 83.5319 64.5015 83.5403C91.0154 84.0383 52.3663 83.7994 90.0675 84.1458C105.638 84.2888 121.219 84.1836 136.791 84.1836C137.903 84.1836 140.309 85.0355 140.126 84.1458C139.939 83.232 137.859 83.9135 136.721 83.843C134.188 83.6864 131.654 83.5462 129.116 83.4646C117.835 83.1017 106.532 83.1074 95.246 82.8969C79.6262 82.6056 97.3959 83.5146 97.7653 83.5403C109.416 84.3487 121.026 85.1312 132.592 86.5678C136.519 87.0556 140.095 87.4619 135.391 87.249C122.338 86.6582 109.285 86.2345 96.2257 85.7352C88.9812 85.4582 67.2795 84.1838 74.5086 84.6567C89.0752 85.6096 103.614 86.623 118.106 88.1951C127.17 89.1783 154.244 92.7739 145.212 91.62C132.041 89.9375 118.699 89.3894 105.416 88.6114C99.3903 88.2584 93.3625 87.9243 87.3383 87.5518C82.9587 87.2809 78.5844 86.9572 74.2054 86.6813C72.877 86.5977 69.9275 85.4181 70.2165 86.4732C70.5157 87.5654 72.9314 86.8744 74.2987 87.0219C82.3256 87.8881 90.4826 88.6065 98.5584 89.0277C105.141 89.3709 113.25 89.5789 120.019 89.4061C120.563 89.3922 122.167 89.244 121.628 89.1791C115.683 88.4621 109.615 88.7831 103.62 88.4222C84.1974 87.2526 64.8966 85.2652 45.6069 83.124C43.9792 82.9433 39.0951 82.4203 40.7316 82.5374C49.5725 83.1702 58.3517 84.2902 67.184 84.9973C74.121 85.5526 81.0628 86.078 88.0147 86.4921C90.4678 86.6382 108.169 87.6475 113.487 87.1733C117.902 86.7797 105.013 84.9658 100.658 84.2593C98.4776 83.9056 96.2976 83.5498 94.1263 83.1618C92.3427 82.8431 87.0853 82.3188 88.8545 81.9508C89.8337 81.7471 90.8771 81.9506 91.8869 81.9887C94.314 82.0802 108.165 82.8119 109.079 82.8591C110.708 82.9432 123.927 83.6285 126.784 83.7484C127.933 83.7967 129.094 83.9607 130.236 83.843C133.274 83.5301 124.144 83.3236 121.092 83.124C99.8836 81.7369 78.7519 80.0505 57.6201 78.015C50.4067 77.3202 43.2033 76.5581 35.9963 75.8201C33.1028 75.5237 30.2191 75.1609 27.3188 74.9118C25.7398 74.7762 30.458 75.3025 32.0308 75.4795C50.861 77.5986 69.7255 79.4944 88.5746 81.4967C92.5892 81.9231 96.6093 82.3218 100.611 82.8212C103.014 83.1211 95.7479 82.6703 93.3332 82.4428C78.7695 81.0705 64.2565 79.3489 49.7357 77.7123C46.9289 77.3959 44.1134 77.1273 41.3148 76.7662C36.1555 76.1004 51.7046 77.6618 56.897 78.1286C70.2054 79.3249 86.2818 80.7792 99.6314 81.8373C103.811 82.1685 107.992 82.4952 112.181 82.7266C113.019 82.7729 115.506 82.8619 114.7 82.6699C112.674 82.1871 110.537 82.0902 108.449 81.8373C98.0821 80.5818 87.6612 79.4097 77.2378 78.507C75.9901 78.3989 74.6768 77.9874 73.4822 78.2989C72.6759 78.5091 75.1001 78.7163 75.9315 78.8476C78.9366 79.3223 81.9598 79.7199 84.9823 80.1154C96.0629 81.5651 107.39 82.3886 118.386 84.2215C125.378 85.3869 104.108 83.8844 96.9955 83.3889C83.5357 82.4511 70.1178 81.1806 56.6637 80.21C49.334 79.6812 71.2123 82.0306 78.5208 82.7266C96.9439 84.4812 96.0279 84.257 113.417 85.6595C135.446 87.4362 111.816 86.156 111.155 86.1137C101.424 85.491 91.8055 84.3977 82.1364 83.37C78.5024 82.9837 89.3436 84.457 92.96 84.9405C94.8872 85.1982 96.8157 85.4498 98.745 85.6974C102.445 86.1721 101.605 86.0383 98.9782 85.6974C91.5355 84.7314 84.0821 83.821 76.6313 82.8969C74.9127 82.6838 73.1922 82.4802 71.4761 82.2536C71.1856 82.2152 70.3201 82.0787 70.6131 82.1022C72.0863 82.2201 73.553 82.3873 75.0218 82.5374C82.6303 83.3148 90.3006 83.9896 97.8586 85.054C111.848 87.0242 69.5959 82.7345 55.5441 81.0804C53.9399 80.8916 52.3339 80.7085 50.7388 80.4749C48.0718 80.0843 56.1205 80.9977 58.8098 81.2696C68.3026 82.2296 77.8016 83.1486 87.2916 84.1269C87.8283 84.1822 89.4358 84.3643 88.9011 84.2972C83.7742 83.6528 78.6372 83.0621 73.5056 82.4428C62.2013 81.0786 50.2687 80.3963 39.1454 78.1853C33.4737 77.058 50.8326 77.8363 56.6637 78.0907C67.1335 78.5476 77.5439 79.4138 87.9914 80.0775C97.7157 80.6953 68.6547 77.7441 59.2297 75.7065C48.732 73.4371 80.9678 76.0653 91.7936 76.804C107.89 77.9024 156.153 81.3906 140.033 80.5506C129.818 80.0183 119.632 79.1683 109.429 78.507C85.8239 76.9772 111.788 78.8787 112.181 78.9044C115.445 79.1175 118.713 79.2944 121.978 79.4909C126.761 79.7788 129.249 79.9039 119.972 79.5288C102.546 78.8242 85.1127 78.0829 67.7206 76.9365C63.67 76.6695 56.8375 76.0086 67.6039 76.7662C83.6959 77.8985 99.7722 79.2936 115.82 80.7776C138.585 82.8828 119.798 81.0651 119.972 81.7238C120.29 82.925 143 84.1647 143.999 84.2593C145.446 84.3964 149.72 84.3207 148.337 84.6945C146.827 85.1028 145.163 84.4935 143.579 84.3728C139.86 84.0898 136.144 83.7904 132.429 83.4835C128.508 83.1597 124.589 82.8255 120.672 82.4806C117.926 82.2389 115.182 81.9813 112.438 81.7238C111.418 81.6281 110.262 81.8493 109.382 81.421C108.537 81.0099 111.341 81.5853 112.321 81.667C118.918 82.2172 121.629 82.4633 128.603 82.9348C131.307 83.1176 134.012 83.2943 136.721 83.4267C137.497 83.4647 139.818 83.5608 139.053 83.4457C137.207 83.1675 135.323 83.0909 133.455 82.9348C109.148 80.9035 36.3855 73.6653 60.6293 76.1417C80.8993 78.2123 101.134 80.4999 121.418 82.4806C125.939 82.9221 130.461 83.3665 134.995 83.7106C138.329 83.9636 128.42 82.6574 125.104 82.2725C110.477 80.5746 95.8195 79.0539 81.2034 77.296C80.1892 77.174 77.148 76.8244 78.1709 76.8797C85.0245 77.2503 91.8045 78.2488 98.6283 78.8854C114.215 80.3395 129.942 81.9651 145.631 82.5185C155.665 82.8724 125.756 80.1398 115.773 79.245C97.9473 77.6471 90.2198 77.0485 72.8058 75.8579C72.6633 75.8482 40.4167 73.8396 71.826 75.6687C88.9469 76.6657 106.091 78.1965 123.238 78.8476C131.196 79.1497 107.468 76.9674 99.5381 76.3499C87.8524 75.4399 75.2936 75.7136 63.7084 74.0792C63.1492 74.0003 64.8211 73.876 65.3879 73.8522C67.731 73.7535 82.7606 73.4951 84.0492 73.4737C87.0349 73.4242 90.0209 73.391 93.0066 73.3413C94.5619 73.3153 96.1206 73.3399 97.6719 73.2467C98.3857 73.2038 96.2416 73.1925 95.5259 73.1899C85.6124 73.1533 75.6656 73.2288 65.7611 73.5873C46.9409 74.2683 103.424 74.4716 122.258 74.7983C123.617 74.8218 148.043 75.4652 124.917 74.382C110.738 73.7178 96.5425 73.2454 82.3697 72.4898C65.7876 71.6057 148.648 76.2356 132.032 76.0282C118.629 75.8609 105.121 74.4085 91.747 73.7386C87.7137 73.5366 83.6783 73.3565 79.6405 73.2277C71.9513 72.9824 75.3165 73.3025 80.4802 73.8143C133.5 79.0697 43.2172 69.8983 112.251 76.8608C117.751 77.4155 123.247 77.9985 128.743 78.5827C131.14 78.8374 133.536 79.0966 135.928 79.3774C137.138 79.5195 133.501 79.1263 132.289 78.999C118.815 77.5842 105.344 76.1827 91.8403 74.9686C89.5402 74.7618 87.2416 74.5397 84.9356 74.382C81.7228 74.1622 91.3084 75.1812 94.4995 75.5552C107.782 77.1114 121.048 78.8167 134.365 80.1721C135.131 80.2501 137.434 80.437 136.674 80.3235C132.818 79.7474 118.016 78.2518 116.753 78.1286C103.968 76.8808 91.1319 75.658 78.2642 75.1199C67.8261 74.6835 99.1354 76.0682 109.569 76.5769C117.19 76.9486 124.8 78.0111 132.429 77.7501C133.743 77.7052 129.839 77.3698 128.533 77.2392C118.199 76.2057 107.39 75.3808 97.0655 74.6847C87.7717 74.0581 59.8435 73.1587 69.1668 72.9817C81.6394 72.7451 94.1538 73.1149 106.629 73.0953C109.849 73.0902 113.07 73.1175 116.287 73.0196C116.606 73.0099 117.514 72.8029 117.196 72.7736C114.852 72.5575 112.487 72.5207 110.128 72.4519C96.0921 72.0425 82.0422 72.0109 68.0005 71.8086C66.103 71.7812 64.1845 71.9291 62.3088 71.695C57.2823 71.0678 72.4791 71.5903 77.5644 71.5437C82.1288 71.5018 86.6935 71.4694 91.2571 71.3923C94.9047 71.3307 98.555 71.298 102.197 71.1274C103.676 71.0581 105.325 71.2762 106.606 70.6733C107.247 70.3718 105.26 70.1318 104.53 70.0299C101.899 69.6626 99.2331 69.4794 96.5756 69.273C93.0583 68.9999 89.5329 68.798 86.0086 68.5918C82.1197 68.3643 70.4871 68.3288 74.3453 67.8728C76.4391 67.6253 78.5746 67.7509 80.6902 67.7214C88.6555 67.6106 99.5052 67.576 107.376 67.5511C110.673 67.5407 113.969 67.5322 117.266 67.5322C117.989 67.5322 120.158 67.5294 119.436 67.5511C117.874 67.598 116.31 67.5934 114.747 67.6079C105.681 67.6919 96.6129 67.6396 87.5482 67.7403C86.5989 67.7509 83.9082 67.4129 84.7023 67.8349C85.6887 68.3591 87.0479 68.0393 88.2247 68.0999C91.2163 68.2538 94.2103 68.3779 97.2054 68.4783C108.728 68.8645 120.266 69.0995 131.799 69.1784C132.631 69.1841 135.125 69.1972 134.295 69.1595C128.549 68.8985 122.787 68.9576 117.033 68.8946C113.243 68.8531 91.4663 68.6463 87.035 68.6297C85.0289 68.6222 82.9919 68.3827 81.0167 68.6675C75.6186 69.446 91.9618 69.2176 97.4387 69.4244C102.29 69.6076 107.143 69.7691 111.994 69.9542C116.307 70.1188 129.157 70.0092 124.917 70.6733C122.93 70.9845 120.876 70.8569 118.853 70.9003C110.551 71.0785 102.365 71.076 94.0563 71.0895C90.7362 71.095 87.416 71.0751 84.0958 71.0895C79.3873 71.11 80.5941 71.1575 84.0958 71.2788C90.9389 71.5158 97.9033 71.4744 104.693 72.3006C105.358 72.3814 107.087 72.356 106.629 72.7547C105.964 73.3343 104.709 73.0604 103.737 73.1331C101.503 73.3003 99.2592 73.3747 97.0188 73.4737C91.4196 73.7211 74.6167 74.1859 80.2236 74.2495C87.6572 74.3339 95.0913 74.095 102.524 73.9657C110.452 73.8278 133.968 73.6812 126.224 72.3006C113.649 70.0589 100.181 69.7479 87.3849 68.9324C84.5638 68.7527 81.7394 68.61 78.9173 68.4404C78.5902 68.4208 77.6099 68.3533 77.9376 68.3648C79.7113 68.4266 81.4838 68.5083 83.2561 68.5918C93.289 69.0648 103.315 69.6269 113.347 70.1056C114.265 70.1494 117.019 70.2191 116.1 70.2191C76.3443 70.2191 179.818 69.7253 102.85 70.0299C99.4442 70.0434 96.0377 70.0878 92.6334 70.1813C90.0651 70.2518 87.4939 70.3256 84.9356 70.5219C84.1958 70.5786 82.2185 70.5309 82.7662 70.9382C83.5842 71.5464 84.9497 71.278 86.0553 71.3544C90.2566 71.6451 98.165 71.8464 102.244 71.8464C104.383 71.8464 106.524 71.8093 108.659 71.695C109.593 71.6451 111.99 71.9656 111.435 71.3544C110.75 70.6011 109.157 71.0342 108.006 70.976C100.642 70.604 87.1488 70.5349 80.9234 70.503C74.2988 70.469 67.6736 70.4361 61.0491 70.484C55.4809 70.5244 49.9106 70.5724 44.3473 70.7679C41.2913 70.8753 38.1237 70.6547 35.2032 71.3923C34.2391 71.6358 36.9827 72.2435 37.9791 72.3762C46.1543 73.4653 63.4086 74.1787 70.4498 74.4577C76.0995 74.6815 81.7529 74.8606 87.4082 74.9496C89.7642 74.9868 92.1703 75.2299 94.4762 74.8361C95.642 74.637 92.1409 74.427 90.9539 74.3441C79.7574 73.5624 68.4552 73.3981 57.2236 73.5494C55.7451 73.5693 54.2364 73.446 52.7915 73.7008C47.4085 74.6501 63.804 73.4171 69.3068 73.2088C86.1167 72.5725 103.963 72.9997 120.579 70.5408C135.004 68.4061 91.4334 67.1809 76.7713 67.3051C75.4961 67.3159 71.7804 67.7631 72.9457 67.343C74.3725 66.8286 76.0545 67.1017 77.611 67.0024C81.2953 66.7674 84.9819 66.5563 88.6679 66.3401C94.5642 65.9942 112.261 65.1825 106.349 65.2237C95.8021 65.2972 85.2355 65.5488 74.6952 65.8481C71.6695 65.9341 68.6428 66.0163 65.6212 66.1698C65.163 66.1931 63.8094 66.3665 64.2682 66.3779C66.7398 66.4396 69.2138 66.3607 71.6861 66.3212C85.8631 66.0947 100.029 65.7351 114.211 65.6967C115.198 65.6941 118.16 65.7295 117.173 65.7157C113.457 65.6637 102.891 65.5917 100.751 65.6021C93.5888 65.6371 85.5237 65.7496 78.3108 66.1698C77.3928 66.2233 74.671 66.4014 75.5816 66.5104C81.5992 67.2306 87.7458 66.3217 93.823 66.113C102.23 65.8244 127.454 65.1066 119.039 65.148C106.584 65.2092 94.0839 65.8918 81.6466 66.3023C75.8387 66.4939 70.0294 66.6572 64.2216 66.851C60.2911 66.9822 48.5942 67.1145 52.4649 67.6836C66.2401 69.7089 81.405 68.953 95.2926 68.9703C127.063 69.0098 96.3309 69.0444 95.0127 69.046C88.4812 69.0537 81.9495 69.0283 75.4183 68.9703C65.7688 68.8846 56.0882 68.0504 46.47 68.6864C41.3791 69.0231 56.5489 70.0795 61.6323 70.484C74.9849 71.5465 89.5888 73.4821 103.084 72.8682C103.987 72.8271 101.322 72.523 100.424 72.433C96.5219 72.0416 78.148 70.6396 75.9549 70.4651C70.0317 69.9937 52.2985 68.6331 58.2499 68.5918C70.8156 68.5047 83.3743 68.8404 95.9458 68.6675C99.43 68.6196 102.914 68.559 106.396 68.4404C106.992 68.4202 108.764 68.2829 108.169 68.2512C105.686 68.1191 103.193 68.1642 100.704 68.1377C85.3818 67.9746 70.0143 68.1191 54.7043 67.5133C53.7784 67.4766 51.0297 67.2687 51.9518 67.1916C61.777 66.3697 71.6997 66.742 81.5766 66.6618C93.8941 66.5617 108.922 66.5318 121.465 66.5104C123.082 66.5076 127.934 66.5104 126.317 66.5104C118.308 66.5104 110.299 66.5104 102.291 66.5104C91.8019 66.5104 80.5813 67.1204 70.0532 66.5104C61.8232 66.0335 86.5533 66.3013 94.8028 66.1698C98.574 66.1097 102.345 66.057 106.116 65.9806C110.328 65.8952 113.582 65.8123 106.769 65.7535C94.8022 65.6502 82.8331 65.7259 70.8697 65.9806C69.1352 66.0175 67.4017 66.0811 65.6678 66.132C60.8155 66.2742 75.3727 65.8491 80.2236 65.6778C88.7673 65.3762 114.278 64.4008 105.766 63.7288C98.514 63.1563 80.9823 63.2092 74.9751 63.2369C70.0526 63.2596 65.1298 63.3252 60.2094 63.445C54.7851 63.5771 51.9327 63.8204 58.8564 63.8991C73.3646 64.0642 87.9259 64.001 102.431 63.7099C105.061 63.6571 107.717 63.7444 110.315 63.4072C114.452 62.8702 101.955 62.8569 97.7653 62.8395C94.9735 62.828 92.1787 62.8303 89.391 62.953C84.1114 63.1854 99.9677 63.0695 105.253 62.953C109.913 62.8504 114.574 62.7405 119.226 62.4989C120.049 62.4562 122.475 62.144 121.652 62.1016C118.16 61.9214 114.653 62.024 111.155 62.0826C105.997 62.1691 100.84 62.3089 95.6892 62.5368C92.0743 62.6967 81.4768 63.0956 84.9589 63.8991C91.4323 65.393 99.3782 65.0675 106.07 65.4886" stroke="#11A09A" stroke-opacity="0.3" stroke-linecap="round" stroke-linejoin="round"/>
<path d="M10.5 86L87.5 17.5L167 86" stroke="black" stroke-width="5"/>
<path d="M92.6055 50.5038C89.3003 50.6246 85.8755 50.6153 82.5774 50.8931C81.5743 50.9775 84.6087 50.8847 85.5979 50.7328C89.7979 50.088 79.4924 50.606 78.832 50.687C76.9097 50.9227 71.6671 51.0039 73.2139 51.9005C74.9844 52.9267 82.1356 52.5573 83.9064 52.656C86.4472 52.7976 94.0124 53.1292 91.4879 53.3887C86.6019 53.8909 81.2338 53.4588 76.5364 54.7853C75.095 55.1924 79.529 55.4395 81.0672 55.4493C83.3201 55.4637 87.6649 55.9355 89.8568 55.2432C92.2454 54.4889 84.6781 55.1168 82.0941 55.2203C80.9552 55.266 79.8183 55.338 78.681 55.4035C78.2274 55.4296 76.8669 55.4951 77.3217 55.4951C77.9272 55.4951 78.5297 55.431 79.134 55.4035C83.5752 55.2015 88.0521 55.2103 92.4847 54.9456C92.8255 54.9252 93.7773 54.8923 93.4814 54.7624C91.4431 53.8679 88.8227 54.2078 86.4739 54.0756C81.7096 53.8073 76.882 53.6708 72.1265 54.1214C68.0696 54.5057 73.4144 54.5982 73.9992 54.6251C81.8876 54.9874 58.1901 55.6265 50.4997 57.0062C39.7405 58.9365 72.6281 57.096 83.6648 56.5941C84.2944 56.5654 85.2069 56.7952 85.5375 56.388C85.7963 56.0693 84.6345 56.0632 84.1481 55.9988C82.55 55.7871 80.9334 55.6518 79.3153 55.5638C72.3816 55.1864 65.4456 55.4058 58.5342 55.9072C51.9066 56.388 58.1521 56.4352 59.8935 56.4567C70.8886 56.5926 81.8848 56.3967 92.8773 56.6857C101.928 56.9236 92.9969 56.6174 92.4242 56.5941C86.5661 56.3555 80.554 56.0686 74.7241 56.7544C70.4369 57.2586 72.919 57.8151 75.2678 58.0136C76.3833 58.1079 88.4843 58.833 88.558 58.8379C92.3529 59.088 96.3383 58.8063 99.9151 59.7995C100.343 59.9184 99.0993 60.1467 98.6465 60.1887C96.0729 60.4273 80.0576 61.0704 79.8288 61.0816C75.9303 61.2725 72.0303 61.4568 68.1394 61.7227C65.3895 61.9107 57.2837 62.3852 59.9841 62.8217C67.6663 64.0634 77.136 63.1567 84.9032 63.3025C86.6645 63.3356 95.2794 63.514 98.3444 63.6688C100.726 63.7892 97.5564 63.8961 97.5289 63.8978C96.0908 63.9843 91.767 64.1039 93.2096 64.1039C96.8889 64.1039 100.591 63.9803 104.265 63.8749C106.118 63.8218 107.975 63.818 109.822 63.6917C113.506 63.4399 111.971 63.0939 108.795 62.7301C99.1775 61.6283 89.3305 61.269 79.6173 61.5853C77.5974 61.6511 75.585 61.823 73.5763 61.9975C72.3792 62.1014 68.869 62.1665 70.0121 62.4554C72.0699 62.9753 79.3017 62.1326 80.7651 62.1119C83.0603 62.0796 85.3568 62.0494 87.6519 62.089C89.3358 62.1181 91.0221 62.1758 92.6961 62.318C93.3659 62.3749 94.7002 62.1744 94.6594 62.6843C94.5938 63.5049 73.3357 64.5434 71.8849 64.6991C69.9428 64.9076 68.0078 65.1592 66.0855 65.4547C64.2527 65.7365 61.2159 66.2266 65.1491 66.1645C74.7739 66.0125 84.4482 65.3248 94.0553 64.8823C96.4726 64.771 98.8949 64.6998 101.305 64.516C105.004 64.2338 103.96 64.0077 100.851 63.6688C93.1176 62.8259 85.2415 62.7162 77.4426 62.7301C75.8915 62.7329 74.3417 62.7956 72.791 62.8217C70.3921 62.8621 73.8963 62.6714 75.298 62.5699C82.3511 62.0591 89.4031 61.7468 96.4717 61.4022C97.5706 61.3486 98.6957 61.3986 99.7641 61.1961C101.749 60.82 95.7074 60.7419 93.6626 60.6924C83.8072 60.4536 73.8725 60.7959 64.0618 61.5395C52.2459 62.4352 87.9267 61.0372 99.5526 59.2042C100.171 59.1066 101.698 59.0296 101.305 58.6547C100.708 58.0865 99.4471 58.2785 98.4954 58.1968C96.4198 58.0185 94.3305 57.9337 92.243 57.8762C84.6367 57.667 77.0153 57.815 69.408 57.8991C68.5422 57.9087 67.6752 57.9559 66.8104 57.922C65.2936 57.8626 69.8293 57.666 71.3412 57.5557C78.3361 57.0456 85.3416 56.4762 92.3638 56.2278C93.2489 56.1964 94.4384 55.7223 95.0219 56.2278C95.5238 56.6626 93.5379 56.4961 92.7867 56.5941C91.0803 56.8167 89.3622 56.9847 87.6519 57.1894C84.3264 57.5874 80.8026 57.9859 77.503 58.5631C76.4787 58.7423 73.5507 59.1241 74.5429 59.3874C77.6194 60.2036 86.5431 58.5467 89.0111 58.3342C93.7892 57.9226 108.146 56.8456 103.358 57.1894C92.5257 57.9673 60.1819 61.2182 71.0391 60.6695C78.1978 60.3078 85.3467 59.7453 92.4847 59.2042C95.9109 58.9445 101.111 58.5322 92.8773 58.6318C85.2536 58.724 77.6718 59.186 70.0726 59.6163C70.0336 59.6185 56.4605 60.1631 65.6626 59.8911C70.9334 59.7352 76.1809 59.4876 81.4296 59.0897C84.9117 58.8258 74.4698 59.6625 70.9787 59.8453C66.7131 60.0685 62.4429 60.1759 58.1718 60.0055C55.2684 59.8897 63.9735 59.7074 66.8708 59.5247C74.9077 59.018 83.3627 58.7984 91.2462 57.3954C91.7242 57.3104 92.9015 57.1248 92.5451 56.8688C90.9317 55.7102 88.1224 56.4677 85.9 56.4567C81.7745 56.4363 77.6323 56.8436 73.5159 56.7772C67.9126 56.6869 84.4546 54.9195 89.9474 54.0756C92.022 53.7568 94.0967 53.4387 96.1697 53.1139C97.4092 52.9197 98.6496 52.728 99.8849 52.5187C100.362 52.4379 101.575 52.5519 101.305 52.2439C100.997 51.8947 100.197 52.2287 99.6432 52.2439C96.2416 52.3377 89.2331 52.6646 86.4739 52.7934C81.2027 53.0395 65.4486 53.1431 70.6767 53.7092C75.56 54.238 83.3921 52.5862 87.8935 52.1065C93.9834 51.4576 102.543 49.6058 108.856 50.1375C113.907 50.5629 98.8158 51.3401 93.7835 51.8776C90.6398 52.2134 81.2408 52.7621 84.3897 53.0682C91.7662 53.785 100.074 52.7619 107.406 52.2439C108.86 52.1412 110.326 52.0789 111.755 51.8547C114.201 51.4712 106.759 51.7694 104.265 51.8547C95.7955 52.1443 87.3449 52.6311 78.8924 53.1139C77.4632 53.1956 73.1744 53.4278 74.6033 53.3429C77.2922 53.183 80.1271 53.133 82.7586 52.656C91.8624 51.0059 64.0045 52.988 54.7284 53.9382C50.088 54.4135 64.0588 53.319 68.7133 52.9308C71.0921 52.7324 81.4032 51.8885 84.7522 51.4655C89.154 50.9093 83.2118 50.9691 82.8191 50.9618C76.5793 50.8442 70.3328 50.9339 64.092 50.916C63.2864 50.9136 62.4783 50.9438 61.6756 50.8931C59.8948 50.7806 65.2418 50.7138 67.0218 50.5954C71.0269 50.3291 77.3561 50.4708 81.0672 48.9927C82.4755 48.4318 77.8823 48.8684 76.2948 48.9469C75.9235 48.9653 67.9366 49.4444 67.1125 49.4964C66.4475 49.5384 65.7807 49.5691 65.1189 49.6338C64.1499 49.7286 67.0744 49.6198 68.0488 49.5651C74.3769 49.2098 80.6917 48.6734 86.9873 48.0769C87.8252 47.9975 88.7612 48.1197 89.4944 47.8021C91.8081 46.7999 84.1784 48.0939 81.5202 48.2372C76.677 48.4982 73.6448 48.6491 68.8946 48.7867C67.3351 48.8318 62.9143 49.4428 64.2128 48.7867C66.3629 47.7001 75.5902 47.7556 77.4426 47.619C81.9864 47.2838 95.5242 45.9554 91.0952 46.7947C86.1764 47.7269 81.0582 48.1044 76.1136 48.9927C74.924 49.2064 68.2534 50.2642 74.2106 50.4123C79.2436 50.5373 84.3145 50.3332 89.3433 50.1833C91.7797 50.1107 84.4663 50.2632 82.0337 50.3894C78.4837 50.5735 67.9104 51.3464 71.462 51.5112C77.1845 51.7768 83.5135 50.8091 89.1621 50.1375C94.6236 49.4881 67.3205 52.5218 72.6702 51.4655C78.0696 50.3993 83.525 49.5064 88.9205 48.4203C92.8108 47.6372 99.3985 46.9013 102.996 45.1005C105.15 44.0224 97.8903 45.7084 95.3843 46.1766C93.4491 46.5381 89.4882 46.8772 87.531 47.619C84.7907 48.6576 93.5788 46.8697 96.5925 46.4513C102.013 45.6987 118.155 42.9985 112.813 44.0244C107.423 45.0594 101.975 45.9227 96.5925 46.9779C92.3381 47.8119 93.0591 48.0946 96.9852 47.8708C101.792 47.5969 106.567 46.9797 111.272 46.1995C113.814 45.7781 106.113 46.7107 103.54 47.0008C100.046 47.3947 94.2572 47.3057 90.8536 48.3516C90.5422 48.4473 91.5152 48.4471 91.8503 48.4661C93.7281 48.5729 100.657 48.7993 101.727 48.8325C104.425 48.9159 112.522 48.9956 109.822 49.0385C104.56 49.1222 98.4539 48.7512 93.3304 49.7712C90.216 50.3912 99.7156 50.5611 102.936 50.5496C106.472 50.537 117.032 49.6443 113.507 49.8628C110.386 50.0562 102.775 50.064 100.58 52.0607C98.6779 53.7906 111.871 53.516 109.037 54.19C104.735 55.2132 99.4663 54.7368 95.0219 54.9456C94.2939 54.9798 93.314 54.704 92.8471 55.1288C91.6635 56.2054 96.4534 55.7486 98.2538 56.0675C103.103 56.9263 99.9379 57.0457 97.6195 57.0978C97.1464 57.1084 95.7378 57.1527 96.1999 57.0749C96.8394 56.9672 97.5087 57.0288 98.1632 57.0062C102.522 56.8554 105.441 56.7838 109.883 56.5025C112.416 56.342 119.94 55.6782 117.404 55.5409C113.364 55.3221 109.149 55.6386 105.11 55.7698C104.495 55.7898 103.748 55.57 103.268 55.8614C101.593 56.8773 107.556 56.0074 109.701 55.9988C115.216 55.9766 120.781 55.8776 126.254 55.3119C129.821 54.9433 119.078 55.7648 115.501 56.0675C113.265 56.2566 111.027 56.4278 108.795 56.6399C107.293 56.7826 103.011 56.9824 104.385 57.4641C108.213 58.8061 114.456 58.5141 118.491 58.6547C131.7 59.115 113.283 58.9238 112.722 58.9294C109.009 58.9668 98.2284 58.3109 101.607 59.4789C106.097 61.0317 111.881 61.4216 116.679 62.089C120.033 62.5558 123.389 62.8389 117.374 62.6843C115.521 62.6367 113.669 62.5573 111.816 62.5241C109.93 62.4902 104.589 62.0151 106.168 62.7988C109.125 64.2674 114.638 64.0957 118.038 64.5618C118.516 64.6273 119.862 64.6093 119.458 64.8136C117.765 65.6689 115.39 64.7819 113.356 64.7449C100.718 64.515 129.914 66.6668 117.857 67.7214C114.67 68.0001 105.17 67.8643 108.282 68.454C114.207 69.5768 121.43 69.1616 127.462 69.4614C129.557 69.5656 131.653 69.668 133.745 69.8049C134.453 69.8512 136.561 69.9252 135.859 70.0109C134.854 70.1338 133.823 69.9736 132.808 69.9194C126.15 69.5635 119.514 68.9658 112.903 68.2709C112.146 68.1912 111.337 68.2316 110.638 67.9961C108.55 67.2929 115.19 68.293 117.464 68.454C119.427 68.593 121.394 68.7082 123.354 68.8662C124.64 68.9697 128.992 69.226 124.804 69.3699C115.308 69.696 105.811 69.6464 96.3207 70.1483C95.8896 70.1711 76.1116 71.6087 89.9172 71.8426C94.0251 71.9122 105.886 72.5486 102.211 71.1557C97.3269 69.3048 88.4977 70.1113 83.3627 70.1941C81.2666 70.2279 79.1727 70.3243 77.0801 70.4231C74.6183 70.5393 73.3674 70.6907 76.476 70.6062C80.8737 70.4867 88.2753 70.1814 92.3034 69.9194C94.0758 69.8041 104.529 69.1095 107.285 68.3167C111.94 66.9776 97.5206 66.6247 92.5451 66.485C87.2729 66.337 71.6233 65.4453 76.7176 66.485C81.4918 67.4593 89.7139 66.5766 94.3272 66.5766C98.4753 66.5766 102.649 66.2523 106.772 66.5995C110.625 66.9241 99.0192 66.7447 95.1427 66.8055C85.5187 66.9566 75.8828 67.0433 66.2667 67.4008C62.1292 67.5547 74.5451 67.1438 78.681 66.9658C84.7468 66.7047 102.845 65.5085 96.8946 66.4392C89.0743 67.6624 80.7058 67.8314 72.791 68.5685C70.2116 68.8087 67.6345 69.0633 65.0585 69.3241C59.4406 69.8927 64.6001 69.4355 65.9647 69.3241C74.9466 68.5903 83.9637 68.0627 92.9377 67.2864C94.0018 67.1943 95.5524 67.5906 96.1093 66.8971C96.5867 66.3026 94.2787 66.7508 93.3606 66.7598C91.1334 66.7814 88.9052 66.8505 86.6853 66.9887C82.375 67.2572 75.5255 67.9008 71.1599 68.5914C70.0375 68.769 68.7819 68.8225 67.8676 69.347C67.5313 69.5398 68.5096 69.8177 68.9248 69.8736C75.2444 70.7242 82.2033 70.54 88.5882 70.4002C89.8093 70.3734 91.048 70.3863 92.243 70.1941C94.8247 69.779 86.9562 70.185 84.3293 70.3773C81.4019 70.5916 78.482 70.8668 75.5699 71.1786C73.0639 71.447 70.5633 71.751 68.079 72.1173C67.2468 72.24 64.8935 72.3289 65.6324 72.6439C66.625 73.0672 67.9121 72.6132 69.0456 72.5295C72.2806 72.2904 79.8753 71.5656 83.1815 70.9726C93.3946 69.1406 41.4574 74.1841 51.9496 73.9948C61.2518 73.8269 70.9408 72.6774 80.0402 71.2931C82.3626 70.9398 84.7161 70.6097 86.9269 69.9651C87.659 69.7517 88.8294 69.358 88.6788 68.7746C88.2085 66.9523 84.0157 67.5346 81.5807 67.3321C79.4134 67.152 73.1098 67.028 75.147 66.4392C80.4799 64.8979 86.6482 64.5277 92.2128 63.7833C100.271 62.7054 97.9931 62.3982 90.5515 62.2264C81.3516 62.014 70.6994 61.2098 61.585 62.547C55.3683 63.459 74.1413 63.8767 80.4631 64.1497C83.3012 64.2722 86.1444 64.3269 88.9809 64.4702C94.9675 64.7727 87.9304 64.8966 85.8396 64.9968C76.8697 65.4268 67.7329 65.5199 58.8363 66.5766C51.3928 67.4607 56.9401 68.8909 60.407 69.5072C62.3018 69.8441 67.9212 70.1384 61.9776 70.7436C57.3575 71.214 52.5105 71.2524 47.9625 72.0716C45.1403 72.5799 53.7719 72.0812 56.6615 71.8884C57.5375 71.8299 67.2905 71.0358 60.2559 70.7436C53.184 70.4499 60.8441 70.9434 63.3066 71.087C65.8168 71.2334 58.2729 71.1868 55.7554 71.2015C46.8911 71.2534 55.4154 69.7206 58.5342 69.0493C61.1126 68.4944 68.9151 67.0657 66.2667 67.3779C65.457 67.4734 64.6516 67.5909 63.8503 67.7214C62.1864 67.9923 61.0999 68.2062 63.8503 67.9961C71.6238 67.4023 79.3855 66.5477 87.1082 65.6608C88.964 65.4476 90.8146 65.2089 92.6659 64.9739C94.0536 64.7978 95.7804 64.4213 90.5515 65.3402C87.3739 65.8986 79.7785 66.2802 77.1707 67.9274C76.7601 68.1868 78.239 67.8932 78.7716 67.8587C85.5405 67.4207 85.2389 67.2814 92.9075 67.1261C95.4136 67.0753 97.923 67.061 100.429 67.1261C107.856 67.3191 99.9202 67.7554 98.0122 67.8587C91.0118 68.2378 73.5401 68.8012 67.5353 69.0035C62.441 69.1752 57.3489 69.3976 52.2516 69.5072C49.8966 69.5579 47.4762 69.8959 45.1836 69.4843C44.3101 69.3275 46.7891 68.8465 47.6605 68.683C54.802 67.3425 62.1161 66.5867 69.2872 65.3402C70.9786 65.0462 84.1031 63.6361 75.8719 61.1732C69.9082 59.3888 62.6257 59.4165 56.9636 57.1894C51.5598 55.0638 68.9183 55.2604 74.996 54.9914C79.3359 54.7993 83.6846 54.6928 88.0143 54.3961C91.3951 54.1644 100.89 53.5883 97.8611 52.4271C95.9211 51.6833 93.6119 51.7104 91.4577 51.4884C86.5617 50.9836 81.3399 50.8026 76.3854 50.5954C70.0426 50.3302 77.8649 50.3338 78.1071 50.3207C78.7788 50.2843 91.0227 49.795 84.873 49.0843C81.6839 48.7157 75.5434 49.2967 72.7608 48.0311C72.3754 47.8558 73.6151 47.8071 74.0596 47.7564C86.4757 46.3401 70.6768 48.4675 84.9334 46.7032C86.4125 46.5201 87.892 46.3224 89.3433 46.0392C90.9652 45.7227 91.9496 45.3987 89.7964 45.2607C86.7639 45.0665 83.6514 45.625 80.6443 45.3752C78.0835 45.1625 85.5531 44.1889 88.0143 43.6122C94.7501 42.0341 86.2642 43.2797 85.9604 43.3146C83.6769 43.5769 76.8418 44.4232 79.1038 44.0702C80.8394 43.7993 95.7765 40.8801 96.1093 41.5287C96.5974 42.4802 86.9036 47.0313 84.8428 47.2069C83.8074 47.295 82.7694 47.3648 81.7317 47.4358C80.2755 47.5355 78.8091 47.5851 81.9733 47.4358C83.0378 47.3856 93.5151 46.9043 93.9949 46.8863C95.2626 46.8387 96.5389 46.6908 97.8007 46.7947C98.1688 46.8251 97.1353 47.0548 96.7738 47.1153C93.6198 47.6425 88.7873 48.7769 85.5073 48.4661C85.3519 48.4514 85.748 48.3106 85.8396 48.2143C86.2902 47.7399 86.0092 47.7913 85.1146 47.7106C83.0091 47.5206 72.8734 48.3707 80.4631 48.1227C84.4432 47.9926 89.3683 48.0025 93.1492 46.9321C96.8655 45.88 85.2126 46.7244 81.2484 46.8405C79.2739 46.8984 77.2979 46.9499 75.3282 47.0695C73.793 47.1627 69.9072 46.8037 70.7975 47.7564C71.6296 48.6469 80.0134 47.9451 80.6141 47.9166C83.8784 47.762 87.7449 47.6518 90.6724 46.3368C92.024 45.7297 91.2066 45.6018 90.1891 45.5813C85.2503 45.4814 80.2544 45.5648 75.3282 45.8331C72.0904 46.0095 65.6601 47.0462 73.6367 46.6116C84.861 46.0001 95.9814 44.4983 105.11 39.2392C105.951 38.7547 108.386 37.5083 105.412 38.2089C101.471 39.1375 97.6592 40.432 93.8741 41.6661C90.8025 42.6676 87.7597 43.8357 84.5709 44.6197C82.7664 45.0633 80.7861 45.0932 79.0132 45.5584C70.3076 47.8426 115.581 42.2956 106.379 42.6277C101.411 42.8071 96.2523 44.0226 91.3369 44.5968C90.1013 44.7411 88.8599 44.8556 87.6216 44.986C85.4107 45.2188 89.5125 44.8107 89.9776 44.757C94.8926 44.1901 99.9033 43.589 104.687 42.5361C108.868 41.6161 96.1082 43.6612 91.8201 44.2304C89.8278 44.4949 87.8315 44.7424 85.8396 45.0089C85.0928 45.1088 84.3237 45.1477 83.6044 45.3294C83.1234 45.451 84.6144 45.2548 85.1146 45.192C86.1959 45.0563 87.2811 44.9287 88.3466 44.7341C90.4963 44.3415 90.9695 44.157 88.2862 43.9786C83.7948 43.6799 78.8252 44.278 74.4221 43.4978C72.4292 43.1446 82.4362 42.62 80.4027 42.4446C75.9184 42.0577 70.8746 42.3934 66.448 42.9483C65.5802 43.057 64.0176 42.836 63.9107 43.4978C63.8105 44.1182 65.4514 43.976 66.2667 44.0702C68.5061 44.3287 70.7721 44.4412 73.0326 44.551C78.7301 44.8277 95.6753 45.8263 90.1589 44.7112C84.6939 43.6066 77.8833 44.322 72.2473 44.322C70.7285 44.322 75.3003 44.2216 76.7781 43.9557C81.2075 43.1586 74.7238 42.6027 74.4825 42.5819C68.253 42.0465 72.6042 42.6735 75.2074 42.6735" stroke="#A6D1CF" stroke-linecap="round" stroke-linejoin="round"/>
<path d="M34.7964 109L53.6899 86.1444C54.8371 84.7566 56.9246 84.6629 58.1609 85.9436L68.9965 97.1691C70.3331 98.5538 72.6255 98.3134 73.68 96.6779L88.8497 73.1525C89.7898 71.6944 91.7536 71.3146 93.1428 72.3221L98.2773 76.0459C99.6326 77.0288 101.544 76.6943 102.511 75.3049L111.648 62.1749" stroke="black" stroke-width="12"/>
<path d="M97.7131 59H118.587V79.8741" stroke="black" stroke-width="11"/>
<path d="M74 109L74 161" stroke="#A6D1CF" stroke-width="6"/>
<path d="M154 91L154 161" stroke="#A6D1CF" stroke-width="6"/>
<path d="M152 93.5665C161.373 92.1738 174.532 93.2994 176 90.0001" stroke="#A6D1CF" stroke-width="5"/>
<path d="M284.217 57.5L314.217 13H419.717L447.717 49.5V57.5H433.217M284.217 57.5C279.384 67 274.917 86.8 295.717 90H433.217V57.5M284.217 57.5H433.217" stroke="black"/>
<path d="M299.949 119.5C282.749 107.9 292.782 95 299.949 90H446.449M299.949 119.5H446.449M299.949 119.5C267.549 133.9 282.665 154.5 293.164 157L446.449 159V151.5H435.449V126.5H446.449V119.5M446.449 119.5V90M446.449 119.5H458.949M446.449 90H458.949" stroke="black" stroke-width="2"/>
<path d="M434.165 58C437.663 64.2558 439.6 68.9464 441.72 75.6528C443.183 80.2811 446.309 84.2614 447.165 89" stroke="black" stroke-linecap="round" stroke-linejoin="round"/>
<line x1="286.165" y1="88" x2="434.165" y2="88" stroke="black" stroke-width="2"/>
<line x1="298.165" y1="123" x2="447.165" y2="123" stroke="black" stroke-width="6"/>
<line x1="298.165" y1="155" x2="447.165" y2="155" stroke="black" stroke-width="6"/>
<path d="M299.165 123C281.904 124.371 269.246 150.429 299.165 155" stroke="black" stroke-width="6"/>
<path d="M439.165 126V155" stroke="black" stroke-width="6"/>
<path d="M450.165 90V119" stroke="black" stroke-width="6"/>
<path d="M459.165 87H300.165" stroke="black" stroke-width="6"/>
<path d="M447.165 123.5H459.165" stroke="black" stroke-width="8"/>
<path d="M301.665 86.5C293.665 91.3333 282.165 105.4 300.165 123" stroke="black" stroke-width="6"/>
<path d="M435.165 57L443.165 87" stroke="black" stroke-width="7"/>
<path d="M287.665 57.5C280.165 65.3333 271.565 82.7 297.165 89.5" stroke="black" stroke-width="8"/>
<path d="M290.756 58C283.328 65.3438 274.811 81.625 300.165 88" stroke="black" stroke-width="8"/>
<path d="M436.665 65.5V86" stroke="black" stroke-width="6"/>
<path d="M284.165 58L448.165 58" stroke="black" stroke-width="6"/>
<path d="M315.165 14L284.665 59.5" stroke="black" stroke-width="6"/>
<path d="M312.665 15H418.165L445.165 49V57.5" stroke="black" stroke-width="6"/>
<path d="M346.761 44.3304C353.067 43.3738 359.284 42.4833 365.543 41.3407C367.526 40.9787 369.503 40.5877 371.458 40.1297C374.18 39.4917 375.1 39.2191 371.977 39.2025C365.887 39.1702 359.761 39.4772 353.669 39.5621C346.58 39.6609 352.762 40.0807 354.911 40.2054C361.194 40.5702 380.088 40.0218 373.805 40.3946C367.902 40.745 361.984 40.9195 356.085 41.3218C354.057 41.4601 352.02 41.5588 350.012 41.8327C348.996 41.9713 345.508 42.4931 348.838 43.2329C355.718 44.7613 377.175 44.5737 370.081 45.0495C364.174 45.4455 358.24 45.4925 352.36 46.1848C345.28 47.0184 348.856 47.7774 353.624 48.2851C362.537 49.2343 371.514 49.7656 380.442 50.6126C381.415 50.7048 382.465 50.5903 383.354 50.9342C386.16 52.0196 377.185 50.6183 374.099 50.499C366.426 50.2025 358.726 50.0281 351.051 50.3855C350.339 50.4186 349.549 50.301 348.929 50.5936C347.056 51.4765 353.218 50.8092 355.362 50.9153C363.003 51.2934 385.777 53.7239 378.23 52.6561C365.785 50.8955 328.095 48.1504 340.486 50.1584C347.523 51.2988 354.777 51.8981 361.886 52.6372C373.226 53.8162 360.133 51.7474 359.9 51.71C352.043 50.4527 343.928 49.9816 336.129 48.5501C331.798 47.7551 344.947 47.6131 349.38 47.585C355.742 47.5447 360.419 47.6868 366.672 48.0013C368.186 48.0775 369.697 48.201 371.209 48.3041C373.096 48.4327 373.168 48.4946 369.042 48.077C361.879 47.3518 354.718 46.5765 347.574 45.7307C346.037 45.5486 344.495 45.3821 342.969 45.1441C339.32 44.575 344.85 44.7836 344.91 44.7846C356.301 44.9582 390.423 46.5847 379.065 45.8442C373.057 45.4525 366.999 45.4061 360.983 45.1252C356.559 44.9185 343.352 43.8468 347.71 44.5196C359.775 46.3827 372.376 47.5517 384.596 48.4554C401.124 49.6779 351.545 45.8904 334.978 45.1252C333.151 45.0408 331.315 44.838 329.492 44.9738C326.194 45.2196 335.998 46.0513 339.289 46.3551C349.2 47.2696 359.266 48.0083 369.245 47.5093C370.415 47.4509 371.618 47.4026 372.722 47.0741C375.082 46.3722 367.771 46.3985 365.272 46.2605C351.267 45.4871 337.27 44.7348 323.284 43.7249C313.698 43.0327 317.369 43.2662 320.801 43.4222C334.076 44.0255 347.301 44.3739 360.599 44.2169C364.34 44.1727 368.08 44.0738 371.819 43.952C373.95 43.8826 380.266 43.8099 378.185 43.4222C371.462 42.17 363.819 42.1737 357.01 41.6435C351.844 41.2411 336.345 40.5847 341.524 40.3189C353.066 39.7266 365.339 40.3663 376.808 40.8677C385.66 41.2547 412.012 43.6751 403.152 43.9141C391.239 44.2355 378.925 42.088 367.101 41.1515C362.578 40.7933 357.049 40.4241 352.315 40.2054C348.819 40.0439 359.294 40.6853 362.789 40.8488C365.761 40.9877 368.733 41.1047 371.706 41.2272C374.242 41.3317 376.779 41.4039 379.313 41.53C380.204 41.5742 382.727 41.3339 381.977 41.7381C381.052 42.2366 379.781 41.8706 378.681 41.8706C370.816 41.8706 362.038 41.5888 354.301 41.1894C349.172 40.9245 344.048 40.5828 338.928 40.2054C334.807 39.9016 330.695 39.5105 326.58 39.1458C325.074 39.0122 323.381 38.0806 322.065 38.7106C320.833 39.3007 324.862 39.1157 326.264 39.2972C335.389 40.4777 347.096 41.9222 356.017 42.8923C361.3 43.4669 366.591 43.9944 371.886 44.4818C376.435 44.9004 389.875 46.7178 385.566 45.4279C384.273 45.0406 382.845 45.1089 381.48 44.9738C360.967 42.9428 382.158 45.1765 358.319 42.741C353.15 42.2128 342.58 41.0833 336.874 40.3946C336.103 40.3015 333.792 40.0696 334.571 40.054C339.756 39.9506 344.898 40.864 350.057 41.3029C365.567 42.6224 381.091 43.9129 396.56 45.5414C398.394 45.7345 400.257 45.8324 402.046 46.2226C405.532 46.9832 394.846 45.9728 391.255 45.7307C381.468 45.0706 371.568 44.5084 361.841 43.3465C356.194 42.6719 373.265 43.162 378.952 43.5357C394.036 44.527 408.981 46.9494 424.055 47.8121C433.645 48.3609 405.147 44.8077 395.589 43.952C388.063 43.2782 368.577 41.8344 360.08 41.1894C359.449 41.1415 342.603 39.8116 356.92 41.4164C367.657 42.62 378.45 43.3825 389.269 43.8195C390.931 43.8867 408.082 44.468 390.646 43.2708C376.429 42.2947 362.212 41.3707 348.003 40.3189C331.088 39.0669 349.53 40.901 349.786 40.9245C364.877 42.3058 410.438 43.2711 395.296 42.3625C388.274 41.9412 381.234 41.7509 374.212 41.3407C363.34 40.7058 351.734 40.5053 341.005 38.6538C340.583 38.5809 341.861 38.5319 342.292 38.5403C367.95 39.0383 330.548 38.7994 367.033 39.1458C382.101 39.2888 397.18 39.1836 412.249 39.1836C413.325 39.1836 415.654 40.0355 415.477 39.1458C415.295 38.232 413.283 38.9135 412.181 38.843C409.731 38.6864 407.278 38.5462 404.822 38.4646C393.905 38.1017 382.967 38.1074 372.044 37.8969C356.929 37.6056 374.125 38.5146 374.483 38.5403C385.758 39.3487 396.993 40.1312 408.186 41.5678C411.986 42.0556 415.447 42.4619 410.895 42.249C398.262 41.6582 385.631 41.2345 372.993 40.7352C365.982 40.4582 344.98 39.1838 351.976 39.6567C366.073 40.6096 380.143 41.623 394.167 43.1951C402.938 44.1783 429.14 47.7739 420.398 46.62C407.653 44.9375 394.741 44.3894 381.887 43.6114C376.055 43.2584 370.222 42.9243 364.392 42.5518C360.154 42.2809 355.92 41.9572 351.683 41.6813C350.397 41.5977 347.543 40.4181 347.822 41.4732C348.112 42.5654 350.45 41.8744 351.773 42.0219C359.541 42.8881 367.435 43.6065 375.25 44.0277C381.62 44.3709 389.468 44.5789 396.018 44.4061C396.545 44.3922 398.097 44.244 397.576 44.1791C391.822 43.4621 385.95 43.7831 380.149 43.4222C361.352 42.2526 342.674 40.2652 324.007 38.124C322.431 37.9433 317.705 37.4203 319.289 37.5374C327.844 38.1702 336.34 39.2902 344.888 39.9973C351.601 40.5526 358.319 41.078 365.047 41.4921C367.42 41.6382 384.551 42.6475 389.697 42.1733C393.97 41.7797 381.496 39.9658 377.282 39.2593C375.172 38.9056 373.062 38.5498 370.961 38.1618C369.235 37.8431 364.147 37.3188 365.859 36.9508C366.807 36.7471 367.817 36.9506 368.794 36.9887C371.143 37.0802 384.547 37.8119 385.431 37.8591C387.008 37.9432 399.8 38.6285 402.565 38.7484C403.678 38.7967 404.8 38.9607 405.906 38.843C408.846 38.5301 400.011 38.3236 397.057 38.124C376.533 36.7369 356.082 35.0505 335.632 33.015C328.652 32.3202 321.681 31.5581 314.706 30.8201C311.906 30.5237 309.115 30.1609 306.309 29.9118C304.78 29.7762 309.346 30.3025 310.869 30.4795C329.091 32.5986 347.347 34.4944 365.588 36.4967C369.473 36.9231 373.364 37.3218 377.237 37.8212C379.562 38.1211 372.53 37.6703 370.193 37.4428C356.1 36.0705 342.055 34.3489 328.002 32.7123C325.286 32.3959 322.561 32.1273 319.853 31.7662C314.86 31.1004 329.908 32.6618 334.933 33.1286C347.812 34.3249 363.369 35.7792 376.288 36.8373C380.333 37.1685 384.379 37.4952 388.433 37.7266C389.244 37.7729 391.651 37.8619 390.871 37.6699C388.911 37.1871 386.843 37.0902 384.821 36.8373C374.789 35.5818 364.704 34.4097 354.617 33.507C353.41 33.3989 352.139 32.9874 350.983 33.2989C350.202 33.5091 352.549 33.7163 353.353 33.8476C356.261 34.3223 359.187 34.7199 362.112 35.1154C372.835 36.5651 383.797 37.3886 394.438 39.2215C401.205 40.3869 380.62 38.8844 373.738 38.3889C360.712 37.4511 347.727 36.1806 334.707 35.21C327.614 34.6812 348.786 37.0306 355.859 37.7266C373.688 39.4812 372.801 39.257 389.63 40.6595C410.948 42.4362 388.08 41.156 387.44 41.1137C378.023 40.491 368.715 39.3977 359.358 38.37C355.841 37.9837 366.333 39.457 369.832 39.9405C371.697 40.1982 373.564 40.4498 375.431 40.6974C379.011 41.1721 378.199 41.0383 375.656 40.6974C368.454 39.7314 361.241 38.821 354.03 37.8969C352.367 37.6838 350.702 37.4802 349.041 37.2536C348.76 37.2152 347.923 37.0787 348.206 37.1022C349.632 37.2201 351.051 37.3873 352.473 37.5374C359.836 38.3148 367.259 38.9896 374.573 40.054C388.111 42.0242 347.222 37.7345 333.623 36.0804C332.071 35.8916 330.517 35.7085 328.973 35.4749C326.392 35.0843 334.181 35.9977 336.784 36.2696C345.97 37.2296 355.163 38.1486 364.347 39.1269C364.866 39.1822 366.422 39.3643 365.904 39.2972C360.943 38.6528 355.971 38.0621 351.005 37.4428C340.066 36.0786 328.518 35.3963 317.754 33.1853C312.265 32.058 329.064 32.8363 334.707 33.0907C344.839 33.5476 354.913 34.4138 365.024 35.0775C374.435 35.6953 346.311 32.7441 337.19 30.7065C327.031 28.4371 358.227 31.0653 368.704 31.804C384.281 32.9024 430.987 36.3906 415.387 35.5506C405.501 35.0183 395.644 34.1683 385.77 33.507C362.926 31.9772 388.053 33.8787 388.433 33.9044C391.592 34.1175 394.754 34.2944 397.914 34.4909C402.543 34.7788 404.951 34.9039 395.973 34.5288C379.109 33.8242 362.238 33.0829 345.407 31.9365C341.487 31.6695 334.875 31.0086 345.294 31.7662C360.867 32.8985 376.425 34.2936 391.955 35.7776C413.985 37.8828 395.805 36.0651 395.973 36.7238C396.28 37.925 418.258 39.1647 419.224 39.2593C420.625 39.3964 424.761 39.3207 423.423 39.6945C421.962 40.1028 420.352 39.4935 418.818 39.3728C415.22 39.0898 411.623 38.7904 408.028 38.4835C404.234 38.1597 400.441 37.8255 396.65 37.4806C393.993 37.2389 391.337 36.9813 388.682 36.7238C387.695 36.6281 386.576 36.8493 385.724 36.421C384.907 36.0099 387.621 36.5853 388.569 36.667C394.953 37.2172 397.577 37.4633 404.326 37.9348C406.942 38.1176 409.56 38.2943 412.181 38.4267C412.932 38.4647 415.179 38.5608 414.439 38.4457C412.652 38.1675 410.829 38.0909 409.021 37.9348C385.498 35.9035 315.083 28.6653 338.544 31.1417C358.161 33.2123 377.742 35.4999 397.373 37.4806C401.748 37.9221 406.123 38.3665 410.511 38.7106C413.738 38.9636 404.148 37.6574 400.939 37.2725C386.785 35.5746 372.6 34.0539 358.455 32.296C357.473 32.174 354.53 31.8244 355.52 31.8797C362.153 32.2503 368.714 33.2488 375.318 33.8854C390.402 35.3395 405.621 36.9651 420.805 37.5185C430.515 37.8724 401.57 35.1398 391.91 34.245C374.659 32.6471 367.18 32.0485 350.328 30.8579C350.19 30.8482 318.984 28.8396 349.38 30.6687C365.949 31.6657 382.54 33.1965 399.133 33.8476C406.834 34.1497 383.872 31.9674 376.198 31.3499C364.889 30.4399 352.736 30.7136 341.524 29.0792C340.983 29.0003 342.601 28.876 343.15 28.8522C345.417 28.7535 359.962 28.4951 361.209 28.4737C364.098 28.4242 366.988 28.391 369.877 28.3413C371.382 28.3153 372.891 28.3399 374.392 28.2467C375.083 28.2038 373.008 28.1925 372.315 28.1899C362.722 28.1533 353.096 28.2288 343.511 28.5873C325.298 29.2683 379.958 29.4716 398.185 29.7983C399.5 29.8218 423.138 30.4652 400.759 29.382C387.037 28.7178 373.299 28.2454 359.584 27.4898C343.536 26.6057 423.724 31.2356 407.644 31.0282C394.673 30.8609 381.601 29.4085 368.658 28.7386C364.755 28.5366 360.85 28.3565 356.942 28.2277C349.501 27.9824 352.758 28.3025 357.755 28.8143C409.064 34.0697 321.694 24.8983 388.501 31.8608C393.824 32.4155 399.143 32.9985 404.461 33.5827C406.78 33.8374 409.099 34.0966 411.414 34.3774C412.585 34.5195 409.066 34.1263 407.892 33.999C394.854 32.5842 381.817 31.1827 368.749 29.9686C366.523 29.7618 364.298 29.5397 362.067 29.382C358.958 29.1622 368.234 30.1812 371.322 30.5552C384.176 32.1114 397.014 33.8167 409.901 35.1721C410.643 35.2501 412.871 35.437 412.136 35.3235C408.405 34.7474 394.08 33.2518 392.858 33.1286C380.485 31.8808 368.063 30.658 355.611 30.1199C345.509 29.6835 375.808 31.0682 385.905 31.5769C393.281 31.9486 400.645 33.0111 408.028 32.7501C409.3 32.7052 405.521 32.3698 404.258 32.2392C394.257 31.2057 383.797 30.3808 373.805 29.6847C364.811 29.0581 337.784 28.1587 346.807 27.9817C358.877 27.7451 370.988 28.1149 383.061 28.0953C386.176 28.0902 389.293 28.1175 392.406 28.0196C392.716 28.0099 393.594 27.8029 393.287 27.7736C391.018 27.5575 388.729 27.5207 386.447 27.4519C372.863 27.0425 359.267 27.0109 345.678 26.8086C343.842 26.7812 341.985 26.9291 340.17 26.695C335.305 26.0678 350.012 26.5903 354.933 26.5437C359.35 26.5018 363.768 26.4694 368.184 26.3923C371.714 26.3307 375.247 26.298 378.772 26.1274C380.203 26.0581 381.798 26.2762 383.038 25.6733C383.658 25.3718 381.736 25.1318 381.029 25.0299C378.483 24.6626 375.903 24.4794 373.331 24.273C369.927 23.9999 366.516 23.798 363.105 23.5918C359.342 23.3643 348.084 23.3288 351.818 22.8728C353.844 22.6253 355.911 22.7509 357.958 22.7214C365.667 22.6106 376.166 22.576 383.783 22.5511C386.974 22.5407 390.164 22.5322 393.355 22.5322C394.054 22.5322 396.153 22.5294 395.454 22.5511C393.942 22.598 392.429 22.5934 390.916 22.6079C382.143 22.6919 373.367 22.6396 364.595 22.7403C363.676 22.7509 361.072 22.4129 361.841 22.8349C362.795 23.3591 364.111 23.0393 365.25 23.0999C368.145 23.2538 371.042 23.3779 373.941 23.4783C385.092 23.8645 396.258 24.0995 407.418 24.1784C408.223 24.1841 410.638 24.1972 409.834 24.1595C404.273 23.8985 398.698 23.9576 393.129 23.8946C389.461 23.8531 368.387 23.6463 364.098 23.6297C362.157 23.6222 360.186 23.3827 358.274 23.6675C353.05 24.446 368.866 24.2176 374.166 24.4244C378.862 24.6076 383.558 24.7691 388.253 24.9542C392.427 25.1188 404.862 25.0092 400.759 25.6733C398.836 25.9845 396.847 25.8569 394.89 25.9003C386.856 26.0785 378.934 26.076 370.893 26.0895C367.68 26.095 364.467 26.0751 361.254 26.0895C356.697 26.11 357.865 26.1575 361.254 26.2788C367.876 26.5158 374.616 26.4744 381.187 27.3006C381.83 27.3814 383.504 27.356 383.061 27.7547C382.416 28.3343 381.203 28.0604 380.261 28.1331C378.099 28.3003 375.928 28.3747 373.76 28.4737C368.342 28.7211 352.081 29.1859 357.507 29.2495C364.701 29.3339 371.895 29.095 379.088 28.9657C386.76 28.8278 409.518 28.6812 402.023 27.3006C389.853 25.0589 376.821 24.7479 364.437 23.9324C361.707 23.7527 358.974 23.61 356.243 23.4404C355.926 23.4208 354.977 23.3533 355.294 23.3648C357.011 23.4266 358.726 23.5083 360.441 23.5918C370.151 24.0648 379.853 24.6269 389.562 25.1056C390.45 25.1494 393.115 25.2191 392.226 25.2191C353.753 25.2191 453.888 24.7253 379.404 25.0299C376.107 25.0434 372.811 25.0878 369.516 25.1813C367.031 25.2518 364.543 25.3256 362.067 25.5219C361.351 25.5786 359.437 25.5309 359.967 25.9382C360.759 26.5464 362.08 26.278 363.15 26.3544C367.216 26.6451 374.869 26.8464 378.817 26.8464C380.887 26.8464 382.959 26.8093 385.025 26.695C385.928 26.6451 388.248 26.9656 387.711 26.3544C387.049 25.6011 385.507 26.0342 384.393 25.976C377.267 25.604 364.208 25.5349 358.184 25.503C351.773 25.469 345.362 25.4361 338.951 25.484C333.562 25.5244 328.172 25.5724 322.788 25.7679C319.83 25.8753 316.765 25.6547 313.939 26.3923C313.006 26.6358 315.661 27.2435 316.625 27.3762C324.536 28.4653 341.234 29.1787 348.048 29.4577C353.516 29.6815 358.987 29.8606 364.46 29.9496C366.74 29.9868 369.068 30.2299 371.3 29.8361C372.428 29.637 369.04 29.427 367.891 29.3441C357.056 28.5624 346.118 28.3981 335.249 28.5494C333.818 28.5693 332.358 28.446 330.96 28.7008C325.75 29.6501 341.617 28.4171 346.942 28.2088C363.21 27.5725 380.48 27.9997 396.56 25.5408C410.52 23.4061 368.355 22.1809 354.166 22.3051C352.932 22.3159 349.336 22.7631 350.464 22.343C351.844 21.8286 353.472 22.1017 354.978 22.0024C358.544 21.7674 362.111 21.5563 365.679 21.3401C371.385 20.9942 388.511 20.1825 382.79 20.2237C372.583 20.2972 362.357 20.5488 352.157 20.8481C349.229 20.9341 346.299 21.0163 343.375 21.1698C342.932 21.1931 341.622 21.3665 342.066 21.3779C344.458 21.4396 346.852 21.3607 349.245 21.3212C362.964 21.0947 376.674 20.7351 390.397 20.6967C391.353 20.6941 394.22 20.7295 393.264 20.7157C389.668 20.6637 379.443 20.5917 377.372 20.6021C370.441 20.6371 362.636 20.7496 355.656 21.1698C354.767 21.2233 352.133 21.4014 353.014 21.5104C358.838 22.2306 364.786 21.3217 370.667 21.113C378.803 20.8244 403.213 20.1066 395.07 20.148C383.016 20.2092 370.92 20.8918 358.884 21.3023C353.263 21.4939 347.641 21.6572 342.021 21.851C338.217 21.9822 326.898 22.1145 330.643 22.6836C343.974 24.7089 358.65 23.953 372.09 23.9703C402.835 24.0098 373.094 24.0444 371.819 24.046C365.498 24.0537 359.177 24.0283 352.856 23.9703C343.518 23.8846 334.15 23.0504 324.842 23.6864C319.915 24.0231 334.596 25.0795 339.515 25.484C352.437 26.5465 366.57 28.4821 379.629 27.8682C380.503 27.8271 377.924 27.523 377.056 27.433C373.279 27.0416 355.498 25.6396 353.376 25.4651C347.644 24.9937 330.482 23.6331 336.242 23.5918C348.402 23.5047 360.556 23.8404 372.722 23.6675C376.094 23.6196 379.466 23.559 382.835 23.4404C383.411 23.4202 385.126 23.2829 384.551 23.2512C382.147 23.1191 379.735 23.1642 377.327 23.1377C362.498 22.9746 347.627 23.1191 332.811 22.5133C331.915 22.4766 329.255 22.2687 330.147 22.1916C339.655 21.3697 349.258 21.742 358.816 21.6618C370.736 21.5617 385.28 21.5318 397.418 21.5104C398.983 21.5076 403.678 21.5104 402.113 21.5104C394.363 21.5104 386.612 21.5104 378.862 21.5104C368.711 21.5104 357.853 22.1204 347.664 21.5104C339.7 21.0335 363.632 21.3013 371.616 21.1698C375.265 21.1097 378.915 21.057 382.564 20.9806C386.64 20.8952 389.789 20.8123 383.196 20.7535C371.615 20.6502 360.032 20.7259 348.455 20.9806C346.776 21.0175 345.098 21.0811 343.42 21.132C338.725 21.2742 352.812 20.8491 357.507 20.6778C365.775 20.3762 390.462 19.4008 382.225 18.7288C375.207 18.1563 358.241 18.2092 352.428 18.2369C347.664 18.2596 342.9 18.3252 338.138 18.445C332.889 18.5771 330.128 18.8204 336.829 18.8991C350.869 19.0642 364.961 19.001 378.997 18.7099C381.543 18.6571 384.113 18.7444 386.627 18.4072C390.631 17.8702 378.537 17.8569 374.483 17.8395C371.781 17.828 369.076 17.8303 366.378 17.953C361.269 18.1854 376.614 18.0695 381.729 17.953C386.238 17.8504 390.749 17.7405 395.251 17.4989C396.047 17.4562 398.395 17.144 397.598 17.1016C394.219 16.9214 390.825 17.024 387.44 17.0826C382.449 17.1691 377.458 17.3089 372.473 17.5368C368.975 17.6967 358.719 18.0956 362.089 18.8991C368.354 20.393 376.043 20.0675 382.519 20.4886" stroke="#11A09A" stroke-opacity="0.3" stroke-linecap="round" stroke-linejoin="round"/>
<path d="M315 15L298 40" stroke="black" stroke-width="5.5"/>
<g filter="url(#filter0_b)">
<path d="M420 13L450.041 47.6177V61.1638H439.5L446.878 84.2423H459V91.7679H454.784V118.86H459V128.894H443.189V150.969H446.878V160" stroke="#A6D1CF" stroke-width="5"/>
</g>
<path d="M417 13L445 50" stroke="black" stroke-width="4"/>
<path d="M714.396 54.4883L719.061 150.768L702.474 155" stroke="#A6D1CF" stroke-width="6"/>
<path d="M609.688 71.9453H699.882" stroke="#A6D1CF" stroke-width="12"/>
<path d="M609.688 99.4546H699.882" stroke="#A6D1CF" stroke-width="12"/>
<path d="M609.688 126.962H699.882" stroke="#A6D1CF" stroke-width="12"/>
<path d="M609.688 44.4375H666.707" stroke="#A6D1CF" stroke-width="12"/>
<path d="M597.248 23.2767L607.615 15.8706H674.483C676.383 17.9615 679.666 21.6293 677.593 19.5737L713.878 55.5464V148.652L702.992 155H604.505L597.248 148.652V23.2767Z" stroke="black" stroke-width="6"/>
<path d="M562 45.4946L621.092 106.86" stroke="black" stroke-width="10"/>
<path d="M639.411 124.544L616.631 109.832L623.918 102.03L639.411 124.544Z" fill="black"/>
<path d="M673.964 15.8706L680.703 23.2767" stroke="black" stroke-width="6"/>
<path d="M672.139 16.3877L672.161 22.2308" stroke="black" stroke-width="3"/>
<path d="M675.373 61.2399C673.239 61.228 671.498 59.4931 671.435 57.3169L670.412 21.9822C670.307 18.3503 674.587 16.4356 677.135 18.9744L712.795 54.5036C715.343 57.0424 713.57 61.4544 710.01 61.4345L675.373 61.2399Z" fill="black"/>
<path d="M26.6386 187H28.5566L31.7766 176.682H30.1246L28.5986 182.03C28.2626 183.206 28.0246 184.214 27.6606 185.404H27.5906C27.2406 184.214 27.0026 183.206 26.6526 182.03L25.1266 176.682H23.4046L26.6386 187ZM32.9631 187H34.5731V179.3H32.9631V187ZM33.7611 177.858C34.3491 177.858 34.7691 177.48 34.7691 176.892C34.7691 176.318 34.3491 175.94 33.7611 175.94C33.1731 175.94 32.7671 176.318 32.7671 176.892C32.7671 177.48 33.1731 177.858 33.7611 177.858ZM39.0686 187.182C40.9726 187.182 41.9946 186.132 41.9946 184.844C41.9946 183.388 40.8046 182.912 39.7266 182.506C38.8866 182.198 38.1306 181.946 38.1306 181.288C38.1306 180.756 38.5226 180.336 39.3766 180.336C40.0066 180.336 40.5526 180.616 41.0846 181.008L41.8406 180.014C41.2246 179.524 40.3706 179.104 39.3486 179.104C37.6406 179.104 36.6046 180.07 36.6046 181.358C36.6046 182.66 37.7386 183.206 38.7746 183.598C39.6006 183.92 40.4686 184.228 40.4686 184.928C40.4686 185.516 40.0346 185.964 39.1106 185.964C38.2846 185.964 37.6126 185.614 36.9266 185.082L36.1706 186.118C36.9266 186.734 38.0046 187.182 39.0686 187.182ZM45.9848 187.182C46.5448 187.182 47.0628 187.042 47.4968 186.902L47.2028 185.712C46.9788 185.81 46.6428 185.894 46.3768 185.894C45.5788 185.894 45.2568 185.418 45.2568 184.494V180.588H47.2588V179.3H45.2568V177.172H43.9128L43.7308 179.3L42.5268 179.384V180.588H43.6468V184.48C43.6468 186.104 44.2488 187.182 45.9848 187.182ZM50.4237 187.182C51.3477 187.182 52.1737 186.72 52.8737 186.118H52.9297L53.0557 187H54.3717V182.366C54.3717 180.322 53.4897 179.104 51.5717 179.104C50.3397 179.104 49.2617 179.608 48.4637 180.112L49.0657 181.204C49.7237 180.784 50.4797 180.42 51.2917 180.42C52.4257 180.42 52.7477 181.204 52.7617 182.1C49.5557 182.45 48.1557 183.304 48.1557 184.956C48.1557 186.314 49.0937 187.182 50.4237 187.182ZM50.9137 185.908C50.2277 185.908 49.7097 185.6 49.7097 184.844C49.7097 183.976 50.4797 183.388 52.7617 183.122V185.012C52.1317 185.586 51.5857 185.908 50.9137 185.908ZM58.7425 187.182C60.6465 187.182 61.6685 186.132 61.6685 184.844C61.6685 183.388 60.4785 182.912 59.4005 182.506C58.5605 182.198 57.8045 181.946 57.8045 181.288C57.8045 180.756 58.1965 180.336 59.0505 180.336C59.6805 180.336 60.2265 180.616 60.7585 181.008L61.5145 180.014C60.8985 179.524 60.0445 179.104 59.0225 179.104C57.3145 179.104 56.2785 180.07 56.2785 181.358C56.2785 182.66 57.4125 183.206 58.4485 183.598C59.2745 183.92 60.1425 184.228 60.1425 184.928C60.1425 185.516 59.7085 185.964 58.7845 185.964C57.9585 185.964 57.2865 185.614 56.6005 185.082L55.8445 186.118C56.6005 186.734 57.6785 187.182 58.7425 187.182ZM68.3476 187.182C69.2716 187.182 70.0976 186.72 70.7976 186.118H70.8536L70.9796 187H72.2956V182.366C72.2956 180.322 71.4136 179.104 69.4956 179.104C68.2636 179.104 67.1856 179.608 66.3876 180.112L66.9896 181.204C67.6476 180.784 68.4036 180.42 69.2156 180.42C70.3496 180.42 70.6716 181.204 70.6856 182.1C67.4796 182.45 66.0796 183.304 66.0796 184.956C66.0796 186.314 67.0176 187.182 68.3476 187.182ZM68.8376 185.908C68.1516 185.908 67.6336 185.6 67.6336 184.844C67.6336 183.976 68.4036 183.388 70.6856 183.122V185.012C70.0556 185.586 69.5096 185.908 68.8376 185.908ZM77.7248 190.122H79.3348V187.63L79.2788 186.314C79.9368 186.874 80.6228 187.182 81.3088 187.182C83.0448 187.182 84.6268 185.67 84.6268 183.024C84.6268 180.658 83.5348 179.104 81.5888 179.104C80.7208 179.104 79.8808 179.58 79.2088 180.14H79.1668L79.0408 179.3H77.7248V190.122ZM81.0008 185.852C80.5248 185.852 79.9368 185.67 79.3348 185.152V181.386C79.9788 180.756 80.5528 180.448 81.1548 180.448C82.4428 180.448 82.9608 181.442 82.9608 183.052C82.9608 184.858 82.1208 185.852 81.0008 185.852ZM86.5432 187H88.1532V182.198C88.6292 180.98 89.3852 180.546 90.0152 180.546C90.3232 180.546 90.5192 180.588 90.7852 180.672L91.0792 179.272C90.8412 179.16 90.5892 179.104 90.2112 179.104C89.3852 179.104 88.5732 179.692 88.0272 180.686H87.9852L87.8592 179.3H86.5432V187ZM95.2013 187.182C97.1053 187.182 98.8273 185.712 98.8273 183.15C98.8273 180.588 97.1053 179.104 95.2013 179.104C93.2973 179.104 91.5753 180.588 91.5753 183.15C91.5753 185.712 93.2973 187.182 95.2013 187.182ZM95.2013 185.866C93.9973 185.866 93.2413 184.788 93.2413 183.15C93.2413 181.526 93.9973 180.434 95.2013 180.434C96.4193 180.434 97.1753 181.526 97.1753 183.15C97.1753 184.788 96.4193 185.866 95.2013 185.866ZM103.353 190.458C105.817 190.458 107.385 189.254 107.385 187.77C107.385 186.454 106.433 185.894 104.613 185.894H103.199C102.219 185.894 101.911 185.6 101.911 185.138C101.911 184.76 102.079 184.55 102.331 184.326C102.667 184.48 103.059 184.564 103.409 184.564C105.019 184.564 106.293 183.598 106.293 181.918C106.293 181.33 106.083 180.812 105.789 180.504H107.259V179.3H104.529C104.235 179.188 103.843 179.104 103.409 179.104C101.813 179.104 100.427 180.126 100.427 181.862C100.427 182.786 100.917 183.514 101.449 183.92V183.976C101.015 184.284 100.581 184.802 100.581 185.404C100.581 186.034 100.889 186.44 101.281 186.678V186.748C100.567 187.182 100.161 187.784 100.161 188.428C100.161 189.772 101.505 190.458 103.353 190.458ZM103.409 183.528C102.611 183.528 101.953 182.898 101.953 181.862C101.953 180.826 102.597 180.238 103.409 180.238C104.221 180.238 104.865 180.84 104.865 181.862C104.865 182.898 104.207 183.528 103.409 183.528ZM103.591 189.394C102.317 189.394 101.533 188.946 101.533 188.19C101.533 187.798 101.729 187.406 102.191 187.07C102.513 187.14 102.863 187.182 103.227 187.182H104.389C105.327 187.182 105.831 187.378 105.831 188.022C105.831 188.736 104.935 189.394 103.591 189.394ZM108.815 187H110.425V182.198C110.901 180.98 111.657 180.546 112.287 180.546C112.595 180.546 112.791 180.588 113.057 180.672L113.351 179.272C113.113 179.16 112.861 179.104 112.483 179.104C111.657 179.104 110.845 179.692 110.299 180.686H110.257L110.131 179.3H108.815V187ZM117.599 187.182C118.607 187.182 119.489 186.846 120.203 186.37L119.643 185.348C119.083 185.712 118.495 185.922 117.809 185.922C116.479 185.922 115.555 185.04 115.429 183.57H120.427C120.469 183.374 120.511 183.066 120.511 182.744C120.511 180.574 119.405 179.104 117.361 179.104C115.569 179.104 113.847 180.658 113.847 183.15C113.847 185.698 115.513 187.182 117.599 187.182ZM115.415 182.45C115.569 181.106 116.423 180.364 117.389 180.364C118.509 180.364 119.111 181.134 119.111 182.45H115.415ZM124.395 187.182C126.299 187.182 127.321 186.132 127.321 184.844C127.321 183.388 126.131 182.912 125.053 182.506C124.213 182.198 123.457 181.946 123.457 181.288C123.457 180.756 123.849 180.336 124.703 180.336C125.333 180.336 125.879 180.616 126.411 181.008L127.167 180.014C126.551 179.524 125.697 179.104 124.675 179.104C122.967 179.104 121.931 180.07 121.931 181.358C121.931 182.66 123.065 183.206 124.101 183.598C124.927 183.92 125.795 184.228 125.795 184.928C125.795 185.516 125.361 185.964 124.437 185.964C123.611 185.964 122.939 185.614 122.253 185.082L121.497 186.118C122.253 186.734 123.331 187.182 124.395 187.182ZM131.121 187.182C133.025 187.182 134.047 186.132 134.047 184.844C134.047 183.388 132.857 182.912 131.779 182.506C130.939 182.198 130.183 181.946 130.183 181.288C130.183 180.756 130.575 180.336 131.429 180.336C132.059 180.336 132.605 180.616 133.137 181.008L133.893 180.014C133.277 179.524 132.423 179.104 131.401 179.104C129.693 179.104 128.657 180.07 128.657 181.358C128.657 182.66 129.791 183.206 130.827 183.598C131.653 183.92 132.521 184.228 132.521 184.928C132.521 185.516 132.087 185.964 131.163 185.964C130.337 185.964 129.665 185.614 128.979 185.082L128.223 186.118C128.979 186.734 130.057 187.182 131.121 187.182ZM141.566 187.182C142.434 187.182 143.232 186.72 143.806 186.132H143.862L143.988 187H145.304V175.842H143.694V178.698L143.764 179.972C143.134 179.44 142.574 179.104 141.692 179.104C139.97 179.104 138.388 180.658 138.388 183.15C138.388 185.712 139.634 187.182 141.566 187.182ZM141.944 185.852C140.74 185.852 140.054 184.886 140.054 183.136C140.054 181.47 140.922 180.448 142 180.448C142.574 180.448 143.12 180.63 143.694 181.148V184.914C143.134 185.558 142.588 185.852 141.944 185.852ZM150.931 187.182C151.939 187.182 152.821 186.846 153.535 186.37L152.975 185.348C152.415 185.712 151.827 185.922 151.141 185.922C149.811 185.922 148.887 185.04 148.761 183.57H153.759C153.801 183.374 153.843 183.066 153.843 182.744C153.843 180.574 152.737 179.104 150.693 179.104C148.901 179.104 147.179 180.658 147.179 183.15C147.179 185.698 148.845 187.182 150.931 187.182ZM148.747 182.45C148.901 181.106 149.755 180.364 150.721 180.364C151.841 180.364 152.443 181.134 152.443 182.45H148.747ZM27.3222 207H29.1842L31.8442 199.3H30.2762L28.9602 203.444C28.7502 204.2 28.5122 204.984 28.2882 205.74H28.2322C28.0082 204.984 27.7842 204.2 27.5602 203.444L26.2442 199.3H24.5922L27.3222 207ZM33.2571 207H34.8671V199.3H33.2571V207ZM34.0551 197.858C34.6431 197.858 35.0631 197.48 35.0631 196.892C35.0631 196.318 34.6431 195.94 34.0551 195.94C33.4671 195.94 33.0611 196.318 33.0611 196.892C33.0611 197.48 33.4671 197.858 34.0551 197.858ZM39.3626 207.182C41.2666 207.182 42.2886 206.132 42.2886 204.844C42.2886 203.388 41.0986 202.912 40.0206 202.506C39.1806 202.198 38.4246 201.946 38.4246 201.288C38.4246 200.756 38.8166 200.336 39.6706 200.336C40.3006 200.336 40.8466 200.616 41.3786 201.008L42.1346 200.014C41.5186 199.524 40.6646 199.104 39.6426 199.104C37.9346 199.104 36.8986 200.07 36.8986 201.358C36.8986 202.66 38.0326 203.206 39.0686 203.598C39.8946 203.92 40.7626 204.228 40.7626 204.928C40.7626 205.516 40.3286 205.964 39.4046 205.964C38.5786 205.964 37.9066 205.614 37.2206 205.082L36.4646 206.118C37.2206 206.734 38.2986 207.182 39.3626 207.182ZM44.0032 207H45.6132V199.3H44.0032V207ZM44.8012 197.858C45.3892 197.858 45.8092 197.48 45.8092 196.892C45.8092 196.318 45.3892 195.94 44.8012 195.94C44.2132 195.94 43.8072 196.318 43.8072 196.892C43.8072 197.48 44.2132 197.858 44.8012 197.858ZM50.6127 207.182C51.1727 207.182 51.6907 207.042 52.1247 206.902L51.8307 205.712C51.6067 205.81 51.2707 205.894 51.0047 205.894C50.2067 205.894 49.8847 205.418 49.8847 204.494V200.588H51.8867V199.3H49.8847V197.172H48.5407L48.3587 199.3L47.1547 199.384V200.588H48.2747V204.48C48.2747 206.104 48.8767 207.182 50.6127 207.182ZM55.0517 207.182C55.9757 207.182 56.8017 206.72 57.5017 206.118H57.5577L57.6837 207H58.9997V202.366C58.9997 200.322 58.1177 199.104 56.1997 199.104C54.9677 199.104 53.8897 199.608 53.0917 200.112L53.6937 201.204C54.3517 200.784 55.1077 200.42 55.9197 200.42C57.0537 200.42 57.3757 201.204 57.3897 202.1C54.1837 202.45 52.7837 203.304 52.7837 204.956C52.7837 206.314 53.7217 207.182 55.0517 207.182ZM55.5417 205.908C54.8557 205.908 54.3377 205.6 54.3377 204.844C54.3377 203.976 55.1077 203.388 57.3897 203.122V205.012C56.7597 205.586 56.2137 205.908 55.5417 205.908ZM63.3704 207.182C65.2744 207.182 66.2964 206.132 66.2964 204.844C66.2964 203.388 65.1064 202.912 64.0284 202.506C63.1884 202.198 62.4324 201.946 62.4324 201.288C62.4324 200.756 62.8244 200.336 63.6784 200.336C64.3084 200.336 64.8544 200.616 65.3864 201.008L66.1424 200.014C65.5264 199.524 64.6724 199.104 63.6504 199.104C61.9424 199.104 60.9064 200.07 60.9064 201.358C60.9064 202.66 62.0404 203.206 63.0764 203.598C63.9024 203.92 64.7704 204.228 64.7704 204.928C64.7704 205.516 64.3364 205.964 63.4124 205.964C62.5864 205.964 61.9144 205.614 61.2284 205.082L60.4724 206.118C61.2284 206.734 62.3064 207.182 63.3704 207.182ZM73.8155 207.182C74.6835 207.182 75.4815 206.72 76.0555 206.132H76.1115L76.2375 207H77.5535V195.842H75.9435V198.698L76.0135 199.972C75.3835 199.44 74.8235 199.104 73.9415 199.104C72.2195 199.104 70.6375 200.658 70.6375 203.15C70.6375 205.712 71.8835 207.182 73.8155 207.182ZM74.1935 205.852C72.9895 205.852 72.3035 204.886 72.3035 203.136C72.3035 201.47 73.1715 200.448 74.2495 200.448C74.8235 200.448 75.3695 200.63 75.9435 201.148V204.914C75.3835 205.558 74.8375 205.852 74.1935 205.852ZM83.0539 207.182C84.9579 207.182 86.6799 205.712 86.6799 203.15C86.6799 200.588 84.9579 199.104 83.0539 199.104C81.1499 199.104 79.4279 200.588 79.4279 203.15C79.4279 205.712 81.1499 207.182 83.0539 207.182ZM83.0539 205.866C81.8499 205.866 81.0939 204.788 81.0939 203.15C81.0939 201.526 81.8499 200.434 83.0539 200.434C84.2719 200.434 85.0279 201.526 85.0279 203.15C85.0279 204.788 84.2719 205.866 83.0539 205.866ZM88.5735 207H90.1835V201.54C90.8135 200.84 91.3875 200.49 91.9055 200.49C92.7875 200.49 93.1935 201.022 93.1935 202.352V207H94.8035V201.54C95.4475 200.84 96.0075 200.49 96.5395 200.49C97.4075 200.49 97.8275 201.022 97.8275 202.352V207H99.4375V202.156C99.4375 200.196 98.6815 199.104 97.0715 199.104C96.1055 199.104 95.3215 199.706 94.5655 200.518C94.2295 199.636 93.5855 199.104 92.4375 199.104C91.4855 199.104 90.7155 199.678 90.0575 200.378H90.0155L89.8895 199.3H88.5735V207ZM101.767 207H103.377V199.3H101.767V207ZM102.565 197.858C103.153 197.858 103.573 197.48 103.573 196.892C103.573 196.318 103.153 195.94 102.565 195.94C101.977 195.94 101.571 196.318 101.571 196.892C101.571 197.48 101.977 197.858 102.565 197.858ZM108.922 207.182C109.804 207.182 110.714 206.86 111.428 206.23L110.756 205.166C110.294 205.558 109.72 205.866 109.076 205.866C107.802 205.866 106.906 204.788 106.906 203.15C106.906 201.526 107.83 200.434 109.132 200.434C109.65 200.434 110.084 200.658 110.504 201.036L111.302 199.986C110.742 199.496 110.028 199.104 109.048 199.104C107.018 199.104 105.24 200.588 105.24 203.15C105.24 205.712 106.836 207.182 108.922 207.182ZM113.019 207H114.629V199.3H113.019V207ZM113.817 197.858C114.405 197.858 114.825 197.48 114.825 196.892C114.825 196.318 114.405 195.94 113.817 195.94C113.229 195.94 112.823 196.318 112.823 196.892C112.823 197.48 113.229 197.858 113.817 197.858ZM118.634 207.182C119.04 207.182 119.306 207.126 119.502 207.056L119.292 205.838C119.152 205.866 119.096 205.866 119.026 205.866C118.83 205.866 118.648 205.712 118.648 205.278V195.842H117.038V205.194C117.038 206.44 117.472 207.182 118.634 207.182ZM121.208 207H122.818V199.3H121.208V207ZM122.006 197.858C122.594 197.858 123.014 197.48 123.014 196.892C123.014 196.318 122.594 195.94 122.006 195.94C121.418 195.94 121.012 196.318 121.012 196.892C121.012 197.48 121.418 197.858 122.006 197.858ZM127.048 207.182C127.972 207.182 128.798 206.72 129.498 206.118H129.554L129.68 207H130.996V202.366C130.996 200.322 130.114 199.104 128.196 199.104C126.964 199.104 125.886 199.608 125.088 200.112L125.69 201.204C126.348 200.784 127.104 200.42 127.916 200.42C129.05 200.42 129.372 201.204 129.386 202.1C126.18 202.45 124.78 203.304 124.78 204.956C124.78 206.314 125.718 207.182 127.048 207.182ZM127.538 205.908C126.852 205.908 126.334 205.6 126.334 204.844C126.334 203.976 127.104 203.388 129.386 203.122V205.012C128.756 205.586 128.21 205.908 127.538 205.908ZM133.281 207H134.891V202.198C135.367 200.98 136.123 200.546 136.753 200.546C137.061 200.546 137.257 200.588 137.523 200.672L137.817 199.272C137.579 199.16 137.327 199.104 136.949 199.104C136.123 199.104 135.311 199.692 134.765 200.686H134.723L134.597 199.3H133.281V207ZM139.009 207H140.619V199.3H139.009V207ZM139.807 197.858C140.395 197.858 140.815 197.48 140.815 196.892C140.815 196.318 140.395 195.94 139.807 195.94C139.219 195.94 138.813 196.318 138.813 196.892C138.813 197.48 139.219 197.858 139.807 197.858ZM144.849 207.182C145.773 207.182 146.599 206.72 147.299 206.118H147.355L147.481 207H148.797V202.366C148.797 200.322 147.915 199.104 145.997 199.104C144.765 199.104 143.687 199.608 142.889 200.112L143.491 201.204C144.149 200.784 144.905 200.42 145.717 200.42C146.851 200.42 147.173 201.204 147.187 202.1C143.981 202.45 142.581 203.304 142.581 204.956C142.581 206.314 143.519 207.182 144.849 207.182ZM145.339 205.908C144.653 205.908 144.135 205.6 144.135 204.844C144.135 203.976 144.905 203.388 147.187 203.122V205.012C146.557 205.586 146.011 205.908 145.339 205.908ZM153.167 207.182C155.071 207.182 156.093 206.132 156.093 204.844C156.093 203.388 154.903 202.912 153.825 202.506C152.985 202.198 152.229 201.946 152.229 201.288C152.229 200.756 152.621 200.336 153.475 200.336C154.105 200.336 154.651 200.616 155.183 201.008L155.939 200.014C155.323 199.524 154.469 199.104 153.447 199.104C151.739 199.104 150.703 200.07 150.703 201.358C150.703 202.66 151.837 203.206 152.873 203.598C153.699 203.92 154.567 204.228 154.567 204.928C154.567 205.516 154.133 205.964 153.209 205.964C152.383 205.964 151.711 205.614 151.025 205.082L150.269 206.118C151.025 206.734 152.103 207.182 153.167 207.182Z" fill="#484545"/>
<path d="M304.373 187H305.829V181.904C305.829 180.98 305.703 179.65 305.633 178.712H305.689L306.501 181.092L308.307 186.006H309.315L311.107 181.092L311.933 178.712H311.989C311.905 179.65 311.779 180.98 311.779 181.904V187H313.291V176.682H311.415L309.553 181.904C309.315 182.59 309.119 183.29 308.881 183.976H308.811C308.573 183.29 308.363 182.59 308.125 181.904L306.235 176.682H304.373V187ZM317.674 187.182C318.598 187.182 319.424 186.72 320.124 186.118H320.18L320.306 187H321.622V182.366C321.622 180.322 320.74 179.104 318.822 179.104C317.59 179.104 316.512 179.608 315.714 180.112L316.316 181.204C316.974 180.784 317.73 180.42 318.542 180.42C319.676 180.42 319.998 181.204 320.012 182.1C316.806 182.45 315.406 183.304 315.406 184.956C315.406 186.314 316.344 187.182 317.674 187.182ZM318.164 185.908C317.478 185.908 316.96 185.6 316.96 184.844C316.96 183.976 317.73 183.388 320.012 183.122V185.012C319.382 185.586 318.836 185.908 318.164 185.908ZM326.264 187.182C326.824 187.182 327.342 187.042 327.776 186.902L327.482 185.712C327.258 185.81 326.922 185.894 326.656 185.894C325.858 185.894 325.536 185.418 325.536 184.494V180.588H327.538V179.3H325.536V177.172H324.192L324.01 179.3L322.806 179.384V180.588H323.926V184.48C323.926 186.104 324.528 187.182 326.264 187.182ZM332.198 187.182C333.206 187.182 334.088 186.846 334.802 186.37L334.242 185.348C333.682 185.712 333.094 185.922 332.408 185.922C331.078 185.922 330.154 185.04 330.028 183.57H335.026C335.068 183.374 335.11 183.066 335.11 182.744C335.11 180.574 334.004 179.104 331.96 179.104C330.168 179.104 328.446 180.658 328.446 183.15C328.446 185.698 330.112 187.182 332.198 187.182ZM330.014 182.45C330.168 181.106 331.022 180.364 331.988 180.364C333.108 180.364 333.71 181.134 333.71 182.45H330.014ZM336.908 187H338.518V182.198C338.994 180.98 339.75 180.546 340.38 180.546C340.688 180.546 340.884 180.588 341.15 180.672L341.444 179.272C341.206 179.16 340.954 179.104 340.576 179.104C339.75 179.104 338.938 179.692 338.392 180.686H338.35L338.224 179.3H336.908V187ZM342.637 187H344.247V179.3H342.637V187ZM343.435 177.858C344.023 177.858 344.443 177.48 344.443 176.892C344.443 176.318 344.023 175.94 343.435 175.94C342.847 175.94 342.441 176.318 342.441 176.892C342.441 177.48 342.847 177.858 343.435 177.858ZM348.476 187.182C349.4 187.182 350.226 186.72 350.926 186.118H350.982L351.108 187H352.424V182.366C352.424 180.322 351.542 179.104 349.624 179.104C348.392 179.104 347.314 179.608 346.516 180.112L347.118 181.204C347.776 180.784 348.532 180.42 349.344 180.42C350.478 180.42 350.8 181.204 350.814 182.1C347.608 182.45 346.208 183.304 346.208 184.956C346.208 186.314 347.146 187.182 348.476 187.182ZM348.966 185.908C348.28 185.908 347.762 185.6 347.762 184.844C347.762 183.976 348.532 183.388 350.814 183.122V185.012C350.184 185.586 349.638 185.908 348.966 185.908ZM356.305 187.182C356.711 187.182 356.977 187.126 357.173 187.056L356.963 185.838C356.823 185.866 356.767 185.866 356.697 185.866C356.501 185.866 356.319 185.712 356.319 185.278V175.842H354.709V185.194C354.709 186.44 355.143 187.182 356.305 187.182ZM365.23 187.182C366.238 187.182 367.12 186.846 367.834 186.37L367.274 185.348C366.714 185.712 366.126 185.922 365.44 185.922C364.11 185.922 363.186 185.04 363.06 183.57H368.058C368.1 183.374 368.142 183.066 368.142 182.744C368.142 180.574 367.036 179.104 364.992 179.104C363.2 179.104 361.478 180.658 361.478 183.15C361.478 185.698 363.144 187.182 365.23 187.182ZM363.046 182.45C363.2 181.106 364.054 180.364 365.02 180.364C366.14 180.364 366.742 181.134 366.742 182.45H363.046ZM372.6 187.182C373.468 187.182 374.266 186.72 374.84 186.132H374.896L375.022 187H376.338V175.842H374.728V178.698L374.798 179.972C374.168 179.44 373.608 179.104 372.726 179.104C371.004 179.104 369.422 180.658 369.422 183.15C369.422 185.712 370.668 187.182 372.6 187.182ZM372.978 185.852C371.774 185.852 371.088 184.886 371.088 183.136C371.088 181.47 371.956 180.448 373.034 180.448C373.608 180.448 374.154 180.63 374.728 181.148V184.914C374.168 185.558 373.622 185.852 372.978 185.852ZM381.026 187.182C382.076 187.182 382.832 186.65 383.532 185.838H383.574L383.7 187H385.016V179.3H383.406V184.648C382.762 185.46 382.272 185.796 381.558 185.796C380.648 185.796 380.27 185.264 380.27 183.948V179.3H378.66V184.144C378.66 186.104 379.374 187.182 381.026 187.182ZM390.576 187.182C391.458 187.182 392.368 186.86 393.082 186.23L392.41 185.166C391.948 185.558 391.374 185.866 390.73 185.866C389.456 185.866 388.56 184.788 388.56 183.15C388.56 181.526 389.484 180.434 390.786 180.434C391.304 180.434 391.738 180.658 392.158 181.036L392.956 179.986C392.396 179.496 391.682 179.104 390.702 179.104C388.672 179.104 386.894 180.588 386.894 183.15C386.894 185.712 388.49 187.182 390.576 187.182ZM396.342 187.182C397.266 187.182 398.092 186.72 398.792 186.118H398.848L398.974 187H400.29V182.366C400.29 180.322 399.408 179.104 397.49 179.104C396.258 179.104 395.18 179.608 394.382 180.112L394.984 181.204C395.642 180.784 396.398 180.42 397.21 180.42C398.344 180.42 398.666 181.204 398.68 182.1C395.474 182.45 394.074 183.304 394.074 184.956C394.074 186.314 395.012 187.182 396.342 187.182ZM396.832 185.908C396.146 185.908 395.628 185.6 395.628 184.844C395.628 183.976 396.398 183.388 398.68 183.122V185.012C398.05 185.586 397.504 185.908 396.832 185.908ZM404.932 187.182C405.492 187.182 406.01 187.042 406.444 186.902L406.15 185.712C405.926 185.81 405.59 185.894 405.324 185.894C404.526 185.894 404.204 185.418 404.204 184.494V180.588H406.206V179.3H404.204V177.172H402.86L402.678 179.3L401.474 179.384V180.588H402.594V184.48C402.594 186.104 403.196 187.182 404.932 187.182ZM407.893 187H409.503V179.3H407.893V187ZM408.691 177.858C409.279 177.858 409.699 177.48 409.699 176.892C409.699 176.318 409.279 175.94 408.691 175.94C408.103 175.94 407.697 176.318 407.697 176.892C407.697 177.48 408.103 177.858 408.691 177.858ZM413.606 187H415.468L418.128 179.3H416.56L415.244 183.444C415.034 184.2 414.796 184.984 414.572 185.74H414.516C414.292 184.984 414.068 184.2 413.844 183.444L412.528 179.3H410.876L413.606 187ZM422.539 187.182C424.443 187.182 426.165 185.712 426.165 183.15C426.165 180.588 424.443 179.104 422.539 179.104C420.635 179.104 418.913 180.588 418.913 183.15C418.913 185.712 420.635 187.182 422.539 187.182ZM422.539 185.866C421.335 185.866 420.579 184.788 420.579 183.15C420.579 181.526 421.335 180.434 422.539 180.434C423.757 180.434 424.513 181.526 424.513 183.15C424.513 184.788 423.757 185.866 422.539 185.866ZM304.329 207.182C305.197 207.182 305.995 206.72 306.569 206.132H306.625L306.751 207H308.067V195.842H306.457V198.698L306.527 199.972C305.897 199.44 305.337 199.104 304.455 199.104C302.733 199.104 301.151 200.658 301.151 203.15C301.151 205.712 302.397 207.182 304.329 207.182ZM304.707 205.852C303.503 205.852 302.817 204.886 302.817 203.136C302.817 201.47 303.685 200.448 304.763 200.448C305.337 200.448 305.883 200.63 306.457 201.148V204.914C305.897 205.558 305.351 205.852 304.707 205.852ZM310.488 207H312.098V199.3H310.488V207ZM311.286 197.858C311.874 197.858 312.294 197.48 312.294 196.892C312.294 196.318 311.874 195.94 311.286 195.94C310.698 195.94 310.292 196.318 310.292 196.892C310.292 197.48 310.698 197.858 311.286 197.858ZM316.593 207.182C318.497 207.182 319.519 206.132 319.519 204.844C319.519 203.388 318.329 202.912 317.251 202.506C316.411 202.198 315.655 201.946 315.655 201.288C315.655 200.756 316.047 200.336 316.901 200.336C317.531 200.336 318.077 200.616 318.609 201.008L319.365 200.014C318.749 199.524 317.895 199.104 316.873 199.104C315.165 199.104 314.129 200.07 314.129 201.358C314.129 202.66 315.263 203.206 316.299 203.598C317.125 203.92 317.993 204.228 317.993 204.928C317.993 205.516 317.559 205.964 316.635 205.964C315.809 205.964 315.137 205.614 314.451 205.082L313.695 206.118C314.451 206.734 315.529 207.182 316.593 207.182ZM321.234 210.122H322.844V207.63L322.788 206.314C323.446 206.874 324.132 207.182 324.818 207.182C326.554 207.182 328.136 205.67 328.136 203.024C328.136 200.658 327.044 199.104 325.098 199.104C324.23 199.104 323.39 199.58 322.718 200.14H322.676L322.55 199.3H321.234V210.122ZM324.51 205.852C324.034 205.852 323.446 205.67 322.844 205.152V201.386C323.488 200.756 324.062 200.448 324.664 200.448C325.952 200.448 326.47 201.442 326.47 203.052C326.47 204.858 325.63 205.852 324.51 205.852ZM333.132 207.182C335.036 207.182 336.758 205.712 336.758 203.15C336.758 200.588 335.036 199.104 333.132 199.104C331.228 199.104 329.506 200.588 329.506 203.15C329.506 205.712 331.228 207.182 333.132 207.182ZM333.132 205.866C331.928 205.866 331.172 204.788 331.172 203.15C331.172 201.526 331.928 200.434 333.132 200.434C334.35 200.434 335.106 201.526 335.106 203.15C335.106 204.788 334.35 205.866 333.132 205.866ZM338.652 207H340.262V201.54C340.934 200.854 341.424 200.49 342.138 200.49C343.048 200.49 343.44 201.022 343.44 202.352V207H345.05V202.156C345.05 200.196 344.322 199.104 342.684 199.104C341.634 199.104 340.85 199.678 340.136 200.364H340.094L339.968 199.3H338.652V207ZM347.388 207H348.998V199.3H347.388V207ZM348.186 197.858C348.774 197.858 349.194 197.48 349.194 196.892C349.194 196.318 348.774 195.94 348.186 195.94C347.598 195.94 347.192 196.318 347.192 196.892C347.192 197.48 347.598 197.858 348.186 197.858ZM354.991 207.182C356.727 207.182 358.309 205.67 358.309 203.024C358.309 200.658 357.203 199.104 355.257 199.104C354.445 199.104 353.619 199.538 352.961 200.112L353.017 198.796V195.842H351.407V207H352.667L352.821 206.202H352.863C353.521 206.818 354.291 207.182 354.991 207.182ZM354.683 205.852C354.207 205.852 353.605 205.67 353.017 205.152V201.386C353.647 200.756 354.235 200.448 354.837 200.448C356.125 200.448 356.643 201.442 356.643 203.052C356.643 204.858 355.803 205.852 354.683 205.852ZM361.808 207.182C362.214 207.182 362.48 207.126 362.676 207.056L362.466 205.838C362.326 205.866 362.27 205.866 362.2 205.866C362.004 205.866 361.822 205.712 361.822 205.278V195.842H360.212V205.194C360.212 206.44 360.646 207.182 361.808 207.182ZM367.588 207.182C368.596 207.182 369.478 206.846 370.192 206.37L369.632 205.348C369.072 205.712 368.484 205.922 367.798 205.922C366.468 205.922 365.544 205.04 365.418 203.57H370.416C370.458 203.374 370.5 203.066 370.5 202.744C370.5 200.574 369.394 199.104 367.35 199.104C365.558 199.104 363.836 200.658 363.836 203.15C363.836 205.698 365.502 207.182 367.588 207.182ZM365.404 202.45C365.558 201.106 366.412 200.364 367.378 200.364C368.498 200.364 369.1 201.134 369.1 202.45H365.404ZM378.649 207.182C379.657 207.182 380.539 206.846 381.253 206.37L380.693 205.348C380.133 205.712 379.545 205.922 378.859 205.922C377.529 205.922 376.605 205.04 376.479 203.57H381.477C381.519 203.374 381.561 203.066 381.561 202.744C381.561 200.574 380.455 199.104 378.411 199.104C376.619 199.104 374.897 200.658 374.897 203.15C374.897 205.698 376.563 207.182 378.649 207.182ZM376.465 202.45C376.619 201.106 377.473 200.364 378.439 200.364C379.559 200.364 380.161 201.134 380.161 202.45H376.465ZM383.359 207H384.969V201.54C385.641 200.854 386.131 200.49 386.845 200.49C387.755 200.49 388.147 201.022 388.147 202.352V207H389.757V202.156C389.757 200.196 389.029 199.104 387.391 199.104C386.341 199.104 385.557 199.678 384.843 200.364H384.801L384.675 199.3H383.359V207ZM395.239 207H396.849V201.54C397.479 200.84 398.053 200.49 398.571 200.49C399.453 200.49 399.859 201.022 399.859 202.352V207H401.469V201.54C402.113 200.84 402.673 200.49 403.205 200.49C404.073 200.49 404.493 201.022 404.493 202.352V207H406.103V202.156C406.103 200.196 405.347 199.104 403.737 199.104C402.771 199.104 401.987 199.706 401.231 200.518C400.895 199.636 400.251 199.104 399.103 199.104C398.151 199.104 397.381 199.678 396.723 200.378H396.681L396.555 199.3H395.239V207ZM411.639 207.182C412.647 207.182 413.529 206.846 414.243 206.37L413.683 205.348C413.123 205.712 412.535 205.922 411.849 205.922C410.519 205.922 409.595 205.04 409.469 203.57H414.467C414.509 203.374 414.551 203.066 414.551 202.744C414.551 200.574 413.445 199.104 411.401 199.104C409.609 199.104 407.887 200.658 407.887 203.15C407.887 205.698 409.553 207.182 411.639 207.182ZM409.455 202.45C409.609 201.106 410.463 200.364 411.429 200.364C412.549 200.364 413.151 201.134 413.151 202.45H409.455ZM416.349 207H417.959V201.54C418.631 200.854 419.121 200.49 419.835 200.49C420.745 200.49 421.137 201.022 421.137 202.352V207H422.747V202.156C422.747 200.196 422.019 199.104 420.381 199.104C419.331 199.104 418.547 199.678 417.833 200.364H417.791L417.665 199.3H416.349V207ZM427.353 207.182C428.403 207.182 429.159 206.65 429.859 205.838H429.901L430.027 207H431.343V199.3H429.733V204.648C429.089 205.46 428.599 205.796 427.885 205.796C426.975 205.796 426.597 205.264 426.597 203.948V199.3H424.987V204.144C424.987 206.104 425.701 207.182 427.353 207.182ZM428.109 197.984L430.685 195.548L429.579 194.484L427.283 197.186L428.109 197.984Z" fill="#484545"/>
<path d="M596.466 187.182C599.112 187.182 600.96 185.124 600.96 181.806C600.96 178.488 599.112 176.5 596.466 176.5C593.82 176.5 591.986 178.488 591.986 181.806C591.986 185.124 593.82 187.182 596.466 187.182ZM596.466 185.768C594.758 185.768 593.652 184.214 593.652 181.806C593.652 179.384 594.758 177.914 596.466 177.914C598.174 177.914 599.294 179.384 599.294 181.806C599.294 184.214 598.174 185.768 596.466 185.768ZM606.544 187.182C608.28 187.182 609.862 185.67 609.862 183.024C609.862 180.658 608.756 179.104 606.81 179.104C605.998 179.104 605.172 179.538 604.514 180.112L604.57 178.796V175.842H602.96V187H604.22L604.374 186.202H604.416C605.074 186.818 605.844 187.182 606.544 187.182ZM606.236 185.852C605.76 185.852 605.158 185.67 604.57 185.152V181.386C605.2 180.756 605.788 180.448 606.39 180.448C607.678 180.448 608.196 181.442 608.196 183.052C608.196 184.858 607.356 185.852 606.236 185.852ZM613.81 187.182C615.714 187.182 616.736 186.132 616.736 184.844C616.736 183.388 615.546 182.912 614.468 182.506C613.628 182.198 612.872 181.946 612.872 181.288C612.872 180.756 613.264 180.336 614.118 180.336C614.748 180.336 615.294 180.616 615.826 181.008L616.582 180.014C615.966 179.524 615.112 179.104 614.09 179.104C612.382 179.104 611.346 180.07 611.346 181.358C611.346 182.66 612.48 183.206 613.516 183.598C614.342 183.92 615.21 184.228 615.21 184.928C615.21 185.516 614.776 185.964 613.852 185.964C613.026 185.964 612.354 185.614 611.668 185.082L610.912 186.118C611.668 186.734 612.746 187.182 613.81 187.182ZM621.656 187.182C622.664 187.182 623.546 186.846 624.26 186.37L623.7 185.348C623.14 185.712 622.552 185.922 621.866 185.922C620.536 185.922 619.612 185.04 619.486 183.57H624.484C624.526 183.374 624.568 183.066 624.568 182.744C624.568 180.574 623.462 179.104 621.418 179.104C619.626 179.104 617.904 180.658 617.904 183.15C617.904 185.698 619.57 187.182 621.656 187.182ZM619.472 182.45C619.626 181.106 620.48 180.364 621.446 180.364C622.566 180.364 623.168 181.134 623.168 182.45H619.472ZM626.366 187H627.976V182.198C628.452 180.98 629.208 180.546 629.838 180.546C630.146 180.546 630.342 180.588 630.608 180.672L630.902 179.272C630.664 179.16 630.412 179.104 630.034 179.104C629.208 179.104 628.396 179.692 627.85 180.686H627.808L627.682 179.3H626.366V187ZM634.103 187H635.965L638.625 179.3H637.057L635.741 183.444C635.531 184.2 635.293 184.984 635.069 185.74H635.013C634.789 184.984 634.565 184.2 634.341 183.444L633.025 179.3H631.373L634.103 187ZM641.544 187.182C642.468 187.182 643.294 186.72 643.994 186.118H644.05L644.176 187H645.492V182.366C645.492 180.322 644.61 179.104 642.692 179.104C641.46 179.104 640.382 179.608 639.584 180.112L640.186 181.204C640.844 180.784 641.6 180.42 642.412 180.42C643.546 180.42 643.868 181.204 643.882 182.1C640.676 182.45 639.276 183.304 639.276 184.956C639.276 186.314 640.214 187.182 641.544 187.182ZM642.034 185.908C641.348 185.908 640.83 185.6 640.83 184.844C640.83 183.976 641.6 183.388 643.882 183.122V185.012C643.252 185.586 642.706 185.908 642.034 185.908ZM650.913 187.182C651.795 187.182 652.705 186.86 653.419 186.23L652.747 185.166C652.285 185.558 651.711 185.866 651.067 185.866C649.793 185.866 648.897 184.788 648.897 183.15C648.897 181.526 649.821 180.434 651.123 180.434C651.641 180.434 652.075 180.658 652.495 181.036L653.293 179.986C652.733 179.496 652.019 179.104 651.039 179.104C649.009 179.104 647.231 180.588 647.231 183.15C647.231 185.712 648.827 187.182 650.913 187.182ZM655.009 187H656.619V179.3H655.009V187ZM655.807 177.858C656.395 177.858 656.815 177.48 656.815 176.892C656.815 176.318 656.395 175.94 655.807 175.94C655.219 175.94 654.813 176.318 654.813 176.892C654.813 177.48 655.219 177.858 655.807 177.858ZM662.109 187.182C664.013 187.182 665.735 185.712 665.735 183.15C665.735 180.588 664.013 179.104 662.109 179.104C660.205 179.104 658.483 180.588 658.483 183.15C658.483 185.712 660.205 187.182 662.109 187.182ZM662.109 185.866C660.905 185.866 660.149 184.788 660.149 183.15C660.149 181.526 660.905 180.434 662.109 180.434C663.327 180.434 664.083 181.526 664.083 183.15C664.083 184.788 663.327 185.866 662.109 185.866ZM667.628 187H669.238V181.54C669.91 180.854 670.4 180.49 671.114 180.49C672.024 180.49 672.416 181.022 672.416 182.352V187H674.026V182.156C674.026 180.196 673.298 179.104 671.66 179.104C670.61 179.104 669.826 179.678 669.112 180.364H669.07L668.944 179.3H667.628V187ZM679.57 187.182C680.578 187.182 681.46 186.846 682.174 186.37L681.614 185.348C681.054 185.712 680.466 185.922 679.78 185.922C678.45 185.922 677.526 185.04 677.4 183.57H682.398C682.44 183.374 682.482 183.066 682.482 182.744C682.482 180.574 681.376 179.104 679.332 179.104C677.54 179.104 675.818 180.658 675.818 183.15C675.818 185.698 677.484 187.182 679.57 187.182ZM677.386 182.45C677.54 181.106 678.394 180.364 679.36 180.364C680.48 180.364 681.082 181.134 681.082 182.45H677.386ZM686.367 187.182C688.271 187.182 689.293 186.132 689.293 184.844C689.293 183.388 688.103 182.912 687.025 182.506C686.185 182.198 685.429 181.946 685.429 181.288C685.429 180.756 685.821 180.336 686.675 180.336C687.305 180.336 687.851 180.616 688.383 181.008L689.139 180.014C688.523 179.524 687.669 179.104 686.647 179.104C684.939 179.104 683.903 180.07 683.903 181.358C683.903 182.66 685.037 183.206 686.073 183.598C686.899 183.92 687.767 184.228 687.767 184.928C687.767 185.516 687.333 185.964 686.409 185.964C685.583 185.964 684.91 185.614 684.225 185.082L683.469 186.118C684.225 186.734 685.303 187.182 686.367 187.182ZM696.812 187.182C697.68 187.182 698.478 186.72 699.052 186.132H699.108L699.234 187H700.55V175.842H698.94V178.698L699.01 179.972C698.38 179.44 697.82 179.104 696.938 179.104C695.216 179.104 693.634 180.658 693.634 183.15C693.634 185.712 694.88 187.182 696.812 187.182ZM697.19 185.852C695.986 185.852 695.3 184.886 695.3 183.136C695.3 181.47 696.168 180.448 697.246 180.448C697.82 180.448 698.366 180.63 698.94 181.148V184.914C698.38 185.558 697.834 185.852 697.19 185.852ZM706.176 187.182C707.184 187.182 708.066 186.846 708.78 186.37L708.22 185.348C707.66 185.712 707.072 185.922 706.386 185.922C705.056 185.922 704.132 185.04 704.006 183.57H709.004C709.046 183.374 709.088 183.066 709.088 182.744C709.088 180.574 707.982 179.104 705.938 179.104C704.146 179.104 702.424 180.658 702.424 183.15C702.424 185.698 704.09 187.182 706.176 187.182ZM703.992 182.45C704.146 181.106 705 180.364 705.966 180.364C707.086 180.364 707.688 181.134 707.688 182.45H703.992ZM571.617 207H573.227V202.198C573.703 200.98 574.459 200.546 575.089 200.546C575.397 200.546 575.593 200.588 575.859 200.672L576.153 199.272C575.915 199.16 575.663 199.104 575.285 199.104C574.459 199.104 573.647 199.692 573.101 200.686H573.059L572.933 199.3H571.617V207ZM580.402 207.182C581.41 207.182 582.292 206.846 583.006 206.37L582.446 205.348C581.886 205.712 581.298 205.922 580.612 205.922C579.282 205.922 578.358 205.04 578.232 203.57H583.23C583.272 203.374 583.314 203.066 583.314 202.744C583.314 200.574 582.208 199.104 580.164 199.104C578.372 199.104 576.65 200.658 576.65 203.15C576.65 205.698 578.316 207.182 580.402 207.182ZM578.218 202.45C578.372 201.106 579.226 200.364 580.192 200.364C581.312 200.364 581.914 201.134 581.914 202.45H578.218ZM587.593 210.458C590.057 210.458 591.625 209.254 591.625 207.77C591.625 206.454 590.673 205.894 588.853 205.894H587.439C586.459 205.894 586.151 205.6 586.151 205.138C586.151 204.76 586.319 204.55 586.571 204.326C586.907 204.48 587.299 204.564 587.649 204.564C589.259 204.564 590.533 203.598 590.533 201.918C590.533 201.33 590.323 200.812 590.029 200.504H591.499V199.3H588.769C588.475 199.188 588.083 199.104 587.649 199.104C586.053 199.104 584.667 200.126 584.667 201.862C584.667 202.786 585.157 203.514 585.689 203.92V203.976C585.255 204.284 584.821 204.802 584.821 205.404C584.821 206.034 585.129 206.44 585.521 206.678V206.748C584.807 207.182 584.401 207.784 584.401 208.428C584.401 209.772 585.745 210.458 587.593 210.458ZM587.649 203.528C586.851 203.528 586.193 202.898 586.193 201.862C586.193 200.826 586.837 200.238 587.649 200.238C588.461 200.238 589.105 200.84 589.105 201.862C589.105 202.898 588.447 203.528 587.649 203.528ZM587.831 209.394C586.557 209.394 585.773 208.946 585.773 208.19C585.773 207.798 585.969 207.406 586.431 207.07C586.753 207.14 587.103 207.182 587.467 207.182H588.629C589.567 207.182 590.071 207.378 590.071 208.022C590.071 208.736 589.175 209.394 587.831 209.394ZM593.055 207H594.665V199.3H593.055V207ZM593.853 197.858C594.441 197.858 594.861 197.48 594.861 196.892C594.861 196.318 594.441 195.94 593.853 195.94C593.265 195.94 592.859 196.318 592.859 196.892C592.859 197.48 593.265 197.858 593.853 197.858ZM599.16 207.182C601.064 207.182 602.086 206.132 602.086 204.844C602.086 203.388 600.896 202.912 599.818 202.506C598.978 202.198 598.222 201.946 598.222 201.288C598.222 200.756 598.614 200.336 599.468 200.336C600.098 200.336 600.644 200.616 601.176 201.008L601.932 200.014C601.316 199.524 600.462 199.104 599.44 199.104C597.732 199.104 596.696 200.07 596.696 201.358C596.696 202.66 597.83 203.206 598.866 203.598C599.692 203.92 600.56 204.228 600.56 204.928C600.56 205.516 600.126 205.964 599.202 205.964C598.376 205.964 597.704 205.614 597.018 205.082L596.262 206.118C597.018 206.734 598.096 207.182 599.16 207.182ZM606.077 207.182C606.637 207.182 607.155 207.042 607.589 206.902L607.295 205.712C607.071 205.81 606.735 205.894 606.469 205.894C605.671 205.894 605.349 205.418 605.349 204.494V200.588H607.351V199.3H605.349V197.172H604.005L603.823 199.3L602.619 199.384V200.588H603.739V204.48C603.739 206.104 604.341 207.182 606.077 207.182ZM609.037 207H610.647V202.198C611.123 200.98 611.879 200.546 612.509 200.546C612.817 200.546 613.013 200.588 613.279 200.672L613.573 199.272C613.335 199.16 613.083 199.104 612.705 199.104C611.879 199.104 611.067 199.692 610.521 200.686H610.479L610.353 199.3H609.037V207ZM617.695 207.182C619.599 207.182 621.321 205.712 621.321 203.15C621.321 200.588 619.599 199.104 617.695 199.104C615.791 199.104 614.069 200.588 614.069 203.15C614.069 205.712 615.791 207.182 617.695 207.182ZM617.695 205.866C616.491 205.866 615.735 204.788 615.735 203.15C615.735 201.526 616.491 200.434 617.695 200.434C618.913 200.434 619.669 201.526 619.669 203.15C619.669 204.788 618.913 205.866 617.695 205.866ZM629.496 207.182C630.378 207.182 631.288 206.86 632.002 206.23L631.33 205.166C630.868 205.558 630.294 205.866 629.65 205.866C628.376 205.866 627.48 204.788 627.48 203.15C627.48 201.526 628.404 200.434 629.706 200.434C630.224 200.434 630.658 200.658 631.078 201.036L631.876 199.986C631.316 199.496 630.602 199.104 629.622 199.104C627.592 199.104 625.814 200.588 625.814 203.15C625.814 205.712 627.41 207.182 629.496 207.182ZM636.303 207.182C638.207 207.182 639.929 205.712 639.929 203.15C639.929 200.588 638.207 199.104 636.303 199.104C634.399 199.104 632.677 200.588 632.677 203.15C632.677 205.712 634.399 207.182 636.303 207.182ZM636.303 205.866C635.099 205.866 634.343 204.788 634.343 203.15C634.343 201.526 635.099 200.434 636.303 200.434C637.521 200.434 638.277 201.526 638.277 203.15C638.277 204.788 637.521 205.866 636.303 205.866ZM641.822 207H643.432V201.54C644.104 200.854 644.594 200.49 645.308 200.49C646.218 200.49 646.61 201.022 646.61 202.352V207H648.22V202.156C648.22 200.196 647.492 199.104 645.854 199.104C644.804 199.104 644.02 199.678 643.306 200.364H643.264L643.138 199.3H641.822V207ZM655.523 207.182C656.447 207.182 657.273 206.72 657.973 206.118H658.029L658.155 207H659.471V202.366C659.471 200.322 658.589 199.104 656.671 199.104C655.439 199.104 654.361 199.608 653.563 200.112L654.165 201.204C654.823 200.784 655.579 200.42 656.391 200.42C657.525 200.42 657.847 201.204 657.861 202.1C654.655 202.45 653.255 203.304 653.255 204.956C653.255 206.314 654.193 207.182 655.523 207.182ZM656.013 205.908C655.327 205.908 654.809 205.6 654.809 204.844C654.809 203.976 655.579 203.388 657.861 203.122V205.012C657.231 205.586 656.685 205.908 656.013 205.908ZM664.024 207.182C665.074 207.182 665.83 206.65 666.53 205.838H666.572L666.698 207H668.014V199.3H666.404V204.648C665.76 205.46 665.27 205.796 664.556 205.796C663.646 205.796 663.268 205.264 663.268 203.948V199.3H661.658V204.144C661.658 206.104 662.372 207.182 664.024 207.182ZM673.028 207.182C673.588 207.182 674.106 207.042 674.54 206.902L674.246 205.712C674.022 205.81 673.686 205.894 673.42 205.894C672.622 205.894 672.3 205.418 672.3 204.494V200.588H674.302V199.3H672.3V197.172H670.956L670.774 199.3L669.57 199.384V200.588H670.69V204.48C670.69 206.104 671.292 207.182 673.028 207.182ZM678.836 207.182C680.74 207.182 682.462 205.712 682.462 203.15C682.462 200.588 680.74 199.104 678.836 199.104C676.932 199.104 675.21 200.588 675.21 203.15C675.21 205.712 676.932 207.182 678.836 207.182ZM678.836 205.866C677.632 205.866 676.876 204.788 676.876 203.15C676.876 201.526 677.632 200.434 678.836 200.434C680.054 200.434 680.81 201.526 680.81 203.15C680.81 204.788 680.054 205.866 678.836 205.866ZM685.952 207.182C686.358 207.182 686.624 207.126 686.82 207.056L686.61 205.838C686.47 205.866 686.414 205.866 686.344 205.866C686.148 205.866 685.966 205.712 685.966 205.278V195.842H684.356V205.194C684.356 206.44 684.79 207.182 685.952 207.182ZM690.122 207.182C690.528 207.182 690.794 207.126 690.99 207.056L690.78 205.838C690.64 205.866 690.584 205.866 690.514 205.866C690.318 205.866 690.136 205.712 690.136 205.278V195.842H688.526V205.194C688.526 206.44 688.96 207.182 690.122 207.182ZM695.902 207.182C696.91 207.182 697.792 206.846 698.506 206.37L697.946 205.348C697.386 205.712 696.798 205.922 696.112 205.922C694.782 205.922 693.858 205.04 693.732 203.57H698.73C698.772 203.374 698.814 203.066 698.814 202.744C698.814 200.574 697.708 199.104 695.664 199.104C693.872 199.104 692.15 200.658 692.15 203.15C692.15 205.698 693.816 207.182 695.902 207.182ZM693.718 202.45C693.872 201.106 694.726 200.364 695.692 200.364C696.812 200.364 697.414 201.134 697.414 202.45H693.718ZM700.612 207H702.222V201.54C702.894 200.854 703.384 200.49 704.098 200.49C705.008 200.49 705.4 201.022 705.4 202.352V207H707.01V202.156C707.01 200.196 706.282 199.104 704.644 199.104C703.594 199.104 702.81 199.678 702.096 200.364H702.054L701.928 199.3H700.612V207ZM711.168 207.182C712.092 207.182 712.918 206.72 713.618 206.118H713.674L713.8 207H715.116V202.366C715.116 200.322 714.234 199.104 712.316 199.104C711.084 199.104 710.006 199.608 709.208 200.112L709.81 201.204C710.468 200.784 711.224 200.42 712.036 200.42C713.17 200.42 713.492 201.204 713.506 202.1C710.3 202.45 708.9 203.304 708.9 204.956C708.9 206.314 709.838 207.182 711.168 207.182ZM711.658 205.908C710.972 205.908 710.454 205.6 710.454 204.844C710.454 203.976 711.224 203.388 713.506 203.122V205.012C712.876 205.586 712.33 205.908 711.658 205.908ZM720.061 207.182C720.929 207.182 721.727 206.72 722.301 206.132H722.357L722.483 207H723.799V195.842H722.189V198.698L722.259 199.972C721.629 199.44 721.069 199.104 720.187 199.104C718.465 199.104 716.883 200.658 716.883 203.15C716.883 205.712 718.129 207.182 720.061 207.182ZM720.439 205.852C719.235 205.852 718.549 204.886 718.549 203.136C718.549 201.47 719.417 200.448 720.495 200.448C721.069 200.448 721.615 200.63 722.189 201.148V204.914C721.629 205.558 721.083 205.852 720.439 205.852ZM729.299 207.182C731.203 207.182 732.925 205.712 732.925 203.15C732.925 200.588 731.203 199.104 729.299 199.104C727.395 199.104 725.673 200.588 725.673 203.15C725.673 205.712 727.395 207.182 729.299 207.182ZM729.299 205.866C728.095 205.866 727.339 204.788 727.339 203.15C727.339 201.526 728.095 200.434 729.299 200.434C730.517 200.434 731.273 201.526 731.273 203.15C731.273 204.788 730.517 205.866 729.299 205.866Z" fill="#484545"/>
<defs>
<filter id="filter0_b" x="388.112" y="-18.6387" width="103.388" height="208.639" filterUnits="userSpaceOnUse" color-interpolation-filters="sRGB">
<feFlood flood-opacity="0" result="BackgroundImageFix"/>
<feGaussianBlur in="BackgroundImage" stdDeviation="15"/>
<feComposite in2="SourceAlpha" operator="in" result="effect1_backgroundBlur"/>
<feBlend mode="normal" in="SourceGraphic" in2="effect1_backgroundBlur" result="shape"/>
</filter>
</defs>
</svg>
