<svg width="775" height="228" viewBox="0 0 775 228" fill="none" xmlns="http://www.w3.org/2000/svg">
<path d="M57.5426 204H59.1666V200.094H60.7206C62.9606 200.094 64.5986 199.058 64.5986 196.804C64.5986 194.48 62.9606 193.682 60.6646 193.682H57.5426V204ZM59.1666 198.792V194.998H60.5106C62.1486 194.998 63.0026 195.446 63.0026 196.804C63.0026 198.162 62.2186 198.792 60.5666 198.792H59.1666ZM66.467 204H68.077V199.198C68.553 197.98 69.309 197.546 69.939 197.546C70.247 197.546 70.443 197.588 70.709 197.672L71.003 196.272C70.765 196.16 70.513 196.104 70.135 196.104C69.309 196.104 68.497 196.692 67.951 197.686H67.909L67.783 196.3H66.467V204ZM75.1251 204.182C77.0291 204.182 78.7511 202.712 78.7511 200.15C78.7511 197.588 77.0291 196.104 75.1251 196.104C73.2211 196.104 71.4991 197.588 71.4991 200.15C71.4991 202.712 73.2211 204.182 75.1251 204.182ZM75.1251 202.866C73.9211 202.866 73.1651 201.788 73.1651 200.15C73.1651 198.526 73.9211 197.434 75.1251 197.434C76.3431 197.434 77.0991 198.526 77.0991 200.15C77.0991 201.788 76.3431 202.866 75.1251 202.866ZM83.2768 207.458C85.7408 207.458 87.3088 206.254 87.3088 204.77C87.3088 203.454 86.3568 202.894 84.5368 202.894H83.1228C82.1428 202.894 81.8348 202.6 81.8348 202.138C81.8348 201.76 82.0028 201.55 82.2548 201.326C82.5908 201.48 82.9828 201.564 83.3328 201.564C84.9428 201.564 86.2168 200.598 86.2168 198.918C86.2168 198.33 86.0068 197.812 85.7128 197.504H87.1828V196.3H84.4528C84.1588 196.188 83.7668 196.104 83.3328 196.104C81.7368 196.104 80.3508 197.126 80.3508 198.862C80.3508 199.786 80.8408 200.514 81.3728 200.92V200.976C80.9388 201.284 80.5048 201.802 80.5048 202.404C80.5048 203.034 80.8128 203.44 81.2048 203.678V203.748C80.4908 204.182 80.0848 204.784 80.0848 205.428C80.0848 206.772 81.4288 207.458 83.2768 207.458ZM83.3328 200.528C82.5348 200.528 81.8768 199.898 81.8768 198.862C81.8768 197.826 82.5208 197.238 83.3328 197.238C84.1448 197.238 84.7888 197.84 84.7888 198.862C84.7888 199.898 84.1308 200.528 83.3328 200.528ZM83.5148 206.394C82.2408 206.394 81.4568 205.946 81.4568 205.19C81.4568 204.798 81.6528 204.406 82.1148 204.07C82.4368 204.14 82.7868 204.182 83.1508 204.182H84.3128C85.2508 204.182 85.7548 204.378 85.7548 205.022C85.7548 205.736 84.8588 206.394 83.5148 206.394ZM88.7385 204H90.3485V199.198C90.8245 197.98 91.5805 197.546 92.2105 197.546C92.5185 197.546 92.7145 197.588 92.9805 197.672L93.2745 196.272C93.0365 196.16 92.7845 196.104 92.4065 196.104C91.5805 196.104 90.7685 196.692 90.2225 197.686H90.1805L90.0545 196.3H88.7385V204ZM97.5226 204.182C98.5306 204.182 99.4126 203.846 100.127 203.37L99.5666 202.348C99.0066 202.712 98.4186 202.922 97.7326 202.922C96.4026 202.922 95.4786 202.04 95.3526 200.57H100.351C100.393 200.374 100.435 200.066 100.435 199.744C100.435 197.574 99.3286 196.104 97.2846 196.104C95.4926 196.104 93.7706 197.658 93.7706 200.15C93.7706 202.698 95.4366 204.182 97.5226 204.182ZM95.3386 199.45C95.4926 198.106 96.3466 197.364 97.3126 197.364C98.4326 197.364 99.0346 198.134 99.0346 199.45H95.3386ZM104.319 204.182C106.223 204.182 107.245 203.132 107.245 201.844C107.245 200.388 106.055 199.912 104.977 199.506C104.137 199.198 103.381 198.946 103.381 198.288C103.381 197.756 103.773 197.336 104.627 197.336C105.257 197.336 105.803 197.616 106.335 198.008L107.091 197.014C106.475 196.524 105.621 196.104 104.599 196.104C102.891 196.104 101.855 197.07 101.855 198.358C101.855 199.66 102.989 200.206 104.025 200.598C104.851 200.92 105.719 201.228 105.719 201.928C105.719 202.516 105.285 202.964 104.361 202.964C103.535 202.964 102.863 202.614 102.177 202.082L101.421 203.118C102.177 203.734 103.255 204.182 104.319 204.182ZM111.045 204.182C112.949 204.182 113.971 203.132 113.971 201.844C113.971 200.388 112.781 199.912 111.703 199.506C110.863 199.198 110.107 198.946 110.107 198.288C110.107 197.756 110.499 197.336 111.353 197.336C111.983 197.336 112.529 197.616 113.061 198.008L113.817 197.014C113.201 196.524 112.347 196.104 111.325 196.104C109.617 196.104 108.581 197.07 108.581 198.358C108.581 199.66 109.715 200.206 110.751 200.598C111.577 200.92 112.445 201.228 112.445 201.928C112.445 202.516 112.011 202.964 111.087 202.964C110.261 202.964 109.589 202.614 108.903 202.082L108.147 203.118C108.903 203.734 109.981 204.182 111.045 204.182ZM115.686 204H117.296V196.3H115.686V204ZM116.484 194.858C117.072 194.858 117.492 194.48 117.492 193.892C117.492 193.318 117.072 192.94 116.484 192.94C115.896 192.94 115.49 193.318 115.49 193.892C115.49 194.48 115.896 194.858 116.484 194.858ZM121.399 204H123.261L125.921 196.3H124.353L123.037 200.444C122.827 201.2 122.589 201.984 122.365 202.74H122.309C122.085 201.984 121.861 201.2 121.637 200.444L120.321 196.3H118.669L121.399 204ZM130.458 204.182C131.466 204.182 132.348 203.846 133.062 203.37L132.502 202.348C131.942 202.712 131.354 202.922 130.668 202.922C129.338 202.922 128.414 202.04 128.288 200.57H133.286C133.328 200.374 133.37 200.066 133.37 199.744C133.37 197.574 132.264 196.104 130.22 196.104C128.428 196.104 126.706 197.658 126.706 200.15C126.706 202.698 128.372 204.182 130.458 204.182ZM128.274 199.45C128.428 198.106 129.282 197.364 130.248 197.364C131.368 197.364 131.97 198.134 131.97 199.45H128.274ZM139.517 204H141.477L142.835 198.274C143.003 197.462 143.171 196.692 143.325 195.908H143.381C143.521 196.692 143.675 197.462 143.857 198.274L145.243 204H147.245L149.275 193.682H147.721L146.741 199.058C146.573 200.136 146.391 201.242 146.223 202.362H146.153C145.915 201.242 145.691 200.136 145.453 199.058L144.123 193.682H142.681L141.351 199.058C141.113 200.15 140.875 201.256 140.651 202.362H140.595C140.413 201.256 140.231 200.15 140.049 199.058L139.083 193.682H137.417L139.517 204ZM154.028 204.182C155.036 204.182 155.918 203.846 156.632 203.37L156.072 202.348C155.512 202.712 154.924 202.922 154.238 202.922C152.908 202.922 151.984 202.04 151.858 200.57H156.856C156.898 200.374 156.94 200.066 156.94 199.744C156.94 197.574 155.834 196.104 153.79 196.104C151.998 196.104 150.276 197.658 150.276 200.15C150.276 202.698 151.942 204.182 154.028 204.182ZM151.844 199.45C151.998 198.106 152.852 197.364 153.818 197.364C154.938 197.364 155.54 198.134 155.54 199.45H151.844ZM162.323 204.182C164.059 204.182 165.641 202.67 165.641 200.024C165.641 197.658 164.535 196.104 162.589 196.104C161.777 196.104 160.951 196.538 160.293 197.112L160.349 195.796V192.842H158.739V204H159.999L160.153 203.202H160.195C160.853 203.818 161.623 204.182 162.323 204.182ZM162.015 202.852C161.539 202.852 160.937 202.67 160.349 202.152V198.386C160.979 197.756 161.567 197.448 162.169 197.448C163.457 197.448 163.975 198.442 163.975 200.052C163.975 201.858 163.135 202.852 162.015 202.852ZM172.802 198.4C173.138 197.28 173.46 196.146 173.754 194.97H173.824C174.132 196.132 174.44 197.28 174.79 198.4L175.196 199.786H172.382L172.802 198.4ZM169.47 204H171.122L172.004 201.06H175.588L176.456 204H178.178L174.762 193.682H172.886L169.47 204ZM179.397 207.122H181.007V204.63L180.951 203.314C181.609 203.874 182.295 204.182 182.981 204.182C184.717 204.182 186.299 202.67 186.299 200.024C186.299 197.658 185.207 196.104 183.261 196.104C182.393 196.104 181.553 196.58 180.881 197.14H180.839L180.713 196.3H179.397V207.122ZM182.673 202.852C182.197 202.852 181.609 202.67 181.007 202.152V198.386C181.651 197.756 182.225 197.448 182.827 197.448C184.115 197.448 184.633 198.442 184.633 200.052C184.633 201.858 183.793 202.852 182.673 202.852ZM188.215 207.122H189.825V204.63L189.769 203.314C190.427 203.874 191.113 204.182 191.799 204.182C193.535 204.182 195.117 202.67 195.117 200.024C195.117 197.658 194.025 196.104 192.079 196.104C191.211 196.104 190.371 196.58 189.699 197.14H189.657L189.531 196.3H188.215V207.122ZM191.491 202.852C191.015 202.852 190.427 202.67 189.825 202.152V198.386C190.469 197.756 191.043 197.448 191.645 197.448C192.933 197.448 193.451 198.442 193.451 200.052C193.451 201.858 192.611 202.852 191.491 202.852Z" fill="#484545"/>
<path d="M348.941 204.182C350.355 204.182 351.517 203.664 352.203 202.978V198.512H348.689V199.842H350.733V202.264C350.369 202.586 349.739 202.768 349.109 202.768C346.981 202.768 345.847 201.27 345.847 198.82C345.847 196.398 347.121 194.914 349.039 194.914C350.033 194.914 350.663 195.32 351.181 195.838L352.049 194.802C351.419 194.144 350.439 193.5 348.983 193.5C346.253 193.5 344.181 195.516 344.181 198.876C344.181 202.25 346.197 204.182 348.941 204.182ZM356.685 204.182C357.735 204.182 358.491 203.65 359.191 202.838H359.233L359.359 204H360.675V196.3H359.065V201.648C358.421 202.46 357.931 202.796 357.217 202.796C356.307 202.796 355.929 202.264 355.929 200.948V196.3H354.319V201.144C354.319 203.104 355.033 204.182 356.685 204.182ZM363.099 204H364.709V196.3H363.099V204ZM363.799 194.984L366.389 192.548L365.269 191.484L362.987 194.186L363.799 194.984ZM368.938 204.182C369.862 204.182 370.688 203.72 371.388 203.118H371.444L371.57 204H372.886V199.366C372.886 197.322 372.004 196.104 370.086 196.104C368.854 196.104 367.776 196.608 366.978 197.112L367.58 198.204C368.238 197.784 368.994 197.42 369.806 197.42C370.94 197.42 371.262 198.204 371.276 199.1C368.07 199.45 366.67 200.304 366.67 201.956C366.67 203.314 367.608 204.182 368.938 204.182ZM369.428 202.908C368.742 202.908 368.224 202.6 368.224 201.844C368.224 200.976 368.994 200.388 371.276 200.122V202.012C370.646 202.586 370.1 202.908 369.428 202.908ZM380.976 204.182C381.844 204.182 382.642 203.72 383.216 203.132H383.272L383.398 204H384.714V192.842H383.104V195.698L383.174 196.972C382.544 196.44 381.984 196.104 381.102 196.104C379.38 196.104 377.798 197.658 377.798 200.15C377.798 202.712 379.044 204.182 380.976 204.182ZM381.354 202.852C380.15 202.852 379.464 201.886 379.464 200.136C379.464 198.47 380.332 197.448 381.41 197.448C381.984 197.448 382.53 197.63 383.104 198.148V201.914C382.544 202.558 381.998 202.852 381.354 202.852ZM390.34 204.182C391.348 204.182 392.23 203.846 392.944 203.37L392.384 202.348C391.824 202.712 391.236 202.922 390.55 202.922C389.22 202.922 388.296 202.04 388.17 200.57H393.168C393.21 200.374 393.252 200.066 393.252 199.744C393.252 197.574 392.146 196.104 390.102 196.104C388.31 196.104 386.588 197.658 386.588 200.15C386.588 202.698 388.254 204.182 390.34 204.182ZM388.156 199.45C388.31 198.106 389.164 197.364 390.13 197.364C391.25 197.364 391.852 198.134 391.852 199.45H388.156ZM398.195 204H399.805V196.3H398.195V204ZM398.993 194.858C399.581 194.858 400.001 194.48 400.001 193.892C400.001 193.318 399.581 192.94 398.993 192.94C398.405 192.94 397.999 193.318 397.999 193.892C397.999 194.48 398.405 194.858 398.993 194.858ZM402.214 204H403.824V198.54C404.496 197.854 404.986 197.49 405.7 197.49C406.61 197.49 407.002 198.022 407.002 199.352V204H408.612V199.156C408.612 197.196 407.884 196.104 406.246 196.104C405.196 196.104 404.412 196.678 403.698 197.364H403.656L403.53 196.3H402.214V204ZM412.644 204H414.506L417.166 196.3H415.598L414.282 200.444C414.072 201.2 413.834 201.984 413.61 202.74H413.554C413.33 201.984 413.106 201.2 412.882 200.444L411.566 196.3H409.914L412.644 204ZM421.703 204.182C422.711 204.182 423.593 203.846 424.307 203.37L423.747 202.348C423.187 202.712 422.599 202.922 421.913 202.922C420.583 202.922 419.659 202.04 419.533 200.57H424.531C424.573 200.374 424.615 200.066 424.615 199.744C424.615 197.574 423.509 196.104 421.465 196.104C419.673 196.104 417.951 197.658 417.951 200.15C417.951 202.698 419.617 204.182 421.703 204.182ZM419.519 199.45C419.673 198.106 420.527 197.364 421.493 197.364C422.613 197.364 423.215 198.134 423.215 199.45H419.519ZM426.413 204H428.023V199.198C428.499 197.98 429.255 197.546 429.885 197.546C430.193 197.546 430.389 197.588 430.655 197.672L430.949 196.272C430.711 196.16 430.459 196.104 430.081 196.104C429.255 196.104 428.443 196.692 427.897 197.686H427.855L427.729 196.3H426.413V204ZM434.146 204.182C436.05 204.182 437.072 203.132 437.072 201.844C437.072 200.388 435.882 199.912 434.804 199.506C433.964 199.198 433.208 198.946 433.208 198.288C433.208 197.756 433.6 197.336 434.454 197.336C435.084 197.336 435.63 197.616 436.162 198.008L436.918 197.014C436.302 196.524 435.448 196.104 434.426 196.104C432.718 196.104 431.682 197.07 431.682 198.358C431.682 199.66 432.816 200.206 433.852 200.598C434.678 200.92 435.546 201.228 435.546 201.928C435.546 202.516 435.112 202.964 434.188 202.964C433.362 202.964 432.69 202.614 432.004 202.082L431.248 203.118C432.004 203.734 433.082 204.182 434.146 204.182ZM438.786 204H440.396V196.3H438.786V204ZM439.584 194.858C440.172 194.858 440.592 194.48 440.592 193.892C440.592 193.318 440.172 192.94 439.584 192.94C438.996 192.94 438.59 193.318 438.59 193.892C438.59 194.48 438.996 194.858 439.584 194.858ZM445.886 204.182C447.79 204.182 449.512 202.712 449.512 200.15C449.512 197.588 447.79 196.104 445.886 196.104C443.982 196.104 442.26 197.588 442.26 200.15C442.26 202.712 443.982 204.182 445.886 204.182ZM445.886 202.866C444.682 202.866 443.926 201.788 443.926 200.15C443.926 198.526 444.682 197.434 445.886 197.434C447.104 197.434 447.86 198.526 447.86 200.15C447.86 201.788 447.104 202.866 445.886 202.866ZM451.406 204H453.016V198.54C453.688 197.854 454.178 197.49 454.892 197.49C455.802 197.49 456.194 198.022 456.194 199.352V204H457.804V199.156C457.804 197.196 457.076 196.104 455.438 196.104C454.388 196.104 453.604 196.678 452.89 197.364H452.848L452.722 196.3H451.406V204ZM460.142 204H461.752V196.3H460.142V204ZM460.94 194.858C461.528 194.858 461.948 194.48 461.948 193.892C461.948 193.318 461.528 192.94 460.94 192.94C460.352 192.94 459.946 193.318 459.946 193.892C459.946 194.48 460.352 194.858 460.94 194.858ZM466.247 204.182C468.151 204.182 469.173 203.132 469.173 201.844C469.173 200.388 467.983 199.912 466.905 199.506C466.065 199.198 465.309 198.946 465.309 198.288C465.309 197.756 465.701 197.336 466.555 197.336C467.185 197.336 467.731 197.616 468.263 198.008L469.019 197.014C468.403 196.524 467.549 196.104 466.527 196.104C464.819 196.104 463.783 197.07 463.783 198.358C463.783 199.66 464.917 200.206 465.953 200.598C466.779 200.92 467.647 201.228 467.647 201.928C467.647 202.516 467.213 202.964 466.289 202.964C465.463 202.964 464.791 202.614 464.105 202.082L463.349 203.118C464.105 203.734 465.183 204.182 466.247 204.182ZM473.163 204.182C473.723 204.182 474.241 204.042 474.675 203.902L474.381 202.712C474.157 202.81 473.821 202.894 473.555 202.894C472.757 202.894 472.435 202.418 472.435 201.494V197.588H474.437V196.3H472.435V194.172H471.091L470.909 196.3L469.705 196.384V197.588H470.825V201.48C470.825 203.104 471.427 204.182 473.163 204.182ZM477.602 204.182C478.526 204.182 479.352 203.72 480.052 203.118H480.108L480.234 204H481.55V199.366C481.55 197.322 480.668 196.104 478.75 196.104C477.518 196.104 476.44 196.608 475.642 197.112L476.244 198.204C476.902 197.784 477.658 197.42 478.47 197.42C479.604 197.42 479.926 198.204 479.94 199.1C476.734 199.45 475.334 200.304 475.334 201.956C475.334 203.314 476.272 204.182 477.602 204.182ZM478.092 202.908C477.406 202.908 476.888 202.6 476.888 201.844C476.888 200.976 477.658 200.388 479.94 200.122V202.012C479.31 202.586 478.764 202.908 478.092 202.908Z" fill="#484545"/>
<path d="M668.314 204.182C670.568 204.182 671.94 202.838 671.94 201.186C671.94 199.674 671.058 198.918 669.84 198.4L668.426 197.798C667.586 197.462 666.76 197.126 666.76 196.23C666.76 195.418 667.446 194.914 668.496 194.914C669.406 194.914 670.12 195.264 670.764 195.838L671.618 194.802C670.834 194.004 669.7 193.5 668.496 193.5C666.536 193.5 665.108 194.718 665.108 196.342C665.108 197.84 666.214 198.624 667.208 199.044L668.636 199.66C669.588 200.08 670.288 200.374 670.288 201.312C670.288 202.18 669.588 202.768 668.342 202.768C667.348 202.768 666.34 202.292 665.598 201.55L664.646 202.67C665.584 203.622 666.9 204.182 668.314 204.182ZM676.957 204.182C677.965 204.182 678.847 203.846 679.561 203.37L679.001 202.348C678.441 202.712 677.853 202.922 677.167 202.922C675.837 202.922 674.913 202.04 674.787 200.57H679.785C679.827 200.374 679.869 200.066 679.869 199.744C679.869 197.574 678.763 196.104 676.719 196.104C674.927 196.104 673.205 197.658 673.205 200.15C673.205 202.698 674.871 204.182 676.957 204.182ZM674.773 199.45C674.927 198.106 675.781 197.364 676.747 197.364C677.867 197.364 678.469 198.134 678.469 199.45H674.773ZM684.803 204.182C685.685 204.182 686.595 203.86 687.309 203.23L686.637 202.166C686.175 202.558 685.601 202.866 684.957 202.866C683.683 202.866 682.787 201.788 682.787 200.15C682.787 198.526 683.711 197.434 685.013 197.434C685.531 197.434 685.965 197.658 686.385 198.036L687.183 196.986C686.623 196.496 685.909 196.104 684.929 196.104C682.899 196.104 681.121 197.588 681.121 200.15C681.121 202.712 682.717 204.182 684.803 204.182ZM691.667 204.182C692.549 204.182 693.459 203.86 694.173 203.23L693.501 202.166C693.039 202.558 692.465 202.866 691.821 202.866C690.547 202.866 689.651 201.788 689.651 200.15C689.651 198.526 690.575 197.434 691.877 197.434C692.395 197.434 692.829 197.658 693.249 198.036L694.047 196.986C693.487 196.496 692.773 196.104 691.793 196.104C689.763 196.104 687.985 197.588 687.985 200.15C687.985 202.712 689.581 204.182 691.667 204.182ZM695.763 204H697.373V196.3H695.763V204ZM696.561 194.858C697.149 194.858 697.569 194.48 697.569 193.892C697.569 193.318 697.149 192.94 696.561 192.94C695.973 192.94 695.567 193.318 695.567 193.892C695.567 194.48 695.973 194.858 696.561 194.858ZM702.862 204.182C704.766 204.182 706.488 202.712 706.488 200.15C706.488 197.588 704.766 196.104 702.862 196.104C700.958 196.104 699.236 197.588 699.236 200.15C699.236 202.712 700.958 204.182 702.862 204.182ZM702.862 202.866C701.658 202.866 700.902 201.788 700.902 200.15C700.902 198.526 701.658 197.434 702.862 197.434C704.08 197.434 704.836 198.526 704.836 200.15C704.836 201.788 704.08 202.866 702.862 202.866ZM702.764 194.984L705.354 192.548L704.234 191.484L701.938 194.186L702.764 194.984ZM708.382 204H709.992V198.54C710.664 197.854 711.154 197.49 711.868 197.49C712.778 197.49 713.17 198.022 713.17 199.352V204H714.78V199.156C714.78 197.196 714.052 196.104 712.414 196.104C711.364 196.104 710.58 196.678 709.866 197.364H709.824L709.698 196.3H708.382V204ZM720.263 204H721.873V198.54C722.503 197.84 723.077 197.49 723.595 197.49C724.477 197.49 724.883 198.022 724.883 199.352V204H726.493V198.54C727.137 197.84 727.697 197.49 728.229 197.49C729.097 197.49 729.517 198.022 729.517 199.352V204H731.127V199.156C731.127 197.196 730.371 196.104 728.761 196.104C727.795 196.104 727.011 196.706 726.255 197.518C725.919 196.636 725.275 196.104 724.127 196.104C723.175 196.104 722.405 196.678 721.747 197.378H721.705L721.579 196.3H720.263V204ZM733.456 204H735.066V196.3H733.456V204ZM734.254 194.858C734.842 194.858 735.262 194.48 735.262 193.892C735.262 193.318 734.842 192.94 734.254 192.94C733.666 192.94 733.26 193.318 733.26 193.892C733.26 194.48 733.666 194.858 734.254 194.858ZM739.562 204.182C741.466 204.182 742.488 203.132 742.488 201.844C742.488 200.388 741.298 199.912 740.22 199.506C739.38 199.198 738.624 198.946 738.624 198.288C738.624 197.756 739.016 197.336 739.87 197.336C740.5 197.336 741.046 197.616 741.578 198.008L742.334 197.014C741.718 196.524 740.864 196.104 739.842 196.104C738.134 196.104 737.098 197.07 737.098 198.358C737.098 199.66 738.232 200.206 739.268 200.598C740.094 200.92 740.962 201.228 740.962 201.928C740.962 202.516 740.528 202.964 739.604 202.964C738.778 202.964 738.106 202.614 737.42 202.082L736.664 203.118C737.42 203.734 738.498 204.182 739.562 204.182ZM666.423 224H668.033V216.3H666.423V224ZM667.221 214.858C667.809 214.858 668.229 214.48 668.229 213.892C668.229 213.318 667.809 212.94 667.221 212.94C666.633 212.94 666.227 213.318 666.227 213.892C666.227 214.48 666.633 214.858 667.221 214.858ZM670.443 224H672.053V218.54C672.725 217.854 673.215 217.49 673.929 217.49C674.839 217.49 675.231 218.022 675.231 219.352V224H676.841V219.156C676.841 217.196 676.113 216.104 674.475 216.104C673.425 216.104 672.641 216.678 671.927 217.364H671.885L671.759 216.3H670.443V224ZM680.873 224H682.735L685.395 216.3H683.827L682.511 220.444C682.301 221.2 682.063 221.984 681.839 222.74H681.783C681.559 221.984 681.335 221.2 681.111 220.444L679.795 216.3H678.143L680.873 224ZM689.932 224.182C690.94 224.182 691.822 223.846 692.536 223.37L691.976 222.348C691.416 222.712 690.828 222.922 690.142 222.922C688.812 222.922 687.888 222.04 687.762 220.57H692.76C692.802 220.374 692.844 220.066 692.844 219.744C692.844 217.574 691.738 216.104 689.694 216.104C687.902 216.104 686.18 217.658 686.18 220.15C686.18 222.698 687.846 224.182 689.932 224.182ZM687.748 219.45C687.902 218.106 688.756 217.364 689.722 217.364C690.842 217.364 691.444 218.134 691.444 219.45H687.748ZM694.642 224H696.252V219.198C696.728 217.98 697.484 217.546 698.114 217.546C698.422 217.546 698.618 217.588 698.884 217.672L699.178 216.272C698.94 216.16 698.688 216.104 698.31 216.104C697.484 216.104 696.672 216.692 696.126 217.686H696.084L695.958 216.3H694.642V224ZM702.374 224.182C704.278 224.182 705.3 223.132 705.3 221.844C705.3 220.388 704.11 219.912 703.032 219.506C702.192 219.198 701.436 218.946 701.436 218.288C701.436 217.756 701.828 217.336 702.682 217.336C703.312 217.336 703.858 217.616 704.39 218.008L705.146 217.014C704.53 216.524 703.676 216.104 702.654 216.104C700.946 216.104 699.91 217.07 699.91 218.358C699.91 219.66 701.044 220.206 702.08 220.598C702.906 220.92 703.774 221.228 703.774 221.928C703.774 222.516 703.34 222.964 702.416 222.964C701.59 222.964 700.918 222.614 700.232 222.082L699.476 223.118C700.232 223.734 701.31 224.182 702.374 224.182ZM707.015 224H708.625V216.3H707.015V224ZM707.813 214.858C708.401 214.858 708.821 214.48 708.821 213.892C708.821 213.318 708.401 212.94 707.813 212.94C707.225 212.94 706.819 213.318 706.819 213.892C706.819 214.48 707.225 214.858 707.813 214.858ZM714.114 224.182C716.018 224.182 717.74 222.712 717.74 220.15C717.74 217.588 716.018 216.104 714.114 216.104C712.21 216.104 710.488 217.588 710.488 220.15C710.488 222.712 712.21 224.182 714.114 224.182ZM714.114 222.866C712.91 222.866 712.154 221.788 712.154 220.15C712.154 218.526 712.91 217.434 714.114 217.434C715.332 217.434 716.088 218.526 716.088 220.15C716.088 221.788 715.332 222.866 714.114 222.866ZM719.634 224H721.244V218.54C721.916 217.854 722.406 217.49 723.12 217.49C724.03 217.49 724.422 218.022 724.422 219.352V224H726.032V219.156C726.032 217.196 725.304 216.104 723.666 216.104C722.616 216.104 721.832 216.678 721.118 217.364H721.076L720.95 216.3H719.634V224ZM731.576 224.182C732.584 224.182 733.466 223.846 734.18 223.37L733.62 222.348C733.06 222.712 732.472 222.922 731.786 222.922C730.456 222.922 729.532 222.04 729.406 220.57H734.404C734.446 220.374 734.488 220.066 734.488 219.744C734.488 217.574 733.382 216.104 731.338 216.104C729.546 216.104 727.824 217.658 727.824 220.15C727.824 222.698 729.49 224.182 731.576 224.182ZM729.392 219.45C729.546 218.106 730.4 217.364 731.366 217.364C732.486 217.364 733.088 218.134 733.088 219.45H729.392ZM738.372 224.182C740.276 224.182 741.298 223.132 741.298 221.844C741.298 220.388 740.108 219.912 739.03 219.506C738.19 219.198 737.434 218.946 737.434 218.288C737.434 217.756 737.826 217.336 738.68 217.336C739.31 217.336 739.856 217.616 740.388 218.008L741.144 217.014C740.528 216.524 739.674 216.104 738.652 216.104C736.944 216.104 735.908 217.07 735.908 218.358C735.908 219.66 737.042 220.206 738.078 220.598C738.904 220.92 739.772 221.228 739.772 221.928C739.772 222.516 739.338 222.964 738.414 222.964C737.588 222.964 736.916 222.614 736.23 222.082L735.474 223.118C736.23 223.734 737.308 224.182 738.372 224.182Z" fill="#484545"/>
<path d="M767 107C767.333 115.167 765.5 134.5 753.5 133" stroke="#80DCB3" stroke-width="4"/>
<path d="M754 21C757.5 21 768.2 24.3 767 35.5L766.5 61" stroke="#80DCB3" stroke-width="4"/>
<path d="M768.716 61.0242H766.623V54.7389V32.3952C766.623 25.0799 760.671 19.1283 753.356 19.1283H695.827L657.015 8.03916C657.004 8.03608 656.992 8.03441 656.981 8.03133C656.97 8.02826 656.959 8.02379 656.947 8.021C656.924 8.01514 656.901 8.01234 656.877 8.00732C656.841 7.99977 656.805 7.99195 656.769 7.98609C656.737 7.98078 656.705 7.97743 656.672 7.97352C656.634 7.96905 656.596 7.96514 656.559 7.96291C656.528 7.96123 656.497 7.96095 656.467 7.96039C656.428 7.95983 656.389 7.95956 656.35 7.96123C656.321 7.96235 656.292 7.96514 656.264 7.96738C656.224 7.97073 656.184 7.97436 656.145 7.98022C656.118 7.98413 656.091 7.98916 656.065 7.99391C656.024 8.00117 655.984 8.00899 655.944 8.01877C655.919 8.02491 655.895 8.03189 655.87 8.03888C655.829 8.05061 655.789 8.06262 655.749 8.07658C655.726 8.08468 655.704 8.09334 655.681 8.10228C655.641 8.11792 655.601 8.13439 655.561 8.15255C655.54 8.16232 655.52 8.17294 655.499 8.18327C655.46 8.2031 655.421 8.22321 655.383 8.24583C655.363 8.25729 655.344 8.26957 655.325 8.28186C655.287 8.30532 655.25 8.32934 655.215 8.35532C655.196 8.36873 655.178 8.38325 655.159 8.39749C655.125 8.42403 655.091 8.45112 655.058 8.47988C655.04 8.49608 655.022 8.51312 655.004 8.52988C654.974 8.55893 654.943 8.58797 654.914 8.6187C654.896 8.63797 654.879 8.65808 654.861 8.67818C654.835 8.70863 654.808 8.73935 654.784 8.77147C654.766 8.79465 654.749 8.81839 654.732 8.84213C654.71 8.87313 654.688 8.90442 654.668 8.93653C654.651 8.96391 654.635 8.99239 654.619 9.0206C654.601 9.0516 654.584 9.08289 654.568 9.115C654.552 9.14629 654.538 9.17841 654.524 9.21052C654.51 9.24208 654.496 9.27365 654.484 9.30604C654.471 9.34012 654.46 9.37503 654.448 9.41022C654.441 9.43284 654.432 9.45407 654.426 9.47697C654.422 9.48842 654.421 9.4996 654.418 9.51077C654.415 9.52222 654.41 9.53311 654.407 9.54456L652.012 19.1278H645.268C637.967 19.1278 632.026 25.0553 632.002 32.3505C632.002 32.3656 632 32.3798 632 32.3946V105.012C632 106.168 632.941 107.106 634.095 107.106C635.251 107.106 636.189 106.168 636.189 105.012V42.0563C638.565 44.2896 641.758 45.6621 645.268 45.6621H753.356C753.358 45.6621 753.361 45.6618 753.363 45.6618C758.365 45.6657 762.433 49.7361 762.433 54.7392V69.4034H739.388C739.386 69.4034 739.385 69.4036 739.384 69.4036C739.323 69.4036 739.263 69.4073 739.203 69.4126C739.136 69.4184 739.07 69.4279 739.005 69.4399C738.996 69.4416 738.986 69.4425 738.976 69.4444C738.922 69.4553 738.868 69.4698 738.815 69.4849C738.803 69.4883 738.791 69.4905 738.779 69.4941C738.732 69.5087 738.686 69.526 738.64 69.5436C738.622 69.5503 738.604 69.5559 738.587 69.5631C738.548 69.579 738.511 69.5977 738.474 69.6159C738.449 69.6276 738.424 69.6385 738.4 69.6511C738.371 69.6665 738.344 69.6841 738.316 69.7008C738.285 69.7192 738.254 69.7371 738.223 69.7572C738.203 69.7706 738.184 69.786 738.165 69.8002C738.129 69.8259 738.093 69.8514 738.059 69.8796C738.044 69.8918 738.03 69.9055 738.016 69.9181C737.98 69.9499 737.943 69.9815 737.908 70.0161C737.888 70.0365 737.87 70.0589 737.85 70.0801C737.823 70.1094 737.795 70.1382 737.77 70.1695C737.726 70.2223 737.686 70.277 737.648 70.3337C737.647 70.3345 737.646 70.3357 737.646 70.3368L726.474 87.0948C726.396 87.2116 726.33 87.3353 726.278 87.4641C726.258 87.5121 726.242 87.561 726.226 87.6096C726.222 87.6244 726.216 87.6386 726.211 87.6534C726.195 87.7051 726.183 87.7573 726.172 87.8093C726.169 87.823 726.165 87.8364 726.162 87.85C726.153 87.897 726.147 87.9442 726.141 87.9914C726.139 88.0115 726.135 88.0316 726.133 88.052C726.129 88.0908 726.128 88.1293 726.126 88.1682C726.125 88.1978 726.123 88.2274 726.123 88.2573C726.123 88.286 726.125 88.3148 726.126 88.3436C726.128 88.3832 726.129 88.4232 726.133 88.4628C726.135 88.4821 726.138 88.5014 726.141 88.5206C726.147 88.5687 726.153 88.6167 726.163 88.6645C726.165 88.6776 726.169 88.6905 726.172 88.7036C726.183 88.7561 726.196 88.8086 726.211 88.8608C726.216 88.8756 726.222 88.8899 726.227 88.9049C726.243 88.9535 726.259 89.0024 726.278 89.0505C726.331 89.1789 726.397 89.303 726.475 89.42L737.646 106.176C737.647 106.176 737.647 106.177 737.648 106.178C737.693 106.245 737.742 106.308 737.794 106.369C737.811 106.389 737.829 106.408 737.847 106.427C737.882 106.466 737.919 106.503 737.957 106.539C737.98 106.561 738.002 106.581 738.025 106.601C738.066 106.636 738.108 106.669 738.151 106.701C738.171 106.715 738.19 106.73 738.209 106.744C738.272 106.787 738.337 106.826 738.405 106.862C738.422 106.871 738.439 106.878 738.456 106.887C738.51 106.913 738.565 106.938 738.621 106.96C738.643 106.969 738.664 106.977 738.686 106.985C738.74 107.004 738.794 107.02 738.849 107.035C738.872 107.041 738.894 107.047 738.917 107.053C738.974 107.066 739.031 107.076 739.09 107.084C739.111 107.087 739.132 107.092 739.153 107.094C739.225 107.102 739.298 107.107 739.373 107.107C739.379 107.107 739.384 107.108 739.391 107.108C739.392 107.108 739.393 107.108 739.394 107.108H762.434V121.773C762.434 126.779 758.362 130.851 753.357 130.851H645.269C640.264 130.851 636.192 126.779 636.192 121.773C636.192 121.762 636.191 121.752 636.19 121.741V113.392C636.19 112.238 635.252 111.297 634.096 111.297C632.942 111.297 632.001 112.238 632.001 113.392V121.773C632.001 121.795 632.003 121.816 632.004 121.838C632.039 129.124 637.976 135.041 645.269 135.041H753.357C760.671 135.041 766.622 129.09 766.623 121.776C766.623 121.775 766.623 121.775 766.623 121.775V107.108H768.717C772.181 107.108 775 104.289 775 100.825V67.3072C774.999 63.8429 772.181 61.0242 768.716 61.0242ZM657.947 12.6623L694.908 23.2234C694.91 23.2239 694.912 23.2242 694.914 23.2248L719.686 30.3027H653.538L657.947 12.6623ZM762.433 45.0769C760.058 42.8442 756.865 41.472 753.356 41.472C753.352 41.472 753.349 41.4726 753.345 41.4726H645.268C640.263 41.4726 636.191 37.4005 636.191 32.3952C636.191 27.3899 640.263 23.3178 645.268 23.3178H650.965L649.219 30.3027H645.269C644.112 30.3027 643.174 31.2406 643.174 32.3974C643.174 33.5543 644.112 34.4922 645.269 34.4922H650.848C650.851 34.4922 650.854 34.4927 650.857 34.4927C650.859 34.4927 650.861 34.4922 650.863 34.4922H734.636C734.638 34.4922 734.641 34.4927 734.643 34.4927C734.646 34.4927 734.648 34.4922 734.65 34.4922H750.56C751.717 34.4922 752.655 33.5543 752.655 32.3974C752.655 31.2406 751.717 30.3027 750.56 30.3027H734.936L710.489 23.3178H753.356C758.361 23.3178 762.433 27.3899 762.433 32.3952V45.0769ZM770.81 100.824C770.81 101.978 769.87 102.918 768.716 102.918H740.509L730.734 88.2561L740.509 73.5925H768.716C768.745 73.5925 768.774 73.5892 768.803 73.5881C769.506 73.5783 770.18 73.4532 770.81 73.2303V100.824V100.824ZM768.716 69.4008C768.702 69.4008 768.687 69.4028 768.673 69.4031H766.623V65.2136H768.716C769.87 65.2136 770.81 66.1529 770.81 67.3072C770.81 68.4616 769.87 69.4008 768.716 69.4008Z" fill="black"/>
<path d="M747.768 80.5752C743.533 80.5752 740.087 84.0209 740.087 88.2561C740.087 92.4914 743.533 95.9368 747.768 95.9368C752.003 95.9368 755.449 92.4914 755.449 88.2561C755.449 84.0209 752.003 80.5752 747.768 80.5752ZM747.768 91.7473C745.843 91.7473 744.277 90.1813 744.277 88.2561C744.277 86.3309 745.843 84.7646 747.768 84.7646C749.693 84.7646 751.259 86.3309 751.259 88.2561C751.259 90.1813 749.693 91.7473 747.768 91.7473Z" fill="black"/>
<path d="M720 30.3485L653.418 30.3484L658 12.5003L720 30.3485Z" fill="#80DCB3"/>
<circle cx="748" cy="88" r="4" fill="#80DCB3"/>
<g clip-path="url(#clip0)">
<circle cx="436" cy="39" r="15" fill="#80DCB3"/>
<circle cx="392" cy="39" r="15" fill="#80DCB3"/>
<path d="M457 10C458.333 9.66671 467 10.0001 467 15.5003L466 136C465.5 138.5 463 141 461 141" stroke="#80DCB3" stroke-width="5"/>
<path d="M464.809 115.396V14.0715C464.809 11.1174 462.404 8.71289 459.449 8.71289H376.429C368.691 8.71289 362.395 15.0091 362.395 22.7476V129.769C362.395 137.507 368.69 143.803 376.429 143.803H376.461V153.556C376.461 154.368 376.917 155.112 377.641 155.48C378.365 155.847 379.235 155.776 379.89 155.297L385.802 150.974L391.715 155.297C392.091 155.573 392.538 155.713 392.987 155.713C393.321 155.713 393.655 155.636 393.963 155.48C394.688 155.112 395.144 154.368 395.144 153.556V143.803H459.449C462.404 143.803 464.808 141.399 464.808 138.444V125.844C464.808 124.653 463.842 123.687 462.651 123.687C461.46 123.687 460.494 124.653 460.494 125.844V138.444C460.494 139.022 460.025 139.49 459.448 139.49H395.144V134.091H450.791C451.982 134.091 452.947 133.126 452.947 131.936C452.947 130.745 451.982 129.779 450.791 129.779H372.861C371.67 129.779 370.704 130.745 370.704 131.936C370.704 133.126 371.67 134.091 372.861 134.091H376.461V139.49H376.429C371.068 139.49 366.707 135.129 366.707 129.769V127.274C366.707 121.913 371.068 117.552 376.429 117.552H462.652C463.843 117.552 464.809 116.587 464.809 115.396V115.396ZM390.832 134.091V149.308L387.076 146.562C386.697 146.285 386.249 146.145 385.803 146.145C385.355 146.145 384.908 146.285 384.529 146.562L380.773 149.308V134.091H390.832ZM366.708 117.166V22.7476C366.708 17.3868 371.068 13.0251 376.429 13.0251H459.449C460.026 13.0251 460.495 13.4951 460.495 14.0715V113.239H376.429C372.658 113.239 369.231 114.737 366.708 117.166Z" fill="black"/>
<path d="M378.9 121.376C377.709 121.376 376.743 122.342 376.743 123.533C376.743 124.724 377.709 125.69 378.9 125.69H423.772C424.963 125.69 425.929 124.724 425.929 123.533C425.929 122.342 424.963 121.376 423.772 121.376H378.9Z" fill="black"/>
<path d="M433.904 121.376C432.713 121.376 431.747 122.342 431.747 123.533C431.747 124.724 432.713 125.69 433.904 125.69H450.791C451.982 125.69 452.947 124.724 452.947 123.533C452.947 122.342 451.982 121.376 450.791 121.376H433.904Z" fill="black"/>
<path d="M390.962 81.0826H387.137C386.304 81.0826 386.061 81.8363 386.061 82.5899C386.061 83.3436 386.276 84.1242 387.137 84.1242H389.211C389.83 84.1242 389.992 84.3395 389.965 85.0124C389.911 86.3055 389.507 88.6742 386.412 88.6742C382.965 88.6742 382.587 84.4741 382.587 82.1043C382.587 79.2781 383.046 75.5625 386.412 75.5625C388.215 75.5625 389.023 76.4238 389.427 77.958C389.615 78.6579 390.073 78.9551 391.581 78.9551C392.954 78.9551 393.304 78.2003 393.142 77.339C392.522 74.1628 390.18 72.4121 386.411 72.4121C380.919 72.7082 378.9 76.6122 378.9 82.1043C378.9 87.4899 381.026 91.8246 386.545 91.8246C391.795 91.8246 393.654 88.0282 393.465 83.3963C393.411 81.9439 392.927 81.0826 390.962 81.0826V81.0826Z" fill="black"/>
<path d="M408.271 72.6006C407.383 72.6006 406.495 72.8709 406.495 73.8399V85.0932C406.495 87.14 405.336 88.6204 403.237 88.6204C401.137 88.6204 400.006 87.14 400.006 85.0932V73.8399C400.006 72.8709 399.118 72.6006 398.228 72.6006C397.34 72.6006 396.452 72.8709 396.452 73.8399V84.7702C396.452 89.7778 399.279 91.8515 403.237 91.8515C407.221 91.8515 410.048 89.7778 410.048 84.7702V73.8399C410.048 72.8709 409.16 72.6006 408.271 72.6006Z" fill="black"/>
<path d="M415.324 72.6006C414.436 72.6006 413.547 72.8709 413.547 73.8399V90.5326C413.547 91.5285 414.436 91.7977 415.324 91.7977C416.212 91.7977 417.127 91.5285 417.127 90.5326V73.8399C417.127 72.8709 416.212 72.6006 415.324 72.6006Z" fill="black"/>
<path d="M426.981 72.708H423.265C421.893 72.708 420.627 73.0579 420.627 75.0778V89.1585C420.627 91.2053 421.893 91.5552 423.265 91.5552H426.981C432.338 91.5552 434.438 87.1398 434.438 82.1322C434.438 77.1234 432.285 72.708 426.981 72.708V72.708ZM426.981 88.2972H424.638C424.342 88.2972 424.18 88.1895 424.18 87.8396V76.3967C424.18 76.0468 424.342 75.9391 424.638 75.9391H426.981C429.915 75.9391 430.777 79.4932 430.777 82.1322C430.777 84.77 429.996 88.2972 426.981 88.2972Z" fill="black"/>
<path d="M441.168 75.9395H447.172C448.088 75.9395 448.303 75.132 448.303 74.3245C448.303 73.517 448.061 72.7095 447.172 72.7095H439.768C438.421 72.7095 437.129 73.0594 437.129 75.0781V89.1858C437.129 91.2056 438.421 91.5555 439.768 91.5555H447.172C448.06 91.5555 448.303 90.748 448.303 89.9405C448.303 89.1331 448.088 88.3244 447.172 88.3244H441.168C440.845 88.3244 440.71 88.2168 440.71 87.8669V83.4245H446.176C447.064 83.4245 447.306 82.617 447.306 81.8095C447.306 81.002 447.064 80.1945 446.176 80.1945H440.71V76.3982C440.71 76.0471 440.845 75.9395 441.168 75.9395V75.9395Z" fill="black"/>
<path d="M435.499 19.6421C424.799 19.6421 416.094 28.3474 416.094 39.0467C416.094 49.7471 424.799 58.4524 435.499 58.4524C446.199 58.4524 454.905 49.7471 454.905 39.0467C454.905 28.3474 446.199 19.6421 435.499 19.6421ZM435.499 54.1401C427.177 54.1401 420.406 47.3695 420.406 39.0478C420.406 30.725 427.177 23.9543 435.499 23.9543C443.822 23.9543 450.592 30.725 450.592 39.0478C450.592 47.3695 443.822 54.1401 435.499 54.1401V54.1401Z" fill="black"/>
<path d="M408.774 24.5901L406.765 26.5999C404.288 23.6346 400.97 21.4633 397.213 20.3889C392.229 18.9645 386.988 19.5657 382.457 22.0824C377.925 24.5991 374.646 28.7296 373.222 33.7137C370.281 44.0014 376.258 54.7647 386.546 57.7053C388.322 58.2134 390.111 58.4545 391.872 58.4545C400.315 58.4545 408.104 52.8929 410.538 44.3805C410.916 43.0571 411.154 41.6967 411.246 40.3363C411.267 40.0234 411.278 39.5658 411.278 39.0465C411.278 37.8566 410.314 36.891 409.122 36.891C407.93 36.891 406.966 37.8566 406.966 39.0465C406.966 39.4592 406.957 39.8316 406.942 40.0458C406.871 41.1045 406.686 42.1644 406.391 43.195C404.104 51.1971 395.733 55.8458 387.731 53.559C379.73 51.2711 375.08 42.9001 377.368 34.8991C378.475 31.0231 381.026 27.81 384.551 25.8529C388.075 23.8959 392.151 23.4271 396.027 24.5351C399.075 25.4066 401.749 27.2055 403.699 29.665L391.284 42.0802L385.38 36.1777C384.538 35.3354 383.173 35.3354 382.331 36.1777C381.488 37.0199 381.488 38.3848 382.331 39.2271L389.758 46.6549C390.18 47.0755 390.732 47.2864 391.284 47.2864C391.835 47.2864 392.387 47.0766 392.808 46.6549L411.823 27.6395C412.666 26.7972 412.666 25.4324 411.823 24.5901C410.981 23.7478 409.616 23.7478 408.774 24.5901Z" fill="black"/>
<path d="M444.733 30.2137C443.89 29.3715 442.525 29.3715 441.683 30.2137L435.521 36.3765L429.358 30.2137C428.516 29.3715 427.151 29.3715 426.309 30.2137C425.467 31.056 425.467 32.4209 426.309 33.2631L432.472 39.4259L426.309 45.5887C425.467 46.4298 425.467 47.7958 426.309 48.6381C426.731 49.0587 427.282 49.2695 427.834 49.2695C428.386 49.2695 428.938 49.0587 429.358 48.6381L435.521 42.4753L441.683 48.6381C442.104 49.0587 442.656 49.2695 443.208 49.2695C443.76 49.2695 444.312 49.0587 444.733 48.6381C445.574 47.7958 445.574 46.4298 444.733 45.5887L438.571 39.4259L444.733 33.2631C445.574 32.4209 445.574 31.056 444.733 30.2137V30.2137Z" fill="black"/>
</g>
<g clip-path="url(#clip1)">
<path d="M59.8537 90.3833C64.1622 88.5499 68.4109 86.8431 72.6878 84.6531C74.0428 83.9592 75.3938 83.2098 76.7293 82.332C78.5898 81.1091 79.2184 80.5866 77.0841 80.5549C72.9227 80.4929 68.7366 81.0812 64.5739 81.2439C59.7294 81.4333 63.9543 82.238 65.4223 82.477C69.7161 83.1763 82.6269 82.1251 78.3336 82.8397C74.2996 83.5112 70.2555 83.8458 66.2245 84.6168C64.8389 84.8818 63.447 85.0711 62.0749 85.596C61.3807 85.8617 58.997 86.8618 61.2728 88.2798C65.9741 91.2091 80.6365 90.8496 75.7884 91.7615C71.7523 92.5206 67.6971 92.6106 63.6792 93.9375C58.8412 95.5352 61.285 96.9901 64.5431 97.9632C70.6338 99.7823 76.768 100.801 82.8688 102.424C83.5336 102.601 84.2512 102.381 84.8587 103.041C86.7758 105.121 80.6434 102.435 78.5341 102.206C73.2911 101.638 68.0295 101.304 62.7845 101.989C62.2986 102.052 61.7587 101.827 61.3345 102.388C60.055 104.08 64.2653 102.801 65.7308 103.004C70.9519 103.729 86.5143 108.388 81.357 106.341C72.8533 102.966 47.0981 97.7049 55.5653 101.554C60.3737 103.739 65.331 104.888 70.1889 106.305C77.938 108.564 68.9908 104.599 68.8314 104.528C63.4627 102.118 57.9177 101.215 52.5882 98.4709C49.6286 96.9472 58.6135 96.6751 61.643 96.6213C65.9901 96.5441 69.1863 96.8164 73.4591 97.4192C74.494 97.5652 75.5263 97.8019 76.5597 97.9995C77.8491 98.2459 77.8978 98.3647 75.0788 97.5642C70.184 96.1744 65.2909 94.6883 60.409 93.0671C59.3584 92.7182 58.3052 92.3991 57.2621 91.9428C54.7683 90.852 58.5472 91.252 58.5887 91.2537C66.3725 91.5865 89.6894 94.704 81.9278 93.2847C77.8222 92.5339 73.683 92.4451 69.5718 91.9065C66.5486 91.5105 57.5237 89.4563 60.5015 90.746C68.7465 94.3169 77.3571 96.5574 85.7071 98.2896C97.0012 100.633 63.1223 93.3733 51.8014 91.9065C50.5532 91.7448 49.2983 91.3562 48.053 91.6164C45.799 92.0875 52.4984 93.6817 54.7478 94.2639C61.5197 96.0168 68.3982 97.4325 75.2176 96.4762C76.0168 96.3642 76.8386 96.2716 77.5932 95.6421C79.2058 94.2967 74.2102 94.3471 72.5027 94.0826C62.9324 92.6002 53.3677 91.1584 43.811 89.2228C37.2605 87.896 39.7687 88.3435 42.1141 88.6425C51.1851 89.799 60.2226 90.4666 69.3096 90.1657C71.8659 90.0811 74.4215 89.8915 76.9761 89.658C78.4322 89.5249 82.7486 89.3857 81.3262 88.6425C76.7326 86.2425 71.5094 86.2497 66.8569 85.2334C63.3265 84.4622 52.7359 83.2041 56.2749 82.6946C64.1618 81.5594 72.5482 82.7855 80.3852 83.7464C86.4344 84.4881 104.441 89.1273 98.387 89.5854C90.2469 90.2014 81.8323 86.0854 73.7522 84.2904C70.6615 83.6038 66.8833 82.8963 63.6484 82.477C61.2598 82.1675 68.4174 83.3968 70.8059 83.7101C72.8364 83.9765 74.8678 84.2006 76.899 84.4355C78.6317 84.6358 80.3657 84.7742 82.0975 85.0158C82.7058 85.1006 84.4303 84.64 83.9177 85.4147C83.2855 86.3702 82.4171 85.6686 81.6656 85.6686C76.291 85.6686 70.2925 85.1286 65.0058 84.3629C61.5006 83.8553 57.9993 83.2004 54.5009 82.477C51.6845 81.8947 48.8747 81.1452 46.0631 80.4461C45.0337 80.1901 43.8767 78.4044 42.978 79.6119C42.1361 80.7429 44.8889 80.3885 45.8471 80.7362C52.0823 82.999 60.0825 85.7675 66.1782 87.627C69.7884 88.7283 73.4037 89.7393 77.0224 90.6735C80.1303 91.4757 89.3148 94.9592 86.3704 92.4868C85.4862 91.7444 84.5107 91.8753 83.5783 91.6164C69.5604 87.7238 84.0412 92.0049 67.7516 87.3369C64.2193 86.3246 56.9961 84.1597 53.0972 82.8397C52.5701 82.6612 50.9914 82.2167 51.5238 82.1869C55.0664 81.9886 58.5803 83.7392 62.1058 84.5805C72.7041 87.1096 83.3121 89.5831 93.8827 92.7044C95.136 93.0745 96.4087 93.262 97.6311 94.01C100.013 95.4677 92.7112 93.5312 90.2577 93.0671C83.5696 91.8019 76.8048 90.7244 70.158 88.4974C66.2991 87.2045 77.9647 88.1438 81.8507 88.8601C92.1582 90.7601 102.371 95.4031 112.671 97.0565C119.224 98.1084 99.7505 91.298 93.2194 89.658C88.0763 88.3665 74.7608 85.5992 68.9548 84.3629C68.5237 84.2711 57.0119 81.7222 66.7952 84.7981C74.1324 87.105 81.5073 88.5664 88.9002 89.4041C90.0359 89.5328 101.756 90.647 89.8412 88.3523C80.1266 86.4814 70.4117 84.7105 60.7021 82.6946C49.1438 80.295 61.7454 83.8102 61.9207 83.8552C72.2328 86.5028 103.366 88.3529 93.0188 86.6115C88.2206 85.804 83.4102 85.4392 78.6113 84.6531C71.1824 83.4362 63.2515 83.0519 55.9201 79.5031C55.6315 79.3634 56.5047 79.2695 56.7994 79.2855C74.3328 80.2402 48.7745 79.7822 73.7059 80.4461C84.0025 80.7202 94.3062 80.5186 104.604 80.5186C105.339 80.5186 106.93 82.1515 106.809 80.4461C106.685 78.6947 105.31 80.0008 104.557 79.8658C102.883 79.5655 101.207 79.2969 99.5285 79.1404C92.0686 78.445 84.594 78.4558 77.1304 78.0524C66.8012 77.4941 78.5521 79.2364 78.7964 79.2855C86.5012 80.8351 94.1784 82.3347 101.827 85.0883C104.424 86.0232 106.788 86.8019 103.678 86.3939C95.046 85.2616 86.4145 84.4495 77.7783 83.4925C72.9875 82.9616 58.6364 80.5189 63.417 81.4253C73.0497 83.2517 82.6644 85.1942 92.2476 88.2073C98.2411 90.0918 116.146 96.9833 110.172 94.7717C101.463 91.547 92.6397 90.4963 83.856 89.0052C79.871 88.3287 75.8849 87.6882 71.9011 86.9742C69.005 86.4551 66.1123 85.8346 63.2164 85.3059C62.338 85.1455 60.3875 82.8848 60.5787 84.907C60.7765 87.0003 62.374 85.6759 63.2781 85.9587C68.5863 87.6188 73.9804 88.9959 79.3209 89.803C83.6736 90.4609 89.0364 90.8595 93.5125 90.5284C93.8724 90.5018 94.933 90.2177 94.5768 90.0932C90.6452 88.7191 86.6322 89.3343 82.6682 88.6425C69.8241 86.4007 57.0607 82.5917 44.3046 78.4876C43.2282 78.1413 39.9984 77.1388 41.0806 77.3633C46.927 78.5762 52.7326 80.7228 58.5733 82.0781C63.1607 83.1425 67.7512 84.1496 72.3484 84.9432C73.9707 85.2233 85.6765 87.1577 89.1933 86.2488C92.1125 85.4944 83.5889 82.0178 80.7092 80.6637C79.2674 79.9857 77.8258 79.3038 76.39 78.5602C75.2105 77.9494 71.7339 76.9443 72.9038 76.2391C73.5513 75.8487 74.2413 76.2386 74.9091 76.3116C76.5141 76.4871 85.6737 77.8895 86.2778 77.9799C87.3556 78.1411 96.0967 79.4547 97.9859 79.6845C98.7463 79.7769 99.5135 80.0913 100.269 79.8658C102.278 79.266 96.2406 78.8703 94.222 78.4876C80.1972 75.829 66.223 72.5968 52.2488 68.6955C47.4786 67.3637 42.7151 65.9031 37.9492 64.4884C36.0357 63.9205 34.1288 63.2251 32.2108 62.7476C31.1666 62.4877 34.2867 63.4964 35.3268 63.8356C47.7791 67.8973 60.254 71.531 72.7187 75.3686C75.3735 76.186 78.0319 76.9501 80.6783 77.9074C82.2672 78.4821 77.4623 77.6181 75.8655 77.182C66.2347 74.5519 56.6374 71.2521 47.0349 68.1152C45.1788 67.5088 43.3169 66.994 41.4662 66.3018C38.0545 65.0257 48.3369 68.0185 51.7706 68.9131C60.5713 71.206 71.2025 73.9934 80.0304 76.0215C82.7941 76.6564 85.559 77.2824 88.3294 77.726C88.8837 77.8148 90.5284 77.9853 89.9954 77.6172C88.6556 76.6919 87.2425 76.5063 85.8613 76.0215C79.0059 73.6151 72.1147 71.3686 65.2218 69.6384C64.3967 69.4313 63.5282 68.6425 62.7383 69.2395C62.205 69.6424 63.8082 70.0395 64.3579 70.2912C66.3452 71.201 68.3444 71.9632 70.3431 72.7211C77.6706 75.4998 85.161 77.0781 92.4327 80.5911C97.0566 82.825 82.9906 79.9451 78.2873 78.9954C69.3865 77.198 60.5134 74.7628 51.6163 72.9025C46.7692 71.8889 61.2371 76.3919 66.0702 77.726C78.2533 81.089 77.6475 80.6593 89.147 83.3475C103.714 86.7527 88.0881 84.299 87.6507 84.2179C81.2159 83.0244 74.8552 80.929 68.4612 78.9591C66.058 78.2188 73.2272 81.0426 75.6187 81.9693C76.8932 82.4632 78.1685 82.9455 79.4443 83.42C81.8908 84.3299 81.3356 84.0735 79.5985 83.42C74.6767 81.5685 69.7478 79.8236 64.8207 78.0524C63.6842 77.6439 62.5464 77.2537 61.4116 76.8193C61.2195 76.7458 60.6472 76.4843 60.8409 76.5292C61.8151 76.7552 62.785 77.0757 63.7563 77.3633C68.7878 78.8533 73.86 80.1468 78.8581 82.1869C88.1094 85.9631 60.1683 77.741 50.8759 74.5708C49.8151 74.2088 48.7531 73.858 47.6982 73.4102C45.9346 72.6615 51.2571 74.4122 53.0355 74.9334C59.313 76.7734 65.5946 78.5349 71.8703 80.4098C72.2252 80.5158 73.2882 80.865 72.9346 80.7362C69.5442 79.5012 66.1472 78.369 62.7537 77.182C55.2783 74.5672 47.3874 73.2595 40.0317 69.0219C36.281 66.8611 47.7603 68.3528 51.6163 68.8405C58.5399 69.7162 65.4242 71.3765 72.333 72.6486C78.7636 73.8326 59.5459 68.1761 53.3132 64.2708C46.3712 59.9212 67.6884 64.9585 74.8474 66.3743C85.4919 68.4796 117.408 75.1653 106.748 73.5553C99.9926 72.535 93.2567 70.9058 86.5092 69.6384C70.8997 66.7064 88.0693 70.3508 88.3294 70.4C90.4879 70.8085 92.6487 71.1476 94.8082 71.5243C97.9707 72.076 99.6163 72.3158 93.4816 71.5968C81.9578 70.2463 70.4294 68.8257 58.9281 66.6282C56.2495 66.1164 51.7312 64.8497 58.851 66.3018C69.4925 68.4722 80.1235 71.1461 90.7358 73.9905C105.79 78.0253 93.3666 74.5414 93.4816 75.8039C93.6915 78.1062 108.71 80.4824 109.37 80.6637C110.327 80.9264 113.153 80.7813 112.239 81.4978C111.241 82.2804 110.14 81.1125 109.092 80.8813C106.634 80.3388 104.176 79.765 101.719 79.1767C99.1265 78.556 96.535 77.9155 93.9444 77.2545C92.1283 76.7912 90.3137 76.2975 88.4991 75.8039C87.825 75.6205 87.0602 76.0444 86.4784 75.2236C85.9199 74.4357 87.7741 75.5384 88.422 75.695C92.7848 76.7495 94.5773 77.2214 99.1891 78.125C100.977 78.4753 102.766 78.8141 104.557 79.0679C105.071 79.1406 106.605 79.3249 106.1 79.1042C104.879 78.5711 103.633 78.4242 102.398 78.125C86.324 74.2316 38.2065 60.3584 54.2387 65.105C67.6431 69.0736 81.024 73.4582 94.438 77.2545C97.4276 78.1007 100.418 78.9525 103.416 79.6119C105.621 80.097 99.0678 77.5933 96.8753 76.8556C87.2028 73.6012 77.5097 70.6866 67.8441 67.3173C67.1735 67.0835 65.1624 66.4134 65.8388 66.5194C70.371 67.2298 74.8546 69.1436 79.3671 70.3638C89.6745 73.1508 100.074 76.2665 110.45 77.3271C117.085 78.0053 97.3063 72.7679 90.705 71.0528C78.9168 67.9902 73.8066 66.843 62.2909 64.561C62.1967 64.5423 40.8723 60.6926 61.643 64.1983C72.9649 66.1092 84.3021 69.0433 95.6412 70.2912C100.904 70.8703 85.2127 66.6875 79.9687 65.5039C72.2411 63.7599 63.9361 64.2844 56.2749 61.1519C55.9051 61.0007 57.0107 60.7624 57.3855 60.7166C58.935 60.5276 68.8739 60.0322 69.7261 59.9913C71.7005 59.8965 73.6751 59.8328 75.6495 59.7374C76.678 59.6877 77.7088 59.7348 78.7347 59.5561C79.2067 59.4739 77.7888 59.4523 77.3155 59.4473C70.7598 59.3772 64.1821 59.522 57.6324 60.2089C45.1867 61.5142 82.5382 61.9039 94.9933 62.53C95.8916 62.5752 112.044 63.8083 96.7519 61.7321C87.3751 60.4591 77.9878 59.5537 68.6154 58.1054C57.6499 56.4109 112.445 65.2848 101.457 64.8874C92.5931 64.5668 83.6609 61.783 74.8166 60.499C72.1494 60.1118 69.4808 59.7667 66.8106 59.5198C61.7259 59.0497 63.9512 59.6631 67.366 60.6441C102.427 70.7169 42.7242 53.1385 88.3757 66.4832C92.013 67.5464 95.6474 68.6639 99.2817 69.7835C100.866 70.2717 102.451 70.7684 104.033 71.3067C104.833 71.5791 102.428 70.8254 101.626 70.5814C92.7167 67.8698 83.808 65.1835 74.8783 62.8564C73.3572 62.46 71.8372 62.0345 70.3123 61.7321C68.1877 61.3109 74.5265 63.2641 76.6368 63.9807C85.4201 66.9636 94.1931 70.2321 102.999 72.8299C103.506 72.9794 105.029 73.3376 104.526 73.1201C101.977 72.0158 92.1881 69.1493 91.3529 68.9131C82.8981 66.5215 74.4098 64.1778 65.9005 63.1466C58.9979 62.31 79.7025 64.964 86.6018 65.9391C91.6418 66.6515 96.6743 68.6879 101.719 68.1877C102.588 68.1016 100.006 67.4587 99.1428 67.2085C92.3087 65.2275 85.1615 63.6466 78.3336 62.3124C72.1877 61.1115 53.7191 59.3874 59.8845 59.0483C68.1325 58.5947 76.4081 59.3035 84.6581 59.266C86.787 59.2563 88.917 59.3086 91.0444 59.1209C91.2556 59.1022 91.856 58.7055 91.646 58.6494C90.0955 58.2352 88.5314 58.1647 86.972 58.0329C77.6899 57.2482 68.3989 57.1876 59.1132 56.7998C57.8584 56.7474 56.5898 57.0308 55.3494 56.5822C52.0254 55.3799 62.0749 56.3814 65.4377 56.292C68.4561 56.2118 71.4747 56.1497 74.4926 56.0019C76.9047 55.8837 79.3187 55.8212 81.7273 55.4942C82.7053 55.3614 83.7953 55.7793 84.6427 54.6237C85.0665 54.0459 83.7526 53.586 83.2698 53.3906C81.53 52.6867 79.767 52.3354 78.0097 51.94C75.6837 51.4165 73.3524 51.0295 71.0218 50.6343C68.4502 50.1983 60.7576 50.1301 63.309 49.2562C64.6936 48.7819 66.1058 49.0225 67.5048 48.966C72.7722 48.7536 79.947 48.6874 85.1518 48.6396C87.3319 48.6196 89.5121 48.6034 91.6922 48.6034C92.1705 48.6034 93.6047 48.598 93.1268 48.6396C92.0939 48.7296 91.0598 48.7207 90.0263 48.7484C84.0313 48.9094 78.0344 48.8092 72.0399 49.0023C71.4122 49.0225 69.6328 48.3747 70.158 49.1836C70.8102 50.1883 71.7091 49.5753 72.4873 49.6914C74.4656 49.9864 76.4456 50.2243 78.4262 50.4167C86.0462 51.1569 93.676 51.6073 101.302 51.7586C101.853 51.7695 103.502 51.7947 102.953 51.7223C99.1533 51.2221 95.3433 51.3353 91.538 51.2146C89.0319 51.1351 74.6309 50.7387 71.7006 50.7069C70.3739 50.6925 69.0269 50.2335 67.7207 50.7794C64.151 52.2715 74.9586 51.8337 78.5804 52.2301C81.7887 52.5812 84.9978 52.8908 88.206 53.2456C91.0582 53.561 99.5554 53.3509 96.7519 54.6237C95.4378 55.2203 94.079 54.9757 92.7412 55.0589C87.2514 55.4004 81.8384 55.3956 76.3437 55.4216C74.1481 55.432 71.9525 55.3939 69.7569 55.4216C66.6432 55.4609 67.4413 55.5518 69.7569 55.7843C74.2822 56.2386 78.8877 56.1592 83.3778 57.7427C83.8171 57.8977 84.961 57.849 84.6581 58.6131C84.2178 59.724 83.3885 59.199 82.7453 59.3385C81.2679 59.6589 79.7843 59.8016 78.3028 59.9913C74.6001 60.4654 63.4885 61.3563 67.1963 61.4783C72.112 61.6399 77.0281 61.182 81.9432 60.9342C87.1857 60.67 102.737 60.3889 97.6157 57.7427C89.2998 53.4461 80.3941 52.8501 71.932 51.2871C70.0664 50.9426 68.1986 50.6692 66.3324 50.3442C66.1161 50.3065 65.4678 50.1772 65.6846 50.1991C66.8574 50.3177 68.0296 50.4742 69.2016 50.6343C75.8362 51.541 82.4664 52.6182 89.1007 53.5357C89.7072 53.6196 91.5285 53.7533 90.921 53.7533C64.6309 53.7533 133.057 52.8069 82.1592 53.3906C79.9067 53.4165 77.654 53.5016 75.4027 53.6808C73.7044 53.816 72.0041 53.9575 70.3123 54.3336C69.823 54.4424 68.5154 54.3508 68.8777 55.1315C69.4186 56.2972 70.3216 55.7828 71.0527 55.9294C73.831 56.4865 79.0607 56.8723 81.7581 56.8723C83.1727 56.8723 84.5886 56.8012 86.0002 56.5822C86.6177 56.4864 88.2029 57.1007 87.8358 55.9294C87.3833 54.4855 86.3296 55.3155 85.5682 55.204C80.699 54.491 71.7758 54.3585 67.659 54.2973C63.2782 54.2322 58.8971 54.1691 54.5164 54.2611C50.8341 54.3384 47.1505 54.4304 43.4716 54.8051C41.4507 55.0109 39.356 54.5881 37.4247 56.0019C36.7872 56.4686 38.6014 57.6334 39.2604 57.8878C44.6666 59.9752 56.0767 61.3425 60.7329 61.8772C64.469 62.3062 68.2075 62.6494 71.9474 62.8202C73.5054 62.8913 75.0965 63.3573 76.6214 62.6025C77.3923 62.221 75.077 61.8184 74.2921 61.6596C66.8879 60.1613 59.4139 59.8463 51.9866 60.1364C51.0089 60.1746 50.0112 59.9381 49.0557 60.4265C45.4959 62.2459 56.3381 59.8828 59.9771 59.4836C71.0933 58.264 82.8947 59.0828 93.8827 54.3699C103.422 50.2784 74.6092 47.93 64.9133 48.1682C64.07 48.1889 61.6128 49.046 62.3835 48.2407C63.327 47.2547 64.4392 47.7782 65.4686 47.5879C67.905 47.1374 70.3428 46.7329 72.7804 46.3185C76.6795 45.6556 88.3822 44.0997 84.473 44.1787C77.4982 44.3197 70.5106 44.8018 63.5404 45.3756C61.5395 45.5403 59.538 45.6978 57.5398 45.9921C57.2368 46.0367 56.3417 46.3691 56.6451 46.3911C58.2795 46.5093 59.9156 46.3579 61.5505 46.2823C70.9256 45.8483 80.2937 45.1589 89.6715 45.0854C90.3245 45.0803 92.2835 45.1482 91.6305 45.1217C89.1731 45.0221 82.1861 44.8841 80.7709 44.9041C76.0345 44.9711 70.7011 45.1867 65.9314 45.9921C65.3243 46.0946 63.5244 46.436 64.1266 46.6449C68.1059 48.0253 72.1706 46.2833 76.1894 45.8833C81.749 45.33 98.4291 43.9544 92.8646 44.0337C84.6279 44.151 76.3619 45.4593 68.1372 46.246C64.2965 46.6133 60.4549 46.9262 56.6143 47.2977C54.0151 47.5492 46.2801 47.8027 48.8397 48.8935C57.9491 52.7753 67.9775 51.3266 77.1613 51.3597C98.1708 51.4354 77.8479 51.5017 76.9761 51.5047C72.6569 51.5196 68.3376 51.4709 64.0186 51.3597C57.6374 51.1954 51.2358 49.5966 44.8753 50.8157C41.5088 51.4609 51.5404 53.4858 54.902 54.2611C63.7319 56.2975 73.3894 60.0073 82.3134 58.8307C82.9105 58.752 81.1484 58.1691 80.5549 57.9966C77.9742 57.2464 65.8237 54.5593 64.3734 54.2248C60.4564 53.3213 48.7297 50.7134 52.6653 50.6343C60.9749 50.4674 69.2798 51.1107 77.5932 50.7794C79.8972 50.6876 82.2015 50.5715 84.5039 50.3442C84.8977 50.3053 86.0695 50.0422 85.6762 49.9815C84.0341 49.7283 82.3856 49.8147 80.74 49.7639C70.6073 49.4514 60.4449 49.7282 50.3206 48.5671C49.7083 48.4969 47.8906 48.0984 48.5004 47.9505C54.9977 46.3752 61.5595 47.0888 68.091 46.9351C76.2364 46.7433 86.1744 46.6859 94.4689 46.6449C95.5384 46.6396 98.7469 46.6449 97.6774 46.6449C92.3813 46.6449 87.0851 46.6449 81.789 46.6449C74.8528 46.6449 67.4328 47.8141 60.4707 46.6449C55.0282 45.7309 71.382 46.2441 76.8373 45.9921C79.3312 45.8769 81.8252 45.776 84.3188 45.6294C87.1038 45.4657 89.2557 45.3069 84.7507 45.1942C76.837 44.9963 68.9219 45.1414 61.0106 45.6294C59.8636 45.7002 58.7173 45.8221 57.5707 45.9196C54.3618 46.1923 63.9884 45.3774 67.1963 45.0492C72.8461 44.4711 89.716 42.6015 84.0874 41.3136C79.2915 40.2163 67.698 40.3176 63.7255 40.3707C60.4702 40.4142 57.2149 40.5399 53.961 40.7696C50.374 41.0228 48.4877 41.4891 53.0664 41.64C62.6605 41.9564 72.2897 41.8353 81.8815 41.2774C83.6209 41.1762 85.3773 41.3434 87.0954 40.6971C89.8312 39.6679 81.567 39.6423 78.7964 39.6091C76.9502 39.5869 75.102 39.5915 73.2586 39.8267C69.7672 40.2721 80.2528 40.0499 83.748 39.8267C86.8293 39.6299 89.9118 39.4192 92.988 38.9563C93.5324 38.8743 95.1367 38.276 94.5923 38.1946C92.2831 37.8494 89.9641 38.046 87.6507 38.1584C84.2401 38.3241 80.8297 38.592 77.4235 39.0288C75.033 39.3354 68.025 40.0999 70.3277 41.64C74.6085 44.5032 79.863 43.8793 84.2879 44.6865" stroke="#00BA67" stroke-opacity="0.5" stroke-linecap="round" stroke-linejoin="round"/>
<path d="M105.133 9H42.8566C36.9039 9 32.0942 13.8317 32.0942 19.7789V146.227C32.0942 152.168 36.9039 157 42.8566 157H105.128C111.081 157 115.901 152.168 115.901 146.227V19.7789C115.907 13.8317 111.092 9 105.133 9ZM58.6273 15.5491H89.3737C90.1523 15.5491 90.7763 16.7087 90.7763 18.1499C90.7763 19.5856 90.1523 20.7508 89.3737 20.7508H58.6273C57.8487 20.7508 57.2303 19.5856 57.2303 18.1499C57.2303 16.7087 57.8487 15.5491 58.6273 15.5491ZM74.0005 146.359C70.2069 146.359 67.1201 143.278 67.1201 139.479C67.1201 135.68 70.2124 132.609 74.0005 132.609C77.7886 132.609 80.8754 135.685 80.8754 139.479C80.8754 143.278 77.7831 146.359 74.0005 146.359ZM107.834 122.791H40.1674V27.1894H107.834V122.791Z" fill="black"/>
<path d="M62.0589 62.1334C61.917 61.6043 61.5777 61.1619 61.1034 60.8881C60.1242 60.3228 58.8675 60.6593 58.302 61.6388L57.9863 62.1855L57.6707 61.6387C57.1052 60.6595 55.8486 60.3228 54.8693 60.888H54.8692C53.8899 61.4535 53.5533 62.7101 54.1186 63.6895L55.6183 66.2869L50.0849 75.8711H46.0508C44.92 75.8711 44 76.791 44 77.9218C44 79.0526 44.92 79.9726 46.0508 79.9726H61.6252L59.2572 75.8711H54.821L61.8539 63.6896C62.1278 63.2152 62.2007 62.6625 62.0589 62.1334Z" fill="black"/>
<path d="M69.9218 75.8711H65.8877L61.3016 67.9277L58.9336 72.0293L66.0542 84.3625C66.3281 84.837 66.7703 85.1764 67.2995 85.3182C67.4762 85.3655 67.6555 85.389 67.8337 85.389C68.189 85.389 68.5398 85.2958 68.8558 85.1133C69.8351 84.5478 70.1718 83.2911 69.6064 82.3119L68.2557 79.9727H69.9218C71.0526 79.9727 71.9726 79.0527 71.9726 77.9219C71.9726 76.7911 71.0526 75.8711 69.9218 75.8711Z" fill="black"/>
<path d="M46.77 81.6133L46.3666 82.3119C45.8012 83.2911 46.138 84.5479 47.1173 85.1132C47.4394 85.2992 47.7915 85.3876 48.1392 85.3875C48.8485 85.3875 49.5392 85.0197 49.9187 84.3626L51.506 81.6133H46.77Z" fill="black"/>
<mask id="path-29-inside-1" fill="white">
<path d="M101.589 70.1139L84.1929 60.3622C83.7702 60.1252 83.2892 60 82.8022 60C82.3089 60 81.8227 60.1283 81.396 60.3711C80.5349 60.861 80 61.7718 80 62.7482V82.2517C80 83.228 80.5349 84.1388 81.3957 84.6287C81.8224 84.8717 82.3088 85 82.8021 85C83.2889 85 83.7698 84.8747 84.1928 84.6377L101.588 74.8858C102.459 74.3976 103 73.4835 103 72.4999C103 71.5163 102.459 70.6022 101.589 70.1139ZM94.0504 67.8081L91.662 71.0709L85.9488 63.2664L94.0504 67.8081ZM82.6926 83.3237C82.5372 83.309 82.3849 83.2645 82.2488 83.1871C81.91 82.9943 81.6995 82.6358 81.6995 82.2517V62.7481C81.6995 62.364 81.91 62.0055 82.2489 61.8127C82.3845 61.7355 82.5357 61.6895 82.691 61.6738L90.6159 72.4999L82.6926 83.3237ZM85.9488 81.7335L91.662 73.9289L94.0504 77.1917L85.9488 81.7335ZM100.745 73.4387L95.5338 76.3601L92.7079 72.4999L95.5338 68.6397L100.745 71.5611C101.088 71.7532 101.301 72.1129 101.301 72.4999C101.301 72.8869 101.088 73.2467 100.745 73.4387Z"/>
</mask>
<path d="M101.589 70.1139L84.1929 60.3622C83.7702 60.1252 83.2892 60 82.8022 60C82.3089 60 81.8227 60.1283 81.396 60.3711C80.5349 60.861 80 61.7718 80 62.7482V82.2517C80 83.228 80.5349 84.1388 81.3957 84.6287C81.8224 84.8717 82.3088 85 82.8021 85C83.2889 85 83.7698 84.8747 84.1928 84.6377L101.588 74.8858C102.459 74.3976 103 73.4835 103 72.4999C103 71.5163 102.459 70.6022 101.589 70.1139ZM94.0504 67.8081L91.662 71.0709L85.9488 63.2664L94.0504 67.8081ZM82.6926 83.3237C82.5372 83.309 82.3849 83.2645 82.2488 83.1871C81.91 82.9943 81.6995 82.6358 81.6995 82.2517V62.7481C81.6995 62.364 81.91 62.0055 82.2489 61.8127C82.3845 61.7355 82.5357 61.6895 82.691 61.6738L90.6159 72.4999L82.6926 83.3237ZM85.9488 81.7335L91.662 73.9289L94.0504 77.1917L85.9488 81.7335ZM100.745 73.4387L95.5338 76.3601L92.7079 72.4999L95.5338 68.6397L100.745 71.5611C101.088 71.7532 101.301 72.1129 101.301 72.4999C101.301 72.8869 101.088 73.2467 100.745 73.4387Z" fill="black"/>
<path d="M101.589 70.1139L116.261 43.9469L116.258 43.9452L101.589 70.1139ZM84.1929 60.3622L69.5215 86.53L69.5232 86.5309L84.1929 60.3622ZM81.396 60.3711L96.2312 86.4463L96.2323 86.4457L81.396 60.3711ZM81.3957 84.6287L96.2424 58.5599L96.2339 58.5551L81.3957 84.6287ZM84.1928 84.6377L98.8582 110.809L98.8627 110.806L84.1928 84.6377ZM101.588 74.8858L116.258 101.054L116.26 101.054L101.588 74.8858ZM94.0504 67.8081L118.257 85.5287L138.263 58.2007L108.72 41.6395L94.0504 67.8081ZM91.662 71.0709L67.4549 88.7914L91.6619 121.859L115.869 88.7914L91.662 71.0709ZM85.9488 63.2664L100.619 37.0978L61.7417 80.987L85.9488 63.2664ZM82.6926 83.3237L79.8513 113.189L96.8273 114.804L106.9 101.044L82.6926 83.3237ZM82.2488 83.1871L97.0882 57.1143L97.0866 57.1133L82.2488 83.1871ZM82.2489 61.8127L97.083 87.8886L97.0935 87.8826L82.2489 61.8127ZM82.691 61.6738L106.898 43.9536L96.7592 30.1027L79.6804 31.8253L82.691 61.6738ZM90.6159 72.4999L114.823 90.2201L127.795 72.4999L114.823 54.7797L90.6159 72.4999ZM85.9488 81.7335L61.7416 64.0131L100.619 107.902L85.9488 81.7335ZM91.662 73.9289L115.869 56.2083L91.6617 23.1402L67.4548 56.2086L91.662 73.9289ZM94.0504 77.1917L108.721 103.36L138.263 86.7988L118.257 59.4711L94.0504 77.1917ZM100.745 73.4387L86.0826 47.266L86.0753 47.2701L100.745 73.4387ZM95.5338 76.3601L71.3266 94.0806L87.0234 115.523L110.204 102.529L95.5338 76.3601ZM92.7079 72.4999L68.5008 54.7794L55.5288 72.4999L68.5008 90.2204L92.7079 72.4999ZM95.5338 68.6397L110.204 42.471L87.0234 29.4766L71.3266 50.9192L95.5338 68.6397ZM100.745 71.5611L115.418 45.394L115.415 45.3925L100.745 71.5611ZM116.258 43.9452L98.8626 34.1935L69.5232 86.5309L86.919 96.2826L116.258 43.9452ZM98.8643 34.1945C93.9344 31.4305 88.3978 30 82.8022 30V90C78.1806 90 73.6059 88.82 69.5215 86.53L98.8643 34.1945ZM82.8022 30C77.133 30 71.5305 31.4681 66.5596 34.2966L96.2323 86.4457C92.1148 88.7885 87.4849 90 82.8022 90V30ZM66.5608 34.2959C56.4961 40.0221 50 50.7905 50 62.7482H110C110 72.7532 104.574 81.6999 96.2312 86.4463L66.5608 34.2959ZM50 62.7482V82.2517H110V62.7482H50ZM50 82.2517C50 94.209 56.4956 104.976 66.5576 110.702L96.2339 58.5551C104.574 63.3015 110 72.2469 110 82.2517H50ZM66.5491 110.697C71.5266 113.532 77.1337 115 82.8021 115V55C87.4839 55 92.1182 56.2112 96.2424 58.5599L66.5491 110.697ZM82.8021 115C88.4045 115 93.9377 113.566 98.8582 110.809L69.5274 58.4666C73.602 56.1833 78.1733 55 82.8021 55V115ZM98.8627 110.806L116.258 101.054L86.9183 48.7173L69.5228 58.4691L98.8627 110.806ZM116.26 101.054C126.419 95.3574 133 84.539 133 72.4999H73C73 62.428 78.4988 53.4378 86.917 48.718L116.26 101.054ZM133 72.4999C133 60.4659 126.424 49.6456 116.261 43.9469L86.9159 96.2809C78.4944 91.5587 73 82.5667 73 72.4999H133ZM69.8434 50.0875L67.4549 53.3503L115.869 88.7914L118.257 85.5287L69.8434 50.0875ZM115.869 53.3503L110.156 45.5459L61.7417 80.987L67.4549 88.7914L115.869 53.3503ZM71.279 89.435L79.3806 93.9767L108.72 41.6395L100.619 37.0978L71.279 89.435ZM85.5339 53.4586C89.1327 53.801 93.1499 54.8728 97.0882 57.1143L67.4094 109.26C71.6198 111.656 75.9417 112.817 79.8513 113.189L85.5339 53.4586ZM97.0866 57.1133C105.949 62.1564 111.699 71.6539 111.699 82.2517H51.6995C51.6995 93.6178 57.8715 103.832 67.4109 109.261L97.0866 57.1133ZM111.699 82.2517V62.7481H51.6995V82.2517H111.699ZM111.699 62.7481C111.699 73.3471 105.947 82.8459 97.083 87.8886L67.4148 35.7369C57.8729 41.1651 51.6995 51.3808 51.6995 62.7481H111.699ZM97.0935 87.8826C93.3485 90.015 89.4241 91.1469 85.7015 91.5224L79.6804 31.8253C75.6472 32.2321 71.4205 33.456 67.4043 35.7429L97.0935 87.8826ZM58.4837 79.394L66.4085 90.2201L114.823 54.7797L106.898 43.9536L58.4837 79.394ZM66.4086 54.7796L58.4853 65.6035L106.9 101.044L114.823 90.2201L66.4086 54.7796ZM110.156 99.4538L115.869 91.6493L67.4548 56.2086L61.7416 64.0131L110.156 99.4538ZM67.4549 91.6495L69.8434 94.9123L118.257 59.4711L115.869 56.2083L67.4549 91.6495ZM79.3803 51.0232L71.2787 55.565L100.619 107.902L108.721 103.36L79.3803 51.0232ZM86.0753 47.2701L80.864 50.1915L110.204 102.529L115.415 99.6073L86.0753 47.2701ZM119.741 58.6396L116.915 54.7794L68.5008 90.2204L71.3266 94.0806L119.741 58.6396ZM116.915 90.2204L119.741 86.3602L71.3266 50.9192L68.5008 54.7794L116.915 90.2204ZM80.864 94.8083L86.0753 97.7297L115.415 45.3925L110.204 42.471L80.864 94.8083ZM86.0725 97.7281C77.1304 92.7141 71.3006 83.1719 71.3006 72.4999H131.301C131.301 61.0538 125.045 50.7923 115.418 45.394L86.0725 97.7281ZM71.3006 72.4999C71.3006 61.8373 77.123 52.2853 86.0826 47.266L115.408 99.6114C125.053 94.2081 131.301 83.9365 131.301 72.4999H71.3006Z" fill="black" mask="url(#path-29-inside-1)"/>
<path d="M81 83.5V62.5C81 61.3 82.6667 61 83.5 61L101.5 71C103.5 72.2 102.333 73.1667 101.5 73.5L83.5 84C82.3 85.2 81.3333 84.1667 81 83.5Z" stroke="black" stroke-width="3.5"/>
<path d="M82.6084 61.5244L94.3462 77.7929" stroke="black" stroke-width="2"/>
<path d="M94 68L83 83" stroke="black" stroke-width="2"/>
<path d="M18 155.5L126 9.5" stroke="black" stroke-width="4"/>
</g>
<path d="M162.854 90.3833C167.162 88.5499 171.411 86.8431 175.688 84.6531C177.043 83.9592 178.394 83.2098 179.729 82.332C181.59 81.1091 182.218 80.5866 180.084 80.5549C175.923 80.4929 171.737 81.0812 167.574 81.2439C162.729 81.4333 166.954 82.238 168.422 82.477C172.716 83.1763 185.627 82.1251 181.334 82.8397C177.3 83.5112 173.256 83.8458 169.224 84.6168C167.839 84.8818 166.447 85.0711 165.075 85.596C164.381 85.8617 161.997 86.8618 164.273 88.2798C168.974 91.2091 183.637 90.8496 178.788 91.7615C174.752 92.5206 170.697 92.6106 166.679 93.9375C161.841 95.5352 164.285 96.9901 167.543 97.9632C173.634 99.7823 179.768 100.801 185.869 102.424C186.534 102.601 187.251 102.381 187.859 103.041C189.776 105.121 183.643 102.435 181.534 102.206C176.291 101.638 171.029 101.304 165.785 101.989C165.299 102.052 164.759 101.827 164.335 102.388C163.055 104.08 167.265 102.801 168.731 103.004C173.952 103.729 189.514 108.388 184.357 106.341C175.853 102.966 150.098 97.7049 158.565 101.554C163.374 103.739 168.331 104.888 173.189 106.305C180.938 108.564 171.991 104.599 171.831 104.528C166.463 102.118 160.918 101.215 155.588 98.4709C152.629 96.9472 161.613 96.6751 164.643 96.6213C168.99 96.5441 172.186 96.8164 176.459 97.4192C177.494 97.5652 178.526 97.8019 179.56 97.9995C180.849 98.2459 180.898 98.3647 178.079 97.5642C173.184 96.1744 168.291 94.6883 163.409 93.0671C162.358 92.7182 161.305 92.3991 160.262 91.9428C157.768 90.852 161.547 91.252 161.589 91.2537C169.372 91.5865 192.689 94.704 184.928 93.2847C180.822 92.5339 176.683 92.4451 172.572 91.9065C169.549 91.5105 160.524 89.4563 163.502 90.746C171.747 94.3169 180.357 96.5574 188.707 98.2896C200.001 100.633 166.122 93.3733 154.801 91.9065C153.553 91.7448 152.298 91.3562 151.053 91.6164C148.799 92.0875 155.498 93.6817 157.748 94.2639C164.52 96.0168 171.398 97.4325 178.218 96.4762C179.017 96.3642 179.839 96.2716 180.593 95.6421C182.206 94.2967 177.21 94.3471 175.503 94.0826C165.932 92.6002 156.368 91.1584 146.811 89.2228C140.26 87.896 142.769 88.3435 145.114 88.6425C154.185 89.799 163.223 90.4666 172.31 90.1657C174.866 90.0811 177.422 89.8915 179.976 89.658C181.432 89.5249 185.749 89.3857 184.326 88.6425C179.733 86.2425 174.509 86.2497 169.857 85.2334C166.326 84.4622 155.736 83.2041 159.275 82.6946C167.162 81.5594 175.548 82.7855 183.385 83.7464C189.434 84.4881 207.441 89.1273 201.387 89.5854C193.247 90.2014 184.832 86.0854 176.752 84.2904C173.662 83.6038 169.883 82.8963 166.648 82.477C164.26 82.1675 171.417 83.3968 173.806 83.7101C175.836 83.9765 177.868 84.2006 179.899 84.4355C181.632 84.6358 183.366 84.7742 185.097 85.0158C185.706 85.1006 187.43 84.64 186.918 85.4147C186.285 86.3702 185.417 85.6686 184.666 85.6686C179.291 85.6686 173.292 85.1286 168.006 84.3629C164.501 83.8553 160.999 83.2004 157.501 82.477C154.684 81.8947 151.875 81.1452 149.063 80.4461C148.034 80.1901 146.877 78.4044 145.978 79.6119C145.136 80.7429 147.889 80.3885 148.847 80.7362C155.082 82.999 163.082 85.7675 169.178 87.627C172.788 88.7283 176.404 89.7393 180.022 90.6735C183.13 91.4757 192.315 94.9592 189.37 92.4868C188.486 91.7444 187.511 91.8753 186.578 91.6164C172.56 87.7238 187.041 92.0049 170.752 87.3369C167.219 86.3246 159.996 84.1597 156.097 82.8397C155.57 82.6612 153.991 82.2167 154.524 82.1869C158.066 81.9886 161.58 83.7392 165.106 84.5805C175.704 87.1096 186.312 89.5831 196.883 92.7044C198.136 93.0745 199.409 93.262 200.631 94.01C203.013 95.4677 195.711 93.5312 193.258 93.0671C186.57 91.8019 179.805 90.7244 173.158 88.4974C169.299 87.2045 180.965 88.1438 184.851 88.8601C195.158 90.7601 205.371 95.4031 215.671 97.0565C222.224 98.1084 202.75 91.298 196.219 89.658C191.076 88.3665 177.761 85.5992 171.955 84.3629C171.524 84.2711 160.012 81.7222 169.795 84.7981C177.132 87.105 184.507 88.5664 191.9 89.4041C193.036 89.5328 204.756 90.647 192.841 88.3523C183.127 86.4814 173.412 84.7105 163.702 82.6946C152.144 80.295 164.745 83.8102 164.921 83.8552C175.233 86.5028 206.366 88.3529 196.019 86.6115C191.221 85.804 186.41 85.4392 181.611 84.6531C174.182 83.4362 166.251 83.0519 158.92 79.5031C158.631 79.3634 159.505 79.2695 159.799 79.2855C177.333 80.2402 151.775 79.7822 176.706 80.4461C187.002 80.7202 197.306 80.5186 207.604 80.5186C208.339 80.5186 209.93 82.1515 209.809 80.4461C209.685 78.6947 208.31 80.0008 207.557 79.8658C205.883 79.5655 204.207 79.2969 202.528 79.1404C195.069 78.445 187.594 78.4558 180.13 78.0524C169.801 77.4941 181.552 79.2364 181.796 79.2855C189.501 80.8351 197.178 82.3347 204.827 85.0883C207.424 86.0232 209.788 86.8019 206.678 86.3939C198.046 85.2616 189.414 84.4495 180.778 83.4925C175.988 82.9616 161.636 80.5189 166.417 81.4253C176.05 83.2517 185.664 85.1942 195.248 88.2073C201.241 90.0918 219.146 96.9833 213.172 94.7717C204.463 91.547 195.64 90.4963 186.856 89.0052C182.871 88.3287 178.885 87.6882 174.901 86.9742C172.005 86.4551 169.112 85.8346 166.216 85.3059C165.338 85.1455 163.388 82.8848 163.579 84.907C163.777 87.0003 165.374 85.6759 166.278 85.9587C171.586 87.6188 176.98 88.9959 182.321 89.803C186.674 90.4609 192.036 90.8595 196.512 90.5284C196.872 90.5018 197.933 90.2177 197.577 90.0932C193.645 88.7191 189.632 89.3343 185.668 88.6425C172.824 86.4007 160.061 82.5917 147.305 78.4876C146.228 78.1413 142.998 77.1388 144.081 77.3633C149.927 78.5762 155.733 80.7228 161.573 82.0781C166.161 83.1425 170.751 84.1496 175.348 84.9432C176.971 85.2233 188.677 87.1577 192.193 86.2488C195.113 85.4944 186.589 82.0178 183.709 80.6637C182.267 79.9857 180.826 79.3038 179.39 78.5602C178.21 77.9494 174.734 76.9443 175.904 76.2391C176.551 75.8487 177.241 76.2386 177.909 76.3116C179.514 76.4871 188.674 77.8895 189.278 77.9799C190.356 78.1411 199.097 79.4547 200.986 79.6845C201.746 79.7769 202.514 80.0913 203.269 79.8658C205.278 79.266 199.241 78.8703 197.222 78.4876C183.197 75.829 169.223 72.5968 155.249 68.6955C150.479 67.3637 145.715 65.9031 140.949 64.4884C139.036 63.9205 137.129 63.2251 135.211 62.7476C134.167 62.4877 137.287 63.4964 138.327 63.8356C150.779 67.8973 163.254 71.531 175.719 75.3686C178.374 76.186 181.032 76.9501 183.678 77.9074C185.267 78.4821 180.462 77.6181 178.866 77.182C169.235 74.5519 159.637 71.2521 150.035 68.1152C148.179 67.5088 146.317 66.994 144.466 66.3018C141.054 65.0257 151.337 68.0185 154.771 68.9131C163.571 71.206 174.202 73.9934 183.03 76.0215C185.794 76.6564 188.559 77.2824 191.329 77.726C191.884 77.8148 193.528 77.9853 192.995 77.6172C191.656 76.6919 190.243 76.5063 188.861 76.0215C182.006 73.6151 175.115 71.3686 168.222 69.6384C167.397 69.4313 166.528 68.6425 165.738 69.2395C165.205 69.6424 166.808 70.0395 167.358 70.2912C169.345 71.201 171.344 71.9632 173.343 72.7211C180.671 75.4998 188.161 77.0781 195.433 80.5911C200.057 82.825 185.991 79.9451 181.287 78.9954C172.386 77.198 163.513 74.7628 154.616 72.9025C149.769 71.8889 164.237 76.3919 169.07 77.726C181.253 81.089 180.647 80.6593 192.147 83.3475C206.714 86.7527 191.088 84.299 190.651 84.2179C184.216 83.0244 177.855 80.929 171.461 78.9591C169.058 78.2188 176.227 81.0426 178.619 81.9693C179.893 82.4632 181.168 82.9455 182.444 83.42C184.891 84.3299 184.336 84.0735 182.599 83.42C177.677 81.5685 172.748 79.8236 167.821 78.0524C166.684 77.6439 165.546 77.2537 164.412 76.8193C164.22 76.7458 163.647 76.4843 163.841 76.5292C164.815 76.7552 165.785 77.0757 166.756 77.3633C171.788 78.8533 176.86 80.1468 181.858 82.1869C191.109 85.9631 163.168 77.741 153.876 74.5708C152.815 74.2088 151.753 73.858 150.698 73.4102C148.935 72.6615 154.257 74.4122 156.036 74.9334C162.313 76.7734 168.595 78.5349 174.87 80.4098C175.225 80.5158 176.288 80.865 175.935 80.7362C172.544 79.5012 169.147 78.369 165.754 77.182C158.278 74.5672 150.387 73.2595 143.032 69.0219C139.281 66.8611 150.76 68.3528 154.616 68.8405C161.54 69.7162 168.424 71.3765 175.333 72.6486C181.764 73.8326 162.546 68.1761 156.313 64.2708C149.371 59.9212 170.688 64.9585 177.847 66.3743C188.492 68.4796 220.408 75.1653 209.748 73.5553C202.993 72.535 196.257 70.9058 189.509 69.6384C173.9 66.7064 191.069 70.3508 191.329 70.4C193.488 70.8085 195.649 71.1476 197.808 71.5243C200.971 72.076 202.616 72.3158 196.482 71.5968C184.958 70.2463 173.429 68.8257 161.928 66.6282C159.25 66.1164 154.731 64.8497 161.851 66.3018C172.492 68.4722 183.124 71.1461 193.736 73.9905C208.79 78.0253 196.367 74.5414 196.482 75.8039C196.691 78.1062 211.71 80.4824 212.37 80.6637C213.327 80.9264 216.153 80.7813 215.239 81.4978C214.241 82.2804 213.14 81.1125 212.092 80.8813C209.634 80.3388 207.176 79.765 204.719 79.1767C202.127 78.556 199.535 77.9155 196.944 77.2545C195.128 76.7912 193.314 76.2975 191.499 75.8039C190.825 75.6205 190.06 76.0444 189.478 75.2236C188.92 74.4357 190.774 75.5384 191.422 75.695C195.785 76.7495 197.577 77.2214 202.189 78.125C203.977 78.4753 205.766 78.8141 207.557 79.0679C208.071 79.1406 209.605 79.3249 209.1 79.1042C207.879 78.5711 206.633 78.4242 205.398 78.125C189.324 74.2316 141.207 60.3584 157.239 65.105C170.643 69.0736 184.024 73.4582 197.438 77.2545C200.428 78.1007 203.418 78.9525 206.416 79.6119C208.621 80.097 202.068 77.5933 199.875 76.8556C190.203 73.6012 180.51 70.6866 170.844 67.3173C170.174 67.0835 168.162 66.4134 168.839 66.5194C173.371 67.2298 177.855 69.1436 182.367 70.3638C192.674 73.1508 203.074 76.2665 213.45 77.3271C220.085 78.0053 200.306 72.7679 193.705 71.0528C181.917 67.9902 176.807 66.843 165.291 64.561C165.197 64.5423 143.872 60.6926 164.643 64.1983C175.965 66.1092 187.302 69.0433 198.641 70.2912C203.904 70.8703 188.213 66.6875 182.969 65.5039C175.241 63.7599 166.936 64.2844 159.275 61.1519C158.905 61.0007 160.011 60.7624 160.386 60.7166C161.935 60.5276 171.874 60.0322 172.726 59.9913C174.7 59.8965 176.675 59.8328 178.65 59.7374C179.678 59.6877 180.709 59.7348 181.735 59.5561C182.207 59.4739 180.789 59.4523 180.316 59.4473C173.76 59.3772 167.182 59.522 160.632 60.2089C148.187 61.5142 185.538 61.9039 197.993 62.53C198.892 62.5752 215.044 63.8083 199.752 61.7321C190.375 60.4591 180.988 59.5537 171.615 58.1054C160.65 56.4109 215.445 65.2848 204.457 64.8874C195.593 64.5668 186.661 61.783 177.817 60.499C175.149 60.1118 172.481 59.7667 169.811 59.5198C164.726 59.0497 166.951 59.6631 170.366 60.6441C205.427 70.7169 145.724 53.1385 191.376 66.4832C195.013 67.5464 198.647 68.6639 202.282 69.7835C203.866 70.2717 205.451 70.7684 207.033 71.3067C207.833 71.5791 205.428 70.8254 204.626 70.5814C195.717 67.8698 186.808 65.1835 177.878 62.8564C176.357 62.46 174.837 62.0345 173.312 61.7321C171.188 61.3109 177.527 63.2641 179.637 63.9807C188.42 66.9636 197.193 70.2321 205.999 72.8299C206.506 72.9794 208.029 73.3376 207.526 73.1201C204.977 72.0158 195.188 69.1493 194.353 68.9131C185.898 66.5215 177.41 64.1778 168.901 63.1466C161.998 62.31 182.702 64.964 189.602 65.9391C194.642 66.6515 199.674 68.6879 204.719 68.1877C205.588 68.1016 203.006 67.4587 202.143 67.2085C195.309 65.2275 188.161 63.6466 181.334 62.3124C175.188 61.1115 156.719 59.3874 162.885 59.0483C171.133 58.5947 179.408 59.3035 187.658 59.266C189.787 59.2563 191.917 59.3086 194.044 59.1209C194.256 59.1022 194.856 58.7055 194.646 58.6494C193.095 58.2352 191.531 58.1647 189.972 58.0329C180.69 57.2482 171.399 57.1876 162.113 56.7998C160.858 56.7474 159.59 57.0308 158.349 56.5822C155.025 55.3799 165.075 56.3814 168.438 56.292C171.456 56.2118 174.475 56.1497 177.493 56.0019C179.905 55.8837 182.319 55.8212 184.727 55.4942C185.705 55.3614 186.795 55.7793 187.643 54.6237C188.066 54.0459 186.753 53.586 186.27 53.3906C184.53 52.6867 182.767 52.3354 181.01 51.94C178.684 51.4165 176.352 51.0295 174.022 50.6343C171.45 50.1983 163.758 50.1301 166.309 49.2562C167.694 48.7819 169.106 49.0225 170.505 48.966C175.772 48.7536 182.947 48.6874 188.152 48.6396C190.332 48.6196 192.512 48.6034 194.692 48.6034C195.17 48.6034 196.605 48.598 196.127 48.6396C195.094 48.7296 194.06 48.7207 193.026 48.7484C187.031 48.9094 181.034 48.8092 175.04 49.0023C174.412 49.0225 172.633 48.3747 173.158 49.1836C173.81 50.1883 174.709 49.5753 175.487 49.6914C177.466 49.9864 179.446 50.2243 181.426 50.4167C189.046 51.1569 196.676 51.6073 204.302 51.7586C204.853 51.7695 206.502 51.7947 205.953 51.7223C202.153 51.2221 198.343 51.3353 194.538 51.2146C192.032 51.1351 177.631 50.7387 174.701 50.7069C173.374 50.6925 172.027 50.2335 170.721 50.7794C167.151 52.2715 177.959 51.8337 181.58 52.2301C184.789 52.5812 187.998 52.8908 191.206 53.2456C194.058 53.561 202.555 53.3509 199.752 54.6237C198.438 55.2203 197.079 54.9757 195.741 55.0589C190.251 55.4004 184.838 55.3956 179.344 55.4216C177.148 55.432 174.952 55.3939 172.757 55.4216C169.643 55.4609 170.441 55.5518 172.757 55.7843C177.282 56.2386 181.888 56.1592 186.378 57.7427C186.817 57.8977 187.961 57.849 187.658 58.6131C187.218 59.724 186.388 59.199 185.745 59.3385C184.268 59.6589 182.784 59.8016 181.303 59.9913C177.6 60.4654 166.488 61.3563 170.196 61.4783C175.112 61.6399 180.028 61.182 184.943 60.9342C190.186 60.67 205.737 60.3889 200.616 57.7427C192.3 53.4461 183.394 52.8501 174.932 51.2871C173.066 50.9426 171.199 50.6692 169.332 50.3442C169.116 50.3065 168.468 50.1772 168.685 50.1991C169.857 50.3177 171.03 50.4742 172.202 50.6343C178.836 51.541 185.466 52.6182 192.101 53.5357C192.707 53.6196 194.528 53.7533 193.921 53.7533C167.631 53.7533 236.057 52.8069 185.159 53.3906C182.907 53.4165 180.654 53.5016 178.403 53.6808C176.704 53.816 175.004 53.9575 173.312 54.3336C172.823 54.4424 171.515 54.3508 171.878 55.1315C172.419 56.2972 173.322 55.7828 174.053 55.9294C176.831 56.4865 182.061 56.8723 184.758 56.8723C186.173 56.8723 187.589 56.8012 189 56.5822C189.618 56.4864 191.203 57.1007 190.836 55.9294C190.383 54.4855 189.33 55.3155 188.568 55.204C183.699 54.491 174.776 54.3585 170.659 54.2973C166.278 54.2322 161.897 54.1691 157.516 54.2611C153.834 54.3384 150.151 54.4304 146.472 54.8051C144.451 55.0109 142.356 54.5881 140.425 56.0019C139.787 56.4686 141.601 57.6334 142.26 57.8878C147.667 59.9752 159.077 61.3425 163.733 61.8772C167.469 62.3062 171.208 62.6494 174.947 62.8202C176.505 62.8913 178.096 63.3573 179.621 62.6025C180.392 62.221 178.077 61.8184 177.292 61.6596C169.888 60.1613 162.414 59.8463 154.987 60.1364C154.009 60.1746 153.011 59.9381 152.056 60.4265C148.496 62.2459 159.338 59.8828 162.977 59.4836C174.093 58.264 185.895 59.0828 196.883 54.3699C206.422 50.2784 177.609 47.93 167.913 48.1682C167.07 48.1889 164.613 49.046 165.383 48.2407C166.327 47.2547 167.439 47.7782 168.469 47.5879C170.905 47.1374 173.343 46.7329 175.78 46.3185C179.68 45.6556 191.382 44.0997 187.473 44.1787C180.498 44.3197 173.511 44.8018 166.54 45.3756C164.54 45.5403 162.538 45.6978 160.54 45.9921C160.237 46.0367 159.342 46.3691 159.645 46.3911C161.28 46.5093 162.916 46.3579 164.55 46.2823C173.926 45.8483 183.294 45.1589 192.671 45.0854C193.325 45.0803 195.283 45.1482 194.631 45.1217C192.173 45.0221 185.186 44.8841 183.771 44.9041C179.034 44.9711 173.701 45.1867 168.931 45.9921C168.324 46.0946 166.524 46.436 167.127 46.6449C171.106 48.0253 175.171 46.2833 179.189 45.8833C184.749 45.33 201.429 43.9544 195.865 44.0337C187.628 44.151 179.362 45.4593 171.137 46.246C167.297 46.6133 163.455 46.9262 159.614 47.2977C157.015 47.5492 149.28 47.8027 151.84 48.8935C160.949 52.7753 170.977 51.3266 180.161 51.3597C201.171 51.4354 180.848 51.5017 179.976 51.5047C175.657 51.5196 171.338 51.4709 167.019 51.3597C160.637 51.1954 154.236 49.5966 147.875 50.8157C144.509 51.4609 154.54 53.4858 157.902 54.2611C166.732 56.2975 176.389 60.0073 185.313 58.8307C185.91 58.752 184.148 58.1691 183.555 57.9966C180.974 57.2464 168.824 54.5593 167.373 54.2248C163.456 53.3213 151.73 50.7134 155.665 50.6343C163.975 50.4674 172.28 51.1107 180.593 50.7794C182.897 50.6876 185.202 50.5715 187.504 50.3442C187.898 50.3053 189.07 50.0422 188.676 49.9815C187.034 49.7283 185.386 49.8147 183.74 49.7639C173.607 49.4514 163.445 49.7282 153.321 48.5671C152.708 48.4969 150.891 48.0984 151.5 47.9505C157.998 46.3752 164.559 47.0888 171.091 46.9351C179.236 46.7433 189.174 46.6859 197.469 46.6449C198.538 46.6396 201.747 46.6449 200.677 46.6449C195.381 46.6449 190.085 46.6449 184.789 46.6449C177.853 46.6449 170.433 47.8141 163.471 46.6449C158.028 45.7309 174.382 46.2441 179.837 45.9921C182.331 45.8769 184.825 45.776 187.319 45.6294C190.104 45.4657 192.256 45.3069 187.751 45.1942C179.837 44.9963 171.922 45.1414 164.011 45.6294C162.864 45.7002 161.717 45.8221 160.571 45.9196C157.362 46.1923 166.988 45.3774 170.196 45.0492C175.846 44.4711 192.716 42.6015 187.087 41.3136C182.291 40.2163 170.698 40.3176 166.725 40.3707C163.47 40.4142 160.215 40.5399 156.961 40.7696C153.374 41.0228 151.488 41.4891 156.066 41.64C165.66 41.9564 175.29 41.8353 184.882 41.2774C186.621 41.1762 188.377 41.3434 190.095 40.6971C192.831 39.6679 184.567 39.6423 181.796 39.6091C179.95 39.5869 178.102 39.5915 176.259 39.8267C172.767 40.2721 183.253 40.0499 186.748 39.8267C189.829 39.6299 192.912 39.4192 195.988 38.9563C196.532 38.8743 198.137 38.276 197.592 38.1946C195.283 37.8494 192.964 38.046 190.651 38.1584C187.24 38.3241 183.83 38.592 180.423 39.0288C178.033 39.3354 171.025 40.0999 173.328 41.64C177.608 44.5032 182.863 43.8793 187.288 44.6865" stroke="#00BA67" stroke-opacity="0.5" stroke-linecap="round" stroke-linejoin="round"/>
<path d="M208.133 9H145.857C139.904 9 135.094 13.8317 135.094 19.7789V146.227C135.094 152.168 139.904 157 145.857 157H208.128C214.081 157 218.901 152.168 218.901 146.227V19.7789C218.907 13.8317 214.092 9 208.133 9ZM161.627 15.5491H192.374C193.152 15.5491 193.776 16.7087 193.776 18.1499C193.776 19.5856 193.152 20.7508 192.374 20.7508H161.627C160.849 20.7508 160.23 19.5856 160.23 18.1499C160.23 16.7087 160.849 15.5491 161.627 15.5491ZM177.001 146.359C173.207 146.359 170.12 143.278 170.12 139.479C170.12 135.68 173.212 132.609 177.001 132.609C180.789 132.609 183.875 135.685 183.875 139.479C183.875 143.278 180.783 146.359 177.001 146.359ZM210.834 122.791H143.167V27.1894H210.834V122.791Z" fill="black"/>
<path d="M145.861 85H151.231V77.59H153.841C158.581 77.59 162.661 75.25 162.661 69.94C162.661 64.42 158.611 62.65 153.721 62.65H145.861V85ZM151.231 73.36V66.91H153.421C156.001 66.91 157.441 67.69 157.441 69.94C157.441 72.13 156.181 73.36 153.571 73.36H151.231ZM168.377 85H175.007L176.957 75.28C177.287 73.57 177.557 71.77 177.857 70.09H177.977C178.187 71.77 178.487 73.57 178.847 75.28L180.857 85H187.607L191.477 62.65H186.407L184.937 72.85C184.667 75.16 184.367 77.53 184.097 79.93H183.947C183.497 77.53 183.107 75.13 182.657 72.85L180.347 62.65H175.817L173.537 72.85C173.087 75.16 172.637 77.53 172.217 79.93H172.097C171.797 77.53 171.497 75.19 171.197 72.85L169.787 62.65H164.327L168.377 85ZM199.924 73.84C200.494 71.62 201.094 69.01 201.634 66.67H201.754C202.354 68.95 202.924 71.62 203.524 73.84L204.004 75.73H199.444L199.924 73.84ZM191.674 85H197.134L198.424 79.87H205.024L206.314 85H211.954L205.024 62.65H198.604L191.674 85Z" fill="black"/>
<defs>
<clipPath id="clip0">
<rect width="147" height="147" fill="white" transform="translate(340 9)"/>
</clipPath>
<clipPath id="clip1">
<rect width="148" height="148" fill="white" transform="translate(0 9)"/>
</clipPath>
</defs>
</svg>
