<svg width="747" height="202" viewBox="0 0 747 202" fill="none" xmlns="http://www.w3.org/2000/svg">
<path d="M34.5267 178.182C36.8087 178.182 38.3487 176.936 38.3487 173.576V167.682H36.7807V173.688C36.7807 176.012 35.8287 176.768 34.5267 176.768C33.2387 176.768 32.3147 176.012 32.3147 173.688V167.682H30.6907V173.576C30.6907 176.936 32.2447 178.182 34.5267 178.182ZM42.8782 178.182C44.7822 178.182 45.8042 177.132 45.8042 175.844C45.8042 174.388 44.6142 173.912 43.5362 173.506C42.6962 173.198 41.9402 172.946 41.9402 172.288C41.9402 171.756 42.3322 171.336 43.1862 171.336C43.8162 171.336 44.3622 171.616 44.8942 172.008L45.6502 171.014C45.0342 170.524 44.1802 170.104 43.1582 170.104C41.4502 170.104 40.4142 171.07 40.4142 172.358C40.4142 173.66 41.5482 174.206 42.5842 174.598C43.4102 174.92 44.2782 175.228 44.2782 175.928C44.2782 176.516 43.8442 176.964 42.9202 176.964C42.0942 176.964 41.4222 176.614 40.7362 176.082L39.9802 177.118C40.7362 177.734 41.8142 178.182 42.8782 178.182ZM50.5988 178.182C52.5028 178.182 54.2248 176.712 54.2248 174.15C54.2248 171.588 52.5028 170.104 50.5988 170.104C48.6948 170.104 46.9728 171.588 46.9728 174.15C46.9728 176.712 48.6948 178.182 50.5988 178.182ZM50.5988 176.866C49.3948 176.866 48.6388 175.788 48.6388 174.15C48.6388 172.526 49.3948 171.434 50.5988 171.434C51.8168 171.434 52.5728 172.526 52.5728 174.15C52.5728 175.788 51.8168 176.866 50.5988 176.866ZM61.9229 178.182C62.7909 178.182 63.5889 177.72 64.1629 177.132H64.2189L64.3449 178H65.6609V166.842H64.0509V169.698L64.1209 170.972C63.4909 170.44 62.9309 170.104 62.0489 170.104C60.3269 170.104 58.7449 171.658 58.7449 174.15C58.7449 176.712 59.9909 178.182 61.9229 178.182ZM62.3009 176.852C61.0969 176.852 60.4109 175.886 60.4109 174.136C60.4109 172.47 61.2789 171.448 62.3569 171.448C62.9309 171.448 63.4769 171.63 64.0509 172.148V175.914C63.4909 176.558 62.9449 176.852 62.3009 176.852ZM71.2873 178.182C72.2953 178.182 73.1773 177.846 73.8913 177.37L73.3313 176.348C72.7713 176.712 72.1833 176.922 71.4973 176.922C70.1673 176.922 69.2433 176.04 69.1173 174.57H74.1153C74.1573 174.374 74.1993 174.066 74.1993 173.744C74.1993 171.574 73.0933 170.104 71.0493 170.104C69.2573 170.104 67.5353 171.658 67.5353 174.15C67.5353 176.698 69.2013 178.182 71.2873 178.182ZM69.1033 173.45C69.2573 172.106 70.1113 171.364 71.0773 171.364C72.1973 171.364 72.7993 172.134 72.7993 173.45H69.1033ZM79.1418 178H80.7518V173.198C81.2278 171.98 81.9838 171.546 82.6138 171.546C82.9218 171.546 83.1178 171.588 83.3838 171.672L83.6778 170.272C83.4398 170.16 83.1878 170.104 82.8098 170.104C81.9838 170.104 81.1718 170.692 80.6258 171.686H80.5838L80.4578 170.3H79.1418V178ZM87.926 178.182C88.934 178.182 89.816 177.846 90.53 177.37L89.97 176.348C89.41 176.712 88.822 176.922 88.136 176.922C86.806 176.922 85.882 176.04 85.756 174.57H90.754C90.796 174.374 90.838 174.066 90.838 173.744C90.838 171.574 89.732 170.104 87.688 170.104C85.896 170.104 84.174 171.658 84.174 174.15C84.174 176.698 85.84 178.182 87.926 178.182ZM85.742 173.45C85.896 172.106 86.75 171.364 87.716 171.364C88.836 171.364 89.438 172.134 89.438 173.45H85.742ZM95.296 178.182C96.164 178.182 96.962 177.72 97.536 177.132H97.592L97.718 178H99.034V166.842H97.424V169.698L97.494 170.972C96.864 170.44 96.304 170.104 95.422 170.104C93.7 170.104 92.118 171.658 92.118 174.15C92.118 176.712 93.364 178.182 95.296 178.182ZM95.674 176.852C94.47 176.852 93.784 175.886 93.784 174.136C93.784 172.47 94.652 171.448 95.73 171.448C96.304 171.448 96.85 171.63 97.424 172.148V175.914C96.864 176.558 96.318 176.852 95.674 176.852ZM104.66 178.182C105.668 178.182 106.55 177.846 107.264 177.37L106.704 176.348C106.144 176.712 105.556 176.922 104.87 176.922C103.54 176.922 102.616 176.04 102.49 174.57H107.488C107.53 174.374 107.572 174.066 107.572 173.744C107.572 171.574 106.466 170.104 104.422 170.104C102.63 170.104 100.908 171.658 100.908 174.15C100.908 176.698 102.574 178.182 104.66 178.182ZM102.476 173.45C102.63 172.106 103.484 171.364 104.45 171.364C105.57 171.364 106.172 172.134 106.172 173.45H102.476ZM111.456 178.182C113.36 178.182 114.382 177.132 114.382 175.844C114.382 174.388 113.192 173.912 112.114 173.506C111.274 173.198 110.518 172.946 110.518 172.288C110.518 171.756 110.91 171.336 111.764 171.336C112.394 171.336 112.94 171.616 113.472 172.008L114.228 171.014C113.612 170.524 112.758 170.104 111.736 170.104C110.028 170.104 108.992 171.07 108.992 172.358C108.992 173.66 110.126 174.206 111.162 174.598C111.988 174.92 112.856 175.228 112.856 175.928C112.856 176.516 112.422 176.964 111.498 176.964C110.672 176.964 110 176.614 109.314 176.082L108.558 177.118C109.314 177.734 110.392 178.182 111.456 178.182ZM121.327 178.182C123.231 178.182 124.253 177.132 124.253 175.844C124.253 174.388 123.063 173.912 121.985 173.506C121.145 173.198 120.389 172.946 120.389 172.288C120.389 171.756 120.781 171.336 121.635 171.336C122.265 171.336 122.811 171.616 123.343 172.008L124.099 171.014C123.483 170.524 122.629 170.104 121.607 170.104C119.899 170.104 118.863 171.07 118.863 172.358C118.863 173.66 119.997 174.206 121.033 174.598C121.859 174.92 122.727 175.228 122.727 175.928C122.727 176.516 122.293 176.964 121.369 176.964C120.543 176.964 119.871 176.614 119.185 176.082L118.429 177.118C119.185 177.734 120.263 178.182 121.327 178.182ZM129.048 178.182C130.952 178.182 132.674 176.712 132.674 174.15C132.674 171.588 130.952 170.104 129.048 170.104C127.144 170.104 125.422 171.588 125.422 174.15C125.422 176.712 127.144 178.182 129.048 178.182ZM129.048 176.866C127.844 176.866 127.088 175.788 127.088 174.15C127.088 172.526 127.844 171.434 129.048 171.434C130.266 171.434 131.022 172.526 131.022 174.15C131.022 175.788 130.266 176.866 129.048 176.866ZM137.704 178.182C138.586 178.182 139.496 177.86 140.21 177.23L139.538 176.166C139.076 176.558 138.502 176.866 137.858 176.866C136.584 176.866 135.688 175.788 135.688 174.15C135.688 172.526 136.612 171.434 137.914 171.434C138.432 171.434 138.866 171.658 139.286 172.036L140.084 170.986C139.524 170.496 138.81 170.104 137.83 170.104C135.8 170.104 134.022 171.588 134.022 174.15C134.022 176.712 135.618 178.182 137.704 178.182ZM141.8 178H143.41V170.3H141.8V178ZM142.598 168.858C143.186 168.858 143.606 168.48 143.606 167.892C143.606 167.318 143.186 166.94 142.598 166.94C142.01 166.94 141.604 167.318 141.604 167.892C141.604 168.48 142.01 168.858 142.598 168.858ZM147.64 178.182C148.564 178.182 149.39 177.72 150.09 177.118H150.146L150.272 178H151.588V173.366C151.588 171.322 150.706 170.104 148.788 170.104C147.556 170.104 146.478 170.608 145.68 171.112L146.282 172.204C146.94 171.784 147.696 171.42 148.508 171.42C149.642 171.42 149.964 172.204 149.978 173.1C146.772 173.45 145.372 174.304 145.372 175.956C145.372 177.314 146.31 178.182 147.64 178.182ZM148.13 176.908C147.444 176.908 146.926 176.6 146.926 175.844C146.926 174.976 147.696 174.388 149.978 174.122V176.012C149.348 176.586 148.802 176.908 148.13 176.908ZM155.468 178.182C155.874 178.182 156.14 178.126 156.336 178.056L156.126 176.838C155.986 176.866 155.93 176.866 155.86 176.866C155.664 176.866 155.482 176.712 155.482 176.278V166.842H153.872V176.194C153.872 177.44 154.306 178.182 155.468 178.182ZM161.248 178.182C162.256 178.182 163.138 177.846 163.852 177.37L163.292 176.348C162.732 176.712 162.144 176.922 161.458 176.922C160.128 176.922 159.204 176.04 159.078 174.57H164.076C164.118 174.374 164.16 174.066 164.16 173.744C164.16 171.574 163.054 170.104 161.01 170.104C159.218 170.104 157.496 171.658 157.496 174.15C157.496 176.698 159.162 178.182 161.248 178.182ZM159.064 173.45C159.218 172.106 160.072 171.364 161.038 171.364C162.158 171.364 162.76 172.134 162.76 173.45H159.064ZM168.044 178.182C169.948 178.182 170.97 177.132 170.97 175.844C170.97 174.388 169.78 173.912 168.702 173.506C167.862 173.198 167.106 172.946 167.106 172.288C167.106 171.756 167.498 171.336 168.352 171.336C168.982 171.336 169.528 171.616 170.06 172.008L170.816 171.014C170.2 170.524 169.346 170.104 168.324 170.104C166.616 170.104 165.58 171.07 165.58 172.358C165.58 173.66 166.714 174.206 167.75 174.598C168.576 174.92 169.444 175.228 169.444 175.928C169.444 176.516 169.01 176.964 168.086 176.964C167.26 176.964 166.588 176.614 165.902 176.082L165.146 177.118C165.902 177.734 166.98 178.182 168.044 178.182ZM59.4065 201.122H61.0165V198.63L60.9605 197.314C61.6185 197.874 62.3045 198.182 62.9905 198.182C64.7265 198.182 66.3085 196.67 66.3085 194.024C66.3085 191.658 65.2165 190.104 63.2705 190.104C62.4025 190.104 61.5625 190.58 60.8905 191.14H60.8485L60.7225 190.3H59.4065V201.122ZM62.6825 196.852C62.2065 196.852 61.6185 196.67 61.0165 196.152V192.386C61.6605 191.756 62.2345 191.448 62.8365 191.448C64.1245 191.448 64.6425 192.442 64.6425 194.052C64.6425 195.858 63.8025 196.852 62.6825 196.852ZM69.8398 198.182C70.7638 198.182 71.5898 197.72 72.2898 197.118H72.3458L72.4718 198H73.7878V193.366C73.7878 191.322 72.9058 190.104 70.9878 190.104C69.7558 190.104 68.6778 190.608 67.8798 191.112L68.4818 192.204C69.1398 191.784 69.8958 191.42 70.7078 191.42C71.8418 191.42 72.1638 192.204 72.1778 193.1C68.9718 193.45 67.5718 194.304 67.5718 195.956C67.5718 197.314 68.5098 198.182 69.8398 198.182ZM70.3298 196.908C69.6438 196.908 69.1258 196.6 69.1258 195.844C69.1258 194.976 69.8958 194.388 72.1778 194.122V196.012C71.5478 196.586 71.0018 196.908 70.3298 196.908ZM76.0725 198H77.6825V193.198C78.1585 191.98 78.9145 191.546 79.5445 191.546C79.8525 191.546 80.0485 191.588 80.3145 191.672L80.6085 190.272C80.3705 190.16 80.1185 190.104 79.7405 190.104C78.9145 190.104 78.1025 190.692 77.5565 191.686H77.5145L77.3885 190.3H76.0725V198ZM83.2245 198.182C84.1485 198.182 84.9745 197.72 85.6745 197.118H85.7305L85.8565 198H87.1725V193.366C87.1725 191.322 86.2905 190.104 84.3725 190.104C83.1405 190.104 82.0625 190.608 81.2645 191.112L81.8665 192.204C82.5245 191.784 83.2805 191.42 84.0925 191.42C85.2265 191.42 85.5485 192.204 85.5625 193.1C82.3565 193.45 80.9565 194.304 80.9565 195.956C80.9565 197.314 81.8945 198.182 83.2245 198.182ZM83.7145 196.908C83.0285 196.908 82.5105 196.6 82.5105 195.844C82.5105 194.976 83.2805 194.388 85.5625 194.122V196.012C84.9325 196.586 84.3865 196.908 83.7145 196.908ZM95.2618 198.182C96.1298 198.182 96.9278 197.72 97.5018 197.132H97.5578L97.6838 198H98.9998V186.842H97.3898V189.698L97.4598 190.972C96.8298 190.44 96.2698 190.104 95.3878 190.104C93.6658 190.104 92.0838 191.658 92.0838 194.15C92.0838 196.712 93.3298 198.182 95.2618 198.182ZM95.6398 196.852C94.4358 196.852 93.7498 195.886 93.7498 194.136C93.7498 192.47 94.6178 191.448 95.6958 191.448C96.2698 191.448 96.8158 191.63 97.3898 192.148V195.914C96.8298 196.558 96.2838 196.852 95.6398 196.852ZM101.42 198H103.03V190.3H101.42V198ZM102.218 188.858C102.806 188.858 103.226 188.48 103.226 187.892C103.226 187.318 102.806 186.94 102.218 186.94C101.63 186.94 101.224 187.318 101.224 187.892C101.224 188.48 101.63 188.858 102.218 188.858ZM105.706 198H107.316V191.588H108.87V190.3H107.316V189.32C107.316 188.382 107.652 187.934 108.338 187.934C108.604 187.934 108.898 188.004 109.178 188.13L109.5 186.912C109.15 186.772 108.66 186.66 108.142 186.66C106.42 186.66 105.706 187.752 105.706 189.334V190.3L104.656 190.384V191.588H105.706V198ZM112.534 198.182C113.584 198.182 114.34 197.65 115.04 196.838H115.082L115.208 198H116.524V190.3H114.914V195.648C114.27 196.46 113.78 196.796 113.066 196.796C112.156 196.796 111.778 196.264 111.778 194.948V190.3H110.168V195.144C110.168 197.104 110.882 198.182 112.534 198.182ZM121.033 198.182C122.937 198.182 123.959 197.132 123.959 195.844C123.959 194.388 122.769 193.912 121.691 193.506C120.851 193.198 120.095 192.946 120.095 192.288C120.095 191.756 120.487 191.336 121.341 191.336C121.971 191.336 122.517 191.616 123.049 192.008L123.805 191.014C123.189 190.524 122.335 190.104 121.313 190.104C119.605 190.104 118.569 191.07 118.569 192.358C118.569 193.66 119.703 194.206 120.739 194.598C121.565 194.92 122.433 195.228 122.433 195.928C122.433 196.516 121.999 196.964 121.075 196.964C120.249 196.964 119.577 196.614 118.891 196.082L118.135 197.118C118.891 197.734 119.969 198.182 121.033 198.182ZM125.674 198H127.284V190.3H125.674V198ZM126.472 188.858C127.06 188.858 127.48 188.48 127.48 187.892C127.48 187.318 127.06 186.94 126.472 186.94C125.884 186.94 125.478 187.318 125.478 187.892C125.478 188.48 125.884 188.858 126.472 188.858ZM132.774 198.182C134.678 198.182 136.4 196.712 136.4 194.15C136.4 191.588 134.678 190.104 132.774 190.104C130.87 190.104 129.148 191.588 129.148 194.15C129.148 196.712 130.87 198.182 132.774 198.182ZM132.774 196.866C131.57 196.866 130.814 195.788 130.814 194.15C130.814 192.526 131.57 191.434 132.774 191.434C133.992 191.434 134.748 192.526 134.748 194.15C134.748 195.788 133.992 196.866 132.774 196.866ZM132.676 188.984L135.266 186.548L134.146 185.484L131.85 188.186L132.676 188.984ZM138.293 198H139.903V192.54C140.575 191.854 141.065 191.49 141.779 191.49C142.689 191.49 143.081 192.022 143.081 193.352V198H144.691V193.156C144.691 191.196 143.963 190.104 142.325 190.104C141.275 190.104 140.491 190.678 139.777 191.364H139.735L139.609 190.3H138.293V198Z" fill="#484545"/>
<path d="M292.692 178H294.316V173.842H295.982L298.32 178H300.154L297.634 173.632C298.936 173.226 299.79 172.274 299.79 170.678C299.79 168.452 298.194 167.682 296.066 167.682H292.692V178ZM294.316 172.54V168.998H295.87C297.368 168.998 298.18 169.432 298.18 170.678C298.18 171.924 297.368 172.54 295.87 172.54H294.316ZM304.795 178.182C305.803 178.182 306.685 177.846 307.399 177.37L306.839 176.348C306.279 176.712 305.691 176.922 305.005 176.922C303.675 176.922 302.751 176.04 302.625 174.57H307.623C307.665 174.374 307.707 174.066 307.707 173.744C307.707 171.574 306.601 170.104 304.557 170.104C302.765 170.104 301.043 171.658 301.043 174.15C301.043 176.698 302.709 178.182 304.795 178.182ZM302.611 173.45C302.765 172.106 303.619 171.364 304.585 171.364C305.705 171.364 306.307 172.134 306.307 173.45H302.611ZM312.641 178.182C313.523 178.182 314.433 177.86 315.147 177.23L314.475 176.166C314.013 176.558 313.439 176.866 312.795 176.866C311.521 176.866 310.625 175.788 310.625 174.15C310.625 172.526 311.549 171.434 312.851 171.434C313.369 171.434 313.803 171.658 314.223 172.036L315.021 170.986C314.461 170.496 313.747 170.104 312.767 170.104C310.737 170.104 308.959 171.588 308.959 174.15C308.959 176.712 310.555 178.182 312.641 178.182ZM319.448 178.182C321.352 178.182 323.074 176.712 323.074 174.15C323.074 171.588 321.352 170.104 319.448 170.104C317.544 170.104 315.822 171.588 315.822 174.15C315.822 176.712 317.544 178.182 319.448 178.182ZM319.448 176.866C318.244 176.866 317.488 175.788 317.488 174.15C317.488 172.526 318.244 171.434 319.448 171.434C320.666 171.434 321.422 172.526 321.422 174.15C321.422 175.788 320.666 176.866 319.448 176.866ZM324.968 178H326.578V172.54C327.208 171.84 327.782 171.49 328.3 171.49C329.182 171.49 329.588 172.022 329.588 173.352V178H331.198V172.54C331.842 171.84 332.402 171.49 332.934 171.49C333.802 171.49 334.222 172.022 334.222 173.352V178H335.832V173.156C335.832 171.196 335.076 170.104 333.466 170.104C332.5 170.104 331.716 170.706 330.96 171.518C330.624 170.636 329.98 170.104 328.832 170.104C327.88 170.104 327.11 170.678 326.452 171.378H326.41L326.284 170.3H324.968V178ZM341.367 178.182C342.375 178.182 343.257 177.846 343.971 177.37L343.411 176.348C342.851 176.712 342.263 176.922 341.577 176.922C340.247 176.922 339.323 176.04 339.197 174.57H344.195C344.237 174.374 344.279 174.066 344.279 173.744C344.279 171.574 343.173 170.104 341.129 170.104C339.337 170.104 337.615 171.658 337.615 174.15C337.615 176.698 339.281 178.182 341.367 178.182ZM339.183 173.45C339.337 172.106 340.191 171.364 341.157 171.364C342.277 171.364 342.879 172.134 342.879 173.45H339.183ZM346.077 178H347.687V172.54C348.359 171.854 348.849 171.49 349.563 171.49C350.473 171.49 350.865 172.022 350.865 173.352V178H352.475V173.156C352.475 171.196 351.747 170.104 350.109 170.104C349.059 170.104 348.275 170.678 347.561 171.364H347.519L347.393 170.3H346.077V178ZM357.474 178.182C358.342 178.182 359.14 177.72 359.714 177.132H359.77L359.896 178H361.212V166.842H359.602V169.698L359.672 170.972C359.042 170.44 358.482 170.104 357.6 170.104C355.878 170.104 354.296 171.658 354.296 174.15C354.296 176.712 355.542 178.182 357.474 178.182ZM357.852 176.852C356.648 176.852 355.962 175.886 355.962 174.136C355.962 172.47 356.83 171.448 357.908 171.448C358.482 171.448 359.028 171.63 359.602 172.148V175.914C359.042 176.558 358.496 176.852 357.852 176.852ZM365.452 178.182C366.376 178.182 367.202 177.72 367.902 177.118H367.958L368.084 178H369.4V173.366C369.4 171.322 368.518 170.104 366.6 170.104C365.368 170.104 364.29 170.608 363.492 171.112L364.094 172.204C364.752 171.784 365.508 171.42 366.32 171.42C367.454 171.42 367.776 172.204 367.79 173.1C364.584 173.45 363.184 174.304 363.184 175.956C363.184 177.314 364.122 178.182 365.452 178.182ZM365.942 176.908C365.256 176.908 364.738 176.6 364.738 175.844C364.738 174.976 365.508 174.388 367.79 174.122V176.012C367.16 176.586 366.614 176.908 365.942 176.908ZM374.821 178.182C375.703 178.182 376.613 177.86 377.327 177.23L376.655 176.166C376.193 176.558 375.619 176.866 374.975 176.866C373.701 176.866 372.805 175.788 372.805 174.15C372.805 172.526 373.729 171.434 375.031 171.434C375.549 171.434 375.983 171.658 376.403 172.036L377.201 170.986C376.641 170.496 375.927 170.104 374.947 170.104C372.917 170.104 371.139 171.588 371.139 174.15C371.139 176.712 372.735 178.182 374.821 178.182ZM378.917 178H380.527V170.3H378.917V178ZM379.715 168.858C380.303 168.858 380.723 168.48 380.723 167.892C380.723 167.318 380.303 166.94 379.715 166.94C379.127 166.94 378.721 167.318 378.721 167.892C378.721 168.48 379.127 168.858 379.715 168.858ZM386.017 178.182C387.921 178.182 389.643 176.712 389.643 174.15C389.643 171.588 387.921 170.104 386.017 170.104C384.113 170.104 382.391 171.588 382.391 174.15C382.391 176.712 384.113 178.182 386.017 178.182ZM386.017 176.866C384.813 176.866 384.057 175.788 384.057 174.15C384.057 172.526 384.813 171.434 386.017 171.434C387.235 171.434 387.991 172.526 387.991 174.15C387.991 175.788 387.235 176.866 386.017 176.866ZM391.536 178H393.146V172.54C393.818 171.854 394.308 171.49 395.022 171.49C395.932 171.49 396.324 172.022 396.324 173.352V178H397.934V173.156C397.934 171.196 397.206 170.104 395.568 170.104C394.518 170.104 393.734 170.678 393.02 171.364H392.978L392.852 170.3H391.536V178ZM403.479 178.182C404.487 178.182 405.369 177.846 406.083 177.37L405.523 176.348C404.963 176.712 404.375 176.922 403.689 176.922C402.359 176.922 401.435 176.04 401.309 174.57H406.307C406.349 174.374 406.391 174.066 406.391 173.744C406.391 171.574 405.285 170.104 403.241 170.104C401.449 170.104 399.727 171.658 399.727 174.15C399.727 176.698 401.393 178.182 403.479 178.182ZM401.295 173.45C401.449 172.106 402.303 171.364 403.269 171.364C404.389 171.364 404.991 172.134 404.991 173.45H401.295ZM410.275 178.182C412.179 178.182 413.201 177.132 413.201 175.844C413.201 174.388 412.011 173.912 410.933 173.506C410.093 173.198 409.337 172.946 409.337 172.288C409.337 171.756 409.729 171.336 410.583 171.336C411.213 171.336 411.759 171.616 412.291 172.008L413.047 171.014C412.431 170.524 411.577 170.104 410.555 170.104C408.847 170.104 407.811 171.07 407.811 172.358C407.811 173.66 408.945 174.206 409.981 174.598C410.807 174.92 411.675 175.228 411.675 175.928C411.675 176.516 411.241 176.964 410.317 176.964C409.491 176.964 408.819 176.614 408.133 176.082L407.377 177.118C408.133 177.734 409.211 178.182 410.275 178.182ZM419.656 178.182C420.062 178.182 420.328 178.126 420.524 178.056L420.314 176.838C420.174 176.866 420.118 176.866 420.048 176.866C419.852 176.866 419.67 176.712 419.67 176.278V166.842H418.06V176.194C418.06 177.44 418.494 178.182 419.656 178.182ZM424.05 178.182C424.974 178.182 425.8 177.72 426.5 177.118H426.556L426.682 178H427.998V173.366C427.998 171.322 427.116 170.104 425.198 170.104C423.966 170.104 422.888 170.608 422.09 171.112L422.692 172.204C423.35 171.784 424.106 171.42 424.918 171.42C426.052 171.42 426.374 172.204 426.388 173.1C423.182 173.45 421.782 174.304 421.782 175.956C421.782 177.314 422.72 178.182 424.05 178.182ZM424.54 176.908C423.854 176.908 423.336 176.6 423.336 175.844C423.336 174.976 424.106 174.388 426.388 174.122V176.012C425.758 176.586 425.212 176.908 424.54 176.908ZM433.866 178.182C435.602 178.182 437.184 176.67 437.184 174.024C437.184 171.658 436.078 170.104 434.132 170.104C433.32 170.104 432.494 170.538 431.836 171.112L431.892 169.796V166.842H430.282V178H431.542L431.696 177.202H431.738C432.396 177.818 433.166 178.182 433.866 178.182ZM433.558 176.852C433.082 176.852 432.48 176.67 431.892 176.152V172.386C432.522 171.756 433.11 171.448 433.712 171.448C435 171.448 435.518 172.442 435.518 174.052C435.518 175.858 434.678 176.852 433.558 176.852ZM442.167 178.182C444.071 178.182 445.793 176.712 445.793 174.15C445.793 171.588 444.071 170.104 442.167 170.104C440.263 170.104 438.541 171.588 438.541 174.15C438.541 176.712 440.263 178.182 442.167 178.182ZM442.167 176.866C440.963 176.866 440.207 175.788 440.207 174.15C440.207 172.526 440.963 171.434 442.167 171.434C443.385 171.434 444.141 172.526 444.141 174.15C444.141 175.788 443.385 176.866 442.167 176.866ZM447.687 178H449.297V173.198C449.773 171.98 450.529 171.546 451.159 171.546C451.467 171.546 451.663 171.588 451.929 171.672L452.223 170.272C451.985 170.16 451.733 170.104 451.355 170.104C450.529 170.104 449.717 170.692 449.171 171.686H449.129L449.003 170.3H447.687V178ZM454.839 178.182C455.763 178.182 456.589 177.72 457.289 177.118H457.345L457.471 178H458.787V173.366C458.787 171.322 457.905 170.104 455.987 170.104C454.755 170.104 453.677 170.608 452.879 171.112L453.481 172.204C454.139 171.784 454.895 171.42 455.707 171.42C456.841 171.42 457.163 172.204 457.177 173.1C453.971 173.45 452.571 174.304 452.571 175.956C452.571 177.314 453.509 178.182 454.839 178.182ZM455.329 176.908C454.643 176.908 454.125 176.6 454.125 175.844C454.125 174.976 454.895 174.388 457.177 174.122V176.012C456.547 176.586 456.001 176.908 455.329 176.908ZM462.668 178.182C463.074 178.182 463.34 178.126 463.536 178.056L463.326 176.838C463.186 176.866 463.13 176.866 463.06 176.866C462.864 176.866 462.682 176.712 462.682 176.278V166.842H461.072V176.194C461.072 177.44 461.506 178.182 462.668 178.182ZM468.447 178.182C469.455 178.182 470.337 177.846 471.051 177.37L470.491 176.348C469.931 176.712 469.343 176.922 468.657 176.922C467.327 176.922 466.403 176.04 466.277 174.57H471.275C471.317 174.374 471.359 174.066 471.359 173.744C471.359 171.574 470.253 170.104 468.209 170.104C466.417 170.104 464.695 171.658 464.695 174.15C464.695 176.698 466.361 178.182 468.447 178.182ZM466.263 173.45C466.417 172.106 467.271 171.364 468.237 171.364C469.357 171.364 469.959 172.134 469.959 173.45H466.263ZM475.243 178.182C477.147 178.182 478.169 177.132 478.169 175.844C478.169 174.388 476.979 173.912 475.901 173.506C475.061 173.198 474.305 172.946 474.305 172.288C474.305 171.756 474.697 171.336 475.551 171.336C476.181 171.336 476.727 171.616 477.259 172.008L478.015 171.014C477.399 170.524 476.545 170.104 475.523 170.104C473.815 170.104 472.779 171.07 472.779 172.358C472.779 173.66 473.913 174.206 474.949 174.598C475.775 174.92 476.643 175.228 476.643 175.928C476.643 176.516 476.209 176.964 475.285 176.964C474.459 176.964 473.787 176.614 473.101 176.082L472.345 177.118C473.101 177.734 474.179 178.182 475.243 178.182ZM335.782 201.122H337.392V198.63L337.336 197.314C337.994 197.874 338.68 198.182 339.366 198.182C341.102 198.182 342.684 196.67 342.684 194.024C342.684 191.658 341.592 190.104 339.646 190.104C338.778 190.104 337.938 190.58 337.266 191.14H337.224L337.098 190.3H335.782V201.122ZM339.058 196.852C338.582 196.852 337.994 196.67 337.392 196.152V192.386C338.036 191.756 338.61 191.448 339.212 191.448C340.5 191.448 341.018 192.442 341.018 194.052C341.018 195.858 340.178 196.852 339.058 196.852ZM347.807 198.182C348.815 198.182 349.697 197.846 350.411 197.37L349.851 196.348C349.291 196.712 348.703 196.922 348.017 196.922C346.687 196.922 345.763 196.04 345.637 194.57H350.635C350.677 194.374 350.719 194.066 350.719 193.744C350.719 191.574 349.613 190.104 347.569 190.104C345.777 190.104 344.055 191.658 344.055 194.15C344.055 196.698 345.721 198.182 347.807 198.182ZM345.623 193.45C345.777 192.106 346.631 191.364 347.597 191.364C348.717 191.364 349.319 192.134 349.319 193.45H345.623ZM352.517 198H354.127V193.198C354.603 191.98 355.359 191.546 355.989 191.546C356.297 191.546 356.493 191.588 356.759 191.672L357.053 190.272C356.815 190.16 356.563 190.104 356.185 190.104C355.359 190.104 354.547 190.692 354.001 191.686H353.959L353.833 190.3H352.517V198ZM360.249 198.182C362.153 198.182 363.175 197.132 363.175 195.844C363.175 194.388 361.985 193.912 360.907 193.506C360.067 193.198 359.311 192.946 359.311 192.288C359.311 191.756 359.703 191.336 360.557 191.336C361.187 191.336 361.733 191.616 362.265 192.008L363.021 191.014C362.405 190.524 361.551 190.104 360.529 190.104C358.821 190.104 357.785 191.07 357.785 192.358C357.785 193.66 358.919 194.206 359.955 194.598C360.781 194.92 361.649 195.228 361.649 195.928C361.649 196.516 361.215 196.964 360.291 196.964C359.465 196.964 358.793 196.614 358.107 196.082L357.351 197.118C358.107 197.734 359.185 198.182 360.249 198.182ZM367.97 198.182C369.874 198.182 371.596 196.712 371.596 194.15C371.596 191.588 369.874 190.104 367.97 190.104C366.066 190.104 364.344 191.588 364.344 194.15C364.344 196.712 366.066 198.182 367.97 198.182ZM367.97 196.866C366.766 196.866 366.01 195.788 366.01 194.15C366.01 192.526 366.766 191.434 367.97 191.434C369.188 191.434 369.944 192.526 369.944 194.15C369.944 195.788 369.188 196.866 367.97 196.866ZM373.489 198H375.099V192.54C375.771 191.854 376.261 191.49 376.975 191.49C377.885 191.49 378.277 192.022 378.277 193.352V198H379.887V193.156C379.887 191.196 379.159 190.104 377.521 190.104C376.471 190.104 375.687 190.678 374.973 191.364H374.931L374.805 190.3H373.489V198ZM384.046 198.182C384.97 198.182 385.796 197.72 386.496 197.118H386.552L386.678 198H387.994V193.366C387.994 191.322 387.112 190.104 385.194 190.104C383.962 190.104 382.884 190.608 382.086 191.112L382.688 192.204C383.346 191.784 384.102 191.42 384.914 191.42C386.048 191.42 386.37 192.204 386.384 193.1C383.178 193.45 381.778 194.304 381.778 195.956C381.778 197.314 382.716 198.182 384.046 198.182ZM384.536 196.908C383.85 196.908 383.332 196.6 383.332 195.844C383.332 194.976 384.102 194.388 386.384 194.122V196.012C385.754 196.586 385.208 196.908 384.536 196.908ZM391.875 198.182C392.281 198.182 392.547 198.126 392.743 198.056L392.533 196.838C392.393 196.866 392.337 196.866 392.267 196.866C392.071 196.866 391.889 196.712 391.889 196.278V186.842H390.279V196.194C390.279 197.44 390.713 198.182 391.875 198.182ZM394.448 198H396.058V190.3H394.448V198ZM395.246 188.858C395.834 188.858 396.254 188.48 396.254 187.892C396.254 187.318 395.834 186.94 395.246 186.94C394.658 186.94 394.252 187.318 394.252 187.892C394.252 188.48 394.658 188.858 395.246 188.858ZM397.768 198H403.718V196.712H399.798L403.592 191.154V190.3H398.188V191.588H401.576L397.768 197.132V198ZM406.823 198.182C407.747 198.182 408.573 197.72 409.273 197.118H409.329L409.455 198H410.771V193.366C410.771 191.322 409.889 190.104 407.971 190.104C406.739 190.104 405.661 190.608 404.863 191.112L405.465 192.204C406.123 191.784 406.879 191.42 407.691 191.42C408.825 191.42 409.147 192.204 409.161 193.1C405.955 193.45 404.555 194.304 404.555 195.956C404.555 197.314 405.493 198.182 406.823 198.182ZM407.313 196.908C406.627 196.908 406.109 196.6 406.109 195.844C406.109 194.976 406.879 194.388 409.161 194.122V196.012C408.531 196.586 407.985 196.908 407.313 196.908ZM415.716 198.182C416.584 198.182 417.382 197.72 417.956 197.132H418.012L418.138 198H419.454V186.842H417.844V189.698L417.914 190.972C417.284 190.44 416.724 190.104 415.842 190.104C414.12 190.104 412.538 191.658 412.538 194.15C412.538 196.712 413.784 198.182 415.716 198.182ZM416.094 196.852C414.89 196.852 414.204 195.886 414.204 194.136C414.204 192.47 415.072 191.448 416.15 191.448C416.724 191.448 417.27 191.63 417.844 192.148V195.914C417.284 196.558 416.738 196.852 416.094 196.852ZM423.694 198.182C424.618 198.182 425.444 197.72 426.144 197.118H426.2L426.326 198H427.642V193.366C427.642 191.322 426.76 190.104 424.842 190.104C423.61 190.104 422.532 190.608 421.734 191.112L422.336 192.204C422.994 191.784 423.75 191.42 424.562 191.42C425.696 191.42 426.018 192.204 426.032 193.1C422.826 193.45 421.426 194.304 421.426 195.956C421.426 197.314 422.364 198.182 423.694 198.182ZM424.184 196.908C423.498 196.908 422.98 196.6 422.98 195.844C422.98 194.976 423.75 194.388 426.032 194.122V196.012C425.402 196.586 424.856 196.908 424.184 196.908ZM432.013 198.182C433.917 198.182 434.939 197.132 434.939 195.844C434.939 194.388 433.749 193.912 432.671 193.506C431.831 193.198 431.075 192.946 431.075 192.288C431.075 191.756 431.467 191.336 432.321 191.336C432.951 191.336 433.497 191.616 434.029 192.008L434.785 191.014C434.169 190.524 433.315 190.104 432.293 190.104C430.585 190.104 429.549 191.07 429.549 192.358C429.549 193.66 430.683 194.206 431.719 194.598C432.545 194.92 433.413 195.228 433.413 195.928C433.413 196.516 432.979 196.964 432.055 196.964C431.229 196.964 430.557 196.614 429.871 196.082L429.115 197.118C429.871 197.734 430.949 198.182 432.013 198.182Z" fill="#484545"/>
<path d="M616.562 178.182C618.816 178.182 620.188 176.838 620.188 175.186C620.188 173.674 619.306 172.918 618.088 172.4L616.674 171.798C615.834 171.462 615.008 171.126 615.008 170.23C615.008 169.418 615.694 168.914 616.744 168.914C617.654 168.914 618.368 169.264 619.012 169.838L619.866 168.802C619.082 168.004 617.948 167.5 616.744 167.5C614.784 167.5 613.356 168.718 613.356 170.342C613.356 171.84 614.462 172.624 615.456 173.044L616.884 173.66C617.836 174.08 618.536 174.374 618.536 175.312C618.536 176.18 617.836 176.768 616.59 176.768C615.596 176.768 614.588 176.292 613.846 175.55L612.894 176.67C613.832 177.622 615.148 178.182 616.562 178.182ZM625.205 178.182C626.213 178.182 627.095 177.846 627.809 177.37L627.249 176.348C626.689 176.712 626.101 176.922 625.415 176.922C624.085 176.922 623.161 176.04 623.035 174.57H628.033C628.075 174.374 628.117 174.066 628.117 173.744C628.117 171.574 627.011 170.104 624.967 170.104C623.175 170.104 621.453 171.658 621.453 174.15C621.453 176.698 623.119 178.182 625.205 178.182ZM623.021 173.45C623.175 172.106 624.029 171.364 624.995 171.364C626.115 171.364 626.717 172.134 626.717 173.45H623.021ZM633.051 178.182C633.933 178.182 634.843 177.86 635.557 177.23L634.885 176.166C634.423 176.558 633.849 176.866 633.205 176.866C631.931 176.866 631.035 175.788 631.035 174.15C631.035 172.526 631.959 171.434 633.261 171.434C633.779 171.434 634.213 171.658 634.633 172.036L635.431 170.986C634.871 170.496 634.157 170.104 633.177 170.104C631.147 170.104 629.369 171.588 629.369 174.15C629.369 176.712 630.965 178.182 633.051 178.182ZM639.915 178.182C640.797 178.182 641.707 177.86 642.421 177.23L641.749 176.166C641.287 176.558 640.713 176.866 640.069 176.866C638.795 176.866 637.899 175.788 637.899 174.15C637.899 172.526 638.823 171.434 640.125 171.434C640.643 171.434 641.077 171.658 641.497 172.036L642.295 170.986C641.735 170.496 641.021 170.104 640.041 170.104C638.011 170.104 636.233 171.588 636.233 174.15C636.233 176.712 637.829 178.182 639.915 178.182ZM644.011 178H645.621V170.3H644.011V178ZM644.809 168.858C645.397 168.858 645.817 168.48 645.817 167.892C645.817 167.318 645.397 166.94 644.809 166.94C644.221 166.94 643.815 167.318 643.815 167.892C643.815 168.48 644.221 168.858 644.809 168.858ZM651.111 178.182C653.015 178.182 654.737 176.712 654.737 174.15C654.737 171.588 653.015 170.104 651.111 170.104C649.207 170.104 647.485 171.588 647.485 174.15C647.485 176.712 649.207 178.182 651.111 178.182ZM651.111 176.866C649.907 176.866 649.151 175.788 649.151 174.15C649.151 172.526 649.907 171.434 651.111 171.434C652.329 171.434 653.085 172.526 653.085 174.15C653.085 175.788 652.329 176.866 651.111 176.866ZM651.013 168.984L653.603 166.548L652.483 165.484L650.187 168.186L651.013 168.984ZM656.63 178H658.24V172.54C658.912 171.854 659.402 171.49 660.116 171.49C661.026 171.49 661.418 172.022 661.418 173.352V178H663.028V173.156C663.028 171.196 662.3 170.104 660.662 170.104C659.612 170.104 658.828 170.678 658.114 171.364H658.072L657.946 170.3H656.63V178ZM671.717 178.182C672.725 178.182 673.607 177.846 674.321 177.37L673.761 176.348C673.201 176.712 672.613 176.922 671.927 176.922C670.597 176.922 669.673 176.04 669.547 174.57H674.545C674.587 174.374 674.629 174.066 674.629 173.744C674.629 171.574 673.523 170.104 671.479 170.104C669.687 170.104 667.965 171.658 667.965 174.15C667.965 176.698 669.631 178.182 671.717 178.182ZM669.533 173.45C669.687 172.106 670.541 171.364 671.507 171.364C672.627 171.364 673.229 172.134 673.229 173.45H669.533ZM676.427 178H678.037V172.54C678.667 171.84 679.241 171.49 679.759 171.49C680.641 171.49 681.047 172.022 681.047 173.352V178H682.657V172.54C683.301 171.84 683.861 171.49 684.393 171.49C685.261 171.49 685.681 172.022 685.681 173.352V178H687.291V173.156C687.291 171.196 686.535 170.104 684.925 170.104C683.959 170.104 683.175 170.706 682.419 171.518C682.083 170.636 681.439 170.104 680.291 170.104C679.339 170.104 678.569 170.678 677.911 171.378H677.869L677.743 170.3H676.427V178ZM689.62 181.122H691.23V178.63L691.174 177.314C691.832 177.874 692.518 178.182 693.204 178.182C694.94 178.182 696.522 176.67 696.522 174.024C696.522 171.658 695.43 170.104 693.484 170.104C692.616 170.104 691.776 170.58 691.104 171.14H691.062L690.936 170.3H689.62V181.122ZM692.896 176.852C692.42 176.852 691.832 176.67 691.23 176.152V172.386C691.874 171.756 692.448 171.448 693.05 171.448C694.338 171.448 694.856 172.442 694.856 174.052C694.856 175.858 694.016 176.852 692.896 176.852ZM700.035 178.182C700.441 178.182 700.707 178.126 700.903 178.056L700.693 176.838C700.553 176.866 700.497 176.866 700.427 176.866C700.231 176.866 700.049 176.712 700.049 176.278V166.842H698.439V176.194C698.439 177.44 698.873 178.182 700.035 178.182ZM705.815 178.182C706.823 178.182 707.705 177.846 708.419 177.37L707.859 176.348C707.299 176.712 706.711 176.922 706.025 176.922C704.695 176.922 703.771 176.04 703.645 174.57H708.643C708.685 174.374 708.727 174.066 708.727 173.744C708.727 171.574 707.621 170.104 705.577 170.104C703.785 170.104 702.063 171.658 702.063 174.15C702.063 176.698 703.729 178.182 705.815 178.182ZM703.631 173.45C703.785 172.106 704.639 171.364 705.605 171.364C706.725 171.364 707.327 172.134 707.327 173.45H703.631ZM713.605 178.182C715.509 178.182 717.231 176.712 717.231 174.15C717.231 171.588 715.509 170.104 713.605 170.104C711.701 170.104 709.979 171.588 709.979 174.15C709.979 176.712 711.701 178.182 713.605 178.182ZM713.605 176.866C712.401 176.866 711.645 175.788 711.645 174.15C711.645 172.526 712.401 171.434 713.605 171.434C714.823 171.434 715.579 172.526 715.579 174.15C715.579 175.788 714.823 176.866 713.605 176.866ZM721.169 178.182C723.073 178.182 724.095 177.132 724.095 175.844C724.095 174.388 722.905 173.912 721.827 173.506C720.987 173.198 720.231 172.946 720.231 172.288C720.231 171.756 720.623 171.336 721.477 171.336C722.107 171.336 722.653 171.616 723.185 172.008L723.941 171.014C723.325 170.524 722.471 170.104 721.449 170.104C719.741 170.104 718.705 171.07 718.705 172.358C718.705 173.66 719.839 174.206 720.875 174.598C721.701 174.92 722.569 175.228 722.569 175.928C722.569 176.516 722.135 176.964 721.211 176.964C720.385 176.964 719.713 176.614 719.027 176.082L718.271 177.118C719.027 177.734 720.105 178.182 721.169 178.182ZM640.895 198.182C641.763 198.182 642.561 197.72 643.135 197.132H643.191L643.317 198H644.633V186.842H643.023V189.698L643.093 190.972C642.463 190.44 641.903 190.104 641.021 190.104C639.299 190.104 637.717 191.658 637.717 194.15C637.717 196.712 638.963 198.182 640.895 198.182ZM641.273 196.852C640.069 196.852 639.383 195.886 639.383 194.136C639.383 192.47 640.251 191.448 641.329 191.448C641.903 191.448 642.449 191.63 643.023 192.148V195.914C642.463 196.558 641.917 196.852 641.273 196.852ZM650.259 198.182C651.267 198.182 652.149 197.846 652.863 197.37L652.303 196.348C651.743 196.712 651.155 196.922 650.469 196.922C649.139 196.922 648.215 196.04 648.089 194.57H653.087C653.129 194.374 653.171 194.066 653.171 193.744C653.171 191.574 652.065 190.104 650.021 190.104C648.229 190.104 646.507 191.658 646.507 194.15C646.507 196.698 648.173 198.182 650.259 198.182ZM648.075 193.45C648.229 192.106 649.083 191.364 650.049 191.364C651.169 191.364 651.771 192.134 651.771 193.45H648.075ZM656.565 198.182C656.971 198.182 657.237 198.126 657.433 198.056L657.223 196.838C657.083 196.866 657.027 196.866 656.957 196.866C656.761 196.866 656.579 196.712 656.579 196.278V186.842H654.969V196.194C654.969 197.44 655.403 198.182 656.565 198.182ZM662.549 198H664.159V191.588H665.713V190.3H664.159V189.32C664.159 188.382 664.495 187.934 665.181 187.934C665.447 187.934 665.741 188.004 666.021 188.13L666.343 186.912C665.993 186.772 665.503 186.66 664.985 186.66C663.263 186.66 662.549 187.752 662.549 189.334V190.3L661.499 190.384V191.588H662.549V198ZM669.378 198.182C670.428 198.182 671.184 197.65 671.884 196.838H671.926L672.052 198H673.368V190.3H671.758V195.648C671.114 196.46 670.624 196.796 669.91 196.796C669 196.796 668.622 196.264 668.622 194.948V190.3H667.012V195.144C667.012 197.104 667.726 198.182 669.378 198.182ZM678.381 198.182C678.941 198.182 679.459 198.042 679.893 197.902L679.599 196.712C679.375 196.81 679.039 196.894 678.773 196.894C677.975 196.894 677.653 196.418 677.653 195.494V191.588H679.655V190.3H677.653V188.172H676.309L676.127 190.3L674.923 190.384V191.588H676.043V195.48C676.043 197.104 676.645 198.182 678.381 198.182ZM683.61 198.182C684.66 198.182 685.416 197.65 686.116 196.838H686.158L686.284 198H687.6V190.3H685.99V195.648C685.346 196.46 684.856 196.796 684.142 196.796C683.232 196.796 682.854 196.264 682.854 194.948V190.3H681.244V195.144C681.244 197.104 681.958 198.182 683.61 198.182ZM690.024 198H691.634V193.198C692.11 191.98 692.866 191.546 693.496 191.546C693.804 191.546 694 191.588 694.266 191.672L694.56 190.272C694.322 190.16 694.07 190.104 693.692 190.104C692.866 190.104 692.054 190.692 691.508 191.686H691.466L691.34 190.3H690.024V198ZM698.682 198.182C700.586 198.182 702.308 196.712 702.308 194.15C702.308 191.588 700.586 190.104 698.682 190.104C696.778 190.104 695.056 191.588 695.056 194.15C695.056 196.712 696.778 198.182 698.682 198.182ZM698.682 196.866C697.478 196.866 696.722 195.788 696.722 194.15C696.722 192.526 697.478 191.434 698.682 191.434C699.9 191.434 700.656 192.526 700.656 194.15C700.656 195.788 699.9 196.866 698.682 196.866Z" fill="#484545"/>
<path d="M390.438 67.9589C394.063 66.6303 397.638 65.3935 401.237 63.8066C402.378 63.3038 403.514 62.7608 404.638 62.1246C406.204 61.2385 406.733 60.8599 404.937 60.8369C401.435 60.792 397.913 61.2183 394.41 61.3362C390.333 61.4734 393.888 62.0565 395.124 62.2297C398.737 62.7364 409.601 61.9747 405.988 62.4925C402.594 62.9791 399.191 63.2216 395.799 63.7803C394.633 63.9723 393.462 64.1095 392.307 64.4899C391.723 64.6824 389.717 65.4071 391.632 66.4346C395.588 68.5573 407.926 68.2968 403.846 68.9576C400.45 69.5077 397.038 69.5729 393.657 70.5344C389.586 71.6922 391.642 72.7464 394.384 73.4516C399.509 74.7698 404.671 75.5078 409.804 76.6841C410.364 76.8123 410.967 76.6532 411.479 77.1309C413.092 78.6384 407.932 76.6921 406.157 76.5264C401.745 76.1145 397.317 75.8723 392.904 76.3687C392.495 76.4147 392.041 76.2514 391.684 76.6578C390.607 77.884 394.15 76.9572 395.383 77.1046C399.777 77.6298 412.872 81.0055 408.532 79.5224C401.377 77.077 379.705 73.2644 386.829 76.0534C390.875 77.6372 395.047 78.4696 399.135 79.4961C405.655 81.1336 398.126 78.2603 397.992 78.2084C393.475 76.4621 388.809 75.8078 384.324 73.8195C381.834 72.7154 389.394 72.5182 391.944 72.4792C395.601 72.4232 398.291 72.6206 401.886 73.0574C402.757 73.1632 403.626 73.3347 404.495 73.4779C405.58 73.6565 405.621 73.7425 403.249 73.1625C399.13 72.1553 395.013 71.0785 390.905 69.9037C390.021 69.6509 389.135 69.4196 388.257 69.089C386.159 68.2985 389.339 68.5884 389.373 68.5897C395.923 68.8308 415.543 71.0899 409.012 70.0614C405.558 69.5173 402.075 69.4529 398.615 69.0627C396.071 68.7757 388.477 67.2872 390.983 68.2217C397.921 70.8093 405.166 72.4329 412.193 73.6881C421.696 75.3859 393.188 70.1256 383.662 69.0627C382.612 68.9455 381.556 68.6639 380.508 68.8525C378.611 69.1938 384.249 70.3491 386.141 70.771C391.84 72.0411 397.628 73.067 403.366 72.3741C404.039 72.2929 404.73 72.2258 405.365 71.7696C406.722 70.7947 402.518 70.8312 401.082 70.6396C393.028 69.5653 384.98 68.5206 376.938 67.1179C371.426 66.1565 373.537 66.4808 375.511 66.6975C383.144 67.5355 390.748 68.0193 398.395 67.8012C400.546 67.7399 402.696 67.6025 404.846 67.4333C406.071 67.3369 409.703 67.236 408.506 66.6975C404.641 64.9583 400.246 64.9635 396.331 64.2271C393.36 63.6682 384.448 62.7566 387.426 62.3874C394.063 61.5648 401.12 62.4532 407.714 63.1496C412.805 63.687 427.957 67.0488 422.862 67.3807C416.013 67.8271 408.932 64.8445 402.133 63.5438C399.532 63.0462 396.353 62.5335 393.631 62.2297C391.621 62.0054 397.644 62.8963 399.654 63.1233C401.362 63.3163 403.072 63.4787 404.781 63.6489C406.239 63.7941 407.698 63.8943 409.155 64.0694C409.667 64.1309 411.118 63.7971 410.687 64.3585C410.155 65.0509 409.424 64.5424 408.792 64.5424C404.269 64.5424 399.222 64.1511 394.773 63.5963C391.824 63.2285 388.877 62.7539 385.934 62.2297C383.564 61.8077 381.199 61.2646 378.834 60.758C377.967 60.5725 376.994 59.2786 376.238 60.1536C375.529 60.9731 377.846 60.7163 378.652 60.9683C383.899 62.608 390.63 64.6142 395.76 65.9616C398.798 66.7596 401.84 67.4922 404.885 68.1692C407.5 68.7505 415.228 71.2748 412.751 69.4832C412.007 68.9452 411.186 69.0401 410.401 68.8525C398.606 66.0317 410.791 69.134 397.084 65.7513C394.111 65.0178 388.033 63.4491 384.753 62.4925C384.309 62.3632 382.981 62.0411 383.429 62.0195C386.41 61.8758 389.366 63.1444 392.333 63.754C401.251 65.5867 410.177 67.3791 419.072 69.6409C420.127 69.9091 421.198 70.0449 422.226 70.587C424.231 71.6433 418.086 70.24 416.022 69.9037C410.394 68.9869 404.702 68.2061 399.109 66.5923C395.861 65.6554 405.678 66.3361 408.948 66.8551C417.621 68.232 426.214 71.5964 434.882 72.7946C440.396 73.5568 424.01 68.6218 418.514 67.4333C414.186 66.4974 402.982 64.4922 398.096 63.5963C397.733 63.5298 388.047 61.6827 396.279 63.9117C402.453 65.5834 408.659 66.6423 414.879 67.2493C415.835 67.3426 425.697 68.15 415.671 66.4872C407.497 65.1315 399.322 63.8482 391.152 62.3874C381.426 60.6485 392.03 63.1958 392.177 63.2284C400.854 65.147 427.052 66.4876 418.345 65.2257C414.308 64.6406 410.26 64.3762 406.222 63.8066C399.971 62.9248 393.297 62.6463 387.128 60.0747C386.885 59.9735 387.62 59.9054 387.868 59.917C402.621 60.6088 381.115 60.277 402.094 60.758C410.758 60.9567 419.428 60.8106 428.093 60.8106C428.712 60.8106 430.051 61.9938 429.949 60.758C429.845 59.4889 428.688 60.4354 428.054 60.3375C426.645 60.1199 425.235 59.9253 423.823 59.8119C417.545 59.3079 411.256 59.3158 404.976 59.0235C396.284 58.6189 406.172 59.8814 406.377 59.917C412.861 61.0399 419.321 62.1266 425.757 64.1219C427.942 64.7994 429.932 65.3637 427.314 65.0681C420.051 64.2475 412.788 63.6591 405.521 62.9656C401.49 62.5809 389.414 60.8108 393.436 61.4676C401.542 62.7911 409.632 64.1987 417.696 66.3821C422.739 67.7477 437.805 72.7415 432.779 71.1389C425.45 68.8021 418.026 68.0408 410.635 66.9603C407.282 66.47 403.928 66.006 400.575 65.4885C398.138 65.1124 395.704 64.6628 393.267 64.2796C392.528 64.1634 390.887 62.5252 391.048 63.9905C391.214 65.5075 392.559 64.5478 393.319 64.7527C397.786 65.9557 402.325 66.9535 406.819 67.5384C410.481 68.0152 414.994 68.304 418.76 68.064C419.063 68.0448 419.956 67.8389 419.656 67.7487C416.348 66.753 412.971 67.1988 409.635 66.6975C398.828 65.073 388.088 62.3128 377.354 59.3389C376.448 59.0879 373.73 58.3615 374.641 58.5242C379.561 59.403 384.446 60.9586 389.36 61.9407C393.221 62.712 397.083 63.4417 400.952 64.0168C402.317 64.2198 412.167 65.6215 415.126 64.9629C417.582 64.4162 410.41 61.897 407.987 60.9157C406.774 60.4244 405.561 59.9303 404.353 59.3914C403.36 58.9488 400.435 58.2205 401.419 57.7095C401.964 57.4266 402.545 57.7091 403.106 57.762C404.457 57.8892 412.164 58.9054 412.673 58.9709C413.58 59.0878 420.935 60.0396 422.525 60.2061C423.165 60.2731 423.81 60.5009 424.446 60.3375C426.136 59.9029 421.056 59.6161 419.358 59.3389C407.556 57.4123 395.797 55.0701 384.039 52.2431C380.025 51.2781 376.016 50.2196 372.006 49.1945C370.396 48.783 368.791 48.279 367.177 47.9331C366.299 47.7447 368.924 48.4756 369.799 48.7215C380.277 51.6647 390.775 54.2978 401.263 57.0787C403.497 57.671 405.734 58.2247 407.961 58.9184C409.298 59.3348 405.255 58.7088 403.911 58.3928C395.807 56.4869 387.731 54.0957 379.651 51.8226C378.089 51.3832 376.523 51.0102 374.966 50.5086C372.095 49.5838 380.747 51.7525 383.636 52.4008C391.042 54.0623 399.987 56.0822 407.416 57.5518C409.741 58.0119 412.068 58.4655 414.399 58.787C414.866 58.8513 416.25 58.9749 415.801 58.7081C414.674 58.0376 413.485 57.9031 412.322 57.5518C406.554 55.8081 400.755 54.1801 394.955 52.9264C394.261 52.7763 393.53 52.2047 392.865 52.6373C392.416 52.9293 393.765 53.217 394.228 53.3994C395.9 54.0587 397.582 54.611 399.264 55.1602C405.43 57.1738 411.733 58.3175 417.852 60.8631C421.743 62.4819 409.907 60.395 405.949 59.7068C398.459 58.4043 390.993 56.6397 383.506 55.2916C379.428 54.5572 391.602 57.8202 395.669 58.787C405.92 61.2239 405.411 60.9125 415.087 62.8605C427.345 65.3281 414.196 63.55 413.828 63.4912C408.413 62.6264 403.061 61.1079 397.681 59.6805C395.659 59.144 401.691 61.1903 403.704 61.8618C404.776 62.2197 405.849 62.5692 406.923 62.913C408.981 63.5724 408.514 63.3866 407.052 62.913C402.911 61.5714 398.763 60.307 394.617 59.0235C393.661 58.7274 392.704 58.4447 391.749 58.13C391.587 58.0767 391.106 57.8871 391.269 57.9197C392.088 58.0835 392.904 58.3157 393.722 58.5242C397.956 59.6039 402.224 60.5412 406.429 62.0195C414.214 64.7559 390.703 58.7978 382.883 56.5006C381.991 56.2383 381.097 55.9841 380.209 55.6596C378.725 55.1171 383.204 56.3856 384.701 56.7634C389.983 58.0966 395.269 59.3731 400.549 60.7317C400.848 60.8086 401.743 61.0616 401.445 60.9683C398.592 60.0734 395.734 59.2529 392.878 58.3928C386.588 56.498 379.948 55.5504 373.758 52.4796C370.602 50.9138 380.262 51.9948 383.506 52.3482C389.332 52.9827 395.125 54.1859 400.939 55.1077C406.35 55.9657 390.179 51.8668 384.934 49.0368C379.093 45.8849 397.03 49.5351 403.055 50.5611C412.011 52.0867 438.868 56.9314 429.897 55.7647C424.213 55.0254 418.545 53.8448 412.868 52.9264C399.733 50.8017 414.18 53.4426 414.399 53.4783C416.215 53.7743 418.034 54.02 419.851 54.293C422.512 54.6928 423.897 54.8665 418.735 54.3455C409.038 53.3669 399.337 52.3374 389.659 50.7451C387.405 50.3742 383.603 49.4563 389.594 50.5086C398.549 52.0813 407.494 54.0189 416.424 56.0801C429.091 59.0039 418.638 56.4793 418.735 57.3941C418.911 59.0625 431.548 60.7844 432.104 60.9157C432.91 61.1061 435.288 61.001 434.518 61.5202C433.678 62.0872 432.752 61.2409 431.87 61.0734C429.801 60.6803 427.733 60.2645 425.666 59.8382C423.485 59.3884 421.304 58.9243 419.124 58.4453C417.596 58.1096 416.069 57.7518 414.542 57.3941C413.975 57.2612 413.331 57.5684 412.842 56.9736C412.372 56.4027 413.932 57.2018 414.477 57.3153C418.148 58.0794 419.656 58.4213 423.537 59.0761C425.042 59.3299 426.547 59.5754 428.054 59.7594C428.486 59.8121 429.778 59.9456 429.352 59.7856C428.325 59.3993 427.277 59.2929 426.237 59.0761C412.712 56.2548 372.223 46.2018 385.713 49.6413C396.992 52.5171 408.252 55.6943 419.539 58.4453C422.055 59.0584 424.571 59.6757 427.094 60.1536C428.949 60.505 423.435 58.6908 421.59 58.1562C413.451 55.798 405.295 53.6859 397.162 51.2444C396.597 51.075 394.905 50.5894 395.474 50.6662C399.288 51.181 403.061 52.5678 406.858 53.452C415.531 55.4716 424.282 57.7293 433.013 58.4979C438.596 58.9894 421.953 55.1941 416.398 53.9513C406.479 51.732 402.179 50.9007 392.489 49.2471C392.409 49.2336 374.466 46.4439 391.944 48.9843C401.47 50.369 411.01 52.4952 420.552 53.3994C424.98 53.8191 411.777 50.788 407.364 49.9304C400.861 48.6666 393.873 49.0467 387.426 46.7767C387.115 46.6671 388.046 46.4945 388.361 46.4613C389.665 46.3244 398.028 45.9654 398.745 45.9357C400.407 45.867 402.068 45.8209 403.729 45.7518C404.595 45.7158 405.462 45.7498 406.326 45.6204C406.723 45.5608 405.53 45.5452 405.131 45.5415C399.615 45.4907 394.08 45.5956 388.569 46.0934C378.096 47.0393 409.526 47.3217 420.007 47.7754C420.762 47.8081 434.354 48.7017 421.486 47.1972C413.596 46.2747 405.697 45.6186 397.811 44.5691C388.583 43.3412 434.691 49.7716 425.445 49.4836C417.987 49.2513 410.471 47.2341 403.029 46.3037C400.784 46.0231 398.539 45.773 396.292 45.5941C392.013 45.2534 393.886 45.6979 396.759 46.4088C426.262 53.7079 376.024 40.9699 414.438 50.64C417.499 51.4104 420.557 52.2202 423.615 53.0315C424.949 53.3853 426.282 53.7452 427.613 54.1353C428.286 54.3327 426.263 53.7866 425.588 53.6097C418.091 51.6448 410.595 49.6982 403.08 48.0119C401.801 47.7247 400.522 47.4163 399.238 47.1972C397.451 46.8919 402.785 48.3073 404.56 48.8266C411.951 50.9881 419.333 53.3566 426.743 55.2391C427.17 55.3474 428.451 55.607 428.028 55.4493C425.883 54.6491 417.646 52.572 416.943 52.4008C409.829 50.6677 402.686 48.9694 395.526 48.2221C389.718 47.616 407.14 49.5391 412.945 50.2458C417.186 50.762 421.421 52.2376 425.666 51.8752C426.397 51.8127 424.225 51.3469 423.498 51.1656C417.748 49.7301 411.733 48.5845 405.988 47.6177C400.816 46.7474 385.276 45.4981 390.464 45.2524C397.404 44.9237 404.368 45.4374 411.31 45.4101C413.101 45.4031 414.894 45.441 416.684 45.305C416.861 45.2915 417.367 45.004 417.19 44.9633C415.885 44.6632 414.569 44.6121 413.257 44.5166C405.446 43.948 397.628 43.9041 389.815 43.623C388.759 43.585 387.691 43.7905 386.648 43.4653C383.851 42.5941 392.307 43.3198 395.137 43.2551C397.676 43.197 400.217 43.152 402.756 43.0449C404.786 42.9592 406.817 42.9139 408.844 42.6769C409.667 42.5807 410.584 42.8835 411.297 42.0462C411.653 41.6274 410.548 41.2942 410.142 41.1526C408.678 40.6425 407.194 40.388 405.715 40.1014C403.758 39.7221 401.797 39.4417 399.835 39.1553C397.671 38.8393 391.198 38.79 393.345 38.1566C394.51 37.813 395.699 37.9873 396.876 37.9464C401.308 37.7924 407.346 37.7445 411.725 37.7099C413.56 37.6954 415.394 37.6836 417.229 37.6836C417.631 37.6836 418.838 37.6797 418.436 37.7099C417.567 37.7751 416.697 37.7686 415.827 37.7887C410.782 37.9053 405.736 37.8328 400.692 37.9727C400.164 37.9873 398.667 37.5179 399.109 38.1041C399.657 38.8321 400.414 38.3879 401.069 38.472C402.733 38.6858 404.399 38.8582 406.066 38.9976C412.478 39.534 418.898 39.8604 425.315 39.97C425.778 39.9779 427.167 39.9961 426.704 39.9437C423.507 39.5812 420.301 39.6633 417.099 39.5758C414.99 39.5182 402.872 39.2309 400.407 39.2079C399.29 39.1974 398.157 38.8648 397.058 39.2604C394.054 40.3416 403.148 40.0244 406.196 40.3117C408.895 40.5661 411.596 40.7904 414.295 41.0475C416.695 41.2761 423.845 41.1239 421.486 42.0462C420.381 42.4785 419.237 42.3013 418.111 42.3616C413.492 42.609 408.937 42.6055 404.314 42.6244C402.466 42.6319 400.619 42.6043 398.771 42.6244C396.151 42.6528 396.823 42.7187 398.771 42.8872C402.579 43.2163 406.454 43.1589 410.233 44.3063C410.602 44.4186 411.565 44.3833 411.31 44.9371C410.939 45.7421 410.242 45.3616 409.7 45.4627C408.457 45.6948 407.209 45.7983 405.962 45.9357C402.846 46.2793 393.496 46.9249 396.616 47.0132C400.753 47.1304 404.889 46.7986 409.025 46.619C413.437 46.4275 426.523 46.2238 422.213 44.3063C415.216 41.1929 407.722 40.7609 400.601 39.6284C399.031 39.3787 397.46 39.1806 395.889 38.9451C395.707 38.9178 395.162 38.8241 395.344 38.8399C396.331 38.9259 397.318 39.0393 398.304 39.1553C403.887 39.8123 409.466 40.5929 415.048 41.2578C415.559 41.3185 417.091 41.4154 416.58 41.4154C394.458 41.4154 452.036 40.7296 409.207 41.1526C407.312 41.1714 405.416 41.233 403.522 41.3629C402.093 41.4608 400.662 41.5634 399.238 41.8359C398.827 41.9148 397.726 41.8484 398.031 42.4141C398.486 43.2589 399.246 42.8861 399.861 42.9923C402.199 43.396 406.6 43.6756 408.87 43.6756C410.06 43.6756 411.251 43.624 412.439 43.4653C412.959 43.3959 414.293 43.8411 413.984 42.9923C413.603 41.946 412.716 42.5475 412.076 42.4667C407.978 41.95 400.47 41.854 397.006 41.8097C393.319 41.7625 389.633 41.7167 385.947 41.7834C382.848 41.8394 379.749 41.9061 376.653 42.1776C374.952 42.3267 373.19 42.0204 371.565 43.0449C371.028 43.3831 372.555 44.2271 373.109 44.4114C377.658 45.924 387.26 46.9149 391.178 47.3023C394.321 47.6132 397.467 47.8619 400.614 47.9856C401.925 48.0372 403.264 48.3749 404.547 47.8279C405.196 47.5514 403.248 47.2597 402.587 47.1446C396.357 46.0589 390.068 45.8306 383.818 46.0408C382.995 46.0685 382.156 45.8972 381.352 46.2511C378.356 47.5695 387.48 45.8571 390.542 45.5678C399.896 44.6841 409.826 45.2774 419.072 41.8622C427.099 38.8974 402.854 37.1956 394.695 37.3682C393.986 37.3832 391.918 38.0043 392.567 37.4208C393.361 36.7063 394.296 37.0856 395.163 36.9477C397.213 36.6213 399.264 36.3282 401.315 36.0279C404.596 35.5475 414.444 34.4201 411.154 34.4774C405.285 34.5795 399.405 34.9289 393.54 35.3446C391.856 35.464 390.172 35.5781 388.491 35.7914C388.236 35.8237 387.483 36.0646 387.738 36.0805C389.113 36.1662 390.49 36.0565 391.866 36.0016C399.754 35.6872 407.637 35.1876 415.528 35.1344C416.078 35.1307 417.726 35.1798 417.177 35.1606C415.109 35.0885 409.23 34.9885 408.039 35.003C404.053 35.0515 399.566 35.2077 395.552 35.7914C395.041 35.8657 393.527 36.1131 394.033 36.2644C397.382 37.2647 400.802 36.0024 404.184 35.7125C408.862 35.3116 422.898 34.3148 418.215 34.3722C411.284 34.4573 404.329 35.4053 397.408 35.9754C394.176 36.2416 390.944 36.4683 387.712 36.7375C385.525 36.9197 379.016 37.1034 381.17 37.8938C388.835 40.7068 397.274 39.6569 405.002 39.6809C422.68 39.7358 405.579 39.7839 404.846 39.786C401.211 39.7968 397.577 39.7615 393.942 39.6809C388.573 39.5619 383.186 38.4033 377.834 39.2867C375.001 39.7543 383.443 41.2216 386.271 41.7834C393.701 43.2591 401.828 45.9473 409.337 45.0947C409.839 45.0377 408.357 44.6153 407.857 44.4903C405.686 43.9467 395.461 41.9995 394.241 41.7571C390.945 41.1024 381.077 39.2126 384.389 39.1553C391.381 39.0343 398.37 39.5005 405.365 39.2604C407.304 39.1939 409.243 39.1098 411.18 38.9451C411.511 38.9169 412.498 38.7262 412.167 38.6823C410.785 38.4988 409.398 38.5614 408.013 38.5246C399.487 38.2981 390.935 38.4987 382.416 37.6573C381.901 37.6064 380.371 37.3177 380.884 37.2105C386.352 36.069 391.873 36.5861 397.369 36.4747C404.223 36.3358 412.586 36.2941 419.565 36.2644C420.465 36.2606 423.165 36.2644 422.265 36.2644C417.809 36.2644 413.352 36.2644 408.896 36.2644C403.059 36.2644 396.815 37.1117 390.957 36.2644C386.377 35.6021 400.139 35.974 404.729 35.7914C406.827 35.7079 408.926 35.6348 411.024 35.5286C413.368 35.41 415.179 35.2949 411.388 35.2132C404.729 35.0698 398.068 35.1749 391.411 35.5286C390.446 35.5799 389.482 35.6682 388.517 35.7388C385.817 35.9364 393.917 35.3459 396.616 35.1081C401.371 34.6892 415.566 33.3344 410.83 32.4012C406.794 31.606 397.039 31.6794 393.696 31.7179C390.957 31.7494 388.217 31.8405 385.479 32.007C382.461 32.1904 380.874 32.5283 384.727 32.6377C392.8 32.867 400.902 32.7792 408.973 32.3749C410.437 32.3016 411.915 32.4227 413.361 31.9544C415.663 31.2086 408.709 31.1901 406.377 31.166C404.824 31.1499 403.269 31.1532 401.718 31.3237C398.78 31.6464 407.603 31.4854 410.544 31.3237C413.137 31.1811 415.731 31.0284 418.319 30.6929C418.777 30.6336 420.127 30.2 419.669 30.141C417.726 29.8909 415.775 30.0333 413.828 30.1148C410.958 30.2348 408.088 30.429 405.222 30.7455C403.211 30.9676 397.314 31.5216 399.251 32.6377C402.853 34.7125 407.275 34.2604 410.998 34.8453" stroke="#F56D00" stroke-opacity="0.5" stroke-linecap="round" stroke-linejoin="round"/>
<path d="M447.5 4C450.333 5.00709 466 9.74043 466 22.6312C466 35.522 466 78.357 466 98.1631C464 102.359 457.2 110.55 446 109.745H434V146" stroke="#FAB680" stroke-width="6"/>
<path d="M315.2 7C306.209 7 299 13.0895 299 20.6842V89.1053C299 92.7345 300.707 96.2152 303.745 98.7815C306.783 101.348 310.903 102.789 315.2 102.789H380V137L404.3 116.474L428.6 137V102.789H444.8C449.097 102.789 453.217 101.348 456.255 98.7815C459.293 96.2152 461 92.7345 461 89.1053V41.2105V27.5263V20.6842C461 17.0549 459.293 13.5743 456.255 11.008C453.217 8.44172 449.097 7 444.8 7H412.4H315.2ZM380 20.6842L404.3 34.3684L428.6 20.6842V44.6316L452.9 54.8947L428.6 65.1579V89.1053L404.3 75.4211L380 89.1053V65.1579L355.7 54.8947L380 44.6316V20.6842ZM315.2 20.6842H355.7V34.3684H315.2V20.6842ZM315.2 48.0526H339.5V61.7368H315.2V48.0526ZM315.2 75.4211H355.7V89.1053H315.2V75.4211Z" stroke="black" stroke-width="10"/>
<path d="M623.386 78.4538C627.013 76.7354 639.805 68.3909 644.943 69.2194C648.914 69.8597 643.998 80.977 643.704 81.675C642.023 85.6779 639.487 90.1761 636.271 93.4864C631.389 98.5101 646.441 83.6881 652.253 79.4738C658.187 75.1717 666.251 68.5114 673.811 65.9982C678.012 64.6015 668.349 72.2318 665.138 74.964C659.411 79.8375 653.316 85.6425 646.554 89.5135C641.397 92.4656 647.994 78.5549 651.138 73.944C654.995 68.2892 660.993 59.3019 667.616 55.4753C674.786 51.3327 657.225 67.4025 651.634 73.085C642.815 82.0472 634.054 91.3681 624.501 99.7679C622.411 101.605 620.719 103.003 622.518 99.4457C625.004 94.5322 629.089 89.1535 632.43 84.8963C632.596 84.6853 647.057 64.8071 650.89 67.2867C655.64 70.3587 644.613 91.562 642.961 95.2044C642.606 95.9865 642.131 98.1939 641.66 97.4593C641.048 96.505 642.011 95.2914 642.342 94.238C643.231 91.4029 644.204 88.5849 645.315 85.809C647.948 79.2284 650.492 73.5146 654.483 67.5014C655.427 66.0803 656.363 64.5655 657.828 63.5285C658.24 63.2375 658.345 64.428 658.2 64.8707C656.035 71.4948 650.835 78.1693 646.306 83.7152C645.179 85.0955 643.984 86.4516 642.589 87.6344C640.212 89.6507 639.855 88.6591 640.607 86.2922C642.704 79.6938 647.366 73.6804 651.262 67.8235C653.637 64.2524 653.78 64.3124 650.395 67.9309C642.462 76.4115 641.124 78.0965 632.182 86.9365C628.707 90.372 617.519 104.075 611.058 105.62C608.243 106.293 612.985 100.773 614.651 98.6941C620.391 91.533 625.515 86.6086 632.554 80.1718C637.253 75.8742 650.947 63.3357 648.289 68.7899C643.882 77.8304 634.932 86.5606 627.474 93.8085C627.152 94.1213 620.641 100.855 622.271 95.2044C624.681 86.8486 630.845 78.7998 636.147 71.6891C637.795 69.4788 639.542 67.3196 641.412 65.2465C645.341 60.8927 643.315 64.4995 641.97 66.4277C637.659 72.607 629.903 85.1163 621.961 88.225C617.405 90.008 625.316 79.941 628.218 76.4136C628.467 76.1103 644.047 60.5468 639.988 67.7162C635.791 75.1287 629.919 81.9819 624.129 88.4934C623.992 88.6479 613.863 100.939 617.687 91.9294C622.167 81.3712 639.796 51.7007 637.2 62.7232C636.039 67.6532 633.228 72.47 630.695 76.9505C628.002 81.7167 627.616 81.0094 629.085 76.4136C630.541 71.858 632.625 67.4195 633.917 62.8306C634.476 60.8448 630.68 65.8237 629.333 67.5014C627.13 70.2449 616.653 84.9441 620.412 72.8165C621.005 70.9028 622.598 65.143 625.244 64.1728C628.825 62.8596 622.774 70.5825 621.094 73.6218C620.275 75.1023 617.101 82.9402 614.713 83.9299C613.04 84.6235 615.227 80.7261 615.828 79.2054C617.176 75.7938 619.605 70.637 621.156 67.2867C626.144 56.5106 617.487 75.1039 614.465 73.6755C611.358 72.2066 625.244 52.7417 621.403 66.9645C619.803 72.8925 612.246 89.9043 613.598 83.9299C614.678 79.1572 620.834 73.7688 624.067 70.4006C624.33 70.1263 636.521 58.7143 636.333 59.4482C635.412 63.0393 633.374 66.6287 631.687 69.9711C627.71 77.8477 635.731 62.736 635.775 62.6695C638.716 58.2018 640.037 58.1657 638.253 63.7433C635.725 71.6461 632.27 80.8642 626.545 87.527C626.056 88.0957 625.566 88.9953 624.749 88.9766C622.348 88.9219 624.606 84.7547 625.244 82.7488C627.214 76.5602 629.609 68.0588 634.288 62.8843C637.618 59.2025 633.246 72.2573 631.687 76.7357C630.114 81.2532 626.408 90.5689 624.501 95.2044C623.524 97.5773 621.156 104.703 621.156 102.184C621.156 96.2582 632.516 83.3237 635.218 79.796C641.161 72.0345 658.81 51.1046 658.448 60.4146C658.153 67.9879 654.02 75.8902 651.262 82.9635C651.03 83.5579 648.206 92.8067 647.917 86.2922C647.579 78.6768 650.297 71.0902 653.182 64.0117C654.346 61.1572 655.612 58.3278 657.085 55.5827C658.198 53.5092 660.929 48.301 662.165 50.3213C665.487 55.7512 657.09 70.9179 655.289 74.8567C652.349 81.2858 648.957 87.7955 644.943 93.8085C644.14 95.0116 643.535 96.4522 642.218 97.2445C641.702 97.5548 641.791 96.1686 641.908 95.6339C644.428 84.1306 650.789 72.2332 656.59 61.8105C658.773 57.8869 661.201 54.0625 663.775 50.3213C665.862 47.2896 669.511 38.8423 671.333 41.9997C672.821 44.5793 658.647 62.7939 658.076 63.6359C657.706 64.1825 640.308 91.1764 637.386 88.0102C633.6 83.9094 635.886 73.2603 636.704 69.0047C637.537 64.6762 641.254 52.3124 641.97 56.6565C643.21 64.1798 639.8 73.6191 637.943 80.816C637.012 84.4243 638.064 89.7242 634.288 91.4462C631.285 92.8163 633.267 85.5682 633.607 82.6414C634.604 74.0613 637.222 65.4173 642.342 57.945C645.175 53.8099 644.887 56.8759 644.324 59.4482C643.302 64.116 639.488 75.7613 638.129 79.7423C635.797 86.5758 633.319 93.4569 630.448 100.144C628.914 103.717 630.806 92.4858 631.749 88.7618C633.198 83.0335 634.998 72.3628 640.359 67.9309C643.617 65.2377 641.254 75.7735 640.607 79.6349C640.131 82.4767 638.237 90.9359 638.873 88.1176C640.232 82.0863 641.713 75.4985 644.943 69.9711C652.331 57.3306 639.081 98.3639 631.191 110.774C628.986 114.243 631.393 102.763 632.678 98.9626C635.123 91.7304 638.966 82.8368 642.589 75.9841C644.475 72.4178 645.357 66.8492 649.775 65.9982C650.567 65.8456 650.442 67.3363 650.395 68.0383C650.143 71.807 647.602 78.5828 646.492 81.6213C644.429 87.2708 642.233 96.2611 637.758 101.11C633.609 105.605 640.516 89.8059 642.837 84.4131C646.317 76.3297 657.453 52.7127 656.218 61.2736C655.551 65.9 634.479 110.578 632.926 110.13C632.313 109.953 633.004 109.005 633.173 108.465C634.752 103.45 637.209 98.2135 639.554 93.5401C639.811 93.028 655.323 64.5187 650.209 83.232C647.347 93.7052 643.065 104.105 638.501 114.103C637.661 115.943 636.796 117.783 635.713 119.525C635.338 120.128 634.247 121.763 634.165 121.082C634.013 119.832 634.845 118.62 635.465 117.485C642.218 105.131 652.012 93.4148 661.917 82.8562C665.139 79.421 671.983 70.3467 673.811 74.4809C676.209 79.9041 671.052 85.8905 668.731 91.3389C666.566 96.4214 661.86 112.064 656.156 115.821C655.609 116.181 655.532 114.695 655.598 114.103C656.148 109.175 659.403 98.3568 660.678 94.5601C663.795 85.281 667.129 72.1194 673.811 64.0117C680.616 55.7546 667.282 83.5369 662.908 92.9495C661.885 95.1511 660.887 97.3661 659.687 99.4994C658.653 101.338 657.328 102.995 657.828 99.4994C658.964 91.5749 662.395 83.782 666.191 76.5747C667.338 74.3977 668.587 72.2572 669.97 70.1858C671.412 68.0268 672.808 66.6946 671.581 70.1858C666.622 84.2946 658.821 97.8801 651.634 111.203C650.243 113.781 646.627 121.292 646.43 118.451C645.665 107.405 648.887 95.6403 652.315 85.1111C653.129 82.6111 654.079 80.1434 655.103 77.7021C656.234 75.0069 657.164 73.6485 656.218 77.2726C653.912 86.1062 651.309 96.8243 645.811 104.653C642.654 109.147 646.27 94.0403 647.917 88.9766C651.186 78.9221 655.687 66.6656 664.395 58.9114C669.373 54.4779 660.386 70.8473 657.271 76.4136C655.605 79.3904 650.009 89.7044 646.74 93.2716C643.62 96.6768 643.952 92.3017 643.952 90.802C643.952 84.5431 645.622 78.2988 647.174 72.226C647.715 70.1056 648.496 68.191 646.554 74.1587C644.482 80.5257 642.228 87.2519 639.74 93.4864C638.088 97.6256 631.576 109.503 633.359 105.405C639.344 91.6497 650.81 78.7848 662.908 68.6826C666.357 65.8027 675.305 57.8805 675.05 62.0253C674.674 68.1317 667.93 77.4964 665.138 82.534C663.419 85.6363 661.673 88.7288 659.811 91.7684C658.248 94.3198 657.299 100.1 654.236 98.9626C651.752 98.0402 662.464 76.9882 663.28 75.3399C665.626 70.6029 666.858 68.9752 665.138 75.3935C661.836 87.7214 657.986 100.269 652.315 111.955C647.304 122.281 651.222 110.511 651.634 109.593C658.481 94.3321 667.941 79.3096 681.369 67.6088C689.128 60.8468 684.442 70.4797 683.351 72.9776C679.659 81.4295 675.547 89.9799 670.466 97.8888C666.783 103.621 666.901 99.4351 667.492 95.3655C669.361 82.5097 673.686 70.2412 677.776 57.8376C680.183 50.5345 670.893 71.8129 667.121 78.6685C663.016 86.1274 658.852 93.7591 654.112 100.949C653.779 101.453 653.664 102.451 652.997 102.399C650.445 102.198 652.845 97.9344 653.244 95.7413C653.662 93.4471 661.289 64.6041 665.386 66.4277C668.216 67.6869 654.449 100.557 650.643 103.687C647.54 106.238 650.137 96.1899 651.076 92.5737C654.025 81.2148 659.123 69.2018 667.121 59.7167C667.526 59.2364 668.242 57.9784 668.607 58.4818C670.603 61.2293 667.037 64.8425 665.882 67.9309C661.673 79.1845 657.832 92.3173 650.89 102.613C649.244 105.056 649.856 96.8758 650.643 94.1306C653.669 83.563 659.779 72.3102 668.669 64.4412C669.21 63.9624 670.015 62.8655 670.59 63.3138C673.204 65.3528 669.772 69.3908 668.855 72.3333C665.828 82.0481 662.406 92.1656 656.837 101.056C656.025 102.353 655.264 103.815 653.864 104.653C651.268 106.208 654.924 99.2016 656.218 96.7077C659.209 90.9429 665.58 80.3776 669.227 75.0177C671.118 72.2387 675.582 64.4639 676.413 67.6088C678.01 73.6557 671.35 85.3921 669.227 90.7483C667.498 95.1086 665.658 99.5918 663.404 103.794C662.835 104.854 661.724 107.331 660.802 106.479C657.58 103.5 661.78 93.5781 662.66 91.4462C665.147 85.4261 669.423 78.1878 673.191 72.6555C674.412 70.8636 677.899 65.8501 677.899 67.9309C677.899 74.5941 673.087 83.5228 670.837 89.6209C670.531 90.4525 666.564 104.919 663.775 105.942C663.238 106.139 663.477 104.943 663.528 104.439C663.898 100.782 665.567 95.5026 666.625 92.3052C667.663 89.1677 669.858 82.7621 671.891 79.4738C672.167 79.0271 673.034 77.9657 673.191 78.4538C673.578 79.649 673.033 80.9403 672.758 82.1582C670.869 90.5082 667.769 99.0089 664.147 106.908C663.456 108.417 660.597 112.176 660.43 110.559C659.983 106.213 663.41 98.4835 665.014 95.4191C671.114 83.7669 679.58 71.745 689.979 62.5621C703.427 50.6876 692.595 81.2 692.209 82.4804C689.393 91.8385 686.408 101.413 682.36 110.452C681.151 113.15 680.053 114.559 679.882 110.505C679.499 101.442 680.682 92.1772 682.608 83.2857C683.2 80.5512 683.983 77.8451 684.9 75.1788C685.267 74.1113 685.181 72.3017 686.448 72.1186C690.183 71.5791 684.885 78.552 683.723 81.675C681.371 87.9945 678.733 94.2446 676.227 100.52C675.082 103.385 674.719 101.381 674.43 98.9626C673.569 91.7265 674.703 84.5289 676.908 77.5411C677.344 76.159 679.501 72.3202 679.2 73.7292C678.418 77.4015 675.239 85.8174 674.183 88.6545C673.23 91.2115 670.801 101.483 667.74 103.902C664.893 106.152 665.634 97.3586 665.82 94.0233C666.28 85.7569 667.74 76.5658 671.581 68.8973C675.786 60.5025 669.445 87.1612 666.997 96.0634C665.75 100.597 662.054 109.339 661.607 97.4056C661.087 83.5221 665.507 68.9844 672.2 56.4417C672.605 55.684 672.826 53.9209 673.687 54.2942C674.599 54.6893 673.528 56.0609 673.315 56.9249C672.742 59.251 672.041 61.5526 671.333 63.8506C669.767 68.933 665.408 82.2446 663.652 87.0438C661.966 91.6498 661.779 97.5499 657.333 100.466C656.668 100.902 655.735 99.7024 655.474 99.0162C653.822 94.6622 653.886 84.8821 653.926 81.2992C653.982 76.302 653.112 63.8225 656.961 58.9114C657.216 58.5867 657.822 59.3409 657.952 59.7167C659.056 62.8849 659.879 72.9928 659.997 74.5345C660.966 87.2021 661.678 100.6 659.129 113.19C656.249 127.421 653.435 55.8687 657.581 69.8637C660.078 78.2936 654.539 91.9267 652.253 99.7142C651.317 102.905 644.581 128.665 641.412 109.969C638.916 95.2424 639.018 79.9217 640.731 65.1392C641.128 61.7083 641.807 58.296 642.713 54.9384C645.006 46.4413 644.302 55.6856 644.262 55.9585C642.845 65.5353 639.869 75.3502 636.642 84.5742C635.683 87.3165 635.195 93.1041 632.058 92.1979C628.675 91.2205 629.659 86.2681 629.58 83.1783C629.404 76.2048 629.986 67.2772 633.731 60.8978C634.004 60.4328 635.091 59.5969 635.28 60.0925C635.906 61.7417 635.56 63.5693 635.403 65.3002C634.779 72.1874 632.798 80.5717 631.253 87.2049C631.034 88.1464 628.816 103.276 626.483 105.298C624.529 106.991 627.184 100.536 627.846 98.2109C630.029 90.5353 632.501 83.5732 636.271 76.3062C638.055 72.8671 640.158 69.5499 642.404 66.3203C644.418 63.423 646.83 57.2066 650.271 58.804C652.983 60.0633 650.055 75.0242 649.899 76.521C649.539 79.9757 647.633 90.2388 647.855 86.7754C648.456 77.4018 650.943 67.2024 654.793 58.4282C655.118 57.6872 655.27 56.6782 656.094 56.3343C658.103 55.4959 656.315 60.2094 656.094 62.1326C655.28 69.2176 654.589 76.5078 652.997 83.5004C652.812 84.3111 653.066 85.7066 652.129 85.8627C649.061 86.3741 650.947 80.5172 650.89 77.8095C650.782 72.6082 649.05 56.1175 654.731 52.1467C657.833 49.9783 654.978 59.0693 654.607 62.5084C654.277 65.5747 654.593 70.8767 653.244 73.944C650.185 80.9033 657.565 44.392 656.404 51.7709C655.339 58.5357 652.785 65.4136 650.519 71.9038C650.499 71.9592 642.047 93.8253 640.731 92.6274C637.235 89.4458 638.253 76.6386 638.253 73.5682C638.253 68.6553 638.442 62.4206 639.554 57.4081C640.615 52.6279 640.791 57.0759 640.731 58.2671C640.273 67.3865 638.341 76.699 636.395 85.6479C635.908 87.8835 635.428 90.1298 634.66 92.3052C633.581 95.3628 632.858 95.7683 631.749 92.4663C629.178 84.8141 628.902 76.0393 629.333 68.1457C629.482 65.4039 628.148 60.0925 631.315 60.0925C634.8 60.0925 632.264 66.0922 632.306 69.1121C632.441 78.6363 632.478 88.2036 632.244 97.7277C632.159 101.196 631.738 101.746 632.306 99.9289C633.924 94.7508 634.42 92.8064 637.572 87.1512C641.7 79.7435 649.436 66.0013 659.687 63.2064C668.963 60.6772 659.071 94.2231 658.448 96.2782C658.07 97.5245 652.928 114.172 651.882 101.379C650.917 89.5924 652.747 76.9463 655.722 65.4613C658.773 53.6817 660.333 61.2686 660.121 67.394C659.733 78.5525 657.76 90.1268 654.297 100.895C654.075 101.588 654.164 102.515 653.492 102.935C651.416 104.235 653.136 98.4884 653.368 96.2782C654.353 86.8891 655.374 66.2328 665.262 59.8777C665.933 59.4464 666.988 60.5695 667.183 61.2736C668.262 65.1726 666.706 76.7214 666.377 79.1517C666.201 80.4579 658.207 113.755 656.28 112.223C652.016 108.836 656.6 89.666 657.209 86.2922C657.8 83.0184 658.564 79.758 659.625 76.5747C659.735 76.2454 662.562 67.5176 663.404 74.2124C664.738 84.8258 662.241 96.5623 660.43 107.016C660.145 108.665 655.497 128.779 656.466 113.029C657.639 93.9505 674.307 38.7322 674.307 57.8376C674.307 68.5925 672.504 79.7145 670.342 90.2651C670.094 91.4767 661.713 121.429 663.899 100.251C665.178 87.8646 666.85 73.9519 672.758 62.4548C673.469 61.0709 674.316 58.6684 676.041 58.9114C677.743 59.151 677.538 61.6664 677.714 63.1527C678.082 66.2683 677.879 69.4224 677.652 72.5481C676.955 82.1372 675.361 92.0345 672.696 101.379C672.418 102.353 671.166 104.932 670.899 103.956C670.092 101 670.556 94.4495 670.714 92.4663C671.541 82.067 673.369 71.6099 676.784 61.5957C681.348 48.2145 680.075 67.0546 679.882 68.7899C678.61 80.2105 676.585 91.8335 672.696 102.828C672.103 104.505 669.422 108.801 669.103 107.069C668.349 102.971 669.748 91.8221 670.094 89.1913C670.837 83.5496 671.288 68.8081 676.784 63.958C681.111 60.1403 677.509 74.7105 676.661 80.0107C675.928 84.5868 675.462 95.5154 671.829 99.7142C669.871 101.976 671.598 94.0425 671.953 91.2315C672.732 85.049 674.869 71.5733 676.165 65.5687C678 57.0642 680.057 53.9385 680.439 64.817C680.841 76.2339 680.805 89.0181 677.652 100.197C676.712 103.529 677.942 93.3189 678.643 89.943C679.602 85.3205 682.125 74.8769 683.475 70.2932C684.105 68.152 685.831 62.2012 686.696 64.2801C690.97 74.5565 685.886 107.79 688.059 97.0298C689.273 91.0164 690.479 85.083 691.962 79.098C692.029 78.8257 694.768 67.5756 695.555 65.5687C695.983 64.4747 696.67 67.7419 696.67 68.8973C696.67 80.1125 694.716 91.3892 691.776 102.291C690.885 105.593 680.215 133.115 684.838 110.13C687.579 96.4984 691.449 82.8504 696.236 69.6489C696.79 68.1219 698.714 63.7532 698.714 65.3539C698.714 68.3005 696.736 76.9149 696.422 78.239C694.014 88.3977 691.03 98.5438 686.944 108.304C684.274 114.683 683.78 110.891 684.404 106.157C685.995 94.0897 689.965 82.1771 694.501 70.7227C695.803 67.4374 697.778 58.3969 699.829 61.381C702.744 65.6222 698.5 71.2265 696.979 75.9841C693.335 87.3842 689.577 101.87 681.988 111.955C678.312 116.84 682.798 100.152 685.085 94.6675C688.96 85.3775 694.027 76.2255 699.829 67.7162C701.299 65.5603 701.463 65.2756 701.068 67.7162C700.454 71.5066 699.395 75.6284 698.28 79.2591C697.296 82.4634 686.455 106.287 690.97 90.4262C691.637 88.0851 694.006 81.2062 693.758 83.6078C692.857 92.3239 688.001 101.401 684.466 109.485C683.644 111.365 681.018 116.805 681.183 114.8C681.78 107.553 684.226 99.1514 688.183 92.7348C688.527 92.1763 689.091 90.9517 689.67 91.3389C691.842 92.794 688.852 96.0752 687.935 98.3183C687.854 98.5164 679.437 112.881 683.351 106.157C685.841 101.879 692.674 90.335 688.307 102.506C686.443 107.699 685.083 115.122 681.492 119.686C677.221 125.116 684.389 106.69 687.316 100.627C688.301 98.5852 691.506 92.6901 691.156 94.8823C689.961 102.361 686.21 109.909 683.103 116.894C677.318 129.904 684.693 113.219 688.059 109.485C690.891 106.343 684.517 118.168 686.2 114.478C688.504 109.429 692.592 104.819 696.236 100.466C699.908 96.0789 700.974 95.5175 698.59 101.003C696.559 105.676 694.315 110.43 691.28 114.693C690.985 115.107 689.725 116.01 689.917 115.552C690.682 113.729 693.565 109.059 694.254 107.928C695.872 105.273 699.397 97.5212 700.077 100.466C701.465 106.48 695.96 114.908 694.006 120.438C693.702 121.297 692.45 122.586 693.324 123.068C694.162 123.531 694.772 121.877 695.369 121.189C696.966 119.348 698.384 117.396 699.891 115.498C702.077 112.744 708.495 104.599 707.263 107.767C706.392 110.005 702.744 116.357 703.732 114.156C704.705 111.987 708.297 105.981 708.13 108.304C707.984 110.332 700.135 122.767 703.422 115.713C704.809 112.735 706.374 109.664 708.502 107.016C710.503 104.525 706.223 112.478 706.148 112.599C701.439 120.178 701.505 116.23 704.041 109.915C705.522 106.229 709.957 95.3009 709.431 99.1773C708.633 105.053 703.619 112.081 700.201 117.109C699.504 118.134 697.341 120.764 697.227 119.579C696.916 116.342 703.101 110.991 705.033 108.626C705.827 107.654 708.102 104.788 707.758 105.942C706.332 110.731 704.477 115.617 702.245 120.169C700.277 124.182 704.998 109.845 705.776 108.358C712.993 94.5611 706.135 112.833 704.041 117.002C703.35 118.378 701.008 122.333 701.378 120.867C702.831 115.108 705.858 108.831 709.369 103.794C714.316 96.6977 694.753 134.176 696.484 126.021C697.427 121.574 720.911 92.1075 723.617 94.4528C725.608 96.1786 708.115 116.057 708.44 109.861C708.584 107.115 710.133 104.709 710.484 102.076C710.703 100.429 708.4 104.858 707.387 106.264C704.156 110.749 701.535 114.333 698.094 118.72C696.11 121.25 692.667 128.489 691.218 125.699C688.212 119.91 697.424 107.317 700.263 102.882C701.706 100.627 703.299 98.4461 704.909 96.2782C706.057 94.7312 707.572 90.345 708.749 91.8757C709.403 92.7255 703.669 100.534 703.608 100.627C700.12 105.884 692.023 114.273 697.723 101.862C699.92 97.076 702.645 90.3364 706.767 86.4533C709.65 83.7376 705.368 93.7751 703.917 97.2445C701.269 103.581 698.229 109.896 694.749 115.928C694.361 116.601 693.27 118.999 693.448 116.626C693.708 113.179 694.871 108.643 695.802 105.566C697.149 101.118 699.155 92.3459 703.67 88.9766C707.011 86.4828 700.626 96.163 698.714 99.6068C697.775 101.297 694.892 108.798 692.519 110.237C686.71 113.761 700.077 99.7863 704.661 95.097C709.342 90.308 707.589 93.6723 705.838 96.7077C702.023 103.32 698.155 111.216 692.519 116.841C690.796 118.56 691.412 112.237 692.024 110.022C692.441 108.508 696.972 90.959 699.829 91.1241C700.141 91.1421 689.67 109.969 687.687 111.955C686.509 113.135 687.438 108.749 688.059 107.284C689.941 102.841 697.994 90.6127 696.67 95.2044C694.272 103.516 688.211 111.913 683.599 119.364C683.195 120.017 672.186 138.929 675.545 125.377C678.1 115.071 682.388 105.11 688.307 95.9023C688.759 95.1985 699.879 79.4136 695.678 91.3926C692.399 100.745 678.554 127.407 681.245 117.914C683.577 109.685 690.149 101.519 695.988 94.9896C700.849 89.5554 705.406 85.6788 711.227 81.2455C712.623 80.1823 716.176 76.7925 715.687 78.3464C714.053 83.54 705.977 92.1231 703.112 96.0097C697.063 104.218 680.208 128.935 683.103 119.525C685.729 110.99 693.129 102.222 698.962 95.2044C701.454 92.2058 703.654 86.7835 707.882 87.2586C710.842 87.5911 706.926 92.4353 705.652 94.7749C702.143 101.22 697.873 107.829 692.705 113.405C688.338 118.116 690.406 112.327 691.156 110.344C692.963 105.571 695.086 98.358 699.271 94.6138C701.691 92.4496 700.039 104.972 699.891 105.674C698.804 110.813 701.277 105.779 702.802 103.687C706.195 99.036 709.647 94.4535 713.457 90.0504C715.563 87.617 700.443 103.257 699.953 102.184C698.112 98.1579 704.68 88.1786 706.333 85.2184C708.526 81.2934 714.025 73.9284 708.749 85.0037C704.368 94.2015 698.949 102.989 692.767 111.364C691.057 113.681 686.155 120.496 686.82 117.807C688.255 112.004 690.773 106.279 693.882 101.003C695.895 97.5868 698.062 94.7935 700.82 91.8757C703.43 89.1145 700.74 92.7816 700.696 92.8421C694.966 100.821 688.878 108.607 682.484 116.196C678.992 120.34 669.021 132.54 670.528 127.578C677.043 106.122 701.951 88.2 721.758 75.7694C726.394 72.8598 713.592 82.7222 709.493 86.1848C699.638 94.5094 690.304 103.272 680.501 111.633C678.646 113.215 674.001 117.372 673.811 115.123C673.038 105.969 682.128 93.8775 687.068 86.3996C688.468 84.2791 689.975 82.2107 691.528 80.1718C692.578 78.7935 694.704 76.2624 692.767 79.8496C685.714 92.9128 676.312 105.283 666.501 116.894C658.256 126.653 663.437 116.24 665.572 113.082C673.476 101.393 684.29 91.6187 696.112 82.8562C698.466 81.1114 700.944 79.4814 703.546 78.0243C708.194 75.4207 705.851 78.3557 704.289 80.3865C697.773 88.8573 689.607 99.1004 680.501 105.62C672.627 111.257 699.765 74.5812 696.484 82.9635C694.946 86.8914 690.345 90.8146 687.316 93.8622C679.147 102.08 686.096 91.7798 688.183 89.2987C692.737 83.8827 700.079 74.9181 708.006 72.7628C715.499 70.7256 699.105 84.0948 693.448 88.8155C692.485 89.6195 676.31 104.642 672.2 103.365C669.023 102.378 693.511 76.6921 694.501 75.7694C696.979 73.4624 699.535 71.1944 702.369 69.2194C706.634 66.247 708.02 66.629 705.466 71.0985C700.261 80.2096 691.73 88.1632 684.218 95.8487C681.64 98.4861 673.787 106.27 676.041 103.419C684.792 92.3502 695.114 81.3689 706.457 72.226C713.241 66.7582 712.18 70.6483 709.369 75.4472C702.688 86.8521 694.173 97.5493 685.271 107.714C682.501 110.877 679.661 114 676.661 117.002C674.485 119.177 670.01 125.07 668.855 122.37C667.306 118.752 671.266 114.898 673.191 111.418C675.995 106.352 680.301 99.8325 683.723 94.9896C684.805 93.4573 685.953 91.959 687.13 90.4799C688.086 89.2781 689.591 87.4624 688.121 90.1577C683.272 99.0476 677.441 107.697 671.643 116.143C666.715 123.321 671.729 115.384 672.2 114.854C685.663 99.7082 704.84 88.7642 724.236 80.0644C726.263 79.1555 728.593 77.0046 730.617 77.9169C732.168 78.6158 728.593 80.4098 727.334 81.4603C723.623 84.5553 719.653 87.4076 715.749 90.3188C704.217 98.9198 692.333 106.965 680.253 114.962C677.295 116.92 664.153 130.946 665.944 120.706C667.685 110.748 672.079 101.077 676.908 91.9831C679.157 87.7483 683.337 84.2489 684.714 79.7423C685.932 75.7542 678.108 85.6866 674.678 88.5471C670.762 91.8128 666.796 95.0334 662.784 98.2109C657.796 102.162 641.674 112.666 647.607 109.861C654.953 106.389 660.751 100.875 667.554 96.654C680.315 88.7364 688.515 84.0028 701.935 77.4337C707.235 74.8395 721.367 67.866 708.749 77.4874C696.848 86.5625 684.684 95.377 672.82 104.492C670.577 106.216 668.341 107.946 666.129 109.7C664.858 110.708 662.317 114.305 662.413 112.814C662.579 110.225 664.98 108.127 666.377 105.835C670.371 99.2832 674.424 92.9611 679.262 86.8291C682.884 82.2393 694.115 69.2086 692.271 74.5345C690.755 78.9164 686.305 82.0953 682.979 85.6479C677.757 91.2262 671.138 98.1822 664.829 102.989C653.96 111.269 656.929 101.974 659.935 95.5265C661.106 93.0152 678.388 59.2551 683.351 61.4884C688.09 63.6208 665.584 106.157 656.713 106.157C655.557 106.157 656.257 104.071 656.713 103.15C659.761 97.007 667.435 89.3663 672.014 84.7889C674.836 81.9687 683.808 73.392 688.431 70.2395C689.929 69.2179 687.334 73.4747 686.2 74.803C678.342 84.0128 669.478 92.8628 660.183 101.003C659.273 101.799 656.772 104.169 657.147 103.097C659.707 95.7763 667.374 90.5948 673.191 84.8426C682.488 75.6507 697.309 58.974 711.971 55.1532C715.942 54.1184 708.032 61.5835 705.156 64.1728C700.755 68.136 689.312 77.4865 684.466 81.3529C680.295 84.6805 675.889 87.8039 671.767 91.1778C670.54 92.1822 671.954 88.2279 672.448 86.8291C674.722 80.3917 677.182 73.7768 680.873 67.8235C681.35 67.0538 681.681 66.0202 682.608 65.676C683.211 65.452 682.442 66.8213 682.174 67.3404C679.909 71.7237 675.091 78.5597 672.572 82.1045C671.053 84.2425 661.413 100.755 656.59 101.325C652.796 101.773 659.172 95.0265 661.174 92.1979C665.909 85.5046 672.366 77.7057 678.147 71.6891C681.54 68.1585 692.352 58.5139 690.227 62.7232C689.018 65.1175 681.515 73.8131 680.997 74.4272C679.201 76.5563 672.037 85.3962 668.731 87.6881C668.01 88.188 666.306 88.8743 666.006 88.1176C664.851 85.2134 670.536 74.3878 670.837 73.8366C675.157 65.9341 680.803 57.3301 687.749 50.8582C689.355 49.3625 676.342 71.0196 676.289 65.5687C676.236 60.0713 678.322 54.2795 680.811 49.3012C684.732 41.4594 684.778 45.0555 682.174 50.6971C680.601 54.1045 678.648 59.2515 675.422 61.9179C674.205 62.9233 676.204 52.2801 676.413 51.5024C676.577 50.8893 676.741 50.2741 676.97 49.677C677.782 47.5663 675.586 53.9652 674.74 56.0659C672.316 62.0839 669.559 68.0811 666.129 73.7292C660.422 83.1277 666.921 66.6502 666.129 70.5079C665.171 75.1822 662.115 79.8901 659.191 83.8226C653.811 91.0587 656.417 82.4192 657.705 79.8496C659.151 76.9632 664.747 68.9792 663.775 72.0112C660.655 81.7463 653.517 92.5041 646.678 100.627C640.199 108.322 647.696 90.6937 643.89 97.9962C640.896 103.742 637.665 109.508 633.793 114.854C628.927 121.572 628.182 118.038 629.457 112.707C629.505 112.502 631.219 105.405 632.492 105.405C633.914 105.405 630.398 109.2 631.811 109.056C633.512 108.882 637.299 102.745 638.563 101.754C643.907 97.5639 636.425 114.277 633.421 119.955C631.408 123.759 624.797 134.655 625.616 130.531C626.892 124.104 630.708 117.494 634.722 112.062C644.232 99.1929 632.7 119.256 639.988 109.163C641.585 106.952 647.307 96.0903 650.643 95.6339C650.789 95.6138 643.542 116.125 642.651 117.914C641.916 119.392 641.149 120.863 640.235 122.263C638.329 125.184 639.528 121.258 639.616 120.975C640.809 117.146 642.918 107.027 646.926 104.546C650.193 102.523 644.044 111.057 642.218 114.156C641.226 115.839 640.224 117.519 639.12 119.149C638.17 120.552 636.535 124.28 635.527 122.907C632.554 118.858 651.709 101.701 641.598 119.901C641.245 120.537 640.955 121.245 640.359 121.726C639.221 122.647 641.374 119.164 642.094 117.968C646.358 110.884 642.673 121.411 642.218 122.37C641.444 123.999 640.561 125.59 639.616 127.149C638.63 128.775 636.99 133.264 635.961 131.659C634.637 129.594 641.373 120.633 643.147 119.096C645.232 117.288 645.972 120.857 646.554 121.726C648.587 124.761 651.48 122.771 654.174 121.297C659.133 118.582 663.897 114.485 669.475 112.707C673.923 111.288 672.5 118.362 672.448 120.223C672.439 120.547 671.543 124.736 671.705 121.028C672.034 113.473 674.611 105.77 676.97 98.533C679.815 89.8094 670.875 118.275 661.421 122.156C659.309 123.023 667.11 101.49 665.882 105.405C664.617 109.437 663.15 113.523 660.988 117.27C660.727 117.723 659.579 118.828 659.749 118.344C660.33 116.681 663.128 111.159 663.528 110.344C664.354 108.662 665.178 106.979 666.006 105.298C666.376 104.546 666.652 103.753 667.121 103.043C667.425 102.581 666.728 104.052 666.501 104.546C664.277 109.386 661.201 119.313 655.474 122.048C652.739 123.355 656.142 116.629 657.085 114.049C659.677 106.954 650.678 121.595 650.333 122.048C648.93 123.892 644.523 129.275 645.687 127.31C649.259 121.278 653.27 115.213 658.262 109.969C667.407 100.361 652.614 123.032 652.625 122.907C653.415 113.894 660.087 102.478 663.714 94.5601C667.088 87.1936 671.987 80.2384 673.935 72.4944C674.659 69.6159 668.258 75.8106 665.882 77.9169C659.246 83.7973 648.015 97.564 637.758 99.0699C628.35 100.451 642.43 70.2657 643.457 68.1457C644.479 66.0343 645.631 63.9705 646.802 61.9179C647.708 60.3294 648.446 56.4788 650.147 57.4618C651.77 58.3996 646.106 69.01 645.935 69.3268C645.147 70.7788 640.876 78.3258 639.554 72.1186C638.076 65.1781 642.008 58.3698 646.554 52.952C655.603 42.1689 647.541 57.6744 645.067 60.9515C639.64 68.1423 632.548 74.646 624.625 79.796C614.829 86.1632 614.426 71.699 614.032 65.7834C613.486 57.5966 614.363 49.4502 618.058 41.8386C618.433 41.0656 620.205 39.3924 620.288 40.2279C620.546 42.8139 619.182 48.7081 618.678 50.536C616.327 59.0618 612.198 67.0899 609.386 75.4472C608.709 77.4563 608.829 76.6402 610.501 74.2661C613.62 69.8358 616.844 65.4457 620.041 61.0589" stroke="#FAB680" stroke-linecap="round" stroke-linejoin="round"/>
<path d="M683.5 3.5C687.167 3.83333 698.5 5.3 698.5 16.5V31.5H730.5C734.833 32.5 743.4 37.5 743 49.5V132.5C742 136.333 735.4 142.6 729 143" stroke="#FAB680" stroke-width="6"/>
<path d="M727.8 31.5263C732.208 31.5263 735.78 33.0526 738.592 36.0289C741.48 39.1579 743 42.5921 743 46.7895V130.737C743 134.934 741.48 138.368 738.592 141.497C735.78 144.474 732.208 146 727.8 146H606.2C601.792 146 598.22 144.474 595.408 141.497C592.52 138.368 591 134.934 591 130.737V46.7895C591 42.5921 592.52 39.1579 595.408 36.0289C598.22 33.0526 601.792 31.5263 606.2 31.5263H636.6V16.2632C636.6 11.8368 638.12 8.25 641.008 5.42632C643.82 2.52632 647.392 1 651.8 1H682.2C686.608 1 690.18 2.52632 692.992 5.42632C695.88 8.25 697.4 11.8368 697.4 16.2632V31.5263H727.8ZM606.2 46.7895V130.737H727.8V46.7895H606.2ZM682.2 31.5263V16.2632H651.8V31.5263H682.2Z" fill="black"/>
<path d="M102.719 91.5004C111.355 90.0003 137.716 91.5001 149.988 108C152.219 111 156.442 114.6 154.988 139" stroke="#FAB680" stroke-width="5"/>
<path d="M103.628 12C123.16 12 143.645 50.8667 106.963 65" stroke="#FAB680" stroke-width="6"/>
<path d="M30.9066 98C29.3048 102.939 26.7357 105.821 27.3689 139" stroke="#FAB680" stroke-width="6"/>
<path d="M171.35 102.5C179.531 104.5 193.53 106.4 196.802 112C198.469 113.833 201.62 118.8 200.893 124C200.893 128.167 200.893 137 200.893 139" stroke="#FAB680" stroke-width="6"/>
<path d="M159.533 34C166.805 36.3333 179.622 40.8 176.35 62C175.289 65.8333 170.441 73.6 163.169 76" stroke="#FAB680" stroke-width="6"/>
<path d="M100.446 9C93.181 9 86.2131 12.1607 81.0756 17.7868C75.9381 23.4129 73.0519 31.0435 73.0519 39C73.0519 46.9565 75.9381 54.5871 81.0756 60.2132C86.2131 65.8393 93.181 69 100.446 69C107.712 69 114.68 65.8393 119.817 60.2132C124.955 54.5871 127.841 46.9565 127.841 39C127.841 31.0435 124.955 23.4129 119.817 17.7868C114.68 12.1607 107.712 9 100.446 9ZM45.6575 30.7C39.6029 30.7 33.7963 33.3339 29.5151 38.0223C25.2339 42.7107 22.8287 49.0696 22.8287 55.7C22.8287 58.983 23.4192 62.234 24.5665 65.2671C25.7137 68.3002 27.3953 71.0562 29.5151 73.3777C31.635 75.6991 34.1516 77.5406 36.9213 78.797C39.691 80.0534 42.6596 80.7 45.6575 80.7C53.6932 80.7 60.7244 76.1 64.7423 69.3C58.6242 60.8 54.789 50.5 54.789 39C54.789 37 54.789 35 55.1542 33C52.2321 31.5 49.0361 30.7 45.6575 30.7ZM155.235 30.7C151.857 30.7 148.661 31.5 145.739 33C146.104 35 146.104 37 146.104 39C146.104 50.5 142.269 60.8 136.151 69.3C140.168 76.1 147.2 80.7 155.235 80.7C158.233 80.7 161.202 80.0534 163.972 78.797C166.741 77.5406 169.258 75.6991 171.378 73.3777C173.498 71.0562 175.179 68.3002 176.326 65.2671C177.474 62.234 178.064 58.983 178.064 55.7C178.064 52.417 177.474 49.1661 176.326 46.1329C175.179 43.0998 173.498 40.3438 171.378 38.0223C169.258 35.7009 166.741 33.8594 163.972 32.603C161.202 31.3466 158.233 30.7 155.235 30.7ZM100.446 89C82.1834 89 45.6575 99 45.6575 119V139H155.235V119C155.235 99 118.709 89 100.446 89ZM33.5126 98.7C18.263 101.6 0 109.4 0 122.3V139H27.3945V119C27.3945 111.2 30.0426 104.3 33.5126 98.7ZM167.38 98.7C170.85 104.3 173.498 111.2 173.498 119V139H200.893V122.3C200.893 109.4 182.63 101.6 167.38 98.7Z" fill="black"/>
<rect width="6.56924" height="2.8595" transform="matrix(0.973034 -0.23066 0.192226 0.981351 26.1387 97.4355)" fill="white"/>
</svg>
