<svg width="578" height="94" viewBox="0 0 578 94" fill="none" xmlns="http://www.w3.org/2000/svg">
<path d="M174.909 18H177.277V13.792H178.861C181.405 13.792 183.437 12.576 183.437 9.872C183.437 7.072 181.421 6.144 178.797 6.144H174.909V18ZM177.277 11.92V8.032H178.621C180.253 8.032 181.117 8.496 181.117 9.872C181.117 11.232 180.333 11.92 178.701 11.92H177.277ZM189.206 18H191.574V13.52H193.222L195.654 18H198.294L195.526 13.152C196.886 12.624 197.782 11.52 197.782 9.744C197.782 7.024 195.814 6.144 193.334 6.144H189.206V18ZM191.574 11.648V8.032H193.11C194.63 8.032 195.478 8.464 195.478 9.744C195.478 11.008 194.63 11.648 193.11 11.648H191.574ZM208.441 18.224C211.577 18.224 213.737 15.872 213.737 12.032C213.737 8.192 211.577 5.936 208.441 5.936C205.305 5.936 203.145 8.176 203.145 12.032C203.145 15.872 205.305 18.224 208.441 18.224ZM208.441 16.176C206.681 16.176 205.561 14.56 205.561 12.032C205.561 9.488 206.681 7.968 208.441 7.968C210.201 7.968 211.321 9.488 211.321 12.032C211.321 14.56 210.201 16.176 208.441 16.176ZM219.675 18H223.899C226.507 18 228.491 16.896 228.491 14.512C228.491 12.912 227.547 12.016 226.267 11.712V11.632C227.275 11.28 227.883 10.16 227.883 9.072C227.883 6.864 226.027 6.144 223.595 6.144H219.675V18ZM222.043 10.976V7.968H223.451C224.875 7.968 225.579 8.384 225.579 9.424C225.579 10.368 224.923 10.976 223.419 10.976H222.043ZM222.043 16.176V12.72H223.691C225.323 12.72 226.187 13.216 226.187 14.368C226.187 15.6 225.307 16.176 223.691 16.176H222.043ZM234.19 18H241.374V16.016H236.558V6.144H234.19V18ZM247.065 18H254.505V16.016H249.433V12.848H253.593V10.864H249.433V8.128H254.329V6.144H247.065V18ZM260.534 18H262.662V13.056C262.662 11.936 262.47 10.288 262.358 9.168H262.422L263.366 11.952L265.206 16.928H266.566L268.39 11.952L269.35 9.168H269.43C269.302 10.288 269.126 11.936 269.126 13.056V18H271.286V6.144H268.662L266.694 11.696C266.438 12.432 266.23 13.216 265.974 13.968H265.894C265.654 13.216 265.43 12.432 265.174 11.696L263.158 6.144H260.534V18ZM284.976 18.224C287.712 18.224 289.328 16.576 289.328 14.64C289.328 12.928 288.384 12.016 286.944 11.424L285.392 10.768C284.384 10.368 283.552 10.064 283.552 9.216C283.552 8.432 284.208 7.968 285.248 7.968C286.224 7.968 287.008 8.32 287.76 8.944L288.96 7.456C288 6.48 286.624 5.936 285.248 5.936C282.848 5.936 281.152 7.424 281.152 9.36C281.152 11.088 282.352 12.048 283.552 12.544L285.136 13.216C286.192 13.664 286.912 13.936 286.912 14.816C286.912 15.648 286.256 16.176 285.024 16.176C283.984 16.176 282.864 15.648 282.016 14.864L280.656 16.496C281.808 17.6 283.392 18.224 284.976 18.224ZM297.402 18H299.77V8.128H303.13V6.144H294.074V8.128H297.402V18ZM311.251 11.824C311.603 10.592 311.955 9.248 312.259 7.952H312.339C312.675 9.232 312.995 10.592 313.363 11.824L313.715 13.12H310.899L311.251 11.824ZM307.155 18H309.555L310.387 14.96H314.227L315.059 18H317.539L313.731 6.144H310.947L307.155 18ZM324.902 18H327.27V8.128H330.63V6.144H321.574V8.128H324.902V18ZM336.175 18H343.615V16.016H338.543V12.848H342.703V10.864H338.543V8.128H343.439V6.144H336.175V18ZM349.644 18H351.772V13.056C351.772 11.936 351.58 10.288 351.468 9.168H351.532L352.476 11.952L354.316 16.928H355.676L357.5 11.952L358.46 9.168H358.54C358.412 10.288 358.236 11.936 358.236 13.056V18H360.396V6.144H357.772L355.804 11.696C355.548 12.432 355.34 13.216 355.084 13.968H355.004C354.764 13.216 354.54 12.432 354.284 11.696L352.268 6.144H349.644V18ZM366.925 18H374.365V16.016H369.293V12.848H373.453V10.864H369.293V8.128H374.189V6.144H366.925V18ZM380.394 18H382.634V13.248C382.634 11.888 382.458 10.4 382.346 9.12H382.426L383.626 11.664L387.05 18H389.45V6.144H387.21V10.88C387.21 12.224 387.402 13.792 387.514 15.024H387.434L386.25 12.464L382.81 6.144H380.394V18ZM398.355 18H400.723V8.128H404.083V6.144H395.027V8.128H398.355V18Z" fill="#D29890"/>
<path d="M60.5348 50H66.3168V48.894H61.8368V39.724H60.5348V50ZM70.8006 50.182C72.6626 50.182 74.3286 48.726 74.3286 46.206C74.3286 43.672 72.6626 42.202 70.8006 42.202C68.9386 42.202 67.2726 43.672 67.2726 46.206C67.2726 48.726 68.9386 50.182 70.8006 50.182ZM70.8006 49.118C69.4846 49.118 68.6026 47.956 68.6026 46.206C68.6026 44.456 69.4846 43.266 70.8006 43.266C72.1166 43.266 73.0126 44.456 73.0126 46.206C73.0126 47.956 72.1166 49.118 70.8006 49.118ZM78.3248 50.182C80.1168 50.182 81.0968 49.16 81.0968 47.928C81.0968 46.486 79.8788 46.038 78.7728 45.618C77.9188 45.296 77.1348 45.03 77.1348 44.302C77.1348 43.714 77.5828 43.21 78.5488 43.21C79.2208 43.21 79.7528 43.49 80.2708 43.882L80.8868 43.056C80.2988 42.594 79.4728 42.202 78.5348 42.202C76.8828 42.202 75.9028 43.154 75.9028 44.358C75.9028 45.646 77.0648 46.164 78.1288 46.556C78.9688 46.878 79.8648 47.214 79.8648 47.998C79.8648 48.656 79.3748 49.188 78.3668 49.188C77.4568 49.188 76.7708 48.824 76.1128 48.292L75.4828 49.132C76.2108 49.734 77.2468 50.182 78.3248 50.182ZM87.6545 50H89.1385L91.8405 42.398H90.5805L89.1385 46.724C88.9145 47.466 88.6765 48.25 88.4385 48.964H88.3825C88.1445 48.25 87.9065 47.466 87.6685 46.724L86.2405 42.398H84.9105L87.6545 50ZM93.3173 50H94.5913V42.398H93.3173V50ZM93.9613 40.83C94.4653 40.83 94.8153 40.494 94.8153 39.976C94.8153 39.486 94.4653 39.15 93.9613 39.15C93.4573 39.15 93.1073 39.486 93.1073 39.976C93.1073 40.494 93.4573 40.83 93.9613 40.83ZM99.1608 50.182C100.953 50.182 101.933 49.16 101.933 47.928C101.933 46.486 100.715 46.038 99.6088 45.618C98.7548 45.296 97.9708 45.03 97.9708 44.302C97.9708 43.714 98.4188 43.21 99.3848 43.21C100.057 43.21 100.589 43.49 101.107 43.882L101.723 43.056C101.135 42.594 100.309 42.202 99.3708 42.202C97.7188 42.202 96.7388 43.154 96.7388 44.358C96.7388 45.646 97.9008 46.164 98.9648 46.556C99.8048 46.878 100.701 47.214 100.701 47.998C100.701 48.656 100.211 49.188 99.2028 49.188C98.2928 49.188 97.6068 48.824 96.9488 48.292L96.3188 49.132C97.0468 49.734 98.0828 50.182 99.1608 50.182ZM103.722 50H104.996V42.398H103.722V50ZM104.366 40.83C104.87 40.83 105.22 40.494 105.22 39.976C105.22 39.486 104.87 39.15 104.366 39.15C103.862 39.15 103.512 39.486 103.512 39.976C103.512 40.494 103.862 40.83 104.366 40.83ZM109.971 50.182C110.433 50.182 110.937 50.042 111.371 49.902L111.119 48.95C110.867 49.048 110.517 49.146 110.251 49.146C109.369 49.146 109.075 48.614 109.075 47.676V43.434H111.133V42.398H109.075V40.256H108.011L107.857 42.398L106.667 42.468V43.434H107.801V47.648C107.801 49.16 108.347 50.182 109.971 50.182ZM114.263 50.182C115.201 50.182 116.055 49.692 116.783 49.09H116.825L116.937 50H117.987V45.324C117.987 43.448 117.203 42.202 115.355 42.202C114.137 42.202 113.059 42.748 112.359 43.196L112.863 44.078C113.465 43.672 114.263 43.266 115.145 43.266C116.391 43.266 116.713 44.204 116.713 45.184C113.479 45.548 112.037 46.374 112.037 48.026C112.037 49.398 112.989 50.182 114.263 50.182ZM114.627 49.16C113.871 49.16 113.283 48.81 113.283 47.942C113.283 46.962 114.151 46.332 116.713 46.024V48.152C115.971 48.81 115.369 49.16 114.627 49.16ZM123.005 50.182C123.915 50.182 124.713 49.692 125.315 49.104H125.357L125.469 50H126.505V38.856H125.245V41.782L125.301 43.098C124.629 42.538 124.055 42.202 123.159 42.202C121.423 42.202 119.869 43.742 119.869 46.206C119.869 48.74 121.101 50.182 123.005 50.182ZM123.285 49.118C121.941 49.118 121.185 48.026 121.185 46.192C121.185 44.456 122.151 43.28 123.383 43.28C124.013 43.28 124.587 43.504 125.245 44.078V48.068C124.601 48.768 123.985 49.118 123.285 49.118ZM132.051 50.182C133.913 50.182 135.579 48.726 135.579 46.206C135.579 43.672 133.913 42.202 132.051 42.202C130.189 42.202 128.523 43.672 128.523 46.206C128.523 48.726 130.189 50.182 132.051 50.182ZM132.051 49.118C130.735 49.118 129.853 47.956 129.853 46.206C129.853 44.456 130.735 43.266 132.051 43.266C133.367 43.266 134.263 44.456 134.263 46.206C134.263 47.956 133.367 49.118 132.051 49.118ZM137.587 50H138.861V45.114C139.365 43.812 140.149 43.364 140.779 43.364C141.087 43.364 141.269 43.392 141.521 43.49L141.759 42.37C141.521 42.244 141.283 42.202 140.947 42.202C140.093 42.202 139.323 42.818 138.791 43.784H138.749L138.637 42.398H137.587V50ZM145.93 50.182C146.966 50.182 147.778 49.832 148.45 49.398L147.988 48.558C147.428 48.936 146.826 49.16 146.084 49.16C144.642 49.16 143.648 48.124 143.564 46.5H148.688C148.716 46.318 148.744 46.052 148.744 45.772C148.744 43.602 147.652 42.202 145.72 42.202C143.956 42.202 142.29 43.742 142.29 46.206C142.29 48.712 143.914 50.182 145.93 50.182ZM143.55 45.576C143.704 44.092 144.656 43.224 145.734 43.224C146.924 43.224 147.624 44.05 147.624 45.576H143.55ZM152.604 50.182C154.396 50.182 155.376 49.16 155.376 47.928C155.376 46.486 154.158 46.038 153.052 45.618C152.198 45.296 151.414 45.03 151.414 44.302C151.414 43.714 151.862 43.21 152.828 43.21C153.5 43.21 154.032 43.49 154.55 43.882L155.166 43.056C154.578 42.594 153.752 42.202 152.814 42.202C151.162 42.202 150.182 43.154 150.182 44.358C150.182 45.646 151.344 46.164 152.408 46.556C153.248 46.878 154.144 47.214 154.144 47.998C154.144 48.656 153.654 49.188 152.646 49.188C151.736 49.188 151.05 48.824 150.392 48.292L149.762 49.132C150.49 49.734 151.526 50.182 152.604 50.182ZM162.284 50.182C164.076 50.182 165.056 49.16 165.056 47.928C165.056 46.486 163.838 46.038 162.732 45.618C161.878 45.296 161.094 45.03 161.094 44.302C161.094 43.714 161.542 43.21 162.508 43.21C163.18 43.21 163.712 43.49 164.23 43.882L164.846 43.056C164.258 42.594 163.432 42.202 162.494 42.202C160.842 42.202 159.862 43.154 159.862 44.358C159.862 45.646 161.024 46.164 162.088 46.556C162.928 46.878 163.824 47.214 163.824 47.998C163.824 48.656 163.334 49.188 162.326 49.188C161.416 49.188 160.73 48.824 160.072 48.292L159.442 49.132C160.17 49.734 161.206 50.182 162.284 50.182ZM169.799 50.182C171.661 50.182 173.327 48.726 173.327 46.206C173.327 43.672 171.661 42.202 169.799 42.202C167.937 42.202 166.271 43.672 166.271 46.206C166.271 48.726 167.937 50.182 169.799 50.182ZM169.799 49.118C168.483 49.118 167.601 47.956 167.601 46.206C167.601 44.456 168.483 43.266 169.799 43.266C171.115 43.266 172.011 44.456 172.011 46.206C172.011 47.956 171.115 49.118 169.799 49.118ZM178.331 50.182C179.241 50.182 180.109 49.832 180.795 49.216L180.235 48.362C179.759 48.796 179.143 49.118 178.443 49.118C177.043 49.118 176.091 47.956 176.091 46.206C176.091 44.456 177.099 43.266 178.485 43.266C179.087 43.266 179.549 43.546 179.997 43.938L180.655 43.098C180.109 42.622 179.423 42.202 178.429 42.202C176.483 42.202 174.761 43.672 174.761 46.206C174.761 48.726 176.315 50.182 178.331 50.182ZM182.458 50H183.732V42.398H182.458V50ZM183.102 40.83C183.606 40.83 183.956 40.494 183.956 39.976C183.956 39.486 183.606 39.15 183.102 39.15C182.598 39.15 182.248 39.486 182.248 39.976C182.248 40.494 182.598 40.83 183.102 40.83ZM188.063 50.182C189.001 50.182 189.855 49.692 190.583 49.09H190.625L190.737 50H191.787V45.324C191.787 43.448 191.003 42.202 189.155 42.202C187.937 42.202 186.859 42.748 186.159 43.196L186.663 44.078C187.265 43.672 188.063 43.266 188.945 43.266C190.191 43.266 190.513 44.204 190.513 45.184C187.279 45.548 185.837 46.374 185.837 48.026C185.837 49.398 186.789 50.182 188.063 50.182ZM188.427 49.16C187.671 49.16 187.083 48.81 187.083 47.942C187.083 46.962 187.951 46.332 190.513 46.024V48.152C189.771 48.81 189.169 49.16 188.427 49.16ZM195.56 50.182C195.91 50.182 196.12 50.14 196.302 50.07L196.12 49.09C195.98 49.118 195.924 49.118 195.854 49.118C195.658 49.118 195.49 48.964 195.49 48.572V38.856H194.216V48.488C194.216 49.566 194.608 50.182 195.56 50.182ZM201.274 50.182C202.31 50.182 203.122 49.832 203.794 49.398L203.332 48.558C202.772 48.936 202.17 49.16 201.428 49.16C199.986 49.16 198.992 48.124 198.908 46.5H204.032C204.06 46.318 204.088 46.052 204.088 45.772C204.088 43.602 202.996 42.202 201.064 42.202C199.3 42.202 197.634 43.742 197.634 46.206C197.634 48.712 199.258 50.182 201.274 50.182ZM198.894 45.576C199.048 44.092 200 43.224 201.078 43.224C202.268 43.224 202.968 44.05 202.968 45.576H198.894ZM207.948 50.182C209.74 50.182 210.72 49.16 210.72 47.928C210.72 46.486 209.502 46.038 208.396 45.618C207.542 45.296 206.758 45.03 206.758 44.302C206.758 43.714 207.206 43.21 208.172 43.21C208.844 43.21 209.376 43.49 209.894 43.882L210.51 43.056C209.922 42.594 209.096 42.202 208.158 42.202C206.506 42.202 205.526 43.154 205.526 44.358C205.526 45.646 206.688 46.164 207.752 46.556C208.592 46.878 209.488 47.214 209.488 47.998C209.488 48.656 208.998 49.188 207.99 49.188C207.08 49.188 206.394 48.824 205.736 48.292L205.106 49.132C205.834 49.734 206.87 50.182 207.948 50.182ZM218.034 50.182C218.496 50.182 219 50.042 219.434 49.902L219.182 48.95C218.93 49.048 218.58 49.146 218.314 49.146C217.432 49.146 217.138 48.614 217.138 47.676V43.434H219.196V42.398H217.138V40.256H216.074L215.92 42.398L214.73 42.468V43.434H215.864V47.648C215.864 49.16 216.41 50.182 218.034 50.182ZM220.917 50H222.191V42.398H220.917V50ZM221.561 40.83C222.065 40.83 222.415 40.494 222.415 39.976C222.415 39.486 222.065 39.15 221.561 39.15C221.057 39.15 220.707 39.486 220.707 39.976C220.707 40.494 221.057 40.83 221.561 40.83ZM227.838 50.182C228.874 50.182 229.686 49.832 230.358 49.398L229.896 48.558C229.336 48.936 228.734 49.16 227.992 49.16C226.55 49.16 225.556 48.124 225.472 46.5H230.596C230.624 46.318 230.652 46.052 230.652 45.772C230.652 43.602 229.56 42.202 227.628 42.202C225.864 42.202 224.198 43.742 224.198 46.206C224.198 48.712 225.822 50.182 227.838 50.182ZM225.458 45.576C225.612 44.092 226.564 43.224 227.642 43.224C228.832 43.224 229.532 44.05 229.532 45.576H225.458ZM232.524 50H233.798V44.484C234.568 43.714 235.1 43.322 235.884 43.322C236.892 43.322 237.326 43.924 237.326 45.352V50H238.6V45.184C238.6 43.238 237.872 42.202 236.276 42.202C235.24 42.202 234.456 42.776 233.728 43.49H233.686L233.574 42.398H232.524V50ZM244.149 50.182C245.185 50.182 245.997 49.832 246.669 49.398L246.207 48.558C245.647 48.936 245.045 49.16 244.303 49.16C242.861 49.16 241.867 48.124 241.783 46.5H246.907C246.935 46.318 246.963 46.052 246.963 45.772C246.963 43.602 245.871 42.202 243.939 42.202C242.175 42.202 240.509 43.742 240.509 46.206C240.509 48.712 242.133 50.182 244.149 50.182ZM241.769 45.576C241.923 44.092 242.875 43.224 243.953 43.224C245.143 43.224 245.843 44.05 245.843 45.576H241.769ZM248.835 50H250.109V44.484C250.879 43.714 251.411 43.322 252.195 43.322C253.203 43.322 253.637 43.924 253.637 45.352V50H254.911V45.184C254.911 43.238 254.183 42.202 252.587 42.202C251.551 42.202 250.767 42.776 250.039 43.49H249.997L249.885 42.398H248.835V50ZM260.65 53.276C262.162 53.276 262.96 52.128 263.478 50.63L266.348 42.398H265.102L263.744 46.626C263.534 47.298 263.31 48.068 263.1 48.754H263.03C262.792 48.068 262.526 47.284 262.302 46.626L260.748 42.398H259.418L262.47 50.014L262.302 50.588C261.994 51.526 261.448 52.226 260.58 52.226C260.384 52.226 260.16 52.156 260.006 52.1L259.754 53.122C259.992 53.22 260.286 53.276 260.65 53.276ZM269.261 50.182C270.199 50.182 271.053 49.692 271.781 49.09H271.823L271.935 50H272.985V45.324C272.985 43.448 272.201 42.202 270.353 42.202C269.135 42.202 268.057 42.748 267.357 43.196L267.861 44.078C268.463 43.672 269.261 43.266 270.143 43.266C271.389 43.266 271.711 44.204 271.711 45.184C268.477 45.548 267.035 46.374 267.035 48.026C267.035 49.398 267.987 50.182 269.261 50.182ZM269.625 49.16C268.869 49.16 268.281 48.81 268.281 47.942C268.281 46.962 269.149 46.332 271.711 46.024V48.152C270.969 48.81 270.367 49.16 269.625 49.16ZM278.544 50H279.818V44.484C280.518 43.7 281.162 43.322 281.736 43.322C282.702 43.322 283.15 43.924 283.15 45.352V50H284.424V44.484C285.138 43.7 285.754 43.322 286.342 43.322C287.308 43.322 287.756 43.924 287.756 45.352V50H289.03V45.184C289.03 43.238 288.288 42.202 286.72 42.202C285.796 42.202 284.998 42.804 284.214 43.658C283.906 42.762 283.276 42.202 282.114 42.202C281.204 42.202 280.406 42.776 279.748 43.504H279.706L279.594 42.398H278.544V50ZM293.717 50.182C294.767 50.182 295.523 49.636 296.237 48.81H296.279L296.377 50H297.441V42.398H296.167V47.788C295.439 48.698 294.893 49.076 294.109 49.076C293.101 49.076 292.681 48.474 292.681 47.06V42.398H291.407V47.214C291.407 49.146 292.121 50.182 293.717 50.182ZM303.005 50.182C303.915 50.182 304.783 49.832 305.469 49.216L304.909 48.362C304.433 48.796 303.817 49.118 303.117 49.118C301.717 49.118 300.765 47.956 300.765 46.206C300.765 44.456 301.773 43.266 303.159 43.266C303.761 43.266 304.223 43.546 304.671 43.938L305.329 43.098C304.783 42.622 304.097 42.202 303.103 42.202C301.157 42.202 299.435 43.672 299.435 46.206C299.435 48.726 300.989 50.182 303.005 50.182ZM307.132 50H308.406V44.484C309.176 43.714 309.708 43.322 310.492 43.322C311.5 43.322 311.934 43.924 311.934 45.352V50H313.208V45.184C313.208 43.238 312.48 42.202 310.884 42.202C309.848 42.202 309.064 42.776 308.364 43.476L308.406 41.908V38.856H307.132V50ZM318.59 50.182C320.452 50.182 322.118 48.726 322.118 46.206C322.118 43.672 320.452 42.202 318.59 42.202C316.728 42.202 315.062 43.672 315.062 46.206C315.062 48.726 316.728 50.182 318.59 50.182ZM318.59 49.118C317.274 49.118 316.392 47.956 316.392 46.206C316.392 44.456 317.274 43.266 318.59 43.266C319.906 43.266 320.802 44.456 320.802 46.206C320.802 47.956 319.906 49.118 318.59 49.118ZM332.087 53.206H333.347V42.398H332.339L332.213 43.126H332.171C331.513 42.524 330.883 42.202 330.001 42.202C328.265 42.202 326.711 43.742 326.711 46.206C326.711 48.74 327.943 50.182 329.847 50.182C330.729 50.182 331.527 49.72 332.143 49.118L332.087 50.504V53.206ZM330.127 49.118C328.783 49.118 328.027 48.026 328.027 46.192C328.027 44.456 328.993 43.28 330.225 43.28C330.855 43.28 331.429 43.504 332.087 44.078V48.068C331.443 48.768 330.827 49.118 330.127 49.118ZM338.15 50.182C339.2 50.182 339.956 49.636 340.67 48.81H340.712L340.81 50H341.874V42.398H340.6V47.788C339.872 48.698 339.326 49.076 338.542 49.076C337.534 49.076 337.114 48.474 337.114 47.06V42.398H335.84V47.214C335.84 49.146 336.554 50.182 338.15 50.182ZM347.508 50.182C348.544 50.182 349.356 49.832 350.028 49.398L349.566 48.558C349.006 48.936 348.404 49.16 347.662 49.16C346.22 49.16 345.226 48.124 345.142 46.5H350.266C350.294 46.318 350.322 46.052 350.322 45.772C350.322 43.602 349.23 42.202 347.298 42.202C345.534 42.202 343.868 43.742 343.868 46.206C343.868 48.712 345.492 50.182 347.508 50.182ZM345.128 45.576C345.282 44.092 346.234 43.224 347.312 43.224C348.502 43.224 349.202 44.05 349.202 45.576H345.128ZM355.325 50H356.599V44.484C357.369 43.714 357.901 43.322 358.685 43.322C359.693 43.322 360.127 43.924 360.127 45.352V50H361.401V45.184C361.401 43.238 360.673 42.202 359.077 42.202C358.041 42.202 357.257 42.776 356.557 43.476L356.599 41.908V38.856H355.325V50ZM365.579 50.182C366.517 50.182 367.371 49.692 368.099 49.09H368.141L368.253 50H369.303V45.324C369.303 43.448 368.519 42.202 366.671 42.202C365.453 42.202 364.375 42.748 363.675 43.196L364.179 44.078C364.781 43.672 365.579 43.266 366.461 43.266C367.707 43.266 368.029 44.204 368.029 45.184C364.795 45.548 363.353 46.374 363.353 48.026C363.353 49.398 364.305 50.182 365.579 50.182ZM365.943 49.16C365.187 49.16 364.599 48.81 364.599 47.942C364.599 46.962 365.467 46.332 368.029 46.024V48.152C367.287 48.81 366.685 49.16 365.943 49.16ZM374.727 50.182C375.637 50.182 376.505 49.832 377.191 49.216L376.631 48.362C376.155 48.796 375.539 49.118 374.839 49.118C373.439 49.118 372.487 47.956 372.487 46.206C372.487 44.456 373.495 43.266 374.881 43.266C375.483 43.266 375.945 43.546 376.393 43.938L377.051 43.098C376.505 42.622 375.819 42.202 374.825 42.202C372.879 42.202 371.157 43.672 371.157 46.206C371.157 48.726 372.711 50.182 374.727 50.182ZM381.579 50.182C382.615 50.182 383.427 49.832 384.099 49.398L383.637 48.558C383.077 48.936 382.475 49.16 381.733 49.16C380.291 49.16 379.297 48.124 379.213 46.5H384.337C384.365 46.318 384.393 46.052 384.393 45.772C384.393 43.602 383.301 42.202 381.369 42.202C379.605 42.202 377.939 43.742 377.939 46.206C377.939 48.712 379.563 50.182 381.579 50.182ZM379.199 45.576C379.353 44.092 380.305 43.224 381.383 43.224C382.573 43.224 383.273 44.05 383.273 45.576H379.199ZM386.265 50H387.539V45.114C388.043 43.812 388.827 43.364 389.457 43.364C389.765 43.364 389.947 43.392 390.199 43.49L390.437 42.37C390.199 42.244 389.961 42.202 389.625 42.202C388.771 42.202 388.001 42.818 387.469 43.784H387.427L387.315 42.398H386.265V50ZM397.889 50.182C398.925 50.182 399.737 49.832 400.409 49.398L399.947 48.558C399.387 48.936 398.785 49.16 398.043 49.16C396.601 49.16 395.607 48.124 395.523 46.5H400.647C400.675 46.318 400.703 46.052 400.703 45.772C400.703 43.602 399.611 42.202 397.679 42.202C395.915 42.202 394.249 43.742 394.249 46.206C394.249 48.712 395.873 50.182 397.889 50.182ZM395.509 45.576C395.663 44.092 396.615 43.224 397.693 43.224C398.883 43.224 399.583 44.05 399.583 45.576H395.509ZM402.575 50H403.849V44.484C404.619 43.714 405.151 43.322 405.935 43.322C406.943 43.322 407.377 43.924 407.377 45.352V50H408.651V45.184C408.651 43.238 407.923 42.202 406.327 42.202C405.291 42.202 404.507 42.776 403.779 43.49H403.737L403.625 42.398H402.575V50ZM416.253 50.182C418.045 50.182 419.025 49.16 419.025 47.928C419.025 46.486 417.807 46.038 416.701 45.618C415.847 45.296 415.063 45.03 415.063 44.302C415.063 43.714 415.511 43.21 416.477 43.21C417.149 43.21 417.681 43.49 418.199 43.882L418.815 43.056C418.227 42.594 417.401 42.202 416.463 42.202C414.811 42.202 413.831 43.154 413.831 44.358C413.831 45.646 414.993 46.164 416.057 46.556C416.897 46.878 417.793 47.214 417.793 47.998C417.793 48.656 417.303 49.188 416.295 49.188C415.385 49.188 414.699 48.824 414.041 48.292L413.411 49.132C414.139 49.734 415.175 50.182 416.253 50.182ZM423.025 50.182C424.075 50.182 424.831 49.636 425.545 48.81H425.587L425.685 50H426.749V42.398H425.475V47.788C424.747 48.698 424.201 49.076 423.417 49.076C422.409 49.076 421.989 48.474 421.989 47.06V42.398H420.715V47.214C420.715 49.146 421.429 50.182 423.025 50.182ZM434.842 50.182C435.304 50.182 435.808 50.042 436.242 49.902L435.99 48.95C435.738 49.048 435.388 49.146 435.122 49.146C434.24 49.146 433.946 48.614 433.946 47.676V43.434H436.004V42.398H433.946V40.256H432.882L432.728 42.398L431.538 42.468V43.434H432.672V47.648C432.672 49.16 433.218 50.182 434.842 50.182ZM437.726 50H439V45.114C439.504 43.812 440.288 43.364 440.918 43.364C441.226 43.364 441.408 43.392 441.66 43.49L441.898 42.37C441.66 42.244 441.422 42.202 441.086 42.202C440.232 42.202 439.462 42.818 438.93 43.784H438.888L438.776 42.398H437.726V50ZM444.52 50.182C445.458 50.182 446.312 49.692 447.04 49.09H447.082L447.194 50H448.244V45.324C448.244 43.448 447.46 42.202 445.612 42.202C444.394 42.202 443.316 42.748 442.616 43.196L443.12 44.078C443.722 43.672 444.52 43.266 445.402 43.266C446.648 43.266 446.97 44.204 446.97 45.184C443.736 45.548 442.294 46.374 442.294 48.026C442.294 49.398 443.246 50.182 444.52 50.182ZM444.884 49.16C444.128 49.16 443.54 48.81 443.54 47.942C443.54 46.962 444.408 46.332 446.97 46.024V48.152C446.228 48.81 445.626 49.16 444.884 49.16ZM454.019 50.182C455.769 50.182 457.323 48.684 457.323 46.066C457.323 43.742 456.259 42.202 454.285 42.202C453.445 42.202 452.591 42.678 451.905 43.28L451.947 41.908V38.856H450.673V50H451.695L451.807 49.216H451.863C452.521 49.818 453.319 50.182 454.019 50.182ZM453.809 49.118C453.305 49.118 452.619 48.908 451.947 48.32V44.33C452.675 43.644 453.347 43.28 453.991 43.28C455.433 43.28 455.993 44.414 455.993 46.094C455.993 47.984 455.069 49.118 453.809 49.118ZM460.858 50.182C461.796 50.182 462.65 49.692 463.378 49.09H463.42L463.532 50H464.582V45.324C464.582 43.448 463.798 42.202 461.95 42.202C460.732 42.202 459.654 42.748 458.954 43.196L459.458 44.078C460.06 43.672 460.858 43.266 461.74 43.266C462.986 43.266 463.308 44.204 463.308 45.184C460.074 45.548 458.632 46.374 458.632 48.026C458.632 49.398 459.584 50.182 460.858 50.182ZM461.222 49.16C460.466 49.16 459.878 48.81 459.878 47.942C459.878 46.962 460.746 46.332 463.308 46.024V48.152C462.566 48.81 461.964 49.16 461.222 49.16ZM466.227 53.402C467.725 53.402 468.299 52.422 468.299 50.868V42.398H467.025V50.868C467.025 51.792 466.843 52.366 466.087 52.366C465.807 52.366 465.555 52.296 465.359 52.226L465.107 53.206C465.373 53.304 465.765 53.402 466.227 53.402ZM467.655 40.83C468.145 40.83 468.495 40.494 468.495 39.976C468.495 39.486 468.145 39.15 467.655 39.15C467.151 39.15 466.801 39.486 466.801 39.976C466.801 40.494 467.151 40.83 467.655 40.83ZM473.834 50.182C475.696 50.182 477.362 48.726 477.362 46.206C477.362 43.672 475.696 42.202 473.834 42.202C471.972 42.202 470.306 43.672 470.306 46.206C470.306 48.726 471.972 50.182 473.834 50.182ZM473.834 49.118C472.518 49.118 471.636 47.956 471.636 46.206C471.636 44.456 472.518 43.266 473.834 43.266C475.15 43.266 476.046 44.456 476.046 46.206C476.046 47.956 475.15 49.118 473.834 49.118ZM478.982 52.66C480.242 52.128 481.026 51.078 481.026 49.734C481.026 48.796 480.62 48.222 479.948 48.222C479.43 48.222 478.982 48.572 478.982 49.118C478.982 49.706 479.43 50.014 479.92 50.014C479.976 50.014 480.018 50.014 480.074 50C480.074 50.826 479.556 51.512 478.674 51.904L478.982 52.66ZM489.313 50.182C490.349 50.182 491.161 49.832 491.833 49.398L491.371 48.558C490.811 48.936 490.209 49.16 489.467 49.16C488.025 49.16 487.031 48.124 486.947 46.5H492.071C492.099 46.318 492.127 46.052 492.127 45.772C492.127 43.602 491.035 42.202 489.103 42.202C487.339 42.202 485.673 43.742 485.673 46.206C485.673 48.712 487.297 50.182 489.313 50.182ZM486.933 45.576C487.087 44.092 488.039 43.224 489.117 43.224C490.307 43.224 491.007 44.05 491.007 45.576H486.933ZM495.343 50.182C495.693 50.182 495.903 50.14 496.085 50.07L495.903 49.09C495.763 49.118 495.707 49.118 495.637 49.118C495.441 49.118 495.273 48.964 495.273 48.572V38.856H493.999V48.488C493.999 49.566 494.391 50.182 495.343 50.182ZM499.335 50.182C499.685 50.182 499.895 50.14 500.077 50.07L499.895 49.09C499.755 49.118 499.699 49.118 499.629 49.118C499.433 49.118 499.265 48.964 499.265 48.572V38.856H497.991V48.488C497.991 49.566 498.383 50.182 499.335 50.182ZM504.937 50.182C506.799 50.182 508.465 48.726 508.465 46.206C508.465 43.672 506.799 42.202 504.937 42.202C503.075 42.202 501.409 43.672 501.409 46.206C501.409 48.726 503.075 50.182 504.937 50.182ZM504.937 49.118C503.621 49.118 502.739 47.956 502.739 46.206C502.739 44.456 503.621 43.266 504.937 43.266C506.253 43.266 507.149 44.456 507.149 46.206C507.149 47.956 506.253 49.118 504.937 49.118ZM512.462 50.182C514.254 50.182 515.234 49.16 515.234 47.928C515.234 46.486 514.016 46.038 512.91 45.618C512.056 45.296 511.272 45.03 511.272 44.302C511.272 43.714 511.72 43.21 512.686 43.21C513.358 43.21 513.89 43.49 514.408 43.882L515.024 43.056C514.436 42.594 513.61 42.202 512.672 42.202C511.02 42.202 510.04 43.154 510.04 44.358C510.04 45.646 511.202 46.164 512.266 46.556C513.106 46.878 514.002 47.214 514.002 47.998C514.002 48.656 513.512 49.188 512.504 49.188C511.594 49.188 510.908 48.824 510.25 48.292L509.62 49.132C510.348 49.734 511.384 50.182 512.462 50.182ZM67.8739 70H69.1479V65.114C69.6519 63.812 70.4359 63.364 71.0659 63.364C71.3739 63.364 71.5559 63.392 71.8079 63.49L72.0459 62.37C71.8079 62.244 71.5699 62.202 71.2339 62.202C70.3799 62.202 69.6099 62.818 69.0779 63.784H69.0359L68.9239 62.398H67.8739V70ZM76.2173 70.182C77.2533 70.182 78.0653 69.832 78.7373 69.398L78.2753 68.558C77.7153 68.936 77.1133 69.16 76.3713 69.16C74.9293 69.16 73.9353 68.124 73.8513 66.5H78.9753C79.0033 66.318 79.0313 66.052 79.0313 65.772C79.0313 63.602 77.9393 62.202 76.0073 62.202C74.2433 62.202 72.5773 63.742 72.5773 66.206C72.5773 68.712 74.2013 70.182 76.2173 70.182ZM73.8373 65.576C73.9913 64.092 74.9433 63.224 76.0213 63.224C77.2113 63.224 77.9113 64.05 77.9113 65.576H73.8373ZM85.7332 73.206H86.9932V62.398H85.9852L85.8592 63.126H85.8172C85.1592 62.524 84.5292 62.202 83.6472 62.202C81.9112 62.202 80.3572 63.742 80.3572 66.206C80.3572 68.74 81.5892 70.182 83.4932 70.182C84.3752 70.182 85.1732 69.72 85.7892 69.118L85.7332 70.504V73.206ZM83.7732 69.118C82.4292 69.118 81.6732 68.026 81.6732 66.192C81.6732 64.456 82.6392 63.28 83.8712 63.28C84.5012 63.28 85.0752 63.504 85.7332 64.078V68.068C85.0892 68.768 84.4732 69.118 83.7732 69.118ZM91.7969 70.182C92.8469 70.182 93.6029 69.636 94.3169 68.81H94.3589L94.4569 70H95.5209V62.398H94.2469V67.788C93.5189 68.698 92.9729 69.076 92.1889 69.076C91.1809 69.076 90.7609 68.474 90.7609 67.06V62.398H89.4869V67.214C89.4869 69.146 90.2009 70.182 91.7969 70.182ZM98.0888 70H99.3628V62.398H98.0888V70ZM98.7328 60.83C99.2368 60.83 99.5868 60.494 99.5868 59.976C99.5868 59.486 99.2368 59.15 98.7328 59.15C98.2288 59.15 97.8788 59.486 97.8788 59.976C97.8788 60.494 98.2288 60.83 98.7328 60.83ZM105.01 70.182C106.046 70.182 106.858 69.832 107.53 69.398L107.068 68.558C106.508 68.936 105.906 69.16 105.164 69.16C103.722 69.16 102.728 68.124 102.644 66.5H107.768C107.796 66.318 107.824 66.052 107.824 65.772C107.824 63.602 106.732 62.202 104.8 62.202C103.036 62.202 101.37 63.742 101.37 66.206C101.37 68.712 102.994 70.182 105.01 70.182ZM102.63 65.576C102.784 64.092 103.736 63.224 104.814 63.224C106.004 63.224 106.704 64.05 106.704 65.576H102.63ZM109.696 70H110.97V65.114C111.474 63.812 112.258 63.364 112.888 63.364C113.196 63.364 113.378 63.392 113.63 63.49L113.868 62.37C113.63 62.244 113.392 62.202 113.056 62.202C112.202 62.202 111.432 62.818 110.9 63.784H110.858L110.746 62.398H109.696V70ZM118.04 70.182C119.076 70.182 119.888 69.832 120.56 69.398L120.098 68.558C119.538 68.936 118.936 69.16 118.194 69.16C116.752 69.16 115.758 68.124 115.674 66.5H120.798C120.826 66.318 120.854 66.052 120.854 65.772C120.854 63.602 119.762 62.202 117.83 62.202C116.066 62.202 114.4 63.742 114.4 66.206C114.4 68.712 116.024 70.182 118.04 70.182ZM115.66 65.576C115.814 64.092 116.766 63.224 117.844 63.224C119.034 63.224 119.734 64.05 119.734 65.576H115.66ZM122.726 70H124V64.484C124.77 63.714 125.302 63.322 126.086 63.322C127.094 63.322 127.528 63.924 127.528 65.352V70H128.802V65.184C128.802 63.238 128.074 62.202 126.478 62.202C125.442 62.202 124.658 62.776 123.93 63.49H123.888L123.776 62.398H122.726V70ZM137.005 70.182C137.915 70.182 138.713 69.692 139.315 69.104H139.357L139.469 70H140.505V58.856H139.245V61.782L139.301 63.098C138.629 62.538 138.055 62.202 137.159 62.202C135.423 62.202 133.869 63.742 133.869 66.206C133.869 68.74 135.101 70.182 137.005 70.182ZM137.285 69.118C135.941 69.118 135.185 68.026 135.185 66.192C135.185 64.456 136.151 63.28 137.383 63.28C138.013 63.28 138.587 63.504 139.245 64.078V68.068C138.601 68.768 137.985 69.118 137.285 69.118ZM146.163 70.182C147.199 70.182 148.011 69.832 148.683 69.398L148.221 68.558C147.661 68.936 147.059 69.16 146.317 69.16C144.875 69.16 143.881 68.124 143.797 66.5H148.921C148.949 66.318 148.977 66.052 148.977 65.772C148.977 63.602 147.885 62.202 145.953 62.202C144.189 62.202 142.523 63.742 142.523 66.206C142.523 68.712 144.147 70.182 146.163 70.182ZM143.783 65.576C143.937 64.092 144.889 63.224 145.967 63.224C147.157 63.224 147.857 64.05 147.857 65.576H143.783ZM156.191 70.182C157.241 70.182 157.997 69.636 158.711 68.81H158.753L158.851 70H159.915V62.398H158.641V67.788C157.913 68.698 157.367 69.076 156.583 69.076C155.575 69.076 155.155 68.474 155.155 67.06V62.398H153.881V67.214C153.881 69.146 154.595 70.182 156.191 70.182ZM162.483 70H163.757V64.484C164.527 63.714 165.059 63.322 165.843 63.322C166.851 63.322 167.285 63.924 167.285 65.352V70H168.559V65.184C168.559 63.238 167.831 62.202 166.235 62.202C165.199 62.202 164.415 62.776 163.687 63.49H163.645L163.533 62.398H162.483V70ZM172.792 70.182C173.73 70.182 174.584 69.692 175.312 69.09H175.354L175.466 70H176.516V65.324C176.516 63.448 175.732 62.202 173.884 62.202C172.666 62.202 171.588 62.748 170.888 63.196L171.392 64.078C171.994 63.672 172.792 63.266 173.674 63.266C174.92 63.266 175.242 64.204 175.242 65.184C172.008 65.548 170.566 66.374 170.566 68.026C170.566 69.398 171.518 70.182 172.792 70.182ZM173.156 69.16C172.4 69.16 171.812 68.81 171.812 67.942C171.812 66.962 172.68 66.332 175.242 66.024V68.152C174.5 68.81 173.898 69.16 173.156 69.16ZM182.075 70H183.349V64.484C184.119 63.714 184.651 63.322 185.435 63.322C186.443 63.322 186.877 63.924 186.877 65.352V70H188.151V65.184C188.151 63.238 187.423 62.202 185.827 62.202C184.791 62.202 184.007 62.776 183.307 63.476L183.349 61.908V58.856H182.075V70ZM193.645 70.182C194.681 70.182 195.493 69.832 196.165 69.398L195.703 68.558C195.143 68.936 194.541 69.16 193.799 69.16C192.357 69.16 191.363 68.124 191.279 66.5H196.403C196.431 66.318 196.459 66.052 196.459 65.772C196.459 63.602 195.367 62.202 193.435 62.202C191.671 62.202 190.005 63.742 190.005 66.206C190.005 68.712 191.629 70.182 193.645 70.182ZM191.265 65.576C191.419 64.092 192.371 63.224 193.449 63.224C194.639 63.224 195.339 64.05 195.339 65.576H191.265ZM198.331 70H199.605V65.114C200.109 63.812 200.893 63.364 201.523 63.364C201.831 63.364 202.013 63.392 202.265 63.49L202.503 62.37C202.265 62.244 202.027 62.202 201.691 62.202C200.837 62.202 200.067 62.818 199.535 63.784H199.493L199.381 62.398H198.331V70ZM203.759 70H205.033V65.114C205.537 63.812 206.321 63.364 206.951 63.364C207.259 63.364 207.441 63.392 207.693 63.49L207.931 62.37C207.693 62.244 207.455 62.202 207.119 62.202C206.265 62.202 205.495 62.818 204.963 63.784H204.921L204.809 62.398H203.759V70ZM210.554 70.182C211.492 70.182 212.346 69.692 213.074 69.09H213.116L213.228 70H214.278V65.324C214.278 63.448 213.494 62.202 211.646 62.202C210.428 62.202 209.35 62.748 208.65 63.196L209.154 64.078C209.756 63.672 210.554 63.266 211.436 63.266C212.682 63.266 213.004 64.204 213.004 65.184C209.77 65.548 208.328 66.374 208.328 68.026C208.328 69.398 209.28 70.182 210.554 70.182ZM210.918 69.16C210.162 69.16 209.574 68.81 209.574 67.942C209.574 66.962 210.442 66.332 213.004 66.024V68.152C212.262 68.81 211.66 69.16 210.918 69.16ZM216.706 70H217.98V64.484C218.68 63.7 219.324 63.322 219.898 63.322C220.864 63.322 221.312 63.924 221.312 65.352V70H222.586V64.484C223.3 63.7 223.916 63.322 224.504 63.322C225.47 63.322 225.918 63.924 225.918 65.352V70H227.192V65.184C227.192 63.238 226.45 62.202 224.882 62.202C223.958 62.202 223.16 62.804 222.376 63.658C222.068 62.762 221.438 62.202 220.276 62.202C219.366 62.202 218.568 62.776 217.91 63.504H217.868L217.756 62.398H216.706V70ZM229.667 70H230.941V62.398H229.667V70ZM230.311 60.83C230.815 60.83 231.165 60.494 231.165 59.976C231.165 59.486 230.815 59.15 230.311 59.15C229.807 59.15 229.457 59.486 229.457 59.976C229.457 60.494 229.807 60.83 230.311 60.83ZM236.588 70.182C237.624 70.182 238.436 69.832 239.108 69.398L238.646 68.558C238.086 68.936 237.484 69.16 236.742 69.16C235.3 69.16 234.306 68.124 234.222 66.5H239.346C239.374 66.318 239.402 66.052 239.402 65.772C239.402 63.602 238.31 62.202 236.378 62.202C234.614 62.202 232.948 63.742 232.948 66.206C232.948 68.712 234.572 70.182 236.588 70.182ZM234.208 65.576C234.362 64.092 235.314 63.224 236.392 63.224C237.582 63.224 238.282 64.05 238.282 65.576H234.208ZM241.274 70H242.548V64.484C243.318 63.714 243.85 63.322 244.634 63.322C245.642 63.322 246.076 63.924 246.076 65.352V70H247.35V65.184C247.35 63.238 246.622 62.202 245.026 62.202C243.99 62.202 243.206 62.776 242.478 63.49H242.436L242.324 62.398H241.274V70ZM252.227 70.182C252.689 70.182 253.193 70.042 253.627 69.902L253.375 68.95C253.123 69.048 252.773 69.146 252.507 69.146C251.625 69.146 251.331 68.614 251.331 67.676V63.434H253.389V62.398H251.331V60.256H250.267L250.113 62.398L248.923 62.468V63.434H250.057V67.648C250.057 69.16 250.603 70.182 252.227 70.182ZM256.518 70.182C257.456 70.182 258.31 69.692 259.038 69.09H259.08L259.192 70H260.242V65.324C260.242 63.448 259.458 62.202 257.61 62.202C256.392 62.202 255.314 62.748 254.614 63.196L255.118 64.078C255.72 63.672 256.518 63.266 257.4 63.266C258.646 63.266 258.968 64.204 258.968 65.184C255.734 65.548 254.292 66.374 254.292 68.026C254.292 69.398 255.244 70.182 256.518 70.182ZM256.882 69.16C256.126 69.16 255.538 68.81 255.538 67.942C255.538 66.962 256.406 66.332 258.968 66.024V68.152C258.226 68.81 257.624 69.16 256.882 69.16ZM267.86 72.758L268.658 72.38C267.44 70.392 266.866 68.026 266.866 65.646C266.866 63.266 267.44 60.914 268.658 58.912L267.86 58.548C266.572 60.634 265.802 62.902 265.802 65.646C265.802 68.404 266.572 70.658 267.86 72.758ZM272.282 70.182C273.22 70.182 274.074 69.692 274.802 69.09H274.844L274.956 70H276.006V65.324C276.006 63.448 275.222 62.202 273.374 62.202C272.156 62.202 271.078 62.748 270.378 63.196L270.882 64.078C271.484 63.672 272.282 63.266 273.164 63.266C274.41 63.266 274.732 64.204 274.732 65.184C271.498 65.548 270.056 66.374 270.056 68.026C270.056 69.398 271.008 70.182 272.282 70.182ZM272.646 69.16C271.89 69.16 271.302 68.81 271.302 67.942C271.302 66.962 272.17 66.332 274.732 66.024V68.152C273.99 68.81 273.388 69.16 272.646 69.16ZM278.434 73.206H279.708V70.63L279.68 69.3C280.366 69.86 281.094 70.182 281.78 70.182C283.53 70.182 285.084 68.684 285.084 66.08C285.084 63.742 284.02 62.202 282.06 62.202C281.178 62.202 280.324 62.706 279.638 63.266H279.596L279.484 62.398H278.434V73.206ZM281.57 69.118C281.066 69.118 280.394 68.908 279.708 68.32V64.33C280.45 63.644 281.108 63.28 281.752 63.28C283.194 63.28 283.754 64.414 283.754 66.094C283.754 67.984 282.83 69.118 281.57 69.118ZM287.116 73.206H288.39V70.63L288.362 69.3C289.048 69.86 289.776 70.182 290.462 70.182C292.212 70.182 293.766 68.684 293.766 66.08C293.766 63.742 292.702 62.202 290.742 62.202C289.86 62.202 289.006 62.706 288.32 63.266H288.278L288.166 62.398H287.116V73.206ZM290.252 69.118C289.748 69.118 289.076 68.908 288.39 68.32V64.33C289.132 63.644 289.79 63.28 290.434 63.28C291.876 63.28 292.436 64.414 292.436 66.094C292.436 67.984 291.512 69.118 290.252 69.118ZM295.249 66.57H298.833V65.59H295.249V66.57ZM302.731 70.182C303.193 70.182 303.697 70.042 304.131 69.902L303.879 68.95C303.627 69.048 303.277 69.146 303.011 69.146C302.129 69.146 301.835 68.614 301.835 67.676V63.434H303.893V62.398H301.835V60.256H300.771L300.617 62.398L299.427 62.468V63.434H300.561V67.648C300.561 69.16 301.107 70.182 302.731 70.182ZM307.022 70.182C307.96 70.182 308.814 69.692 309.542 69.09H309.584L309.696 70H310.746V65.324C310.746 63.448 309.962 62.202 308.114 62.202C306.896 62.202 305.818 62.748 305.118 63.196L305.622 64.078C306.224 63.672 307.022 63.266 307.904 63.266C309.15 63.266 309.472 64.204 309.472 65.184C306.238 65.548 304.796 66.374 304.796 68.026C304.796 69.398 305.748 70.182 307.022 70.182ZM307.386 69.16C306.63 69.16 306.042 68.81 306.042 67.942C306.042 66.962 306.91 66.332 309.472 66.024V68.152C308.73 68.81 308.128 69.16 307.386 69.16ZM316.521 70.182C318.271 70.182 319.825 68.684 319.825 66.066C319.825 63.742 318.761 62.202 316.787 62.202C315.947 62.202 315.093 62.678 314.407 63.28L314.449 61.908V58.856H313.175V70H314.197L314.309 69.216H314.365C315.023 69.818 315.821 70.182 316.521 70.182ZM316.311 69.118C315.807 69.118 315.121 68.908 314.449 68.32V64.33C315.177 63.644 315.849 63.28 316.493 63.28C317.935 63.28 318.495 64.414 318.495 66.094C318.495 67.984 317.571 69.118 316.311 69.118ZM323.173 70.182C323.523 70.182 323.733 70.14 323.915 70.07L323.733 69.09C323.593 69.118 323.537 69.118 323.467 69.118C323.271 69.118 323.103 68.964 323.103 68.572V58.856H321.829V68.488C321.829 69.566 322.221 70.182 323.173 70.182ZM328.887 70.182C329.923 70.182 330.735 69.832 331.407 69.398L330.945 68.558C330.385 68.936 329.783 69.16 329.041 69.16C327.599 69.16 326.605 68.124 326.521 66.5H331.645C331.673 66.318 331.701 66.052 331.701 65.772C331.701 63.602 330.609 62.202 328.677 62.202C326.913 62.202 325.247 63.742 325.247 66.206C325.247 68.712 326.871 70.182 328.887 70.182ZM326.507 65.576C326.661 64.092 327.613 63.224 328.691 63.224C329.881 63.224 330.581 64.05 330.581 65.576H326.507ZM335.817 70.182C336.279 70.182 336.783 70.042 337.217 69.902L336.965 68.95C336.713 69.048 336.363 69.146 336.097 69.146C335.215 69.146 334.921 68.614 334.921 67.676V63.434H336.979V62.398H334.921V60.256H333.857L333.703 62.398L332.513 62.468V63.434H333.647V67.648C333.647 69.16 334.193 70.182 335.817 70.182ZM338.798 72.758C340.1 70.658 340.87 68.404 340.87 65.646C340.87 62.902 340.1 60.634 338.798 58.548L338.014 58.912C339.218 60.914 339.806 63.266 339.806 65.646C339.806 68.026 339.218 70.392 338.014 72.38L338.798 72.758ZM351.391 73.206H352.651V62.398H351.643L351.517 63.126H351.475C350.817 62.524 350.187 62.202 349.305 62.202C347.569 62.202 346.015 63.742 346.015 66.206C346.015 68.74 347.247 70.182 349.151 70.182C350.033 70.182 350.831 69.72 351.447 69.118L351.391 70.504V73.206ZM349.431 69.118C348.087 69.118 347.331 68.026 347.331 66.192C347.331 64.456 348.297 63.28 349.529 63.28C350.159 63.28 350.733 63.504 351.391 64.078V68.068C350.747 68.768 350.131 69.118 349.431 69.118ZM357.455 70.182C358.505 70.182 359.261 69.636 359.975 68.81H360.017L360.115 70H361.179V62.398H359.905V67.788C359.177 68.698 358.631 69.076 357.847 69.076C356.839 69.076 356.419 68.474 356.419 67.06V62.398H355.145V67.214C355.145 69.146 355.859 70.182 357.455 70.182ZM366.813 70.182C367.849 70.182 368.661 69.832 369.333 69.398L368.871 68.558C368.311 68.936 367.709 69.16 366.967 69.16C365.525 69.16 364.531 68.124 364.447 66.5H369.571C369.599 66.318 369.627 66.052 369.627 65.772C369.627 63.602 368.535 62.202 366.603 62.202C364.839 62.202 363.173 63.742 363.173 66.206C363.173 68.712 364.797 70.182 366.813 70.182ZM364.433 65.576C364.587 64.092 365.539 63.224 366.617 63.224C367.807 63.224 368.507 64.05 368.507 65.576H364.433ZM376.38 70.182C377.318 70.182 378.172 69.692 378.9 69.09H378.942L379.054 70H380.104V65.324C380.104 63.448 379.32 62.202 377.472 62.202C376.254 62.202 375.176 62.748 374.476 63.196L374.98 64.078C375.582 63.672 376.38 63.266 377.262 63.266C378.508 63.266 378.83 64.204 378.83 65.184C375.596 65.548 374.154 66.374 374.154 68.026C374.154 69.398 375.106 70.182 376.38 70.182ZM376.744 69.16C375.988 69.16 375.4 68.81 375.4 67.942C375.4 66.962 376.268 66.332 378.83 66.024V68.152C378.088 68.81 377.486 69.16 376.744 69.16ZM385.094 73.5C387.446 73.5 388.944 72.282 388.944 70.868C388.944 69.622 388.048 69.062 386.284 69.062H384.8C383.778 69.062 383.47 68.726 383.47 68.236C383.47 67.816 383.68 67.564 383.96 67.326C384.296 67.494 384.716 67.592 385.094 67.592C386.634 67.592 387.866 66.57 387.866 64.946C387.866 64.288 387.614 63.728 387.25 63.378H388.804V62.398H386.158C385.892 62.3 385.514 62.202 385.094 62.202C383.554 62.202 382.238 63.252 382.238 64.918C382.238 65.828 382.728 66.556 383.232 66.962V67.018C382.84 67.298 382.378 67.802 382.378 68.432C382.378 69.034 382.672 69.44 383.078 69.678V69.734C382.364 70.196 381.958 70.812 381.958 71.456C381.958 72.772 383.232 73.5 385.094 73.5ZM385.094 66.724C384.212 66.724 383.47 66.024 383.47 64.918C383.47 63.798 384.198 63.14 385.094 63.14C385.99 63.14 386.718 63.812 386.718 64.918C386.718 66.024 385.962 66.724 385.094 66.724ZM385.276 72.632C383.904 72.632 383.078 72.1 383.078 71.288C383.078 70.84 383.302 70.392 383.848 70C384.184 70.084 384.548 70.126 384.828 70.126H386.144C387.152 70.126 387.698 70.364 387.698 71.064C387.698 71.862 386.732 72.632 385.276 72.632ZM390.421 70H391.695V62.398H390.421V70ZM391.065 60.83C391.569 60.83 391.919 60.494 391.919 59.976C391.919 59.486 391.569 59.15 391.065 59.15C390.561 59.15 390.211 59.486 390.211 59.976C390.211 60.494 390.561 60.83 391.065 60.83ZM395.62 70.182C395.97 70.182 396.18 70.14 396.362 70.07L396.18 69.09C396.04 69.118 395.984 69.118 395.914 69.118C395.718 69.118 395.55 68.964 395.55 68.572V58.856H394.276V68.488C394.276 69.566 394.668 70.182 395.62 70.182ZM398.268 70H399.542V62.398H398.268V70ZM398.912 60.83C399.416 60.83 399.766 60.494 399.766 59.976C399.766 59.486 399.416 59.15 398.912 59.15C398.408 59.15 398.058 59.486 398.058 59.976C398.058 60.494 398.408 60.83 398.912 60.83ZM405.12 70.182C406.03 70.182 406.898 69.832 407.584 69.216L407.024 68.362C406.548 68.796 405.932 69.118 405.232 69.118C403.832 69.118 402.88 67.956 402.88 66.206C402.88 64.456 403.888 63.266 405.274 63.266C405.876 63.266 406.338 63.546 406.786 63.938L407.444 63.098C406.898 62.622 406.212 62.202 405.218 62.202C403.272 62.202 401.55 63.672 401.55 66.206C401.55 68.726 403.104 70.182 405.12 70.182ZM411.971 70.182C413.007 70.182 413.819 69.832 414.491 69.398L414.029 68.558C413.469 68.936 412.867 69.16 412.125 69.16C410.683 69.16 409.689 68.124 409.605 66.5H414.729C414.757 66.318 414.785 66.052 414.785 65.772C414.785 63.602 413.693 62.202 411.761 62.202C409.997 62.202 408.331 63.742 408.331 66.206C408.331 68.712 409.955 70.182 411.971 70.182ZM409.591 65.576C409.745 64.092 410.697 63.224 411.775 63.224C412.965 63.224 413.665 64.05 413.665 65.576H409.591ZM421.776 70.182C423.568 70.182 424.548 69.16 424.548 67.928C424.548 66.486 423.33 66.038 422.224 65.618C421.37 65.296 420.586 65.03 420.586 64.302C420.586 63.714 421.034 63.21 422 63.21C422.672 63.21 423.204 63.49 423.722 63.882L424.338 63.056C423.75 62.594 422.924 62.202 421.986 62.202C420.334 62.202 419.354 63.154 419.354 64.358C419.354 65.646 420.516 66.164 421.58 66.556C422.42 66.878 423.316 67.214 423.316 67.998C423.316 68.656 422.826 69.188 421.818 69.188C420.908 69.188 420.222 68.824 419.564 68.292L418.934 69.132C419.662 69.734 420.698 70.182 421.776 70.182ZM428.549 70.182C429.599 70.182 430.355 69.636 431.069 68.81H431.111L431.209 70H432.273V62.398H430.999V67.788C430.271 68.698 429.725 69.076 428.941 69.076C427.933 69.076 427.513 68.474 427.513 67.06V62.398H426.239V67.214C426.239 69.146 426.953 70.182 428.549 70.182ZM436.829 70.182C438.621 70.182 439.601 69.16 439.601 67.928C439.601 66.486 438.383 66.038 437.277 65.618C436.423 65.296 435.639 65.03 435.639 64.302C435.639 63.714 436.087 63.21 437.053 63.21C437.725 63.21 438.257 63.49 438.775 63.882L439.391 63.056C438.803 62.594 437.977 62.202 437.039 62.202C435.387 62.202 434.407 63.154 434.407 64.358C434.407 65.646 435.569 66.164 436.633 66.556C437.473 66.878 438.369 67.214 438.369 67.998C438.369 68.656 437.879 69.188 436.871 69.188C435.961 69.188 435.275 68.824 434.617 68.292L433.987 69.132C434.715 69.734 435.751 70.182 436.829 70.182ZM445.864 70.182C446.214 70.182 446.424 70.14 446.606 70.07L446.424 69.09C446.284 69.118 446.228 69.118 446.158 69.118C445.962 69.118 445.794 68.964 445.794 68.572V58.856H444.52V68.488C444.52 69.566 444.912 70.182 445.864 70.182ZM450.263 70.182C451.201 70.182 452.055 69.692 452.783 69.09H452.825L452.937 70H453.987V65.324C453.987 63.448 453.203 62.202 451.355 62.202C450.137 62.202 449.059 62.748 448.359 63.196L448.863 64.078C449.465 63.672 450.263 63.266 451.145 63.266C452.391 63.266 452.713 64.204 452.713 65.184C449.479 65.548 448.037 66.374 448.037 68.026C448.037 69.398 448.989 70.182 450.263 70.182ZM450.627 69.16C449.871 69.16 449.283 68.81 449.283 67.942C449.283 66.962 450.151 66.332 452.713 66.024V68.152C451.971 68.81 451.369 69.16 450.627 69.16ZM459.761 70.182C461.511 70.182 463.065 68.684 463.065 66.066C463.065 63.742 462.001 62.202 460.027 62.202C459.187 62.202 458.333 62.678 457.647 63.28L457.689 61.908V58.856H456.415V70H457.437L457.549 69.216H457.605C458.263 69.818 459.061 70.182 459.761 70.182ZM459.551 69.118C459.047 69.118 458.361 68.908 457.689 68.32V64.33C458.417 63.644 459.089 63.28 459.733 63.28C461.175 63.28 461.735 64.414 461.735 66.094C461.735 67.984 460.811 69.118 459.551 69.118ZM468.023 70.182C469.885 70.182 471.551 68.726 471.551 66.206C471.551 63.672 469.885 62.202 468.023 62.202C466.161 62.202 464.495 63.672 464.495 66.206C464.495 68.726 466.161 70.182 468.023 70.182ZM468.023 69.118C466.707 69.118 465.825 67.956 465.825 66.206C465.825 64.456 466.707 63.266 468.023 63.266C469.339 63.266 470.235 64.456 470.235 66.206C470.235 67.956 469.339 69.118 468.023 69.118ZM473.559 70H474.833V65.114C475.337 63.812 476.121 63.364 476.751 63.364C477.059 63.364 477.241 63.392 477.493 63.49L477.731 62.37C477.493 62.244 477.255 62.202 476.919 62.202C476.065 62.202 475.295 62.818 474.763 63.784H474.721L474.609 62.398H473.559V70ZM481.903 70.182C482.939 70.182 483.751 69.832 484.423 69.398L483.961 68.558C483.401 68.936 482.799 69.16 482.057 69.16C480.615 69.16 479.621 68.124 479.537 66.5H484.661C484.689 66.318 484.717 66.052 484.717 65.772C484.717 63.602 483.625 62.202 481.693 62.202C479.929 62.202 478.263 63.742 478.263 66.206C478.263 68.712 479.887 70.182 481.903 70.182ZM479.523 65.576C479.677 64.092 480.629 63.224 481.707 63.224C482.897 63.224 483.597 64.05 483.597 65.576H479.523ZM488.577 70.182C490.369 70.182 491.349 69.16 491.349 67.928C491.349 66.486 490.131 66.038 489.025 65.618C488.171 65.296 487.387 65.03 487.387 64.302C487.387 63.714 487.835 63.21 488.801 63.21C489.473 63.21 490.005 63.49 490.523 63.882L491.139 63.056C490.551 62.594 489.725 62.202 488.787 62.202C487.135 62.202 486.155 63.154 486.155 64.358C486.155 65.646 487.317 66.164 488.381 66.556C489.221 66.878 490.117 67.214 490.117 67.998C490.117 68.656 489.627 69.188 488.619 69.188C487.709 69.188 487.023 68.824 486.365 68.292L485.735 69.132C486.463 69.734 487.499 70.182 488.577 70.182ZM498.858 70.182C499.768 70.182 500.566 69.692 501.168 69.104H501.21L501.322 70H502.358V58.856H501.098V61.782L501.154 63.098C500.482 62.538 499.908 62.202 499.012 62.202C497.276 62.202 495.722 63.742 495.722 66.206C495.722 68.74 496.954 70.182 498.858 70.182ZM499.138 69.118C497.794 69.118 497.038 68.026 497.038 66.192C497.038 64.456 498.004 63.28 499.236 63.28C499.866 63.28 500.44 63.504 501.098 64.078V68.068C500.454 68.768 499.838 69.118 499.138 69.118ZM508.016 70.182C509.052 70.182 509.864 69.832 510.536 69.398L510.074 68.558C509.514 68.936 508.912 69.16 508.17 69.16C506.728 69.16 505.734 68.124 505.65 66.5H510.774C510.802 66.318 510.83 66.052 510.83 65.772C510.83 63.602 509.738 62.202 507.806 62.202C506.042 62.202 504.376 63.742 504.376 66.206C504.376 68.712 506 70.182 508.016 70.182ZM505.636 65.576C505.79 64.092 506.742 63.224 507.82 63.224C509.01 63.224 509.71 64.05 509.71 65.576H505.636ZM117.209 90H118.483V85.114C118.987 83.812 119.771 83.364 120.401 83.364C120.709 83.364 120.891 83.392 121.143 83.49L121.381 82.37C121.143 82.244 120.905 82.202 120.569 82.202C119.715 82.202 118.945 82.818 118.413 83.784H118.371L118.259 82.398H117.209V90ZM125.552 90.182C126.588 90.182 127.4 89.832 128.072 89.398L127.61 88.558C127.05 88.936 126.448 89.16 125.706 89.16C124.264 89.16 123.27 88.124 123.186 86.5H128.31C128.338 86.318 128.366 86.052 128.366 85.772C128.366 83.602 127.274 82.202 125.342 82.202C123.578 82.202 121.912 83.742 121.912 86.206C121.912 88.712 123.536 90.182 125.552 90.182ZM123.172 85.576C123.326 84.092 124.278 83.224 125.356 83.224C126.546 83.224 127.246 84.05 127.246 85.576H123.172ZM132.65 93.5C135.002 93.5 136.5 92.282 136.5 90.868C136.5 89.622 135.604 89.062 133.84 89.062H132.356C131.334 89.062 131.026 88.726 131.026 88.236C131.026 87.816 131.236 87.564 131.516 87.326C131.852 87.494 132.272 87.592 132.65 87.592C134.19 87.592 135.422 86.57 135.422 84.946C135.422 84.288 135.17 83.728 134.806 83.378H136.36V82.398H133.714C133.448 82.3 133.07 82.202 132.65 82.202C131.11 82.202 129.794 83.252 129.794 84.918C129.794 85.828 130.284 86.556 130.788 86.962V87.018C130.396 87.298 129.934 87.802 129.934 88.432C129.934 89.034 130.228 89.44 130.634 89.678V89.734C129.92 90.196 129.514 90.812 129.514 91.456C129.514 92.772 130.788 93.5 132.65 93.5ZM132.65 86.724C131.768 86.724 131.026 86.024 131.026 84.918C131.026 83.798 131.754 83.14 132.65 83.14C133.546 83.14 134.274 83.812 134.274 84.918C134.274 86.024 133.518 86.724 132.65 86.724ZM132.832 92.632C131.46 92.632 130.634 92.1 130.634 91.288C130.634 90.84 130.858 90.392 131.404 90C131.74 90.084 132.104 90.126 132.384 90.126H133.7C134.708 90.126 135.254 90.364 135.254 91.064C135.254 91.862 134.288 92.632 132.832 92.632ZM137.976 90H139.25V82.398H137.976V90ZM138.62 80.83C139.124 80.83 139.474 80.494 139.474 79.976C139.474 79.486 139.124 79.15 138.62 79.15C138.116 79.15 137.766 79.486 137.766 79.976C137.766 80.494 138.116 80.83 138.62 80.83ZM143.82 90.182C145.612 90.182 146.592 89.16 146.592 87.928C146.592 86.486 145.374 86.038 144.268 85.618C143.414 85.296 142.63 85.03 142.63 84.302C142.63 83.714 143.078 83.21 144.044 83.21C144.716 83.21 145.248 83.49 145.766 83.882L146.382 83.056C145.794 82.594 144.968 82.202 144.03 82.202C142.378 82.202 141.398 83.154 141.398 84.358C141.398 85.646 142.56 86.164 143.624 86.556C144.464 86.878 145.36 87.214 145.36 87.998C145.36 88.656 144.87 89.188 143.862 89.188C142.952 89.188 142.266 88.824 141.608 88.292L140.978 89.132C141.706 89.734 142.742 90.182 143.82 90.182ZM150.46 90.182C150.922 90.182 151.426 90.042 151.86 89.902L151.608 88.95C151.356 89.048 151.006 89.146 150.74 89.146C149.858 89.146 149.564 88.614 149.564 87.676V83.434H151.622V82.398H149.564V80.256H148.5L148.346 82.398L147.156 82.468V83.434H148.29V87.648C148.29 89.16 148.836 90.182 150.46 90.182ZM153.344 90H154.618V85.114C155.122 83.812 155.906 83.364 156.536 83.364C156.844 83.364 157.026 83.392 157.278 83.49L157.516 82.37C157.278 82.244 157.04 82.202 156.704 82.202C155.85 82.202 155.08 82.818 154.548 83.784H154.506L154.394 82.398H153.344V90ZM161.575 90.182C163.437 90.182 165.103 88.726 165.103 86.206C165.103 83.672 163.437 82.202 161.575 82.202C159.713 82.202 158.047 83.672 158.047 86.206C158.047 88.726 159.713 90.182 161.575 90.182ZM161.575 89.118C160.259 89.118 159.377 87.956 159.377 86.206C159.377 84.456 160.259 83.266 161.575 83.266C162.891 83.266 163.787 84.456 163.787 86.206C163.787 87.956 162.891 89.118 161.575 89.118ZM170.368 93.276C171.88 93.276 172.678 92.128 173.196 90.63L176.066 82.398H174.82L173.462 86.626C173.252 87.298 173.028 88.068 172.818 88.754H172.748C172.51 88.068 172.244 87.284 172.02 86.626L170.466 82.398H169.136L172.188 90.014L172.02 90.588C171.712 91.526 171.166 92.226 170.298 92.226C170.102 92.226 169.878 92.156 169.724 92.1L169.472 93.122C169.71 93.22 170.004 93.276 170.368 93.276ZM185.504 93.206H186.764V82.398H185.756L185.63 83.126H185.588C184.93 82.524 184.3 82.202 183.418 82.202C181.682 82.202 180.128 83.742 180.128 86.206C180.128 88.74 181.36 90.182 183.264 90.182C184.146 90.182 184.944 89.72 185.56 89.118L185.504 90.504V93.206ZM183.544 89.118C182.2 89.118 181.444 88.026 181.444 86.192C181.444 84.456 182.41 83.28 183.642 83.28C184.272 83.28 184.846 83.504 185.504 84.078V88.068C184.86 88.768 184.244 89.118 183.544 89.118ZM191.567 90.182C192.617 90.182 193.373 89.636 194.087 88.81H194.129L194.227 90H195.291V82.398H194.017V87.788C193.289 88.698 192.743 89.076 191.959 89.076C190.951 89.076 190.531 88.474 190.531 87.06V82.398H189.257V87.214C189.257 89.146 189.971 90.182 191.567 90.182ZM200.925 90.182C201.961 90.182 202.773 89.832 203.445 89.398L202.983 88.558C202.423 88.936 201.821 89.16 201.079 89.16C199.637 89.16 198.643 88.124 198.559 86.5H203.683C203.711 86.318 203.739 86.052 203.739 85.772C203.739 83.602 202.647 82.202 200.715 82.202C198.951 82.202 197.285 83.742 197.285 86.206C197.285 88.712 198.909 90.182 200.925 90.182ZM198.545 85.576C198.699 84.092 199.651 83.224 200.729 83.224C201.919 83.224 202.619 84.05 202.619 85.576H198.545ZM210.73 90.182C212.522 90.182 213.502 89.16 213.502 87.928C213.502 86.486 212.284 86.038 211.178 85.618C210.324 85.296 209.54 85.03 209.54 84.302C209.54 83.714 209.988 83.21 210.954 83.21C211.626 83.21 212.158 83.49 212.676 83.882L213.292 83.056C212.704 82.594 211.878 82.202 210.94 82.202C209.288 82.202 208.308 83.154 208.308 84.358C208.308 85.646 209.47 86.164 210.534 86.556C211.374 86.878 212.27 87.214 212.27 87.998C212.27 88.656 211.78 89.188 210.772 89.188C209.862 89.188 209.176 88.824 208.518 88.292L207.888 89.132C208.616 89.734 209.652 90.182 210.73 90.182ZM218.357 90.182C219.393 90.182 220.205 89.832 220.877 89.398L220.415 88.558C219.855 88.936 219.253 89.16 218.511 89.16C217.069 89.16 216.075 88.124 215.991 86.5H221.115C221.143 86.318 221.171 86.052 221.171 85.772C221.171 83.602 220.079 82.202 218.147 82.202C216.383 82.202 214.717 83.742 214.717 86.206C214.717 88.712 216.341 90.182 218.357 90.182ZM215.977 85.576C216.131 84.092 217.083 83.224 218.161 83.224C219.351 83.224 220.051 84.05 220.051 85.576H215.977ZM224.574 90.182C225.512 90.182 226.366 89.692 227.094 89.09H227.136L227.248 90H228.298V85.324C228.298 83.448 227.514 82.202 225.666 82.202C224.448 82.202 223.37 82.748 222.67 83.196L223.174 84.078C223.776 83.672 224.574 83.266 225.456 83.266C226.702 83.266 227.024 84.204 227.024 85.184C223.79 85.548 222.348 86.374 222.348 88.026C222.348 89.398 223.3 90.182 224.574 90.182ZM224.938 89.16C224.182 89.16 223.594 88.81 223.594 87.942C223.594 86.962 224.462 86.332 227.024 86.024V88.152C226.282 88.81 225.68 89.16 224.938 89.16ZM236.069 90.182C237.119 90.182 237.875 89.636 238.589 88.81H238.631L238.729 90H239.793V82.398H238.519V87.788C237.791 88.698 237.245 89.076 236.461 89.076C235.453 89.076 235.033 88.474 235.033 87.06V82.398H233.759V87.214C233.759 89.146 234.473 90.182 236.069 90.182ZM236.587 81.026L239.037 78.646L238.141 77.792L235.929 80.396L236.587 81.026ZM244.755 90.182C245.217 90.182 245.721 90.042 246.155 89.902L245.903 88.95C245.651 89.048 245.301 89.146 245.035 89.146C244.153 89.146 243.859 88.614 243.859 87.676V83.434H245.917V82.398H243.859V80.256H242.795L242.641 82.398L241.451 82.468V83.434H242.585V87.648C242.585 89.16 243.131 90.182 244.755 90.182ZM247.639 90H248.913V82.398H247.639V90ZM248.283 80.83C248.787 80.83 249.137 80.494 249.137 79.976C249.137 79.486 248.787 79.15 248.283 79.15C247.779 79.15 247.429 79.486 247.429 79.976C247.429 80.494 247.779 80.83 248.283 80.83ZM252.838 90.182C253.188 90.182 253.398 90.14 253.58 90.07L253.398 89.09C253.258 89.118 253.202 89.118 253.132 89.118C252.936 89.118 252.768 88.964 252.768 88.572V78.856H251.494V88.488C251.494 89.566 251.886 90.182 252.838 90.182ZM261.207 90.182C262.117 90.182 262.915 89.692 263.517 89.104H263.559L263.671 90H264.707V78.856H263.447V81.782L263.503 83.098C262.831 82.538 262.257 82.202 261.361 82.202C259.625 82.202 258.071 83.742 258.071 86.206C258.071 88.74 259.303 90.182 261.207 90.182ZM261.487 89.118C260.143 89.118 259.387 88.026 259.387 86.192C259.387 84.456 260.353 83.28 261.585 83.28C262.215 83.28 262.789 83.504 263.447 84.078V88.068C262.803 88.768 262.187 89.118 261.487 89.118ZM269.511 90.182C270.561 90.182 271.317 89.636 272.031 88.81H272.073L272.171 90H273.235V82.398H271.961V87.788C271.233 88.698 270.687 89.076 269.903 89.076C268.895 89.076 268.475 88.474 268.475 87.06V82.398H267.201V87.214C267.201 89.146 267.915 90.182 269.511 90.182ZM275.803 90H277.077V85.114C277.581 83.812 278.365 83.364 278.995 83.364C279.303 83.364 279.485 83.392 279.737 83.49L279.975 82.37C279.737 82.244 279.499 82.202 279.163 82.202C278.309 82.202 277.539 82.818 277.007 83.784H276.965L276.853 82.398H275.803V90ZM282.598 90.182C283.536 90.182 284.39 89.692 285.118 89.09H285.16L285.272 90H286.322V85.324C286.322 83.448 285.538 82.202 283.69 82.202C282.472 82.202 281.394 82.748 280.694 83.196L281.198 84.078C281.8 83.672 282.598 83.266 283.48 83.266C284.726 83.266 285.048 84.204 285.048 85.184C281.814 85.548 280.372 86.374 280.372 88.026C280.372 89.398 281.324 90.182 282.598 90.182ZM282.962 89.16C282.206 89.16 281.618 88.81 281.618 87.942C281.618 86.962 282.486 86.332 285.048 86.024V88.152C284.306 88.81 283.704 89.16 282.962 89.16ZM288.75 90H290.024V84.484C290.794 83.714 291.326 83.322 292.11 83.322C293.118 83.322 293.552 83.924 293.552 85.352V90H294.826V85.184C294.826 83.238 294.098 82.202 292.502 82.202C291.466 82.202 290.682 82.776 289.954 83.49H289.912L289.8 82.398H288.75V90ZM299.703 90.182C300.165 90.182 300.669 90.042 301.103 89.902L300.851 88.95C300.599 89.048 300.249 89.146 299.983 89.146C299.101 89.146 298.807 88.614 298.807 87.676V83.434H300.865V82.398H298.807V80.256H297.743L297.589 82.398L296.399 82.468V83.434H297.533V87.648C297.533 89.16 298.079 90.182 299.703 90.182ZM305.447 90.182C306.483 90.182 307.295 89.832 307.967 89.398L307.505 88.558C306.945 88.936 306.343 89.16 305.601 89.16C304.159 89.16 303.165 88.124 303.081 86.5H308.205C308.233 86.318 308.261 86.052 308.261 85.772C308.261 83.602 307.169 82.202 305.237 82.202C303.473 82.202 301.807 83.742 301.807 86.206C301.807 88.712 303.431 90.182 305.447 90.182ZM303.067 85.576C303.221 84.092 304.173 83.224 305.251 83.224C306.441 83.224 307.141 84.05 307.141 85.576H303.067ZM314.608 90.182C314.958 90.182 315.168 90.14 315.35 90.07L315.168 89.09C315.028 89.118 314.972 89.118 314.902 89.118C314.706 89.118 314.538 88.964 314.538 88.572V78.856H313.264V88.488C313.264 89.566 313.656 90.182 314.608 90.182ZM319.006 90.182C319.944 90.182 320.798 89.692 321.526 89.09H321.568L321.68 90H322.73V85.324C322.73 83.448 321.946 82.202 320.098 82.202C318.88 82.202 317.802 82.748 317.102 83.196L317.606 84.078C318.208 83.672 319.006 83.266 319.888 83.266C321.134 83.266 321.456 84.204 321.456 85.184C318.222 85.548 316.78 86.374 316.78 88.026C316.78 89.398 317.732 90.182 319.006 90.182ZM319.37 89.16C318.614 89.16 318.026 88.81 318.026 87.942C318.026 86.962 318.894 86.332 321.456 86.024V88.152C320.714 88.81 320.112 89.16 319.37 89.16ZM327.146 90.182C328.938 90.182 329.918 89.16 329.918 87.928C329.918 86.486 328.7 86.038 327.594 85.618C326.74 85.296 325.956 85.03 325.956 84.302C325.956 83.714 326.404 83.21 327.37 83.21C328.042 83.21 328.574 83.49 329.092 83.882L329.708 83.056C329.12 82.594 328.294 82.202 327.356 82.202C325.704 82.202 324.724 83.154 324.724 84.358C324.724 85.646 325.886 86.164 326.95 86.556C327.79 86.878 328.686 87.214 328.686 87.998C328.686 88.656 328.196 89.188 327.188 89.188C326.278 89.188 325.592 88.824 324.934 88.292L324.304 89.132C325.032 89.734 326.068 90.182 327.146 90.182ZM336.476 90H337.96L340.662 82.398H339.402L337.96 86.724C337.736 87.466 337.498 88.25 337.26 88.964H337.204C336.966 88.25 336.728 87.466 336.49 86.724L335.062 82.398H333.732L336.476 90ZM342.139 90H343.413V82.398H342.139V90ZM342.783 80.83C343.287 80.83 343.637 80.494 343.637 79.976C343.637 79.486 343.287 79.15 342.783 79.15C342.279 79.15 341.929 79.486 341.929 79.976C341.929 80.494 342.279 80.83 342.783 80.83ZM347.982 90.182C349.774 90.182 350.754 89.16 350.754 87.928C350.754 86.486 349.536 86.038 348.43 85.618C347.576 85.296 346.792 85.03 346.792 84.302C346.792 83.714 347.24 83.21 348.206 83.21C348.878 83.21 349.41 83.49 349.928 83.882L350.544 83.056C349.956 82.594 349.13 82.202 348.192 82.202C346.54 82.202 345.56 83.154 345.56 84.358C345.56 85.646 346.722 86.164 347.786 86.556C348.626 86.878 349.522 87.214 349.522 87.998C349.522 88.656 349.032 89.188 348.024 89.188C347.114 89.188 346.428 88.824 345.77 88.292L345.14 89.132C345.868 89.734 346.904 90.182 347.982 90.182ZM352.543 90H353.817V82.398H352.543V90ZM353.187 80.83C353.691 80.83 354.041 80.494 354.041 79.976C354.041 79.486 353.691 79.15 353.187 79.15C352.683 79.15 352.333 79.486 352.333 79.976C352.333 80.494 352.683 80.83 353.187 80.83ZM358.792 90.182C359.254 90.182 359.758 90.042 360.192 89.902L359.94 88.95C359.688 89.048 359.338 89.146 359.072 89.146C358.19 89.146 357.896 88.614 357.896 87.676V83.434H359.954V82.398H357.896V80.256H356.832L356.678 82.398L355.488 82.468V83.434H356.622V87.648C356.622 89.16 357.168 90.182 358.792 90.182ZM363.084 90.182C364.022 90.182 364.876 89.692 365.604 89.09H365.646L365.758 90H366.808V85.324C366.808 83.448 366.024 82.202 364.176 82.202C362.958 82.202 361.88 82.748 361.18 83.196L361.684 84.078C362.286 83.672 363.084 83.266 363.966 83.266C365.212 83.266 365.534 84.204 365.534 85.184C362.3 85.548 360.858 86.374 360.858 88.026C360.858 89.398 361.81 90.182 363.084 90.182ZM363.448 89.16C362.692 89.16 362.104 88.81 362.104 87.942C362.104 86.962 362.972 86.332 365.534 86.024V88.152C364.792 88.81 364.19 89.16 363.448 89.16ZM371.224 90.182C373.016 90.182 373.996 89.16 373.996 87.928C373.996 86.486 372.778 86.038 371.672 85.618C370.818 85.296 370.034 85.03 370.034 84.302C370.034 83.714 370.482 83.21 371.448 83.21C372.12 83.21 372.652 83.49 373.17 83.882L373.786 83.056C373.198 82.594 372.372 82.202 371.434 82.202C369.782 82.202 368.802 83.154 368.802 84.358C368.802 85.646 369.964 86.164 371.028 86.556C371.868 86.878 372.764 87.214 372.764 87.998C372.764 88.656 372.274 89.188 371.266 89.188C370.356 89.188 369.67 88.824 369.012 88.292L368.382 89.132C369.11 89.734 370.146 90.182 371.224 90.182ZM381.506 90.182C382.416 90.182 383.214 89.692 383.816 89.104H383.858L383.97 90H385.006V78.856H383.746V81.782L383.802 83.098C383.13 82.538 382.556 82.202 381.66 82.202C379.924 82.202 378.37 83.742 378.37 86.206C378.37 88.74 379.602 90.182 381.506 90.182ZM381.786 89.118C380.442 89.118 379.686 88.026 379.686 86.192C379.686 84.456 380.652 83.28 381.884 83.28C382.514 83.28 383.088 83.504 383.746 84.078V88.068C383.102 88.768 382.486 89.118 381.786 89.118ZM390.552 90.182C392.414 90.182 394.08 88.726 394.08 86.206C394.08 83.672 392.414 82.202 390.552 82.202C388.69 82.202 387.024 83.672 387.024 86.206C387.024 88.726 388.69 90.182 390.552 90.182ZM390.552 89.118C389.236 89.118 388.354 87.956 388.354 86.206C388.354 84.456 389.236 83.266 390.552 83.266C391.868 83.266 392.764 84.456 392.764 86.206C392.764 87.956 391.868 89.118 390.552 89.118ZM396.088 90H397.362V84.484C398.062 83.7 398.706 83.322 399.28 83.322C400.246 83.322 400.694 83.924 400.694 85.352V90H401.968V84.484C402.682 83.7 403.298 83.322 403.886 83.322C404.852 83.322 405.3 83.924 405.3 85.352V90H406.574V85.184C406.574 83.238 405.832 82.202 404.264 82.202C403.34 82.202 402.542 82.804 401.758 83.658C401.45 82.762 400.82 82.202 399.658 82.202C398.748 82.202 397.95 82.776 397.292 83.504H397.25L397.138 82.398H396.088V90ZM409.049 90H410.323V82.398H409.049V90ZM409.693 80.83C410.197 80.83 410.547 80.494 410.547 79.976C410.547 79.486 410.197 79.15 409.693 79.15C409.189 79.15 408.839 79.486 408.839 79.976C408.839 80.494 409.189 80.83 409.693 80.83ZM415.9 90.182C416.81 90.182 417.678 89.832 418.364 89.216L417.804 88.362C417.328 88.796 416.712 89.118 416.012 89.118C414.612 89.118 413.66 87.956 413.66 86.206C413.66 84.456 414.668 83.266 416.054 83.266C416.656 83.266 417.118 83.546 417.566 83.938L418.224 83.098C417.678 82.622 416.992 82.202 415.998 82.202C414.052 82.202 412.33 83.672 412.33 86.206C412.33 88.726 413.884 90.182 415.9 90.182ZM420.027 90H421.301V82.398H420.027V90ZM420.671 80.83C421.175 80.83 421.525 80.494 421.525 79.976C421.525 79.486 421.175 79.15 420.671 79.15C420.167 79.15 419.817 79.486 419.817 79.976C419.817 80.494 420.167 80.83 420.671 80.83ZM425.227 90.182C425.577 90.182 425.787 90.14 425.969 90.07L425.787 89.09C425.647 89.118 425.591 89.118 425.521 89.118C425.325 89.118 425.157 88.964 425.157 88.572V78.856H423.883V88.488C423.883 89.566 424.275 90.182 425.227 90.182ZM427.875 90H429.149V82.398H427.875V90ZM428.519 80.83C429.023 80.83 429.373 80.494 429.373 79.976C429.373 79.486 429.023 79.15 428.519 79.15C428.015 79.15 427.665 79.486 427.665 79.976C427.665 80.494 428.015 80.83 428.519 80.83ZM433.48 90.182C434.418 90.182 435.272 89.692 436 89.09H436.042L436.154 90H437.204V85.324C437.204 83.448 436.42 82.202 434.572 82.202C433.354 82.202 432.276 82.748 431.576 83.196L432.08 84.078C432.682 83.672 433.48 83.266 434.362 83.266C435.608 83.266 435.93 84.204 435.93 85.184C432.696 85.548 431.254 86.374 431.254 88.026C431.254 89.398 432.206 90.182 433.48 90.182ZM433.844 89.16C433.088 89.16 432.5 88.81 432.5 87.942C432.5 86.962 433.368 86.332 435.93 86.024V88.152C435.188 88.81 434.586 89.16 433.844 89.16ZM439.633 90H440.907V85.114C441.411 83.812 442.195 83.364 442.825 83.364C443.133 83.364 443.315 83.392 443.567 83.49L443.805 82.37C443.567 82.244 443.329 82.202 442.993 82.202C442.139 82.202 441.369 82.818 440.837 83.784H440.795L440.683 82.398H439.633V90ZM445.06 90H446.334V82.398H445.06V90ZM445.704 80.83C446.208 80.83 446.558 80.494 446.558 79.976C446.558 79.486 446.208 79.15 445.704 79.15C445.2 79.15 444.85 79.486 444.85 79.976C444.85 80.494 445.2 80.83 445.704 80.83ZM450.666 90.182C451.604 90.182 452.458 89.692 453.186 89.09H453.228L453.34 90H454.39V85.324C454.39 83.448 453.606 82.202 451.758 82.202C450.54 82.202 449.462 82.748 448.762 83.196L449.266 84.078C449.868 83.672 450.666 83.266 451.548 83.266C452.794 83.266 453.116 84.204 453.116 85.184C449.882 85.548 448.44 86.374 448.44 88.026C448.44 89.398 449.392 90.182 450.666 90.182ZM451.03 89.16C450.274 89.16 449.686 88.81 449.686 87.942C449.686 86.962 450.554 86.332 453.116 86.024V88.152C452.374 88.81 451.772 89.16 451.03 89.16ZM458.806 90.182C460.598 90.182 461.578 89.16 461.578 87.928C461.578 86.486 460.36 86.038 459.254 85.618C458.4 85.296 457.616 85.03 457.616 84.302C457.616 83.714 458.064 83.21 459.03 83.21C459.702 83.21 460.234 83.49 460.752 83.882L461.368 83.056C460.78 82.594 459.954 82.202 459.016 82.202C457.364 82.202 456.384 83.154 456.384 84.358C456.384 85.646 457.546 86.164 458.61 86.556C459.45 86.878 460.346 87.214 460.346 87.998C460.346 88.656 459.856 89.188 458.848 89.188C457.938 89.188 457.252 88.824 456.594 88.292L455.964 89.132C456.692 89.734 457.728 90.182 458.806 90.182Z" fill="#484545"/>
</svg>
