<svg width="671" height="91" viewBox="0 0 671 91" fill="none" xmlns="http://www.w3.org/2000/svg">
<path d="M254.878 18H257.246V12.88H261.726V18H264.078V6.144H261.726V10.816H257.246V6.144H254.878V18ZM275.316 18.224C278.452 18.224 280.612 15.872 280.612 12.032C280.612 8.192 278.452 5.936 275.316 5.936C272.18 5.936 270.02 8.176 270.02 12.032C270.02 15.872 272.18 18.224 275.316 18.224ZM275.316 16.176C273.556 16.176 272.436 14.56 272.436 12.032C272.436 9.488 273.556 7.968 275.316 7.968C277.076 7.968 278.196 9.488 278.196 12.032C278.196 14.56 277.076 16.176 275.316 16.176ZM287.67 18H290.566L291.862 12.144C292.054 11.216 292.214 10.304 292.374 9.392H292.438C292.582 10.304 292.758 11.216 292.95 12.144L294.278 18H297.222L299.414 6.144H297.174L296.23 11.936C296.054 13.168 295.878 14.432 295.702 15.712H295.622C295.366 14.432 295.126 13.152 294.87 11.936L293.51 6.144H291.478L290.102 11.936C289.846 13.168 289.59 14.432 289.35 15.712H289.286C289.11 14.432 288.918 13.184 288.742 11.936L287.798 6.144H285.398L287.67 18ZM308.44 18H310.568V13.056C310.568 11.936 310.376 10.288 310.264 9.168H310.328L311.272 11.952L313.112 16.928H314.472L316.296 11.952L317.256 9.168H317.336C317.208 10.288 317.032 11.936 317.032 13.056V18H319.192V6.144H316.568L314.6 11.696C314.344 12.432 314.136 13.216 313.88 13.968H313.8C313.56 13.216 313.336 12.432 313.08 11.696L311.064 6.144H308.44V18ZM325.722 18H328.09V6.144H325.722V18ZM339.716 18.224C341.364 18.224 342.756 17.584 343.556 16.8V11.456H339.348V13.392H341.444V15.728C341.108 16.016 340.532 16.176 339.972 16.176C337.636 16.176 336.452 14.624 336.452 12.048C336.452 9.504 337.828 7.968 339.796 7.968C340.868 7.968 341.54 8.4 342.132 8.96L343.38 7.456C342.612 6.672 341.428 5.936 339.716 5.936C336.564 5.936 334.036 8.224 334.036 12.128C334.036 16.08 336.5 18.224 339.716 18.224ZM349.722 18H352.09V12.88H356.57V18H358.922V6.144H356.57V10.816H352.09V6.144H349.722V18ZM367.808 18H370.176V8.128H373.536V6.144H364.48V8.128H367.808V18ZM383.826 18H386.722L388.018 12.144C388.21 11.216 388.37 10.304 388.53 9.392H388.594C388.738 10.304 388.914 11.216 389.106 12.144L390.434 18H393.378L395.57 6.144H393.33L392.386 11.936C392.21 13.168 392.034 14.432 391.858 15.712H391.778C391.522 14.432 391.282 13.152 391.026 11.936L389.666 6.144H387.634L386.258 11.936C386.002 13.168 385.746 14.432 385.506 15.712H385.442C385.266 14.432 385.074 13.184 384.898 11.936L383.954 6.144H381.554L383.826 18ZM397.347 18H404.787V16.016H399.715V12.848H403.875V10.864H399.715V8.128H404.611V6.144H397.347V18ZM412.191 13.968H414.239C413.999 11.712 416.783 10.944 416.783 8.672C416.783 6.624 415.375 5.632 413.455 5.632C412.063 5.632 410.927 6.288 410.095 7.232L411.391 8.416C411.903 7.888 412.463 7.52 413.167 7.52C413.999 7.52 414.527 8.032 414.527 8.832C414.527 10.352 411.807 11.392 412.191 13.968ZM413.215 18.224C414.063 18.224 414.687 17.552 414.687 16.688C414.687 15.808 414.063 15.152 413.215 15.152C412.383 15.152 411.759 15.808 411.759 16.688C411.759 17.552 412.383 18.224 413.215 18.224Z" fill="#D29890"/>
<path d="M114.06 53.038C115.222 53.038 116.16 52.478 116.846 51.694L115.936 50.868C115.46 51.386 114.9 51.722 114.242 51.722C113.36 51.722 112.87 51.134 112.87 50.35C112.87 48.824 115.306 47.928 114.984 45.576H113.556C113.794 47.676 111.316 48.446 111.316 50.462C111.316 52.114 112.436 53.038 114.06 53.038ZM114.242 44.372C114.858 44.372 115.334 43.896 115.334 43.238C115.334 42.58 114.858 42.104 114.242 42.104C113.64 42.104 113.178 42.58 113.178 43.238C113.178 43.896 113.64 44.372 114.242 44.372ZM121.939 50.182C123.269 50.182 124.319 49.65 125.145 48.698L124.276 47.676C123.661 48.348 122.947 48.768 121.995 48.768C120.175 48.768 119.027 47.27 119.027 44.82C119.027 42.398 120.258 40.914 122.037 40.914C122.877 40.914 123.521 41.292 124.053 41.838L124.935 40.802C124.305 40.116 123.297 39.5 122.009 39.5C119.405 39.5 117.361 41.516 117.361 44.876C117.361 48.25 119.349 50.182 121.939 50.182ZM129.911 50.182C131.815 50.182 133.537 48.712 133.537 46.15C133.537 43.588 131.815 42.104 129.911 42.104C128.007 42.104 126.285 43.588 126.285 46.15C126.285 48.712 128.007 50.182 129.911 50.182ZM129.911 48.866C128.707 48.866 127.951 47.788 127.951 46.15C127.951 44.526 128.707 43.434 129.911 43.434C131.129 43.434 131.885 44.526 131.885 46.15C131.885 47.788 131.129 48.866 129.911 48.866ZM129.813 40.984L132.403 38.548L131.283 37.484L128.987 40.186L129.813 40.984ZM135.431 50H137.041V44.54C137.671 43.84 138.245 43.49 138.763 43.49C139.645 43.49 140.051 44.022 140.051 45.352V50H141.661V44.54C142.305 43.84 142.865 43.49 143.397 43.49C144.265 43.49 144.685 44.022 144.685 45.352V50H146.295V45.156C146.295 43.196 145.539 42.104 143.929 42.104C142.963 42.104 142.179 42.706 141.423 43.518C141.087 42.636 140.443 42.104 139.295 42.104C138.343 42.104 137.573 42.678 136.915 43.378H136.873L136.747 42.3H135.431V50ZM151.704 50.182C153.608 50.182 155.33 48.712 155.33 46.15C155.33 43.588 153.608 42.104 151.704 42.104C149.8 42.104 148.078 43.588 148.078 46.15C148.078 48.712 149.8 50.182 151.704 50.182ZM151.704 48.866C150.5 48.866 149.744 47.788 149.744 46.15C149.744 44.526 150.5 43.434 151.704 43.434C152.922 43.434 153.678 44.526 153.678 46.15C153.678 47.788 152.922 48.866 151.704 48.866ZM160.368 53.122H161.978V50.63L161.922 49.314C162.58 49.874 163.266 50.182 163.952 50.182C165.688 50.182 167.27 48.67 167.27 46.024C167.27 43.658 166.178 42.104 164.232 42.104C163.364 42.104 162.524 42.58 161.852 43.14H161.81L161.684 42.3H160.368V53.122ZM163.644 48.852C163.168 48.852 162.58 48.67 161.978 48.152V44.386C162.622 43.756 163.196 43.448 163.798 43.448C165.086 43.448 165.604 44.442 165.604 46.052C165.604 47.858 164.764 48.852 163.644 48.852ZM172.267 50.182C174.171 50.182 175.893 48.712 175.893 46.15C175.893 43.588 174.171 42.104 172.267 42.104C170.363 42.104 168.641 43.588 168.641 46.15C168.641 48.712 170.363 50.182 172.267 50.182ZM172.267 48.866C171.063 48.866 170.307 47.788 170.307 46.15C170.307 44.526 171.063 43.434 172.267 43.434C173.485 43.434 174.241 44.526 174.241 46.15C174.241 47.788 173.485 48.866 172.267 48.866ZM180.446 50.182C181.314 50.182 182.112 49.72 182.686 49.132H182.742L182.868 50H184.184V38.842H182.574V41.698L182.644 42.972C182.014 42.44 181.454 42.104 180.572 42.104C178.85 42.104 177.268 43.658 177.268 46.15C177.268 48.712 178.514 50.182 180.446 50.182ZM180.824 48.852C179.62 48.852 178.934 47.886 178.934 46.136C178.934 44.47 179.802 43.448 180.88 43.448C181.454 43.448 182 43.63 182.574 44.148V47.914C182.014 48.558 181.468 48.852 180.824 48.852ZM186.605 50H188.215V45.198C188.691 43.98 189.447 43.546 190.077 43.546C190.385 43.546 190.581 43.588 190.847 43.672L191.141 42.272C190.903 42.16 190.651 42.104 190.273 42.104C189.447 42.104 188.635 42.692 188.089 43.686H188.047L187.921 42.3H186.605V50ZM192.333 50H193.943V42.3H192.333V50ZM193.033 40.984L195.623 38.548L194.503 37.484L192.221 40.186L193.033 40.984ZM198.173 50.182C199.097 50.182 199.923 49.72 200.623 49.118H200.679L200.805 50H202.121V45.366C202.121 43.322 201.239 42.104 199.321 42.104C198.089 42.104 197.011 42.608 196.213 43.112L196.815 44.204C197.473 43.784 198.229 43.42 199.041 43.42C200.175 43.42 200.497 44.204 200.511 45.1C197.305 45.45 195.905 46.304 195.905 47.956C195.905 49.314 196.843 50.182 198.173 50.182ZM198.663 48.908C197.977 48.908 197.459 48.6 197.459 47.844C197.459 46.976 198.229 46.388 200.511 46.122V48.012C199.881 48.586 199.335 48.908 198.663 48.908ZM204.406 50H206.016V44.54C206.646 43.84 207.22 43.49 207.738 43.49C208.62 43.49 209.026 44.022 209.026 45.352V50H210.636V44.54C211.28 43.84 211.84 43.49 212.372 43.49C213.24 43.49 213.66 44.022 213.66 45.352V50H215.27V45.156C215.27 43.196 214.514 42.104 212.904 42.104C211.938 42.104 211.154 42.706 210.398 43.518C210.062 42.636 209.418 42.104 208.27 42.104C207.318 42.104 206.548 42.678 205.89 43.378H205.848L205.722 42.3H204.406V50ZM220.679 50.182C222.583 50.182 224.305 48.712 224.305 46.15C224.305 43.588 222.583 42.104 220.679 42.104C218.775 42.104 217.053 43.588 217.053 46.15C217.053 48.712 218.775 50.182 220.679 50.182ZM220.679 48.866C219.475 48.866 218.719 47.788 218.719 46.15C218.719 44.526 219.475 43.434 220.679 43.434C221.897 43.434 222.653 44.526 222.653 46.15C222.653 47.788 221.897 48.866 220.679 48.866ZM228.243 50.182C230.147 50.182 231.169 49.132 231.169 47.844C231.169 46.388 229.979 45.912 228.901 45.506C228.061 45.198 227.305 44.946 227.305 44.288C227.305 43.756 227.697 43.336 228.551 43.336C229.181 43.336 229.727 43.616 230.259 44.008L231.015 43.014C230.399 42.524 229.545 42.104 228.523 42.104C226.815 42.104 225.779 43.07 225.779 44.358C225.779 45.66 226.913 46.206 227.949 46.598C228.775 46.92 229.643 47.228 229.643 47.928C229.643 48.516 229.209 48.964 228.285 48.964C227.459 48.964 226.787 48.614 226.101 48.082L225.345 49.118C226.101 49.734 227.179 50.182 228.243 50.182ZM236.029 50H237.639V44.54C238.311 43.854 238.801 43.49 239.515 43.49C240.425 43.49 240.817 44.022 240.817 45.352V50H242.427V45.156C242.427 43.196 241.699 42.104 240.061 42.104C239.011 42.104 238.241 42.678 237.569 43.322L237.639 41.796V38.842H236.029V50ZM246.544 50.182C247.468 50.182 248.294 49.72 248.994 49.118H249.05L249.176 50H250.492V45.366C250.492 43.322 249.61 42.104 247.692 42.104C246.46 42.104 245.382 42.608 244.584 43.112L245.186 44.204C245.844 43.784 246.6 43.42 247.412 43.42C248.546 43.42 248.868 44.204 248.882 45.1C245.676 45.45 244.276 46.304 244.276 47.956C244.276 49.314 245.214 50.182 246.544 50.182ZM247.034 48.908C246.348 48.908 245.83 48.6 245.83 47.844C245.83 46.976 246.6 46.388 248.882 46.122V48.012C248.252 48.586 247.706 48.908 247.034 48.908ZM255.913 50.182C256.795 50.182 257.705 49.86 258.419 49.23L257.747 48.166C257.285 48.558 256.711 48.866 256.067 48.866C254.793 48.866 253.897 47.788 253.897 46.15C253.897 44.526 254.821 43.434 256.123 43.434C256.641 43.434 257.075 43.658 257.495 44.036L258.293 42.986C257.733 42.496 257.019 42.104 256.039 42.104C254.009 42.104 252.231 43.588 252.231 46.15C252.231 48.712 253.827 50.182 255.913 50.182ZM262.846 50.182C263.854 50.182 264.736 49.846 265.45 49.37L264.89 48.348C264.33 48.712 263.742 48.922 263.056 48.922C261.726 48.922 260.802 48.04 260.676 46.57H265.674C265.716 46.374 265.758 46.066 265.758 45.744C265.758 43.574 264.652 42.104 262.608 42.104C260.816 42.104 259.094 43.658 259.094 46.15C259.094 48.698 260.76 50.182 262.846 50.182ZM260.662 45.45C260.816 44.106 261.67 43.364 262.636 43.364C263.756 43.364 264.358 44.134 264.358 45.45H260.662ZM267.556 50H269.166V45.198C269.642 43.98 270.398 43.546 271.028 43.546C271.336 43.546 271.532 43.588 271.798 43.672L272.092 42.272C271.854 42.16 271.602 42.104 271.224 42.104C270.398 42.104 269.586 42.692 269.04 43.686H268.998L268.872 42.3H267.556V50ZM278.515 50.182C280.419 50.182 281.441 49.132 281.441 47.844C281.441 46.388 280.251 45.912 279.173 45.506C278.333 45.198 277.577 44.946 277.577 44.288C277.577 43.756 277.969 43.336 278.823 43.336C279.453 43.336 279.999 43.616 280.531 44.008L281.287 43.014C280.671 42.524 279.817 42.104 278.795 42.104C277.087 42.104 276.051 43.07 276.051 44.358C276.051 45.66 277.185 46.206 278.221 46.598C279.047 46.92 279.915 47.228 279.915 47.928C279.915 48.516 279.481 48.964 278.557 48.964C277.731 48.964 277.059 48.614 276.373 48.082L275.617 49.118C276.373 49.734 277.451 50.182 278.515 50.182ZM286.362 50.182C287.37 50.182 288.252 49.846 288.966 49.37L288.406 48.348C287.846 48.712 287.258 48.922 286.572 48.922C285.242 48.922 284.318 48.04 284.192 46.57H289.19C289.232 46.374 289.274 46.066 289.274 45.744C289.274 43.574 288.168 42.104 286.124 42.104C284.332 42.104 282.61 43.658 282.61 46.15C282.61 48.698 284.276 50.182 286.362 50.182ZM284.178 45.45C284.332 44.106 285.186 43.364 286.152 43.364C287.272 43.364 287.874 44.134 287.874 45.45H284.178ZM291.072 50H292.682V44.54C293.354 43.854 293.844 43.49 294.558 43.49C295.468 43.49 295.86 44.022 295.86 45.352V50H297.47V45.156C297.47 43.196 296.742 42.104 295.104 42.104C294.054 42.104 293.27 42.678 292.556 43.364H292.514L292.388 42.3H291.072V50ZM302.398 50.182C302.958 50.182 303.476 50.042 303.91 49.902L303.616 48.712C303.392 48.81 303.056 48.894 302.79 48.894C301.992 48.894 301.67 48.418 301.67 47.494V43.588H303.672V42.3H301.67V40.172H300.326L300.144 42.3L298.94 42.384V43.588H300.06V47.48C300.06 49.104 300.662 50.182 302.398 50.182ZM305.359 50H306.969V42.3H305.359V50ZM306.157 40.858C306.745 40.858 307.165 40.48 307.165 39.892C307.165 39.318 306.745 38.94 306.157 38.94C305.569 38.94 305.163 39.318 305.163 39.892C305.163 40.48 305.569 40.858 306.157 40.858ZM309.378 50H310.988V45.198C311.464 43.98 312.22 43.546 312.85 43.546C313.158 43.546 313.354 43.588 313.62 43.672L313.914 42.272C313.676 42.16 313.424 42.104 313.046 42.104C312.22 42.104 311.408 42.692 310.862 43.686H310.82L310.694 42.3H309.378V50ZM320.071 50.182C320.995 50.182 321.821 49.72 322.521 49.118H322.577L322.703 50H324.019V45.366C324.019 43.322 323.137 42.104 321.219 42.104C319.987 42.104 318.909 42.608 318.111 43.112L318.713 44.204C319.371 43.784 320.127 43.42 320.939 43.42C322.073 43.42 322.395 44.204 322.409 45.1C319.203 45.45 317.803 46.304 317.803 47.956C317.803 49.314 318.741 50.182 320.071 50.182ZM320.561 48.908C319.875 48.908 319.357 48.6 319.357 47.844C319.357 46.976 320.127 46.388 322.409 46.122V48.012C321.779 48.586 321.233 48.908 320.561 48.908ZM331.044 50.182C331.45 50.182 331.716 50.126 331.912 50.056L331.702 48.838C331.562 48.866 331.506 48.866 331.436 48.866C331.24 48.866 331.058 48.712 331.058 48.278V38.842H329.448V48.194C329.448 49.44 329.882 50.182 331.044 50.182ZM335.438 50.182C336.362 50.182 337.188 49.72 337.888 49.118H337.944L338.07 50H339.386V45.366C339.386 43.322 338.504 42.104 336.586 42.104C335.354 42.104 334.276 42.608 333.478 43.112L334.08 44.204C334.738 43.784 335.494 43.42 336.306 43.42C337.44 43.42 337.762 44.204 337.776 45.1C334.57 45.45 333.17 46.304 333.17 47.956C333.17 49.314 334.108 50.182 335.438 50.182ZM335.928 48.908C335.242 48.908 334.724 48.6 334.724 47.844C334.724 46.976 335.494 46.388 337.776 46.122V48.012C337.146 48.586 336.6 48.908 335.928 48.908ZM343.757 50.182C345.661 50.182 346.683 49.132 346.683 47.844C346.683 46.388 345.493 45.912 344.415 45.506C343.575 45.198 342.819 44.946 342.819 44.288C342.819 43.756 343.211 43.336 344.065 43.336C344.695 43.336 345.241 43.616 345.773 44.008L346.529 43.014C345.913 42.524 345.059 42.104 344.037 42.104C342.329 42.104 341.293 43.07 341.293 44.358C341.293 45.66 342.427 46.206 343.463 46.598C344.289 46.92 345.157 47.228 345.157 47.928C345.157 48.516 344.723 48.964 343.799 48.964C342.973 48.964 342.301 48.614 341.615 48.082L340.859 49.118C341.615 49.734 342.693 50.182 343.757 50.182ZM351.542 53.122H353.152V50.63L353.096 49.314C353.754 49.874 354.44 50.182 355.126 50.182C356.862 50.182 358.444 48.67 358.444 46.024C358.444 43.658 357.352 42.104 355.406 42.104C354.538 42.104 353.698 42.58 353.026 43.14H352.984L352.858 42.3H351.542V53.122ZM354.818 48.852C354.342 48.852 353.754 48.67 353.152 48.152V44.386C353.796 43.756 354.37 43.448 354.972 43.448C356.26 43.448 356.778 44.442 356.778 46.052C356.778 47.858 355.938 48.852 354.818 48.852ZM363.567 50.182C364.575 50.182 365.457 49.846 366.171 49.37L365.611 48.348C365.051 48.712 364.463 48.922 363.777 48.922C362.447 48.922 361.523 48.04 361.397 46.57H366.395C366.437 46.374 366.479 46.066 366.479 45.744C366.479 43.574 365.373 42.104 363.329 42.104C361.537 42.104 359.815 43.658 359.815 46.15C359.815 48.698 361.481 50.182 363.567 50.182ZM361.383 45.45C361.537 44.106 362.391 43.364 363.357 43.364C364.477 43.364 365.079 44.134 365.079 45.45H361.383ZM368.277 50H369.887V45.198C370.363 43.98 371.119 43.546 371.749 43.546C372.057 43.546 372.253 43.588 372.519 43.672L372.813 42.272C372.575 42.16 372.323 42.104 371.945 42.104C371.119 42.104 370.307 42.692 369.761 43.686H369.719L369.593 42.3H368.277V50ZM376.009 50.182C377.913 50.182 378.935 49.132 378.935 47.844C378.935 46.388 377.745 45.912 376.667 45.506C375.827 45.198 375.071 44.946 375.071 44.288C375.071 43.756 375.463 43.336 376.317 43.336C376.947 43.336 377.493 43.616 378.025 44.008L378.781 43.014C378.165 42.524 377.311 42.104 376.289 42.104C374.581 42.104 373.545 43.07 373.545 44.358C373.545 45.66 374.679 46.206 375.715 46.598C376.541 46.92 377.409 47.228 377.409 47.928C377.409 48.516 376.975 48.964 376.051 48.964C375.225 48.964 374.553 48.614 373.867 48.082L373.111 49.118C373.867 49.734 374.945 50.182 376.009 50.182ZM383.73 50.182C385.634 50.182 387.356 48.712 387.356 46.15C387.356 43.588 385.634 42.104 383.73 42.104C381.826 42.104 380.104 43.588 380.104 46.15C380.104 48.712 381.826 50.182 383.73 50.182ZM383.73 48.866C382.526 48.866 381.77 47.788 381.77 46.15C381.77 44.526 382.526 43.434 383.73 43.434C384.948 43.434 385.704 44.526 385.704 46.15C385.704 47.788 384.948 48.866 383.73 48.866ZM389.249 50H390.859V44.54C391.531 43.854 392.021 43.49 392.735 43.49C393.645 43.49 394.037 44.022 394.037 45.352V50H395.647V45.156C395.647 43.196 394.919 42.104 393.281 42.104C392.231 42.104 391.447 42.678 390.733 43.364H390.691L390.565 42.3H389.249V50ZM399.806 50.182C400.73 50.182 401.556 49.72 402.256 49.118H402.312L402.438 50H403.754V45.366C403.754 43.322 402.872 42.104 400.954 42.104C399.722 42.104 398.644 42.608 397.846 43.112L398.448 44.204C399.106 43.784 399.862 43.42 400.674 43.42C401.808 43.42 402.13 44.204 402.144 45.1C398.938 45.45 397.538 46.304 397.538 47.956C397.538 49.314 398.476 50.182 399.806 50.182ZM400.296 48.908C399.61 48.908 399.092 48.6 399.092 47.844C399.092 46.976 399.862 46.388 402.144 46.122V48.012C401.514 48.586 400.968 48.908 400.296 48.908ZM408.124 50.182C410.028 50.182 411.05 49.132 411.05 47.844C411.05 46.388 409.86 45.912 408.782 45.506C407.942 45.198 407.186 44.946 407.186 44.288C407.186 43.756 407.578 43.336 408.432 43.336C409.062 43.336 409.608 43.616 410.14 44.008L410.896 43.014C410.28 42.524 409.426 42.104 408.404 42.104C406.696 42.104 405.66 43.07 405.66 44.358C405.66 45.66 406.794 46.206 407.83 46.598C408.656 46.92 409.524 47.228 409.524 47.928C409.524 48.516 409.09 48.964 408.166 48.964C407.34 48.964 406.668 48.614 405.982 48.082L405.226 49.118C405.982 49.734 407.06 50.182 408.124 50.182ZM420.697 53.122H422.307V42.3H421.033L420.893 43.042H420.851C420.193 42.426 419.563 42.104 418.695 42.104C416.973 42.104 415.391 43.658 415.391 46.15C415.391 48.712 416.637 50.182 418.569 50.182C419.395 50.182 420.179 49.748 420.767 49.174L420.697 50.504V53.122ZM418.947 48.852C417.743 48.852 417.057 47.886 417.057 46.136C417.057 44.47 417.925 43.448 419.003 43.448C419.577 43.448 420.123 43.63 420.697 44.148V47.914C420.137 48.558 419.591 48.852 418.947 48.852ZM426.996 50.182C428.046 50.182 428.802 49.65 429.502 48.838H429.544L429.67 50H430.986V42.3H429.376V47.648C428.732 48.46 428.242 48.796 427.528 48.796C426.618 48.796 426.24 48.264 426.24 46.948V42.3H424.63V47.144C424.63 49.104 425.344 50.182 426.996 50.182ZM436.615 50.182C437.623 50.182 438.505 49.846 439.219 49.37L438.659 48.348C438.099 48.712 437.511 48.922 436.825 48.922C435.495 48.922 434.571 48.04 434.445 46.57H439.443C439.485 46.374 439.527 46.066 439.527 45.744C439.527 43.574 438.421 42.104 436.377 42.104C434.585 42.104 432.863 43.658 432.863 46.15C432.863 48.698 434.529 50.182 436.615 50.182ZM434.431 45.45C434.585 44.106 435.439 43.364 436.405 43.364C437.525 43.364 438.127 44.134 438.127 45.45H434.431ZM446.066 50.182C446.472 50.182 446.738 50.126 446.934 50.056L446.724 48.838C446.584 48.866 446.528 48.866 446.458 48.866C446.262 48.866 446.08 48.712 446.08 48.278V38.842H444.47V48.194C444.47 49.44 444.904 50.182 446.066 50.182ZM450.46 50.182C451.384 50.182 452.21 49.72 452.91 49.118H452.966L453.092 50H454.408V45.366C454.408 43.322 453.526 42.104 451.608 42.104C450.376 42.104 449.298 42.608 448.5 43.112L449.102 44.204C449.76 43.784 450.516 43.42 451.328 43.42C452.462 43.42 452.784 44.204 452.798 45.1C449.592 45.45 448.192 46.304 448.192 47.956C448.192 49.314 449.13 50.182 450.46 50.182ZM450.95 48.908C450.264 48.908 449.746 48.6 449.746 47.844C449.746 46.976 450.516 46.388 452.798 46.122V48.012C452.168 48.586 451.622 48.908 450.95 48.908ZM458.779 50.182C460.683 50.182 461.705 49.132 461.705 47.844C461.705 46.388 460.515 45.912 459.437 45.506C458.597 45.198 457.841 44.946 457.841 44.288C457.841 43.756 458.233 43.336 459.087 43.336C459.717 43.336 460.263 43.616 460.795 44.008L461.551 43.014C460.935 42.524 460.081 42.104 459.059 42.104C457.351 42.104 456.315 43.07 456.315 44.358C456.315 45.66 457.449 46.206 458.485 46.598C459.311 46.92 460.179 47.228 460.179 47.928C460.179 48.516 459.745 48.964 458.821 48.964C457.995 48.964 457.323 48.614 456.637 48.082L455.881 49.118C456.637 49.734 457.715 50.182 458.779 50.182ZM469.644 50.182C471.548 50.182 473.27 48.712 473.27 46.15C473.27 43.588 471.548 42.104 469.644 42.104C467.74 42.104 466.018 43.588 466.018 46.15C466.018 48.712 467.74 50.182 469.644 50.182ZM469.644 48.866C468.44 48.866 467.684 47.788 467.684 46.15C467.684 44.526 468.44 43.434 469.644 43.434C470.862 43.434 471.618 44.526 471.618 46.15C471.618 47.788 470.862 48.866 469.644 48.866ZM475.163 53.122H476.773V50.63L476.717 49.314C477.375 49.874 478.061 50.182 478.747 50.182C480.483 50.182 482.065 48.67 482.065 46.024C482.065 43.658 480.973 42.104 479.027 42.104C478.159 42.104 477.319 42.58 476.647 43.14H476.605L476.479 42.3H475.163V53.122ZM478.439 48.852C477.963 48.852 477.375 48.67 476.773 48.152V44.386C477.417 43.756 477.991 43.448 478.593 43.448C479.881 43.448 480.399 44.442 480.399 46.052C480.399 47.858 479.559 48.852 478.439 48.852ZM487.062 50.182C488.966 50.182 490.688 48.712 490.688 46.15C490.688 43.588 488.966 42.104 487.062 42.104C485.158 42.104 483.436 43.588 483.436 46.15C483.436 48.712 485.158 50.182 487.062 50.182ZM487.062 48.866C485.858 48.866 485.102 47.788 485.102 46.15C485.102 44.526 485.858 43.434 487.062 43.434C488.28 43.434 489.036 44.526 489.036 46.15C489.036 47.788 488.28 48.866 487.062 48.866ZM492.581 50H494.191V45.198C494.667 43.98 495.423 43.546 496.053 43.546C496.361 43.546 496.557 43.588 496.823 43.672L497.117 42.272C496.879 42.16 496.627 42.104 496.249 42.104C495.423 42.104 494.611 42.692 494.065 43.686H494.023L493.897 42.3H492.581V50ZM500.9 50.182C501.46 50.182 501.978 50.042 502.412 49.902L502.118 48.712C501.894 48.81 501.558 48.894 501.292 48.894C500.494 48.894 500.172 48.418 500.172 47.494V43.588H502.174V42.3H500.172V40.172H498.828L498.646 42.3L497.442 42.384V43.588H498.562V47.48C498.562 49.104 499.164 50.182 500.9 50.182ZM506.129 50.182C507.179 50.182 507.935 49.65 508.635 48.838H508.677L508.803 50H510.119V42.3H508.509V47.648C507.865 48.46 507.375 48.796 506.661 48.796C505.751 48.796 505.373 48.264 505.373 46.948V42.3H503.763V47.144C503.763 49.104 504.477 50.182 506.129 50.182ZM512.542 50H514.152V44.54C514.824 43.854 515.314 43.49 516.028 43.49C516.938 43.49 517.33 44.022 517.33 45.352V50H518.94V45.156C518.94 43.196 518.212 42.104 516.574 42.104C515.524 42.104 514.74 42.678 514.026 43.364H513.984L513.858 42.3H512.542V50ZM521.279 50H522.889V42.3H521.279V50ZM522.077 40.858C522.665 40.858 523.085 40.48 523.085 39.892C523.085 39.318 522.665 38.94 522.077 38.94C521.489 38.94 521.083 39.318 521.083 39.892C521.083 40.48 521.489 40.858 522.077 40.858ZM527.958 50.182C528.826 50.182 529.624 49.72 530.198 49.132H530.254L530.38 50H531.696V38.842H530.086V41.698L530.156 42.972C529.526 42.44 528.966 42.104 528.084 42.104C526.362 42.104 524.78 43.658 524.78 46.15C524.78 48.712 526.026 50.182 527.958 50.182ZM528.336 48.852C527.132 48.852 526.446 47.886 526.446 46.136C526.446 44.47 527.314 43.448 528.392 43.448C528.966 43.448 529.512 43.63 530.086 44.148V47.914C529.526 48.558 528.98 48.852 528.336 48.852ZM535.936 50.182C536.86 50.182 537.686 49.72 538.386 49.118H538.442L538.568 50H539.884V45.366C539.884 43.322 539.002 42.104 537.084 42.104C535.852 42.104 534.774 42.608 533.976 43.112L534.578 44.204C535.236 43.784 535.992 43.42 536.804 43.42C537.938 43.42 538.26 44.204 538.274 45.1C535.068 45.45 533.668 46.304 533.668 47.956C533.668 49.314 534.606 50.182 535.936 50.182ZM536.426 48.908C535.74 48.908 535.222 48.6 535.222 47.844C535.222 46.976 535.992 46.388 538.274 46.122V48.012C537.644 48.586 537.098 48.908 536.426 48.908ZM544.829 50.182C545.697 50.182 546.495 49.72 547.069 49.132H547.125L547.251 50H548.567V38.842H546.957V41.698L547.027 42.972C546.397 42.44 545.837 42.104 544.955 42.104C543.233 42.104 541.651 43.658 541.651 46.15C541.651 48.712 542.897 50.182 544.829 50.182ZM545.207 48.852C544.003 48.852 543.317 47.886 543.317 46.136C543.317 44.47 544.185 43.448 545.263 43.448C545.837 43.448 546.383 43.63 546.957 44.148V47.914C546.397 48.558 545.851 48.852 545.207 48.852ZM554.194 50.182C555.202 50.182 556.084 49.846 556.798 49.37L556.238 48.348C555.678 48.712 555.09 48.922 554.404 48.922C553.074 48.922 552.15 48.04 552.024 46.57H557.022C557.064 46.374 557.106 46.066 557.106 45.744C557.106 43.574 556 42.104 553.956 42.104C552.164 42.104 550.442 43.658 550.442 46.15C550.442 48.698 552.108 50.182 554.194 50.182ZM552.01 45.45C552.164 44.106 553.018 43.364 553.984 43.364C555.104 43.364 555.706 44.134 555.706 45.45H552.01ZM560.99 50.182C562.894 50.182 563.916 49.132 563.916 47.844C563.916 46.388 562.726 45.912 561.648 45.506C560.808 45.198 560.052 44.946 560.052 44.288C560.052 43.756 560.444 43.336 561.298 43.336C561.928 43.336 562.474 43.616 563.006 44.008L563.762 43.014C563.146 42.524 562.292 42.104 561.27 42.104C559.562 42.104 558.526 43.07 558.526 44.358C558.526 45.66 559.66 46.206 560.696 46.598C561.522 46.92 562.39 47.228 562.39 47.928C562.39 48.516 561.956 48.964 561.032 48.964C560.206 48.964 559.534 48.614 558.848 48.082L558.092 49.118C558.848 49.734 559.926 50.182 560.99 50.182ZM120.709 73.122H122.319V62.3H121.045L120.905 63.042H120.863C120.205 62.426 119.575 62.104 118.707 62.104C116.985 62.104 115.403 63.658 115.403 66.15C115.403 68.712 116.649 70.182 118.581 70.182C119.407 70.182 120.191 69.748 120.779 69.174L120.709 70.504V73.122ZM118.959 68.852C117.755 68.852 117.069 67.886 117.069 66.136C117.069 64.47 117.937 63.448 119.015 63.448C119.589 63.448 120.135 63.63 120.709 64.148V67.914C120.149 68.558 119.603 68.852 118.959 68.852ZM127.007 70.182C128.057 70.182 128.813 69.65 129.513 68.838H129.555L129.681 70H130.997V62.3H129.387V67.648C128.743 68.46 128.253 68.796 127.539 68.796C126.629 68.796 126.251 68.264 126.251 66.948V62.3H124.641V67.144C124.641 69.104 125.355 70.182 127.007 70.182ZM136.627 70.182C137.635 70.182 138.517 69.846 139.231 69.37L138.671 68.348C138.111 68.712 137.523 68.922 136.837 68.922C135.507 68.922 134.583 68.04 134.457 66.57H139.455C139.497 66.374 139.539 66.066 139.539 65.744C139.539 63.574 138.433 62.104 136.389 62.104C134.597 62.104 132.875 63.658 132.875 66.15C132.875 68.698 134.541 70.182 136.627 70.182ZM134.443 65.45C134.597 64.106 135.451 63.364 136.417 63.364C137.537 63.364 138.139 64.134 138.139 65.45H134.443ZM147.562 70.182C149.466 70.182 151.188 68.712 151.188 66.15C151.188 63.588 149.466 62.104 147.562 62.104C145.658 62.104 143.936 63.588 143.936 66.15C143.936 68.712 145.658 70.182 147.562 70.182ZM147.562 68.866C146.358 68.866 145.602 67.788 145.602 66.15C145.602 64.526 146.358 63.434 147.562 63.434C148.78 63.434 149.536 64.526 149.536 66.15C149.536 67.788 148.78 68.866 147.562 68.866ZM153.306 70H154.916V63.588H156.47V62.3H154.916V61.32C154.916 60.382 155.252 59.934 155.938 59.934C156.204 59.934 156.498 60.004 156.778 60.13L157.1 58.912C156.75 58.772 156.26 58.66 155.742 58.66C154.02 58.66 153.306 59.752 153.306 61.334V62.3L152.256 62.384V63.588H153.306V70ZM157.866 70H159.476V65.198C159.952 63.98 160.708 63.546 161.338 63.546C161.646 63.546 161.842 63.588 162.108 63.672L162.402 62.272C162.164 62.16 161.912 62.104 161.534 62.104C160.708 62.104 159.896 62.692 159.35 63.686H159.308L159.182 62.3H157.866V70ZM166.651 70.182C167.659 70.182 168.541 69.846 169.255 69.37L168.695 68.348C168.135 68.712 167.547 68.922 166.861 68.922C165.531 68.922 164.607 68.04 164.481 66.57H169.479C169.521 66.374 169.563 66.066 169.563 65.744C169.563 63.574 168.457 62.104 166.413 62.104C164.621 62.104 162.899 63.658 162.899 66.15C162.899 68.698 164.565 70.182 166.651 70.182ZM164.467 65.45C164.621 64.106 165.475 63.364 166.441 63.364C167.561 63.364 168.163 64.134 168.163 65.45H164.467ZM174.497 70.182C175.379 70.182 176.289 69.86 177.003 69.23L176.331 68.166C175.869 68.558 175.295 68.866 174.651 68.866C173.377 68.866 172.481 67.788 172.481 66.15C172.481 64.526 173.405 63.434 174.707 63.434C175.225 63.434 175.659 63.658 176.079 64.036L176.877 62.986C176.317 62.496 175.603 62.104 174.623 62.104C172.593 62.104 170.815 63.588 170.815 66.15C170.815 68.712 172.411 70.182 174.497 70.182ZM181.43 70.182C182.438 70.182 183.32 69.846 184.034 69.37L183.474 68.348C182.914 68.712 182.326 68.922 181.64 68.922C180.31 68.922 179.386 68.04 179.26 66.57H184.258C184.3 66.374 184.342 66.066 184.342 65.744C184.342 63.574 183.236 62.104 181.192 62.104C179.4 62.104 177.678 63.658 177.678 66.15C177.678 68.698 179.344 70.182 181.43 70.182ZM179.246 65.45C179.4 64.106 180.254 63.364 181.22 63.364C182.34 63.364 182.942 64.134 182.942 65.45H179.246ZM190.88 70.182C191.286 70.182 191.552 70.126 191.748 70.056L191.538 68.838C191.398 68.866 191.342 68.866 191.272 68.866C191.076 68.866 190.894 68.712 190.894 68.278V58.842H189.284V68.194C189.284 69.44 189.718 70.182 190.88 70.182ZM195.274 70.182C196.198 70.182 197.024 69.72 197.724 69.118H197.78L197.906 70H199.222V65.366C199.222 63.322 198.34 62.104 196.422 62.104C195.19 62.104 194.112 62.608 193.314 63.112L193.916 64.204C194.574 63.784 195.33 63.42 196.142 63.42C197.276 63.42 197.598 64.204 197.612 65.1C194.406 65.45 193.006 66.304 193.006 67.956C193.006 69.314 193.944 70.182 195.274 70.182ZM195.764 68.908C195.078 68.908 194.56 68.6 194.56 67.844C194.56 66.976 195.33 66.388 197.612 66.122V68.012C196.982 68.586 196.436 68.908 195.764 68.908ZM204.652 73.122H206.262V70.63L206.206 69.314C206.864 69.874 207.55 70.182 208.236 70.182C209.972 70.182 211.554 68.67 211.554 66.024C211.554 63.658 210.462 62.104 208.516 62.104C207.648 62.104 206.808 62.58 206.136 63.14H206.094L205.968 62.3H204.652V73.122ZM207.928 68.852C207.452 68.852 206.864 68.67 206.262 68.152V64.386C206.906 63.756 207.48 63.448 208.082 63.448C209.37 63.448 209.888 64.442 209.888 66.052C209.888 67.858 209.048 68.852 207.928 68.852ZM215.066 70.182C215.472 70.182 215.738 70.126 215.934 70.056L215.724 68.838C215.584 68.866 215.528 68.866 215.458 68.866C215.262 68.866 215.08 68.712 215.08 68.278V58.842H213.47V68.194C213.47 69.44 213.904 70.182 215.066 70.182ZM219.46 70.182C220.384 70.182 221.21 69.72 221.91 69.118H221.966L222.092 70H223.408V65.366C223.408 63.322 222.526 62.104 220.608 62.104C219.376 62.104 218.298 62.608 217.5 63.112L218.102 64.204C218.76 63.784 219.516 63.42 220.328 63.42C221.462 63.42 221.784 64.204 221.798 65.1C218.592 65.45 217.192 66.304 217.192 67.956C217.192 69.314 218.13 70.182 219.46 70.182ZM219.95 68.908C219.264 68.908 218.746 68.6 218.746 67.844C218.746 66.976 219.516 66.388 221.798 66.122V68.012C221.168 68.586 220.622 68.908 219.95 68.908ZM228.05 70.182C228.61 70.182 229.128 70.042 229.562 69.902L229.268 68.712C229.044 68.81 228.708 68.894 228.442 68.894C227.644 68.894 227.322 68.418 227.322 67.494V63.588H229.324V62.3H227.322V60.172H225.978L225.796 62.3L224.592 62.384V63.588H225.712V67.48C225.712 69.104 226.314 70.182 228.05 70.182ZM232.489 70.182C233.413 70.182 234.239 69.72 234.939 69.118H234.995L235.121 70H236.437V65.366C236.437 63.322 235.555 62.104 233.637 62.104C232.405 62.104 231.327 62.608 230.529 63.112L231.131 64.204C231.789 63.784 232.545 63.42 233.357 63.42C234.491 63.42 234.813 64.204 234.827 65.1C231.621 65.45 230.221 66.304 230.221 67.956C230.221 69.314 231.159 70.182 232.489 70.182ZM232.979 68.908C232.293 68.908 231.775 68.6 231.775 67.844C231.775 66.976 232.545 66.388 234.827 66.122V68.012C234.197 68.586 233.651 68.908 232.979 68.908ZM238.988 70H240.598V63.588H242.152V62.3H240.598V61.32C240.598 60.382 240.934 59.934 241.62 59.934C241.886 59.934 242.18 60.004 242.46 60.13L242.782 58.912C242.432 58.772 241.942 58.66 241.424 58.66C239.702 58.66 238.988 59.752 238.988 61.334V62.3L237.938 62.384V63.588H238.988V70ZM246.478 70.182C248.382 70.182 250.104 68.712 250.104 66.15C250.104 63.588 248.382 62.104 246.478 62.104C244.574 62.104 242.852 63.588 242.852 66.15C242.852 68.712 244.574 70.182 246.478 70.182ZM246.478 68.866C245.274 68.866 244.518 67.788 244.518 66.15C244.518 64.526 245.274 63.434 246.478 63.434C247.696 63.434 248.452 64.526 248.452 66.15C248.452 67.788 247.696 68.866 246.478 68.866ZM251.997 70H253.607V65.198C254.083 63.98 254.839 63.546 255.469 63.546C255.777 63.546 255.973 63.588 256.239 63.672L256.533 62.272C256.295 62.16 256.043 62.104 255.665 62.104C254.839 62.104 254.027 62.692 253.481 63.686H253.439L253.313 62.3H251.997V70ZM257.726 70H259.336V64.54C259.966 63.84 260.54 63.49 261.058 63.49C261.94 63.49 262.346 64.022 262.346 65.352V70H263.956V64.54C264.6 63.84 265.16 63.49 265.692 63.49C266.56 63.49 266.98 64.022 266.98 65.352V70H268.59V65.156C268.59 63.196 267.834 62.104 266.224 62.104C265.258 62.104 264.474 62.706 263.718 63.518C263.382 62.636 262.738 62.104 261.59 62.104C260.638 62.104 259.868 62.678 259.21 63.378H259.168L259.042 62.3H257.726V70ZM272.739 70.182C273.663 70.182 274.489 69.72 275.189 69.118H275.245L275.371 70H276.687V65.366C276.687 63.322 275.805 62.104 273.887 62.104C272.655 62.104 271.577 62.608 270.779 63.112L271.381 64.204C272.039 63.784 272.795 63.42 273.607 63.42C274.741 63.42 275.063 64.204 275.077 65.1C271.871 65.45 270.471 66.304 270.471 67.956C270.471 69.314 271.409 70.182 272.739 70.182ZM273.229 68.908C272.543 68.908 272.025 68.6 272.025 67.844C272.025 66.976 272.795 66.388 275.077 66.122V68.012C274.447 68.586 273.901 68.908 273.229 68.908ZM282.116 70H283.726V65.198C284.202 63.98 284.958 63.546 285.588 63.546C285.896 63.546 286.092 63.588 286.358 63.672L286.652 62.272C286.414 62.16 286.162 62.104 285.784 62.104C284.958 62.104 284.146 62.692 283.6 63.686H283.558L283.432 62.3H282.116V70ZM290.901 70.182C291.909 70.182 292.791 69.846 293.505 69.37L292.945 68.348C292.385 68.712 291.797 68.922 291.111 68.922C289.781 68.922 288.857 68.04 288.731 66.57H293.729C293.771 66.374 293.813 66.066 293.813 65.744C293.813 63.574 292.707 62.104 290.663 62.104C288.871 62.104 287.149 63.658 287.149 66.15C287.149 68.698 288.815 70.182 290.901 70.182ZM288.717 65.45C288.871 64.106 289.725 63.364 290.691 63.364C291.811 63.364 292.413 64.134 292.413 65.45H288.717ZM297.226 70.182C298.15 70.182 298.976 69.72 299.676 69.118H299.732L299.858 70H301.174V65.366C301.174 63.322 300.292 62.104 298.374 62.104C297.142 62.104 296.064 62.608 295.266 63.112L295.868 64.204C296.526 63.784 297.282 63.42 298.094 63.42C299.228 63.42 299.55 64.204 299.564 65.1C296.358 65.45 294.958 66.304 294.958 67.956C294.958 69.314 295.896 70.182 297.226 70.182ZM297.716 68.908C297.03 68.908 296.512 68.6 296.512 67.844C296.512 66.976 297.282 66.388 299.564 66.122V68.012C298.934 68.586 298.388 68.908 297.716 68.908ZM305.054 70.182C305.46 70.182 305.726 70.126 305.922 70.056L305.712 68.838C305.572 68.866 305.516 68.866 305.446 68.866C305.25 68.866 305.068 68.712 305.068 68.278V58.842H303.458V68.194C303.458 69.44 303.892 70.182 305.054 70.182ZM307.628 70H309.238V64.54C309.868 63.84 310.442 63.49 310.96 63.49C311.842 63.49 312.248 64.022 312.248 65.352V70H313.858V64.54C314.502 63.84 315.062 63.49 315.594 63.49C316.462 63.49 316.882 64.022 316.882 65.352V70H318.492V65.156C318.492 63.196 317.736 62.104 316.126 62.104C315.16 62.104 314.376 62.706 313.62 63.518C313.284 62.636 312.64 62.104 311.492 62.104C310.54 62.104 309.77 62.678 309.112 63.378H309.07L308.944 62.3H307.628V70ZM324.028 70.182C325.036 70.182 325.918 69.846 326.632 69.37L326.072 68.348C325.512 68.712 324.924 68.922 324.238 68.922C322.908 68.922 321.984 68.04 321.858 66.57H326.856C326.898 66.374 326.94 66.066 326.94 65.744C326.94 63.574 325.834 62.104 323.79 62.104C321.998 62.104 320.276 63.658 320.276 66.15C320.276 68.698 321.942 70.182 324.028 70.182ZM321.844 65.45C321.998 64.106 322.852 63.364 323.818 63.364C324.938 63.364 325.54 64.134 325.54 65.45H321.844ZM328.738 70H330.348V64.54C331.02 63.854 331.51 63.49 332.224 63.49C333.134 63.49 333.526 64.022 333.526 65.352V70H335.136V65.156C335.136 63.196 334.408 62.104 332.77 62.104C331.72 62.104 330.936 62.678 330.222 63.364H330.18L330.054 62.3H328.738V70ZM340.064 70.182C340.624 70.182 341.142 70.042 341.576 69.902L341.282 68.712C341.058 68.81 340.722 68.894 340.456 68.894C339.658 68.894 339.336 68.418 339.336 67.494V63.588H341.338V62.3H339.336V60.172H337.992L337.81 62.3L336.606 62.384V63.588H337.726V67.48C337.726 69.104 338.328 70.182 340.064 70.182ZM345.998 70.182C347.006 70.182 347.888 69.846 348.602 69.37L348.042 68.348C347.482 68.712 346.894 68.922 346.208 68.922C344.878 68.922 343.954 68.04 343.828 66.57H348.826C348.868 66.374 348.91 66.066 348.91 65.744C348.91 63.574 347.804 62.104 345.76 62.104C343.968 62.104 342.246 63.658 342.246 66.15C342.246 68.698 343.912 70.182 345.998 70.182ZM343.814 65.45C343.968 64.106 344.822 63.364 345.788 63.364C346.908 63.364 347.51 64.134 347.51 65.45H343.814ZM353.853 70H355.463V64.54C356.135 63.854 356.625 63.49 357.339 63.49C358.249 63.49 358.641 64.022 358.641 65.352V70H360.251V65.156C360.251 63.196 359.523 62.104 357.885 62.104C356.835 62.104 356.065 62.678 355.393 63.322L355.463 61.796V58.842H353.853V70ZM364.368 70.182C365.292 70.182 366.118 69.72 366.818 69.118H366.874L367 70H368.316V65.366C368.316 63.322 367.434 62.104 365.516 62.104C364.284 62.104 363.206 62.608 362.408 63.112L363.01 64.204C363.668 63.784 364.424 63.42 365.236 63.42C366.37 63.42 366.692 64.204 366.706 65.1C363.5 65.45 362.1 66.304 362.1 67.956C362.1 69.314 363.038 70.182 364.368 70.182ZM364.858 68.908C364.172 68.908 363.654 68.6 363.654 67.844C363.654 66.976 364.424 66.388 366.706 66.122V68.012C366.076 68.586 365.53 68.908 364.858 68.908ZM370.601 70H372.211V65.198C372.687 63.98 373.443 63.546 374.073 63.546C374.381 63.546 374.577 63.588 374.843 63.672L375.137 62.272C374.899 62.16 374.647 62.104 374.269 62.104C373.443 62.104 372.631 62.692 372.085 63.686H372.043L371.917 62.3H370.601V70ZM377.753 70.182C378.677 70.182 379.503 69.72 380.203 69.118H380.259L380.385 70H381.701V65.366C381.701 63.322 380.819 62.104 378.901 62.104C377.669 62.104 376.591 62.608 375.793 63.112L376.395 64.204C377.053 63.784 377.809 63.42 378.621 63.42C379.755 63.42 380.077 64.204 380.091 65.1C376.885 65.45 375.485 66.304 375.485 67.956C375.485 69.314 376.423 70.182 377.753 70.182ZM378.243 68.908C377.557 68.908 377.039 68.6 377.039 67.844C377.039 66.976 377.809 66.388 380.091 66.122V68.012C379.461 68.586 378.915 68.908 378.243 68.908ZM378.873 60.984L381.463 58.548L380.343 57.484L378.047 60.186L378.873 60.984ZM383.986 70H385.596V64.54C386.268 63.854 386.758 63.49 387.472 63.49C388.382 63.49 388.774 64.022 388.774 65.352V70H390.384V65.156C390.384 63.196 389.656 62.104 388.018 62.104C386.968 62.104 386.184 62.678 385.47 63.364H385.428L385.302 62.3H383.986V70ZM398.134 70.182C399.184 70.182 399.94 69.65 400.64 68.838H400.682L400.808 70H402.124V62.3H400.514V67.648C399.87 68.46 399.38 68.796 398.666 68.796C397.756 68.796 397.378 68.264 397.378 66.948V62.3H395.768V67.144C395.768 69.104 396.482 70.182 398.134 70.182ZM404.548 70H406.158V64.54C406.83 63.854 407.32 63.49 408.034 63.49C408.944 63.49 409.336 64.022 409.336 65.352V70H410.946V65.156C410.946 63.196 410.218 62.104 408.58 62.104C407.53 62.104 406.746 62.678 406.032 63.364H405.99L405.864 62.3H404.548V70ZM419.565 70.182C420.447 70.182 421.357 69.86 422.071 69.23L421.399 68.166C420.937 68.558 420.363 68.866 419.719 68.866C418.445 68.866 417.549 67.788 417.549 66.15C417.549 64.526 418.473 63.434 419.775 63.434C420.293 63.434 420.727 63.658 421.147 64.036L421.945 62.986C421.385 62.496 420.671 62.104 419.691 62.104C417.661 62.104 415.883 63.588 415.883 66.15C415.883 68.712 417.479 70.182 419.565 70.182ZM425.331 70.182C426.255 70.182 427.081 69.72 427.781 69.118H427.837L427.963 70H429.279V65.366C429.279 63.322 428.397 62.104 426.479 62.104C425.247 62.104 424.169 62.608 423.371 63.112L423.973 64.204C424.631 63.784 425.387 63.42 426.199 63.42C427.333 63.42 427.655 64.204 427.669 65.1C424.463 65.45 423.063 66.304 423.063 67.956C423.063 69.314 424.001 70.182 425.331 70.182ZM425.821 68.908C425.135 68.908 424.617 68.6 424.617 67.844C424.617 66.976 425.387 66.388 427.669 66.122V68.012C427.039 68.586 426.493 68.908 425.821 68.908ZM431.564 70H433.174V64.54C433.804 63.84 434.378 63.49 434.896 63.49C435.778 63.49 436.184 64.022 436.184 65.352V70H437.794V64.54C438.438 63.84 438.998 63.49 439.53 63.49C440.398 63.49 440.818 64.022 440.818 65.352V70H442.428V65.156C442.428 63.196 441.672 62.104 440.062 62.104C439.096 62.104 438.312 62.706 437.556 63.518C437.22 62.636 436.576 62.104 435.428 62.104C434.476 62.104 433.706 62.678 433.048 63.378H433.006L432.88 62.3H431.564V70ZM448.341 70.182C450.077 70.182 451.659 68.67 451.659 66.024C451.659 63.658 450.553 62.104 448.607 62.104C447.795 62.104 446.969 62.538 446.311 63.112L446.367 61.796V58.842H444.757V70H446.017L446.171 69.202H446.213C446.871 69.818 447.641 70.182 448.341 70.182ZM448.033 68.852C447.557 68.852 446.955 68.67 446.367 68.152V64.386C446.997 63.756 447.585 63.448 448.187 63.448C449.475 63.448 449.993 64.442 449.993 66.052C449.993 67.858 449.153 68.852 448.033 68.852ZM453.562 70H455.172V62.3H453.562V70ZM454.36 60.858C454.948 60.858 455.368 60.48 455.368 59.892C455.368 59.318 454.948 58.94 454.36 58.94C453.772 58.94 453.366 59.318 453.366 59.892C453.366 60.48 453.772 60.858 454.36 60.858ZM460.661 70.182C462.565 70.182 464.287 68.712 464.287 66.15C464.287 63.588 462.565 62.104 460.661 62.104C458.757 62.104 457.035 63.588 457.035 66.15C457.035 68.712 458.757 70.182 460.661 70.182ZM460.661 68.866C459.457 68.866 458.701 67.788 458.701 66.15C458.701 64.526 459.457 63.434 460.661 63.434C461.879 63.434 462.635 64.526 462.635 66.15C462.635 67.788 461.879 68.866 460.661 68.866ZM469.325 73.122H470.935V70.63L470.879 69.314C471.537 69.874 472.223 70.182 472.909 70.182C474.645 70.182 476.227 68.67 476.227 66.024C476.227 63.658 475.135 62.104 473.189 62.104C472.321 62.104 471.481 62.58 470.809 63.14H470.767L470.641 62.3H469.325V73.122ZM472.601 68.852C472.125 68.852 471.537 68.67 470.935 68.152V64.386C471.579 63.756 472.153 63.448 472.755 63.448C474.043 63.448 474.561 64.442 474.561 66.052C474.561 67.858 473.721 68.852 472.601 68.852ZM481.224 70.182C483.128 70.182 484.85 68.712 484.85 66.15C484.85 63.588 483.128 62.104 481.224 62.104C479.32 62.104 477.598 63.588 477.598 66.15C477.598 68.712 479.32 70.182 481.224 70.182ZM481.224 68.866C480.02 68.866 479.264 67.788 479.264 66.15C479.264 64.526 480.02 63.434 481.224 63.434C482.442 63.434 483.198 64.526 483.198 66.15C483.198 67.788 482.442 68.866 481.224 68.866ZM488.788 70.182C490.692 70.182 491.714 69.132 491.714 67.844C491.714 66.388 490.524 65.912 489.446 65.506C488.606 65.198 487.85 64.946 487.85 64.288C487.85 63.756 488.242 63.336 489.096 63.336C489.726 63.336 490.272 63.616 490.804 64.008L491.56 63.014C490.944 62.524 490.09 62.104 489.068 62.104C487.36 62.104 486.324 63.07 486.324 64.358C486.324 65.66 487.458 66.206 488.494 66.598C489.32 66.92 490.188 67.228 490.188 67.928C490.188 68.516 489.754 68.964 488.83 68.964C488.004 68.964 487.332 68.614 486.646 68.082L485.89 69.118C486.646 69.734 487.724 70.182 488.788 70.182ZM493.429 70H495.039V62.3H493.429V70ZM494.227 60.858C494.815 60.858 495.235 60.48 495.235 59.892C495.235 59.318 494.815 58.94 494.227 58.94C493.639 58.94 493.233 59.318 493.233 59.892C493.233 60.48 493.639 60.858 494.227 60.858ZM500.038 70.182C500.598 70.182 501.116 70.042 501.55 69.902L501.256 68.712C501.032 68.81 500.696 68.894 500.43 68.894C499.632 68.894 499.31 68.418 499.31 67.494V63.588H501.312V62.3H499.31V60.172H497.966L497.784 62.3L496.58 62.384V63.588H497.7V67.48C497.7 69.104 498.302 70.182 500.038 70.182ZM502.999 70H504.609V62.3H502.999V70ZM503.797 60.858C504.385 60.858 504.805 60.48 504.805 59.892C504.805 59.318 504.385 58.94 503.797 58.94C503.209 58.94 502.803 59.318 502.803 59.892C502.803 60.48 503.209 60.858 503.797 60.858ZM508.713 70H510.575L513.235 62.3H511.667L510.351 66.444C510.141 67.2 509.903 67.984 509.679 68.74H509.623C509.399 67.984 509.175 67.2 508.951 66.444L507.635 62.3H505.983L508.713 70ZM517.646 70.182C519.55 70.182 521.272 68.712 521.272 66.15C521.272 63.588 519.55 62.104 517.646 62.104C515.742 62.104 514.02 63.588 514.02 66.15C514.02 68.712 515.742 70.182 517.646 70.182ZM517.646 68.866C516.442 68.866 515.686 67.788 515.686 66.15C515.686 64.526 516.442 63.434 517.646 63.434C518.864 63.434 519.62 64.526 519.62 66.15C519.62 67.788 518.864 68.866 517.646 68.866ZM529.516 70.182C530.524 70.182 531.406 69.846 532.12 69.37L531.56 68.348C531 68.712 530.412 68.922 529.726 68.922C528.396 68.922 527.472 68.04 527.346 66.57H532.344C532.386 66.374 532.428 66.066 532.428 65.744C532.428 63.574 531.322 62.104 529.278 62.104C527.486 62.104 525.764 63.658 525.764 66.15C525.764 68.698 527.43 70.182 529.516 70.182ZM527.332 65.45C527.486 64.106 528.34 63.364 529.306 63.364C530.426 63.364 531.028 64.134 531.028 65.45H527.332ZM534.226 70H535.836V64.54C536.508 63.854 536.998 63.49 537.712 63.49C538.622 63.49 539.014 64.022 539.014 65.352V70H540.624V65.156C540.624 63.196 539.896 62.104 538.258 62.104C537.208 62.104 536.424 62.678 535.71 63.364H535.668L535.542 62.3H534.226V70ZM548.193 70.182C550.097 70.182 551.119 69.132 551.119 67.844C551.119 66.388 549.929 65.912 548.851 65.506C548.011 65.198 547.255 64.946 547.255 64.288C547.255 63.756 547.647 63.336 548.501 63.336C549.131 63.336 549.677 63.616 550.209 64.008L550.965 63.014C550.349 62.524 549.495 62.104 548.473 62.104C546.765 62.104 545.729 63.07 545.729 64.358C545.729 65.66 546.863 66.206 547.899 66.598C548.725 66.92 549.593 67.228 549.593 67.928C549.593 68.516 549.159 68.964 548.235 68.964C547.409 68.964 546.737 68.614 546.051 68.082L545.295 69.118C546.051 69.734 547.129 70.182 548.193 70.182ZM555.101 70.182C556.151 70.182 556.907 69.65 557.607 68.838H557.649L557.775 70H559.091V62.3H557.481V67.648C556.837 68.46 556.347 68.796 555.633 68.796C554.723 68.796 554.345 68.264 554.345 66.948V62.3H552.735V67.144C552.735 69.104 553.449 70.182 555.101 70.182ZM295.978 90H297.84L300.5 82.3H298.932L297.616 86.444C297.406 87.2 297.168 87.984 296.944 88.74H296.888C296.664 87.984 296.44 87.2 296.216 86.444L294.9 82.3H293.248L295.978 90ZM301.913 90H303.523V82.3H301.913V90ZM302.711 80.858C303.299 80.858 303.719 80.48 303.719 79.892C303.719 79.318 303.299 78.94 302.711 78.94C302.123 78.94 301.717 79.318 301.717 79.892C301.717 80.48 302.123 80.858 302.711 80.858ZM308.593 90.182C309.461 90.182 310.259 89.72 310.833 89.132H310.889L311.015 90H312.331V78.842H310.721V81.698L310.791 82.972C310.161 82.44 309.601 82.104 308.719 82.104C306.997 82.104 305.415 83.658 305.415 86.15C305.415 88.712 306.661 90.182 308.593 90.182ZM308.971 88.852C307.767 88.852 307.081 87.886 307.081 86.136C307.081 84.47 307.949 83.448 309.027 83.448C309.601 83.448 310.147 83.63 310.721 84.148V87.914C310.161 88.558 309.615 88.852 308.971 88.852ZM316.571 90.182C317.495 90.182 318.321 89.72 319.021 89.118H319.077L319.203 90H320.519V85.366C320.519 83.322 319.637 82.104 317.719 82.104C316.487 82.104 315.409 82.608 314.611 83.112L315.213 84.204C315.871 83.784 316.627 83.42 317.439 83.42C318.573 83.42 318.895 84.204 318.909 85.1C315.703 85.45 314.303 86.304 314.303 87.956C314.303 89.314 315.241 90.182 316.571 90.182ZM317.061 88.908C316.375 88.908 315.857 88.6 315.857 87.844C315.857 86.976 316.627 86.388 318.909 86.122V88.012C318.279 88.586 317.733 88.908 317.061 88.908ZM327.544 90.182C327.95 90.182 328.216 90.126 328.412 90.056L328.202 88.838C328.062 88.866 328.006 88.866 327.936 88.866C327.74 88.866 327.558 88.712 327.558 88.278V78.842H325.948V88.194C325.948 89.44 326.382 90.182 327.544 90.182ZM331.938 90.182C332.862 90.182 333.688 89.72 334.388 89.118H334.444L334.57 90H335.886V85.366C335.886 83.322 335.004 82.104 333.086 82.104C331.854 82.104 330.776 82.608 329.978 83.112L330.58 84.204C331.238 83.784 331.994 83.42 332.806 83.42C333.94 83.42 334.262 84.204 334.276 85.1C331.07 85.45 329.67 86.304 329.67 87.956C329.67 89.314 330.608 90.182 331.938 90.182ZM332.428 88.908C331.742 88.908 331.224 88.6 331.224 87.844C331.224 86.976 331.994 86.388 334.276 86.122V88.012C333.646 88.586 333.1 88.908 332.428 88.908ZM341.755 90.182C343.491 90.182 345.073 88.67 345.073 86.024C345.073 83.658 343.967 82.104 342.021 82.104C341.209 82.104 340.383 82.538 339.725 83.112L339.781 81.796V78.842H338.171V90H339.431L339.585 89.202H339.627C340.285 89.818 341.055 90.182 341.755 90.182ZM341.447 88.852C340.971 88.852 340.369 88.67 339.781 88.152V84.386C340.411 83.756 340.999 83.448 341.601 83.448C342.889 83.448 343.407 84.442 343.407 86.052C343.407 87.858 342.567 88.852 341.447 88.852ZM350.056 90.182C351.96 90.182 353.682 88.712 353.682 86.15C353.682 83.588 351.96 82.104 350.056 82.104C348.152 82.104 346.43 83.588 346.43 86.15C346.43 88.712 348.152 90.182 350.056 90.182ZM350.056 88.866C348.852 88.866 348.096 87.788 348.096 86.15C348.096 84.526 348.852 83.434 350.056 83.434C351.274 83.434 352.03 84.526 352.03 86.15C352.03 87.788 351.274 88.866 350.056 88.866ZM355.575 90H357.185V85.198C357.661 83.98 358.417 83.546 359.047 83.546C359.355 83.546 359.551 83.588 359.817 83.672L360.111 82.272C359.873 82.16 359.621 82.104 359.243 82.104C358.417 82.104 357.605 82.692 357.059 83.686H357.017L356.891 82.3H355.575V90ZM362.727 90.182C363.651 90.182 364.477 89.72 365.177 89.118H365.233L365.359 90H366.675V85.366C366.675 83.322 365.793 82.104 363.875 82.104C362.643 82.104 361.565 82.608 360.767 83.112L361.369 84.204C362.027 83.784 362.783 83.42 363.595 83.42C364.729 83.42 365.051 84.204 365.065 85.1C361.859 85.45 360.459 86.304 360.459 87.956C360.459 89.314 361.397 90.182 362.727 90.182ZM363.217 88.908C362.531 88.908 362.013 88.6 362.013 87.844C362.013 86.976 362.783 86.388 365.065 86.122V88.012C364.435 88.586 363.889 88.908 363.217 88.908ZM370.556 90.182C370.962 90.182 371.228 90.126 371.424 90.056L371.214 88.838C371.074 88.866 371.018 88.866 370.948 88.866C370.752 88.866 370.57 88.712 370.57 88.278V78.842H368.96V88.194C368.96 89.44 369.394 90.182 370.556 90.182ZM374.404 86.71H375.818C375.58 84.624 378.072 83.868 378.072 81.824C378.072 80.186 376.952 79.262 375.314 79.262C374.152 79.262 373.214 79.822 372.528 80.606L373.438 81.432C373.9 80.914 374.474 80.578 375.132 80.578C376.014 80.578 376.504 81.152 376.504 81.936C376.504 83.462 374.068 84.358 374.404 86.71ZM375.132 90.182C375.734 90.182 376.21 89.72 376.21 89.062C376.21 88.39 375.734 87.914 375.132 87.914C374.516 87.914 374.054 88.39 374.054 89.062C374.054 89.72 374.516 90.182 375.132 90.182Z" fill="#484545"/>
</svg>
