<svg width="363" height="34" viewBox="0 0 363 34" fill="none" xmlns="http://www.w3.org/2000/svg">
<path d="M1.456 18H3.824V13.792H5.408C7.952 13.792 9.984 12.576 9.984 9.872C9.984 7.072 7.968 6.144 5.344 6.144H1.456V18ZM3.824 11.92V8.032H5.168C6.8 8.032 7.664 8.496 7.664 9.872C7.664 11.232 6.88 11.92 5.248 11.92H3.824ZM15.7529 18H18.1209V13.52H19.7689L22.2009 18H24.8409L22.0729 13.152C23.4329 12.624 24.3289 11.52 24.3289 9.744C24.3289 7.024 22.3609 6.144 19.8809 6.144H15.7529V18ZM18.1209 11.648V8.032H19.6569C21.1769 8.032 22.0249 8.464 22.0249 9.744C22.0249 11.008 21.1769 11.648 19.6569 11.648H18.1209ZM34.9881 18.224C38.1241 18.224 40.2841 15.872 40.2841 12.032C40.2841 8.192 38.1241 5.936 34.9881 5.936C31.8521 5.936 29.6921 8.176 29.6921 12.032C29.6921 15.872 31.8521 18.224 34.9881 18.224ZM34.9881 16.176C33.2281 16.176 32.1081 14.56 32.1081 12.032C32.1081 9.488 33.2281 7.968 34.9881 7.968C36.7481 7.968 37.8681 9.488 37.8681 12.032C37.8681 14.56 36.7481 16.176 34.9881 16.176ZM46.2216 18H48.5896V13.792H50.1736C52.7176 13.792 54.7496 12.576 54.7496 9.872C54.7496 7.072 52.7336 6.144 50.1096 6.144H46.2216V18ZM48.5896 11.92V8.032H49.9336C51.5656 8.032 52.4296 8.496 52.4296 9.872C52.4296 11.232 51.6456 11.92 50.0136 11.92H48.5896ZM65.0625 18.224C67.9585 18.224 69.6385 16.608 69.6385 12.672V6.144H67.3665V12.88C67.3665 15.344 66.4705 16.176 65.0625 16.176C63.6865 16.176 62.8225 15.344 62.8225 12.88V6.144H60.4545V12.672C60.4545 16.608 62.1825 18.224 65.0625 18.224ZM76.1123 18H83.5523V16.016H78.4803V12.848H82.6403V10.864H78.4803V8.128H83.3763V6.144H76.1123V18ZM93.117 18.224C95.853 18.224 97.469 16.576 97.469 14.64C97.469 12.928 96.525 12.016 95.085 11.424L93.533 10.768C92.525 10.368 91.693 10.064 91.693 9.216C91.693 8.432 92.349 7.968 93.389 7.968C94.365 7.968 95.149 8.32 95.901 8.944L97.101 7.456C96.141 6.48 94.765 5.936 93.389 5.936C90.989 5.936 89.293 7.424 89.293 9.36C89.293 11.088 90.493 12.048 91.693 12.544L93.277 13.216C94.333 13.664 95.053 13.936 95.053 14.816C95.053 15.648 94.397 16.176 93.165 16.176C92.125 16.176 91.005 15.648 90.157 14.864L88.797 16.496C89.949 17.6 91.533 18.224 93.117 18.224ZM105.542 18H107.91V8.128H111.27V6.144H102.214V8.128H105.542V18ZM119.391 11.824C119.743 10.592 120.095 9.248 120.399 7.952H120.479C120.815 9.232 121.135 10.592 121.503 11.824L121.855 13.12H119.039L119.391 11.824ZM115.295 18H117.695L118.527 14.96H122.367L123.199 18H125.679L121.871 6.144H119.087L115.295 18ZM134.315 18H137.691C141.179 18 143.419 16.016 143.419 12.032C143.419 8.032 141.179 6.144 137.563 6.144H134.315V18ZM136.683 16.096V8.048H137.419C139.627 8.048 141.003 9.136 141.003 12.032C141.003 14.912 139.627 16.096 137.419 16.096H136.683ZM149.362 18H156.802V16.016H151.73V12.848H155.89V10.864H151.73V8.128H156.626V6.144H149.362V18ZM169.992 18.224C172.728 18.224 174.344 16.576 174.344 14.64C174.344 12.928 173.4 12.016 171.96 11.424L170.408 10.768C169.4 10.368 168.568 10.064 168.568 9.216C168.568 8.432 169.224 7.968 170.264 7.968C171.24 7.968 172.024 8.32 172.776 8.944L173.976 7.456C173.016 6.48 171.64 5.936 170.264 5.936C167.864 5.936 166.168 7.424 166.168 9.36C166.168 11.088 167.368 12.048 168.568 12.544L170.152 13.216C171.208 13.664 171.928 13.936 171.928 14.816C171.928 15.648 171.272 16.176 170.04 16.176C169 16.176 167.88 15.648 167.032 14.864L165.672 16.496C166.824 17.6 168.408 18.224 169.992 18.224ZM184.769 18.224C187.905 18.224 190.065 15.872 190.065 12.032C190.065 8.192 187.905 5.936 184.769 5.936C181.633 5.936 179.473 8.176 179.473 12.032C179.473 15.872 181.633 18.224 184.769 18.224ZM184.769 16.176C183.009 16.176 181.889 14.56 181.889 12.032C181.889 9.488 183.009 7.968 184.769 7.968C186.529 7.968 187.649 9.488 187.649 12.032C187.649 14.56 186.529 16.176 184.769 16.176ZM196.003 18H203.187V16.016H198.371V6.144H196.003V18ZM213.422 18.224C216.318 18.224 217.998 16.608 217.998 12.672V6.144H215.726V12.88C215.726 15.344 214.83 16.176 213.422 16.176C212.046 16.176 211.182 15.344 211.182 12.88V6.144H208.814V12.672C208.814 16.608 210.542 18.224 213.422 18.224ZM229.304 18.224C230.84 18.224 232.104 17.616 233.08 16.48L231.832 15.008C231.192 15.696 230.408 16.176 229.384 16.176C227.512 16.176 226.296 14.624 226.296 12.048C226.296 9.504 227.64 7.968 229.432 7.968C230.328 7.968 231.016 8.384 231.624 8.96L232.856 7.456C232.088 6.656 230.888 5.936 229.384 5.936C226.392 5.936 223.88 8.224 223.88 12.128C223.88 16.08 226.312 18.224 229.304 18.224ZM238.612 18H240.98V6.144H238.612V18ZM252.223 18.224C255.359 18.224 257.519 15.872 257.519 12.032C257.519 8.192 255.359 5.936 252.223 5.936C249.087 5.936 246.927 8.176 246.927 12.032C246.927 15.872 249.087 18.224 252.223 18.224ZM252.223 16.176C250.463 16.176 249.343 14.56 249.343 12.032C249.343 9.488 250.463 7.968 252.223 7.968C253.983 7.968 255.102 9.488 255.102 12.032C255.102 14.56 253.983 16.176 252.223 16.176ZM251.999 5.568L255.183 3.44L253.919 1.904L250.959 4.384L251.999 5.568ZM263.456 18H265.696V13.248C265.696 11.888 265.52 10.4 265.408 9.12H265.488L266.688 11.664L270.112 18H272.512V6.144H270.272V10.88C270.272 12.224 270.464 13.792 270.576 15.024H270.496L269.312 12.464L265.872 6.144H263.456V18Z" fill="#262626"/>
</svg>
