<svg width="816" height="74" viewBox="0 0 816 74" fill="none" xmlns="http://www.w3.org/2000/svg">
<path d="M1.456 18H3.824V13.792H5.408C7.952 13.792 9.984 12.576 9.984 9.872C9.984 7.072 7.968 6.144 5.344 6.144H1.456V18ZM3.824 11.92V8.032H5.168C6.8 8.032 7.664 8.496 7.664 9.872C7.664 11.232 6.88 11.92 5.248 11.92H3.824ZM15.7529 18H18.1209V13.52H19.7689L22.2009 18H24.8409L22.0729 13.152C23.4329 12.624 24.3289 11.52 24.3289 9.744C24.3289 7.024 22.3609 6.144 19.8809 6.144H15.7529V18ZM18.1209 11.648V8.032H19.6569C21.1769 8.032 22.0249 8.464 22.0249 9.744C22.0249 11.008 21.1769 11.648 19.6569 11.648H18.1209ZM38.6131 18.224C41.7491 18.224 43.9091 15.872 43.9091 12.032C43.9091 8.192 41.7491 5.936 38.6131 5.936C35.4771 5.936 33.3171 8.176 33.3171 12.032C33.3171 15.872 35.4771 18.224 38.6131 18.224ZM38.6131 16.176C36.8531 16.176 35.7331 14.56 35.7331 12.032C35.7331 9.488 36.8531 7.968 38.6131 7.968C40.3731 7.968 41.4931 9.488 41.4931 12.032C41.4931 14.56 40.3731 16.176 38.6131 16.176ZM49.8466 18H52.2146V13.792H53.7986C56.3426 13.792 58.3746 12.576 58.3746 9.872C58.3746 7.072 56.3586 6.144 53.7346 6.144H49.8466V18ZM52.2146 11.92V8.032H53.5586C55.1906 8.032 56.0546 8.496 56.0546 9.872C56.0546 11.232 55.2706 11.92 53.6386 11.92H52.2146ZM68.6875 18.224C71.5835 18.224 73.2635 16.608 73.2635 12.672V6.144H70.9915V12.88C70.9915 15.344 70.0955 16.176 68.6875 16.176C67.3115 16.176 66.4475 15.344 66.4475 12.88V6.144H64.0795V12.672C64.0795 16.608 65.8075 18.224 68.6875 18.224ZM79.7373 18H87.1773V16.016H82.1053V12.848H86.2653V10.864H82.1053V8.128H87.0013V6.144H79.7373V18ZM96.742 18.224C99.478 18.224 101.094 16.576 101.094 14.64C101.094 12.928 100.15 12.016 98.71 11.424L97.158 10.768C96.15 10.368 95.318 10.064 95.318 9.216C95.318 8.432 95.974 7.968 97.014 7.968C97.99 7.968 98.774 8.32 99.526 8.944L100.726 7.456C99.766 6.48 98.39 5.936 97.014 5.936C94.614 5.936 92.918 7.424 92.918 9.36C92.918 11.088 94.118 12.048 95.318 12.544L96.902 13.216C97.958 13.664 98.678 13.936 98.678 14.816C98.678 15.648 98.022 16.176 96.79 16.176C95.75 16.176 94.63 15.648 93.782 14.864L92.422 16.496C93.574 17.6 95.158 18.224 96.742 18.224ZM109.167 18H111.535V8.128H114.895V6.144H105.839V8.128H109.167V18ZM123.016 11.824C123.368 10.592 123.72 9.248 124.024 7.952H124.104C124.44 9.232 124.76 10.592 125.128 11.824L125.48 13.12H122.664L123.016 11.824ZM118.92 18H121.32L122.152 14.96H125.992L126.824 18H129.304L125.496 6.144H122.712L118.92 18ZM137.94 18H141.316C144.804 18 147.044 16.016 147.044 12.032C147.044 8.032 144.804 6.144 141.188 6.144H137.94V18ZM140.308 16.096V8.048H141.044C143.252 8.048 144.628 9.136 144.628 12.032C144.628 14.912 143.252 16.096 141.044 16.096H140.308ZM152.987 18H160.427V16.016H155.355V12.848H159.515V10.864H155.355V8.128H160.251V6.144H152.987V18ZM173.617 18.224C176.353 18.224 177.969 16.576 177.969 14.64C177.969 12.928 177.025 12.016 175.585 11.424L174.033 10.768C173.025 10.368 172.193 10.064 172.193 9.216C172.193 8.432 172.849 7.968 173.889 7.968C174.865 7.968 175.649 8.32 176.401 8.944L177.601 7.456C176.641 6.48 175.265 5.936 173.889 5.936C171.489 5.936 169.793 7.424 169.793 9.36C169.793 11.088 170.993 12.048 172.193 12.544L173.777 13.216C174.833 13.664 175.553 13.936 175.553 14.816C175.553 15.648 174.897 16.176 173.665 16.176C172.625 16.176 171.505 15.648 170.657 14.864L169.297 16.496C170.449 17.6 172.033 18.224 173.617 18.224ZM188.394 18.224C191.53 18.224 193.69 15.872 193.69 12.032C193.69 8.192 191.53 5.936 188.394 5.936C185.258 5.936 183.098 8.176 183.098 12.032C183.098 15.872 185.258 18.224 188.394 18.224ZM188.394 16.176C186.634 16.176 185.514 14.56 185.514 12.032C185.514 9.488 186.634 7.968 188.394 7.968C190.154 7.968 191.274 9.488 191.274 12.032C191.274 14.56 190.154 16.176 188.394 16.176ZM199.628 18H206.812V16.016H201.996V6.144H199.628V18ZM217.047 18.224C219.943 18.224 221.623 16.608 221.623 12.672V6.144H219.351V12.88C219.351 15.344 218.455 16.176 217.047 16.176C215.671 16.176 214.807 15.344 214.807 12.88V6.144H212.439V12.672C212.439 16.608 214.167 18.224 217.047 18.224ZM232.929 18.224C234.465 18.224 235.729 17.616 236.705 16.48L235.457 15.008C234.817 15.696 234.033 16.176 233.009 16.176C231.137 16.176 229.921 14.624 229.921 12.048C229.921 9.504 231.265 7.968 233.057 7.968C233.953 7.968 234.641 8.384 235.249 8.96L236.481 7.456C235.713 6.656 234.513 5.936 233.009 5.936C230.017 5.936 227.505 8.224 227.505 12.128C227.505 16.08 229.937 18.224 232.929 18.224ZM242.237 18H244.605V6.144H242.237V18ZM255.848 18.224C258.984 18.224 261.144 15.872 261.144 12.032C261.144 8.192 258.984 5.936 255.848 5.936C252.712 5.936 250.552 8.176 250.552 12.032C250.552 15.872 252.712 18.224 255.848 18.224ZM255.848 16.176C254.088 16.176 252.968 14.56 252.968 12.032C252.968 9.488 254.088 7.968 255.848 7.968C257.608 7.968 258.727 9.488 258.727 12.032C258.727 14.56 257.608 16.176 255.848 16.176ZM255.624 5.568L258.808 3.44L257.544 1.904L254.584 4.384L255.624 5.568ZM267.081 18H269.321V13.248C269.321 11.888 269.145 10.4 269.033 9.12H269.113L270.313 11.664L273.737 18H276.137V6.144H273.897V10.88C273.897 12.224 274.089 13.792 274.201 15.024H274.121L272.937 12.464L269.497 6.144H267.081V18Z" fill="#262626"/>
<path d="M4.69492 50H5.92692V44.61C5.92692 43.532 5.82892 42.44 5.77292 41.404H5.82892L6.93492 43.518L10.6729 50H12.0029V39.724H10.7709V45.072C10.7709 46.136 10.8689 47.284 10.9389 48.32H10.8689L9.77692 46.206L6.03892 39.724H4.69492V50ZM16.8984 50.182C17.9484 50.182 18.7044 49.636 19.4184 48.81H19.4604L19.5584 50H20.6224V42.398H19.3484V47.788C18.6204 48.698 18.0744 49.076 17.2904 49.076C16.2824 49.076 15.8624 48.474 15.8624 47.06V42.398H14.5884V47.214C14.5884 49.146 15.3024 50.182 16.8984 50.182ZM26.2563 50.182C27.2923 50.182 28.1043 49.832 28.7763 49.398L28.3143 48.558C27.7543 48.936 27.1523 49.16 26.4103 49.16C24.9683 49.16 23.9743 48.124 23.8903 46.5H29.0143C29.0423 46.318 29.0703 46.052 29.0703 45.772C29.0703 43.602 27.9783 42.202 26.0463 42.202C24.2823 42.202 22.6163 43.742 22.6163 46.206C22.6163 48.712 24.2403 50.182 26.2563 50.182ZM23.8763 45.576C24.0303 44.092 24.9823 43.224 26.0603 43.224C27.2503 43.224 27.9503 44.05 27.9503 45.576H23.8763ZM32.9303 50.182C34.7223 50.182 35.7023 49.16 35.7023 47.928C35.7023 46.486 34.4843 46.038 33.3783 45.618C32.5243 45.296 31.7403 45.03 31.7403 44.302C31.7403 43.714 32.1883 43.21 33.1543 43.21C33.8263 43.21 34.3583 43.49 34.8763 43.882L35.4923 43.056C34.9043 42.594 34.0783 42.202 33.1403 42.202C31.4883 42.202 30.5083 43.154 30.5083 44.358C30.5083 45.646 31.6703 46.164 32.7343 46.556C33.5743 46.878 34.4703 47.214 34.4703 47.998C34.4703 48.656 33.9803 49.188 32.9723 49.188C32.0623 49.188 31.3763 48.824 30.7183 48.292L30.0883 49.132C30.8163 49.734 31.8523 50.182 32.9303 50.182ZM39.5707 50.182C40.0327 50.182 40.5367 50.042 40.9707 49.902L40.7187 48.95C40.4667 49.048 40.1167 49.146 39.8507 49.146C38.9687 49.146 38.6747 48.614 38.6747 47.676V43.434H40.7327V42.398H38.6747V40.256H37.6107L37.4567 42.398L36.2667 42.468V43.434H37.4007V47.648C37.4007 49.16 37.9467 50.182 39.5707 50.182ZM42.454 50H43.728V45.114C44.232 43.812 45.016 43.364 45.646 43.364C45.954 43.364 46.136 43.392 46.388 43.49L46.626 42.37C46.388 42.244 46.15 42.202 45.814 42.202C44.96 42.202 44.19 42.818 43.658 43.784H43.616L43.504 42.398H42.454V50ZM49.2489 50.182C50.1869 50.182 51.0409 49.692 51.7689 49.09H51.8109L51.9229 50H52.9729V45.324C52.9729 43.448 52.1889 42.202 50.3409 42.202C49.1229 42.202 48.0449 42.748 47.3449 43.196L47.8489 44.078C48.4509 43.672 49.2489 43.266 50.1309 43.266C51.3769 43.266 51.6989 44.204 51.6989 45.184C48.4649 45.548 47.0229 46.374 47.0229 48.026C47.0229 49.398 47.9749 50.182 49.2489 50.182ZM49.6129 49.16C48.8569 49.16 48.2689 48.81 48.2689 47.942C48.2689 46.962 49.1369 46.332 51.6989 46.024V48.152C50.9569 48.81 50.3549 49.16 49.6129 49.16ZM60.5201 50.182C62.3121 50.182 63.2921 49.16 63.2921 47.928C63.2921 46.486 62.0741 46.038 60.9681 45.618C60.1141 45.296 59.3301 45.03 59.3301 44.302C59.3301 43.714 59.7781 43.21 60.7441 43.21C61.4161 43.21 61.9481 43.49 62.4661 43.882L63.0821 43.056C62.4941 42.594 61.6681 42.202 60.7301 42.202C59.0781 42.202 58.0981 43.154 58.0981 44.358C58.0981 45.646 59.2601 46.164 60.3241 46.556C61.1641 46.878 62.0601 47.214 62.0601 47.998C62.0601 48.656 61.5701 49.188 60.5621 49.188C59.6521 49.188 58.9661 48.824 58.3081 48.292L57.6781 49.132C58.4061 49.734 59.4421 50.182 60.5201 50.182ZM68.035 50.182C69.897 50.182 71.563 48.726 71.563 46.206C71.563 43.672 69.897 42.202 68.035 42.202C66.173 42.202 64.507 43.672 64.507 46.206C64.507 48.726 66.173 50.182 68.035 50.182ZM68.035 49.118C66.719 49.118 65.837 47.956 65.837 46.206C65.837 44.456 66.719 43.266 68.035 43.266C69.351 43.266 70.247 44.456 70.247 46.206C70.247 47.956 69.351 49.118 68.035 49.118ZM74.9152 50.182C75.2652 50.182 75.4752 50.14 75.6572 50.07L75.4752 49.09C75.3352 49.118 75.2792 49.118 75.2092 49.118C75.0132 49.118 74.8452 48.964 74.8452 48.572V38.856H73.5712V48.488C73.5712 49.566 73.9632 50.182 74.9152 50.182ZM79.7754 50.182C80.8254 50.182 81.5814 49.636 82.2954 48.81H82.3374L82.4354 50H83.4994V42.398H82.2254V47.788C81.4974 48.698 80.9514 49.076 80.1674 49.076C79.1594 49.076 78.7394 48.474 78.7394 47.06V42.398H77.4654V47.214C77.4654 49.146 78.1794 50.182 79.7754 50.182ZM89.0633 50.182C89.9733 50.182 90.8413 49.832 91.5273 49.216L90.9673 48.362C90.4913 48.796 89.8753 49.118 89.1753 49.118C87.7753 49.118 86.8233 47.956 86.8233 46.206C86.8233 44.456 87.8313 43.266 89.2173 43.266C89.8193 43.266 90.2813 43.546 90.7293 43.938L91.3873 43.098C90.8413 42.622 90.1553 42.202 89.1613 42.202C87.2153 42.202 85.4933 43.672 85.4933 46.206C85.4933 48.726 87.0473 50.182 89.0633 50.182ZM93.1903 50H94.4643V42.398H93.1903V50ZM93.8343 40.83C94.3383 40.83 94.6883 40.494 94.6883 39.976C94.6883 39.486 94.3383 39.15 93.8343 39.15C93.3303 39.15 92.9803 39.486 92.9803 39.976C92.9803 40.494 93.3303 40.83 93.8343 40.83ZM99.9998 50.182C101.862 50.182 103.528 48.726 103.528 46.206C103.528 43.672 101.862 42.202 99.9998 42.202C98.1378 42.202 96.4718 43.672 96.4718 46.206C96.4718 48.726 98.1378 50.182 99.9998 50.182ZM99.9998 49.118C98.6838 49.118 97.8018 47.956 97.8018 46.206C97.8018 44.456 98.6838 43.266 99.9998 43.266C101.316 43.266 102.212 44.456 102.212 46.206C102.212 47.956 101.316 49.118 99.9998 49.118ZM99.7758 41.026L102.226 38.646L101.33 37.792L99.1178 40.396L99.7758 41.026ZM105.536 50H106.81V44.484C107.58 43.714 108.112 43.322 108.896 43.322C109.904 43.322 110.338 43.924 110.338 45.352V50H111.612V45.184C111.612 43.238 110.884 42.202 109.288 42.202C108.252 42.202 107.468 42.776 106.74 43.49H106.698L106.586 42.398H105.536V50ZM119.214 50.182C121.006 50.182 121.986 49.16 121.986 47.928C121.986 46.486 120.768 46.038 119.662 45.618C118.808 45.296 118.024 45.03 118.024 44.302C118.024 43.714 118.472 43.21 119.438 43.21C120.11 43.21 120.642 43.49 121.16 43.882L121.776 43.056C121.188 42.594 120.362 42.202 119.424 42.202C117.772 42.202 116.792 43.154 116.792 44.358C116.792 45.646 117.954 46.164 119.018 46.556C119.858 46.878 120.754 47.214 120.754 47.998C120.754 48.656 120.264 49.188 119.256 49.188C118.346 49.188 117.66 48.824 117.002 48.292L116.372 49.132C117.1 49.734 118.136 50.182 119.214 50.182ZM126.84 50.182C127.876 50.182 128.688 49.832 129.36 49.398L128.898 48.558C128.338 48.936 127.736 49.16 126.994 49.16C125.552 49.16 124.558 48.124 124.474 46.5H129.598C129.626 46.318 129.654 46.052 129.654 45.772C129.654 43.602 128.562 42.202 126.63 42.202C124.866 42.202 123.2 43.742 123.2 46.206C123.2 48.712 124.824 50.182 126.84 50.182ZM124.46 45.576C124.614 44.092 125.566 43.224 126.644 43.224C127.834 43.224 128.534 44.05 128.534 45.576H124.46ZM137.247 50.182C138.157 50.182 138.955 49.692 139.557 49.104H139.599L139.711 50H140.747V38.856H139.487V41.782L139.543 43.098C138.871 42.538 138.297 42.202 137.401 42.202C135.665 42.202 134.111 43.742 134.111 46.206C134.111 48.74 135.343 50.182 137.247 50.182ZM137.527 49.118C136.183 49.118 135.427 48.026 135.427 46.192C135.427 44.456 136.393 43.28 137.625 43.28C138.255 43.28 138.829 43.504 139.487 44.078V48.068C138.843 48.768 138.227 49.118 137.527 49.118ZM143.339 50H144.613V42.398H143.339V50ZM143.983 40.83C144.487 40.83 144.837 40.494 144.837 39.976C144.837 39.486 144.487 39.15 143.983 39.15C143.479 39.15 143.129 39.486 143.129 39.976C143.129 40.494 143.479 40.83 143.983 40.83ZM147.194 50H148.468V45.114C148.972 43.812 149.756 43.364 150.386 43.364C150.694 43.364 150.876 43.392 151.128 43.49L151.366 42.37C151.128 42.244 150.89 42.202 150.554 42.202C149.7 42.202 148.93 42.818 148.398 43.784H148.356L148.244 42.398H147.194V50ZM152.622 50H153.896V42.398H152.622V50ZM153.266 40.83C153.77 40.83 154.12 40.494 154.12 39.976C154.12 39.486 153.77 39.15 153.266 39.15C152.762 39.15 152.412 39.486 152.412 39.976C152.412 40.494 152.762 40.83 153.266 40.83ZM159.039 53.5C161.391 53.5 162.889 52.282 162.889 50.868C162.889 49.622 161.993 49.062 160.229 49.062H158.745C157.723 49.062 157.415 48.726 157.415 48.236C157.415 47.816 157.625 47.564 157.905 47.326C158.241 47.494 158.661 47.592 159.039 47.592C160.579 47.592 161.811 46.57 161.811 44.946C161.811 44.288 161.559 43.728 161.195 43.378H162.749V42.398H160.103C159.837 42.3 159.459 42.202 159.039 42.202C157.499 42.202 156.183 43.252 156.183 44.918C156.183 45.828 156.673 46.556 157.177 46.962V47.018C156.785 47.298 156.323 47.802 156.323 48.432C156.323 49.034 156.617 49.44 157.023 49.678V49.734C156.309 50.196 155.903 50.812 155.903 51.456C155.903 52.772 157.177 53.5 159.039 53.5ZM159.039 46.724C158.157 46.724 157.415 46.024 157.415 44.918C157.415 43.798 158.143 43.14 159.039 43.14C159.935 43.14 160.663 43.812 160.663 44.918C160.663 46.024 159.907 46.724 159.039 46.724ZM159.221 52.632C157.849 52.632 157.023 52.1 157.023 51.288C157.023 50.84 157.247 50.392 157.793 50C158.129 50.084 158.493 50.126 158.773 50.126H160.089C161.097 50.126 161.643 50.364 161.643 51.064C161.643 51.862 160.677 52.632 159.221 52.632ZM164.366 50H165.64V42.398H164.366V50ZM165.01 40.83C165.514 40.83 165.864 40.494 165.864 39.976C165.864 39.486 165.514 39.15 165.01 39.15C164.506 39.15 164.156 39.486 164.156 39.976C164.156 40.494 164.506 40.83 165.01 40.83ZM171.176 50.182C173.038 50.182 174.704 48.726 174.704 46.206C174.704 43.672 173.038 42.202 171.176 42.202C169.314 42.202 167.648 43.672 167.648 46.206C167.648 48.726 169.314 50.182 171.176 50.182ZM171.176 49.118C169.86 49.118 168.978 47.956 168.978 46.206C168.978 44.456 169.86 43.266 171.176 43.266C172.492 43.266 173.388 44.456 173.388 46.206C173.388 47.956 172.492 49.118 171.176 49.118ZM170.952 41.026L173.402 38.646L172.506 37.792L170.294 40.396L170.952 41.026ZM179.843 53.206H181.117V50.63L181.089 49.3C181.775 49.86 182.503 50.182 183.189 50.182C184.939 50.182 186.493 48.684 186.493 46.08C186.493 43.742 185.429 42.202 183.469 42.202C182.587 42.202 181.733 42.706 181.047 43.266H181.005L180.893 42.398H179.843V53.206ZM182.979 49.118C182.475 49.118 181.803 48.908 181.117 48.32V44.33C181.859 43.644 182.517 43.28 183.161 43.28C184.603 43.28 185.163 44.414 185.163 46.094C185.163 47.984 184.239 49.118 182.979 49.118ZM188.524 50H189.798V45.114C190.302 43.812 191.086 43.364 191.716 43.364C192.024 43.364 192.206 43.392 192.458 43.49L192.696 42.37C192.458 42.244 192.22 42.202 191.884 42.202C191.03 42.202 190.26 42.818 189.728 43.784H189.686L189.574 42.398H188.524V50ZM193.952 50H195.226V42.398H193.952V50ZM194.596 40.83C195.1 40.83 195.45 40.494 195.45 39.976C195.45 39.486 195.1 39.15 194.596 39.15C194.092 39.15 193.742 39.486 193.742 39.976C193.742 40.494 194.092 40.83 194.596 40.83ZM197.808 50H199.082V44.484C199.852 43.714 200.384 43.322 201.168 43.322C202.176 43.322 202.61 43.924 202.61 45.352V50H203.884V45.184C203.884 43.238 203.156 42.202 201.56 42.202C200.524 42.202 199.74 42.776 199.012 43.49H198.97L198.858 42.398H197.808V50ZM209.362 50.182C210.272 50.182 211.14 49.832 211.826 49.216L211.266 48.362C210.79 48.796 210.174 49.118 209.474 49.118C208.074 49.118 207.122 47.956 207.122 46.206C207.122 44.456 208.13 43.266 209.516 43.266C210.118 43.266 210.58 43.546 211.028 43.938L211.686 43.098C211.14 42.622 210.454 42.202 209.46 42.202C207.514 42.202 205.792 43.672 205.792 46.206C205.792 48.726 207.346 50.182 209.362 50.182ZM213.489 50H214.763V42.398H213.489V50ZM214.133 40.83C214.637 40.83 214.987 40.494 214.987 39.976C214.987 39.486 214.637 39.15 214.133 39.15C213.629 39.15 213.279 39.486 213.279 39.976C213.279 40.494 213.629 40.83 214.133 40.83ZM217.345 53.206H218.619V50.63L218.591 49.3C219.277 49.86 220.005 50.182 220.691 50.182C222.441 50.182 223.995 48.684 223.995 46.08C223.995 43.742 222.931 42.202 220.971 42.202C220.089 42.202 219.235 42.706 218.549 43.266H218.507L218.395 42.398H217.345V53.206ZM220.481 49.118C219.977 49.118 219.305 48.908 218.619 48.32V44.33C219.361 43.644 220.019 43.28 220.663 43.28C222.105 43.28 222.665 44.414 222.665 46.094C222.665 47.984 221.741 49.118 220.481 49.118ZM227.558 50.182C228.496 50.182 229.35 49.692 230.078 49.09H230.12L230.232 50H231.282V45.324C231.282 43.448 230.498 42.202 228.65 42.202C227.432 42.202 226.354 42.748 225.654 43.196L226.158 44.078C226.76 43.672 227.558 43.266 228.44 43.266C229.686 43.266 230.008 44.204 230.008 45.184C226.774 45.548 225.332 46.374 225.332 48.026C225.332 49.398 226.284 50.182 227.558 50.182ZM227.922 49.16C227.166 49.16 226.578 48.81 226.578 47.942C226.578 46.962 227.446 46.332 230.008 46.024V48.152C229.266 48.81 228.664 49.16 227.922 49.16ZM235.054 50.182C235.404 50.182 235.614 50.14 235.796 50.07L235.614 49.09C235.474 49.118 235.418 49.118 235.348 49.118C235.152 49.118 234.984 48.964 234.984 48.572V38.856H233.71V48.488C233.71 49.566 234.102 50.182 235.054 50.182ZM237.702 50H238.976V44.484C239.676 43.7 240.32 43.322 240.894 43.322C241.86 43.322 242.308 43.924 242.308 45.352V50H243.582V44.484C244.296 43.7 244.912 43.322 245.5 43.322C246.466 43.322 246.914 43.924 246.914 45.352V50H248.188V45.184C248.188 43.238 247.446 42.202 245.878 42.202C244.954 42.202 244.156 42.804 243.372 43.658C243.064 42.762 242.434 42.202 241.272 42.202C240.362 42.202 239.564 42.776 238.906 43.504H238.864L238.752 42.398H237.702V50ZM253.729 50.182C254.765 50.182 255.577 49.832 256.249 49.398L255.787 48.558C255.227 48.936 254.625 49.16 253.883 49.16C252.441 49.16 251.447 48.124 251.363 46.5H256.487C256.515 46.318 256.543 46.052 256.543 45.772C256.543 43.602 255.451 42.202 253.519 42.202C251.755 42.202 250.089 43.742 250.089 46.206C250.089 48.712 251.713 50.182 253.729 50.182ZM251.349 45.576C251.503 44.092 252.455 43.224 253.533 43.224C254.723 43.224 255.423 44.05 255.423 45.576H251.349ZM258.415 50H259.689V44.484C260.459 43.714 260.991 43.322 261.775 43.322C262.783 43.322 263.217 43.924 263.217 45.352V50H264.491V45.184C264.491 43.238 263.763 42.202 262.167 42.202C261.131 42.202 260.347 42.776 259.619 43.49H259.577L259.465 42.398H258.415V50ZM269.368 50.182C269.83 50.182 270.334 50.042 270.768 49.902L270.516 48.95C270.264 49.048 269.914 49.146 269.648 49.146C268.766 49.146 268.472 48.614 268.472 47.676V43.434H270.53V42.398H268.472V40.256H267.408L267.254 42.398L266.064 42.468V43.434H267.198V47.648C267.198 49.16 267.744 50.182 269.368 50.182ZM275.112 50.182C276.148 50.182 276.96 49.832 277.632 49.398L277.17 48.558C276.61 48.936 276.008 49.16 275.266 49.16C273.824 49.16 272.83 48.124 272.746 46.5H277.87C277.898 46.318 277.926 46.052 277.926 45.772C277.926 43.602 276.834 42.202 274.902 42.202C273.138 42.202 271.472 43.742 271.472 46.206C271.472 48.712 273.096 50.182 275.112 50.182ZM272.732 45.576C272.886 44.092 273.838 43.224 274.916 43.224C276.106 43.224 276.806 44.05 276.806 45.576H272.732ZM284.679 50.182C285.617 50.182 286.471 49.692 287.199 49.09H287.241L287.353 50H288.403V45.324C288.403 43.448 287.619 42.202 285.771 42.202C284.553 42.202 283.475 42.748 282.775 43.196L283.279 44.078C283.881 43.672 284.679 43.266 285.561 43.266C286.807 43.266 287.129 44.204 287.129 45.184C283.895 45.548 282.453 46.374 282.453 48.026C282.453 49.398 283.405 50.182 284.679 50.182ZM285.043 49.16C284.287 49.16 283.699 48.81 283.699 47.942C283.699 46.962 284.567 46.332 287.129 46.024V48.152C286.387 48.81 285.785 49.16 285.043 49.16ZM293.962 50H295.236V44.484C296.006 43.714 296.538 43.322 297.322 43.322C298.33 43.322 298.764 43.924 298.764 45.352V50H300.038V45.184C300.038 43.238 299.31 42.202 297.714 42.202C296.678 42.202 295.894 42.776 295.194 43.476L295.236 41.908V38.856H293.962V50ZM304.216 50.182C305.154 50.182 306.008 49.692 306.736 49.09H306.778L306.89 50H307.94V45.324C307.94 43.448 307.156 42.202 305.308 42.202C304.09 42.202 303.012 42.748 302.312 43.196L302.816 44.078C303.418 43.672 304.216 43.266 305.098 43.266C306.344 43.266 306.666 44.204 306.666 45.184C303.432 45.548 301.99 46.374 301.99 48.026C301.99 49.398 302.942 50.182 304.216 50.182ZM304.58 49.16C303.824 49.16 303.236 48.81 303.236 47.942C303.236 46.962 304.104 46.332 306.666 46.024V48.152C305.924 48.81 305.322 49.16 304.58 49.16ZM313.364 50.182C314.274 50.182 315.142 49.832 315.828 49.216L315.268 48.362C314.792 48.796 314.176 49.118 313.476 49.118C312.076 49.118 311.124 47.956 311.124 46.206C311.124 44.456 312.132 43.266 313.518 43.266C314.12 43.266 314.582 43.546 315.03 43.938L315.688 43.098C315.142 42.622 314.456 42.202 313.462 42.202C311.516 42.202 309.794 43.672 309.794 46.206C309.794 48.726 311.348 50.182 313.364 50.182ZM320.215 50.182C321.251 50.182 322.063 49.832 322.735 49.398L322.273 48.558C321.713 48.936 321.111 49.16 320.369 49.16C318.927 49.16 317.933 48.124 317.849 46.5H322.973C323.001 46.318 323.029 46.052 323.029 45.772C323.029 43.602 321.937 42.202 320.005 42.202C318.241 42.202 316.575 43.742 316.575 46.206C316.575 48.712 318.199 50.182 320.215 50.182ZM317.835 45.576C317.989 44.092 318.941 43.224 320.019 43.224C321.209 43.224 321.909 44.05 321.909 45.576H317.835ZM324.901 50H326.175V45.114C326.679 43.812 327.463 43.364 328.093 43.364C328.401 43.364 328.583 43.392 328.835 43.49L329.073 42.37C328.835 42.244 328.597 42.202 328.261 42.202C327.407 42.202 326.637 42.818 326.105 43.784H326.063L325.951 42.398H324.901V50ZM335.672 50.182C336.722 50.182 337.478 49.636 338.192 48.81H338.234L338.332 50H339.396V42.398H338.122V47.788C337.394 48.698 336.848 49.076 336.064 49.076C335.056 49.076 334.636 48.474 334.636 47.06V42.398H333.362V47.214C333.362 49.146 334.076 50.182 335.672 50.182ZM341.964 50H343.238V44.484C344.008 43.714 344.54 43.322 345.324 43.322C346.332 43.322 346.766 43.924 346.766 45.352V50H348.04V45.184C348.04 43.238 347.312 42.202 345.716 42.202C344.68 42.202 343.896 42.776 343.168 43.49H343.126L343.014 42.398H341.964V50ZM352.272 50.182C353.21 50.182 354.064 49.692 354.792 49.09H354.834L354.946 50H355.996V45.324C355.996 43.448 355.212 42.202 353.364 42.202C352.146 42.202 351.068 42.748 350.368 43.196L350.872 44.078C351.474 43.672 352.272 43.266 353.154 43.266C354.4 43.266 354.722 44.204 354.722 45.184C351.488 45.548 350.046 46.374 350.046 48.026C350.046 49.398 350.998 50.182 352.272 50.182ZM352.636 49.16C351.88 49.16 351.292 48.81 351.292 47.942C351.292 46.962 352.16 46.332 354.722 46.024V48.152C353.98 48.81 353.378 49.16 352.636 49.16ZM361.556 53.206H362.83V50.63L362.802 49.3C363.488 49.86 364.216 50.182 364.902 50.182C366.652 50.182 368.206 48.684 368.206 46.08C368.206 43.742 367.142 42.202 365.182 42.202C364.3 42.202 363.446 42.706 362.76 43.266H362.718L362.606 42.398H361.556V53.206ZM364.692 49.118C364.188 49.118 363.516 48.908 362.83 48.32V44.33C363.572 43.644 364.23 43.28 364.874 43.28C366.316 43.28 366.876 44.414 366.876 46.094C366.876 47.984 365.952 49.118 364.692 49.118ZM371.581 50.182C371.931 50.182 372.141 50.14 372.323 50.07L372.141 49.09C372.001 49.118 371.945 49.118 371.875 49.118C371.679 49.118 371.511 48.964 371.511 48.572V38.856H370.237V48.488C370.237 49.566 370.629 50.182 371.581 50.182ZM375.979 50.182C376.917 50.182 377.771 49.692 378.499 49.09H378.541L378.653 50H379.703V45.324C379.703 43.448 378.919 42.202 377.071 42.202C375.853 42.202 374.775 42.748 374.075 43.196L374.579 44.078C375.181 43.672 375.979 43.266 376.861 43.266C378.107 43.266 378.429 44.204 378.429 45.184C375.195 45.548 373.753 46.374 373.753 48.026C373.753 49.398 374.705 50.182 375.979 50.182ZM376.343 49.16C375.587 49.16 374.999 48.81 374.999 47.942C374.999 46.962 375.867 46.332 378.429 46.024V48.152C377.687 48.81 377.085 49.16 376.343 49.16ZM384.321 50.182C384.783 50.182 385.287 50.042 385.721 49.902L385.469 48.95C385.217 49.048 384.867 49.146 384.601 49.146C383.719 49.146 383.425 48.614 383.425 47.676V43.434H385.483V42.398H383.425V40.256H382.361L382.207 42.398L381.017 42.468V43.434H382.151V47.648C382.151 49.16 382.697 50.182 384.321 50.182ZM388.612 50.182C389.55 50.182 390.404 49.692 391.132 49.09H391.174L391.286 50H392.336V45.324C392.336 43.448 391.552 42.202 389.704 42.202C388.486 42.202 387.408 42.748 386.708 43.196L387.212 44.078C387.814 43.672 388.612 43.266 389.494 43.266C390.74 43.266 391.062 44.204 391.062 45.184C387.828 45.548 386.386 46.374 386.386 48.026C386.386 49.398 387.338 50.182 388.612 50.182ZM388.976 49.16C388.22 49.16 387.632 48.81 387.632 47.942C387.632 46.962 388.5 46.332 391.062 46.024V48.152C390.32 48.81 389.718 49.16 388.976 49.16ZM394.975 50H396.249V43.434H397.859V42.398H396.249V41.194C396.249 40.214 396.599 39.696 397.327 39.696C397.593 39.696 397.901 39.766 398.181 39.892L398.461 38.926C398.111 38.772 397.649 38.674 397.187 38.674C395.675 38.674 394.975 39.64 394.975 41.18V42.398L393.939 42.468V43.434H394.975V50ZM402.121 50.182C403.983 50.182 405.649 48.726 405.649 46.206C405.649 43.672 403.983 42.202 402.121 42.202C400.259 42.202 398.593 43.672 398.593 46.206C398.593 48.726 400.259 50.182 402.121 50.182ZM402.121 49.118C400.805 49.118 399.923 47.956 399.923 46.206C399.923 44.456 400.805 43.266 402.121 43.266C403.437 43.266 404.333 44.456 404.333 46.206C404.333 47.956 403.437 49.118 402.121 49.118ZM407.657 50H408.931V45.114C409.435 43.812 410.219 43.364 410.849 43.364C411.157 43.364 411.339 43.392 411.591 43.49L411.829 42.37C411.591 42.244 411.353 42.202 411.017 42.202C410.163 42.202 409.393 42.818 408.861 43.784H408.819L408.707 42.398H407.657V50ZM413.085 50H414.359V44.484C415.059 43.7 415.703 43.322 416.277 43.322C417.243 43.322 417.691 43.924 417.691 45.352V50H418.965V44.484C419.679 43.7 420.295 43.322 420.883 43.322C421.849 43.322 422.297 43.924 422.297 45.352V50H423.571V45.184C423.571 43.238 422.829 42.202 421.261 42.202C420.337 42.202 419.539 42.804 418.755 43.658C418.447 42.762 417.817 42.202 416.655 42.202C415.745 42.202 414.947 42.776 414.289 43.504H414.247L414.135 42.398H413.085V50ZM427.796 50.182C428.734 50.182 429.588 49.692 430.316 49.09H430.358L430.47 50H431.52V45.324C431.52 43.448 430.736 42.202 428.888 42.202C427.67 42.202 426.592 42.748 425.892 43.196L426.396 44.078C426.998 43.672 427.796 43.266 428.678 43.266C429.924 43.266 430.246 44.204 430.246 45.184C427.012 45.548 425.57 46.374 425.57 48.026C425.57 49.398 426.522 50.182 427.796 50.182ZM428.16 49.16C427.404 49.16 426.816 48.81 426.816 47.942C426.816 46.962 427.684 46.332 430.246 46.024V48.152C429.504 48.81 428.902 49.16 428.16 49.16ZM439.669 50.182C440.579 50.182 441.377 49.692 441.979 49.104H442.021L442.133 50H443.169V38.856H441.909V41.782L441.965 43.098C441.293 42.538 440.719 42.202 439.823 42.202C438.087 42.202 436.533 43.742 436.533 46.206C436.533 48.74 437.765 50.182 439.669 50.182ZM439.949 49.118C438.605 49.118 437.849 48.026 437.849 46.192C437.849 44.456 438.815 43.28 440.047 43.28C440.677 43.28 441.251 43.504 441.909 44.078V48.068C441.265 48.768 440.649 49.118 439.949 49.118ZM448.715 50.182C450.577 50.182 452.243 48.726 452.243 46.206C452.243 43.672 450.577 42.202 448.715 42.202C446.853 42.202 445.187 43.672 445.187 46.206C445.187 48.726 446.853 50.182 448.715 50.182ZM448.715 49.118C447.399 49.118 446.517 47.956 446.517 46.206C446.517 44.456 447.399 43.266 448.715 43.266C450.031 43.266 450.927 44.456 450.927 46.206C450.927 47.956 450.031 49.118 448.715 49.118ZM454.251 50H455.525V44.484C456.295 43.714 456.827 43.322 457.611 43.322C458.619 43.322 459.053 43.924 459.053 45.352V50H460.327V45.184C460.327 43.238 459.599 42.202 458.003 42.202C456.967 42.202 456.183 42.776 455.455 43.49H455.413L455.301 42.398H454.251V50ZM465.399 50.182C466.309 50.182 467.107 49.692 467.709 49.104H467.751L467.863 50H468.899V38.856H467.639V41.782L467.695 43.098C467.023 42.538 466.449 42.202 465.553 42.202C463.817 42.202 462.263 43.742 462.263 46.206C462.263 48.74 463.495 50.182 465.399 50.182ZM465.679 49.118C464.335 49.118 463.579 48.026 463.579 46.192C463.579 44.456 464.545 43.28 465.777 43.28C466.407 43.28 466.981 43.504 467.639 44.078V48.068C466.995 48.768 466.379 49.118 465.679 49.118ZM474.557 50.182C475.593 50.182 476.405 49.832 477.077 49.398L476.615 48.558C476.055 48.936 475.453 49.16 474.711 49.16C473.269 49.16 472.275 48.124 472.191 46.5H477.315C477.343 46.318 477.371 46.052 477.371 45.772C477.371 43.602 476.279 42.202 474.347 42.202C472.583 42.202 470.917 43.742 470.917 46.206C470.917 48.712 472.541 50.182 474.557 50.182ZM472.177 45.576C472.331 44.092 473.283 43.224 474.361 43.224C475.551 43.224 476.251 44.05 476.251 45.576H472.177ZM484.768 50.182C485.23 50.182 485.734 50.042 486.168 49.902L485.916 48.95C485.664 49.048 485.314 49.146 485.048 49.146C484.166 49.146 483.872 48.614 483.872 47.676V43.434H485.93V42.398H483.872V40.256H482.808L482.654 42.398L481.464 42.468V43.434H482.598V47.648C482.598 49.16 483.144 50.182 484.768 50.182ZM489.059 50.182C489.997 50.182 490.851 49.692 491.579 49.09H491.621L491.733 50H492.783V45.324C492.783 43.448 491.999 42.202 490.151 42.202C488.933 42.202 487.855 42.748 487.155 43.196L487.659 44.078C488.261 43.672 489.059 43.266 489.941 43.266C491.187 43.266 491.509 44.204 491.509 45.184C488.275 45.548 486.833 46.374 486.833 48.026C486.833 49.398 487.785 50.182 489.059 50.182ZM489.423 49.16C488.667 49.16 488.079 48.81 488.079 47.942C488.079 46.962 488.947 46.332 491.509 46.024V48.152C490.767 48.81 490.165 49.16 489.423 49.16ZM495.212 50H496.486V44.484C497.256 43.714 497.788 43.322 498.572 43.322C499.58 43.322 500.014 43.924 500.014 45.352V50H501.288V45.184C501.288 43.238 500.56 42.202 498.964 42.202C497.928 42.202 497.144 42.776 496.416 43.49H496.374L496.262 42.398H495.212V50ZM506.164 50.182C506.626 50.182 507.13 50.042 507.564 49.902L507.312 48.95C507.06 49.048 506.71 49.146 506.444 49.146C505.562 49.146 505.268 48.614 505.268 47.676V43.434H507.326V42.398H505.268V40.256H504.204L504.05 42.398L502.86 42.468V43.434H503.994V47.648C503.994 49.16 504.54 50.182 506.164 50.182ZM511.797 50.182C513.659 50.182 515.325 48.726 515.325 46.206C515.325 43.672 513.659 42.202 511.797 42.202C509.935 42.202 508.269 43.672 508.269 46.206C508.269 48.726 509.935 50.182 511.797 50.182ZM511.797 49.118C510.481 49.118 509.599 47.956 509.599 46.206C509.599 44.456 510.481 43.266 511.797 43.266C513.113 43.266 514.009 44.456 514.009 46.206C514.009 47.956 513.113 49.118 511.797 49.118ZM520.464 53.206H521.738V50.63L521.71 49.3C522.396 49.86 523.124 50.182 523.81 50.182C525.56 50.182 527.114 48.684 527.114 46.08C527.114 43.742 526.05 42.202 524.09 42.202C523.208 42.202 522.354 42.706 521.668 43.266H521.626L521.514 42.398H520.464V53.206ZM523.6 49.118C523.096 49.118 522.424 48.908 521.738 48.32V44.33C522.48 43.644 523.138 43.28 523.782 43.28C525.224 43.28 525.784 44.414 525.784 46.094C525.784 47.984 524.86 49.118 523.6 49.118ZM532.211 50.182C533.247 50.182 534.059 49.832 534.731 49.398L534.269 48.558C533.709 48.936 533.107 49.16 532.365 49.16C530.923 49.16 529.929 48.124 529.845 46.5H534.969C534.997 46.318 535.025 46.052 535.025 45.772C535.025 43.602 533.933 42.202 532.001 42.202C530.237 42.202 528.571 43.742 528.571 46.206C528.571 48.712 530.195 50.182 532.211 50.182ZM529.831 45.576C529.985 44.092 530.937 43.224 532.015 43.224C533.205 43.224 533.905 44.05 533.905 45.576H529.831ZM536.897 50H538.171V45.114C538.675 43.812 539.459 43.364 540.089 43.364C540.397 43.364 540.579 43.392 540.831 43.49L541.069 42.37C540.831 42.244 540.593 42.202 540.257 42.202C539.403 42.202 538.633 42.818 538.101 43.784H538.059L537.947 42.398H536.897V50ZM544.258 50.182C546.05 50.182 547.03 49.16 547.03 47.928C547.03 46.486 545.812 46.038 544.706 45.618C543.852 45.296 543.068 45.03 543.068 44.302C543.068 43.714 543.516 43.21 544.482 43.21C545.154 43.21 545.686 43.49 546.204 43.882L546.82 43.056C546.232 42.594 545.406 42.202 544.468 42.202C542.816 42.202 541.836 43.154 541.836 44.358C541.836 45.646 542.998 46.164 544.062 46.556C544.902 46.878 545.798 47.214 545.798 47.998C545.798 48.656 545.308 49.188 544.3 49.188C543.39 49.188 542.704 48.824 542.046 48.292L541.416 49.132C542.144 49.734 543.18 50.182 544.258 50.182ZM551.773 50.182C553.635 50.182 555.301 48.726 555.301 46.206C555.301 43.672 553.635 42.202 551.773 42.202C549.911 42.202 548.245 43.672 548.245 46.206C548.245 48.726 549.911 50.182 551.773 50.182ZM551.773 49.118C550.457 49.118 549.575 47.956 549.575 46.206C549.575 44.456 550.457 43.266 551.773 43.266C553.089 43.266 553.985 44.456 553.985 46.206C553.985 47.956 553.089 49.118 551.773 49.118ZM557.309 50H558.583V44.484C559.353 43.714 559.885 43.322 560.669 43.322C561.677 43.322 562.111 43.924 562.111 45.352V50H563.385V45.184C563.385 43.238 562.657 42.202 561.061 42.202C560.025 42.202 559.241 42.776 558.513 43.49H558.471L558.359 42.398H557.309V50ZM567.618 50.182C568.556 50.182 569.41 49.692 570.138 49.09H570.18L570.292 50H571.342V45.324C571.342 43.448 570.558 42.202 568.71 42.202C567.492 42.202 566.414 42.748 565.714 43.196L566.218 44.078C566.82 43.672 567.618 43.266 568.5 43.266C569.746 43.266 570.068 44.204 570.068 45.184C566.834 45.548 565.392 46.374 565.392 48.026C565.392 49.398 566.344 50.182 567.618 50.182ZM567.982 49.16C567.226 49.16 566.638 48.81 566.638 47.942C566.638 46.962 567.506 46.332 570.068 46.024V48.152C569.326 48.81 568.724 49.16 567.982 49.16ZM575.758 50.182C577.55 50.182 578.53 49.16 578.53 47.928C578.53 46.486 577.312 46.038 576.206 45.618C575.352 45.296 574.568 45.03 574.568 44.302C574.568 43.714 575.016 43.21 575.982 43.21C576.654 43.21 577.186 43.49 577.704 43.882L578.32 43.056C577.732 42.594 576.906 42.202 575.968 42.202C574.316 42.202 573.336 43.154 573.336 44.358C573.336 45.646 574.498 46.164 575.562 46.556C576.402 46.878 577.298 47.214 577.298 47.998C577.298 48.656 576.808 49.188 575.8 49.188C574.89 49.188 574.204 48.824 573.546 48.292L572.916 49.132C573.644 49.734 574.68 50.182 575.758 50.182ZM583.45 50H584.724V44.484C585.494 43.714 586.026 43.322 586.81 43.322C587.818 43.322 588.252 43.924 588.252 45.352V50H589.526V45.184C589.526 43.238 588.798 42.202 587.202 42.202C586.166 42.202 585.382 42.776 584.654 43.49H584.612L584.5 42.398H583.45V50ZM593.759 50.182C594.697 50.182 595.551 49.692 596.279 49.09H596.321L596.433 50H597.483V45.324C597.483 43.448 596.699 42.202 594.851 42.202C593.633 42.202 592.555 42.748 591.855 43.196L592.359 44.078C592.961 43.672 593.759 43.266 594.641 43.266C595.887 43.266 596.209 44.204 596.209 45.184C592.975 45.548 591.533 46.374 591.533 48.026C591.533 49.398 592.485 50.182 593.759 50.182ZM594.123 49.16C593.367 49.16 592.779 48.81 592.779 47.942C592.779 46.962 593.647 46.332 596.209 46.024V48.152C595.467 48.81 594.865 49.16 594.123 49.16ZM602.1 50.182C602.562 50.182 603.066 50.042 603.5 49.902L603.248 48.95C602.996 49.048 602.646 49.146 602.38 49.146C601.498 49.146 601.204 48.614 601.204 47.676V43.434H603.262V42.398H601.204V40.256H600.14L599.986 42.398L598.796 42.468V43.434H599.93V47.648C599.93 49.16 600.476 50.182 602.1 50.182ZM607.195 50.182C608.245 50.182 609.001 49.636 609.715 48.81H609.757L609.855 50H610.919V42.398H609.645V47.788C608.917 48.698 608.371 49.076 607.587 49.076C606.579 49.076 606.159 48.474 606.159 47.06V42.398H604.885V47.214C604.885 49.146 605.599 50.182 607.195 50.182ZM613.487 50H614.761V45.114C615.265 43.812 616.049 43.364 616.679 43.364C616.987 43.364 617.169 43.392 617.421 43.49L617.659 42.37C617.421 42.244 617.183 42.202 616.847 42.202C615.993 42.202 615.223 42.818 614.691 43.784H614.649L614.537 42.398H613.487V50ZM620.282 50.182C621.22 50.182 622.074 49.692 622.802 49.09H622.844L622.956 50H624.006V45.324C624.006 43.448 623.222 42.202 621.374 42.202C620.156 42.202 619.078 42.748 618.378 43.196L618.882 44.078C619.484 43.672 620.282 43.266 621.164 43.266C622.41 43.266 622.732 44.204 622.732 45.184C619.498 45.548 618.056 46.374 618.056 48.026C618.056 49.398 619.008 50.182 620.282 50.182ZM620.646 49.16C619.89 49.16 619.302 48.81 619.302 47.942C619.302 46.962 620.17 46.332 622.732 46.024V48.152C621.99 48.81 621.388 49.16 620.646 49.16ZM627.778 50.182C628.128 50.182 628.338 50.14 628.52 50.07L628.338 49.09C628.198 49.118 628.142 49.118 628.072 49.118C627.876 49.118 627.708 48.964 627.708 48.572V38.856H626.434V48.488C626.434 49.566 626.826 50.182 627.778 50.182ZM633.493 50.182C634.529 50.182 635.341 49.832 636.013 49.398L635.551 48.558C634.991 48.936 634.389 49.16 633.647 49.16C632.205 49.16 631.211 48.124 631.127 46.5H636.251C636.279 46.318 636.307 46.052 636.307 45.772C636.307 43.602 635.215 42.202 633.283 42.202C631.519 42.202 629.853 43.742 629.853 46.206C629.853 48.712 631.477 50.182 633.493 50.182ZM631.113 45.576C631.267 44.092 632.219 43.224 633.297 43.224C634.487 43.224 635.187 44.05 635.187 45.576H631.113ZM640.167 50.182C641.959 50.182 642.939 49.16 642.939 47.928C642.939 46.486 641.721 46.038 640.615 45.618C639.761 45.296 638.977 45.03 638.977 44.302C638.977 43.714 639.425 43.21 640.391 43.21C641.063 43.21 641.595 43.49 642.113 43.882L642.729 43.056C642.141 42.594 641.315 42.202 640.377 42.202C638.725 42.202 637.745 43.154 637.745 44.358C637.745 45.646 638.907 46.164 639.971 46.556C640.811 46.878 641.707 47.214 641.707 47.998C641.707 48.656 641.217 49.188 640.209 49.188C639.299 49.188 638.613 48.824 637.955 48.292L637.325 49.132C638.053 49.734 639.089 50.182 640.167 50.182ZM650.854 50.182C651.764 50.182 652.632 49.832 653.318 49.216L652.758 48.362C652.282 48.796 651.666 49.118 650.966 49.118C649.566 49.118 648.614 47.956 648.614 46.206C648.614 44.456 649.622 43.266 651.008 43.266C651.61 43.266 652.072 43.546 652.52 43.938L653.178 43.098C652.632 42.622 651.946 42.202 650.952 42.202C649.006 42.202 647.284 43.672 647.284 46.206C647.284 48.726 648.838 50.182 650.854 50.182ZM657.594 50.182C659.456 50.182 661.122 48.726 661.122 46.206C661.122 43.672 659.456 42.202 657.594 42.202C655.732 42.202 654.066 43.672 654.066 46.206C654.066 48.726 655.732 50.182 657.594 50.182ZM657.594 49.118C656.278 49.118 655.396 47.956 655.396 46.206C655.396 44.456 656.278 43.266 657.594 43.266C658.91 43.266 659.806 44.456 659.806 46.206C659.806 47.956 658.91 49.118 657.594 49.118ZM663.13 50H664.404V44.484C665.104 43.7 665.748 43.322 666.322 43.322C667.288 43.322 667.736 43.924 667.736 45.352V50H669.01V44.484C669.724 43.7 670.34 43.322 670.928 43.322C671.894 43.322 672.342 43.924 672.342 45.352V50H673.616V45.184C673.616 43.238 672.874 42.202 671.306 42.202C670.382 42.202 669.584 42.804 668.8 43.658C668.492 42.762 667.862 42.202 666.7 42.202C665.79 42.202 664.992 42.776 664.334 43.504H664.292L664.18 42.398H663.13V50ZM679.045 50.182C680.907 50.182 682.573 48.726 682.573 46.206C682.573 43.672 680.907 42.202 679.045 42.202C677.183 42.202 675.517 43.672 675.517 46.206C675.517 48.726 677.183 50.182 679.045 50.182ZM679.045 49.118C677.729 49.118 676.847 47.956 676.847 46.206C676.847 44.456 677.729 43.266 679.045 43.266C680.361 43.266 681.257 44.456 681.257 46.206C681.257 47.956 680.361 49.118 679.045 49.118ZM687.712 50H688.986V42.398H687.712V50ZM688.356 40.83C688.86 40.83 689.21 40.494 689.21 39.976C689.21 39.486 688.86 39.15 688.356 39.15C687.852 39.15 687.502 39.486 687.502 39.976C687.502 40.494 687.852 40.83 688.356 40.83ZM691.567 50H692.841V44.484C693.611 43.714 694.143 43.322 694.927 43.322C695.935 43.322 696.369 43.924 696.369 45.352V50H697.643V45.184C697.643 43.238 696.915 42.202 695.319 42.202C694.283 42.202 693.499 42.776 692.771 43.49H692.729L692.617 42.398H691.567V50ZM702.114 50.182C703.906 50.182 704.886 49.16 704.886 47.928C704.886 46.486 703.668 46.038 702.562 45.618C701.708 45.296 700.924 45.03 700.924 44.302C700.924 43.714 701.372 43.21 702.338 43.21C703.01 43.21 703.542 43.49 704.06 43.882L704.676 43.056C704.088 42.594 703.262 42.202 702.324 42.202C700.672 42.202 699.692 43.154 699.692 44.358C699.692 45.646 700.854 46.164 701.918 46.556C702.758 46.878 703.654 47.214 703.654 47.998C703.654 48.656 703.164 49.188 702.156 49.188C701.246 49.188 700.56 48.824 699.902 48.292L699.272 49.132C700 49.734 701.036 50.182 702.114 50.182ZM708.754 50.182C709.216 50.182 709.72 50.042 710.154 49.902L709.902 48.95C709.65 49.048 709.3 49.146 709.034 49.146C708.152 49.146 707.858 48.614 707.858 47.676V43.434H709.916V42.398H707.858V40.256H706.794L706.64 42.398L705.45 42.468V43.434H706.584V47.648C706.584 49.16 707.13 50.182 708.754 50.182ZM711.638 50H712.912V42.398H711.638V50ZM712.282 40.83C712.786 40.83 713.136 40.494 713.136 39.976C713.136 39.486 712.786 39.15 712.282 39.15C711.778 39.15 711.428 39.486 711.428 39.976C711.428 40.494 711.778 40.83 712.282 40.83ZM717.887 50.182C718.349 50.182 718.853 50.042 719.287 49.902L719.035 48.95C718.783 49.048 718.433 49.146 718.167 49.146C717.285 49.146 716.991 48.614 716.991 47.676V43.434H719.049V42.398H716.991V40.256H715.927L715.773 42.398L714.583 42.468V43.434H715.717V47.648C715.717 49.16 716.263 50.182 717.887 50.182ZM722.982 50.182C724.032 50.182 724.788 49.636 725.502 48.81H725.544L725.642 50H726.706V42.398H725.432V47.788C724.704 48.698 724.158 49.076 723.374 49.076C722.366 49.076 721.946 48.474 721.946 47.06V42.398H720.672V47.214C720.672 49.146 721.386 50.182 722.982 50.182ZM732.27 50.182C733.18 50.182 734.048 49.832 734.734 49.216L734.174 48.362C733.698 48.796 733.082 49.118 732.382 49.118C730.982 49.118 730.03 47.956 730.03 46.206C730.03 44.456 731.038 43.266 732.424 43.266C733.026 43.266 733.488 43.546 733.936 43.938L734.594 43.098C734.048 42.622 733.362 42.202 732.368 42.202C730.422 42.202 728.7 43.672 728.7 46.206C728.7 48.726 730.254 50.182 732.27 50.182ZM736.397 50H737.671V42.398H736.397V50ZM737.041 40.83C737.545 40.83 737.895 40.494 737.895 39.976C737.895 39.486 737.545 39.15 737.041 39.15C736.537 39.15 736.187 39.486 736.187 39.976C736.187 40.494 736.537 40.83 737.041 40.83ZM743.207 50.182C745.069 50.182 746.735 48.726 746.735 46.206C746.735 43.672 745.069 42.202 743.207 42.202C741.345 42.202 739.679 43.672 739.679 46.206C739.679 48.726 741.345 50.182 743.207 50.182ZM743.207 49.118C741.891 49.118 741.009 47.956 741.009 46.206C741.009 44.456 741.891 43.266 743.207 43.266C744.523 43.266 745.419 44.456 745.419 46.206C745.419 47.956 744.523 49.118 743.207 49.118ZM748.743 50H750.017V44.484C750.787 43.714 751.319 43.322 752.103 43.322C753.111 43.322 753.545 43.924 753.545 45.352V50H754.819V45.184C754.819 43.238 754.091 42.202 752.495 42.202C751.459 42.202 750.675 42.776 749.947 43.49H749.905L749.793 42.398H748.743V50ZM760.368 50.182C761.404 50.182 762.216 49.832 762.888 49.398L762.426 48.558C761.866 48.936 761.264 49.16 760.522 49.16C759.08 49.16 758.086 48.124 758.002 46.5H763.126C763.154 46.318 763.182 46.052 763.182 45.772C763.182 43.602 762.09 42.202 760.158 42.202C758.394 42.202 756.728 43.742 756.728 46.206C756.728 48.712 758.352 50.182 760.368 50.182ZM757.988 45.576C758.142 44.092 759.094 43.224 760.172 43.224C761.362 43.224 762.062 44.05 762.062 45.576H757.988ZM767.042 50.182C768.834 50.182 769.814 49.16 769.814 47.928C769.814 46.486 768.596 46.038 767.49 45.618C766.636 45.296 765.852 45.03 765.852 44.302C765.852 43.714 766.3 43.21 767.266 43.21C767.938 43.21 768.47 43.49 768.988 43.882L769.604 43.056C769.016 42.594 768.19 42.202 767.252 42.202C765.6 42.202 764.62 43.154 764.62 44.358C764.62 45.646 765.782 46.164 766.846 46.556C767.686 46.878 768.582 47.214 768.582 47.998C768.582 48.656 768.092 49.188 767.084 49.188C766.174 49.188 765.488 48.824 764.83 48.292L764.2 49.132C764.928 49.734 765.964 50.182 767.042 50.182ZM4.58292 73.206H5.85692V70.63L5.82892 69.3C6.51492 69.86 7.24292 70.182 7.92892 70.182C9.67892 70.182 11.2329 68.684 11.2329 66.08C11.2329 63.742 10.1689 62.202 8.20892 62.202C7.32692 62.202 6.47292 62.706 5.78692 63.266H5.74492L5.63292 62.398H4.58292V73.206ZM7.71892 69.118C7.21492 69.118 6.54292 68.908 5.85692 68.32V64.33C6.59892 63.644 7.25692 63.28 7.90092 63.28C9.34292 63.28 9.90292 64.414 9.90292 66.094C9.90292 67.984 8.97892 69.118 7.71892 69.118ZM15.4766 70.182C16.5266 70.182 17.2826 69.636 17.9966 68.81H18.0386L18.1366 70H19.2006V62.398H17.9266V67.788C17.1986 68.698 16.6526 69.076 15.8686 69.076C14.8606 69.076 14.4406 68.474 14.4406 67.06V62.398H13.1666V67.214C13.1666 69.146 13.8806 70.182 15.4766 70.182ZM24.3585 70.182C25.2685 70.182 26.0665 69.692 26.6685 69.104H26.7105L26.8225 70H27.8585V58.856H26.5985V61.782L26.6545 63.098C25.9825 62.538 25.4085 62.202 24.5125 62.202C22.7765 62.202 21.2225 63.742 21.2225 66.206C21.2225 68.74 22.4545 70.182 24.3585 70.182ZM24.6385 69.118C23.2945 69.118 22.5385 68.026 22.5385 66.192C22.5385 64.456 23.5045 63.28 24.7365 63.28C25.3665 63.28 25.9405 63.504 26.5985 64.078V68.068C25.9545 68.768 25.3385 69.118 24.6385 69.118ZM30.4501 70H31.7241V62.398H30.4501V70ZM31.0941 60.83C31.5981 60.83 31.9481 60.494 31.9481 59.976C31.9481 59.486 31.5981 59.15 31.0941 59.15C30.5901 59.15 30.2401 59.486 30.2401 59.976C30.2401 60.494 30.5901 60.83 31.0941 60.83ZM37.3716 70.182C38.4076 70.182 39.2196 69.832 39.8916 69.398L39.4296 68.558C38.8696 68.936 38.2676 69.16 37.5256 69.16C36.0836 69.16 35.0896 68.124 35.0056 66.5H40.1296C40.1576 66.318 40.1856 66.052 40.1856 65.772C40.1856 63.602 39.0936 62.202 37.1616 62.202C35.3976 62.202 33.7316 63.742 33.7316 66.206C33.7316 68.712 35.3556 70.182 37.3716 70.182ZM34.9916 65.576C35.1456 64.092 36.0976 63.224 37.1756 63.224C38.3656 63.224 39.0656 64.05 39.0656 65.576H34.9916ZM42.0575 70H43.3315V65.114C43.8355 63.812 44.6195 63.364 45.2495 63.364C45.5575 63.364 45.7395 63.392 45.9915 63.49L46.2295 62.37C45.9915 62.244 45.7535 62.202 45.4175 62.202C44.5635 62.202 43.7935 62.818 43.2615 63.784H43.2195L43.1075 62.398H42.0575V70ZM48.8525 70.182C49.7905 70.182 50.6445 69.692 51.3725 69.09H51.4145L51.5265 70H52.5765V65.324C52.5765 63.448 51.7925 62.202 49.9445 62.202C48.7265 62.202 47.6485 62.748 46.9485 63.196L47.4525 64.078C48.0545 63.672 48.8525 63.266 49.7345 63.266C50.9805 63.266 51.3025 64.204 51.3025 65.184C48.0685 65.548 46.6265 66.374 46.6265 68.026C46.6265 69.398 47.5785 70.182 48.8525 70.182ZM49.2165 69.16C48.4605 69.16 47.8725 68.81 47.8725 67.942C47.8725 66.962 48.7405 66.332 51.3025 66.024V68.152C50.5605 68.81 49.9585 69.16 49.2165 69.16ZM55.0048 70H56.2788V64.484C57.0488 63.714 57.5808 63.322 58.3648 63.322C59.3728 63.322 59.8068 63.924 59.8068 65.352V70H61.0808V65.184C61.0808 63.238 60.3528 62.202 58.7568 62.202C57.7208 62.202 56.9368 62.776 56.2088 63.49H56.1668L56.0548 62.398H55.0048V70ZM69.6903 70.182C70.6003 70.182 71.4683 69.832 72.1543 69.216L71.5943 68.362C71.1183 68.796 70.5023 69.118 69.8023 69.118C68.4023 69.118 67.4503 67.956 67.4503 66.206C67.4503 64.456 68.4583 63.266 69.8443 63.266C70.4463 63.266 70.9083 63.546 71.3563 63.938L72.0143 63.098C71.4683 62.622 70.7823 62.202 69.7883 62.202C67.8423 62.202 66.1203 63.672 66.1203 66.206C66.1203 68.726 67.6743 70.182 69.6903 70.182ZM76.4295 70.182C78.2915 70.182 79.9575 68.726 79.9575 66.206C79.9575 63.672 78.2915 62.202 76.4295 62.202C74.5675 62.202 72.9015 63.672 72.9015 66.206C72.9015 68.726 74.5675 70.182 76.4295 70.182ZM76.4295 69.118C75.1135 69.118 74.2315 67.956 74.2315 66.206C74.2315 64.456 75.1135 63.266 76.4295 63.266C77.7455 63.266 78.6415 64.456 78.6415 66.206C78.6415 67.956 77.7455 69.118 76.4295 69.118ZM85.0317 70.182C86.0677 70.182 86.8797 69.832 87.5517 69.398L87.0897 68.558C86.5297 68.936 85.9277 69.16 85.1857 69.16C83.7437 69.16 82.7497 68.124 82.6657 66.5H87.7897C87.8177 66.318 87.8457 66.052 87.8457 65.772C87.8457 63.602 86.7537 62.202 84.8217 62.202C83.0577 62.202 81.3917 63.742 81.3917 66.206C81.3917 68.712 83.0157 70.182 85.0317 70.182ZM82.6517 65.576C82.8057 64.092 83.7577 63.224 84.8357 63.224C86.0257 63.224 86.7257 64.05 86.7257 65.576H82.6517ZM88.5303 70H89.8743L90.8963 68.222C91.1623 67.76 91.4143 67.298 91.6803 66.864H91.7503C92.0303 67.298 92.3103 67.76 92.5623 68.222L93.6823 70H95.0823L92.5763 66.164L94.8863 62.398H93.5563L92.6183 64.064C92.3943 64.498 92.1703 64.918 91.9323 65.338H91.8763C91.6243 64.918 91.3583 64.498 91.1203 64.064L90.0983 62.398H88.7263L91.0363 66.038L88.5303 70ZM98.569 70.182C100.361 70.182 101.341 69.16 101.341 67.928C101.341 66.486 100.123 66.038 99.017 65.618C98.163 65.296 97.379 65.03 97.379 64.302C97.379 63.714 97.827 63.21 98.793 63.21C99.465 63.21 99.997 63.49 100.515 63.882L101.131 63.056C100.543 62.594 99.717 62.202 98.779 62.202C97.127 62.202 96.147 63.154 96.147 64.358C96.147 65.646 97.309 66.164 98.373 66.556C99.213 66.878 100.109 67.214 100.109 67.998C100.109 68.656 99.619 69.188 98.611 69.188C97.701 69.188 97.015 68.824 96.357 68.292L95.727 69.132C96.455 69.734 97.491 70.182 98.569 70.182ZM105.209 70.182C105.671 70.182 106.175 70.042 106.609 69.902L106.357 68.95C106.105 69.048 105.755 69.146 105.489 69.146C104.607 69.146 104.313 68.614 104.313 67.676V63.434H106.371V62.398H104.313V60.256H103.249L103.095 62.398L101.905 62.468V63.434H103.039V67.648C103.039 69.16 103.585 70.182 105.209 70.182ZM108.093 70H109.367V62.398H108.093V70ZM108.737 60.83C109.241 60.83 109.591 60.494 109.591 59.976C109.591 59.486 109.241 59.15 108.737 59.15C108.233 59.15 107.883 59.486 107.883 59.976C107.883 60.494 108.233 60.83 108.737 60.83ZM111.948 70H113.222V65.114C113.726 63.812 114.51 63.364 115.14 63.364C115.448 63.364 115.63 63.392 115.882 63.49L116.12 62.37C115.882 62.244 115.644 62.202 115.308 62.202C114.454 62.202 113.684 62.818 113.152 63.784H113.11L112.998 62.398H111.948V70ZM123.573 70.182C124.609 70.182 125.421 69.832 126.093 69.398L125.631 68.558C125.071 68.936 124.469 69.16 123.727 69.16C122.285 69.16 121.291 68.124 121.207 66.5H126.331C126.359 66.318 126.387 66.052 126.387 65.772C126.387 63.602 125.295 62.202 123.363 62.202C121.599 62.202 119.933 63.742 119.933 66.206C119.933 68.712 121.557 70.182 123.573 70.182ZM121.193 65.576C121.347 64.092 122.299 63.224 123.377 63.224C124.567 63.224 125.267 64.05 125.267 65.576H121.193ZM128.259 70H129.533V64.484C130.303 63.714 130.835 63.322 131.619 63.322C132.627 63.322 133.061 63.924 133.061 65.352V70H134.335V65.184C134.335 63.238 133.607 62.202 132.011 62.202C130.975 62.202 130.191 62.776 129.463 63.49H129.421L129.309 62.398H128.259V70ZM142.16 70.182C143.21 70.182 143.966 69.636 144.68 68.81H144.722L144.82 70H145.884V62.398H144.61V67.788C143.882 68.698 143.336 69.076 142.552 69.076C141.544 69.076 141.124 68.474 141.124 67.06V62.398H139.85V67.214C139.85 69.146 140.564 70.182 142.16 70.182ZM148.452 70H149.726V64.484C150.496 63.714 151.028 63.322 151.812 63.322C152.82 63.322 153.254 63.924 153.254 65.352V70H154.528V65.184C154.528 63.238 153.8 62.202 152.204 62.202C151.168 62.202 150.384 62.776 149.656 63.49H149.614L149.502 62.398H148.452V70ZM158.761 70.182C159.699 70.182 160.553 69.692 161.281 69.09H161.323L161.435 70H162.485V65.324C162.485 63.448 161.701 62.202 159.853 62.202C158.635 62.202 157.557 62.748 156.857 63.196L157.361 64.078C157.963 63.672 158.761 63.266 159.643 63.266C160.889 63.266 161.211 64.204 161.211 65.184C157.977 65.548 156.535 66.374 156.535 68.026C156.535 69.398 157.487 70.182 158.761 70.182ZM159.125 69.16C158.369 69.16 157.781 68.81 157.781 67.942C157.781 66.962 158.649 66.332 161.211 66.024V68.152C160.469 68.81 159.867 69.16 159.125 69.16ZM168.044 70H169.318V64.484C170.018 63.7 170.662 63.322 171.236 63.322C172.202 63.322 172.65 63.924 172.65 65.352V70H173.924V64.484C174.638 63.7 175.254 63.322 175.842 63.322C176.808 63.322 177.256 63.924 177.256 65.352V70H178.53V65.184C178.53 63.238 177.788 62.202 176.22 62.202C175.296 62.202 174.498 62.804 173.714 63.658C173.406 62.762 172.776 62.202 171.614 62.202C170.704 62.202 169.906 62.776 169.248 63.504H169.206L169.094 62.398H168.044V70ZM181.005 70H182.279V62.398H181.005V70ZM181.649 60.83C182.153 60.83 182.503 60.494 182.503 59.976C182.503 59.486 182.153 59.15 181.649 59.15C181.145 59.15 180.795 59.486 180.795 59.976C180.795 60.494 181.145 60.83 181.649 60.83ZM186.848 70.182C188.64 70.182 189.62 69.16 189.62 67.928C189.62 66.486 188.402 66.038 187.296 65.618C186.442 65.296 185.658 65.03 185.658 64.302C185.658 63.714 186.106 63.21 187.072 63.21C187.744 63.21 188.276 63.49 188.794 63.882L189.41 63.056C188.822 62.594 187.996 62.202 187.058 62.202C185.406 62.202 184.426 63.154 184.426 64.358C184.426 65.646 185.588 66.164 186.652 66.556C187.492 66.878 188.388 67.214 188.388 67.998C188.388 68.656 187.898 69.188 186.89 69.188C185.98 69.188 185.294 68.824 184.636 68.292L184.006 69.132C184.734 69.734 185.77 70.182 186.848 70.182ZM191.409 70H192.683V64.484C193.383 63.7 194.027 63.322 194.601 63.322C195.567 63.322 196.015 63.924 196.015 65.352V70H197.289V64.484C198.003 63.7 198.619 63.322 199.207 63.322C200.173 63.322 200.621 63.924 200.621 65.352V70H201.895V65.184C201.895 63.238 201.153 62.202 199.585 62.202C198.661 62.202 197.863 62.804 197.079 63.658C196.771 62.762 196.141 62.202 194.979 62.202C194.069 62.202 193.271 62.776 192.613 63.504H192.571L192.459 62.398H191.409V70ZM206.12 70.182C207.058 70.182 207.912 69.692 208.64 69.09H208.682L208.794 70H209.844V65.324C209.844 63.448 209.06 62.202 207.212 62.202C205.994 62.202 204.916 62.748 204.216 63.196L204.72 64.078C205.322 63.672 206.12 63.266 207.002 63.266C208.248 63.266 208.57 64.204 208.57 65.184C205.336 65.548 203.894 66.374 203.894 68.026C203.894 69.398 204.846 70.182 206.12 70.182ZM206.484 69.16C205.728 69.16 205.14 68.81 205.14 67.942C205.14 66.962 206.008 66.332 208.57 66.024V68.152C207.828 68.81 207.226 69.16 206.484 69.16ZM216.607 70H218.105L219.169 65.926C219.365 65.198 219.519 64.484 219.687 63.714H219.757C219.939 64.484 220.079 65.184 220.275 65.898L221.381 70H222.921L224.965 62.398H223.761L222.641 66.794C222.473 67.522 222.333 68.208 222.165 68.922H222.109C221.927 68.208 221.759 67.522 221.577 66.794L220.387 62.398H219.141L217.965 66.794C217.769 67.508 217.615 68.208 217.447 68.922H217.377C217.237 68.208 217.083 67.522 216.929 66.794L215.795 62.398H214.493L216.607 70ZM229.639 70.182C230.675 70.182 231.487 69.832 232.159 69.398L231.697 68.558C231.137 68.936 230.535 69.16 229.793 69.16C228.351 69.16 227.357 68.124 227.273 66.5H232.397C232.425 66.318 232.453 66.052 232.453 65.772C232.453 63.602 231.361 62.202 229.429 62.202C227.665 62.202 225.999 63.742 225.999 66.206C225.999 68.712 227.623 70.182 229.639 70.182ZM227.259 65.576C227.413 64.092 228.365 63.224 229.443 63.224C230.633 63.224 231.333 64.05 231.333 65.576H227.259ZM237.671 70.182C239.421 70.182 240.975 68.684 240.975 66.066C240.975 63.742 239.911 62.202 237.937 62.202C237.097 62.202 236.243 62.678 235.557 63.28L235.599 61.908V58.856H234.325V70H235.347L235.459 69.216H235.515C236.173 69.818 236.971 70.182 237.671 70.182ZM237.461 69.118C236.957 69.118 236.271 68.908 235.599 68.32V64.33C236.327 63.644 236.999 63.28 237.643 63.28C239.085 63.28 239.645 64.414 239.645 66.094C239.645 67.984 238.721 69.118 237.461 69.118ZM242.591 72.66C243.851 72.128 244.635 71.078 244.635 69.734C244.635 68.796 244.229 68.222 243.557 68.222C243.039 68.222 242.591 68.572 242.591 69.118C242.591 69.706 243.039 70.014 243.529 70.014C243.585 70.014 243.627 70.014 243.683 70C243.683 70.826 243.165 71.512 242.283 71.904L242.591 72.66ZM249.856 73.206H251.13V70.63L251.102 69.3C251.788 69.86 252.516 70.182 253.202 70.182C254.952 70.182 256.506 68.684 256.506 66.08C256.506 63.742 255.442 62.202 253.482 62.202C252.6 62.202 251.746 62.706 251.06 63.266H251.018L250.906 62.398H249.856V73.206ZM252.992 69.118C252.488 69.118 251.816 68.908 251.13 68.32V64.33C251.872 63.644 252.53 63.28 253.174 63.28C254.616 63.28 255.176 64.414 255.176 66.094C255.176 67.984 254.252 69.118 252.992 69.118ZM261.604 70.182C262.64 70.182 263.452 69.832 264.124 69.398L263.662 68.558C263.102 68.936 262.5 69.16 261.758 69.16C260.316 69.16 259.322 68.124 259.238 66.5H264.362C264.39 66.318 264.418 66.052 264.418 65.772C264.418 63.602 263.326 62.202 261.394 62.202C259.63 62.202 257.964 63.742 257.964 66.206C257.964 68.712 259.588 70.182 261.604 70.182ZM259.224 65.576C259.378 64.092 260.33 63.224 261.408 63.224C262.598 63.224 263.298 64.05 263.298 65.576H259.224ZM268.278 70.182C270.07 70.182 271.05 69.16 271.05 67.928C271.05 66.486 269.832 66.038 268.726 65.618C267.872 65.296 267.088 65.03 267.088 64.302C267.088 63.714 267.536 63.21 268.502 63.21C269.174 63.21 269.706 63.49 270.224 63.882L270.84 63.056C270.252 62.594 269.426 62.202 268.488 62.202C266.836 62.202 265.856 63.154 265.856 64.358C265.856 65.646 267.018 66.164 268.082 66.556C268.922 66.878 269.818 67.214 269.818 67.998C269.818 68.656 269.328 69.188 268.32 69.188C267.41 69.188 266.724 68.824 266.066 68.292L265.436 69.132C266.164 69.734 267.2 70.182 268.278 70.182ZM275.905 70.182C276.941 70.182 277.753 69.832 278.425 69.398L277.963 68.558C277.403 68.936 276.801 69.16 276.059 69.16C274.617 69.16 273.623 68.124 273.539 66.5H278.663C278.691 66.318 278.719 66.052 278.719 65.772C278.719 63.602 277.627 62.202 275.695 62.202C273.931 62.202 272.265 63.742 272.265 66.206C272.265 68.712 273.889 70.182 275.905 70.182ZM273.525 65.576C273.679 64.092 274.631 63.224 275.709 63.224C276.899 63.224 277.599 64.05 277.599 65.576H273.525ZM285.472 70.182C286.41 70.182 287.264 69.692 287.992 69.09H288.034L288.146 70H289.196V65.324C289.196 63.448 288.412 62.202 286.564 62.202C285.346 62.202 284.268 62.748 283.568 63.196L284.072 64.078C284.674 63.672 285.472 63.266 286.354 63.266C287.6 63.266 287.922 64.204 287.922 65.184C284.688 65.548 283.246 66.374 283.246 68.026C283.246 69.398 284.198 70.182 285.472 70.182ZM285.836 69.16C285.08 69.16 284.492 68.81 284.492 67.942C284.492 66.962 285.36 66.332 287.922 66.024V68.152C287.18 68.81 286.578 69.16 285.836 69.16ZM297.149 70.182C297.611 70.182 298.115 70.042 298.549 69.902L298.297 68.95C298.045 69.048 297.695 69.146 297.429 69.146C296.547 69.146 296.253 68.614 296.253 67.676V63.434H298.311V62.398H296.253V60.256H295.189L295.035 62.398L293.845 62.468V63.434H294.979V67.648C294.979 69.16 295.525 70.182 297.149 70.182ZM302.893 70.182C303.929 70.182 304.741 69.832 305.413 69.398L304.951 68.558C304.391 68.936 303.789 69.16 303.047 69.16C301.605 69.16 300.611 68.124 300.527 66.5H305.651C305.679 66.318 305.707 66.052 305.707 65.772C305.707 63.602 304.615 62.202 302.683 62.202C300.919 62.202 299.253 63.742 299.253 66.206C299.253 68.712 300.877 70.182 302.893 70.182ZM300.513 65.576C300.667 64.092 301.619 63.224 302.697 63.224C303.887 63.224 304.587 64.05 304.587 65.576H300.513ZM307.579 70H308.853V64.484C309.623 63.714 310.155 63.322 310.939 63.322C311.947 63.322 312.381 63.924 312.381 65.352V70H313.655V65.184C313.655 63.238 312.927 62.202 311.331 62.202C310.295 62.202 309.511 62.776 308.783 63.49H308.741L308.629 62.398H307.579V70ZM319.204 70.182C320.24 70.182 321.052 69.832 321.724 69.398L321.262 68.558C320.702 68.936 320.1 69.16 319.358 69.16C317.916 69.16 316.922 68.124 316.838 66.5H321.962C321.99 66.318 322.018 66.052 322.018 65.772C322.018 63.602 320.926 62.202 318.994 62.202C317.23 62.202 315.564 63.742 315.564 66.206C315.564 68.712 317.188 70.182 319.204 70.182ZM316.824 65.576C316.978 64.092 317.93 63.224 319.008 63.224C320.198 63.224 320.898 64.05 320.898 65.576H316.824ZM323.89 70H325.164V65.114C325.668 63.812 326.452 63.364 327.082 63.364C327.39 63.364 327.572 63.392 327.824 63.49L328.062 62.37C327.824 62.244 327.586 62.202 327.25 62.202C326.396 62.202 325.626 62.818 325.094 63.784H325.052L324.94 62.398H323.89V70ZM335.038 70.182C335.948 70.182 336.746 69.692 337.348 69.104H337.39L337.502 70H338.538V58.856H337.278V61.782L337.334 63.098C336.662 62.538 336.088 62.202 335.192 62.202C333.456 62.202 331.902 63.742 331.902 66.206C331.902 68.74 333.134 70.182 335.038 70.182ZM335.318 69.118C333.974 69.118 333.218 68.026 333.218 66.192C333.218 64.456 334.184 63.28 335.416 63.28C336.046 63.28 336.62 63.504 337.278 64.078V68.068C336.634 68.768 336.018 69.118 335.318 69.118ZM341.13 70H342.404V62.398H341.13V70ZM341.774 60.83C342.278 60.83 342.628 60.494 342.628 59.976C342.628 59.486 342.278 59.15 341.774 59.15C341.27 59.15 340.92 59.486 340.92 59.976C340.92 60.494 341.27 60.83 341.774 60.83ZM346.973 70.182C348.765 70.182 349.745 69.16 349.745 67.928C349.745 66.486 348.527 66.038 347.421 65.618C346.567 65.296 345.783 65.03 345.783 64.302C345.783 63.714 346.231 63.21 347.197 63.21C347.869 63.21 348.401 63.49 348.919 63.882L349.535 63.056C348.947 62.594 348.121 62.202 347.183 62.202C345.531 62.202 344.551 63.154 344.551 64.358C344.551 65.646 345.713 66.164 346.777 66.556C347.617 66.878 348.513 67.214 348.513 67.998C348.513 68.656 348.023 69.188 347.015 69.188C346.105 69.188 345.419 68.824 344.761 68.292L344.131 69.132C344.859 69.734 345.895 70.182 346.973 70.182ZM353.614 70.182C354.076 70.182 354.58 70.042 355.014 69.902L354.762 68.95C354.51 69.048 354.16 69.146 353.894 69.146C353.012 69.146 352.718 68.614 352.718 67.676V63.434H354.776V62.398H352.718V60.256H351.654L351.5 62.398L350.31 62.468V63.434H351.444V67.648C351.444 69.16 351.99 70.182 353.614 70.182ZM356.497 70H357.771V62.398H356.497V70ZM357.141 60.83C357.645 60.83 357.995 60.494 357.995 59.976C357.995 59.486 357.645 59.15 357.141 59.15C356.637 59.15 356.287 59.486 356.287 59.976C356.287 60.494 356.637 60.83 357.141 60.83ZM360.352 70H361.626V64.484C362.396 63.714 362.928 63.322 363.712 63.322C364.72 63.322 365.154 63.924 365.154 65.352V70H366.428V65.184C366.428 63.238 365.7 62.202 364.104 62.202C363.068 62.202 362.284 62.776 361.556 63.49H361.514L361.402 62.398H360.352V70ZM371.305 70.182C371.767 70.182 372.271 70.042 372.705 69.902L372.453 68.95C372.201 69.048 371.851 69.146 371.585 69.146C370.703 69.146 370.409 68.614 370.409 67.676V63.434H372.467V62.398H370.409V60.256H369.345L369.191 62.398L368.001 62.468V63.434H369.135V67.648C369.135 69.16 369.681 70.182 371.305 70.182ZM376.937 70.182C378.799 70.182 380.465 68.726 380.465 66.206C380.465 63.672 378.799 62.202 376.937 62.202C375.075 62.202 373.409 63.672 373.409 66.206C373.409 68.726 375.075 70.182 376.937 70.182ZM376.937 69.118C375.621 69.118 374.739 67.956 374.739 66.206C374.739 64.456 375.621 63.266 376.937 63.266C378.253 63.266 379.149 64.456 379.149 66.206C379.149 67.956 378.253 69.118 376.937 69.118ZM384.462 70.182C386.254 70.182 387.234 69.16 387.234 67.928C387.234 66.486 386.016 66.038 384.91 65.618C384.056 65.296 383.272 65.03 383.272 64.302C383.272 63.714 383.72 63.21 384.686 63.21C385.358 63.21 385.89 63.49 386.408 63.882L387.024 63.056C386.436 62.594 385.61 62.202 384.672 62.202C383.02 62.202 382.04 63.154 382.04 64.358C382.04 65.646 383.202 66.164 384.266 66.556C385.106 66.878 386.002 67.214 386.002 67.998C386.002 68.656 385.512 69.188 384.504 69.188C383.594 69.188 382.908 68.824 382.25 68.292L381.62 69.132C382.348 69.734 383.384 70.182 384.462 70.182ZM395.107 70.182C396.969 70.182 398.635 68.726 398.635 66.206C398.635 63.672 396.969 62.202 395.107 62.202C393.245 62.202 391.579 63.672 391.579 66.206C391.579 68.726 393.245 70.182 395.107 70.182ZM395.107 69.118C393.791 69.118 392.909 67.956 392.909 66.206C392.909 64.456 393.791 63.266 395.107 63.266C396.423 63.266 397.319 64.456 397.319 66.206C397.319 67.956 396.423 69.118 395.107 69.118ZM403.989 70.182C405.739 70.182 407.293 68.684 407.293 66.066C407.293 63.742 406.229 62.202 404.255 62.202C403.415 62.202 402.561 62.678 401.875 63.28L401.917 61.908V58.856H400.643V70H401.665L401.777 69.216H401.833C402.491 69.818 403.289 70.182 403.989 70.182ZM403.779 69.118C403.275 69.118 402.589 68.908 401.917 68.32V64.33C402.645 63.644 403.317 63.28 403.961 63.28C405.403 63.28 405.963 64.414 405.963 66.094C405.963 67.984 405.039 69.118 403.779 69.118ZM408.514 73.402C410.012 73.402 410.586 72.422 410.586 70.868V62.398H409.312V70.868C409.312 71.792 409.13 72.366 408.374 72.366C408.094 72.366 407.842 72.296 407.646 72.226L407.394 73.206C407.66 73.304 408.052 73.402 408.514 73.402ZM409.942 60.83C410.432 60.83 410.782 60.494 410.782 59.976C410.782 59.486 410.432 59.15 409.942 59.15C409.438 59.15 409.088 59.486 409.088 59.976C409.088 60.494 409.438 60.83 409.942 60.83ZM416.233 70.182C417.269 70.182 418.081 69.832 418.753 69.398L418.291 68.558C417.731 68.936 417.129 69.16 416.387 69.16C414.945 69.16 413.951 68.124 413.867 66.5H418.991C419.019 66.318 419.047 66.052 419.047 65.772C419.047 63.602 417.955 62.202 416.023 62.202C414.259 62.202 412.593 63.742 412.593 66.206C412.593 68.712 414.217 70.182 416.233 70.182ZM413.853 65.576C414.007 64.092 414.959 63.224 416.037 63.224C417.227 63.224 417.927 64.05 417.927 65.576H413.853ZM423.162 70.182C423.624 70.182 424.128 70.042 424.562 69.902L424.31 68.95C424.058 69.048 423.708 69.146 423.442 69.146C422.56 69.146 422.266 68.614 422.266 67.676V63.434H424.324V62.398H422.266V60.256H421.202L421.048 62.398L419.858 62.468V63.434H420.992V67.648C420.992 69.16 421.538 70.182 423.162 70.182ZM426.046 70H427.32V62.398H426.046V70ZM426.69 60.83C427.194 60.83 427.544 60.494 427.544 59.976C427.544 59.486 427.194 59.15 426.69 59.15C426.186 59.15 425.836 59.486 425.836 59.976C425.836 60.494 426.186 60.83 426.69 60.83ZM431.539 70H433.023L435.725 62.398H434.465L433.023 66.724C432.799 67.466 432.561 68.25 432.323 68.964H432.267C432.029 68.25 431.791 67.466 431.553 66.724L430.125 62.398H428.795L431.539 70ZM440.101 70.182C441.963 70.182 443.629 68.726 443.629 66.206C443.629 63.672 441.963 62.202 440.101 62.202C438.239 62.202 436.573 63.672 436.573 66.206C436.573 68.726 438.239 70.182 440.101 70.182ZM440.101 69.118C438.785 69.118 437.903 67.956 437.903 66.206C437.903 64.456 438.785 63.266 440.101 63.266C441.417 63.266 442.313 64.456 442.313 66.206C442.313 67.956 441.417 69.118 440.101 69.118ZM447.626 70.182C449.418 70.182 450.398 69.16 450.398 67.928C450.398 66.486 449.18 66.038 448.074 65.618C447.22 65.296 446.436 65.03 446.436 64.302C446.436 63.714 446.884 63.21 447.85 63.21C448.522 63.21 449.054 63.49 449.572 63.882L450.188 63.056C449.6 62.594 448.774 62.202 447.836 62.202C446.184 62.202 445.204 63.154 445.204 64.358C445.204 65.646 446.366 66.164 447.43 66.556C448.27 66.878 449.166 67.214 449.166 67.998C449.166 68.656 448.676 69.188 447.668 69.188C446.758 69.188 446.072 68.824 445.414 68.292L444.784 69.132C445.512 69.734 446.548 70.182 447.626 70.182ZM451.948 72.66C453.208 72.128 453.992 71.078 453.992 69.734C453.992 68.796 453.586 68.222 452.914 68.222C452.396 68.222 451.948 68.572 451.948 69.118C451.948 69.706 452.396 70.014 452.886 70.014C452.942 70.014 452.984 70.014 453.04 70C453.04 70.826 452.522 71.512 451.64 71.904L451.948 72.66ZM461.608 70.182C462.07 70.182 462.574 70.042 463.008 69.902L462.756 68.95C462.504 69.048 462.154 69.146 461.888 69.146C461.006 69.146 460.712 68.614 460.712 67.676V63.434H462.77V62.398H460.712V60.256H459.648L459.494 62.398L458.304 62.468V63.434H459.438V67.648C459.438 69.16 459.984 70.182 461.608 70.182ZM467.24 70.182C469.102 70.182 470.768 68.726 470.768 66.206C470.768 63.672 469.102 62.202 467.24 62.202C465.378 62.202 463.712 63.672 463.712 66.206C463.712 68.726 465.378 70.182 467.24 70.182ZM467.24 69.118C465.924 69.118 465.042 67.956 465.042 66.206C465.042 64.456 465.924 63.266 467.24 63.266C468.556 63.266 469.452 64.456 469.452 66.206C469.452 67.956 468.556 69.118 467.24 69.118ZM475.366 70.182C476.276 70.182 477.074 69.692 477.676 69.104H477.718L477.83 70H478.866V58.856H477.606V61.782L477.662 63.098C476.99 62.538 476.416 62.202 475.52 62.202C473.784 62.202 472.23 63.742 472.23 66.206C472.23 68.74 473.462 70.182 475.366 70.182ZM475.646 69.118C474.302 69.118 473.546 68.026 473.546 66.192C473.546 64.456 474.512 63.28 475.744 63.28C476.374 63.28 476.948 63.504 477.606 64.078V68.068C476.962 68.768 476.346 69.118 475.646 69.118ZM484.412 70.182C486.274 70.182 487.94 68.726 487.94 66.206C487.94 63.672 486.274 62.202 484.412 62.202C482.55 62.202 480.884 63.672 480.884 66.206C480.884 68.726 482.55 70.182 484.412 70.182ZM484.412 69.118C483.096 69.118 482.214 67.956 482.214 66.206C482.214 64.456 483.096 63.266 484.412 63.266C485.728 63.266 486.624 64.456 486.624 66.206C486.624 67.956 485.728 69.118 484.412 69.118ZM491.936 70.182C493.728 70.182 494.708 69.16 494.708 67.928C494.708 66.486 493.49 66.038 492.384 65.618C491.53 65.296 490.746 65.03 490.746 64.302C490.746 63.714 491.194 63.21 492.16 63.21C492.832 63.21 493.364 63.49 493.882 63.882L494.498 63.056C493.91 62.594 493.084 62.202 492.146 62.202C490.494 62.202 489.514 63.154 489.514 64.358C489.514 65.646 490.676 66.164 491.74 66.556C492.58 66.878 493.476 67.214 493.476 67.998C493.476 68.656 492.986 69.188 491.978 69.188C491.068 69.188 490.382 68.824 489.724 68.292L489.094 69.132C489.822 69.734 490.858 70.182 491.936 70.182ZM502.218 70.182C503.128 70.182 503.926 69.692 504.528 69.104H504.57L504.682 70H505.718V58.856H504.458V61.782L504.514 63.098C503.842 62.538 503.268 62.202 502.372 62.202C500.636 62.202 499.082 63.742 499.082 66.206C499.082 68.74 500.314 70.182 502.218 70.182ZM502.498 69.118C501.154 69.118 500.398 68.026 500.398 66.192C500.398 64.456 501.364 63.28 502.596 63.28C503.226 63.28 503.8 63.504 504.458 64.078V68.068C503.814 68.768 503.198 69.118 502.498 69.118ZM508.309 70H509.583V62.398H508.309V70ZM508.953 60.83C509.457 60.83 509.807 60.494 509.807 59.976C509.807 59.486 509.457 59.15 508.953 59.15C508.449 59.15 508.099 59.486 508.099 59.976C508.099 60.494 508.449 60.83 508.953 60.83ZM512.165 70H513.439V65.114C513.943 63.812 514.727 63.364 515.357 63.364C515.665 63.364 515.847 63.392 516.099 63.49L516.337 62.37C516.099 62.244 515.861 62.202 515.525 62.202C514.671 62.202 513.901 62.818 513.369 63.784H513.327L513.215 62.398H512.165V70ZM520.508 70.182C521.544 70.182 522.356 69.832 523.028 69.398L522.566 68.558C522.006 68.936 521.404 69.16 520.662 69.16C519.22 69.16 518.226 68.124 518.142 66.5H523.266C523.294 66.318 523.322 66.052 523.322 65.772C523.322 63.602 522.23 62.202 520.298 62.202C518.534 62.202 516.868 63.742 516.868 66.206C516.868 68.712 518.492 70.182 520.508 70.182ZM518.128 65.576C518.282 64.092 519.234 63.224 520.312 63.224C521.502 63.224 522.202 64.05 522.202 65.576H518.128ZM528.19 70.182C529.1 70.182 529.968 69.832 530.654 69.216L530.094 68.362C529.618 68.796 529.002 69.118 528.302 69.118C526.902 69.118 525.95 67.956 525.95 66.206C525.95 64.456 526.958 63.266 528.344 63.266C528.946 63.266 529.408 63.546 529.856 63.938L530.514 63.098C529.968 62.622 529.282 62.202 528.288 62.202C526.342 62.202 524.62 63.672 524.62 66.206C524.62 68.726 526.174 70.182 528.19 70.182ZM534.972 70.182C535.882 70.182 536.75 69.832 537.436 69.216L536.876 68.362C536.4 68.796 535.784 69.118 535.084 69.118C533.684 69.118 532.732 67.956 532.732 66.206C532.732 64.456 533.74 63.266 535.126 63.266C535.728 63.266 536.19 63.546 536.638 63.938L537.296 63.098C536.75 62.622 536.064 62.202 535.07 62.202C533.124 62.202 531.402 63.672 531.402 66.206C531.402 68.726 532.956 70.182 534.972 70.182ZM539.099 70H540.373V62.398H539.099V70ZM539.743 60.83C540.247 60.83 540.597 60.494 540.597 59.976C540.597 59.486 540.247 59.15 539.743 59.15C539.239 59.15 538.889 59.486 538.889 59.976C538.889 60.494 539.239 60.83 539.743 60.83ZM545.908 70.182C547.77 70.182 549.436 68.726 549.436 66.206C549.436 63.672 547.77 62.202 545.908 62.202C544.046 62.202 542.38 63.672 542.38 66.206C542.38 68.726 544.046 70.182 545.908 70.182ZM545.908 69.118C544.592 69.118 543.71 67.956 543.71 66.206C543.71 64.456 544.592 63.266 545.908 63.266C547.224 63.266 548.12 64.456 548.12 66.206C548.12 67.956 547.224 69.118 545.908 69.118ZM551.444 70H552.718V64.484C553.488 63.714 554.02 63.322 554.804 63.322C555.812 63.322 556.246 63.924 556.246 65.352V70H557.52V65.184C557.52 63.238 556.792 62.202 555.196 62.202C554.16 62.202 553.376 62.776 552.648 63.49H552.606L552.494 62.398H551.444V70ZM561.753 70.182C562.691 70.182 563.545 69.692 564.273 69.09H564.315L564.427 70H565.477V65.324C565.477 63.448 564.693 62.202 562.845 62.202C561.627 62.202 560.549 62.748 559.849 63.196L560.353 64.078C560.955 63.672 561.753 63.266 562.635 63.266C563.881 63.266 564.203 64.204 564.203 65.184C560.969 65.548 559.527 66.374 559.527 68.026C559.527 69.398 560.479 70.182 561.753 70.182ZM562.117 69.16C561.361 69.16 560.773 68.81 560.773 67.942C560.773 66.962 561.641 66.332 564.203 66.024V68.152C563.461 68.81 562.859 69.16 562.117 69.16ZM570.495 70.182C571.405 70.182 572.203 69.692 572.805 69.104H572.847L572.959 70H573.995V58.856H572.735V61.782L572.791 63.098C572.119 62.538 571.545 62.202 570.649 62.202C568.913 62.202 567.359 63.742 567.359 66.206C567.359 68.74 568.591 70.182 570.495 70.182ZM570.775 69.118C569.431 69.118 568.675 68.026 568.675 66.192C568.675 64.456 569.641 63.28 570.873 63.28C571.503 63.28 572.077 63.504 572.735 64.078V68.068C572.091 68.768 571.475 69.118 570.775 69.118ZM579.541 70.182C581.403 70.182 583.069 68.726 583.069 66.206C583.069 63.672 581.403 62.202 579.541 62.202C577.679 62.202 576.013 63.672 576.013 66.206C576.013 68.726 577.679 70.182 579.541 70.182ZM579.541 69.118C578.225 69.118 577.343 67.956 577.343 66.206C577.343 64.456 578.225 63.266 579.541 63.266C580.857 63.266 581.753 64.456 581.753 66.206C581.753 67.956 580.857 69.118 579.541 69.118ZM587.065 70.182C588.857 70.182 589.837 69.16 589.837 67.928C589.837 66.486 588.619 66.038 587.513 65.618C586.659 65.296 585.875 65.03 585.875 64.302C585.875 63.714 586.323 63.21 587.289 63.21C587.961 63.21 588.493 63.49 589.011 63.882L589.627 63.056C589.039 62.594 588.213 62.202 587.275 62.202C585.623 62.202 584.643 63.154 584.643 64.358C584.643 65.646 585.805 66.164 586.869 66.556C587.709 66.878 588.605 67.214 588.605 67.998C588.605 68.656 588.115 69.188 587.107 69.188C586.197 69.188 585.511 68.824 584.853 68.292L584.223 69.132C584.951 69.734 585.987 70.182 587.065 70.182ZM596.507 70.182C597.445 70.182 598.299 69.692 599.027 69.09H599.069L599.181 70H600.231V65.324C600.231 63.448 599.447 62.202 597.599 62.202C596.381 62.202 595.303 62.748 594.603 63.196L595.107 64.078C595.709 63.672 596.507 63.266 597.389 63.266C598.635 63.266 598.957 64.204 598.957 65.184C595.723 65.548 594.281 66.374 594.281 68.026C594.281 69.398 595.233 70.182 596.507 70.182ZM596.871 69.16C596.115 69.16 595.527 68.81 595.527 67.942C595.527 66.962 596.395 66.332 598.957 66.024V68.152C598.215 68.81 597.613 69.16 596.871 69.16ZM608.744 70.182C610.606 70.182 612.272 68.726 612.272 66.206C612.272 63.672 610.606 62.202 608.744 62.202C606.882 62.202 605.216 63.672 605.216 66.206C605.216 68.726 606.882 70.182 608.744 70.182ZM608.744 69.118C607.428 69.118 606.546 67.956 606.546 66.206C606.546 64.456 607.428 63.266 608.744 63.266C610.06 63.266 610.956 64.456 610.956 66.206C610.956 67.956 610.06 69.118 608.744 69.118ZM617.626 70.182C619.376 70.182 620.93 68.684 620.93 66.066C620.93 63.742 619.866 62.202 617.892 62.202C617.052 62.202 616.198 62.678 615.512 63.28L615.554 61.908V58.856H614.28V70H615.302L615.414 69.216H615.47C616.128 69.818 616.926 70.182 617.626 70.182ZM617.416 69.118C616.912 69.118 616.226 68.908 615.554 68.32V64.33C616.282 63.644 616.954 63.28 617.598 63.28C619.04 63.28 619.6 64.414 619.6 66.094C619.6 67.984 618.676 69.118 617.416 69.118ZM625.069 70.182C625.531 70.182 626.035 70.042 626.469 69.902L626.217 68.95C625.965 69.048 625.615 69.146 625.349 69.146C624.467 69.146 624.173 68.614 624.173 67.676V63.434H626.231V62.398H624.173V60.256H623.109L622.955 62.398L621.765 62.468V63.434H622.899V67.648C622.899 69.16 623.445 70.182 625.069 70.182ZM630.813 70.182C631.849 70.182 632.661 69.832 633.333 69.398L632.871 68.558C632.311 68.936 631.709 69.16 630.967 69.16C629.525 69.16 628.531 68.124 628.447 66.5H633.571C633.599 66.318 633.627 66.052 633.627 65.772C633.627 63.602 632.535 62.202 630.603 62.202C628.839 62.202 627.173 63.742 627.173 66.206C627.173 68.712 628.797 70.182 630.813 70.182ZM628.433 65.576C628.587 64.092 629.539 63.224 630.617 63.224C631.807 63.224 632.507 64.05 632.507 65.576H628.433ZM635.499 70H636.773V64.484C637.543 63.714 638.075 63.322 638.859 63.322C639.867 63.322 640.301 63.924 640.301 65.352V70H641.575V65.184C641.575 63.238 640.847 62.202 639.251 62.202C638.215 62.202 637.431 62.776 636.703 63.49H636.661L636.549 62.398H635.499V70ZM647.124 70.182C648.16 70.182 648.972 69.832 649.644 69.398L649.182 68.558C648.622 68.936 648.02 69.16 647.278 69.16C645.836 69.16 644.842 68.124 644.758 66.5H649.882C649.91 66.318 649.938 66.052 649.938 65.772C649.938 63.602 648.846 62.202 646.914 62.202C645.15 62.202 643.484 63.742 643.484 66.206C643.484 68.712 645.108 70.182 647.124 70.182ZM644.744 65.576C644.898 64.092 645.85 63.224 646.928 63.224C648.118 63.224 648.818 64.05 648.818 65.576H644.744ZM651.809 70H653.083V65.114C653.587 63.812 654.371 63.364 655.001 63.364C655.309 63.364 655.491 63.392 655.743 63.49L655.981 62.37C655.743 62.244 655.505 62.202 655.169 62.202C654.315 62.202 653.545 62.818 653.013 63.784H652.971L652.859 62.398H651.809V70ZM663.322 70.182C665.184 70.182 666.85 68.726 666.85 66.206C666.85 63.672 665.184 62.202 663.322 62.202C661.46 62.202 659.794 63.672 659.794 66.206C659.794 68.726 661.46 70.182 663.322 70.182ZM663.322 69.118C662.006 69.118 661.124 67.956 661.124 66.206C661.124 64.456 662.006 63.266 663.322 63.266C664.638 63.266 665.534 64.456 665.534 66.206C665.534 67.956 664.638 69.118 663.322 69.118ZM668.858 70H670.132V65.114C670.636 63.812 671.42 63.364 672.05 63.364C672.358 63.364 672.54 63.392 672.792 63.49L673.03 62.37C672.792 62.244 672.554 62.202 672.218 62.202C671.364 62.202 670.594 62.818 670.062 63.784H670.02L669.908 62.398H668.858V70ZM674.286 70H675.56V62.398H674.286V70ZM674.93 60.83C675.434 60.83 675.784 60.494 675.784 59.976C675.784 59.486 675.434 59.15 674.93 59.15C674.426 59.15 674.076 59.486 674.076 59.976C674.076 60.494 674.426 60.83 674.93 60.83ZM681.208 70.182C682.244 70.182 683.056 69.832 683.728 69.398L683.266 68.558C682.706 68.936 682.104 69.16 681.362 69.16C679.92 69.16 678.926 68.124 678.842 66.5H683.966C683.994 66.318 684.022 66.052 684.022 65.772C684.022 63.602 682.93 62.202 680.998 62.202C679.234 62.202 677.568 63.742 677.568 66.206C677.568 68.712 679.192 70.182 681.208 70.182ZM678.828 65.576C678.982 64.092 679.934 63.224 681.012 63.224C682.202 63.224 682.902 64.05 682.902 65.576H678.828ZM685.893 70H687.167V64.484C687.937 63.714 688.469 63.322 689.253 63.322C690.261 63.322 690.695 63.924 690.695 65.352V70H691.969V65.184C691.969 63.238 691.241 62.202 689.645 62.202C688.609 62.202 687.825 62.776 687.097 63.49H687.055L686.943 62.398H685.893V70ZM696.846 70.182C697.308 70.182 697.812 70.042 698.246 69.902L697.994 68.95C697.742 69.048 697.392 69.146 697.126 69.146C696.244 69.146 695.95 68.614 695.95 67.676V63.434H698.008V62.398H695.95V60.256H694.886L694.732 62.398L693.542 62.468V63.434H694.676V67.648C694.676 69.16 695.222 70.182 696.846 70.182ZM701.138 70.182C702.076 70.182 702.93 69.692 703.658 69.09H703.7L703.812 70H704.862V65.324C704.862 63.448 704.078 62.202 702.23 62.202C701.012 62.202 699.934 62.748 699.234 63.196L699.738 64.078C700.34 63.672 701.138 63.266 702.02 63.266C703.266 63.266 703.588 64.204 703.588 65.184C700.354 65.548 698.912 66.374 698.912 68.026C698.912 69.398 699.864 70.182 701.138 70.182ZM701.502 69.16C700.746 69.16 700.158 68.81 700.158 67.942C700.158 66.962 701.026 66.332 703.588 66.024V68.152C702.846 68.81 702.244 69.16 701.502 69.16ZM710.286 70.182C711.196 70.182 712.064 69.832 712.75 69.216L712.19 68.362C711.714 68.796 711.098 69.118 710.398 69.118C708.998 69.118 708.046 67.956 708.046 66.206C708.046 64.456 709.054 63.266 710.44 63.266C711.042 63.266 711.504 63.546 711.952 63.938L712.61 63.098C712.064 62.622 711.378 62.202 710.384 62.202C708.438 62.202 706.716 63.672 706.716 66.206C706.716 68.726 708.27 70.182 710.286 70.182ZM714.413 70H715.687V62.398H714.413V70ZM715.057 60.83C715.561 60.83 715.911 60.494 715.911 59.976C715.911 59.486 715.561 59.15 715.057 59.15C714.553 59.15 714.203 59.486 714.203 59.976C714.203 60.494 714.553 60.83 715.057 60.83ZM721.222 70.182C723.084 70.182 724.75 68.726 724.75 66.206C724.75 63.672 723.084 62.202 721.222 62.202C719.36 62.202 717.694 63.672 717.694 66.206C717.694 68.726 719.36 70.182 721.222 70.182ZM721.222 69.118C719.906 69.118 719.024 67.956 719.024 66.206C719.024 64.456 719.906 63.266 721.222 63.266C722.538 63.266 723.434 64.456 723.434 66.206C723.434 67.956 722.538 69.118 721.222 69.118ZM720.998 61.026L723.448 58.646L722.552 57.792L720.34 60.396L720.998 61.026ZM726.759 70H728.033V64.484C728.803 63.714 729.335 63.322 730.119 63.322C731.127 63.322 731.561 63.924 731.561 65.352V70H732.835V65.184C732.835 63.238 732.107 62.202 730.511 62.202C729.475 62.202 728.691 62.776 727.963 63.49H727.921L727.809 62.398H726.759V70ZM735.975 70.182C736.479 70.182 736.899 69.79 736.899 69.216C736.899 68.628 736.479 68.222 735.975 68.222C735.471 68.222 735.051 68.628 735.051 69.216C735.051 69.79 735.471 70.182 735.975 70.182Z" fill="#484545"/>
</svg>
