<svg width="817" height="74" viewBox="0 0 817 74" fill="none" xmlns="http://www.w3.org/2000/svg">
<path d="M3.178 44.26C3.542 43.098 3.878 41.992 4.2 40.788H4.256C4.592 41.978 4.914 43.098 5.292 44.26L5.782 45.828H2.674L3.178 44.26ZM0.042 50H1.358L2.352 46.864H6.104L7.084 50H8.456L4.97 39.724H3.528L0.042 50ZM11.1359 50.182C11.4859 50.182 11.6959 50.14 11.8779 50.07L11.6959 49.09C11.5559 49.118 11.4999 49.118 11.4299 49.118C11.2339 49.118 11.0659 48.964 11.0659 48.572V38.856H9.79191V48.488C9.79191 49.566 10.1839 50.182 11.1359 50.182ZM13.7841 50H15.0581V42.398H13.7841V50ZM14.4281 40.83C14.9321 40.83 15.2821 40.494 15.2821 39.976C15.2821 39.486 14.9321 39.15 14.4281 39.15C13.9241 39.15 13.5741 39.486 13.5741 39.976C13.5741 40.494 13.9241 40.83 14.4281 40.83ZM17.6396 50H18.9136V44.484C19.6836 43.714 20.2156 43.322 20.9996 43.322C22.0076 43.322 22.4416 43.924 22.4416 45.352V50H23.7156V45.184C23.7156 43.238 22.9876 42.202 21.3916 42.202C20.3556 42.202 19.5716 42.776 18.8436 43.49H18.8016L18.6896 42.398H17.6396V50ZM29.2642 50.182C30.3002 50.182 31.1122 49.832 31.7842 49.398L31.3222 48.558C30.7622 48.936 30.1602 49.16 29.4182 49.16C27.9762 49.16 26.9822 48.124 26.8982 46.5H32.0222C32.0502 46.318 32.0782 46.052 32.0782 45.772C32.0782 43.602 30.9862 42.202 29.0542 42.202C27.2902 42.202 25.6242 43.742 25.6242 46.206C25.6242 48.712 27.2482 50.182 29.2642 50.182ZM26.8842 45.576C27.0382 44.092 27.9902 43.224 29.0682 43.224C30.2582 43.224 30.9582 44.05 30.9582 45.576H26.8842ZM35.4814 50.182C36.4194 50.182 37.2734 49.692 38.0014 49.09H38.0434L38.1554 50H39.2054V45.324C39.2054 43.448 38.4214 42.202 36.5734 42.202C35.3554 42.202 34.2774 42.748 33.5774 43.196L34.0814 44.078C34.6834 43.672 35.4814 43.266 36.3634 43.266C37.6094 43.266 37.9314 44.204 37.9314 45.184C34.6974 45.548 33.2554 46.374 33.2554 48.026C33.2554 49.398 34.2074 50.182 35.4814 50.182ZM35.8454 49.16C35.0894 49.16 34.5014 48.81 34.5014 47.942C34.5014 46.962 35.3694 46.332 37.9314 46.024V48.152C37.1894 48.81 36.5874 49.16 35.8454 49.16ZM41.6337 50H42.9077V44.484C43.6077 43.7 44.2517 43.322 44.8257 43.322C45.7917 43.322 46.2397 43.924 46.2397 45.352V50H47.5137V44.484C48.2277 43.7 48.8437 43.322 49.4317 43.322C50.3977 43.322 50.8457 43.924 50.8457 45.352V50H52.1197V45.184C52.1197 43.238 51.3777 42.202 49.8097 42.202C48.8857 42.202 48.0877 42.804 47.3037 43.658C46.9957 42.762 46.3657 42.202 45.2037 42.202C44.2937 42.202 43.4957 42.776 42.8377 43.504H42.7957L42.6837 42.398H41.6337V50ZM57.5486 50.182C59.4106 50.182 61.0766 48.726 61.0766 46.206C61.0766 43.672 59.4106 42.202 57.5486 42.202C55.6866 42.202 54.0206 43.672 54.0206 46.206C54.0206 48.726 55.6866 50.182 57.5486 50.182ZM57.5486 49.118C56.2326 49.118 55.3506 47.956 55.3506 46.206C55.3506 44.456 56.2326 43.266 57.5486 43.266C58.8646 43.266 59.7606 44.456 59.7606 46.206C59.7606 47.956 58.8646 49.118 57.5486 49.118ZM65.0729 50.182C66.8649 50.182 67.8449 49.16 67.8449 47.928C67.8449 46.486 66.6269 46.038 65.5209 45.618C64.6669 45.296 63.8829 45.03 63.8829 44.302C63.8829 43.714 64.3309 43.21 65.2969 43.21C65.9689 43.21 66.5009 43.49 67.0189 43.882L67.6349 43.056C67.0469 42.594 66.2209 42.202 65.2829 42.202C63.6309 42.202 62.6509 43.154 62.6509 44.358C62.6509 45.646 63.8129 46.164 64.8769 46.556C65.7169 46.878 66.6129 47.214 66.6129 47.998C66.6129 48.656 66.1229 49.188 65.1149 49.188C64.2049 49.188 63.5189 48.824 62.8609 48.292L62.2309 49.132C62.9589 49.734 63.9949 50.182 65.0729 50.182ZM74.5146 50.182C75.4526 50.182 76.3066 49.692 77.0346 49.09H77.0766L77.1886 50H78.2386V45.324C78.2386 43.448 77.4546 42.202 75.6066 42.202C74.3886 42.202 73.3106 42.748 72.6106 43.196L73.1146 44.078C73.7166 43.672 74.5146 43.266 75.3966 43.266C76.6426 43.266 76.9646 44.204 76.9646 45.184C73.7306 45.548 72.2886 46.374 72.2886 48.026C72.2886 49.398 73.2406 50.182 74.5146 50.182ZM74.8786 49.16C74.1226 49.16 73.5346 48.81 73.5346 47.942C73.5346 46.962 74.4026 46.332 76.9646 46.024V48.152C76.2226 48.81 75.6206 49.16 74.8786 49.16ZM83.7978 50H85.0718V44.484C85.8418 43.714 86.3738 43.322 87.1578 43.322C88.1658 43.322 88.5998 43.924 88.5998 45.352V50H89.8738V45.184C89.8738 43.238 89.1458 42.202 87.5498 42.202C86.5138 42.202 85.7298 42.776 85.0018 43.49H84.9598L84.8478 42.398H83.7978V50ZM94.5684 50.182C95.6184 50.182 96.3744 49.636 97.0884 48.81H97.1304L97.2284 50H98.2924V42.398H97.0184V47.788C96.2904 48.698 95.7444 49.076 94.9604 49.076C93.9524 49.076 93.5324 48.474 93.5324 47.06V42.398H92.2584V47.214C92.2584 49.146 92.9724 50.182 94.5684 50.182ZM103.926 50.182C104.962 50.182 105.774 49.832 106.446 49.398L105.984 48.558C105.424 48.936 104.822 49.16 104.08 49.16C102.638 49.16 101.644 48.124 101.56 46.5H106.684C106.712 46.318 106.74 46.052 106.74 45.772C106.74 43.602 105.648 42.202 103.716 42.202C101.952 42.202 100.286 43.742 100.286 46.206C100.286 48.712 101.91 50.182 103.926 50.182ZM101.546 45.576C101.7 44.092 102.652 43.224 103.73 43.224C104.92 43.224 105.62 44.05 105.62 45.576H101.546ZM110.6 50.182C112.392 50.182 113.372 49.16 113.372 47.928C113.372 46.486 112.154 46.038 111.048 45.618C110.194 45.296 109.41 45.03 109.41 44.302C109.41 43.714 109.858 43.21 110.824 43.21C111.496 43.21 112.028 43.49 112.546 43.882L113.162 43.056C112.574 42.594 111.748 42.202 110.81 42.202C109.158 42.202 108.178 43.154 108.178 44.358C108.178 45.646 109.34 46.164 110.404 46.556C111.244 46.878 112.14 47.214 112.14 47.998C112.14 48.656 111.65 49.188 110.642 49.188C109.732 49.188 109.046 48.824 108.388 48.292L107.758 49.132C108.486 49.734 109.522 50.182 110.6 50.182ZM117.241 50.182C117.703 50.182 118.207 50.042 118.641 49.902L118.389 48.95C118.137 49.048 117.787 49.146 117.521 49.146C116.639 49.146 116.345 48.614 116.345 47.676V43.434H118.403V42.398H116.345V40.256H115.281L115.127 42.398L113.937 42.468V43.434H115.071V47.648C115.071 49.16 115.617 50.182 117.241 50.182ZM120.124 50H121.398V45.114C121.902 43.812 122.686 43.364 123.316 43.364C123.624 43.364 123.806 43.392 124.058 43.49L124.296 42.37C124.058 42.244 123.82 42.202 123.484 42.202C122.63 42.202 121.86 42.818 121.328 43.784H121.286L121.174 42.398H120.124V50ZM128.355 50.182C130.217 50.182 131.883 48.726 131.883 46.206C131.883 43.672 130.217 42.202 128.355 42.202C126.493 42.202 124.827 43.672 124.827 46.206C124.827 48.726 126.493 50.182 128.355 50.182ZM128.355 49.118C127.039 49.118 126.157 47.956 126.157 46.206C126.157 44.456 127.039 43.266 128.355 43.266C129.671 43.266 130.567 44.456 130.567 46.206C130.567 47.956 129.671 49.118 128.355 49.118ZM140.088 50.182C141.124 50.182 141.936 49.832 142.608 49.398L142.146 48.558C141.586 48.936 140.984 49.16 140.242 49.16C138.8 49.16 137.806 48.124 137.722 46.5H142.846C142.874 46.318 142.902 46.052 142.902 45.772C142.902 43.602 141.81 42.202 139.878 42.202C138.114 42.202 136.448 43.742 136.448 46.206C136.448 48.712 138.072 50.182 140.088 50.182ZM137.708 45.576C137.862 44.092 138.814 43.224 139.892 43.224C141.082 43.224 141.782 44.05 141.782 45.576H137.708ZM149.604 53.206H150.864V42.398H149.856L149.73 43.126H149.688C149.03 42.524 148.4 42.202 147.518 42.202C145.782 42.202 144.228 43.742 144.228 46.206C144.228 48.74 145.46 50.182 147.364 50.182C148.246 50.182 149.044 49.72 149.66 49.118L149.604 50.504V53.206ZM147.644 49.118C146.3 49.118 145.544 48.026 145.544 46.192C145.544 44.456 146.51 43.28 147.742 43.28C148.372 43.28 148.946 43.504 149.604 44.078V48.068C148.96 48.768 148.344 49.118 147.644 49.118ZM155.668 50.182C156.718 50.182 157.474 49.636 158.188 48.81H158.23L158.328 50H159.392V42.398H158.118V47.788C157.39 48.698 156.844 49.076 156.06 49.076C155.052 49.076 154.632 48.474 154.632 47.06V42.398H153.358V47.214C153.358 49.146 154.072 50.182 155.668 50.182ZM161.96 50H163.234V42.398H161.96V50ZM162.604 40.83C163.108 40.83 163.458 40.494 163.458 39.976C163.458 39.486 163.108 39.15 162.604 39.15C162.1 39.15 161.75 39.486 161.75 39.976C161.75 40.494 162.1 40.83 162.604 40.83ZM165.815 53.206H167.089V50.63L167.061 49.3C167.747 49.86 168.475 50.182 169.161 50.182C170.911 50.182 172.465 48.684 172.465 46.08C172.465 43.742 171.401 42.202 169.441 42.202C168.559 42.202 167.705 42.706 167.019 43.266H166.977L166.865 42.398H165.815V53.206ZM168.951 49.118C168.447 49.118 167.775 48.908 167.089 48.32V44.33C167.831 43.644 168.489 43.28 169.133 43.28C170.575 43.28 171.135 44.414 171.135 46.094C171.135 47.984 170.211 49.118 168.951 49.118ZM177.451 50.182C179.313 50.182 180.979 48.726 180.979 46.206C180.979 43.672 179.313 42.202 177.451 42.202C175.589 42.202 173.923 43.672 173.923 46.206C173.923 48.726 175.589 50.182 177.451 50.182ZM177.451 49.118C176.135 49.118 175.253 47.956 175.253 46.206C175.253 44.456 176.135 43.266 177.451 43.266C178.767 43.266 179.663 44.456 179.663 46.206C179.663 47.956 178.767 49.118 177.451 49.118ZM186.118 53.206H187.392V50.63L187.364 49.3C188.05 49.86 188.778 50.182 189.464 50.182C191.214 50.182 192.768 48.684 192.768 46.08C192.768 43.742 191.704 42.202 189.744 42.202C188.862 42.202 188.008 42.706 187.322 43.266H187.28L187.168 42.398H186.118V53.206ZM189.254 49.118C188.75 49.118 188.078 48.908 187.392 48.32V44.33C188.134 43.644 188.792 43.28 189.436 43.28C190.878 43.28 191.438 44.414 191.438 46.094C191.438 47.984 190.514 49.118 189.254 49.118ZM196.144 50.182C196.494 50.182 196.704 50.14 196.886 50.07L196.704 49.09C196.564 49.118 196.508 49.118 196.438 49.118C196.242 49.118 196.074 48.964 196.074 48.572V38.856H194.8V48.488C194.8 49.566 195.192 50.182 196.144 50.182ZM200.542 50.182C201.48 50.182 202.334 49.692 203.062 49.09H203.104L203.216 50H204.266V45.324C204.266 43.448 203.482 42.202 201.634 42.202C200.416 42.202 199.338 42.748 198.638 43.196L199.142 44.078C199.744 43.672 200.542 43.266 201.424 43.266C202.67 43.266 202.992 44.204 202.992 45.184C199.758 45.548 198.316 46.374 198.316 48.026C198.316 49.398 199.268 50.182 200.542 50.182ZM200.906 49.16C200.15 49.16 199.562 48.81 199.562 47.942C199.562 46.962 200.43 46.332 202.992 46.024V48.152C202.25 48.81 201.648 49.16 200.906 49.16ZM208.682 50.182C210.474 50.182 211.454 49.16 211.454 47.928C211.454 46.486 210.236 46.038 209.13 45.618C208.276 45.296 207.492 45.03 207.492 44.302C207.492 43.714 207.94 43.21 208.906 43.21C209.578 43.21 210.11 43.49 210.628 43.882L211.244 43.056C210.656 42.594 209.83 42.202 208.892 42.202C207.24 42.202 206.26 43.154 206.26 44.358C206.26 45.646 207.422 46.164 208.486 46.556C209.326 46.878 210.222 47.214 210.222 47.998C210.222 48.656 209.732 49.188 208.724 49.188C207.814 49.188 207.128 48.824 206.47 48.292L205.84 49.132C206.568 49.734 207.604 50.182 208.682 50.182ZM213.243 50H214.517V44.484C215.217 43.7 215.861 43.322 216.435 43.322C217.401 43.322 217.849 43.924 217.849 45.352V50H219.123V44.484C219.837 43.7 220.453 43.322 221.041 43.322C222.007 43.322 222.455 43.924 222.455 45.352V50H223.729V45.184C223.729 43.238 222.987 42.202 221.419 42.202C220.495 42.202 219.697 42.804 218.913 43.658C218.605 42.762 217.975 42.202 216.813 42.202C215.903 42.202 215.105 42.776 214.447 43.504H214.405L214.293 42.398H213.243V50ZM227.954 50.182C228.892 50.182 229.746 49.692 230.474 49.09H230.516L230.628 50H231.678V45.324C231.678 43.448 230.894 42.202 229.046 42.202C227.828 42.202 226.75 42.748 226.05 43.196L226.554 44.078C227.156 43.672 227.954 43.266 228.836 43.266C230.082 43.266 230.404 44.204 230.404 45.184C227.17 45.548 225.728 46.374 225.728 48.026C225.728 49.398 226.68 50.182 227.954 50.182ZM228.318 49.16C227.562 49.16 226.974 48.81 226.974 47.942C226.974 46.962 227.842 46.332 230.404 46.024V48.152C229.662 48.81 229.06 49.16 228.318 49.16ZM234.106 50H235.38V44.484C236.15 43.714 236.682 43.322 237.466 43.322C238.474 43.322 238.908 43.924 238.908 45.352V50H240.182V45.184C240.182 43.238 239.454 42.202 237.858 42.202C236.822 42.202 236.038 42.776 235.31 43.49H235.268L235.156 42.398H234.106V50ZM245.255 50.182C246.165 50.182 246.963 49.692 247.565 49.104H247.607L247.719 50H248.755V38.856H247.495V41.782L247.551 43.098C246.879 42.538 246.305 42.202 245.409 42.202C243.673 42.202 242.119 43.742 242.119 46.206C242.119 48.74 243.351 50.182 245.255 50.182ZM245.535 49.118C244.191 49.118 243.435 48.026 243.435 46.192C243.435 44.456 244.401 43.28 245.633 43.28C246.263 43.28 246.837 43.504 247.495 44.078V48.068C246.851 48.768 246.235 49.118 245.535 49.118ZM254.301 50.182C256.163 50.182 257.829 48.726 257.829 46.206C257.829 43.672 256.163 42.202 254.301 42.202C252.439 42.202 250.773 43.672 250.773 46.206C250.773 48.726 252.439 50.182 254.301 50.182ZM254.301 49.118C252.985 49.118 252.103 47.956 252.103 46.206C252.103 44.456 252.985 43.266 254.301 43.266C255.617 43.266 256.513 44.456 256.513 46.206C256.513 47.956 255.617 49.118 254.301 49.118ZM263.094 53.276C264.606 53.276 265.404 52.128 265.922 50.63L268.792 42.398H267.546L266.188 46.626C265.978 47.298 265.754 48.068 265.544 48.754H265.474C265.236 48.068 264.97 47.284 264.746 46.626L263.192 42.398H261.862L264.914 50.014L264.746 50.588C264.438 51.526 263.892 52.226 263.024 52.226C262.828 52.226 262.604 52.156 262.45 52.1L262.198 53.122C262.436 53.22 262.73 53.276 263.094 53.276ZM275.387 50.182C277.179 50.182 278.159 49.16 278.159 47.928C278.159 46.486 276.941 46.038 275.835 45.618C274.981 45.296 274.197 45.03 274.197 44.302C274.197 43.714 274.645 43.21 275.611 43.21C276.283 43.21 276.815 43.49 277.333 43.882L277.949 43.056C277.361 42.594 276.535 42.202 275.597 42.202C273.945 42.202 272.965 43.154 272.965 44.358C272.965 45.646 274.127 46.164 275.191 46.556C276.031 46.878 276.927 47.214 276.927 47.998C276.927 48.656 276.437 49.188 275.429 49.188C274.519 49.188 273.833 48.824 273.175 48.292L272.545 49.132C273.273 49.734 274.309 50.182 275.387 50.182ZM279.948 50H281.222V42.398H279.948V50ZM280.592 40.83C281.096 40.83 281.446 40.494 281.446 39.976C281.446 39.486 281.096 39.15 280.592 39.15C280.088 39.15 279.738 39.486 279.738 39.976C279.738 40.494 280.088 40.83 280.592 40.83ZM283.804 50H285.078V44.484C285.848 43.714 286.38 43.322 287.164 43.322C288.172 43.322 288.606 43.924 288.606 45.352V50H289.88V45.184C289.88 43.238 289.152 42.202 287.556 42.202C286.52 42.202 285.736 42.776 285.008 43.49H284.966L284.854 42.398H283.804V50ZM294.756 50.182C295.218 50.182 295.722 50.042 296.156 49.902L295.904 48.95C295.652 49.048 295.302 49.146 295.036 49.146C294.154 49.146 293.86 48.614 293.86 47.676V43.434H295.918V42.398H293.86V40.256H292.796L292.642 42.398L291.452 42.468V43.434H292.586V47.648C292.586 49.16 293.132 50.182 294.756 50.182ZM300.5 50.182C301.536 50.182 302.348 49.832 303.02 49.398L302.558 48.558C301.998 48.936 301.396 49.16 300.654 49.16C299.212 49.16 298.218 48.124 298.134 46.5H303.258C303.286 46.318 303.314 46.052 303.314 45.772C303.314 43.602 302.222 42.202 300.29 42.202C298.526 42.202 296.86 43.742 296.86 46.206C296.86 48.712 298.484 50.182 300.5 50.182ZM298.12 45.576C298.274 44.092 299.226 43.224 300.304 43.224C301.494 43.224 302.194 44.05 302.194 45.576H298.12ZM307.43 50.182C307.892 50.182 308.396 50.042 308.83 49.902L308.578 48.95C308.326 49.048 307.976 49.146 307.71 49.146C306.828 49.146 306.534 48.614 306.534 47.676V43.434H308.592V42.398H306.534V40.256H305.47L305.316 42.398L304.126 42.468V43.434H305.26V47.648C305.26 49.16 305.806 50.182 307.43 50.182ZM310.313 50H311.587V42.398H310.313V50ZM310.957 40.83C311.461 40.83 311.811 40.494 311.811 39.976C311.811 39.486 311.461 39.15 310.957 39.15C310.453 39.15 310.103 39.486 310.103 39.976C310.103 40.494 310.453 40.83 310.957 40.83ZM313.371 50H319.125V48.964H314.981L318.985 43.084V42.398H313.805V43.434H317.375L313.371 49.314V50ZM322.181 50.182C323.119 50.182 323.973 49.692 324.701 49.09H324.743L324.855 50H325.905V45.324C325.905 43.448 325.121 42.202 323.273 42.202C322.055 42.202 320.977 42.748 320.277 43.196L320.781 44.078C321.383 43.672 322.181 43.266 323.063 43.266C324.309 43.266 324.631 44.204 324.631 45.184C321.397 45.548 319.955 46.374 319.955 48.026C319.955 49.398 320.907 50.182 322.181 50.182ZM322.545 49.16C321.789 49.16 321.201 48.81 321.201 47.942C321.201 46.962 322.069 46.332 324.631 46.024V48.152C323.889 48.81 323.287 49.16 322.545 49.16ZM328.333 50H329.607V44.484C330.377 43.714 330.909 43.322 331.693 43.322C332.701 43.322 333.135 43.924 333.135 45.352V50H334.409V45.184C334.409 43.238 333.681 42.202 332.085 42.202C331.049 42.202 330.265 42.776 329.537 43.49H329.495L329.383 42.398H328.333V50ZM339.482 50.182C340.392 50.182 341.19 49.692 341.792 49.104H341.834L341.946 50H342.982V38.856H341.722V41.782L341.778 43.098C341.106 42.538 340.532 42.202 339.636 42.202C337.9 42.202 336.346 43.742 336.346 46.206C336.346 48.74 337.578 50.182 339.482 50.182ZM339.762 49.118C338.418 49.118 337.662 48.026 337.662 46.192C337.662 44.456 338.628 43.28 339.86 43.28C340.49 43.28 341.064 43.504 341.722 44.078V48.068C341.078 48.768 340.462 49.118 339.762 49.118ZM348.527 50.182C350.389 50.182 352.055 48.726 352.055 46.206C352.055 43.672 350.389 42.202 348.527 42.202C346.665 42.202 344.999 43.672 344.999 46.206C344.999 48.726 346.665 50.182 348.527 50.182ZM348.527 49.118C347.211 49.118 346.329 47.956 346.329 46.206C346.329 44.456 347.211 43.266 348.527 43.266C349.843 43.266 350.739 44.456 350.739 46.206C350.739 47.956 349.843 49.118 348.527 49.118ZM358.538 50.182C358.888 50.182 359.098 50.14 359.28 50.07L359.098 49.09C358.958 49.118 358.902 49.118 358.832 49.118C358.636 49.118 358.468 48.964 358.468 48.572V38.856H357.194V48.488C357.194 49.566 357.586 50.182 358.538 50.182ZM362.936 50.182C363.874 50.182 364.728 49.692 365.456 49.09H365.498L365.61 50H366.66V45.324C366.66 43.448 365.876 42.202 364.028 42.202C362.81 42.202 361.732 42.748 361.032 43.196L361.536 44.078C362.138 43.672 362.936 43.266 363.818 43.266C365.064 43.266 365.386 44.204 365.386 45.184C362.152 45.548 360.71 46.374 360.71 48.026C360.71 49.398 361.662 50.182 362.936 50.182ZM363.3 49.16C362.544 49.16 361.956 48.81 361.956 47.942C361.956 46.962 362.824 46.332 365.386 46.024V48.152C364.644 48.81 364.042 49.16 363.3 49.16ZM372.22 50H373.494V42.398H372.22V50ZM372.864 40.83C373.368 40.83 373.718 40.494 373.718 39.976C373.718 39.486 373.368 39.15 372.864 39.15C372.36 39.15 372.01 39.486 372.01 39.976C372.01 40.494 372.36 40.83 372.864 40.83ZM376.075 50H377.349V44.484C378.119 43.714 378.651 43.322 379.435 43.322C380.443 43.322 380.877 43.924 380.877 45.352V50H382.151V45.184C382.151 43.238 381.423 42.202 379.827 42.202C378.791 42.202 378.007 42.776 377.279 43.49H377.237L377.125 42.398H376.075V50ZM384.844 50H386.118V43.434H387.728V42.398H386.118V41.194C386.118 40.214 386.468 39.696 387.196 39.696C387.462 39.696 387.77 39.766 388.05 39.892L388.33 38.926C387.98 38.772 387.518 38.674 387.056 38.674C385.544 38.674 384.844 39.64 384.844 41.18V42.398L383.808 42.468V43.434H384.844V50ZM391.99 50.182C393.852 50.182 395.518 48.726 395.518 46.206C395.518 43.672 393.852 42.202 391.99 42.202C390.128 42.202 388.462 43.672 388.462 46.206C388.462 48.726 390.128 50.182 391.99 50.182ZM391.99 49.118C390.674 49.118 389.792 47.956 389.792 46.206C389.792 44.456 390.674 43.266 391.99 43.266C393.306 43.266 394.202 44.456 394.202 46.206C394.202 47.956 393.306 49.118 391.99 49.118ZM397.526 50H398.8V45.114C399.304 43.812 400.088 43.364 400.718 43.364C401.026 43.364 401.208 43.392 401.46 43.49L401.698 42.37C401.46 42.244 401.222 42.202 400.886 42.202C400.032 42.202 399.262 42.818 398.73 43.784H398.688L398.576 42.398H397.526V50ZM402.954 50H404.228V44.484C404.928 43.7 405.572 43.322 406.146 43.322C407.112 43.322 407.56 43.924 407.56 45.352V50H408.834V44.484C409.548 43.7 410.164 43.322 410.752 43.322C411.718 43.322 412.166 43.924 412.166 45.352V50H413.44V45.184C413.44 43.238 412.698 42.202 411.13 42.202C410.206 42.202 409.408 42.804 408.624 43.658C408.316 42.762 407.686 42.202 406.524 42.202C405.614 42.202 404.816 42.776 404.158 43.504H404.116L404.004 42.398H402.954V50ZM417.665 50.182C418.603 50.182 419.457 49.692 420.185 49.09H420.227L420.339 50H421.389V45.324C421.389 43.448 420.605 42.202 418.757 42.202C417.539 42.202 416.461 42.748 415.761 43.196L416.265 44.078C416.867 43.672 417.665 43.266 418.547 43.266C419.793 43.266 420.115 44.204 420.115 45.184C416.881 45.548 415.439 46.374 415.439 48.026C415.439 49.398 416.391 50.182 417.665 50.182ZM418.029 49.16C417.273 49.16 416.685 48.81 416.685 47.942C416.685 46.962 417.553 46.332 420.115 46.024V48.152C419.373 48.81 418.771 49.16 418.029 49.16ZM426.813 50.182C427.723 50.182 428.591 49.832 429.277 49.216L428.717 48.362C428.241 48.796 427.625 49.118 426.925 49.118C425.525 49.118 424.573 47.956 424.573 46.206C424.573 44.456 425.581 43.266 426.967 43.266C427.569 43.266 428.031 43.546 428.479 43.938L429.137 43.098C428.591 42.622 427.905 42.202 426.911 42.202C424.965 42.202 423.243 43.672 423.243 46.206C423.243 48.726 424.797 50.182 426.813 50.182ZM430.94 50H432.214V42.398H430.94V50ZM431.584 40.83C432.088 40.83 432.438 40.494 432.438 39.976C432.438 39.486 432.088 39.15 431.584 39.15C431.08 39.15 430.73 39.486 430.73 39.976C430.73 40.494 431.08 40.83 431.584 40.83ZM437.75 50.182C439.612 50.182 441.278 48.726 441.278 46.206C441.278 43.672 439.612 42.202 437.75 42.202C435.888 42.202 434.222 43.672 434.222 46.206C434.222 48.726 435.888 50.182 437.75 50.182ZM437.75 49.118C436.434 49.118 435.552 47.956 435.552 46.206C435.552 44.456 436.434 43.266 437.75 43.266C439.066 43.266 439.962 44.456 439.962 46.206C439.962 47.956 439.066 49.118 437.75 49.118ZM437.526 41.026L439.976 38.646L439.08 37.792L436.868 40.396L437.526 41.026ZM443.286 50H444.56V44.484C445.33 43.714 445.862 43.322 446.646 43.322C447.654 43.322 448.088 43.924 448.088 45.352V50H449.362V45.184C449.362 43.238 448.634 42.202 447.038 42.202C446.002 42.202 445.218 42.776 444.49 43.49H444.448L444.336 42.398H443.286V50ZM454.976 50H456.25V45.114C456.754 43.812 457.538 43.364 458.168 43.364C458.476 43.364 458.658 43.392 458.91 43.49L459.148 42.37C458.91 42.244 458.672 42.202 458.336 42.202C457.482 42.202 456.712 42.818 456.18 43.784H456.138L456.026 42.398H454.976V50ZM463.319 50.182C464.355 50.182 465.167 49.832 465.839 49.398L465.377 48.558C464.817 48.936 464.215 49.16 463.473 49.16C462.031 49.16 461.037 48.124 460.953 46.5H466.077C466.105 46.318 466.133 46.052 466.133 45.772C466.133 43.602 465.041 42.202 463.109 42.202C461.345 42.202 459.679 43.742 459.679 46.206C459.679 48.712 461.303 50.182 463.319 50.182ZM460.939 45.576C461.093 44.092 462.045 43.224 463.123 43.224C464.313 43.224 465.013 44.05 465.013 45.576H460.939ZM471.001 50.182C471.911 50.182 472.779 49.832 473.465 49.216L472.905 48.362C472.429 48.796 471.813 49.118 471.113 49.118C469.713 49.118 468.761 47.956 468.761 46.206C468.761 44.456 469.769 43.266 471.155 43.266C471.757 43.266 472.219 43.546 472.667 43.938L473.325 43.098C472.779 42.622 472.093 42.202 471.099 42.202C469.153 42.202 467.431 43.672 467.431 46.206C467.431 48.726 468.985 50.182 471.001 50.182ZM476.727 50.182C477.665 50.182 478.519 49.692 479.247 49.09H479.289L479.401 50H480.451V45.324C480.451 43.448 479.667 42.202 477.819 42.202C476.601 42.202 475.523 42.748 474.823 43.196L475.327 44.078C475.929 43.672 476.727 43.266 477.609 43.266C478.855 43.266 479.177 44.204 479.177 45.184C475.943 45.548 474.501 46.374 474.501 48.026C474.501 49.398 475.453 50.182 476.727 50.182ZM477.091 49.16C476.335 49.16 475.747 48.81 475.747 47.942C475.747 46.962 476.615 46.332 479.177 46.024V48.152C478.435 48.81 477.833 49.16 477.091 49.16ZM485.092 50.182C486.142 50.182 486.898 49.636 487.612 48.81H487.654L487.752 50H488.816V42.398H487.542V47.788C486.814 48.698 486.268 49.076 485.484 49.076C484.476 49.076 484.056 48.474 484.056 47.06V42.398H482.782V47.214C482.782 49.146 483.496 50.182 485.092 50.182ZM493.974 50.182C494.884 50.182 495.682 49.692 496.284 49.104H496.326L496.438 50H497.474V38.856H496.214V41.782L496.27 43.098C495.598 42.538 495.024 42.202 494.128 42.202C492.392 42.202 490.838 43.742 490.838 46.206C490.838 48.74 492.07 50.182 493.974 50.182ZM494.254 49.118C492.91 49.118 492.154 48.026 492.154 46.192C492.154 44.456 493.12 43.28 494.352 43.28C494.982 43.28 495.556 43.504 496.214 44.078V48.068C495.57 48.768 494.954 49.118 494.254 49.118ZM501.815 50.182C502.753 50.182 503.607 49.692 504.335 49.09H504.377L504.489 50H505.539V45.324C505.539 43.448 504.755 42.202 502.907 42.202C501.689 42.202 500.611 42.748 499.911 43.196L500.415 44.078C501.017 43.672 501.815 43.266 502.697 43.266C503.943 43.266 504.265 44.204 504.265 45.184C501.031 45.548 499.589 46.374 499.589 48.026C499.589 49.398 500.541 50.182 501.815 50.182ZM502.179 49.16C501.423 49.16 500.835 48.81 500.835 47.942C500.835 46.962 501.703 46.332 504.265 46.024V48.152C503.523 48.81 502.921 49.16 502.179 49.16ZM510.558 50.182C511.468 50.182 512.266 49.692 512.868 49.104H512.91L513.022 50H514.058V38.856H512.798V41.782L512.854 43.098C512.182 42.538 511.608 42.202 510.712 42.202C508.976 42.202 507.422 43.742 507.422 46.206C507.422 48.74 508.654 50.182 510.558 50.182ZM510.838 49.118C509.494 49.118 508.738 48.026 508.738 46.192C508.738 44.456 509.704 43.28 510.936 43.28C511.566 43.28 512.14 43.504 512.798 44.078V48.068C512.154 48.768 511.538 49.118 510.838 49.118ZM518.399 50.182C519.337 50.182 520.191 49.692 520.919 49.09H520.961L521.073 50H522.123V45.324C522.123 43.448 521.339 42.202 519.491 42.202C518.273 42.202 517.195 42.748 516.495 43.196L516.999 44.078C517.601 43.672 518.399 43.266 519.281 43.266C520.527 43.266 520.849 44.204 520.849 45.184C517.615 45.548 516.173 46.374 516.173 48.026C516.173 49.398 517.125 50.182 518.399 50.182ZM518.763 49.16C518.007 49.16 517.419 48.81 517.419 47.942C517.419 46.962 518.287 46.332 520.849 46.024V48.152C520.107 48.81 519.505 49.16 518.763 49.16ZM530.679 50.182C531.589 50.182 532.457 49.832 533.143 49.216L532.583 48.362C532.107 48.796 531.491 49.118 530.791 49.118C529.391 49.118 528.439 47.956 528.439 46.206C528.439 44.456 529.447 43.266 530.833 43.266C531.435 43.266 531.897 43.546 532.345 43.938L533.003 43.098C532.457 42.622 531.771 42.202 530.777 42.202C528.831 42.202 527.109 43.672 527.109 46.206C527.109 48.726 528.663 50.182 530.679 50.182ZM537.418 50.182C539.28 50.182 540.946 48.726 540.946 46.206C540.946 43.672 539.28 42.202 537.418 42.202C535.556 42.202 533.89 43.672 533.89 46.206C533.89 48.726 535.556 50.182 537.418 50.182ZM537.418 49.118C536.102 49.118 535.22 47.956 535.22 46.206C535.22 44.456 536.102 43.266 537.418 43.266C538.734 43.266 539.63 44.456 539.63 46.206C539.63 47.956 538.734 49.118 537.418 49.118ZM542.954 50H544.228V44.484C544.998 43.714 545.53 43.322 546.314 43.322C547.322 43.322 547.756 43.924 547.756 45.352V50H549.03V45.184C549.03 43.238 548.302 42.202 546.706 42.202C545.67 42.202 544.886 42.776 544.158 43.49H544.116L544.004 42.398H542.954V50ZM557.709 50.182C558.745 50.182 559.557 49.832 560.229 49.398L559.767 48.558C559.207 48.936 558.605 49.16 557.863 49.16C556.421 49.16 555.427 48.124 555.343 46.5H560.467C560.495 46.318 560.523 46.052 560.523 45.772C560.523 43.602 559.431 42.202 557.499 42.202C555.735 42.202 554.069 43.742 554.069 46.206C554.069 48.712 555.693 50.182 557.709 50.182ZM555.329 45.576C555.483 44.092 556.435 43.224 557.513 43.224C558.703 43.224 559.403 44.05 559.403 45.576H555.329ZM563.739 50.182C564.089 50.182 564.299 50.14 564.481 50.07L564.299 49.09C564.159 49.118 564.103 49.118 564.033 49.118C563.837 49.118 563.669 48.964 563.669 48.572V38.856H562.395V48.488C562.395 49.566 562.787 50.182 563.739 50.182ZM569.728 50H571.002V43.434H572.612V42.398H571.002V41.194C571.002 40.214 571.352 39.696 572.08 39.696C572.346 39.696 572.654 39.766 572.934 39.892L573.214 38.926C572.864 38.772 572.402 38.674 571.94 38.674C570.428 38.674 569.728 39.64 569.728 41.18V42.398L568.692 42.468V43.434H569.728V50ZM574.068 50H575.356V42.398H574.068V50ZM574.712 40.83C575.216 40.83 575.58 40.494 575.58 39.976C575.58 39.486 575.216 39.15 574.712 39.15C574.222 39.15 573.872 39.486 573.872 39.976C573.872 40.494 574.222 40.83 574.712 40.83ZM577.913 50H579.187V44.484C579.957 43.714 580.489 43.322 581.273 43.322C582.281 43.322 582.715 43.924 582.715 45.352V50H583.989V45.184C583.989 43.238 583.261 42.202 581.665 42.202C580.629 42.202 579.845 42.776 579.117 43.49H579.075L578.963 42.398H577.913V50ZM592.192 50.182C593.102 50.182 593.9 49.692 594.502 49.104H594.544L594.656 50H595.692V38.856H594.432V41.782L594.488 43.098C593.816 42.538 593.242 42.202 592.346 42.202C590.61 42.202 589.056 43.742 589.056 46.206C589.056 48.74 590.288 50.182 592.192 50.182ZM592.472 49.118C591.128 49.118 590.372 48.026 590.372 46.192C590.372 44.456 591.338 43.28 592.57 43.28C593.2 43.28 593.774 43.504 594.432 44.078V48.068C593.788 48.768 593.172 49.118 592.472 49.118ZM601.35 50.182C602.386 50.182 603.198 49.832 603.87 49.398L603.408 48.558C602.848 48.936 602.246 49.16 601.504 49.16C600.062 49.16 599.068 48.124 598.984 46.5H604.108C604.136 46.318 604.164 46.052 604.164 45.772C604.164 43.602 603.072 42.202 601.14 42.202C599.376 42.202 597.71 43.742 597.71 46.206C597.71 48.712 599.334 50.182 601.35 50.182ZM598.97 45.576C599.124 44.092 600.076 43.224 601.154 43.224C602.344 43.224 603.044 44.05 603.044 45.576H598.97ZM611.757 50.182C612.667 50.182 613.465 49.692 614.067 49.104H614.109L614.221 50H615.257V38.856H613.997V41.782L614.053 43.098C613.381 42.538 612.807 42.202 611.911 42.202C610.175 42.202 608.621 43.742 608.621 46.206C608.621 48.74 609.853 50.182 611.757 50.182ZM612.037 49.118C610.693 49.118 609.937 48.026 609.937 46.192C609.937 44.456 610.903 43.28 612.135 43.28C612.765 43.28 613.339 43.504 613.997 44.078V48.068C613.353 48.768 612.737 49.118 612.037 49.118ZM619.599 50.182C620.537 50.182 621.391 49.692 622.119 49.09H622.161L622.273 50H623.323V45.324C623.323 43.448 622.539 42.202 620.691 42.202C619.473 42.202 618.395 42.748 617.695 43.196L618.199 44.078C618.801 43.672 619.599 43.266 620.481 43.266C621.727 43.266 622.049 44.204 622.049 45.184C618.815 45.548 617.373 46.374 617.373 48.026C617.373 49.398 618.325 50.182 619.599 50.182ZM619.963 49.16C619.207 49.16 618.619 48.81 618.619 47.942C618.619 46.962 619.487 46.332 622.049 46.024V48.152C621.307 48.81 620.705 49.16 619.963 49.16ZM625.751 50H627.025V45.114C627.529 43.812 628.313 43.364 628.943 43.364C629.251 43.364 629.433 43.392 629.685 43.49L629.923 42.37C629.685 42.244 629.447 42.202 629.111 42.202C628.257 42.202 627.487 42.818 626.955 43.784H626.913L626.801 42.398H625.751V50ZM636.521 50.182C637.571 50.182 638.327 49.636 639.041 48.81H639.083L639.181 50H640.245V42.398H638.971V47.788C638.243 48.698 637.697 49.076 636.913 49.076C635.905 49.076 635.485 48.474 635.485 47.06V42.398H634.211V47.214C634.211 49.146 634.925 50.182 636.521 50.182ZM642.813 50H644.087V44.484C644.857 43.714 645.389 43.322 646.173 43.322C647.181 43.322 647.615 43.924 647.615 45.352V50H648.889V45.184C648.889 43.238 648.161 42.202 646.565 42.202C645.529 42.202 644.745 42.776 644.017 43.49H643.975L643.863 42.398H642.813V50ZM654.503 53.206H655.777V50.63L655.749 49.3C656.435 49.86 657.163 50.182 657.849 50.182C659.599 50.182 661.153 48.684 661.153 46.08C661.153 43.742 660.089 42.202 658.129 42.202C657.247 42.202 656.393 42.706 655.707 43.266H655.665L655.553 42.398H654.503V53.206ZM657.639 49.118C657.135 49.118 656.463 48.908 655.777 48.32V44.33C656.519 43.644 657.177 43.28 657.821 43.28C659.263 43.28 659.823 44.414 659.823 46.094C659.823 47.984 658.899 49.118 657.639 49.118ZM665.396 50.182C666.446 50.182 667.202 49.636 667.916 48.81H667.958L668.056 50H669.12V42.398H667.846V47.788C667.118 48.698 666.572 49.076 665.788 49.076C664.78 49.076 664.36 48.474 664.36 47.06V42.398H663.086V47.214C663.086 49.146 663.8 50.182 665.396 50.182ZM671.688 50H672.962V44.484C673.732 43.714 674.264 43.322 675.048 43.322C676.056 43.322 676.49 43.924 676.49 45.352V50H677.764V45.184C677.764 43.238 677.036 42.202 675.44 42.202C674.404 42.202 673.62 42.776 672.892 43.49H672.85L672.738 42.398H671.688V50ZM682.641 50.182C683.103 50.182 683.607 50.042 684.041 49.902L683.789 48.95C683.537 49.048 683.187 49.146 682.921 49.146C682.039 49.146 681.745 48.614 681.745 47.676V43.434H683.803V42.398H681.745V40.256H680.681L680.527 42.398L679.337 42.468V43.434H680.471V47.648C680.471 49.16 681.017 50.182 682.641 50.182ZM686.933 50.182C687.871 50.182 688.725 49.692 689.453 49.09H689.495L689.607 50H690.657V45.324C690.657 43.448 689.873 42.202 688.025 42.202C686.807 42.202 685.729 42.748 685.029 43.196L685.533 44.078C686.135 43.672 686.933 43.266 687.815 43.266C689.061 43.266 689.383 44.204 689.383 45.184C686.149 45.548 684.707 46.374 684.707 48.026C684.707 49.398 685.659 50.182 686.933 50.182ZM687.297 49.16C686.541 49.16 685.953 48.81 685.953 47.942C685.953 46.962 686.821 46.332 689.383 46.024V48.152C688.641 48.81 688.039 49.16 687.297 49.16ZM693.085 53.206H694.359V50.63L694.331 49.3C695.017 49.86 695.745 50.182 696.431 50.182C698.181 50.182 699.735 48.684 699.735 46.08C699.735 43.742 698.671 42.202 696.711 42.202C695.829 42.202 694.975 42.706 694.289 43.266H694.247L694.135 42.398H693.085V53.206ZM696.221 49.118C695.717 49.118 695.045 48.908 694.359 48.32V44.33C695.101 43.644 695.759 43.28 696.403 43.28C697.845 43.28 698.405 44.414 698.405 46.094C698.405 47.984 697.481 49.118 696.221 49.118ZM701.767 50H703.041V42.398H701.767V50ZM702.411 40.83C702.915 40.83 703.265 40.494 703.265 39.976C703.265 39.486 702.915 39.15 702.411 39.15C701.907 39.15 701.557 39.486 701.557 39.976C701.557 40.494 701.907 40.83 702.411 40.83ZM708.688 50.182C709.724 50.182 710.536 49.832 711.208 49.398L710.746 48.558C710.186 48.936 709.584 49.16 708.842 49.16C707.4 49.16 706.406 48.124 706.322 46.5H711.446C711.474 46.318 711.502 46.052 711.502 45.772C711.502 43.602 710.41 42.202 708.478 42.202C706.714 42.202 705.048 43.742 705.048 46.206C705.048 48.712 706.672 50.182 708.688 50.182ZM706.308 45.576C706.462 44.092 707.414 43.224 708.492 43.224C709.682 43.224 710.382 44.05 710.382 45.576H706.308ZM708.24 41.026L710.69 38.646L709.794 37.792L707.582 40.396L708.24 41.026ZM718.255 50.182C719.193 50.182 720.047 49.692 720.775 49.09H720.817L720.929 50H721.979V45.324C721.979 43.448 721.195 42.202 719.347 42.202C718.129 42.202 717.051 42.748 716.351 43.196L716.855 44.078C717.457 43.672 718.255 43.266 719.137 43.266C720.383 43.266 720.705 44.204 720.705 45.184C717.471 45.548 716.029 46.374 716.029 48.026C716.029 49.398 716.981 50.182 718.255 50.182ZM718.619 49.16C717.863 49.16 717.275 48.81 717.275 47.942C717.275 46.962 718.143 46.332 720.705 46.024V48.152C719.963 48.81 719.361 49.16 718.619 49.16ZM725.751 50.182C726.101 50.182 726.311 50.14 726.493 50.07L726.311 49.09C726.171 49.118 726.115 49.118 726.045 49.118C725.849 49.118 725.681 48.964 725.681 48.572V38.856H724.407V48.488C724.407 49.566 724.799 50.182 725.751 50.182ZM731.53 53.206H732.804V50.63L732.776 49.3C733.462 49.86 734.19 50.182 734.876 50.182C736.626 50.182 738.18 48.684 738.18 46.08C738.18 43.742 737.116 42.202 735.156 42.202C734.274 42.202 733.42 42.706 732.734 43.266H732.692L732.58 42.398H731.53V53.206ZM734.666 49.118C734.162 49.118 733.49 48.908 732.804 48.32V44.33C733.546 43.644 734.204 43.28 734.848 43.28C736.29 43.28 736.85 44.414 736.85 46.094C736.85 47.984 735.926 49.118 734.666 49.118ZM740.212 50H741.486V45.114C741.99 43.812 742.774 43.364 743.404 43.364C743.712 43.364 743.894 43.392 744.146 43.49L744.384 42.37C744.146 42.244 743.908 42.202 743.572 42.202C742.718 42.202 741.948 42.818 741.416 43.784H741.374L741.262 42.398H740.212V50ZM748.443 50.182C750.305 50.182 751.971 48.726 751.971 46.206C751.971 43.672 750.305 42.202 748.443 42.202C746.581 42.202 744.915 43.672 744.915 46.206C744.915 48.726 746.581 50.182 748.443 50.182ZM748.443 49.118C747.127 49.118 746.245 47.956 746.245 46.206C746.245 44.456 747.127 43.266 748.443 43.266C749.759 43.266 750.655 44.456 750.655 46.206C750.655 47.956 749.759 49.118 748.443 49.118ZM756.975 50.182C757.885 50.182 758.753 49.832 759.439 49.216L758.879 48.362C758.403 48.796 757.787 49.118 757.087 49.118C755.687 49.118 754.735 47.956 754.735 46.206C754.735 44.456 755.743 43.266 757.129 43.266C757.731 43.266 758.193 43.546 758.641 43.938L759.299 43.098C758.753 42.622 758.067 42.202 757.073 42.202C755.127 42.202 753.405 43.672 753.405 46.206C753.405 48.726 754.959 50.182 756.975 50.182ZM763.827 50.182C764.863 50.182 765.675 49.832 766.347 49.398L765.885 48.558C765.325 48.936 764.723 49.16 763.981 49.16C762.539 49.16 761.545 48.124 761.461 46.5H766.585C766.613 46.318 766.641 46.052 766.641 45.772C766.641 43.602 765.549 42.202 763.617 42.202C761.853 42.202 760.187 43.742 760.187 46.206C760.187 48.712 761.811 50.182 763.827 50.182ZM761.447 45.576C761.601 44.092 762.553 43.224 763.631 43.224C764.821 43.224 765.521 44.05 765.521 45.576H761.447ZM770.501 50.182C772.293 50.182 773.273 49.16 773.273 47.928C773.273 46.486 772.055 46.038 770.949 45.618C770.095 45.296 769.311 45.03 769.311 44.302C769.311 43.714 769.759 43.21 770.725 43.21C771.397 43.21 771.929 43.49 772.447 43.882L773.063 43.056C772.475 42.594 771.649 42.202 770.711 42.202C769.059 42.202 768.079 43.154 768.079 44.358C768.079 45.646 769.241 46.164 770.305 46.556C771.145 46.878 772.041 47.214 772.041 47.998C772.041 48.656 771.551 49.188 770.543 49.188C769.633 49.188 768.947 48.824 768.289 48.292L767.659 49.132C768.387 49.734 769.423 50.182 770.501 50.182ZM778.015 50.182C779.877 50.182 781.543 48.726 781.543 46.206C781.543 43.672 779.877 42.202 778.015 42.202C776.153 42.202 774.487 43.672 774.487 46.206C774.487 48.726 776.153 50.182 778.015 50.182ZM778.015 49.118C776.699 49.118 775.817 47.956 775.817 46.206C775.817 44.456 776.699 43.266 778.015 43.266C779.331 43.266 780.227 44.456 780.227 46.206C780.227 47.956 779.331 49.118 778.015 49.118ZM789.273 50.182C790.183 50.182 790.981 49.692 791.583 49.104H791.625L791.737 50H792.773V38.856H791.513V41.782L791.569 43.098C790.897 42.538 790.323 42.202 789.427 42.202C787.691 42.202 786.137 43.742 786.137 46.206C786.137 48.74 787.369 50.182 789.273 50.182ZM789.553 49.118C788.209 49.118 787.453 48.026 787.453 46.192C787.453 44.456 788.419 43.28 789.651 43.28C790.281 43.28 790.855 43.504 791.513 44.078V48.068C790.869 48.768 790.253 49.118 789.553 49.118ZM798.43 50.182C799.466 50.182 800.278 49.832 800.95 49.398L800.488 48.558C799.928 48.936 799.326 49.16 798.584 49.16C797.142 49.16 796.148 48.124 796.064 46.5H801.188C801.216 46.318 801.244 46.052 801.244 45.772C801.244 43.602 800.152 42.202 798.22 42.202C796.456 42.202 794.79 43.742 794.79 46.206C794.79 48.712 796.414 50.182 798.43 50.182ZM796.05 45.576C796.204 44.092 797.156 43.224 798.234 43.224C799.424 43.224 800.124 44.05 800.124 45.576H796.05ZM1.288 70H2.562V62.398H1.288V70ZM1.932 60.83C2.436 60.83 2.786 60.494 2.786 59.976C2.786 59.486 2.436 59.15 1.932 59.15C1.428 59.15 1.078 59.486 1.078 59.976C1.078 60.494 1.428 60.83 1.932 60.83ZM7.73347 70.182C8.64347 70.182 9.44147 69.692 10.0435 69.104H10.0855L10.1975 70H11.2335V58.856H9.97347V61.782L10.0295 63.098C9.35747 62.538 8.78347 62.202 7.88747 62.202C6.15147 62.202 4.59747 63.742 4.59747 66.206C4.59747 68.74 5.82947 70.182 7.73347 70.182ZM8.01347 69.118C6.66947 69.118 5.91347 68.026 5.91347 66.192C5.91347 64.456 6.87947 63.28 8.11147 63.28C8.74147 63.28 9.31547 63.504 9.97347 64.078V68.068C9.32947 68.768 8.71347 69.118 8.01347 69.118ZM16.8911 70.182C17.9271 70.182 18.7391 69.832 19.4111 69.398L18.9491 68.558C18.3891 68.936 17.7871 69.16 17.0451 69.16C15.6031 69.16 14.6091 68.124 14.5251 66.5H19.6491C19.6771 66.318 19.7051 66.052 19.7051 65.772C19.7051 63.602 18.6131 62.202 16.6811 62.202C14.9171 62.202 13.2511 63.742 13.2511 66.206C13.2511 68.712 14.8751 70.182 16.8911 70.182ZM14.5111 65.576C14.6651 64.092 15.6171 63.224 16.6951 63.224C17.8851 63.224 18.5851 64.05 18.5851 65.576H14.5111ZM23.1083 70.182C24.0463 70.182 24.9003 69.692 25.6283 69.09H25.6703L25.7823 70H26.8323V65.324C26.8323 63.448 26.0483 62.202 24.2003 62.202C22.9823 62.202 21.9043 62.748 21.2043 63.196L21.7083 64.078C22.3103 63.672 23.1083 63.266 23.9903 63.266C25.2363 63.266 25.5583 64.204 25.5583 65.184C22.3243 65.548 20.8823 66.374 20.8823 68.026C20.8823 69.398 21.8343 70.182 23.1083 70.182ZM23.4723 69.16C22.7163 69.16 22.1283 68.81 22.1283 67.942C22.1283 66.962 22.9963 66.332 25.5583 66.024V68.152C24.8163 68.81 24.2143 69.16 23.4723 69.16ZM32.2567 70.182C33.1667 70.182 34.0347 69.832 34.7207 69.216L34.1607 68.362C33.6847 68.796 33.0687 69.118 32.3687 69.118C30.9687 69.118 30.0167 67.956 30.0167 66.206C30.0167 64.456 31.0247 63.266 32.4107 63.266C33.0127 63.266 33.4747 63.546 33.9227 63.938L34.5807 63.098C34.0347 62.622 33.3487 62.202 32.3547 62.202C30.4087 62.202 28.6867 63.672 28.6867 66.206C28.6867 68.726 30.2407 70.182 32.2567 70.182ZM36.3837 70H37.6577V62.398H36.3837V70ZM37.0277 60.83C37.5317 60.83 37.8817 60.494 37.8817 59.976C37.8817 59.486 37.5317 59.15 37.0277 59.15C36.5237 59.15 36.1737 59.486 36.1737 59.976C36.1737 60.494 36.5237 60.83 37.0277 60.83ZM43.1932 70.182C45.0552 70.182 46.7212 68.726 46.7212 66.206C46.7212 63.672 45.0552 62.202 43.1932 62.202C41.3312 62.202 39.6652 63.672 39.6652 66.206C39.6652 68.726 41.3312 70.182 43.1932 70.182ZM43.1932 69.118C41.8772 69.118 40.9952 67.956 40.9952 66.206C40.9952 64.456 41.8772 63.266 43.1932 63.266C44.5092 63.266 45.4052 64.456 45.4052 66.206C45.4052 67.956 44.5092 69.118 43.1932 69.118ZM42.9692 61.026L45.4192 58.646L44.5232 57.792L42.3112 60.396L42.9692 61.026ZM48.7294 70H50.0034V64.484C50.7734 63.714 51.3054 63.322 52.0894 63.322C53.0974 63.322 53.5314 63.924 53.5314 65.352V70H54.8054V65.184C54.8054 63.238 54.0774 62.202 52.4814 62.202C51.4454 62.202 50.6614 62.776 49.9334 63.49H49.8914L49.7794 62.398H48.7294V70Z" fill="#484545"/>
<path d="M5.99078 18.224C8.72678 18.224 10.3428 16.576 10.3428 14.64C10.3428 12.928 9.39878 12.016 7.95878 11.424L6.40678 10.768C5.39878 10.368 4.56678 10.064 4.56678 9.216C4.56678 8.432 5.22278 7.968 6.26278 7.968C7.23878 7.968 8.02278 8.32 8.77478 8.944L9.97478 7.456C9.01478 6.48 7.63878 5.936 6.26278 5.936C3.86278 5.936 2.16678 7.424 2.16678 9.36C2.16678 11.088 3.36678 12.048 4.56678 12.544L6.15078 13.216C7.20678 13.664 7.92678 13.936 7.92678 14.816C7.92678 15.648 7.27078 16.176 6.03878 16.176C4.99878 16.176 3.87878 15.648 3.03078 14.864L1.67078 16.496C2.82278 17.6 4.40678 18.224 5.99078 18.224ZM16.0642 18H18.4322V6.144H16.0642V18ZM17.0562 5.568L20.2242 3.44L18.9762 1.904L16.0002 4.384L17.0562 5.568ZM24.9704 18H27.2104V13.248C27.2104 11.888 27.0344 10.4 26.9224 9.12H27.0024L28.2024 11.664L31.6264 18H34.0264V6.144H31.7864V10.88C31.7864 12.224 31.9784 13.792 32.0904 15.024H32.0104L30.8264 12.464L27.3864 6.144H24.9704V18ZM42.9318 18H45.2998V8.128H48.6598V6.144H39.6038V8.128H42.9318V18ZM54.2048 18H61.6448V16.016H56.5728V12.848H60.7328V10.864H56.5728V8.128H61.4688V6.144H54.2048V18ZM71.2095 18.224C73.9455 18.224 75.5615 16.576 75.5615 14.64C75.5615 12.928 74.6175 12.016 73.1775 11.424L71.6255 10.768C70.6175 10.368 69.7855 10.064 69.7855 9.216C69.7855 8.432 70.4415 7.968 71.4815 7.968C72.4575 7.968 73.2415 8.32 73.9935 8.944L75.1935 7.456C74.2335 6.48 72.8575 5.936 71.4815 5.936C69.0815 5.936 67.3855 7.424 67.3855 9.36C67.3855 11.088 68.5855 12.048 69.7855 12.544L71.3695 13.216C72.4255 13.664 73.1455 13.936 73.1455 14.816C73.1455 15.648 72.4895 16.176 71.2575 16.176C70.2175 16.176 69.0975 15.648 68.2495 14.864L66.8895 16.496C68.0415 17.6 69.6255 18.224 71.2095 18.224ZM81.2829 18H83.6509V6.144H81.2829V18ZM93.7252 18.224C96.4612 18.224 98.0772 16.576 98.0772 14.64C98.0772 12.928 97.1332 12.016 95.6932 11.424L94.1412 10.768C93.1332 10.368 92.3012 10.064 92.3012 9.216C92.3012 8.432 92.9572 7.968 93.9972 7.968C94.9732 7.968 95.7572 8.32 96.5092 8.944L97.7092 7.456C96.7492 6.48 95.3732 5.936 93.9972 5.936C91.5972 5.936 89.9012 7.424 89.9012 9.36C89.9012 11.088 91.1012 12.048 92.3012 12.544L93.8852 13.216C94.9412 13.664 95.6612 13.936 95.6612 14.816C95.6612 15.648 95.0052 16.176 93.7732 16.176C92.7332 16.176 91.6132 15.648 90.7652 14.864L89.4052 16.496C90.5572 17.6 92.1412 18.224 93.7252 18.224Z" fill="#262626"/>
</svg>
