<svg width="817" height="186" viewBox="0 0 817 186" fill="none" xmlns="http://www.w3.org/2000/svg">
<path d="M192.754 98.84C198.514 98.84 203.254 96.56 206.914 92.3L202.234 86.78C199.834 89.36 196.894 91.16 193.054 91.16C186.034 91.16 181.474 85.34 181.474 75.68C181.474 66.14 186.514 60.38 193.234 60.38C196.594 60.38 199.174 61.94 201.454 64.1L206.074 58.46C203.194 55.46 198.694 52.76 193.054 52.76C181.834 52.76 172.414 61.34 172.414 75.98C172.414 90.8 181.534 98.84 192.754 98.84ZM227.387 98.84C235.787 98.84 243.527 92.36 243.527 81.2C243.527 70.04 235.787 63.56 227.387 63.56C218.987 63.56 211.247 70.04 211.247 81.2C211.247 92.36 218.987 98.84 227.387 98.84ZM227.387 91.64C222.827 91.64 220.247 87.56 220.247 81.2C220.247 74.9 222.827 70.76 227.387 70.76C231.947 70.76 234.527 74.9 234.527 81.2C234.527 87.56 231.947 91.64 227.387 91.64ZM250.906 98H259.726V74.9C262.186 72.44 263.926 71.12 266.686 71.12C269.986 71.12 271.426 72.92 271.426 78.14V98H280.246V77.06C280.246 68.6 277.126 63.56 269.866 63.56C265.306 63.56 261.886 65.96 258.946 68.84H258.766L258.106 64.4H250.906V98ZM303.384 98.84C311.784 98.84 319.524 92.36 319.524 81.2C319.524 70.04 311.784 63.56 303.384 63.56C294.984 63.56 287.244 70.04 287.244 81.2C287.244 92.36 294.984 98.84 303.384 98.84ZM303.384 91.64C298.824 91.64 296.244 87.56 296.244 81.2C296.244 74.9 298.824 70.76 303.384 70.76C307.944 70.76 310.524 74.9 310.524 81.2C310.524 87.56 307.944 91.64 303.384 91.64ZM341.182 98.84C344.902 98.84 348.982 97.58 352.222 94.76L348.682 88.94C346.822 90.5 344.542 91.64 342.142 91.64C337.342 91.64 333.802 87.56 333.802 81.2C333.802 74.9 337.282 70.76 342.442 70.76C344.302 70.76 345.862 71.54 347.542 72.98L351.742 67.28C349.282 65.18 346.102 63.56 341.962 63.56C332.842 63.56 324.802 70.04 324.802 81.2C324.802 92.36 331.882 98.84 341.182 98.84ZM371.366 98.84C375.506 98.84 379.766 97.4 383.066 95.12L380.066 89.72C377.666 91.22 375.266 92.06 372.506 92.06C367.526 92.06 363.926 89.18 363.206 83.66H383.906C384.146 82.88 384.326 81.26 384.326 79.58C384.326 70.34 379.526 63.56 370.286 63.56C362.306 63.56 354.626 70.34 354.626 81.2C354.626 92.3 361.946 98.84 371.366 98.84ZM363.086 77.78C363.746 72.92 366.866 70.4 370.406 70.4C374.726 70.4 376.766 73.28 376.766 77.78H363.086ZM415.203 98.84C419.763 98.84 423.003 96.62 425.883 93.2H426.123L426.783 98H433.983V64.4H425.163V87.08C422.883 90.08 421.083 91.28 418.323 91.28C415.083 91.28 413.643 89.42 413.643 84.26V64.4H404.823V85.4C404.823 93.8 407.943 98.84 415.203 98.84ZM443.386 98H452.206V74.9C454.666 72.44 456.406 71.12 459.166 71.12C462.466 71.12 463.906 72.92 463.906 78.14V98H472.726V77.06C472.726 68.6 469.606 63.56 462.346 63.56C457.786 63.56 454.366 65.96 451.426 68.84H451.246L450.586 64.4H443.386V98ZM495.418 110.9H504.238V100.7L503.938 95.18C506.518 97.52 509.338 98.84 512.278 98.84C519.658 98.84 526.558 92.18 526.558 80.66C526.558 70.34 521.638 63.56 513.358 63.56C509.758 63.56 506.278 65.48 503.458 67.88H503.278L502.618 64.4H495.418V110.9ZM510.298 91.58C508.498 91.58 506.338 90.92 504.238 89.06V74.3C506.518 71.96 508.558 70.82 510.838 70.82C515.458 70.82 517.498 74.36 517.498 80.78C517.498 88.1 514.378 91.58 510.298 91.58ZM548.071 98.84C556.471 98.84 564.211 92.36 564.211 81.2C564.211 70.04 556.471 63.56 548.071 63.56C539.671 63.56 531.931 70.04 531.931 81.2C531.931 92.36 539.671 98.84 548.071 98.84ZM548.071 91.64C543.511 91.64 540.931 87.56 540.931 81.2C540.931 74.9 543.511 70.76 548.071 70.76C552.631 70.76 555.211 74.9 555.211 81.2C555.211 87.56 552.631 91.64 548.071 91.64ZM585.87 98.84C589.59 98.84 593.67 97.58 596.91 94.76L593.37 88.94C591.51 90.5 589.23 91.64 586.83 91.64C582.03 91.64 578.49 87.56 578.49 81.2C578.49 74.9 581.97 70.76 587.13 70.76C588.99 70.76 590.55 71.54 592.23 72.98L596.43 67.28C593.97 65.18 590.79 63.56 586.65 63.56C577.53 63.56 569.49 70.04 569.49 81.2C569.49 92.36 576.57 98.84 585.87 98.84ZM615.454 98.84C623.854 98.84 631.594 92.36 631.594 81.2C631.594 70.04 623.854 63.56 615.454 63.56C607.054 63.56 599.314 70.04 599.314 81.2C599.314 92.36 607.054 98.84 615.454 98.84ZM615.454 91.64C610.894 91.64 608.314 87.56 608.314 81.2C608.314 74.9 610.894 70.76 615.454 70.76C620.014 70.76 622.594 74.9 622.594 81.2C622.594 87.56 620.014 91.64 615.454 91.64ZM294.93 185.84C303.69 185.84 308.31 181.1 308.31 175.22C308.31 168.98 303.39 166.76 298.95 165.08C295.41 163.76 292.29 162.86 292.29 160.4C292.29 158.48 293.73 157.16 296.79 157.16C299.25 157.16 301.59 158.3 303.99 160.04L307.95 154.7C305.19 152.6 301.41 150.56 296.55 150.56C288.87 150.56 284.01 154.82 284.01 160.82C284.01 166.46 288.75 169.04 293.01 170.66C296.55 172.04 300.03 173.18 300.03 175.7C300.03 177.8 298.53 179.24 295.17 179.24C292.05 179.24 289.17 177.92 286.17 175.58L282.15 181.1C285.51 183.86 290.43 185.84 294.93 185.84ZM329.077 185.84C337.477 185.84 345.217 179.36 345.217 168.2C345.217 157.04 337.477 150.56 329.077 150.56C320.677 150.56 312.937 157.04 312.937 168.2C312.937 179.36 320.677 185.84 329.077 185.84ZM329.077 178.64C324.517 178.64 321.937 174.56 321.937 168.2C321.937 161.9 324.517 157.76 329.077 157.76C333.637 157.76 336.217 161.9 336.217 168.2C336.217 174.56 333.637 178.64 329.077 178.64ZM369.455 185.84C376.835 185.84 383.735 179.18 383.735 167.6C383.735 157.34 378.755 150.56 370.475 150.56C367.175 150.56 363.815 152.18 361.175 154.58L361.415 149.18V137.12H352.595V185H359.495L360.275 181.46H360.515C363.215 184.28 366.455 185.84 369.455 185.84ZM367.475 178.58C365.675 178.58 363.515 177.92 361.415 176.06V161.3C363.695 158.96 365.735 157.82 368.015 157.82C372.635 157.82 374.675 161.36 374.675 167.78C374.675 175.1 371.555 178.58 367.475 178.58ZM391.209 185H400.029V164.96C401.889 160.1 405.069 158.36 407.709 158.36C409.089 158.36 410.049 158.54 411.249 158.9L412.749 151.28C411.729 150.86 410.649 150.56 408.789 150.56C405.309 150.56 401.709 152.96 399.249 157.34H399.069L398.409 151.4H391.209V185ZM431.278 185.84C435.418 185.84 439.678 184.4 442.978 182.12L439.978 176.72C437.578 178.22 435.178 179.06 432.418 179.06C427.438 179.06 423.838 176.18 423.118 170.66H443.818C444.058 169.88 444.238 168.26 444.238 166.58C444.238 157.34 439.438 150.56 430.198 150.56C422.218 150.56 414.538 157.34 414.538 168.2C414.538 179.3 421.858 185.84 431.278 185.84ZM422.998 164.78C423.658 159.92 426.778 157.4 430.318 157.4C434.638 157.4 436.678 160.28 436.678 164.78H422.998ZM465.095 185H473.915V161.9C476.255 159.38 478.415 158.12 480.335 158.12C483.515 158.12 485.075 159.92 485.075 165.14V185H493.835V161.9C496.235 159.38 498.395 158.12 500.315 158.12C503.495 158.12 504.995 159.92 504.995 165.14V185H513.815V164.06C513.815 155.6 510.515 150.56 503.375 150.56C498.995 150.56 495.755 153.2 492.695 156.44C491.075 152.72 488.255 150.56 483.455 150.56C479.075 150.56 475.955 152.96 473.135 155.9H472.955L472.295 151.4H465.095V185ZM522.928 185H531.748V151.4H522.928V185ZM527.368 146C530.368 146 532.468 144.08 532.468 141.14C532.468 138.26 530.368 136.34 527.368 136.34C524.308 136.34 522.208 138.26 522.208 141.14C522.208 144.08 524.308 146 527.368 146Z" fill="#262626"/>
<path d="M355.885 21.2H358.253L358.173 18.992L357.837 13.088H356.301L355.965 18.992L355.885 21.2ZM357.069 11.888C357.901 11.888 358.541 11.232 358.541 10.352C358.541 9.488 357.901 8.816 357.069 8.816C356.237 8.816 355.613 9.488 355.613 10.352C355.613 11.232 356.237 11.888 357.069 11.888ZM361.487 18H363.855V12.88H368.335V18H370.687V6.144H368.335V10.816H363.855V6.144H361.487V18ZM381.926 18.224C385.062 18.224 387.222 15.872 387.222 12.032C387.222 8.192 385.062 5.936 381.926 5.936C378.79 5.936 376.63 8.176 376.63 12.032C376.63 15.872 378.79 18.224 381.926 18.224ZM381.926 16.176C380.166 16.176 379.046 14.56 379.046 12.032C379.046 9.488 380.166 7.968 381.926 7.968C383.686 7.968 384.806 9.488 384.806 12.032C384.806 14.56 383.686 16.176 381.926 16.176ZM393.159 18H400.343V16.016H395.527V6.144H393.159V18ZM408.61 11.824C408.962 10.592 409.314 9.248 409.618 7.952H409.698C410.034 9.232 410.354 10.592 410.722 11.824L411.074 13.12H408.258L408.61 11.824ZM404.514 18H406.914L407.746 14.96H411.586L412.418 18H414.898L411.09 6.144H408.306L404.514 18ZM426.11 11.824C426.462 10.592 426.814 9.248 427.118 7.952H427.198C427.534 9.232 427.854 10.592 428.222 11.824L428.574 13.12H425.758L426.11 11.824ZM422.014 18H424.414L425.246 14.96H429.086L429.918 18H432.398L428.59 6.144H425.806L422.014 18ZM437.409 18H439.777V12.88H444.257V18H446.609V6.144H444.257V10.816H439.777V6.144H437.409V18ZM453.144 18H455.512V6.144H453.144V18ZM454.136 5.568L457.304 3.44L456.056 1.904L453.08 4.384L454.136 5.568ZM459.161 13.968H460.697L461.033 8.064L461.113 5.84H458.745L458.825 8.064L459.161 13.968ZM459.929 18.224C460.761 18.224 461.401 17.552 461.401 16.688C461.401 15.808 460.761 15.152 459.929 15.152C459.097 15.152 458.473 15.808 458.473 16.688C458.473 17.552 459.097 18.224 459.929 18.224Z" fill="#8A8A8A"/>
</svg>
