<svg width="818" height="286" viewBox="0 0 818 286" fill="none" xmlns="http://www.w3.org/2000/svg">
<path d="M358.655 18.224C360.191 18.224 361.455 17.616 362.431 16.48L361.183 15.008C360.543 15.696 359.759 16.176 358.735 16.176C356.863 16.176 355.647 14.624 355.647 12.048C355.647 9.504 356.991 7.968 358.783 7.968C359.679 7.968 360.367 8.384 360.975 8.96L362.207 7.456C361.439 6.656 360.239 5.936 358.735 5.936C355.743 5.936 353.231 8.224 353.231 12.128C353.231 16.08 355.663 18.224 358.655 18.224ZM372.668 18.224C375.804 18.224 377.964 15.872 377.964 12.032C377.964 8.192 375.804 5.936 372.668 5.936C369.532 5.936 367.372 8.176 367.372 12.032C367.372 15.872 369.532 18.224 372.668 18.224ZM372.668 16.176C370.908 16.176 369.788 14.56 369.788 12.032C369.788 9.488 370.908 7.968 372.668 7.968C374.428 7.968 375.548 9.488 375.548 12.032C375.548 14.56 374.428 16.176 372.668 16.176ZM383.901 18H386.141V13.248C386.141 11.888 385.965 10.4 385.853 9.12H385.933L387.133 11.664L390.557 18H392.957V6.144H390.717V10.88C390.717 12.224 390.909 13.792 391.021 15.024H390.941L389.757 12.464L386.317 6.144H383.901V18ZM401.863 18H404.231V8.128H407.591V6.144H398.535V8.128H401.863V18ZM415.712 11.824C416.064 10.592 416.416 9.248 416.72 7.952H416.8C417.136 9.232 417.456 10.592 417.824 11.824L418.176 13.12H415.36L415.712 11.824ZM411.616 18H414.016L414.848 14.96H418.688L419.52 18H422L418.192 6.144H415.408L411.616 18ZM431.843 18.224C433.379 18.224 434.643 17.616 435.619 16.48L434.371 15.008C433.731 15.696 432.947 16.176 431.923 16.176C430.051 16.176 428.835 14.624 428.835 12.048C428.835 9.504 430.179 7.968 431.971 7.968C432.867 7.968 433.555 8.384 434.163 8.96L435.395 7.456C434.627 6.656 433.427 5.936 431.923 5.936C428.931 5.936 426.419 8.224 426.419 12.128C426.419 16.08 428.851 18.224 431.843 18.224ZM443.503 18H445.871V8.128H449.231V6.144H440.175V8.128H443.503V18ZM459.48 18.224C462.616 18.224 464.776 15.872 464.776 12.032C464.776 8.192 462.616 5.936 459.48 5.936C456.344 5.936 454.184 8.176 454.184 12.032C454.184 15.872 456.344 18.224 459.48 18.224ZM459.48 16.176C457.72 16.176 456.6 14.56 456.6 12.032C456.6 9.488 457.72 7.968 459.48 7.968C461.24 7.968 462.36 9.488 462.36 12.032C462.36 14.56 461.24 16.176 459.48 16.176Z" fill="#8A8A8A"/>
<path d="M29.9971 98H57.8971V90.56H38.8771V78.68H54.4771V71.24H38.8771V60.98H57.2371V53.54H29.9971V98ZM66.1912 98H75.0112V74.9C77.4712 72.44 79.2112 71.12 81.9712 71.12C85.2712 71.12 86.7112 72.92 86.7112 78.14V98H95.5312V77.06C95.5312 68.6 92.4112 63.56 85.1512 63.56C80.5912 63.56 77.1712 65.96 74.2312 68.84H74.0512L73.3912 64.4H66.1912V98ZM118.909 98.84C122.629 98.84 126.709 97.58 129.949 94.76L126.409 88.94C124.549 90.5 122.269 91.64 119.869 91.64C115.069 91.64 111.529 87.56 111.529 81.2C111.529 74.9 115.009 70.76 120.169 70.76C122.029 70.76 123.589 71.54 125.269 72.98L129.469 67.28C127.009 65.18 123.829 63.56 119.689 63.56C110.569 63.56 102.529 70.04 102.529 81.2C102.529 92.36 109.609 98.84 118.909 98.84ZM143.846 98.84C147.686 98.84 151.046 96.92 153.986 94.4H154.226L154.826 98H162.026V78.38C162.026 68.66 157.646 63.56 149.126 63.56C143.846 63.56 139.046 65.54 135.086 68L138.266 73.82C141.386 72.02 144.386 70.64 147.506 70.64C151.646 70.64 153.086 73.16 153.266 76.46C139.706 77.9 133.886 81.68 133.886 88.88C133.886 94.58 137.846 98.84 143.846 98.84ZM146.726 91.94C144.146 91.94 142.286 90.8 142.286 88.16C142.286 85.16 145.046 82.88 153.266 81.86V88.64C151.106 90.74 149.246 91.94 146.726 91.94ZM171.015 98H179.835V74.9C182.295 72.44 184.035 71.12 186.795 71.12C190.095 71.12 191.535 72.92 191.535 78.14V98H200.355V77.06C200.355 68.6 197.235 63.56 189.975 63.56C185.415 63.56 181.995 65.96 179.055 68.84H178.875L178.215 64.4H171.015V98ZM221.753 98.84C224.693 98.84 227.033 98.18 228.833 97.58L227.393 91.16C226.493 91.52 225.173 91.88 224.093 91.88C221.093 91.88 219.533 90.08 219.533 86.24V71.36H227.813V64.4H219.533V55.34H212.213L211.193 64.4L205.973 64.82V71.36H210.713V86.24C210.713 93.74 213.773 98.84 221.753 98.84ZM241.522 98.84C245.362 98.84 248.722 96.92 251.662 94.4H251.902L252.502 98H259.702V78.38C259.702 68.66 255.322 63.56 246.802 63.56C241.522 63.56 236.722 65.54 232.762 68L235.942 73.82C239.062 72.02 242.062 70.64 245.182 70.64C249.322 70.64 250.762 73.16 250.942 76.46C237.382 77.9 231.562 81.68 231.562 88.88C231.562 94.58 235.522 98.84 241.522 98.84ZM244.402 91.94C241.822 91.94 239.962 90.8 239.962 88.16C239.962 85.16 242.722 82.88 250.942 81.86V88.64C248.782 90.74 246.922 91.94 244.402 91.94ZM280.511 98.84C283.991 98.84 287.351 96.92 289.811 94.52H290.051L290.711 98H297.851V50.12H289.091V61.94L289.391 67.22C286.991 65 284.651 63.56 280.871 63.56C273.611 63.56 266.771 70.28 266.771 81.2C266.771 92.24 272.171 98.84 280.511 98.84ZM282.791 91.58C278.351 91.58 275.831 88.1 275.831 81.14C275.831 74.42 279.011 70.82 282.791 70.82C284.891 70.82 287.051 71.48 289.091 73.34V88.1C287.111 90.62 285.131 91.58 282.791 91.58ZM315.584 98.84C319.424 98.84 322.784 96.92 325.724 94.4H325.964L326.564 98H333.764V78.38C333.764 68.66 329.384 63.56 320.864 63.56C315.584 63.56 310.784 65.54 306.824 68L310.004 73.82C313.124 72.02 316.124 70.64 319.244 70.64C323.384 70.64 324.824 73.16 325.004 76.46C311.444 77.9 305.624 81.68 305.624 88.88C305.624 94.58 309.584 98.84 315.584 98.84ZM318.464 91.94C315.884 91.94 314.024 90.8 314.024 88.16C314.024 85.16 316.784 82.88 325.004 81.86V88.64C322.844 90.74 320.984 91.94 318.464 91.94ZM368.167 98.84C371.647 98.84 375.007 96.92 377.467 94.52H377.707L378.367 98H385.507V50.12H376.747V61.94L377.047 67.22C374.647 65 372.307 63.56 368.527 63.56C361.267 63.56 354.427 70.28 354.427 81.2C354.427 92.24 359.827 98.84 368.167 98.84ZM370.447 91.58C366.007 91.58 363.487 88.1 363.487 81.14C363.487 74.42 366.667 70.82 370.447 70.82C372.547 70.82 374.707 71.48 376.747 73.34V88.1C374.767 90.62 372.787 91.58 370.447 91.58ZM409.601 98.84C413.741 98.84 418.001 97.4 421.301 95.12L418.301 89.72C415.901 91.22 413.501 92.06 410.741 92.06C405.761 92.06 402.161 89.18 401.441 83.66H422.141C422.381 82.88 422.561 81.26 422.561 79.58C422.561 70.34 417.761 63.56 408.521 63.56C400.541 63.56 392.861 70.34 392.861 81.2C392.861 92.3 400.181 98.84 409.601 98.84ZM401.321 77.78C401.981 72.92 405.101 70.4 408.641 70.4C412.961 70.4 415.001 73.28 415.001 77.78H401.321ZM457.698 98.84C461.418 98.84 465.498 97.58 468.738 94.76L465.198 88.94C463.338 90.5 461.058 91.64 458.658 91.64C453.858 91.64 450.318 87.56 450.318 81.2C450.318 74.9 453.798 70.76 458.958 70.76C460.818 70.76 462.378 71.54 464.058 72.98L468.258 67.28C465.798 65.18 462.618 63.56 458.478 63.56C449.358 63.56 441.318 70.04 441.318 81.2C441.318 92.36 448.398 98.84 457.698 98.84ZM487.282 98.84C495.682 98.84 503.422 92.36 503.422 81.2C503.422 70.04 495.682 63.56 487.282 63.56C478.882 63.56 471.142 70.04 471.142 81.2C471.142 92.36 478.882 98.84 487.282 98.84ZM487.282 91.64C482.722 91.64 480.142 87.56 480.142 81.2C480.142 74.9 482.722 70.76 487.282 70.76C491.842 70.76 494.422 74.9 494.422 81.2C494.422 87.56 491.842 91.64 487.282 91.64ZM510.801 98H519.621V74.9C522.081 72.44 523.821 71.12 526.581 71.12C529.881 71.12 531.321 72.92 531.321 78.14V98H540.141V77.06C540.141 68.6 537.021 63.56 529.761 63.56C525.201 63.56 521.781 65.96 518.841 68.84H518.661L518.001 64.4H510.801V98ZM563.278 98.84C571.678 98.84 579.418 92.36 579.418 81.2C579.418 70.04 571.678 63.56 563.278 63.56C554.878 63.56 547.138 70.04 547.138 81.2C547.138 92.36 554.878 98.84 563.278 98.84ZM563.278 91.64C558.718 91.64 556.138 87.56 556.138 81.2C556.138 74.9 558.718 70.76 563.278 70.76C567.838 70.76 570.418 74.9 570.418 81.2C570.418 87.56 567.838 91.64 563.278 91.64ZM601.077 98.84C604.797 98.84 608.877 97.58 612.117 94.76L608.577 88.94C606.717 90.5 604.437 91.64 602.037 91.64C597.237 91.64 593.697 87.56 593.697 81.2C593.697 74.9 597.177 70.76 602.337 70.76C604.197 70.76 605.757 71.54 607.437 72.98L611.637 67.28C609.177 65.18 605.997 63.56 601.857 63.56C592.737 63.56 584.697 70.04 584.697 81.2C584.697 92.36 591.777 98.84 601.077 98.84ZM631.261 98.84C635.401 98.84 639.661 97.4 642.961 95.12L639.961 89.72C637.561 91.22 635.161 92.06 632.401 92.06C627.421 92.06 623.821 89.18 623.101 83.66H643.801C644.041 82.88 644.221 81.26 644.221 79.58C644.221 70.34 639.421 63.56 630.181 63.56C622.201 63.56 614.521 70.34 614.521 81.2C614.521 92.3 621.841 98.84 631.261 98.84ZM622.981 77.78C623.641 72.92 626.761 70.4 630.301 70.4C634.621 70.4 636.661 73.28 636.661 77.78H622.981ZM651.484 98H660.304V77.96C662.164 73.1 665.344 71.36 667.984 71.36C669.364 71.36 670.324 71.54 671.524 71.9L673.024 64.28C672.004 63.86 670.924 63.56 669.064 63.56C665.584 63.56 661.984 65.96 659.524 70.34H659.344L658.684 64.4H651.484V98ZM689.917 98.84C692.857 98.84 695.197 98.18 696.997 97.58L695.557 91.16C694.657 91.52 693.337 91.88 692.257 91.88C689.257 91.88 687.697 90.08 687.697 86.24V71.36H695.977V64.4H687.697V55.34H680.377L679.357 64.4L674.137 64.82V71.36H678.877V86.24C678.877 93.74 681.937 98.84 689.917 98.84ZM716.339 98.84C720.479 98.84 724.739 97.4 728.039 95.12L725.039 89.72C722.639 91.22 720.239 92.06 717.479 92.06C712.499 92.06 708.899 89.18 708.179 83.66H728.879C729.119 82.88 729.299 81.26 729.299 79.58C729.299 70.34 724.499 63.56 715.259 63.56C707.279 63.56 699.599 70.34 699.599 81.2C699.599 92.3 706.919 98.84 716.339 98.84ZM708.059 77.78C708.719 72.92 711.839 70.4 715.379 70.4C719.699 70.4 721.739 73.28 721.739 77.78H708.059ZM753.096 111.5C760.596 111.5 764.196 106.94 767.136 99.02L779.076 64.4H770.616L765.996 80C765.216 83.12 764.376 86.36 763.596 89.48H763.296C762.336 86.24 761.496 83 760.476 80L755.136 64.4H746.256L759.336 97.4L758.736 99.38C757.776 102.32 755.856 104.48 752.436 104.48C751.656 104.48 750.696 104.24 750.096 104.06L748.476 110.84C749.796 111.26 751.116 111.5 753.096 111.5ZM75.3611 197.9H84.1811V187.7L83.8811 182.18C86.4611 184.52 89.2811 185.84 92.2211 185.84C99.6011 185.84 106.501 179.18 106.501 167.66C106.501 157.34 101.581 150.56 93.3011 150.56C89.7011 150.56 86.2211 152.48 83.4011 154.88H83.2211L82.5611 151.4H75.3611V197.9ZM90.2411 178.58C88.4411 178.58 86.2811 177.92 84.1811 176.06V161.3C86.4611 158.96 88.5011 157.82 90.7811 157.82C95.4011 157.82 97.4411 161.36 97.4411 167.78C97.4411 175.1 94.3211 178.58 90.2411 178.58ZM128.014 185.84C136.414 185.84 144.154 179.36 144.154 168.2C144.154 157.04 136.414 150.56 128.014 150.56C119.614 150.56 111.874 157.04 111.874 168.2C111.874 179.36 119.614 185.84 128.014 185.84ZM128.014 178.64C123.454 178.64 120.874 174.56 120.874 168.2C120.874 161.9 123.454 157.76 128.014 157.76C132.574 157.76 135.154 161.9 135.154 168.2C135.154 174.56 132.574 178.64 128.014 178.64ZM163.353 185.84C166.833 185.84 170.193 183.92 172.653 181.52H172.893L173.553 185H180.693V137.12H171.933V148.94L172.233 154.22C169.833 152 167.493 150.56 163.713 150.56C156.453 150.56 149.613 157.28 149.613 168.2C149.613 179.24 155.013 185.84 163.353 185.84ZM165.633 178.58C161.193 178.58 158.673 175.1 158.673 168.14C158.673 161.42 161.853 157.82 165.633 157.82C167.733 157.82 169.893 158.48 171.933 160.34V175.1C169.953 177.62 167.973 178.58 165.633 178.58ZM204.786 185.84C208.926 185.84 213.186 184.4 216.486 182.12L213.486 176.72C211.086 178.22 208.686 179.06 205.926 179.06C200.946 179.06 197.346 176.18 196.626 170.66H217.326C217.566 169.88 217.746 168.26 217.746 166.58C217.746 157.34 212.946 150.56 203.706 150.56C195.726 150.56 188.046 157.34 188.046 168.2C188.046 179.3 195.366 185.84 204.786 185.84ZM196.506 164.78C197.166 159.92 200.286 157.4 203.826 157.4C208.146 157.4 210.186 160.28 210.186 164.78H196.506ZM225.01 185H233.83V164.96C235.69 160.1 238.87 158.36 241.51 158.36C242.89 158.36 243.85 158.54 245.05 158.9L246.55 151.28C245.53 150.86 244.45 150.56 242.59 150.56C239.11 150.56 235.51 152.96 233.05 157.34H232.87L232.21 151.4H225.01V185ZM273.016 185.84C275.116 185.84 276.556 185.48 277.576 185.06L276.496 178.52C275.896 178.64 275.656 178.64 275.296 178.64C274.456 178.64 273.556 177.98 273.556 175.94V137.12H264.736V175.58C264.736 181.82 266.896 185.84 273.016 185.84ZM291.942 185.84C295.782 185.84 299.142 183.92 302.082 181.4H302.322L302.922 185H310.122V165.38C310.122 155.66 305.742 150.56 297.222 150.56C291.942 150.56 287.142 152.54 283.182 155L286.362 160.82C289.482 159.02 292.482 157.64 295.602 157.64C299.742 157.64 301.182 160.16 301.362 163.46C287.802 164.9 281.982 168.68 281.982 175.88C281.982 181.58 285.942 185.84 291.942 185.84ZM294.822 178.94C292.242 178.94 290.382 177.8 290.382 175.16C290.382 172.16 293.142 169.88 301.362 168.86V175.64C299.202 177.74 297.342 178.94 294.822 178.94ZM319.111 185H327.931V161.9C330.391 159.44 332.131 158.12 334.891 158.12C338.191 158.12 339.631 159.92 339.631 165.14V185H348.451V164.06C348.451 155.6 345.331 150.56 338.071 150.56C333.511 150.56 330.091 152.96 327.151 155.84H326.971L326.311 151.4H319.111V185ZM355.269 185H381.849V178.04H366.249L381.309 156.14V151.4H356.949V158.36H370.329L355.269 180.26V185ZM395.36 185.84C399.2 185.84 402.56 183.92 405.5 181.4H405.74L406.34 185H413.54V165.38C413.54 155.66 409.16 150.56 400.64 150.56C395.36 150.56 390.56 152.54 386.6 155L389.78 160.82C392.9 159.02 395.9 157.64 399.02 157.64C403.16 157.64 404.6 160.16 404.78 163.46C391.22 164.9 385.4 168.68 385.4 175.88C385.4 181.58 389.36 185.84 395.36 185.84ZM398.24 178.94C395.66 178.94 393.8 177.8 393.8 175.16C393.8 172.16 396.56 169.88 404.78 168.86V175.64C402.62 177.74 400.76 178.94 398.24 178.94ZM422.529 185H431.349V164.96C433.209 160.1 436.389 158.36 439.029 158.36C440.409 158.36 441.369 158.54 442.569 158.9L444.069 151.28C443.049 150.86 441.969 150.56 440.109 150.56C436.629 150.56 433.029 152.96 430.569 157.34H430.389L429.729 151.4H422.529V185ZM459.916 198.74C468.376 198.74 471.136 193.04 471.136 185.84V151.4H462.316V186.08C462.316 189.86 461.476 191.78 458.656 191.78C457.636 191.78 456.736 191.6 455.836 191.3L454.276 197.84C455.596 198.32 457.336 198.74 459.916 198.74ZM466.696 146C469.756 146 471.856 144.08 471.856 141.14C471.856 138.26 469.756 136.34 466.696 136.34C463.696 136.34 461.596 138.26 461.596 141.14C461.596 144.08 463.696 146 466.696 146ZM490.615 185.84C495.175 185.84 498.415 183.62 501.295 180.2H501.535L502.195 185H509.395V151.4H500.575V174.08C498.295 177.08 496.495 178.28 493.735 178.28C490.495 178.28 489.055 176.42 489.055 171.26V151.4H480.235V172.4C480.235 180.8 483.355 185.84 490.615 185.84ZM518.799 185H527.619V161.9C530.079 159.44 531.819 158.12 534.579 158.12C537.879 158.12 539.319 159.92 539.319 165.14V185H548.139V164.06C548.139 155.6 545.019 150.56 537.759 150.56C533.199 150.56 529.779 152.96 526.839 155.84H526.659L525.999 151.4H518.799V185ZM569.536 185.84C572.476 185.84 574.816 185.18 576.616 184.58L575.176 178.16C574.276 178.52 572.956 178.88 571.876 178.88C568.876 178.88 567.316 177.08 567.316 173.24V158.36H575.596V151.4H567.316V142.34H559.996L558.976 151.4L553.756 151.82V158.36H558.496V173.24C558.496 180.74 561.556 185.84 569.536 185.84ZM595.358 185.84C603.758 185.84 611.498 179.36 611.498 168.2C611.498 157.04 603.758 150.56 595.358 150.56C586.958 150.56 579.218 157.04 579.218 168.2C579.218 179.36 586.958 185.84 595.358 185.84ZM595.358 178.64C590.798 178.64 588.218 174.56 588.218 168.2C588.218 161.9 590.798 157.76 595.358 157.76C599.918 157.76 602.498 161.9 602.498 168.2C602.498 174.56 599.918 178.64 595.358 178.64ZM628.184 185.84C636.944 185.84 641.564 181.1 641.564 175.22C641.564 168.98 636.644 166.76 632.204 165.08C628.664 163.76 625.544 162.86 625.544 160.4C625.544 158.48 626.984 157.16 630.044 157.16C632.504 157.16 634.844 158.3 637.244 160.04L641.204 154.7C638.444 152.6 634.664 150.56 629.804 150.56C622.124 150.56 617.264 154.82 617.264 160.82C617.264 166.46 622.004 169.04 626.264 170.66C629.804 172.04 633.284 173.18 633.284 175.7C633.284 177.8 631.784 179.24 628.424 179.24C625.304 179.24 622.424 177.92 619.424 175.58L615.404 181.1C618.764 183.86 623.684 185.84 628.184 185.84ZM671.905 185.84C676.465 185.84 679.705 183.62 682.585 180.2H682.825L683.485 185H690.685V151.4H681.865V174.08C679.585 177.08 677.785 178.28 675.025 178.28C671.785 178.28 670.345 176.42 670.345 171.26V151.4H661.525V172.4C661.525 180.8 664.645 185.84 671.905 185.84ZM700.088 185H708.908V161.9C711.368 159.44 713.108 158.12 715.868 158.12C719.168 158.12 720.608 159.92 720.608 165.14V185H729.428V164.06C729.428 155.6 726.308 150.56 719.048 150.56C714.488 150.56 711.068 152.96 708.128 155.84H707.948L707.288 151.4H700.088V185ZM184.199 272H193.019V248.9C195.479 246.44 197.219 245.12 199.979 245.12C203.279 245.12 204.719 246.92 204.719 252.14V272H213.539V251.06C213.539 242.6 210.419 237.56 203.159 237.56C198.599 237.56 195.179 239.96 192.239 242.84H192.059L191.399 238.4H184.199V272ZM232.656 272.84C237.216 272.84 240.456 270.62 243.336 267.2H243.576L244.236 272H251.436V238.4H242.616V261.08C240.336 264.08 238.536 265.28 235.776 265.28C232.536 265.28 231.096 263.42 231.096 258.26V238.4H222.276V259.4C222.276 267.8 225.396 272.84 232.656 272.84ZM275.48 272.84C279.62 272.84 283.88 271.4 287.18 269.12L284.18 263.72C281.78 265.22 279.38 266.06 276.62 266.06C271.64 266.06 268.04 263.18 267.32 257.66H288.02C288.26 256.88 288.44 255.26 288.44 253.58C288.44 244.34 283.64 237.56 274.4 237.56C266.42 237.56 258.74 244.34 258.74 255.2C258.74 266.3 266.06 272.84 275.48 272.84ZM267.2 251.78C267.86 246.92 270.98 244.4 274.52 244.4C278.84 244.4 280.88 247.28 280.88 251.78H267.2ZM303.029 272H313.229L324.449 238.4H315.989L311.069 255.14C310.169 258.44 309.269 261.92 308.369 265.34H308.069C307.169 261.92 306.269 258.44 305.369 255.14L300.449 238.4H291.569L303.029 272ZM343.61 272.84C352.01 272.84 359.75 266.36 359.75 255.2C359.75 244.04 352.01 237.56 343.61 237.56C335.21 237.56 327.47 244.04 327.47 255.2C327.47 266.36 335.21 272.84 343.61 272.84ZM343.61 265.64C339.05 265.64 336.47 261.56 336.47 255.2C336.47 248.9 339.05 244.76 343.61 244.76C348.17 244.76 350.75 248.9 350.75 255.2C350.75 261.56 348.17 265.64 343.61 265.64ZM380.722 284.9H389.542V274.7L389.242 269.18C391.822 271.52 394.642 272.84 397.582 272.84C404.962 272.84 411.862 266.18 411.862 254.66C411.862 244.34 406.942 237.56 398.662 237.56C395.062 237.56 391.582 239.48 388.762 241.88H388.582L387.922 238.4H380.722V284.9ZM395.602 265.58C393.802 265.58 391.642 264.92 389.542 263.06V248.3C391.822 245.96 393.862 244.82 396.142 244.82C400.762 244.82 402.802 248.36 402.802 254.78C402.802 262.1 399.682 265.58 395.602 265.58ZM419.336 272H428.156V251.96C430.016 247.1 433.196 245.36 435.836 245.36C437.216 245.36 438.176 245.54 439.376 245.9L440.876 238.28C439.856 237.86 438.776 237.56 436.916 237.56C433.436 237.56 429.836 239.96 427.376 244.34H427.196L426.536 238.4H419.336V272ZM458.805 272.84C467.205 272.84 474.945 266.36 474.945 255.2C474.945 244.04 467.205 237.56 458.805 237.56C450.405 237.56 442.665 244.04 442.665 255.2C442.665 266.36 450.405 272.84 458.805 272.84ZM458.805 265.64C454.245 265.64 451.665 261.56 451.665 255.2C451.665 248.9 454.245 244.76 458.805 244.76C463.365 244.76 465.945 248.9 465.945 255.2C465.945 261.56 463.365 265.64 458.805 265.64ZM484.795 285.5C492.295 285.5 495.895 280.94 498.835 273.02L510.775 238.4H502.315L497.695 254C496.915 257.12 496.075 260.36 495.295 263.48H494.995C494.035 260.24 493.195 257 492.175 254L486.835 238.4H477.955L491.035 271.4L490.435 273.38C489.475 276.32 487.555 278.48 484.135 278.48C483.355 278.48 482.395 278.24 481.795 278.06L480.175 284.84C481.495 285.26 482.815 285.5 484.795 285.5ZM530.48 272.84C534.62 272.84 538.88 271.4 542.18 269.12L539.18 263.72C536.78 265.22 534.38 266.06 531.62 266.06C526.64 266.06 523.04 263.18 522.32 257.66H543.02C543.26 256.88 543.44 255.26 543.44 253.58C543.44 244.34 538.64 237.56 529.4 237.56C521.42 237.56 513.74 244.34 513.74 255.2C513.74 266.3 521.06 272.84 530.48 272.84ZM522.2 251.78C522.86 246.92 525.98 244.4 529.52 244.4C533.84 244.4 535.88 247.28 535.88 251.78H522.2ZM564.983 272.84C568.703 272.84 572.783 271.58 576.023 268.76L572.483 262.94C570.623 264.5 568.343 265.64 565.943 265.64C561.143 265.64 557.603 261.56 557.603 255.2C557.603 248.9 561.083 244.76 566.243 244.76C568.103 244.76 569.663 245.54 571.343 246.98L575.543 241.28C573.083 239.18 569.903 237.56 565.763 237.56C556.643 237.56 548.603 244.04 548.603 255.2C548.603 266.36 555.683 272.84 564.983 272.84ZM593.94 272.84C596.88 272.84 599.22 272.18 601.02 271.58L599.58 265.16C598.68 265.52 597.36 265.88 596.28 265.88C593.28 265.88 591.72 264.08 591.72 260.24V245.36H600V238.4H591.72V229.34H584.4L583.38 238.4L578.16 238.82V245.36H582.9V260.24C582.9 267.74 585.96 272.84 593.94 272.84ZM619.762 272.84C628.162 272.84 635.902 266.36 635.902 255.2C635.902 244.04 628.162 237.56 619.762 237.56C611.362 237.56 603.622 244.04 603.622 255.2C603.622 266.36 611.362 272.84 619.762 272.84ZM619.762 265.64C615.202 265.64 612.622 261.56 612.622 255.2C612.622 248.9 615.202 244.76 619.762 244.76C624.322 244.76 626.902 248.9 626.902 255.2C626.902 261.56 624.322 265.64 619.762 265.64Z" fill="#262626"/>
</svg>
