<svg width="673" height="99" viewBox="0 0 673 99" fill="none" xmlns="http://www.w3.org/2000/svg">
<path d="M209.57 18.224C212.466 18.224 214.146 16.608 214.146 12.672V6.144H211.874V12.88C211.874 15.344 210.978 16.176 209.57 16.176C208.194 16.176 207.33 15.344 207.33 12.88V6.144H204.962V12.672C204.962 16.608 206.69 18.224 209.57 18.224ZM219.388 18H221.9L223.164 15.376C223.452 14.768 223.74 14.144 224.028 13.424H224.092C224.444 14.144 224.716 14.768 225.02 15.376L226.348 18H228.972L225.644 12L228.764 6.144H226.268L225.148 8.592C224.892 9.152 224.652 9.728 224.364 10.464H224.284C223.932 9.728 223.692 9.152 223.404 8.592L222.22 6.144H219.596L222.716 11.888L219.388 18ZM241.526 18H248.966V16.016H243.894V12.848H248.054V10.864H243.894V8.128H248.79V6.144H241.526V18ZM254.995 18H257.235V13.248C257.235 11.888 257.059 10.4 256.947 9.12H257.027L258.227 11.664L261.651 18H264.051V6.144H261.811V10.88C261.811 12.224 262.003 13.792 262.115 15.024H262.035L260.851 12.464L257.411 6.144H254.995V18ZM277.854 18H280.222V13.792H281.806C284.35 13.792 286.382 12.576 286.382 9.872C286.382 7.072 284.366 6.144 281.742 6.144H277.854V18ZM280.222 11.92V8.032H281.566C283.198 8.032 284.062 8.496 284.062 9.872C284.062 11.232 283.278 11.92 281.646 11.92H280.222ZM292.151 18H299.335V16.016H294.519V6.144H292.151V18ZM307.602 11.824C307.954 10.592 308.306 9.248 308.61 7.952H308.69C309.026 9.232 309.346 10.592 309.714 11.824L310.066 13.12H307.25L307.602 11.824ZM303.506 18H305.906L306.738 14.96H310.578L311.41 18H313.89L310.082 6.144H307.298L303.506 18ZM321.253 18H323.621V8.128H326.981V6.144H317.925V8.128H321.253V18ZM335.102 11.824C335.454 10.592 335.806 9.248 336.11 7.952H336.19C336.526 9.232 336.846 10.592 337.214 11.824L337.566 13.12H334.75L335.102 11.824ZM331.006 18H333.406L334.238 14.96H338.078L338.91 18H341.39L337.582 6.144H334.798L331.006 18ZM346.401 18H348.769V13.2H352.977V11.216H348.769V8.128H353.697V6.144H346.401V18ZM364.09 18.224C367.226 18.224 369.386 15.872 369.386 12.032C369.386 8.192 367.226 5.936 364.09 5.936C360.954 5.936 358.794 8.176 358.794 12.032C358.794 15.872 360.954 18.224 364.09 18.224ZM364.09 16.176C362.33 16.176 361.21 14.56 361.21 12.032C361.21 9.488 362.33 7.968 364.09 7.968C365.85 7.968 366.97 9.488 366.97 12.032C366.97 14.56 365.85 16.176 364.09 16.176ZM375.323 18H377.691V13.52H379.339L381.771 18H384.411L381.643 13.152C383.003 12.624 383.899 11.52 383.899 9.744C383.899 7.024 381.931 6.144 379.451 6.144H375.323V18ZM377.691 11.648V8.032H379.227C380.747 8.032 381.595 8.464 381.595 9.744C381.595 11.008 380.747 11.648 379.227 11.648H377.691ZM389.854 18H391.982V13.056C391.982 11.936 391.79 10.288 391.678 9.168H391.742L392.686 11.952L394.526 16.928H395.886L397.71 11.952L398.67 9.168H398.75C398.622 10.288 398.446 11.936 398.446 13.056V18H400.606V6.144H397.982L396.014 11.696C395.758 12.432 395.55 13.216 395.294 13.968H395.214C394.974 13.216 394.75 12.432 394.494 11.696L392.478 6.144H389.854V18ZM409.712 11.824C410.064 10.592 410.416 9.248 410.72 7.952H410.8C411.136 9.232 411.456 10.592 411.824 11.824L412.176 13.12H409.36L409.712 11.824ZM405.616 18H408.016L408.848 14.96H412.688L413.52 18H416L412.192 6.144H409.408L405.616 18ZM429.381 18H432.277L433.573 12.144C433.765 11.216 433.925 10.304 434.085 9.392H434.149C434.293 10.304 434.469 11.216 434.661 12.144L435.989 18H438.933L441.125 6.144H438.885L437.941 11.936C437.765 13.168 437.589 14.432 437.413 15.712H437.333C437.077 14.432 436.837 13.152 436.581 11.936L435.221 6.144H433.189L431.813 11.936C431.557 13.168 431.301 14.432 431.061 15.712H430.997C430.821 14.432 430.629 13.184 430.453 11.936L429.509 6.144H427.109L429.381 18ZM446.526 18H453.966V16.016H448.894V12.848H453.054V10.864H448.894V8.128H453.79V6.144H446.526V18ZM459.995 18H464.219C466.827 18 468.811 16.896 468.811 14.512C468.811 12.912 467.867 12.016 466.587 11.712V11.632C467.595 11.28 468.203 10.16 468.203 9.072C468.203 6.864 466.347 6.144 463.915 6.144H459.995V18ZM462.363 10.976V7.968H463.771C465.195 7.968 465.899 8.384 465.899 9.424C465.899 10.368 465.243 10.976 463.739 10.976H462.363ZM462.363 16.176V12.72H464.011C465.643 12.72 466.507 13.216 466.507 14.368C466.507 15.6 465.627 16.176 464.011 16.176H462.363Z" fill="#8A8A8A"/>
<path d="M185.09 98.84C190.85 98.84 195.59 96.56 199.25 92.3L194.57 86.78C192.17 89.36 189.23 91.16 185.39 91.16C178.37 91.16 173.81 85.34 173.81 75.68C173.81 66.14 178.85 60.38 185.57 60.38C188.93 60.38 191.51 61.94 193.79 64.1L198.41 58.46C195.53 55.46 191.03 52.76 185.39 52.76C174.17 52.76 164.75 61.34 164.75 75.98C164.75 90.8 173.87 98.84 185.09 98.84ZM205.683 98H214.503V74.9C216.963 72.44 218.703 71.12 221.463 71.12C224.763 71.12 226.203 72.92 226.203 78.14V98H235.023V77.06C235.023 68.6 231.903 63.56 224.643 63.56C220.083 63.56 216.783 65.96 214.083 68.48L214.503 62.18V50.12H205.683V98ZM244.062 98H252.882V64.4H244.062V98ZM248.502 59C251.502 59 253.602 57.08 253.602 54.14C253.602 51.26 251.502 49.34 248.502 49.34C245.442 49.34 243.342 51.26 243.342 54.14C243.342 57.08 245.442 59 248.502 59ZM270.565 98.84C272.665 98.84 274.105 98.48 275.125 98.06L274.045 91.52C273.445 91.64 273.205 91.64 272.845 91.64C272.005 91.64 271.105 90.98 271.105 88.94V50.12H262.285V88.58C262.285 94.82 264.445 98.84 270.565 98.84ZM295.851 98.84C299.991 98.84 304.251 97.4 307.551 95.12L304.551 89.72C302.151 91.22 299.751 92.06 296.991 92.06C292.011 92.06 288.411 89.18 287.691 83.66H308.391C308.631 82.88 308.811 81.26 308.811 79.58C308.811 70.34 304.011 63.56 294.771 63.56C286.791 63.56 279.111 70.34 279.111 81.2C279.111 92.3 286.431 98.84 295.851 98.84ZM287.571 77.78C288.231 72.92 291.351 70.4 294.891 70.4C299.211 70.4 301.251 73.28 301.251 77.78H287.571ZM338.188 98H348.808L362.368 53.54H353.368L347.608 75.2C346.228 80.12 345.268 84.56 343.828 89.54H343.528C342.148 84.56 341.188 80.12 339.808 75.2L333.928 53.54H324.628L338.188 98ZM372.87 98.84C376.71 98.84 380.07 96.92 383.01 94.4H383.25L383.85 98H391.05V78.38C391.05 68.66 386.67 63.56 378.15 63.56C372.87 63.56 368.07 65.54 364.11 68L367.29 73.82C370.41 72.02 373.41 70.64 376.53 70.64C380.67 70.64 382.11 73.16 382.29 76.46C368.73 77.9 362.91 81.68 362.91 88.88C362.91 94.58 366.87 98.84 372.87 98.84ZM375.75 91.94C373.17 91.94 371.31 90.8 371.31 88.16C371.31 85.16 374.07 82.88 382.29 81.86V88.64C380.13 90.74 378.27 91.94 375.75 91.94ZM408.319 98.84C410.419 98.84 411.859 98.48 412.879 98.06L411.799 91.52C411.199 91.64 410.959 91.64 410.599 91.64C409.759 91.64 408.859 90.98 408.859 88.94V50.12H400.039V88.58C400.039 94.82 402.199 98.84 408.319 98.84ZM433.005 98.84C441.405 98.84 449.145 92.36 449.145 81.2C449.145 70.04 441.405 63.56 433.005 63.56C424.605 63.56 416.865 70.04 416.865 81.2C416.865 92.36 424.605 98.84 433.005 98.84ZM433.005 91.64C428.445 91.64 425.865 87.56 425.865 81.2C425.865 74.9 428.445 70.76 433.005 70.76C437.565 70.76 440.145 74.9 440.145 81.2C440.145 87.56 437.565 91.64 433.005 91.64ZM456.523 98H465.343V77.96C467.203 73.1 470.383 71.36 473.023 71.36C474.403 71.36 475.363 71.54 476.563 71.9L478.063 64.28C477.043 63.86 475.963 63.56 474.103 63.56C470.623 63.56 467.023 65.96 464.563 70.34H464.383L463.723 64.4H456.523V98ZM489.061 98.84C492.901 98.84 496.261 96.92 499.201 94.4H499.441L500.041 98H507.241V78.38C507.241 68.66 502.861 63.56 494.341 63.56C489.061 63.56 484.261 65.54 480.301 68L483.481 73.82C486.601 72.02 489.601 70.64 492.721 70.64C496.861 70.64 498.301 73.16 498.481 76.46C484.921 77.9 479.101 81.68 479.101 88.88C479.101 94.58 483.061 98.84 489.061 98.84ZM491.941 91.94C489.361 91.94 487.501 90.8 487.501 88.16C487.501 85.16 490.261 82.88 498.481 81.86V88.64C496.321 90.74 494.461 91.94 491.941 91.94Z" fill="#262626"/>
</svg>
