<svg width="817" height="200" viewBox="0 0 817 200" fill="none" xmlns="http://www.w3.org/2000/svg">
<path d="M136.139 98H145.019V60.98H157.619V53.54H123.659V60.98H136.139V98ZM173.759 98.84C177.899 98.84 182.159 97.4 185.459 95.12L182.459 89.72C180.059 91.22 177.659 92.06 174.899 92.06C169.919 92.06 166.319 89.18 165.599 83.66H186.299C186.539 82.88 186.719 81.26 186.719 79.58C186.719 70.34 181.919 63.56 172.679 63.56C164.699 63.56 157.019 70.34 157.019 81.2C157.019 92.3 164.339 98.84 173.759 98.84ZM165.479 77.78C166.139 72.92 169.259 70.4 172.799 70.4C177.119 70.4 179.159 73.28 179.159 77.78H165.479ZM207.576 98H216.396V64.4H207.576V98ZM212.016 59C215.016 59 217.116 57.08 217.116 54.14C217.116 51.26 215.016 49.34 212.016 49.34C208.956 49.34 206.856 51.26 206.856 54.14C206.856 57.08 208.956 59 212.016 59ZM225.799 98H234.619V74.9C237.079 72.44 238.819 71.12 241.579 71.12C244.879 71.12 246.319 72.92 246.319 78.14V98H255.139V77.06C255.139 68.6 252.019 63.56 244.759 63.56C240.199 63.56 236.779 65.96 233.839 68.84H233.659L232.999 64.4H225.799V98ZM271.796 98H281.996L293.216 64.4H284.756L279.836 81.14C278.936 84.44 278.036 87.92 277.136 91.34H276.836C275.936 87.92 275.036 84.44 274.136 81.14L269.216 64.4H260.336L271.796 98ZM298.806 98H307.626V64.4H298.806V98ZM303.246 59C306.246 59 308.346 57.08 308.346 54.14C308.346 51.26 306.246 49.34 303.246 49.34C300.186 49.34 298.086 51.26 298.086 54.14C298.086 57.08 300.186 59 303.246 59ZM329.329 98.84C332.269 98.84 334.609 98.18 336.409 97.58L334.969 91.16C334.069 91.52 332.749 91.88 331.669 91.88C328.669 91.88 327.109 90.08 327.109 86.24V71.36H335.389V64.4H327.109V55.34H319.789L318.769 64.4L313.549 64.82V71.36H318.289V86.24C318.289 93.74 321.349 98.84 329.329 98.84ZM355.151 98.84C363.551 98.84 371.291 92.36 371.291 81.2C371.291 70.04 363.551 63.56 355.151 63.56C346.751 63.56 339.011 70.04 339.011 81.2C339.011 92.36 346.751 98.84 355.151 98.84ZM355.151 91.64C350.591 91.64 348.011 87.56 348.011 81.2C348.011 74.9 350.591 70.76 355.151 70.76C359.711 70.76 362.291 74.9 362.291 81.2C362.291 87.56 359.711 91.64 355.151 91.64ZM400.543 98.84C404.383 98.84 407.743 96.92 410.683 94.4H410.923L411.523 98H418.723V78.38C418.723 68.66 414.343 63.56 405.823 63.56C400.543 63.56 395.743 65.54 391.783 68L394.963 73.82C398.083 72.02 401.083 70.64 404.203 70.64C408.343 70.64 409.783 73.16 409.963 76.46C396.403 77.9 390.583 81.68 390.583 88.88C390.583 94.58 394.543 98.84 400.543 98.84ZM403.423 91.94C400.843 91.94 398.983 90.8 398.983 88.16C398.983 85.16 401.743 82.88 409.963 81.86V88.64C407.803 90.74 405.943 91.94 403.423 91.94ZM461.706 110.9H470.466V64.4H463.566L462.846 67.7H462.606C459.906 64.88 457.206 63.56 453.486 63.56C446.226 63.56 439.386 70.28 439.386 81.2C439.386 92.24 444.786 98.84 453.126 98.84C456.426 98.84 459.726 97.16 462.006 94.82L461.706 100.22V110.9ZM455.406 91.58C450.966 91.58 448.446 88.1 448.446 81.14C448.446 74.42 451.626 70.82 455.406 70.82C457.506 70.82 459.666 71.48 461.706 73.34V88.1C459.726 90.62 457.746 91.58 455.406 91.58ZM489.94 98.84C494.5 98.84 497.74 96.62 500.62 93.2H500.86L501.52 98H508.72V64.4H499.9V87.08C497.62 90.08 495.82 91.28 493.06 91.28C489.82 91.28 488.38 89.42 488.38 84.26V64.4H479.56V85.4C479.56 93.8 482.68 98.84 489.94 98.84ZM532.763 98.84C536.903 98.84 541.163 97.4 544.463 95.12L541.463 89.72C539.063 91.22 536.663 92.06 533.903 92.06C528.923 92.06 525.323 89.18 524.603 83.66H545.303C545.543 82.88 545.723 81.26 545.723 79.58C545.723 70.34 540.923 63.56 531.683 63.56C523.703 63.56 516.023 70.34 516.023 81.2C516.023 92.3 523.343 98.84 532.763 98.84ZM524.483 77.78C525.143 72.92 528.263 70.4 531.803 70.4C536.123 70.4 538.163 73.28 538.163 77.78H524.483ZM574.14 98H584.34L595.56 64.4H587.1L582.18 81.14C581.28 84.44 580.38 87.92 579.48 91.34H579.18C578.28 87.92 577.38 84.44 576.48 81.14L571.56 64.4H562.68L574.14 98ZM615.321 98.84C619.461 98.84 623.721 97.4 627.021 95.12L624.021 89.72C621.621 91.22 619.221 92.06 616.461 92.06C611.481 92.06 607.881 89.18 607.161 83.66H627.861C628.101 82.88 628.281 81.26 628.281 79.58C628.281 70.34 623.481 63.56 614.241 63.56C606.261 63.56 598.581 70.34 598.581 81.2C598.581 92.3 605.901 98.84 615.321 98.84ZM607.041 77.78C607.701 72.92 610.821 70.4 614.361 70.4C618.681 70.4 620.721 73.28 620.721 77.78H607.041ZM643.004 98.84C646.844 98.84 650.204 96.92 653.144 94.4H653.384L653.984 98H661.184V78.38C661.184 68.66 656.804 63.56 648.284 63.56C643.004 63.56 638.204 65.54 634.244 68L637.424 73.82C640.544 72.02 643.544 70.64 646.664 70.64C650.804 70.64 652.244 73.16 652.424 76.46C638.864 77.9 633.044 81.68 633.044 88.88C633.044 94.58 637.004 98.84 643.004 98.84ZM645.884 91.94C643.304 91.94 641.444 90.8 641.444 88.16C641.444 85.16 644.204 82.88 652.424 81.86V88.64C650.264 90.74 648.404 91.94 645.884 91.94ZM679.774 98.84C688.534 98.84 693.154 94.1 693.154 88.22C693.154 81.98 688.234 79.76 683.794 78.08C680.254 76.76 677.134 75.86 677.134 73.4C677.134 71.48 678.574 70.16 681.634 70.16C684.094 70.16 686.434 71.3 688.834 73.04L692.794 67.7C690.034 65.6 686.254 63.56 681.394 63.56C673.714 63.56 668.854 67.82 668.854 73.82C668.854 79.46 673.594 82.04 677.854 83.66C681.394 85.04 684.874 86.18 684.874 88.7C684.874 90.8 683.374 92.24 680.014 92.24C676.894 92.24 674.014 90.92 671.014 88.58L666.994 94.1C670.354 96.86 675.274 98.84 679.774 98.84ZM184.45 185.84C188.29 185.84 191.65 183.92 194.59 181.4H194.83L195.43 185H202.63V165.38C202.63 155.66 198.25 150.56 189.73 150.56C184.45 150.56 179.65 152.54 175.69 155L178.87 160.82C181.99 159.02 184.99 157.64 188.11 157.64C192.25 157.64 193.69 160.16 193.87 163.46C180.31 164.9 174.49 168.68 174.49 175.88C174.49 181.58 178.45 185.84 184.45 185.84ZM187.33 178.94C184.75 178.94 182.89 177.8 182.89 175.16C182.89 172.16 185.65 169.88 193.87 168.86V175.64C191.71 177.74 189.85 178.94 187.33 178.94ZM219.899 185.84C221.999 185.84 223.439 185.48 224.459 185.06L223.379 178.52C222.779 178.64 222.539 178.64 222.179 178.64C221.339 178.64 220.439 177.98 220.439 175.94V137.12H211.619V175.58C211.619 181.82 213.779 185.84 219.899 185.84ZM242.365 199.58C253.585 199.58 260.665 194.42 260.665 187.64C260.665 181.76 256.225 179.24 248.125 179.24H242.425C238.465 179.24 237.145 178.28 237.145 176.48C237.145 175.1 237.685 174.38 238.585 173.6C240.025 174.08 241.585 174.38 242.905 174.38C250.105 174.38 255.865 170.54 255.865 162.98C255.865 160.88 255.205 159.02 254.365 157.88H260.065V151.4H247.945C246.565 150.92 244.765 150.56 242.905 150.56C235.765 150.56 229.345 154.82 229.345 162.68C229.345 166.64 231.505 169.82 233.845 171.5V171.74C231.805 173.18 230.065 175.52 230.065 178.04C230.065 180.8 231.385 182.54 233.125 183.68V183.98C230.065 185.72 228.325 188.12 228.325 190.94C228.325 196.88 234.445 199.58 242.365 199.58ZM242.905 168.92C239.965 168.92 237.625 166.7 237.625 162.68C237.625 158.78 239.905 156.56 242.905 156.56C245.905 156.56 248.185 158.78 248.185 162.68C248.185 166.7 245.845 168.92 242.905 168.92ZM243.685 194C238.825 194 235.705 192.38 235.705 189.56C235.705 188.18 236.365 186.86 237.865 185.66C239.065 185.96 240.505 186.14 242.545 186.14H246.625C250.225 186.14 252.205 186.74 252.205 189.14C252.205 191.78 248.725 194 243.685 194ZM276.365 185.84C280.925 185.84 284.165 183.62 287.045 180.2H287.285L287.945 185H295.145V151.4H286.325V174.08C284.045 177.08 282.245 178.28 279.485 178.28C276.245 178.28 274.805 176.42 274.805 171.26V151.4H265.985V172.4C265.985 180.8 269.105 185.84 276.365 185.84ZM304.549 185H313.369V161.9C315.829 159.44 317.569 158.12 320.329 158.12C323.629 158.12 325.069 159.92 325.069 165.14V185H333.889V164.06C333.889 155.6 330.769 150.56 323.509 150.56C318.949 150.56 315.529 152.96 312.589 155.84H312.409L311.749 151.4H304.549V185ZM357.026 185.84C365.426 185.84 373.166 179.36 373.166 168.2C373.166 157.04 365.426 150.56 357.026 150.56C348.626 150.56 340.886 157.04 340.886 168.2C340.886 179.36 348.626 185.84 357.026 185.84ZM357.026 178.64C352.466 178.64 349.886 174.56 349.886 168.2C349.886 161.9 352.466 157.76 357.026 157.76C361.586 157.76 364.166 161.9 364.166 168.2C364.166 174.56 361.586 178.64 357.026 178.64ZM389.852 185.84C398.612 185.84 403.232 181.1 403.232 175.22C403.232 168.98 398.312 166.76 393.872 165.08C390.332 163.76 387.212 162.86 387.212 160.4C387.212 158.48 388.652 157.16 391.712 157.16C394.172 157.16 396.512 158.3 398.912 160.04L402.872 154.7C400.112 152.6 396.332 150.56 391.472 150.56C383.792 150.56 378.932 154.82 378.932 160.82C378.932 166.46 383.672 169.04 387.932 170.66C391.472 172.04 394.952 173.18 394.952 175.7C394.952 177.8 393.452 179.24 390.092 179.24C386.972 179.24 384.092 177.92 381.092 175.58L377.072 181.1C380.432 183.86 385.352 185.84 389.852 185.84ZM435.373 185.84C438.853 185.84 442.213 183.92 444.673 181.52H444.913L445.573 185H452.712V137.12H443.953V148.94L444.253 154.22C441.853 152 439.513 150.56 435.733 150.56C428.473 150.56 421.633 157.28 421.633 168.2C421.633 179.24 427.033 185.84 435.373 185.84ZM437.653 178.58C433.213 178.58 430.693 175.1 430.693 168.14C430.693 161.42 433.873 157.82 437.653 157.82C439.753 157.82 441.913 158.48 443.953 160.34V175.1C441.973 177.62 439.993 178.58 437.653 178.58ZM476.806 185.84C480.946 185.84 485.206 184.4 488.506 182.12L485.506 176.72C483.106 178.22 480.706 179.06 477.946 179.06C472.966 179.06 469.366 176.18 468.646 170.66H489.346C489.586 169.88 489.766 168.26 489.766 166.58C489.766 157.34 484.966 150.56 475.726 150.56C467.746 150.56 460.066 157.34 460.066 168.2C460.066 179.3 467.386 185.84 476.806 185.84ZM468.526 164.78C469.186 159.92 472.306 157.4 475.846 157.4C480.166 157.4 482.206 160.28 482.206 164.78H468.526ZM525.263 185.84C529.403 185.84 533.663 184.4 536.963 182.12L533.963 176.72C531.563 178.22 529.163 179.06 526.403 179.06C521.423 179.06 517.823 176.18 517.103 170.66H537.803C538.043 169.88 538.223 168.26 538.223 166.58C538.223 157.34 533.423 150.56 524.183 150.56C516.203 150.56 508.523 157.34 508.523 168.2C508.523 179.3 515.843 185.84 525.263 185.84ZM516.983 164.78C517.643 159.92 520.763 157.4 524.303 157.4C528.623 157.4 530.663 160.28 530.663 164.78H516.983ZM553.766 185.84C555.866 185.84 557.306 185.48 558.326 185.06L557.246 178.52C556.646 178.64 556.406 178.64 556.046 178.64C555.206 178.64 554.306 177.98 554.306 175.94V137.12H545.486V175.58C545.486 181.82 547.646 185.84 553.766 185.84ZM572.692 185.84C574.792 185.84 576.232 185.48 577.252 185.06L576.172 178.52C575.572 178.64 575.332 178.64 574.972 178.64C574.132 178.64 573.232 177.98 573.232 175.94V137.12H564.412V175.58C564.412 181.82 566.572 185.84 572.692 185.84ZM597.378 185.84C605.778 185.84 613.518 179.36 613.518 168.2C613.518 157.04 605.778 150.56 597.378 150.56C588.978 150.56 581.238 157.04 581.238 168.2C581.238 179.36 588.978 185.84 597.378 185.84ZM597.378 178.64C592.818 178.64 590.238 174.56 590.238 168.2C590.238 161.9 592.818 157.76 597.378 157.76C601.938 157.76 604.518 161.9 604.518 168.2C604.518 174.56 601.938 178.64 597.378 178.64ZM630.203 185.84C638.963 185.84 643.583 181.1 643.583 175.22C643.583 168.98 638.663 166.76 634.223 165.08C630.683 163.76 627.563 162.86 627.563 160.4C627.563 158.48 629.003 157.16 632.063 157.16C634.523 157.16 636.863 158.3 639.263 160.04L643.223 154.7C640.463 152.6 636.683 150.56 631.823 150.56C624.143 150.56 619.283 154.82 619.283 160.82C619.283 166.46 624.023 169.04 628.283 170.66C631.823 172.04 635.303 173.18 635.303 175.7C635.303 177.8 633.803 179.24 630.443 179.24C627.323 179.24 624.443 177.92 621.443 175.58L617.423 181.1C620.783 183.86 625.703 185.84 630.203 185.84Z" fill="#D29890"/>
<path d="M274.604 18H276.972V13.792H278.556C281.1 13.792 283.132 12.576 283.132 9.872C283.132 7.072 281.116 6.144 278.492 6.144H274.604V18ZM276.972 11.92V8.032H278.316C279.948 8.032 280.812 8.496 280.812 9.872C280.812 11.232 280.028 11.92 278.396 11.92H276.972ZM288.901 18H291.269V13.52H292.917L295.349 18H297.989L295.221 13.152C296.581 12.624 297.477 11.52 297.477 9.744C297.477 7.024 295.509 6.144 293.029 6.144H288.901V18ZM291.269 11.648V8.032H292.805C294.325 8.032 295.173 8.464 295.173 9.744C295.173 11.008 294.325 11.648 292.805 11.648H291.269ZM308.137 18.224C311.273 18.224 313.433 15.872 313.433 12.032C313.433 8.192 311.273 5.936 308.137 5.936C305.001 5.936 302.841 8.176 302.841 12.032C302.841 15.872 305.001 18.224 308.137 18.224ZM308.137 16.176C306.377 16.176 305.257 14.56 305.257 12.032C305.257 9.488 306.377 7.968 308.137 7.968C309.897 7.968 311.017 9.488 311.017 12.032C311.017 14.56 309.897 16.176 308.137 16.176ZM321.37 18H323.738V13.664L327.306 6.144H324.842L323.658 9.04C323.322 9.92 322.97 10.752 322.602 11.664H322.538C322.17 10.752 321.85 9.92 321.514 9.04L320.33 6.144H317.818L321.37 13.664V18ZM332.292 18H339.732V16.016H334.66V12.848H338.82V10.864H334.66V8.128H339.556V6.144H332.292V18ZM350.593 18.224C352.129 18.224 353.393 17.616 354.369 16.48L353.121 15.008C352.481 15.696 351.697 16.176 350.673 16.176C348.801 16.176 347.585 14.624 347.585 12.048C347.585 9.504 348.929 7.968 350.721 7.968C351.617 7.968 352.305 8.384 352.913 8.96L354.145 7.456C353.377 6.656 352.177 5.936 350.673 5.936C347.681 5.936 345.169 8.224 345.169 12.128C345.169 16.08 347.601 18.224 350.593 18.224ZM362.253 18H364.621V8.128H367.981V6.144H358.925V8.128H362.253V18ZM378.23 18.224C381.366 18.224 383.526 15.872 383.526 12.032C383.526 8.192 381.366 5.936 378.23 5.936C375.094 5.936 372.934 8.176 372.934 12.032C372.934 15.872 375.094 18.224 378.23 18.224ZM378.23 16.176C376.47 16.176 375.35 14.56 375.35 12.032C375.35 9.488 376.47 7.968 378.23 7.968C379.99 7.968 381.11 9.488 381.11 12.032C381.11 14.56 379.99 16.176 378.23 16.176ZM393 18.224C395.736 18.224 397.352 16.576 397.352 14.64C397.352 12.928 396.408 12.016 394.968 11.424L393.416 10.768C392.408 10.368 391.576 10.064 391.576 9.216C391.576 8.432 392.232 7.968 393.272 7.968C394.248 7.968 395.032 8.32 395.784 8.944L396.984 7.456C396.024 6.48 394.648 5.936 393.272 5.936C390.872 5.936 389.176 7.424 389.176 9.36C389.176 11.088 390.376 12.048 391.576 12.544L393.16 13.216C394.216 13.664 394.936 13.936 394.936 14.816C394.936 15.648 394.28 16.176 393.048 16.176C392.008 16.176 390.888 15.648 390.04 14.864L388.68 16.496C389.832 17.6 391.416 18.224 393 18.224ZM406.698 18H410.074C413.562 18 415.802 16.016 415.802 12.032C415.802 8.032 413.562 6.144 409.946 6.144H406.698V18ZM409.066 16.096V8.048H409.802C412.01 8.048 413.386 9.136 413.386 12.032C413.386 14.912 412.01 16.096 409.802 16.096H409.066ZM421.745 18H429.185V16.016H424.113V12.848H428.273V10.864H424.113V8.128H429.009V6.144H421.745V18ZM438.75 18.224C441.486 18.224 443.102 16.576 443.102 14.64C443.102 12.928 442.158 12.016 440.718 11.424L439.166 10.768C438.158 10.368 437.326 10.064 437.326 9.216C437.326 8.432 437.982 7.968 439.022 7.968C439.998 7.968 440.782 8.32 441.534 8.944L442.734 7.456C441.774 6.48 440.398 5.936 439.022 5.936C436.622 5.936 434.926 7.424 434.926 9.36C434.926 11.088 436.126 12.048 437.326 12.544L438.91 13.216C439.966 13.664 440.686 13.936 440.686 14.816C440.686 15.648 440.03 16.176 438.798 16.176C437.758 16.176 436.638 15.648 435.79 14.864L434.43 16.496C435.582 17.6 437.166 18.224 438.75 18.224ZM451.175 18H453.543V8.128H456.903V6.144H447.847V8.128H451.175V18ZM465.024 11.824C465.376 10.592 465.728 9.248 466.032 7.952H466.112C466.448 9.232 466.768 10.592 467.136 11.824L467.488 13.12H464.672L465.024 11.824ZM460.928 18H463.328L464.16 14.96H468L468.832 18H471.312L467.504 6.144H464.72L460.928 18ZM481.155 18.224C482.691 18.224 483.955 17.616 484.931 16.48L483.683 15.008C483.043 15.696 482.259 16.176 481.235 16.176C479.363 16.176 478.147 14.624 478.147 12.048C478.147 9.504 479.491 7.968 481.283 7.968C482.179 7.968 482.867 8.384 483.475 8.96L484.707 7.456C483.939 6.656 482.739 5.936 481.235 5.936C478.243 5.936 475.731 8.224 475.731 12.128C475.731 16.08 478.163 18.224 481.155 18.224ZM493.04 11.824C493.392 10.592 493.744 9.248 494.048 7.952H494.128C494.464 9.232 494.784 10.592 495.152 11.824L495.504 13.12H492.688L493.04 11.824ZM488.944 18H491.344L492.176 14.96H496.016L496.848 18H499.328L495.52 6.144H492.736L488.944 18ZM504.339 18H507.715C511.203 18 513.443 16.016 513.443 12.032C513.443 8.032 511.203 6.144 507.587 6.144H504.339V18ZM506.707 16.096V8.048H507.443C509.651 8.048 511.027 9.136 511.027 12.032C511.027 14.912 509.651 16.096 507.443 16.096H506.707ZM524.09 18.224C527.226 18.224 529.386 15.872 529.386 12.032C529.386 8.192 527.226 5.936 524.09 5.936C520.954 5.936 518.794 8.176 518.794 12.032C518.794 15.872 520.954 18.224 524.09 18.224ZM524.09 16.176C522.33 16.176 521.21 14.56 521.21 12.032C521.21 9.488 522.33 7.968 524.09 7.968C525.85 7.968 526.97 9.488 526.97 12.032C526.97 14.56 525.85 16.176 524.09 16.176ZM538.859 18.224C541.595 18.224 543.211 16.576 543.211 14.64C543.211 12.928 542.267 12.016 540.827 11.424L539.275 10.768C538.267 10.368 537.435 10.064 537.435 9.216C537.435 8.432 538.091 7.968 539.131 7.968C540.107 7.968 540.891 8.32 541.643 8.944L542.843 7.456C541.883 6.48 540.507 5.936 539.131 5.936C536.731 5.936 535.035 7.424 535.035 9.36C535.035 11.088 536.235 12.048 537.435 12.544L539.019 13.216C540.075 13.664 540.795 13.936 540.795 14.816C540.795 15.648 540.139 16.176 538.907 16.176C537.867 16.176 536.747 15.648 535.899 14.864L534.539 16.496C535.691 17.6 537.275 18.224 538.859 18.224Z" fill="#8A8A8A"/>
</svg>
