<svg width="670" height="99" viewBox="0 0 670 99" fill="none" xmlns="http://www.w3.org/2000/svg">
<path d="M211.992 18.224C214.888 18.224 216.568 16.608 216.568 12.672V6.144H214.296V12.88C214.296 15.344 213.4 16.176 211.992 16.176C210.616 16.176 209.752 15.344 209.752 12.88V6.144H207.384V12.672C207.384 16.608 209.112 18.224 211.992 18.224ZM221.81 18H224.322L225.586 15.376C225.874 14.768 226.162 14.144 226.45 13.424H226.514C226.866 14.144 227.138 14.768 227.442 15.376L228.77 18H231.394L228.066 12L231.186 6.144H228.69L227.57 8.592C227.314 9.152 227.074 9.728 226.786 10.464H226.706C226.354 9.728 226.114 9.152 225.826 8.592L224.642 6.144H222.018L225.138 11.888L221.81 18ZM243.948 18H251.388V16.016H246.316V12.848H250.476V10.864H246.316V8.128H251.212V6.144H243.948V18ZM257.417 18H259.657V13.248C259.657 11.888 259.481 10.4 259.369 9.12H259.449L260.649 11.664L264.073 18H266.473V6.144H264.233V10.88C264.233 12.224 264.425 13.792 264.537 15.024H264.457L263.273 12.464L259.833 6.144H257.417V18ZM280.276 18H282.644V13.52H284.292L286.724 18H289.364L286.596 13.152C287.956 12.624 288.852 11.52 288.852 9.744C288.852 7.024 286.884 6.144 284.404 6.144H280.276V18ZM282.644 11.648V8.032H284.18C285.7 8.032 286.548 8.464 286.548 9.744C286.548 11.008 285.7 11.648 284.18 11.648H282.644ZM294.808 18H302.248V16.016H297.176V12.848H301.336V10.864H297.176V8.128H302.072V6.144H294.808V18ZM308.276 18H311.652C315.14 18 317.38 16.016 317.38 12.032C317.38 8.032 315.14 6.144 311.524 6.144H308.276V18ZM310.644 16.096V8.048H311.38C313.588 8.048 314.964 9.136 314.964 12.032C314.964 14.912 313.588 16.096 311.38 16.096H310.644ZM323.323 18H325.691V6.144H323.323V18ZM335.765 18.224C338.501 18.224 340.117 16.576 340.117 14.64C340.117 12.928 339.173 12.016 337.733 11.424L336.181 10.768C335.173 10.368 334.341 10.064 334.341 9.216C334.341 8.432 334.997 7.968 336.037 7.968C337.013 7.968 337.797 8.32 338.549 8.944L339.749 7.456C338.789 6.48 337.413 5.936 336.037 5.936C333.637 5.936 331.941 7.424 331.941 9.36C331.941 11.088 333.141 12.048 334.341 12.544L335.925 13.216C336.981 13.664 337.701 13.936 337.701 14.816C337.701 15.648 337.045 16.176 335.813 16.176C334.773 16.176 333.653 15.648 332.805 14.864L331.445 16.496C332.597 17.6 334.181 18.224 335.765 18.224ZM345.839 18H353.279V16.016H348.207V12.848H352.367V10.864H348.207V8.128H353.103V6.144H345.839V18ZM359.308 18H361.548V13.248C361.548 11.888 361.372 10.4 361.26 9.12H361.34L362.54 11.664L365.964 18H368.364V6.144H366.124V10.88C366.124 12.224 366.316 13.792 366.428 15.024H366.348L365.164 12.464L361.724 6.144H359.308V18ZM365.292 5.344C366.492 5.344 367.372 4.56 367.452 2.832L365.932 2.736C365.852 3.424 365.58 3.696 365.212 3.696C364.524 3.696 363.964 2.592 362.652 2.592C361.452 2.592 360.572 3.392 360.476 5.088L362.012 5.216C362.076 4.512 362.364 4.24 362.732 4.24C363.404 4.24 363.964 5.344 365.292 5.344ZM379.621 18.224C382.757 18.224 384.917 15.872 384.917 12.032C384.917 8.192 382.757 5.936 379.621 5.936C376.485 5.936 374.325 8.176 374.325 12.032C374.325 15.872 376.485 18.224 379.621 18.224ZM379.621 16.176C377.861 16.176 376.741 14.56 376.741 12.032C376.741 9.488 377.861 7.968 379.621 7.968C381.381 7.968 382.501 9.488 382.501 12.032C382.501 14.56 381.381 16.176 379.621 16.176ZM394.479 18H397.855C401.343 18 403.583 16.016 403.583 12.032C403.583 8.032 401.343 6.144 397.727 6.144H394.479V18ZM396.847 16.096V8.048H397.583C399.791 8.048 401.167 9.136 401.167 12.032C401.167 14.912 399.791 16.096 397.583 16.096H396.847ZM409.526 18H416.966V16.016H411.894V12.848H416.054V10.864H411.894V8.128H416.79V6.144H409.526V18ZM429.196 11.824C429.548 10.592 429.9 9.248 430.204 7.952H430.284C430.62 9.232 430.94 10.592 431.308 11.824L431.66 13.12H428.844L429.196 11.824ZM425.1 18H427.5L428.332 14.96H432.172L433.004 18H435.484L431.676 6.144H428.892L425.1 18ZM440.495 18H442.863V13.792H444.447C446.991 13.792 449.023 12.576 449.023 9.872C449.023 7.072 447.007 6.144 444.383 6.144H440.495V18ZM442.863 11.92V8.032H444.207C445.839 8.032 446.703 8.496 446.703 9.872C446.703 11.232 445.919 11.92 444.287 11.92H442.863ZM454.792 18H457.16V13.792H458.744C461.288 13.792 463.32 12.576 463.32 9.872C463.32 7.072 461.304 6.144 458.68 6.144H454.792V18ZM457.16 11.92V8.032H458.504C460.136 8.032 461 8.496 461 9.872C461 11.232 460.216 11.92 458.584 11.92H457.16Z" fill="#8A8A8A"/>
<path d="M283.573 98H294.193L307.753 53.54H298.753L292.993 75.2C291.613 80.12 290.653 84.56 289.213 89.54H288.913C287.533 84.56 286.573 80.12 285.193 75.2L279.313 53.54H270.012L283.573 98ZM312.142 98H320.962V64.4H312.142V98ZM316.582 59C319.582 59 321.682 57.08 321.682 54.14C321.682 51.26 319.582 49.34 316.582 49.34C313.522 49.34 311.422 51.26 311.422 54.14C311.422 57.08 313.522 59 316.582 59ZM342.185 98.84C345.665 98.84 349.025 96.92 351.485 94.52H351.725L352.385 98H359.525V50.12H350.765V61.94L351.065 67.22C348.665 65 346.325 63.56 342.545 63.56C335.285 63.56 328.445 70.28 328.445 81.2C328.445 92.24 333.845 98.84 342.185 98.84ZM344.465 91.58C340.025 91.58 337.505 88.1 337.505 81.14C337.505 74.42 340.685 70.82 344.465 70.82C346.565 70.82 348.725 71.48 350.765 73.34V88.1C348.785 90.62 346.805 91.58 344.465 91.58ZM377.258 98.84C381.098 98.84 384.458 96.92 387.398 94.4H387.638L388.238 98H395.438V78.38C395.438 68.66 391.058 63.56 382.538 63.56C377.258 63.56 372.458 65.54 368.498 68L371.678 73.82C374.798 72.02 377.798 70.64 380.918 70.64C385.058 70.64 386.498 73.16 386.678 76.46C373.118 77.9 367.298 81.68 367.298 88.88C367.298 94.58 371.258 98.84 377.258 98.84ZM380.138 91.94C377.558 91.94 375.698 90.8 375.698 88.16C375.698 85.16 378.458 82.88 386.678 81.86V88.64C384.518 90.74 382.658 91.94 380.138 91.94Z" fill="#262626"/>
</svg>
