<svg width="653" height="361" viewBox="0 0 653 361" fill="none" xmlns="http://www.w3.org/2000/svg">
<path d="M18.72 99.84C28.98 99.84 35.04 93.66 35.04 86.4C35.04 79.98 31.5 76.56 26.1 74.34L20.28 71.88C16.5 70.38 13.38 69.24 13.38 66.06C13.38 63.12 15.84 61.38 19.74 61.38C23.4 61.38 26.34 62.7 29.16 65.04L33.66 59.46C30.06 55.8 24.9 53.76 19.74 53.76C10.74 53.76 4.38 59.34 4.38 66.6C4.38 73.08 8.88 76.68 13.38 78.54L19.32 81.06C23.28 82.74 25.98 83.76 25.98 87.06C25.98 90.18 23.52 92.16 18.9 92.16C15 92.16 10.8 90.18 7.62 87.24L2.52 93.36C6.84 97.5 12.78 99.84 18.72 99.84ZM56.2214 99.84C64.6214 99.84 72.3614 93.36 72.3614 82.2C72.3614 71.04 64.6214 64.56 56.2214 64.56C47.8214 64.56 40.0814 71.04 40.0814 82.2C40.0814 93.36 47.8214 99.84 56.2214 99.84ZM56.2214 92.64C51.6614 92.64 49.0814 88.56 49.0814 82.2C49.0814 75.9 51.6614 71.76 56.2214 71.76C60.7814 71.76 63.3614 75.9 63.3614 82.2C63.3614 88.56 60.7814 92.64 56.2214 92.64ZM82.2113 112.5C89.7113 112.5 93.3113 107.94 96.2513 100.02L108.191 65.4H99.7313L95.1113 81C94.3313 84.12 93.4913 87.36 92.7113 90.48H92.4113C91.4513 87.24 90.6113 84 89.5913 81L84.2513 65.4H75.3713L88.4513 98.4L87.8513 100.38C86.8913 103.32 84.9713 105.48 81.5513 105.48C80.7713 105.48 79.8113 105.24 79.2113 105.06L77.5913 111.84C78.9113 112.26 80.2313 112.5 82.2113 112.5ZM146.158 99.84C151.918 99.84 156.658 97.56 160.318 93.3L155.638 87.78C153.238 90.36 150.298 92.16 146.458 92.16C139.438 92.16 134.878 86.34 134.878 76.68C134.878 67.14 139.918 61.38 146.638 61.38C149.998 61.38 152.578 62.94 154.858 65.1L159.478 59.46C156.598 56.46 152.098 53.76 146.458 53.76C135.238 53.76 125.818 62.34 125.818 76.98C125.818 91.8 134.938 99.84 146.158 99.84ZM175.032 99.84C178.872 99.84 182.232 97.92 185.172 95.4H185.412L186.012 99H193.212V79.38C193.212 69.66 188.832 64.56 180.312 64.56C175.032 64.56 170.232 66.54 166.272 69L169.452 74.82C172.572 73.02 175.572 71.64 178.692 71.64C182.832 71.64 184.272 74.16 184.452 77.46C170.892 78.9 165.072 82.68 165.072 89.88C165.072 95.58 169.032 99.84 175.032 99.84ZM177.912 92.94C175.332 92.94 173.472 91.8 173.472 89.16C173.472 86.16 176.232 83.88 184.452 82.86V89.64C182.292 91.74 180.432 92.94 177.912 92.94ZM202.201 99H211.021V78.96C212.881 74.1 216.061 72.36 218.701 72.36C220.081 72.36 221.041 72.54 222.241 72.9L223.741 65.28C222.721 64.86 221.641 64.56 219.781 64.56C216.301 64.56 212.701 66.96 210.241 71.34H210.061L209.401 65.4H202.201V99ZM241.671 99.84C250.071 99.84 257.811 93.36 257.811 82.2C257.811 71.04 250.071 64.56 241.671 64.56C233.271 64.56 225.531 71.04 225.531 82.2C225.531 93.36 233.271 99.84 241.671 99.84ZM241.671 92.64C237.111 92.64 234.531 88.56 234.531 82.2C234.531 75.9 237.111 71.76 241.671 71.76C246.231 71.76 248.811 75.9 248.811 82.2C248.811 88.56 246.231 92.64 241.671 92.64ZM273.469 99.84C275.569 99.84 277.009 99.48 278.029 99.06L276.949 92.52C276.349 92.64 276.109 92.64 275.749 92.64C274.909 92.64 274.009 91.98 274.009 89.94V51.12H265.189V89.58C265.189 95.82 267.349 99.84 273.469 99.84ZM284.115 99H292.935V65.4H284.115V99ZM288.555 60C291.555 60 293.655 58.08 293.655 55.14C293.655 52.26 291.555 50.34 288.555 50.34C285.495 50.34 283.395 52.26 283.395 55.14C283.395 58.08 285.495 60 288.555 60ZM302.338 99H311.158V75.9C313.618 73.44 315.358 72.12 318.118 72.12C321.418 72.12 322.858 73.92 322.858 79.14V99H331.678V78.06C331.678 69.6 328.558 64.56 321.298 64.56C316.738 64.56 313.318 66.96 310.378 69.84H310.198L309.538 65.4H302.338V99ZM349.055 99.84C352.895 99.84 356.255 97.92 359.195 95.4H359.435L360.035 99H367.235V79.38C367.235 69.66 362.855 64.56 354.335 64.56C349.055 64.56 344.255 66.54 340.295 69L343.475 74.82C346.595 73.02 349.595 71.64 352.715 71.64C356.855 71.64 358.295 74.16 358.475 77.46C344.915 78.9 339.095 82.68 339.095 89.88C339.095 95.58 343.055 99.84 349.055 99.84ZM351.935 92.94C349.355 92.94 347.495 91.8 347.495 89.16C347.495 86.16 350.255 83.88 358.475 82.86V89.64C356.315 91.74 354.455 92.94 351.935 92.94ZM390.538 99H398.518V80.46C398.518 76.26 397.798 70.08 397.378 65.88H397.618L401.158 76.32L408.058 94.98H413.158L419.998 76.32L423.598 65.88H423.898C423.418 70.08 422.758 76.26 422.758 80.46V99H430.858V54.54H421.018L413.638 75.36C412.678 78.12 411.898 81.06 410.938 83.88H410.638C409.738 81.06 408.898 78.12 407.938 75.36L400.378 54.54H390.538V99ZM455.669 99.84C459.809 99.84 464.069 98.4 467.369 96.12L464.369 90.72C461.969 92.22 459.569 93.06 456.809 93.06C451.829 93.06 448.229 90.18 447.509 84.66H468.209C468.449 83.88 468.629 82.26 468.629 80.58C468.629 71.34 463.829 64.56 454.589 64.56C446.609 64.56 438.929 71.34 438.929 82.2C438.929 93.3 446.249 99.84 455.669 99.84ZM447.389 78.78C448.049 73.92 451.169 71.4 454.709 71.4C459.029 71.4 461.069 74.28 461.069 78.78H447.389ZM454.769 60L466.589 49.44L460.589 43.56L450.389 55.74L454.769 60ZM475.892 99H484.712V75.9C487.172 73.44 488.912 72.12 491.672 72.12C494.972 72.12 496.412 73.92 496.412 79.14V99H505.232V78.06C505.232 69.6 502.112 64.56 494.852 64.56C490.292 64.56 486.872 66.96 483.932 69.84H483.752L483.092 65.4H475.892V99ZM526.15 99.84C529.63 99.84 532.99 97.92 535.45 95.52H535.69L536.35 99H543.49V51.12H534.73V62.94L535.03 68.22C532.63 66 530.29 64.56 526.51 64.56C519.25 64.56 512.41 71.28 512.41 82.2C512.41 93.24 517.81 99.84 526.15 99.84ZM528.43 92.58C523.99 92.58 521.47 89.1 521.47 82.14C521.47 75.42 524.65 71.82 528.43 71.82C530.53 71.82 532.69 72.48 534.73 74.34V89.1C532.75 91.62 530.77 92.58 528.43 92.58ZM567.583 99.84C571.723 99.84 575.983 98.4 579.283 96.12L576.283 90.72C573.883 92.22 571.483 93.06 568.723 93.06C563.743 93.06 560.143 90.18 559.423 84.66H580.123C580.363 83.88 580.543 82.26 580.543 80.58C580.543 71.34 575.743 64.56 566.503 64.56C558.523 64.56 550.843 71.34 550.843 82.2C550.843 93.3 558.163 99.84 567.583 99.84ZM559.303 78.78C559.963 73.92 563.083 71.4 566.623 71.4C570.943 71.4 572.983 74.28 572.983 78.78H559.303ZM585.175 99H611.755V92.04H596.155L611.215 70.14V65.4H586.855V72.36H600.235L585.175 94.26V99ZM5.46 186H18.12C31.2 186 39.6 178.56 39.6 163.62C39.6 148.62 31.2 141.54 17.64 141.54H5.46V186ZM14.34 178.86V148.68H17.1C25.38 148.68 30.54 152.76 30.54 163.62C30.54 174.42 25.38 178.86 17.1 178.86H14.34ZM47.572 186H56.392V152.4H47.572V186ZM52.012 147C55.012 147 57.112 145.08 57.112 142.14C57.112 139.26 55.012 137.34 52.012 137.34C48.952 137.34 46.852 139.26 46.852 142.14C46.852 145.08 48.952 147 52.012 147ZM75.3947 186.84C84.1547 186.84 88.7747 182.1 88.7747 176.22C88.7747 169.98 83.8547 167.76 79.4147 166.08C75.8747 164.76 72.7547 163.86 72.7547 161.4C72.7547 159.48 74.1947 158.16 77.2547 158.16C79.7147 158.16 82.0547 159.3 84.4547 161.04L88.4147 155.7C85.6547 153.6 81.8747 151.56 77.0147 151.56C69.3347 151.56 64.4747 155.82 64.4747 161.82C64.4747 167.46 69.2147 170.04 73.4747 171.66C77.0147 173.04 80.4947 174.18 80.4947 176.7C80.4947 178.8 78.9947 180.24 75.6347 180.24C72.5147 180.24 69.6347 178.92 66.6347 176.58L62.6147 182.1C65.9747 184.86 70.8947 186.84 75.3947 186.84ZM110.142 186.84C114.282 186.84 118.542 185.4 121.842 183.12L118.842 177.72C116.442 179.22 114.042 180.06 111.282 180.06C106.302 180.06 102.702 177.18 101.982 171.66H122.682C122.922 170.88 123.102 169.26 123.102 167.58C123.102 158.34 118.302 151.56 109.062 151.56C101.082 151.56 93.4017 158.34 93.4017 169.2C93.4017 180.3 100.722 186.84 110.142 186.84ZM101.862 165.78C102.522 160.92 105.642 158.4 109.182 158.4C113.502 158.4 115.542 161.28 115.542 165.78H101.862ZM130.365 186H139.185V162.9C141.645 160.44 143.385 159.12 146.145 159.12C149.445 159.12 150.885 160.92 150.885 166.14V186H159.705V165.06C159.705 156.6 156.585 151.56 149.325 151.56C144.765 151.56 141.345 153.96 138.405 156.84H138.225L137.565 152.4H130.365V186ZM151.245 146.88C156.345 146.88 159.045 143.4 159.165 136.86L153.645 136.56C153.405 139.32 152.565 140.7 151.065 140.7C148.605 140.7 146.385 136.02 141.945 136.02C136.845 136.02 134.145 139.5 134.025 146.1L139.605 146.4C139.785 143.52 140.625 142.2 142.125 142.2C144.585 142.2 146.805 146.88 151.245 146.88ZM177.083 186.84C180.923 186.84 184.283 184.92 187.223 182.4H187.463L188.063 186H195.263V166.38C195.263 156.66 190.883 151.56 182.363 151.56C177.083 151.56 172.283 153.54 168.323 156L171.503 161.82C174.623 160.02 177.623 158.64 180.743 158.64C184.883 158.64 186.323 161.16 186.503 164.46C172.943 165.9 167.123 169.68 167.123 176.88C167.123 182.58 171.083 186.84 177.083 186.84ZM179.963 179.94C177.383 179.94 175.523 178.8 175.523 176.16C175.523 173.16 178.283 170.88 186.503 169.86V176.64C184.343 178.74 182.483 179.94 179.963 179.94ZM216.072 186.84C219.552 186.84 222.912 184.92 225.372 182.52H225.612L226.272 186H233.412V138.12H224.652V149.94L224.952 155.22C222.552 153 220.212 151.56 216.432 151.56C209.172 151.56 202.332 158.28 202.332 169.2C202.332 180.24 207.732 186.84 216.072 186.84ZM218.352 179.58C213.912 179.58 211.392 176.1 211.392 169.14C211.392 162.42 214.572 158.82 218.352 158.82C220.452 158.82 222.612 159.48 224.652 161.34V176.1C222.672 178.62 220.692 179.58 218.352 179.58ZM256.905 186.84C265.305 186.84 273.045 180.36 273.045 169.2C273.045 158.04 265.305 151.56 256.905 151.56C248.505 151.56 240.765 158.04 240.765 169.2C240.765 180.36 248.505 186.84 256.905 186.84ZM256.905 179.64C252.345 179.64 249.765 175.56 249.765 169.2C249.765 162.9 252.345 158.76 256.905 158.76C261.465 158.76 264.045 162.9 264.045 169.2C264.045 175.56 261.465 179.64 256.905 179.64ZM280.424 186H289.244V165.96C291.104 161.1 294.284 159.36 296.924 159.36C298.304 159.36 299.264 159.54 300.464 159.9L301.964 152.28C300.944 151.86 299.864 151.56 298.004 151.56C294.524 151.56 290.924 153.96 288.464 158.34H288.284L287.624 152.4H280.424V186ZM312.961 186.84C316.801 186.84 320.161 184.92 323.101 182.4H323.341L323.941 186H331.141V166.38C331.141 156.66 326.761 151.56 318.241 151.56C312.961 151.56 308.161 153.54 304.201 156L307.381 161.82C310.501 160.02 313.501 158.64 316.621 158.64C320.761 158.64 322.201 161.16 322.381 164.46C308.821 165.9 303.001 169.68 303.001 176.88C303.001 182.58 306.961 186.84 312.961 186.84ZM315.841 179.94C313.261 179.94 311.401 178.8 311.401 176.16C311.401 173.16 314.161 170.88 322.381 169.86V176.64C320.221 178.74 318.361 179.94 315.841 179.94ZM371.484 186.84C382.344 186.84 388.644 180.78 388.644 166.02V141.54H380.124V166.8C380.124 176.04 376.764 179.16 371.484 179.16C366.324 179.16 363.084 176.04 363.084 166.8V141.54H354.204V166.02C354.204 180.78 360.684 186.84 371.484 186.84ZM394.004 186H403.424L408.164 176.16C409.244 173.88 410.324 171.54 411.404 168.84H411.644C412.964 171.54 413.984 173.88 415.124 176.16L420.104 186H429.944L417.464 163.5L429.164 141.54H419.804L415.604 150.72C414.644 152.82 413.744 154.98 412.664 157.74H412.364C411.044 154.98 410.144 152.82 409.064 150.72L404.624 141.54H394.784L406.484 163.08L394.004 186ZM17.04 273.84C19.98 273.84 22.32 273.18 24.12 272.58L22.68 266.16C21.78 266.52 20.46 266.88 19.38 266.88C16.38 266.88 14.82 265.08 14.82 261.24V246.36H23.1V239.4H14.82V230.34H7.5L6.48 239.4L1.26 239.82V246.36H6V261.24C6 268.74 9.06 273.84 17.04 273.84ZM36.8091 273.84C40.6491 273.84 44.0091 271.92 46.9491 269.4H47.1891L47.7891 273H54.9891V253.38C54.9891 243.66 50.6091 238.56 42.0891 238.56C36.8091 238.56 32.0091 240.54 28.0491 243L31.2291 248.82C34.3491 247.02 37.3491 245.64 40.4691 245.64C44.6091 245.64 46.0491 248.16 46.2291 251.46C32.6691 252.9 26.8491 256.68 26.8491 263.88C26.8491 269.58 30.8091 273.84 36.8091 273.84ZM39.6891 266.94C37.1091 266.94 35.2491 265.8 35.2491 263.16C35.2491 260.16 38.0091 257.88 46.2291 256.86V263.64C44.0691 265.74 42.2091 266.94 39.6891 266.94ZM63.9783 273H72.7983V249.9C75.1383 247.38 77.2983 246.12 79.2183 246.12C82.3983 246.12 83.9583 247.92 83.9583 253.14V273H92.7183V249.9C95.1183 247.38 97.2783 246.12 99.1983 246.12C102.378 246.12 103.878 247.92 103.878 253.14V273H112.698V252.06C112.698 243.6 109.398 238.56 102.258 238.56C97.8783 238.56 94.6383 241.2 91.5783 244.44C89.9583 240.72 87.1383 238.56 82.3383 238.56C77.9583 238.56 74.8383 240.96 72.0183 243.9H71.8383L71.1783 239.4H63.9783V273ZM138.67 273.84C146.05 273.84 152.95 267.18 152.95 255.6C152.95 245.34 147.97 238.56 139.69 238.56C136.39 238.56 133.03 240.18 130.39 242.58L130.63 237.18V225.12H121.81V273H128.71L129.49 269.46H129.73C132.43 272.28 135.67 273.84 138.67 273.84ZM136.69 266.58C134.89 266.58 132.73 265.92 130.63 264.06V249.3C132.91 246.96 134.95 245.82 137.23 245.82C141.85 245.82 143.89 249.36 143.89 255.78C143.89 263.1 140.77 266.58 136.69 266.58ZM160.424 273H169.244V239.4H160.424V273ZM164.864 234C167.864 234 169.964 232.08 169.964 229.14C169.964 226.26 167.864 224.34 164.864 224.34C161.804 224.34 159.704 226.26 159.704 229.14C159.704 232.08 161.804 234 164.864 234ZM193.286 273.84C197.426 273.84 201.686 272.4 204.986 270.12L201.986 264.72C199.586 266.22 197.186 267.06 194.426 267.06C189.446 267.06 185.846 264.18 185.126 258.66H205.826C206.066 257.88 206.246 256.26 206.246 254.58C206.246 245.34 201.446 238.56 192.206 238.56C184.226 238.56 176.546 245.34 176.546 256.2C176.546 267.3 183.866 273.84 193.286 273.84ZM185.006 252.78C185.666 247.92 188.786 245.4 192.326 245.4C196.646 245.4 198.686 248.28 198.686 252.78H185.006ZM192.386 234L204.206 223.44L198.206 217.56L188.006 229.74L192.386 234ZM213.51 273H222.33V249.9C224.79 247.44 226.53 246.12 229.29 246.12C232.59 246.12 234.03 247.92 234.03 253.14V273H242.85V252.06C242.85 243.6 239.73 238.56 232.47 238.56C227.91 238.56 224.49 240.96 221.55 243.84H221.37L220.71 239.4H213.51V273ZM279.821 273.84C283.541 273.84 287.621 272.58 290.861 269.76L287.321 263.94C285.461 265.5 283.181 266.64 280.781 266.64C275.981 266.64 272.441 262.56 272.441 256.2C272.441 249.9 275.921 245.76 281.081 245.76C282.941 245.76 284.501 246.54 286.181 247.98L290.381 242.28C287.921 240.18 284.741 238.56 280.601 238.56C271.481 238.56 263.441 245.04 263.441 256.2C263.441 267.36 270.521 273.84 279.821 273.84ZM309.405 273.84C317.805 273.84 325.545 267.36 325.545 256.2C325.545 245.04 317.805 238.56 309.405 238.56C301.005 238.56 293.265 245.04 293.265 256.2C293.265 267.36 301.005 273.84 309.405 273.84ZM309.405 266.64C304.845 266.64 302.265 262.56 302.265 256.2C302.265 249.9 304.845 245.76 309.405 245.76C313.965 245.76 316.545 249.9 316.545 256.2C316.545 262.56 313.965 266.64 309.405 266.64ZM332.924 273H341.744V249.9C344.204 247.44 345.944 246.12 348.704 246.12C352.004 246.12 353.444 247.92 353.444 253.14V273H362.264V252.06C362.264 243.6 359.144 238.56 351.884 238.56C347.324 238.56 343.904 240.96 340.964 243.84H340.784L340.124 239.4H332.924V273ZM385.401 273.84C393.801 273.84 401.541 267.36 401.541 256.2C401.541 245.04 393.801 238.56 385.401 238.56C377.001 238.56 369.261 245.04 369.261 256.2C369.261 267.36 377.001 273.84 385.401 273.84ZM385.401 266.64C380.841 266.64 378.261 262.56 378.261 256.2C378.261 249.9 380.841 245.76 385.401 245.76C389.961 245.76 392.541 249.9 392.541 256.2C392.541 262.56 389.961 266.64 385.401 266.64ZM423.2 273.84C426.92 273.84 431 272.58 434.24 269.76L430.7 263.94C428.84 265.5 426.56 266.64 424.16 266.64C419.36 266.64 415.82 262.56 415.82 256.2C415.82 249.9 419.3 245.76 424.46 245.76C426.32 245.76 427.88 246.54 429.56 247.98L433.76 242.28C431.3 240.18 428.12 238.56 423.98 238.56C414.86 238.56 406.82 245.04 406.82 256.2C406.82 267.36 413.9 273.84 423.2 273.84ZM440.56 273H449.38V239.4H440.56V273ZM445 234C448 234 450.1 232.08 450.1 229.14C450.1 226.26 448 224.34 445 224.34C441.94 224.34 439.84 226.26 439.84 229.14C439.84 232.08 441.94 234 445 234ZM470.603 273.84C474.083 273.84 477.443 271.92 479.903 269.52H480.143L480.803 273H487.943V225.12H479.183V236.94L479.483 242.22C477.083 240 474.743 238.56 470.963 238.56C463.703 238.56 456.863 245.28 456.863 256.2C456.863 267.24 462.263 273.84 470.603 273.84ZM472.883 266.58C468.443 266.58 465.923 263.1 465.923 256.14C465.923 249.42 469.103 245.82 472.883 245.82C474.983 245.82 477.143 246.48 479.183 248.34V263.1C477.203 265.62 475.223 266.58 472.883 266.58ZM505.676 273.84C509.516 273.84 512.876 271.92 515.816 269.4H516.056L516.656 273H523.856V253.38C523.856 243.66 519.476 238.56 510.956 238.56C505.676 238.56 500.876 240.54 496.916 243L500.096 248.82C503.216 247.02 506.216 245.64 509.336 245.64C513.476 245.64 514.916 248.16 515.096 251.46C501.536 252.9 495.716 256.68 495.716 263.88C495.716 269.58 499.676 273.84 505.676 273.84ZM508.556 266.94C505.976 266.94 504.116 265.8 504.116 263.16C504.116 260.16 506.876 257.88 515.096 256.86V263.64C512.936 265.74 511.076 266.94 508.556 266.94ZM19.02 360.84C22.74 360.84 26.82 359.58 30.06 356.76L26.52 350.94C24.66 352.5 22.38 353.64 19.98 353.64C15.18 353.64 11.64 349.56 11.64 343.2C11.64 336.9 15.12 332.76 20.28 332.76C22.14 332.76 23.7 333.54 25.38 334.98L29.58 329.28C27.12 327.18 23.94 325.56 19.8 325.56C10.68 325.56 2.64 332.04 2.64 343.2C2.64 354.36 9.72 360.84 19.02 360.84ZM48.6042 360.84C57.0042 360.84 64.7442 354.36 64.7442 343.2C64.7442 332.04 57.0042 325.56 48.6042 325.56C40.2042 325.56 32.4642 332.04 32.4642 343.2C32.4642 354.36 40.2042 360.84 48.6042 360.84ZM48.6042 353.64C44.0442 353.64 41.4642 349.56 41.4642 343.2C41.4642 336.9 44.0442 332.76 48.6042 332.76C53.1642 332.76 55.7442 336.9 55.7442 343.2C55.7442 349.56 53.1642 353.64 48.6042 353.64ZM72.1228 360H80.9428V336.9C83.2828 334.38 85.4428 333.12 87.3628 333.12C90.5428 333.12 92.1028 334.92 92.1028 340.14V360H100.863V336.9C103.263 334.38 105.423 333.12 107.343 333.12C110.523 333.12 112.023 334.92 112.023 340.14V360H120.843V339.06C120.843 330.6 117.543 325.56 110.403 325.56C106.023 325.56 102.783 328.2 99.7228 331.44C98.1028 327.72 95.2828 325.56 90.4828 325.56C86.1028 325.56 82.9828 327.96 80.1628 330.9H79.9828L79.3228 326.4H72.1228V360ZM143.995 360.84C152.395 360.84 160.135 354.36 160.135 343.2C160.135 332.04 152.395 325.56 143.995 325.56C135.595 325.56 127.855 332.04 127.855 343.2C127.855 354.36 135.595 360.84 143.995 360.84ZM143.995 353.64C139.435 353.64 136.855 349.56 136.855 343.2C136.855 336.9 139.435 332.76 143.995 332.76C148.555 332.76 151.135 336.9 151.135 343.2C151.135 349.56 148.555 353.64 143.995 353.64ZM181.827 360H190.227V342.18C190.227 337.08 189.567 331.5 189.147 326.7H189.447L193.947 336.24L206.787 360H215.787V315.54H207.387V333.3C207.387 338.34 208.107 344.22 208.527 348.84H208.227L203.787 339.24L190.887 315.54H181.827V360ZM226.049 360H234.869V326.4H226.049V360ZM230.489 321C233.489 321 235.589 319.08 235.589 316.14C235.589 313.26 233.489 311.34 230.489 311.34C227.429 311.34 225.329 313.26 225.329 316.14C225.329 319.08 227.429 321 230.489 321ZM244.271 360H253.091V336.9C255.551 334.44 257.291 333.12 260.051 333.12C263.351 333.12 264.791 334.92 264.791 340.14V360H273.611V339.06C273.611 330.6 270.491 325.56 263.231 325.56C258.671 325.56 255.251 327.96 252.311 330.84H252.131L251.471 326.4H244.271V360ZM290.989 360.84C294.829 360.84 298.189 358.92 301.129 356.4H301.369L301.969 360H309.169V340.38C309.169 330.66 304.789 325.56 296.269 325.56C290.989 325.56 286.189 327.54 282.229 330L285.409 335.82C288.529 334.02 291.529 332.64 294.649 332.64C298.789 332.64 300.229 335.16 300.409 338.46C286.849 339.9 281.029 343.68 281.029 350.88C281.029 356.58 284.989 360.84 290.989 360.84ZM293.869 353.94C291.289 353.94 289.429 352.8 289.429 350.16C289.429 347.16 292.189 344.88 300.409 343.86V350.64C298.249 352.74 296.389 353.94 293.869 353.94Z" fill="white"/>
<path d="M1.456 18H5.68C8.288 18 10.272 16.896 10.272 14.512C10.272 12.912 9.328 12.016 8.048 11.712V11.632C9.056 11.28 9.664 10.16 9.664 9.072C9.664 6.864 7.808 6.144 5.376 6.144H1.456V18ZM3.824 10.976V7.968H5.232C6.656 7.968 7.36 8.384 7.36 9.424C7.36 10.368 6.704 10.976 5.2 10.976H3.824ZM3.824 16.176V12.72H5.472C7.104 12.72 7.968 13.216 7.968 14.368C7.968 15.6 7.088 16.176 5.472 16.176H3.824ZM15.9716 18H18.3396V6.144H15.9716V18ZM24.8779 18H32.3179V16.016H27.2459V12.848H31.4059V10.864H27.2459V8.128H32.1419V6.144H24.8779V18ZM38.3466 18H40.5866V13.248C40.5866 11.888 40.4106 10.4 40.2986 9.12H40.3786L41.5786 11.664L45.0026 18H47.4026V6.144H45.1626V10.88C45.1626 12.224 45.3546 13.792 45.4666 15.024H45.3866L44.2026 12.464L40.7626 6.144H38.3466V18ZM56.036 18H58.868L62.484 6.144H60.084L58.548 11.92C58.18 13.232 57.924 14.416 57.54 15.744H57.46C57.092 14.416 56.836 13.232 56.468 11.92L54.9 6.144H52.42L56.036 18ZM67.4716 18H74.9116V16.016H69.8396V12.848H73.9996V10.864H69.8396V8.128H74.7356V6.144H67.4716V18ZM80.9404 18H83.1804V13.248C83.1804 11.888 83.0044 10.4 82.8924 9.12H82.9724L84.1724 11.664L87.5964 18H89.9964V6.144H87.7564V10.88C87.7564 12.224 87.9484 13.792 88.0604 15.024H87.9804L86.7964 12.464L83.3564 6.144H80.9404V18ZM96.5498 18H98.9178V6.144H96.5498V18ZM105.456 18H108.832C112.32 18 114.56 16.016 114.56 12.032C114.56 8.032 112.32 6.144 108.704 6.144H105.456V18ZM107.824 16.096V8.048H108.56C110.768 8.048 112.144 9.136 112.144 12.032C112.144 14.912 110.768 16.096 108.56 16.096H107.824ZM125.207 18.224C128.343 18.224 130.503 15.872 130.503 12.032C130.503 8.192 128.343 5.936 125.207 5.936C122.071 5.936 119.911 8.176 119.911 12.032C119.911 15.872 122.071 18.224 125.207 18.224ZM125.207 16.176C123.447 16.176 122.327 14.56 122.327 12.032C122.327 9.488 123.447 7.968 125.207 7.968C126.967 7.968 128.087 9.488 128.087 12.032C128.087 14.56 126.967 16.176 125.207 16.176Z" fill="#8A8A8A"/>
</svg>
