<svg width="286" height="296" viewBox="0 0 286 296" fill="none" xmlns="http://www.w3.org/2000/svg">
<path d="M6.288 18.224C7.824 18.224 9.088 17.616 10.064 16.48L8.816 15.008C8.176 15.696 7.392 16.176 6.368 16.176C4.496 16.176 3.28 14.624 3.28 12.048C3.28 9.504 4.624 7.968 6.416 7.968C7.312 7.968 8 8.384 8.608 8.96L9.84 7.456C9.072 6.656 7.872 5.936 6.368 5.936C3.376 5.936 0.864 8.224 0.864 12.128C0.864 16.08 3.296 18.224 6.288 18.224ZM20.3006 18.224C23.4366 18.224 25.5966 15.872 25.5966 12.032C25.5966 8.192 23.4366 5.936 20.3006 5.936C17.1646 5.936 15.0046 8.176 15.0046 12.032C15.0046 15.872 17.1646 18.224 20.3006 18.224ZM20.3006 16.176C18.5406 16.176 17.4206 14.56 17.4206 12.032C17.4206 9.488 18.5406 7.968 20.3006 7.968C22.0606 7.968 23.1806 9.488 23.1806 12.032C23.1806 14.56 22.0606 16.176 20.3006 16.176ZM31.5341 18H33.7741V13.248C33.7741 11.888 33.5981 10.4 33.4861 9.12H33.5661L34.7661 11.664L38.1901 18H40.5901V6.144H38.3501V10.88C38.3501 12.224 38.5421 13.792 38.6541 15.024H38.5741L37.3901 12.464L33.9501 6.144H31.5341V18ZM51.9755 18.224C53.5115 18.224 54.7755 17.616 55.7515 16.48L54.5035 15.008C53.8635 15.696 53.0795 16.176 52.0555 16.176C50.1835 16.176 48.9675 14.624 48.9675 12.048C48.9675 9.504 50.3115 7.968 52.1035 7.968C52.9995 7.968 53.6875 8.384 54.2955 8.96L55.5275 7.456C54.7595 6.656 53.5595 5.936 52.0555 5.936C49.0635 5.936 46.5515 8.224 46.5515 12.128C46.5515 16.08 48.9835 18.224 51.9755 18.224ZM61.2841 18H68.4681V16.016H63.6521V6.144H61.2841V18ZM78.7031 18.224C81.5991 18.224 83.2791 16.608 83.2791 12.672V6.144H81.0071V12.88C81.0071 15.344 80.1111 16.176 78.7031 16.176C77.3271 16.176 76.4631 15.344 76.4631 12.88V6.144H74.0951V12.672C74.0951 16.608 75.8231 18.224 78.7031 18.224ZM93.2889 18.224C96.0249 18.224 97.6409 16.576 97.6409 14.64C97.6409 12.928 96.6969 12.016 95.2569 11.424L93.7049 10.768C92.6969 10.368 91.8649 10.064 91.8649 9.216C91.8649 8.432 92.5209 7.968 93.5609 7.968C94.5369 7.968 95.3209 8.32 96.0729 8.944L97.2729 7.456C96.3129 6.48 94.9369 5.936 93.5609 5.936C91.1609 5.936 89.4649 7.424 89.4649 9.36C89.4649 11.088 90.6649 12.048 91.8649 12.544L93.4489 13.216C94.5049 13.664 95.2249 13.936 95.2249 14.816C95.2249 15.648 94.5689 16.176 93.3369 16.176C92.2969 16.176 91.1769 15.648 90.3289 14.864L88.9689 16.496C90.1209 17.6 91.7049 18.224 93.2889 18.224ZM103.362 18H105.73V6.144H103.362V18ZM116.973 18.224C120.109 18.224 122.269 15.872 122.269 12.032C122.269 8.192 120.109 5.936 116.973 5.936C113.837 5.936 111.677 8.176 111.677 12.032C111.677 15.872 113.837 18.224 116.973 18.224ZM116.973 16.176C115.213 16.176 114.093 14.56 114.093 12.032C114.093 9.488 115.213 7.968 116.973 7.968C118.733 7.968 119.852 9.488 119.852 12.032C119.852 14.56 118.733 16.176 116.973 16.176ZM128.206 18H130.446V13.248C130.446 11.888 130.27 10.4 130.158 9.12H130.238L131.438 11.664L134.862 18H137.262V6.144H135.022V10.88C135.022 12.224 135.214 13.792 135.326 15.024H135.246L134.062 12.464L130.622 6.144H128.206V18ZM143.815 18H151.255V16.016H146.183V12.848H150.343V10.864H146.183V8.128H151.079V6.144H143.815V18ZM160.82 18.224C163.556 18.224 165.172 16.576 165.172 14.64C165.172 12.928 164.228 12.016 162.788 11.424L161.236 10.768C160.228 10.368 159.396 10.064 159.396 9.216C159.396 8.432 160.052 7.968 161.092 7.968C162.068 7.968 162.852 8.32 163.604 8.944L164.804 7.456C163.844 6.48 162.468 5.936 161.092 5.936C158.692 5.936 156.996 7.424 156.996 9.36C156.996 11.088 158.196 12.048 159.396 12.544L160.98 13.216C162.036 13.664 162.756 13.936 162.756 14.816C162.756 15.648 162.1 16.176 160.868 16.176C159.828 16.176 158.708 15.648 157.86 14.864L156.5 16.496C157.652 17.6 159.236 18.224 160.82 18.224Z" fill="#262626"/>
<path d="M24.3133 104H29.6823V102.973H25.5223V94.458H24.3133V104ZM32.8929 104.169C33.7639 104.169 34.5569 103.714 35.2329 103.155H35.2719L35.3759 104H36.3509V99.658C36.3509 97.916 35.6229 96.759 33.9069 96.759C32.7759 96.759 31.7749 97.266 31.1249 97.682L31.5929 98.501C32.1519 98.124 32.8929 97.747 33.7119 97.747C34.8689 97.747 35.1679 98.618 35.1679 99.528C32.1649 99.866 30.8259 100.633 30.8259 102.167C30.8259 103.441 31.7099 104.169 32.8929 104.169ZM33.2309 103.22C32.5289 103.22 31.9829 102.895 31.9829 102.089C31.9829 101.179 32.7889 100.594 35.1679 100.308V102.284C34.4789 102.895 33.9199 103.22 33.2309 103.22ZM40.4518 104.169C42.1158 104.169 43.0258 103.22 43.0258 102.076C43.0258 100.737 41.8948 100.321 40.8678 99.931C40.0748 99.632 39.3468 99.385 39.3468 98.709C39.3468 98.163 39.7628 97.695 40.6598 97.695C41.2838 97.695 41.7778 97.955 42.2588 98.319L42.8308 97.552C42.2848 97.123 41.5178 96.759 40.6468 96.759C39.1128 96.759 38.2028 97.643 38.2028 98.761C38.2028 99.957 39.2818 100.438 40.2698 100.802C41.0498 101.101 41.8818 101.413 41.8818 102.141C41.8818 102.752 41.4268 103.246 40.4908 103.246C39.6458 103.246 39.0088 102.908 38.3978 102.414L37.8128 103.194C38.4888 103.753 39.4508 104.169 40.4518 104.169ZM49.648 104.169C50.623 104.169 51.325 103.662 51.988 102.895H52.027L52.118 104H53.106V96.941H51.923V101.946C51.247 102.791 50.74 103.142 50.012 103.142C49.076 103.142 48.686 102.583 48.686 101.27V96.941H47.503V101.413C47.503 103.207 48.166 104.169 49.648 104.169ZM57.7135 104.169C58.1425 104.169 58.6105 104.039 59.0135 103.909L58.7795 103.025C58.5455 103.116 58.2205 103.207 57.9735 103.207C57.1545 103.207 56.8815 102.713 56.8815 101.842V97.903H58.7925V96.941H56.8815V94.952H55.8935L55.7505 96.941L54.6455 97.006V97.903H55.6985V101.816C55.6985 103.22 56.2055 104.169 57.7135 104.169ZM60.3909 104H61.5739V96.941H60.3909V104ZM60.9889 95.485C61.4569 95.485 61.7819 95.173 61.7819 94.692C61.7819 94.237 61.4569 93.925 60.9889 93.925C60.5209 93.925 60.1959 94.237 60.1959 94.692C60.1959 95.173 60.5209 95.485 60.9889 95.485ZM65.219 104.169C65.544 104.169 65.739 104.13 65.908 104.065L65.739 103.155C65.609 103.181 65.557 103.181 65.492 103.181C65.31 103.181 65.154 103.038 65.154 102.674V93.652H63.971V102.596C63.971 103.597 64.335 104.169 65.219 104.169ZM67.678 104H68.861V96.941H67.678V104ZM68.276 95.485C68.744 95.485 69.069 95.173 69.069 94.692C69.069 94.237 68.744 93.925 68.276 93.925C67.808 93.925 67.483 94.237 67.483 94.692C67.483 95.173 67.808 95.485 68.276 95.485ZM73.6631 104.169C74.5081 104.169 75.2491 103.714 75.8081 103.168H75.8471L75.9511 104H76.9131V93.652H75.7431V96.369L75.7951 97.591C75.1711 97.071 74.6381 96.759 73.8061 96.759C72.1941 96.759 70.7511 98.189 70.7511 100.477C70.7511 102.83 71.8951 104.169 73.6631 104.169ZM73.9231 103.181C72.6751 103.181 71.9731 102.167 71.9731 100.464C71.9731 98.852 72.8701 97.76 74.0141 97.76C74.5991 97.76 75.1321 97.968 75.7431 98.501V102.206C75.1451 102.856 74.5731 103.181 73.9231 103.181ZM80.9446 104.169C81.8156 104.169 82.6086 103.714 83.2846 103.155H83.3236L83.4276 104H84.4026V99.658C84.4026 97.916 83.6746 96.759 81.9586 96.759C80.8276 96.759 79.8266 97.266 79.1766 97.682L79.6446 98.501C80.2036 98.124 80.9446 97.747 81.7636 97.747C82.9206 97.747 83.2196 98.618 83.2196 99.528C80.2166 99.866 78.8776 100.633 78.8776 102.167C78.8776 103.441 79.7616 104.169 80.9446 104.169ZM81.2826 103.22C80.5806 103.22 80.0346 102.895 80.0346 102.089C80.0346 101.179 80.8406 100.594 83.2196 100.308V102.284C82.5306 102.895 81.9716 103.22 81.2826 103.22ZM89.0625 104.169C89.9075 104.169 90.6485 103.714 91.2075 103.168H91.2465L91.3505 104H92.3125V93.652H91.1425V96.369L91.1945 97.591C90.5705 97.071 90.0375 96.759 89.2055 96.759C87.5935 96.759 86.1505 98.189 86.1505 100.477C86.1505 102.83 87.2945 104.169 89.0625 104.169ZM89.3225 103.181C88.0745 103.181 87.3725 102.167 87.3725 100.464C87.3725 98.852 88.2695 97.76 89.4135 97.76C89.9985 97.76 90.5315 97.968 91.1425 98.501V102.206C90.5445 102.856 89.9725 103.181 89.3225 103.181ZM97.566 104.169C98.528 104.169 99.282 103.844 99.906 103.441L99.477 102.661C98.957 103.012 98.398 103.22 97.709 103.22C96.37 103.22 95.447 102.258 95.369 100.75H100.127C100.153 100.581 100.179 100.334 100.179 100.074C100.179 98.059 99.165 96.759 97.371 96.759C95.733 96.759 94.186 98.189 94.186 100.477C94.186 102.804 95.694 104.169 97.566 104.169ZM95.356 99.892C95.499 98.514 96.383 97.708 97.384 97.708C98.489 97.708 99.139 98.475 99.139 99.892H95.356ZM103.763 104.169C105.427 104.169 106.337 103.22 106.337 102.076C106.337 100.737 105.206 100.321 104.179 99.931C103.386 99.632 102.658 99.385 102.658 98.709C102.658 98.163 103.074 97.695 103.971 97.695C104.595 97.695 105.089 97.955 105.57 98.319L106.142 97.552C105.596 97.123 104.829 96.759 103.958 96.759C102.424 96.759 101.514 97.643 101.514 98.761C101.514 99.957 102.593 100.438 103.581 100.802C104.361 101.101 105.193 101.413 105.193 102.141C105.193 102.752 104.738 103.246 103.802 103.246C102.957 103.246 102.32 102.908 101.709 102.414L101.124 103.194C101.8 103.753 102.762 104.169 103.763 104.169ZM7.13732 123.169C8.09932 123.169 8.85332 122.844 9.47732 122.441L9.04832 121.661C8.52832 122.012 7.96932 122.22 7.28032 122.22C5.94132 122.22 5.01832 121.258 4.94032 119.75H9.69832C9.72432 119.581 9.75032 119.334 9.75032 119.074C9.75032 117.059 8.73632 115.759 6.94232 115.759C5.30432 115.759 3.75732 117.189 3.75732 119.477C3.75732 121.804 5.26532 123.169 7.13732 123.169ZM4.92732 118.892C5.07032 117.514 5.95432 116.708 6.95532 116.708C8.06032 116.708 8.71032 117.475 8.71032 118.892H4.92732ZM14.2706 123.169C15.1156 123.169 15.9216 122.844 16.5586 122.272L16.0386 121.479C15.5966 121.882 15.0246 122.181 14.3746 122.181C13.0746 122.181 12.1906 121.102 12.1906 119.477C12.1906 117.852 13.1266 116.747 14.4136 116.747C14.9726 116.747 15.4016 117.007 15.8176 117.371L16.4286 116.591C15.9216 116.149 15.2846 115.759 14.3616 115.759C12.5546 115.759 10.9556 117.124 10.9556 119.477C10.9556 121.817 12.3986 123.169 14.2706 123.169ZM20.5284 123.169C22.2574 123.169 23.8044 121.817 23.8044 119.477C23.8044 117.124 22.2574 115.759 20.5284 115.759C18.7994 115.759 17.2524 117.124 17.2524 119.477C17.2524 121.817 18.7994 123.169 20.5284 123.169ZM20.5284 122.181C19.3064 122.181 18.4874 121.102 18.4874 119.477C18.4874 117.852 19.3064 116.747 20.5284 116.747C21.7504 116.747 22.5824 117.852 22.5824 119.477C22.5824 121.102 21.7504 122.181 20.5284 122.181ZM25.6692 123H26.8522V117.878C27.5672 117.163 28.0612 116.799 28.7892 116.799C29.7252 116.799 30.1282 117.358 30.1282 118.684V123H31.3112V118.528C31.3112 116.721 30.6352 115.759 29.1532 115.759C28.1912 115.759 27.4632 116.292 26.7872 116.955H26.7482L26.6442 115.941H25.6692V123ZM36.3595 123.169C38.0885 123.169 39.6355 121.817 39.6355 119.477C39.6355 117.124 38.0885 115.759 36.3595 115.759C34.6305 115.759 33.0835 117.124 33.0835 119.477C33.0835 121.817 34.6305 123.169 36.3595 123.169ZM36.3595 122.181C35.1375 122.181 34.3185 121.102 34.3185 119.477C34.3185 117.852 35.1375 116.747 36.3595 116.747C37.5815 116.747 38.4135 117.852 38.4135 119.477C38.4135 121.102 37.5815 122.181 36.3595 122.181ZM36.1515 114.667L38.4265 112.457L37.5945 111.664L35.5405 114.082L36.1515 114.667ZM41.5003 123H42.6833V117.878C43.3333 117.15 43.9313 116.799 44.4643 116.799C45.3613 116.799 45.7773 117.358 45.7773 118.684V123H46.9603V117.878C47.6233 117.15 48.1953 116.799 48.7413 116.799C49.6383 116.799 50.0543 117.358 50.0543 118.684V123H51.2373V118.528C51.2373 116.721 50.5483 115.759 49.0923 115.759C48.2343 115.759 47.4933 116.318 46.7653 117.111C46.4793 116.279 45.8943 115.759 44.8153 115.759C43.9703 115.759 43.2293 116.292 42.6183 116.968H42.5793L42.4753 115.941H41.5003V123ZM53.5354 123H54.7184V115.941H53.5354V123ZM54.1334 114.485C54.6014 114.485 54.9264 114.173 54.9264 113.692C54.9264 113.237 54.6014 112.925 54.1334 112.925C53.6654 112.925 53.3404 113.237 53.3404 113.692C53.3404 114.173 53.6654 114.485 54.1334 114.485ZM59.8975 123.169C60.7425 123.169 61.5485 122.844 62.1855 122.272L61.6655 121.479C61.2235 121.882 60.6515 122.181 60.0015 122.181C58.7015 122.181 57.8175 121.102 57.8175 119.477C57.8175 117.852 58.7535 116.747 60.0405 116.747C60.5995 116.747 61.0285 117.007 61.4445 117.371L62.0555 116.591C61.5485 116.149 60.9115 115.759 59.9885 115.759C58.1815 115.759 56.5825 117.124 56.5825 119.477C56.5825 121.817 58.0255 123.169 59.8975 123.169ZM65.2151 123.169C66.0861 123.169 66.8791 122.714 67.5551 122.155H67.5941L67.6981 123H68.6731V118.658C68.6731 116.916 67.9451 115.759 66.2291 115.759C65.0981 115.759 64.0971 116.266 63.4471 116.682L63.9151 117.501C64.4741 117.124 65.2151 116.747 66.0341 116.747C67.1911 116.747 67.4901 117.618 67.4901 118.528C64.4871 118.866 63.1481 119.633 63.1481 121.167C63.1481 122.441 64.0321 123.169 65.2151 123.169ZM65.5531 122.22C64.8511 122.22 64.3051 121.895 64.3051 121.089C64.3051 120.179 65.1111 119.594 67.4901 119.308V121.284C66.8011 121.895 66.2421 122.22 65.5531 122.22ZM72.774 123.169C74.438 123.169 75.348 122.22 75.348 121.076C75.348 119.737 74.217 119.321 73.19 118.931C72.397 118.632 71.669 118.385 71.669 117.709C71.669 117.163 72.085 116.695 72.982 116.695C73.606 116.695 74.1 116.955 74.581 117.319L75.153 116.552C74.607 116.123 73.84 115.759 72.969 115.759C71.435 115.759 70.525 116.643 70.525 117.761C70.525 118.957 71.604 119.438 72.592 119.802C73.372 120.101 74.204 120.413 74.204 121.141C74.204 121.752 73.749 122.246 72.813 122.246C71.968 122.246 71.331 121.908 70.72 121.414L70.135 122.194C70.811 122.753 71.773 123.169 72.774 123.169ZM81.7623 123.169C83.4263 123.169 84.3363 122.22 84.3363 121.076C84.3363 119.737 83.2053 119.321 82.1783 118.931C81.3853 118.632 80.6573 118.385 80.6573 117.709C80.6573 117.163 81.0733 116.695 81.9703 116.695C82.5943 116.695 83.0883 116.955 83.5693 117.319L84.1413 116.552C83.5953 116.123 82.8283 115.759 81.9573 115.759C80.4233 115.759 79.5133 116.643 79.5133 117.761C79.5133 118.957 80.5923 119.438 81.5803 119.802C82.3603 120.101 83.1923 120.413 83.1923 121.141C83.1923 121.752 82.7373 122.246 81.8013 122.246C80.9563 122.246 80.3193 121.908 79.7083 121.414L79.1233 122.194C79.7993 122.753 80.7613 123.169 81.7623 123.169ZM88.7404 123.169C90.4694 123.169 92.0164 121.817 92.0164 119.477C92.0164 117.124 90.4694 115.759 88.7404 115.759C87.0114 115.759 85.4644 117.124 85.4644 119.477C85.4644 121.817 87.0114 123.169 88.7404 123.169ZM88.7404 122.181C87.5184 122.181 86.6994 121.102 86.6994 119.477C86.6994 117.852 87.5184 116.747 88.7404 116.747C89.9624 116.747 90.7944 117.852 90.7944 119.477C90.7944 121.102 89.9624 122.181 88.7404 122.181ZM93.8811 123H95.0641V117.878C95.7791 117.163 96.2731 116.799 97.0011 116.799C97.9371 116.799 98.3401 117.358 98.3401 118.684V123H99.5231V118.528C99.5231 116.721 98.8471 115.759 97.3651 115.759C96.4031 115.759 95.6751 116.292 94.9991 116.955H94.9601L94.8561 115.941H93.8811V123ZM106.79 123.169C107.765 123.169 108.467 122.662 109.13 121.895H109.169L109.26 123H110.248V115.941H109.065V120.946C108.389 121.791 107.882 122.142 107.154 122.142C106.218 122.142 105.828 121.583 105.828 120.27V115.941H104.645V120.413C104.645 122.207 105.308 123.169 106.79 123.169ZM112.632 123H113.815V117.878C114.53 117.163 115.024 116.799 115.752 116.799C116.688 116.799 117.091 117.358 117.091 118.684V123H118.274V118.528C118.274 116.721 117.598 115.759 116.116 115.759C115.154 115.759 114.426 116.292 113.75 116.955H113.711L113.607 115.941H112.632V123ZM122.204 123.169C123.075 123.169 123.868 122.714 124.544 122.155H124.583L124.687 123H125.662V118.658C125.662 116.916 124.934 115.759 123.218 115.759C122.087 115.759 121.086 116.266 120.436 116.682L120.904 117.501C121.463 117.124 122.204 116.747 123.023 116.747C124.18 116.747 124.479 117.618 124.479 118.528C121.476 118.866 120.137 119.633 120.137 121.167C120.137 122.441 121.021 123.169 122.204 123.169ZM122.542 122.22C121.84 122.22 121.294 121.895 121.294 121.089C121.294 120.179 122.1 119.594 124.479 119.308V121.284C123.79 121.895 123.231 122.22 122.542 122.22ZM11.2519 142H12.4349V135.903H13.9299V134.941H12.4349V133.823C12.4349 132.913 12.7599 132.432 13.4359 132.432C13.6829 132.432 13.9689 132.497 14.2289 132.614L14.4889 131.717C14.1639 131.574 13.7349 131.483 13.3059 131.483C11.9019 131.483 11.2519 132.38 11.2519 133.81V134.941L10.2899 135.006V135.903H11.2519V142ZM17.3385 142.169C18.3135 142.169 19.0155 141.662 19.6785 140.895H19.7175L19.8085 142H20.7965V134.941H19.6135V139.946C18.9375 140.791 18.4305 141.142 17.7025 141.142C16.7665 141.142 16.3765 140.583 16.3765 139.27V134.941H15.1935V139.413C15.1935 141.207 15.8565 142.169 17.3385 142.169ZM26.0279 142.169C26.9899 142.169 27.7439 141.844 28.3679 141.441L27.9389 140.661C27.4189 141.012 26.8599 141.22 26.1709 141.22C24.8319 141.22 23.9089 140.258 23.8309 138.75H28.5889C28.6149 138.581 28.6409 138.334 28.6409 138.074C28.6409 136.059 27.6269 134.759 25.8329 134.759C24.1949 134.759 22.6479 136.189 22.6479 138.477C22.6479 140.804 24.1559 142.169 26.0279 142.169ZM23.8179 137.892C23.9609 136.514 24.8449 135.708 25.8459 135.708C26.9509 135.708 27.6009 136.475 27.6009 137.892H23.8179ZM30.3792 142H31.5622V137.463C32.0302 136.254 32.7582 135.838 33.3432 135.838C33.6292 135.838 33.7982 135.864 34.0322 135.955L34.2532 134.915C34.0322 134.798 33.8112 134.759 33.4992 134.759C32.7062 134.759 31.9912 135.331 31.4972 136.228H31.4582L31.3542 134.941H30.3792V142ZM37.6422 142.169C38.0712 142.169 38.5392 142.039 38.9422 141.909L38.7082 141.025C38.4742 141.116 38.1492 141.207 37.9022 141.207C37.0832 141.207 36.8102 140.713 36.8102 139.842V135.903H38.7212V134.941H36.8102V132.952H35.8222L35.6792 134.941L34.5742 135.006V135.903H35.6272V139.816C35.6272 141.22 36.1342 142.169 37.6422 142.169ZM42.9762 142.169C43.9382 142.169 44.6922 141.844 45.3162 141.441L44.8872 140.661C44.3672 141.012 43.8082 141.22 43.1192 141.22C41.7802 141.22 40.8572 140.258 40.7792 138.75H45.5372C45.5632 138.581 45.5892 138.334 45.5892 138.074C45.5892 136.059 44.5752 134.759 42.7812 134.759C41.1432 134.759 39.5962 136.189 39.5962 138.477C39.5962 140.804 41.1042 142.169 42.9762 142.169ZM40.7662 137.892C40.9092 136.514 41.7932 135.708 42.7942 135.708C43.8992 135.708 44.5492 136.475 44.5492 137.892H40.7662ZM50.2347 142H51.4177V136.878C52.0677 136.15 52.6657 135.799 53.1987 135.799C54.0957 135.799 54.5117 136.358 54.5117 137.684V142H55.6947V136.878C56.3577 136.15 56.9297 135.799 57.4757 135.799C58.3727 135.799 58.7887 136.358 58.7887 137.684V142H59.9717V137.528C59.9717 135.721 59.2827 134.759 57.8267 134.759C56.9687 134.759 56.2277 135.318 55.4997 136.111C55.2137 135.279 54.6287 134.759 53.5497 134.759C52.7047 134.759 51.9637 135.292 51.3527 135.968H51.3137L51.2097 134.941H50.2347V142ZM65.0128 142.169C66.7418 142.169 68.2888 140.817 68.2888 138.477C68.2888 136.124 66.7418 134.759 65.0128 134.759C63.2838 134.759 61.7368 136.124 61.7368 138.477C61.7368 140.817 63.2838 142.169 65.0128 142.169ZM65.0128 141.181C63.7908 141.181 62.9718 140.102 62.9718 138.477C62.9718 136.852 63.7908 135.747 65.0128 135.747C66.2348 135.747 67.0668 136.852 67.0668 138.477C67.0668 140.102 66.2348 141.181 65.0128 141.181ZM72.1354 142.169C72.5644 142.169 73.0324 142.039 73.4354 141.909L73.2014 141.025C72.9674 141.116 72.6424 141.207 72.3954 141.207C71.5764 141.207 71.3034 140.713 71.3034 139.842V135.903H73.2144V134.941H71.3034V132.952H70.3154L70.1724 134.941L69.0674 135.006V135.903H70.1204V139.816C70.1204 141.22 70.6274 142.169 72.1354 142.169ZM74.8128 142H75.9958V134.941H74.8128V142ZM75.4108 133.485C75.8788 133.485 76.2038 133.173 76.2038 132.692C76.2038 132.237 75.8788 131.925 75.4108 131.925C74.9428 131.925 74.6178 132.237 74.6178 132.692C74.6178 133.173 74.9428 133.485 75.4108 133.485ZM79.9139 142H81.2919L83.8009 134.941H82.6309L81.2919 138.958C81.0839 139.647 80.8629 140.375 80.6419 141.038H80.5899C80.3689 140.375 80.1479 139.647 79.9269 138.958L78.6009 134.941H77.3659L79.9139 142ZM86.5052 142.169C87.3762 142.169 88.1692 141.714 88.8452 141.155H88.8842L88.9882 142H89.9632V137.658C89.9632 135.916 89.2352 134.759 87.5192 134.759C86.3882 134.759 85.3872 135.266 84.7372 135.682L85.2052 136.501C85.7642 136.124 86.5052 135.747 87.3242 135.747C88.4812 135.747 88.7802 136.618 88.7802 137.528C85.7772 137.866 84.4382 138.633 84.4382 140.167C84.4382 141.441 85.3222 142.169 86.5052 142.169ZM86.8432 141.22C86.1412 141.22 85.5952 140.895 85.5952 140.089C85.5952 139.179 86.4012 138.594 88.7802 138.308V140.284C88.0912 140.895 87.5322 141.22 86.8432 141.22ZM95.0001 142.169C95.8451 142.169 96.6511 141.844 97.2881 141.272L96.7681 140.479C96.3261 140.882 95.7541 141.181 95.1041 141.181C93.8041 141.181 92.9201 140.102 92.9201 138.477C92.9201 136.852 93.8561 135.747 95.1431 135.747C95.7021 135.747 96.1311 136.007 96.5471 136.371L97.1581 135.591C96.6511 135.149 96.0141 134.759 95.0911 134.759C93.2841 134.759 91.6851 136.124 91.6851 138.477C91.6851 140.817 93.1281 142.169 95.0001 142.169ZM98.8323 142H100.015V134.941H98.8323V142ZM99.4303 133.485C99.8983 133.485 100.223 133.173 100.223 132.692C100.223 132.237 99.8983 131.925 99.4303 131.925C98.9623 131.925 98.6373 132.237 98.6373 132.692C98.6373 133.173 98.9623 133.485 99.4303 133.485ZM105.155 142.169C106.884 142.169 108.431 140.817 108.431 138.477C108.431 136.124 106.884 134.759 105.155 134.759C103.426 134.759 101.879 136.124 101.879 138.477C101.879 140.817 103.426 142.169 105.155 142.169ZM105.155 141.181C103.933 141.181 103.114 140.102 103.114 138.477C103.114 136.852 103.933 135.747 105.155 135.747C106.377 135.747 107.209 136.852 107.209 138.477C107.209 140.102 106.377 141.181 105.155 141.181ZM104.947 133.667L107.222 131.457L106.39 130.664L104.336 133.082L104.947 133.667ZM110.296 142H111.479V136.878C112.194 136.163 112.688 135.799 113.416 135.799C114.352 135.799 114.755 136.358 114.755 137.684V142H115.938V137.528C115.938 135.721 115.262 134.759 113.78 134.759C112.818 134.759 112.09 135.292 111.414 135.955H111.375L111.271 134.941H110.296V142ZM29.0335 163.977H30.2165V161.585L30.1905 160.35C30.8275 160.87 31.5035 161.169 32.1405 161.169C33.7655 161.169 35.2085 159.778 35.2085 157.36C35.2085 155.189 34.2205 153.759 32.4005 153.759C31.5815 153.759 30.7885 154.227 30.1515 154.747H30.1125L30.0085 153.941H29.0335V163.977ZM31.9455 160.181C31.4775 160.181 30.8535 159.986 30.2165 159.44V155.735C30.9055 155.098 31.5165 154.76 32.1145 154.76C33.4535 154.76 33.9735 155.813 33.9735 157.373C33.9735 159.128 33.1155 160.181 31.9455 160.181ZM38.5169 161.169C39.3879 161.169 40.1809 160.714 40.8569 160.155H40.8959L40.9999 161H41.9749V156.658C41.9749 154.916 41.2469 153.759 39.5309 153.759C38.3999 153.759 37.3989 154.266 36.7489 154.682L37.2169 155.501C37.7759 155.124 38.5169 154.747 39.3359 154.747C40.4929 154.747 40.7919 155.618 40.7919 156.528C37.7889 156.866 36.4499 157.633 36.4499 159.167C36.4499 160.441 37.3339 161.169 38.5169 161.169ZM38.8549 160.22C38.1529 160.22 37.6069 159.895 37.6069 159.089C37.6069 158.179 38.4129 157.594 40.7919 157.308V159.284C40.1029 159.895 39.5439 160.22 38.8549 160.22ZM44.2298 161H45.4128V156.463C45.8808 155.254 46.6088 154.838 47.1938 154.838C47.4798 154.838 47.6488 154.864 47.8828 154.955L48.1038 153.915C47.8828 153.798 47.6618 153.759 47.3498 153.759C46.5568 153.759 45.8418 154.331 45.3478 155.228H45.3088L45.2048 153.941H44.2298V161ZM50.5393 161.169C51.4103 161.169 52.2033 160.714 52.8793 160.155H52.9183L53.0223 161H53.9973V156.658C53.9973 154.916 53.2693 153.759 51.5533 153.759C50.4223 153.759 49.4213 154.266 48.7713 154.682L49.2393 155.501C49.7983 155.124 50.5393 154.747 51.3583 154.747C52.5153 154.747 52.8143 155.618 52.8143 156.528C49.8113 156.866 48.4723 157.633 48.4723 159.167C48.4723 160.441 49.3563 161.169 50.5393 161.169ZM50.8773 160.22C50.1753 160.22 49.6293 159.895 49.6293 159.089C49.6293 158.179 50.4353 157.594 52.8143 157.308V159.284C52.1253 159.895 51.5663 160.22 50.8773 160.22ZM59.1595 161H60.3425V153.941H59.1595V161ZM59.7575 152.485C60.2255 152.485 60.5505 152.173 60.5505 151.692C60.5505 151.237 60.2255 150.925 59.7575 150.925C59.2895 150.925 58.9645 151.237 58.9645 151.692C58.9645 152.173 59.2895 152.485 59.7575 152.485ZM62.7395 161H63.9225V155.878C64.6375 155.163 65.1315 154.799 65.8595 154.799C66.7955 154.799 67.1985 155.358 67.1985 156.684V161H68.3815V156.528C68.3815 154.721 67.7055 153.759 66.2235 153.759C65.2615 153.759 64.5335 154.292 63.8575 154.955H63.8185L63.7145 153.941H62.7395V161ZM72.2078 161H73.5858L76.0948 153.941H74.9248L73.5858 157.958C73.3778 158.647 73.1568 159.375 72.9358 160.038H72.8838C72.6628 159.375 72.4418 158.647 72.2208 157.958L70.8948 153.941H69.6598L72.2078 161ZM80.2623 161.169C81.2243 161.169 81.9783 160.844 82.6023 160.441L82.1733 159.661C81.6533 160.012 81.0943 160.22 80.4053 160.22C79.0663 160.22 78.1433 159.258 78.0653 157.75H82.8233C82.8493 157.581 82.8753 157.334 82.8753 157.074C82.8753 155.059 81.8613 153.759 80.0673 153.759C78.4293 153.759 76.8823 155.189 76.8823 157.477C76.8823 159.804 78.3903 161.169 80.2623 161.169ZM78.0523 156.892C78.1953 155.514 79.0793 154.708 80.0803 154.708C81.1853 154.708 81.8353 155.475 81.8353 156.892H78.0523ZM84.6136 161H85.7966V156.463C86.2646 155.254 86.9926 154.838 87.5776 154.838C87.8636 154.838 88.0326 154.864 88.2666 154.955L88.4876 153.915C88.2666 153.798 88.0456 153.759 87.7336 153.759C86.9406 153.759 86.2256 154.331 85.7316 155.228H85.6926L85.5886 153.941H84.6136V161ZM91.8766 161.169C92.3056 161.169 92.7736 161.039 93.1766 160.909L92.9426 160.025C92.7086 160.116 92.3836 160.207 92.1366 160.207C91.3176 160.207 91.0446 159.713 91.0446 158.842V154.903H92.9556V153.941H91.0446V151.952H90.0566L89.9136 153.941L88.8086 154.006V154.903H89.8616V158.816C89.8616 160.22 90.3686 161.169 91.8766 161.169ZM94.554 161H95.737V153.941H94.554V161ZM95.152 152.485C95.62 152.485 95.945 152.173 95.945 151.692C95.945 151.237 95.62 150.925 95.152 150.925C94.684 150.925 94.359 151.237 94.359 151.692C94.359 152.173 94.684 152.485 95.152 152.485ZM98.1341 161H99.3171V156.463C99.7851 155.254 100.513 154.838 101.098 154.838C101.384 154.838 101.553 154.864 101.787 154.955L102.008 153.915C101.787 153.798 101.566 153.759 101.254 153.759C100.461 153.759 99.7461 154.331 99.2521 155.228H99.2131L99.1091 153.941H98.1341V161Z" fill="#484545"/>
<path d="M45.6382 48H84.1772V73H45.6382V48ZM64.9077 54.25C66.6112 54.25 68.245 54.9085 69.4496 56.0806C70.6541 57.2527 71.3309 58.8424 71.3309 60.5C71.3309 62.1576 70.6541 63.7473 69.4496 64.9194C68.245 66.0915 66.6112 66.75 64.9077 66.75C63.2042 66.75 61.5704 66.0915 60.3658 64.9194C59.1612 63.7473 58.4845 62.1576 58.4845 60.5C58.4845 58.8424 59.1612 57.2527 60.3658 56.0806C61.5704 54.9085 63.2042 54.25 64.9077 54.25V54.25ZM54.2024 52.1667C54.2024 53.2717 53.7513 54.3315 52.9482 55.1129C52.1452 55.8943 51.056 56.3333 49.9203 56.3333V64.6667C51.056 64.6667 52.1452 65.1057 52.9482 65.8871C53.7513 66.6685 54.2024 67.7283 54.2024 68.8333H75.613C75.613 67.7283 76.0641 66.6685 76.8672 65.8871C77.6702 65.1057 78.7594 64.6667 79.8951 64.6667V56.3333C78.7594 56.3333 77.6702 55.8943 76.8672 55.1129C76.0641 54.3315 75.613 53.2717 75.613 52.1667H54.2024Z" fill="#D29890"/>
<path d="M166.585 104.169C167.82 104.169 168.756 103.675 169.51 102.804L168.847 102.05C168.236 102.713 167.547 103.116 166.637 103.116C164.817 103.116 163.673 101.608 163.673 99.203C163.673 96.824 164.869 95.342 166.676 95.342C167.495 95.342 168.132 95.719 168.626 96.252L169.276 95.472C168.73 94.861 167.82 94.289 166.663 94.289C164.245 94.289 162.438 96.161 162.438 99.242C162.438 102.336 164.219 104.169 166.585 104.169ZM173.913 104.169C175.642 104.169 177.189 102.817 177.189 100.477C177.189 98.124 175.642 96.759 173.913 96.759C172.184 96.759 170.637 98.124 170.637 100.477C170.637 102.817 172.184 104.169 173.913 104.169ZM173.913 103.181C172.691 103.181 171.872 102.102 171.872 100.477C171.872 98.852 172.691 97.747 173.913 97.747C175.135 97.747 175.967 98.852 175.967 100.477C175.967 102.102 175.135 103.181 173.913 103.181ZM179.054 104H180.237V98.878C180.952 98.163 181.446 97.799 182.174 97.799C183.11 97.799 183.513 98.358 183.513 99.684V104H184.696V99.528C184.696 97.721 184.02 96.759 182.538 96.759C181.576 96.759 180.848 97.292 180.172 97.955H180.133L180.029 96.941H179.054V104ZM189.745 104.169C191.474 104.169 193.021 102.817 193.021 100.477C193.021 98.124 191.474 96.759 189.745 96.759C188.016 96.759 186.469 98.124 186.469 100.477C186.469 102.817 188.016 104.169 189.745 104.169ZM189.745 103.181C188.523 103.181 187.704 102.102 187.704 100.477C187.704 98.852 188.523 97.747 189.745 97.747C190.967 97.747 191.799 98.852 191.799 100.477C191.799 102.102 190.967 103.181 189.745 103.181ZM197.667 104.169C198.512 104.169 199.318 103.844 199.955 103.272L199.435 102.479C198.993 102.882 198.421 103.181 197.771 103.181C196.471 103.181 195.587 102.102 195.587 100.477C195.587 98.852 196.523 97.747 197.81 97.747C198.369 97.747 198.798 98.007 199.214 98.371L199.825 97.591C199.318 97.149 198.681 96.759 197.758 96.759C195.951 96.759 194.352 98.124 194.352 100.477C194.352 102.817 195.795 104.169 197.667 104.169ZM204.029 104.169C204.991 104.169 205.745 103.844 206.369 103.441L205.94 102.661C205.42 103.012 204.861 103.22 204.172 103.22C202.833 103.22 201.91 102.258 201.832 100.75H206.59C206.616 100.581 206.642 100.334 206.642 100.074C206.642 98.059 205.628 96.759 203.834 96.759C202.196 96.759 200.649 98.189 200.649 100.477C200.649 102.804 202.157 104.169 204.029 104.169ZM201.819 99.892C201.962 98.514 202.846 97.708 203.847 97.708C204.952 97.708 205.602 98.475 205.602 99.892H201.819ZM208.38 104H209.563V99.463C210.031 98.254 210.759 97.838 211.344 97.838C211.63 97.838 211.799 97.864 212.033 97.955L212.254 96.915C212.033 96.798 211.812 96.759 211.5 96.759C210.707 96.759 209.992 97.331 209.498 98.228H209.459L209.355 96.941H208.38V104ZM216.328 104H217.511V98.878C218.161 98.15 218.759 97.799 219.292 97.799C220.189 97.799 220.605 98.358 220.605 99.684V104H221.788V98.878C222.451 98.15 223.023 97.799 223.569 97.799C224.466 97.799 224.882 98.358 224.882 99.684V104H226.065V99.528C226.065 97.721 225.376 96.759 223.92 96.759C223.062 96.759 222.321 97.318 221.593 98.111C221.307 97.279 220.722 96.759 219.643 96.759C218.798 96.759 218.057 97.292 217.446 97.968H217.407L217.303 96.941H216.328V104ZM229.988 104.169C230.859 104.169 231.652 103.714 232.328 103.155H232.367L232.471 104H233.446V99.658C233.446 97.916 232.718 96.759 231.002 96.759C229.871 96.759 228.87 97.266 228.22 97.682L228.688 98.501C229.247 98.124 229.988 97.747 230.807 97.747C231.964 97.747 232.263 98.618 232.263 99.528C229.26 99.866 227.921 100.633 227.921 102.167C227.921 103.441 228.805 104.169 229.988 104.169ZM230.326 103.22C229.624 103.22 229.078 102.895 229.078 102.089C229.078 101.179 229.884 100.594 232.263 100.308V102.284C231.574 102.895 231.015 103.22 230.326 103.22ZM230.846 95.667L233.121 93.457L232.289 92.664L230.235 95.082L230.846 95.667ZM237.547 104.169C239.211 104.169 240.121 103.22 240.121 102.076C240.121 100.737 238.99 100.321 237.963 99.931C237.17 99.632 236.442 99.385 236.442 98.709C236.442 98.163 236.858 97.695 237.755 97.695C238.379 97.695 238.873 97.955 239.354 98.319L239.926 97.552C239.38 97.123 238.613 96.759 237.742 96.759C236.208 96.759 235.298 97.643 235.298 98.761C235.298 99.957 236.377 100.438 237.365 100.802C238.145 101.101 238.977 101.413 238.977 102.141C238.977 102.752 238.522 103.246 237.586 103.246C236.741 103.246 236.104 102.908 235.493 102.414L234.908 103.194C235.584 103.753 236.546 104.169 237.547 104.169ZM246.535 104.169C248.199 104.169 249.109 103.22 249.109 102.076C249.109 100.737 247.978 100.321 246.951 99.931C246.158 99.632 245.43 99.385 245.43 98.709C245.43 98.163 245.846 97.695 246.743 97.695C247.367 97.695 247.861 97.955 248.342 98.319L248.914 97.552C248.368 97.123 247.601 96.759 246.73 96.759C245.196 96.759 244.286 97.643 244.286 98.761C244.286 99.957 245.365 100.438 246.353 100.802C247.133 101.101 247.965 101.413 247.965 102.141C247.965 102.752 247.51 103.246 246.574 103.246C245.729 103.246 245.092 102.908 244.481 102.414L243.896 103.194C244.572 103.753 245.534 104.169 246.535 104.169ZM253.513 104.169C255.242 104.169 256.789 102.817 256.789 100.477C256.789 98.124 255.242 96.759 253.513 96.759C251.784 96.759 250.237 98.124 250.237 100.477C250.237 102.817 251.784 104.169 253.513 104.169ZM253.513 103.181C252.291 103.181 251.472 102.102 251.472 100.477C251.472 98.852 252.291 97.747 253.513 97.747C254.735 97.747 255.567 98.852 255.567 100.477C255.567 102.102 254.735 103.181 253.513 103.181ZM261.761 104.169C263.386 104.169 264.829 102.778 264.829 100.347C264.829 98.189 263.841 96.759 262.008 96.759C261.228 96.759 260.435 97.201 259.798 97.76L259.837 96.486V93.652H258.654V104H259.603L259.707 103.272H259.759C260.37 103.831 261.111 104.169 261.761 104.169ZM261.566 103.181C261.098 103.181 260.461 102.986 259.837 102.44V98.735C260.513 98.098 261.137 97.76 261.735 97.76C263.074 97.76 263.594 98.813 263.594 100.373C263.594 102.128 262.736 103.181 261.566 103.181ZM266.69 104H267.873V99.463C268.341 98.254 269.069 97.838 269.654 97.838C269.94 97.838 270.109 97.864 270.343 97.955L270.564 96.915C270.343 96.798 270.122 96.759 269.81 96.759C269.017 96.759 268.302 97.331 267.808 98.228H267.769L267.665 96.941H266.69V104ZM274.437 104.169C275.399 104.169 276.153 103.844 276.777 103.441L276.348 102.661C275.828 103.012 275.269 103.22 274.58 103.22C273.241 103.22 272.318 102.258 272.24 100.75H276.998C277.024 100.581 277.05 100.334 277.05 100.074C277.05 98.059 276.036 96.759 274.242 96.759C272.604 96.759 271.057 98.189 271.057 100.477C271.057 102.804 272.565 104.169 274.437 104.169ZM272.227 99.892C272.37 98.514 273.254 97.708 274.255 97.708C275.36 97.708 276.01 98.475 276.01 99.892H272.227ZM161.393 123.169C161.718 123.169 161.913 123.13 162.082 123.065L161.913 122.155C161.783 122.181 161.731 122.181 161.666 122.181C161.484 122.181 161.328 122.038 161.328 121.674V112.652H160.145V121.596C160.145 122.597 160.509 123.169 161.393 123.169ZM165.477 123.169C166.348 123.169 167.141 122.714 167.817 122.155H167.856L167.96 123H168.935V118.658C168.935 116.916 168.207 115.759 166.491 115.759C165.36 115.759 164.359 116.266 163.709 116.682L164.177 117.501C164.736 117.124 165.477 116.747 166.296 116.747C167.453 116.747 167.752 117.618 167.752 118.528C164.749 118.866 163.41 119.633 163.41 121.167C163.41 122.441 164.294 123.169 165.477 123.169ZM165.815 122.22C165.113 122.22 164.567 121.895 164.567 121.089C164.567 120.179 165.373 119.594 167.752 119.308V121.284C167.063 121.895 166.504 122.22 165.815 122.22ZM173.035 123.169C174.699 123.169 175.609 122.22 175.609 121.076C175.609 119.737 174.478 119.321 173.451 118.931C172.658 118.632 171.93 118.385 171.93 117.709C171.93 117.163 172.346 116.695 173.243 116.695C173.867 116.695 174.361 116.955 174.842 117.319L175.414 116.552C174.868 116.123 174.101 115.759 173.23 115.759C171.696 115.759 170.786 116.643 170.786 117.761C170.786 118.957 171.865 119.438 172.853 119.802C173.633 120.101 174.465 120.413 174.465 121.141C174.465 121.752 174.01 122.246 173.074 122.246C172.229 122.246 171.592 121.908 170.981 121.414L170.396 122.194C171.072 122.753 172.034 123.169 173.035 123.169ZM180.178 125.977H181.361V123.585L181.335 122.35C181.972 122.87 182.648 123.169 183.285 123.169C184.91 123.169 186.353 121.778 186.353 119.36C186.353 117.189 185.365 115.759 183.545 115.759C182.726 115.759 181.933 116.227 181.296 116.747H181.257L181.153 115.941H180.178V125.977ZM183.09 122.181C182.622 122.181 181.998 121.986 181.361 121.44V117.735C182.05 117.098 182.661 116.76 183.259 116.76C184.598 116.76 185.118 117.813 185.118 119.373C185.118 121.128 184.26 122.181 183.09 122.181ZM188.306 126.042C189.71 126.042 190.451 124.976 190.932 123.585L193.597 115.941H192.44L191.179 119.867C190.984 120.491 190.776 121.206 190.581 121.843H190.516C190.295 121.206 190.048 120.478 189.84 119.867L188.397 115.941H187.162L189.996 123.013L189.84 123.546C189.554 124.417 189.047 125.067 188.241 125.067C188.059 125.067 187.851 125.002 187.708 124.95L187.474 125.899C187.695 125.99 187.968 126.042 188.306 126.042ZM194.968 123H196.151V117.878C196.801 117.15 197.399 116.799 197.932 116.799C198.829 116.799 199.245 117.358 199.245 118.684V123H200.428V117.878C201.091 117.15 201.663 116.799 202.209 116.799C203.106 116.799 203.522 117.358 203.522 118.684V123H204.705V118.528C204.705 116.721 204.016 115.759 202.56 115.759C201.702 115.759 200.961 116.318 200.233 117.111C199.947 116.279 199.362 115.759 198.283 115.759C197.438 115.759 196.697 116.292 196.086 116.968H196.047L195.943 115.941H194.968V123ZM209.85 123.169C210.812 123.169 211.566 122.844 212.19 122.441L211.761 121.661C211.241 122.012 210.682 122.22 209.993 122.22C208.654 122.22 207.731 121.258 207.653 119.75H212.411C212.437 119.581 212.463 119.334 212.463 119.074C212.463 117.059 211.449 115.759 209.655 115.759C208.017 115.759 206.47 117.189 206.47 119.477C206.47 121.804 207.978 123.169 209.85 123.169ZM207.64 118.892C207.783 117.514 208.667 116.708 209.668 116.708C210.773 116.708 211.423 117.475 211.423 118.892H207.64ZM216.047 123.169C217.711 123.169 218.621 122.22 218.621 121.076C218.621 119.737 217.49 119.321 216.463 118.931C215.67 118.632 214.942 118.385 214.942 117.709C214.942 117.163 215.358 116.695 216.255 116.695C216.879 116.695 217.373 116.955 217.854 117.319L218.426 116.552C217.88 116.123 217.113 115.759 216.242 115.759C214.708 115.759 213.798 116.643 213.798 117.761C213.798 118.957 214.877 119.438 215.865 119.802C216.645 120.101 217.477 120.413 217.477 121.141C217.477 121.752 217.022 122.246 216.086 122.246C215.241 122.246 214.604 121.908 213.993 121.414L213.408 122.194C214.084 122.753 215.046 123.169 216.047 123.169ZM226.036 123.169C226.998 123.169 227.752 122.844 228.376 122.441L227.947 121.661C227.427 122.012 226.868 122.22 226.179 122.22C224.84 122.22 223.917 121.258 223.839 119.75H228.597C228.623 119.581 228.649 119.334 228.649 119.074C228.649 117.059 227.635 115.759 225.841 115.759C224.203 115.759 222.656 117.189 222.656 119.477C222.656 121.804 224.164 123.169 226.036 123.169ZM223.826 118.892C223.969 117.514 224.853 116.708 225.854 116.708C226.959 116.708 227.609 117.475 227.609 118.892H223.826ZM230.388 123H231.571V117.878C232.286 117.163 232.78 116.799 233.508 116.799C234.444 116.799 234.847 117.358 234.847 118.684V123H236.03V118.528C236.03 116.721 235.354 115.759 233.872 115.759C232.91 115.759 232.182 116.292 231.506 116.955H231.467L231.363 115.941H230.388V123ZM242.49 123.169C242.815 123.169 243.01 123.13 243.179 123.065L243.01 122.155C242.88 122.181 242.828 122.181 242.763 122.181C242.581 122.181 242.425 122.038 242.425 121.674V112.652H241.242V121.596C241.242 122.597 241.606 123.169 242.49 123.169ZM246.574 123.169C247.445 123.169 248.238 122.714 248.914 122.155H248.953L249.057 123H250.032V118.658C250.032 116.916 249.304 115.759 247.588 115.759C246.457 115.759 245.456 116.266 244.806 116.682L245.274 117.501C245.833 117.124 246.574 116.747 247.393 116.747C248.55 116.747 248.849 117.618 248.849 118.528C245.846 118.866 244.507 119.633 244.507 121.167C244.507 122.441 245.391 123.169 246.574 123.169ZM246.912 122.22C246.21 122.22 245.664 121.895 245.664 121.089C245.664 120.179 246.47 119.594 248.849 119.308V121.284C248.16 121.895 247.601 122.22 246.912 122.22ZM254.133 123.169C255.797 123.169 256.707 122.22 256.707 121.076C256.707 119.737 255.576 119.321 254.549 118.931C253.756 118.632 253.028 118.385 253.028 117.709C253.028 117.163 253.444 116.695 254.341 116.695C254.965 116.695 255.459 116.955 255.94 117.319L256.512 116.552C255.966 116.123 255.199 115.759 254.328 115.759C252.794 115.759 251.884 116.643 251.884 117.761C251.884 118.957 252.963 119.438 253.951 119.802C254.731 120.101 255.563 120.413 255.563 121.141C255.563 121.752 255.108 122.246 254.172 122.246C253.327 122.246 252.69 121.908 252.079 121.414L251.494 122.194C252.17 122.753 253.132 123.169 254.133 123.169ZM265.76 125.977H266.93V115.941H265.994L265.877 116.617H265.838C265.227 116.058 264.642 115.759 263.823 115.759C262.211 115.759 260.768 117.189 260.768 119.477C260.768 121.83 261.912 123.169 263.68 123.169C264.499 123.169 265.24 122.74 265.812 122.181L265.76 123.468V125.977ZM263.94 122.181C262.692 122.181 261.99 121.167 261.99 119.464C261.99 117.852 262.887 116.76 264.031 116.76C264.616 116.76 265.149 116.968 265.76 117.501V121.206C265.162 121.856 264.59 122.181 263.94 122.181ZM271.391 123.169C272.366 123.169 273.068 122.662 273.731 121.895H273.77L273.861 123H274.849V115.941H273.666V120.946C272.99 121.791 272.483 122.142 271.755 122.142C270.819 122.142 270.429 121.583 270.429 120.27V115.941H269.246V120.413C269.246 122.207 269.909 123.169 271.391 123.169ZM280.08 123.169C281.042 123.169 281.796 122.844 282.42 122.441L281.991 121.661C281.471 122.012 280.912 122.22 280.223 122.22C278.884 122.22 277.961 121.258 277.883 119.75H282.641C282.667 119.581 282.693 119.334 282.693 119.074C282.693 117.059 281.679 115.759 279.885 115.759C278.247 115.759 276.7 117.189 276.7 119.477C276.7 121.804 278.208 123.169 280.08 123.169ZM277.87 118.892C278.013 117.514 278.897 116.708 279.898 116.708C281.003 116.708 281.653 117.475 281.653 118.892H277.87ZM173.094 142H174.277V134.941H173.094V142ZM173.692 133.485C174.16 133.485 174.485 133.173 174.485 132.692C174.485 132.237 174.16 131.925 173.692 131.925C173.224 131.925 172.899 132.237 172.899 132.692C172.899 133.173 173.224 133.485 173.692 133.485ZM176.674 142H177.857V136.878C178.572 136.163 179.066 135.799 179.794 135.799C180.73 135.799 181.133 136.358 181.133 137.684V142H182.316V137.528C182.316 135.721 181.64 134.759 180.158 134.759C179.196 134.759 178.468 135.292 177.792 135.955H177.753L177.649 134.941H176.674V142ZM186.142 142H187.52L190.029 134.941H188.859L187.52 138.958C187.312 139.647 187.091 140.375 186.87 141.038H186.818C186.597 140.375 186.376 139.647 186.155 138.958L184.829 134.941H183.594L186.142 142ZM191.4 142H192.583V134.941H191.4V142ZM191.998 133.485C192.466 133.485 192.791 133.173 192.791 132.692C192.791 132.237 192.466 131.925 191.998 131.925C191.53 131.925 191.205 132.237 191.205 132.692C191.205 133.173 191.53 133.485 191.998 133.485ZM197.828 142.169C198.79 142.169 199.544 141.844 200.168 141.441L199.739 140.661C199.219 141.012 198.66 141.22 197.971 141.22C196.632 141.22 195.709 140.258 195.631 138.75H200.389C200.415 138.581 200.441 138.334 200.441 138.074C200.441 136.059 199.427 134.759 197.633 134.759C195.995 134.759 194.448 136.189 194.448 138.477C194.448 140.804 195.956 142.169 197.828 142.169ZM195.618 137.892C195.761 136.514 196.645 135.708 197.646 135.708C198.751 135.708 199.401 136.475 199.401 137.892H195.618ZM202.179 142H203.362V137.463C203.83 136.254 204.558 135.838 205.143 135.838C205.429 135.838 205.598 135.864 205.832 135.955L206.053 134.915C205.832 134.798 205.611 134.759 205.299 134.759C204.506 134.759 203.791 135.331 203.297 136.228H203.258L203.154 134.941H202.179V142ZM209.442 142.169C209.871 142.169 210.339 142.039 210.742 141.909L210.508 141.025C210.274 141.116 209.949 141.207 209.702 141.207C208.883 141.207 208.61 140.713 208.61 139.842V135.903H210.521V134.941H208.61V132.952H207.622L207.479 134.941L206.374 135.006V135.903H207.427V139.816C207.427 141.22 207.934 142.169 209.442 142.169ZM214.776 142.169C215.738 142.169 216.492 141.844 217.116 141.441L216.687 140.661C216.167 141.012 215.608 141.22 214.919 141.22C213.58 141.22 212.657 140.258 212.579 138.75H217.337C217.363 138.581 217.389 138.334 217.389 138.074C217.389 136.059 216.375 134.759 214.581 134.759C212.943 134.759 211.396 136.189 211.396 138.477C211.396 140.804 212.904 142.169 214.776 142.169ZM212.566 137.892C212.709 136.514 213.593 135.708 214.594 135.708C215.699 135.708 216.349 136.475 216.349 137.892H212.566ZM219.127 142H220.31V136.878C221.025 136.163 221.519 135.799 222.247 135.799C223.183 135.799 223.586 136.358 223.586 137.684V142H224.769V137.528C224.769 135.721 224.093 134.759 222.611 134.759C221.649 134.759 220.921 135.292 220.245 135.955H220.206L220.102 134.941H219.127V142ZM232.36 145.25C234.544 145.25 235.935 144.119 235.935 142.806C235.935 141.649 235.103 141.129 233.465 141.129H232.087C231.138 141.129 230.852 140.817 230.852 140.362C230.852 139.972 231.047 139.738 231.307 139.517C231.619 139.673 232.009 139.764 232.36 139.764C233.79 139.764 234.934 138.815 234.934 137.307C234.934 136.696 234.7 136.176 234.362 135.851H235.805V134.941H233.348C233.101 134.85 232.75 134.759 232.36 134.759C230.93 134.759 229.708 135.734 229.708 137.281C229.708 138.126 230.163 138.802 230.631 139.179V139.231C230.267 139.491 229.838 139.959 229.838 140.544C229.838 141.103 230.111 141.48 230.488 141.701V141.753C229.825 142.182 229.448 142.754 229.448 143.352C229.448 144.574 230.631 145.25 232.36 145.25ZM232.36 138.958C231.541 138.958 230.852 138.308 230.852 137.281C230.852 136.241 231.528 135.63 232.36 135.63C233.192 135.63 233.868 136.254 233.868 137.281C233.868 138.308 233.166 138.958 232.36 138.958ZM232.529 144.444C231.255 144.444 230.488 143.95 230.488 143.196C230.488 142.78 230.696 142.364 231.203 142C231.515 142.078 231.853 142.117 232.113 142.117H233.335C234.271 142.117 234.778 142.338 234.778 142.988C234.778 143.729 233.881 144.444 232.529 144.444ZM239.963 142.169C240.925 142.169 241.679 141.844 242.303 141.441L241.874 140.661C241.354 141.012 240.795 141.22 240.106 141.22C238.767 141.22 237.844 140.258 237.766 138.75H242.524C242.55 138.581 242.576 138.334 242.576 138.074C242.576 136.059 241.562 134.759 239.768 134.759C238.13 134.759 236.583 136.189 236.583 138.477C236.583 140.804 238.091 142.169 239.963 142.169ZM237.753 137.892C237.896 136.514 238.78 135.708 239.781 135.708C240.886 135.708 241.536 136.475 241.536 137.892H237.753ZM244.314 142H245.497V136.878C246.212 136.163 246.706 135.799 247.434 135.799C248.37 135.799 248.773 136.358 248.773 137.684V142H249.956V137.528C249.956 135.721 249.28 134.759 247.798 134.759C246.836 134.759 246.108 135.292 245.432 135.955H245.393L245.289 134.941H244.314V142ZM255.109 142.169C256.071 142.169 256.825 141.844 257.449 141.441L257.02 140.661C256.5 141.012 255.941 141.22 255.252 141.22C253.913 141.22 252.99 140.258 252.912 138.75H257.67C257.696 138.581 257.722 138.334 257.722 138.074C257.722 136.059 256.708 134.759 254.914 134.759C253.276 134.759 251.729 136.189 251.729 138.477C251.729 140.804 253.237 142.169 255.109 142.169ZM252.899 137.892C253.042 136.514 253.926 135.708 254.927 135.708C256.032 135.708 256.682 136.475 256.682 137.892H252.899ZM259.46 142H260.643V137.463C261.111 136.254 261.839 135.838 262.424 135.838C262.71 135.838 262.879 135.864 263.113 135.955L263.334 134.915C263.113 134.798 262.892 134.759 262.58 134.759C261.787 134.759 261.072 135.331 260.578 136.228H260.539L260.435 134.941H259.46V142ZM265.77 142.169C266.641 142.169 267.434 141.714 268.11 141.155H268.149L268.253 142H269.228V137.658C269.228 135.916 268.5 134.759 266.784 134.759C265.653 134.759 264.652 135.266 264.002 135.682L264.47 136.501C265.029 136.124 265.77 135.747 266.589 135.747C267.746 135.747 268.045 136.618 268.045 137.528C265.042 137.866 263.703 138.633 263.703 140.167C263.703 141.441 264.587 142.169 265.77 142.169ZM266.108 141.22C265.406 141.22 264.86 140.895 264.86 140.089C264.86 139.179 265.666 138.594 268.045 138.308V140.284C267.356 140.895 266.797 141.22 266.108 141.22ZM173.514 161.169C174.359 161.169 175.165 160.844 175.802 160.272L175.282 159.479C174.84 159.882 174.268 160.181 173.618 160.181C172.318 160.181 171.434 159.102 171.434 157.477C171.434 155.852 172.37 154.747 173.657 154.747C174.216 154.747 174.645 155.007 175.061 155.371L175.672 154.591C175.165 154.149 174.528 153.759 173.605 153.759C171.798 153.759 170.199 155.124 170.199 157.477C170.199 159.817 171.642 161.169 173.514 161.169ZM179.772 161.169C181.501 161.169 183.048 159.817 183.048 157.477C183.048 155.124 181.501 153.759 179.772 153.759C178.043 153.759 176.496 155.124 176.496 157.477C176.496 159.817 178.043 161.169 179.772 161.169ZM179.772 160.181C178.55 160.181 177.731 159.102 177.731 157.477C177.731 155.852 178.55 154.747 179.772 154.747C180.994 154.747 181.826 155.852 181.826 157.477C181.826 159.102 180.994 160.181 179.772 160.181ZM184.913 161H186.096V155.878C186.811 155.163 187.305 154.799 188.033 154.799C188.969 154.799 189.372 155.358 189.372 156.684V161H190.555V156.528C190.555 154.721 189.879 153.759 188.397 153.759C187.435 153.759 186.707 154.292 186.031 154.955H185.992L185.888 153.941H184.913V161ZM195.642 161.169C196.487 161.169 197.293 160.844 197.93 160.272L197.41 159.479C196.968 159.882 196.396 160.181 195.746 160.181C194.446 160.181 193.562 159.102 193.562 157.477C193.562 155.852 194.498 154.747 195.785 154.747C196.344 154.747 196.773 155.007 197.189 155.371L197.8 154.591C197.293 154.149 196.656 153.759 195.733 153.759C193.926 153.759 192.327 155.124 192.327 157.477C192.327 159.817 193.77 161.169 195.642 161.169ZM199.475 161H200.658V153.941H199.475V161ZM200.073 152.485C200.541 152.485 200.866 152.173 200.866 151.692C200.866 151.237 200.541 150.925 200.073 150.925C199.605 150.925 199.28 151.237 199.28 151.692C199.28 152.173 199.605 152.485 200.073 152.485ZM205.902 161.169C206.864 161.169 207.618 160.844 208.242 160.441L207.813 159.661C207.293 160.012 206.734 160.22 206.045 160.22C204.706 160.22 203.783 159.258 203.705 157.75H208.463C208.489 157.581 208.515 157.334 208.515 157.074C208.515 155.059 207.501 153.759 205.707 153.759C204.069 153.759 202.522 155.189 202.522 157.477C202.522 159.804 204.03 161.169 205.902 161.169ZM203.692 156.892C203.835 155.514 204.719 154.708 205.72 154.708C206.825 154.708 207.475 155.475 207.475 156.892H203.692ZM210.253 161H211.436V155.878C212.151 155.163 212.645 154.799 213.373 154.799C214.309 154.799 214.712 155.358 214.712 156.684V161H215.895V156.528C215.895 154.721 215.219 153.759 213.737 153.759C212.775 153.759 212.047 154.292 211.371 154.955H211.332L211.228 153.941H210.253V161ZM220.982 161.169C221.827 161.169 222.633 160.844 223.27 160.272L222.75 159.479C222.308 159.882 221.736 160.181 221.086 160.181C219.786 160.181 218.902 159.102 218.902 157.477C218.902 155.852 219.838 154.747 221.125 154.747C221.684 154.747 222.113 155.007 222.529 155.371L223.14 154.591C222.633 154.149 221.996 153.759 221.073 153.759C219.266 153.759 217.667 155.124 217.667 157.477C217.667 159.817 219.11 161.169 220.982 161.169ZM224.814 161H225.997V153.941H224.814V161ZM225.412 152.485C225.88 152.485 226.205 152.173 226.205 151.692C226.205 151.237 225.88 150.925 225.412 150.925C224.944 150.925 224.619 151.237 224.619 151.692C224.619 152.173 224.944 152.485 225.412 152.485ZM230.02 161.169C230.891 161.169 231.684 160.714 232.36 160.155H232.399L232.503 161H233.478V156.658C233.478 154.916 232.75 153.759 231.034 153.759C229.903 153.759 228.902 154.266 228.252 154.682L228.72 155.501C229.279 155.124 230.02 154.747 230.839 154.747C231.996 154.747 232.295 155.618 232.295 156.528C229.292 156.866 227.953 157.633 227.953 159.167C227.953 160.441 228.837 161.169 230.02 161.169ZM230.358 160.22C229.656 160.22 229.11 159.895 229.11 159.089C229.11 158.179 229.916 157.594 232.295 157.308V159.284C231.606 159.895 231.047 160.22 230.358 160.22ZM240.486 161.169C242.15 161.169 243.06 160.22 243.06 159.076C243.06 157.737 241.929 157.321 240.902 156.931C240.109 156.632 239.381 156.385 239.381 155.709C239.381 155.163 239.797 154.695 240.694 154.695C241.318 154.695 241.812 154.955 242.293 155.319L242.865 154.552C242.319 154.123 241.552 153.759 240.681 153.759C239.147 153.759 238.237 154.643 238.237 155.761C238.237 156.957 239.316 157.438 240.304 157.802C241.084 158.101 241.916 158.413 241.916 159.141C241.916 159.752 241.461 160.246 240.525 160.246C239.68 160.246 239.043 159.908 238.432 159.414L237.847 160.194C238.523 160.753 239.485 161.169 240.486 161.169ZM247.464 161.169C249.193 161.169 250.74 159.817 250.74 157.477C250.74 155.124 249.193 153.759 247.464 153.759C245.735 153.759 244.188 155.124 244.188 157.477C244.188 159.817 245.735 161.169 247.464 161.169ZM247.464 160.181C246.242 160.181 245.423 159.102 245.423 157.477C245.423 155.852 246.242 154.747 247.464 154.747C248.686 154.747 249.518 155.852 249.518 157.477C249.518 159.102 248.686 160.181 247.464 160.181ZM255.387 161.169C256.232 161.169 257.038 160.844 257.675 160.272L257.155 159.479C256.713 159.882 256.141 160.181 255.491 160.181C254.191 160.181 253.307 159.102 253.307 157.477C253.307 155.852 254.243 154.747 255.53 154.747C256.089 154.747 256.518 155.007 256.934 155.371L257.545 154.591C257.038 154.149 256.401 153.759 255.478 153.759C253.671 153.759 252.072 155.124 252.072 157.477C252.072 159.817 253.515 161.169 255.387 161.169ZM259.219 161H260.402V153.941H259.219V161ZM259.817 152.485C260.285 152.485 260.61 152.173 260.61 151.692C260.61 151.237 260.285 150.925 259.817 150.925C259.349 150.925 259.024 151.237 259.024 151.692C259.024 152.173 259.349 152.485 259.817 152.485ZM264.424 161.169C265.295 161.169 266.088 160.714 266.764 160.155H266.803L266.907 161H267.882V156.658C267.882 154.916 267.154 153.759 265.438 153.759C264.307 153.759 263.306 154.266 262.656 154.682L263.124 155.501C263.683 155.124 264.424 154.747 265.243 154.747C266.4 154.747 266.699 155.618 266.699 156.528C263.696 156.866 262.357 157.633 262.357 159.167C262.357 160.441 263.241 161.169 264.424 161.169ZM264.762 160.22C264.06 160.22 263.514 159.895 263.514 159.089C263.514 158.179 264.32 157.594 266.699 157.308V159.284C266.01 159.895 265.451 160.22 264.762 160.22ZM271.385 161.169C271.71 161.169 271.905 161.13 272.074 161.065L271.905 160.155C271.775 160.181 271.723 160.181 271.658 160.181C271.476 160.181 271.32 160.038 271.32 159.674V150.652H270.137V159.596C270.137 160.597 270.501 161.169 271.385 161.169Z" fill="#484545"/>
<path d="M221.599 48C220.096 48 218.653 48.6078 217.59 49.6898C216.527 50.7717 215.929 52.2391 215.929 53.7692C215.929 55.2993 216.527 56.7668 217.59 57.8487C218.653 58.9306 220.096 59.5385 221.599 59.5385C223.103 59.5385 224.545 58.9306 225.609 57.8487C226.672 56.7668 227.27 55.2993 227.27 53.7692C227.27 52.2391 226.672 50.7717 225.609 49.6898C224.545 48.6078 223.103 48 221.599 48ZM210.259 52.1731C209.006 52.1731 207.804 52.6796 206.918 53.5812C206.032 54.4828 205.534 55.7057 205.534 56.9808C205.534 57.6121 205.656 58.2373 205.893 58.8206C206.131 59.4039 206.479 59.9339 206.918 60.3803C207.357 60.8268 207.877 61.1809 208.451 61.4225C209.024 61.6641 209.638 61.7885 210.259 61.7885C211.922 61.7885 213.378 60.9038 214.209 59.5962C212.943 57.9615 212.149 55.9808 212.149 53.7692C212.149 53.3846 212.149 53 212.225 52.6154C211.62 52.3269 210.958 52.1731 210.259 52.1731ZM232.94 52.1731C232.24 52.1731 231.579 52.3269 230.974 52.6154C231.05 53 231.05 53.3846 231.05 53.7692C231.05 55.9808 230.256 57.9615 228.99 59.5962C229.821 60.9038 231.277 61.7885 232.94 61.7885C233.56 61.7885 234.175 61.6641 234.748 61.4225C235.321 61.1809 235.842 60.8268 236.281 60.3803C236.72 59.9339 237.068 59.4039 237.305 58.8206C237.543 58.2373 237.665 57.6121 237.665 56.9808C237.665 56.3494 237.543 55.7242 237.305 55.1409C237.068 54.5576 236.72 54.0277 236.281 53.5812C235.842 53.1348 235.321 52.7806 234.748 52.539C234.175 52.2974 233.56 52.1731 232.94 52.1731ZM221.599 63.3846C217.819 63.3846 210.259 65.3077 210.259 69.1538V73H232.94V69.1538C232.94 65.3077 225.38 63.3846 221.599 63.3846ZM207.745 65.25C204.589 65.8077 200.809 67.3077 200.809 69.7885V73H206.479V69.1538C206.479 67.6538 207.027 66.3269 207.745 65.25ZM235.454 65.25C236.172 66.3269 236.72 67.6538 236.72 69.1538V73H242.39V69.7885C242.39 67.3077 238.61 65.8077 235.454 65.25Z" fill="#D29890"/>
<path d="M158.071 254H163.44V252.973H159.28V244.458H158.071V254ZM167.604 254.169C169.333 254.169 170.88 252.817 170.88 250.477C170.88 248.124 169.333 246.759 167.604 246.759C165.875 246.759 164.328 248.124 164.328 250.477C164.328 252.817 165.875 254.169 167.604 254.169ZM167.604 253.181C166.382 253.181 165.563 252.102 165.563 250.477C165.563 248.852 166.382 247.747 167.604 247.747C168.826 247.747 169.658 248.852 169.658 250.477C169.658 252.102 168.826 253.181 167.604 253.181ZM174.591 254.169C176.255 254.169 177.165 253.22 177.165 252.076C177.165 250.737 176.034 250.321 175.007 249.931C174.214 249.632 173.486 249.385 173.486 248.709C173.486 248.163 173.902 247.695 174.799 247.695C175.423 247.695 175.917 247.955 176.398 248.319L176.97 247.552C176.424 247.123 175.657 246.759 174.786 246.759C173.252 246.759 172.342 247.643 172.342 248.761C172.342 249.957 173.421 250.438 174.409 250.802C175.189 251.101 176.021 251.413 176.021 252.141C176.021 252.752 175.566 253.246 174.63 253.246C173.785 253.246 173.148 252.908 172.537 252.414L171.952 253.194C172.628 253.753 173.59 254.169 174.591 254.169ZM181.733 254H182.916V248.878C183.631 248.163 184.125 247.799 184.853 247.799C185.789 247.799 186.192 248.358 186.192 249.684V254H187.375V249.528C187.375 247.721 186.699 246.759 185.217 246.759C184.255 246.759 183.527 247.292 182.851 247.955H182.812L182.708 246.941H181.733V254ZM191.734 254.169C192.709 254.169 193.411 253.662 194.074 252.895H194.113L194.204 254H195.192V246.941H194.009V251.946C193.333 252.791 192.826 253.142 192.098 253.142C191.162 253.142 190.772 252.583 190.772 251.27V246.941H189.589V251.413C189.589 253.207 190.252 254.169 191.734 254.169ZM200.424 254.169C201.386 254.169 202.14 253.844 202.764 253.441L202.335 252.661C201.815 253.012 201.256 253.22 200.567 253.22C199.228 253.22 198.305 252.258 198.227 250.75H202.985C203.011 250.581 203.037 250.334 203.037 250.074C203.037 248.059 202.023 246.759 200.229 246.759C198.591 246.759 197.044 248.189 197.044 250.477C197.044 252.804 198.552 254.169 200.424 254.169ZM198.214 249.892C198.357 248.514 199.241 247.708 200.242 247.708C201.347 247.708 201.997 248.475 201.997 249.892H198.214ZM206.359 254H207.737L210.246 246.941H209.076L207.737 250.958C207.529 251.647 207.308 252.375 207.087 253.038H207.035C206.814 252.375 206.593 251.647 206.372 250.958L205.046 246.941H203.811L206.359 254ZM214.31 254.169C216.039 254.169 217.586 252.817 217.586 250.477C217.586 248.124 216.039 246.759 214.31 246.759C212.581 246.759 211.034 248.124 211.034 250.477C211.034 252.817 212.581 254.169 214.31 254.169ZM214.31 253.181C213.088 253.181 212.269 252.102 212.269 250.477C212.269 248.852 213.088 247.747 214.31 247.747C215.532 247.747 216.364 248.852 216.364 250.477C216.364 252.102 215.532 253.181 214.31 253.181ZM221.297 254.169C222.961 254.169 223.871 253.22 223.871 252.076C223.871 250.737 222.74 250.321 221.713 249.931C220.92 249.632 220.192 249.385 220.192 248.709C220.192 248.163 220.608 247.695 221.505 247.695C222.129 247.695 222.623 247.955 223.104 248.319L223.676 247.552C223.13 247.123 222.363 246.759 221.492 246.759C219.958 246.759 219.048 247.643 219.048 248.761C219.048 249.957 220.127 250.438 221.115 250.802C221.895 251.101 222.727 251.413 222.727 252.141C222.727 252.752 222.272 253.246 221.336 253.246C220.491 253.246 219.854 252.908 219.243 252.414L218.658 253.194C219.334 253.753 220.296 254.169 221.297 254.169ZM228.439 254H229.622V248.878C230.337 248.163 230.831 247.799 231.559 247.799C232.495 247.799 232.898 248.358 232.898 249.684V254H234.081V249.528C234.081 247.721 233.405 246.759 231.923 246.759C230.961 246.759 230.233 247.292 229.557 247.955H229.518L229.414 246.941H228.439V254ZM239.233 254.169C240.195 254.169 240.949 253.844 241.573 253.441L241.144 252.661C240.624 253.012 240.065 253.22 239.376 253.22C238.037 253.22 237.114 252.258 237.036 250.75H241.794C241.82 250.581 241.846 250.334 241.846 250.074C241.846 248.059 240.832 246.759 239.038 246.759C237.4 246.759 235.853 248.189 235.853 250.477C235.853 252.804 237.361 254.169 239.233 254.169ZM237.023 249.892C237.166 248.514 238.05 247.708 239.051 247.708C240.156 247.708 240.806 248.475 240.806 249.892H237.023ZM246.367 254.169C247.212 254.169 248.018 253.844 248.655 253.272L248.135 252.479C247.693 252.882 247.121 253.181 246.471 253.181C245.171 253.181 244.287 252.102 244.287 250.477C244.287 248.852 245.223 247.747 246.51 247.747C247.069 247.747 247.498 248.007 247.914 248.371L248.525 247.591C248.018 247.149 247.381 246.759 246.458 246.759C244.651 246.759 243.052 248.124 243.052 250.477C243.052 252.817 244.495 254.169 246.367 254.169ZM252.728 254.169C253.69 254.169 254.444 253.844 255.068 253.441L254.639 252.661C254.119 253.012 253.56 253.22 252.871 253.22C251.532 253.22 250.609 252.258 250.531 250.75H255.289C255.315 250.581 255.341 250.334 255.341 250.074C255.341 248.059 254.327 246.759 252.533 246.759C250.895 246.759 249.348 248.189 249.348 250.477C249.348 252.804 250.856 254.169 252.728 254.169ZM250.518 249.892C250.661 248.514 251.545 247.708 252.546 247.708C253.651 247.708 254.301 248.475 254.301 249.892H250.518ZM258.926 254.169C260.59 254.169 261.5 253.22 261.5 252.076C261.5 250.737 260.369 250.321 259.342 249.931C258.549 249.632 257.821 249.385 257.821 248.709C257.821 248.163 258.237 247.695 259.134 247.695C259.758 247.695 260.252 247.955 260.733 248.319L261.305 247.552C260.759 247.123 259.992 246.759 259.121 246.759C257.587 246.759 256.677 247.643 256.677 248.761C256.677 249.957 257.756 250.438 258.744 250.802C259.524 251.101 260.356 251.413 260.356 252.141C260.356 252.752 259.901 253.246 258.965 253.246C258.12 253.246 257.483 252.908 256.872 252.414L256.287 253.194C256.963 253.753 257.925 254.169 258.926 254.169ZM263.161 254H264.344V246.941H263.161V254ZM263.759 245.485C264.227 245.485 264.552 245.173 264.552 244.692C264.552 244.237 264.227 243.925 263.759 243.925C263.291 243.925 262.966 244.237 262.966 244.692C262.966 245.173 263.291 245.485 263.759 245.485ZM268.964 254.169C269.393 254.169 269.861 254.039 270.264 253.909L270.03 253.025C269.796 253.116 269.471 253.207 269.224 253.207C268.405 253.207 268.132 252.713 268.132 251.842V247.903H270.043V246.941H268.132V244.952H267.144L267.001 246.941L265.896 247.006V247.903H266.949V251.816C266.949 253.22 267.456 254.169 268.964 254.169ZM272.949 254.169C273.82 254.169 274.613 253.714 275.289 253.155H275.328L275.432 254H276.407V249.658C276.407 247.916 275.679 246.759 273.963 246.759C272.832 246.759 271.831 247.266 271.181 247.682L271.649 248.501C272.208 248.124 272.949 247.747 273.768 247.747C274.925 247.747 275.224 248.618 275.224 249.528C272.221 249.866 270.882 250.633 270.882 252.167C270.882 253.441 271.766 254.169 272.949 254.169ZM273.287 253.22C272.585 253.22 272.039 252.895 272.039 252.089C272.039 251.179 272.845 250.594 275.224 250.308V252.284C274.535 252.895 273.976 253.22 273.287 253.22ZM278.662 254H279.845V248.878C280.56 248.163 281.054 247.799 281.782 247.799C282.718 247.799 283.121 248.358 283.121 249.684V254H284.304V249.528C284.304 247.721 283.628 246.759 282.146 246.759C281.184 246.759 280.456 247.292 279.78 247.955H279.741L279.637 246.941H278.662V254ZM164.23 273.169C165.205 273.169 165.907 272.662 166.57 271.895H166.609L166.7 273H167.688V265.941H166.505V270.946C165.829 271.791 165.322 272.142 164.594 272.142C163.658 272.142 163.268 271.583 163.268 270.27V265.941H162.085V270.413C162.085 272.207 162.748 273.169 164.23 273.169ZM170.072 273H171.255V267.878C171.97 267.163 172.464 266.799 173.192 266.799C174.128 266.799 174.531 267.358 174.531 268.684V273H175.714V268.528C175.714 266.721 175.038 265.759 173.556 265.759C172.594 265.759 171.866 266.292 171.19 266.955H171.151L171.047 265.941H170.072V273ZM179.645 273.169C180.516 273.169 181.309 272.714 181.985 272.155H182.024L182.128 273H183.103V268.658C183.103 266.916 182.375 265.759 180.659 265.759C179.528 265.759 178.527 266.266 177.877 266.682L178.345 267.501C178.904 267.124 179.645 266.747 180.464 266.747C181.621 266.747 181.92 267.618 181.92 268.528C178.917 268.866 177.578 269.633 177.578 271.167C177.578 272.441 178.462 273.169 179.645 273.169ZM179.983 272.22C179.281 272.22 178.735 271.895 178.735 271.089C178.735 270.179 179.541 269.594 181.92 269.308V271.284C181.231 271.895 180.672 272.22 179.983 272.22ZM190.644 276.25C192.828 276.25 194.219 275.119 194.219 273.806C194.219 272.649 193.387 272.129 191.749 272.129H190.371C189.422 272.129 189.136 271.817 189.136 271.362C189.136 270.972 189.331 270.738 189.591 270.517C189.903 270.673 190.293 270.764 190.644 270.764C192.074 270.764 193.218 269.815 193.218 268.307C193.218 267.696 192.984 267.176 192.646 266.851H194.089V265.941H191.632C191.385 265.85 191.034 265.759 190.644 265.759C189.214 265.759 187.992 266.734 187.992 268.281C187.992 269.126 188.447 269.802 188.915 270.179V270.231C188.551 270.491 188.122 270.959 188.122 271.544C188.122 272.103 188.395 272.48 188.772 272.701V272.753C188.109 273.182 187.732 273.754 187.732 274.352C187.732 275.574 188.915 276.25 190.644 276.25ZM190.644 269.958C189.825 269.958 189.136 269.308 189.136 268.281C189.136 267.241 189.812 266.63 190.644 266.63C191.476 266.63 192.152 267.254 192.152 268.281C192.152 269.308 191.45 269.958 190.644 269.958ZM190.813 275.444C189.539 275.444 188.772 274.95 188.772 274.196C188.772 273.78 188.98 273.364 189.487 273C189.799 273.078 190.137 273.117 190.397 273.117H191.619C192.555 273.117 193.062 273.338 193.062 273.988C193.062 274.729 192.165 275.444 190.813 275.444ZM197.644 273.169C198.619 273.169 199.321 272.662 199.984 271.895H200.023L200.114 273H201.102V265.941H199.919V270.946C199.243 271.791 198.736 272.142 198.008 272.142C197.072 272.142 196.682 271.583 196.682 270.27V265.941H195.499V270.413C195.499 272.207 196.162 273.169 197.644 273.169ZM203.486 273H204.669V265.941H203.486V273ZM203.876 264.667L206.151 262.457L205.319 261.664L203.265 264.082L203.876 264.667ZM208.691 273.169C209.562 273.169 210.355 272.714 211.031 272.155H211.07L211.174 273H212.149V268.658C212.149 266.916 211.421 265.759 209.705 265.759C208.574 265.759 207.573 266.266 206.923 266.682L207.391 267.501C207.95 267.124 208.691 266.747 209.51 266.747C210.667 266.747 210.966 267.618 210.966 268.528C207.963 268.866 206.624 269.633 206.624 271.167C206.624 272.441 207.508 273.169 208.691 273.169ZM209.029 272.22C208.327 272.22 207.781 271.895 207.781 271.089C207.781 270.179 208.587 269.594 210.966 269.308V271.284C210.277 271.895 209.718 272.22 209.029 272.22ZM220.159 273.169C221.121 273.169 221.875 272.844 222.499 272.441L222.07 271.661C221.55 272.012 220.991 272.22 220.302 272.22C218.963 272.22 218.04 271.258 217.962 269.75H222.72C222.746 269.581 222.772 269.334 222.772 269.074C222.772 267.059 221.758 265.759 219.964 265.759C218.326 265.759 216.779 267.189 216.779 269.477C216.779 271.804 218.287 273.169 220.159 273.169ZM217.949 268.892C218.092 267.514 218.976 266.708 219.977 266.708C221.082 266.708 221.732 267.475 221.732 268.892H217.949ZM224.705 273H225.888V266.903H227.383V265.941H225.888V264.823C225.888 263.913 226.213 263.432 226.889 263.432C227.136 263.432 227.422 263.497 227.682 263.614L227.942 262.717C227.617 262.574 227.188 262.483 226.759 262.483C225.355 262.483 224.705 263.38 224.705 264.81V265.941L223.743 266.006V266.903H224.705V273ZM228.735 273H229.931V265.941H228.735V273ZM229.333 264.485C229.801 264.485 230.139 264.173 230.139 263.692C230.139 263.237 229.801 262.925 229.333 262.925C228.878 262.925 228.553 263.237 228.553 263.692C228.553 264.173 228.878 264.485 229.333 264.485ZM235.087 273.169C235.932 273.169 236.738 272.844 237.375 272.272L236.855 271.479C236.413 271.882 235.841 272.181 235.191 272.181C233.891 272.181 233.007 271.102 233.007 269.477C233.007 267.852 233.943 266.747 235.23 266.747C235.789 266.747 236.218 267.007 236.634 267.371L237.245 266.591C236.738 266.149 236.101 265.759 235.178 265.759C233.371 265.759 231.772 267.124 231.772 269.477C231.772 271.817 233.215 273.169 235.087 273.169ZM240.404 273.169C241.275 273.169 242.068 272.714 242.744 272.155H242.783L242.887 273H243.862V268.658C243.862 266.916 243.134 265.759 241.418 265.759C240.287 265.759 239.286 266.266 238.636 266.682L239.104 267.501C239.663 267.124 240.404 266.747 241.223 266.747C242.38 266.747 242.679 267.618 242.679 268.528C239.676 268.866 238.337 269.633 238.337 271.167C238.337 272.441 239.221 273.169 240.404 273.169ZM240.742 272.22C240.04 272.22 239.494 271.895 239.494 271.089C239.494 270.179 240.3 269.594 242.679 269.308V271.284C241.99 271.895 241.431 272.22 240.742 272.22ZM245.376 273H250.719V272.038H246.871L250.589 266.578V265.941H245.779V266.903H249.094L245.376 272.363V273ZM255.182 275.977H256.365V273.585L256.339 272.35C256.976 272.87 257.652 273.169 258.289 273.169C259.914 273.169 261.357 271.778 261.357 269.36C261.357 267.189 260.369 265.759 258.549 265.759C257.73 265.759 256.937 266.227 256.3 266.747H256.261L256.157 265.941H255.182V275.977ZM258.094 272.181C257.626 272.181 257.002 271.986 256.365 271.44V267.735C257.054 267.098 257.665 266.76 258.263 266.76C259.602 266.76 260.122 267.813 260.122 269.373C260.122 271.128 259.264 272.181 258.094 272.181ZM264.665 273.169C265.536 273.169 266.329 272.714 267.005 272.155H267.044L267.148 273H268.123V268.658C268.123 266.916 267.395 265.759 265.679 265.759C264.548 265.759 263.547 266.266 262.897 266.682L263.365 267.501C263.924 267.124 264.665 266.747 265.484 266.747C266.641 266.747 266.94 267.618 266.94 268.528C263.937 268.866 262.598 269.633 262.598 271.167C262.598 272.441 263.482 273.169 264.665 273.169ZM265.003 272.22C264.301 272.22 263.755 271.895 263.755 271.089C263.755 270.179 264.561 269.594 266.94 269.308V271.284C266.251 271.895 265.692 272.22 265.003 272.22ZM270.378 273H271.561V268.463C272.029 267.254 272.757 266.838 273.342 266.838C273.628 266.838 273.797 266.864 274.031 266.955L274.252 265.915C274.031 265.798 273.81 265.759 273.498 265.759C272.705 265.759 271.99 266.331 271.496 267.228H271.457L271.353 265.941H270.378V273ZM276.688 273.169C277.559 273.169 278.352 272.714 279.028 272.155H279.067L279.171 273H280.146V268.658C280.146 266.916 279.418 265.759 277.702 265.759C276.571 265.759 275.57 266.266 274.92 266.682L275.388 267.501C275.947 267.124 276.688 266.747 277.507 266.747C278.664 266.747 278.963 267.618 278.963 268.528C275.96 268.866 274.621 269.633 274.621 271.167C274.621 272.441 275.505 273.169 276.688 273.169ZM277.026 272.22C276.324 272.22 275.778 271.895 275.778 271.089C275.778 270.179 276.584 269.594 278.963 269.308V271.284C278.274 271.895 277.715 272.22 277.026 272.22ZM167.127 292.169C167.998 292.169 168.791 291.714 169.467 291.155H169.506L169.61 292H170.585V287.658C170.585 285.916 169.857 284.759 168.141 284.759C167.01 284.759 166.009 285.266 165.359 285.682L165.827 286.501C166.386 286.124 167.127 285.747 167.946 285.747C169.103 285.747 169.402 286.618 169.402 287.528C166.399 287.866 165.06 288.633 165.06 290.167C165.06 291.441 165.944 292.169 167.127 292.169ZM167.465 291.22C166.763 291.22 166.217 290.895 166.217 290.089C166.217 289.179 167.023 288.594 169.402 288.308V290.284C168.713 290.895 168.154 291.22 167.465 291.22ZM174.872 292.169C175.301 292.169 175.769 292.039 176.172 291.909L175.938 291.025C175.704 291.116 175.379 291.207 175.132 291.207C174.313 291.207 174.04 290.713 174.04 289.842V285.903H175.951V284.941H174.04V282.952H173.052L172.909 284.941L171.804 285.006V285.903H172.857V289.816C172.857 291.22 173.364 292.169 174.872 292.169ZM177.55 292H178.733V287.463C179.201 286.254 179.929 285.838 180.514 285.838C180.8 285.838 180.969 285.864 181.203 285.955L181.424 284.915C181.203 284.798 180.982 284.759 180.67 284.759C179.877 284.759 179.162 285.331 178.668 286.228H178.629L178.525 284.941H177.55V292ZM185.297 292.169C186.259 292.169 187.013 291.844 187.637 291.441L187.208 290.661C186.688 291.012 186.129 291.22 185.44 291.22C184.101 291.22 183.178 290.258 183.1 288.75H187.858C187.884 288.581 187.91 288.334 187.91 288.074C187.91 286.059 186.896 284.759 185.102 284.759C183.464 284.759 181.917 286.189 181.917 288.477C181.917 290.804 183.425 292.169 185.297 292.169ZM183.087 287.892C183.23 286.514 184.114 285.708 185.115 285.708C186.22 285.708 186.87 286.475 186.87 287.892H183.087ZM191.233 292H192.611L195.12 284.941H193.95L192.611 288.958C192.403 289.647 192.182 290.375 191.961 291.038H191.909C191.688 290.375 191.467 289.647 191.246 288.958L189.92 284.941H188.685L191.233 292ZM199.287 292.169C200.249 292.169 201.003 291.844 201.627 291.441L201.198 290.661C200.678 291.012 200.119 291.22 199.43 291.22C198.091 291.22 197.168 290.258 197.09 288.75H201.848C201.874 288.581 201.9 288.334 201.9 288.074C201.9 286.059 200.886 284.759 199.092 284.759C197.454 284.759 195.907 286.189 195.907 288.477C195.907 290.804 197.415 292.169 199.287 292.169ZM197.077 287.892C197.22 286.514 198.104 285.708 199.105 285.708C200.21 285.708 200.86 286.475 200.86 287.892H197.077ZM203.639 292H204.822V287.463C205.29 286.254 206.018 285.838 206.603 285.838C206.889 285.838 207.058 285.864 207.292 285.955L207.513 284.915C207.292 284.798 207.071 284.759 206.759 284.759C205.966 284.759 205.251 285.331 204.757 286.228H204.718L204.614 284.941H203.639V292ZM210.474 292.169C212.138 292.169 213.048 291.22 213.048 290.076C213.048 288.737 211.917 288.321 210.89 287.931C210.097 287.632 209.369 287.385 209.369 286.709C209.369 286.163 209.785 285.695 210.682 285.695C211.306 285.695 211.8 285.955 212.281 286.319L212.853 285.552C212.307 285.123 211.54 284.759 210.669 284.759C209.135 284.759 208.225 285.643 208.225 286.761C208.225 287.957 209.304 288.438 210.292 288.802C211.072 289.101 211.904 289.413 211.904 290.141C211.904 290.752 211.449 291.246 210.513 291.246C209.668 291.246 209.031 290.908 208.42 290.414L207.835 291.194C208.511 291.753 209.473 292.169 210.474 292.169ZM217.556 292.169C218.518 292.169 219.272 291.844 219.896 291.441L219.467 290.661C218.947 291.012 218.388 291.22 217.699 291.22C216.36 291.22 215.437 290.258 215.359 288.75H220.117C220.143 288.581 220.169 288.334 220.169 288.074C220.169 286.059 219.155 284.759 217.361 284.759C215.723 284.759 214.176 286.189 214.176 288.477C214.176 290.804 215.684 292.169 217.556 292.169ZM215.346 287.892C215.489 286.514 216.373 285.708 217.374 285.708C218.479 285.708 219.129 286.475 219.129 287.892H215.346ZM226.439 292.169C227.31 292.169 228.103 291.714 228.779 291.155H228.818L228.922 292H229.897V287.658C229.897 285.916 229.169 284.759 227.453 284.759C226.322 284.759 225.321 285.266 224.671 285.682L225.139 286.501C225.698 286.124 226.439 285.747 227.258 285.747C228.415 285.747 228.714 286.618 228.714 287.528C225.711 287.866 224.372 288.633 224.372 290.167C224.372 291.441 225.256 292.169 226.439 292.169ZM226.777 291.22C226.075 291.22 225.529 290.895 225.529 290.089C225.529 289.179 226.335 288.594 228.714 288.308V290.284C228.025 290.895 227.466 291.22 226.777 291.22ZM235.06 292H236.243V284.941H235.06V292ZM235.658 283.485C236.126 283.485 236.451 283.173 236.451 282.692C236.451 282.237 236.126 281.925 235.658 281.925C235.19 281.925 234.865 282.237 234.865 282.692C234.865 283.173 235.19 283.485 235.658 283.485ZM238.64 292H239.823V286.878C240.538 286.163 241.032 285.799 241.76 285.799C242.696 285.799 243.099 286.358 243.099 287.684V292H244.282V287.528C244.282 285.721 243.606 284.759 242.124 284.759C241.162 284.759 240.434 285.292 239.758 285.955H239.719L239.615 284.941H238.64V292ZM248.108 292H249.486L251.995 284.941H250.825L249.486 288.958C249.278 289.647 249.057 290.375 248.836 291.038H248.784C248.563 290.375 248.342 289.647 248.121 288.958L246.795 284.941H245.56L248.108 292ZM256.162 292.169C257.124 292.169 257.878 291.844 258.502 291.441L258.073 290.661C257.553 291.012 256.994 291.22 256.305 291.22C254.966 291.22 254.043 290.258 253.965 288.75H258.723C258.749 288.581 258.775 288.334 258.775 288.074C258.775 286.059 257.761 284.759 255.967 284.759C254.329 284.759 252.782 286.189 252.782 288.477C252.782 290.804 254.29 292.169 256.162 292.169ZM253.952 287.892C254.095 286.514 254.979 285.708 255.98 285.708C257.085 285.708 257.735 286.475 257.735 287.892H253.952ZM260.514 292H261.697V287.463C262.165 286.254 262.893 285.838 263.478 285.838C263.764 285.838 263.933 285.864 264.167 285.955L264.388 284.915C264.167 284.798 263.946 284.759 263.634 284.759C262.841 284.759 262.126 285.331 261.632 286.228H261.593L261.489 284.941H260.514V292ZM267.777 292.169C268.206 292.169 268.674 292.039 269.077 291.909L268.843 291.025C268.609 291.116 268.284 291.207 268.037 291.207C267.218 291.207 266.945 290.713 266.945 289.842V285.903H268.856V284.941H266.945V282.952H265.957L265.814 284.941L264.709 285.006V285.903H265.762V289.816C265.762 291.22 266.269 292.169 267.777 292.169ZM270.454 292H271.637V284.941H270.454V292ZM271.052 283.485C271.52 283.485 271.845 283.173 271.845 282.692C271.845 282.237 271.52 281.925 271.052 281.925C270.584 281.925 270.259 282.237 270.259 282.692C270.259 283.173 270.584 283.485 271.052 283.485ZM274.034 292H275.217V287.463C275.685 286.254 276.413 285.838 276.998 285.838C277.284 285.838 277.453 285.864 277.687 285.955L277.908 284.915C277.687 284.798 277.466 284.759 277.154 284.759C276.361 284.759 275.646 285.331 275.152 286.228H275.113L275.009 284.941H274.034V292Z" fill="#484545"/>
<path d="M223.121 208.765H233.769V210.971H223.121V208.765ZM223.121 205.088H233.769V207.294H223.121V205.088ZM223.121 212.441H233.769V214.647H223.121V212.441ZM235.291 197H207.908C207.101 197 206.327 197.31 205.756 197.861C205.186 198.413 204.865 199.161 204.865 199.941V219.059C204.865 219.839 205.186 220.587 205.756 221.139C206.327 221.69 207.101 222 207.908 222H235.291C236.098 222 236.872 221.69 237.442 221.139C238.013 220.587 238.333 219.839 238.333 219.059V199.941C238.333 199.161 238.013 198.413 237.442 197.861C236.872 197.31 236.098 197 235.291 197V197ZM235.291 219.059H221.599V199.941H235.291" fill="#D29890"/>
<path d="M25.3987 254H30.7677V252.973H26.6077V244.458H25.3987V254ZM35.0353 254.169C35.9973 254.169 36.7513 253.844 37.3753 253.441L36.9463 252.661C36.4263 253.012 35.8673 253.22 35.1783 253.22C33.8393 253.22 32.9163 252.258 32.8383 250.75H37.5963C37.6223 250.581 37.6483 250.334 37.6483 250.074C37.6483 248.059 36.6343 246.759 34.8403 246.759C33.2023 246.759 31.6553 248.189 31.6553 250.477C31.6553 252.804 33.1633 254.169 35.0353 254.169ZM32.8253 249.892C32.9683 248.514 33.8523 247.708 34.8533 247.708C35.9583 247.708 36.6083 248.475 36.6083 249.892H32.8253ZM41.2325 254.169C42.8965 254.169 43.8065 253.22 43.8065 252.076C43.8065 250.737 42.6755 250.321 41.6485 249.931C40.8555 249.632 40.1275 249.385 40.1275 248.709C40.1275 248.163 40.5435 247.695 41.4405 247.695C42.0645 247.695 42.5585 247.955 43.0395 248.319L43.6115 247.552C43.0655 247.123 42.2985 246.759 41.4275 246.759C39.8935 246.759 38.9835 247.643 38.9835 248.761C38.9835 249.957 40.0625 250.438 41.0505 250.802C41.8305 251.101 42.6625 251.413 42.6625 252.141C42.6625 252.752 42.2075 253.246 41.2715 253.246C40.4265 253.246 39.7895 252.908 39.1785 252.414L38.5935 253.194C39.2695 253.753 40.2315 254.169 41.2325 254.169ZM48.3748 254H49.5578V248.878C50.2728 248.163 50.7668 247.799 51.4948 247.799C52.4308 247.799 52.8338 248.358 52.8338 249.684V254H54.0168V249.528C54.0168 247.721 53.3408 246.759 51.8588 246.759C50.8968 246.759 50.1688 247.292 49.5188 247.942L49.5578 246.486V243.652H48.3748V254ZM57.8963 254.169C58.7673 254.169 59.5603 253.714 60.2363 253.155H60.2753L60.3793 254H61.3543V249.658C61.3543 247.916 60.6263 246.759 58.9103 246.759C57.7793 246.759 56.7783 247.266 56.1283 247.682L56.5963 248.501C57.1553 248.124 57.8963 247.747 58.7153 247.747C59.8723 247.747 60.1713 248.618 60.1713 249.528C57.1683 249.866 55.8293 250.633 55.8293 252.167C55.8293 253.441 56.7133 254.169 57.8963 254.169ZM58.2343 253.22C57.5323 253.22 56.9863 252.895 56.9863 252.089C56.9863 251.179 57.7923 250.594 60.1713 250.308V252.284C59.4823 252.895 58.9233 253.22 58.2343 253.22ZM66.3912 254.169C67.2362 254.169 68.0422 253.844 68.6792 253.272L68.1592 252.479C67.7172 252.882 67.1452 253.181 66.4952 253.181C65.1952 253.181 64.3112 252.102 64.3112 250.477C64.3112 248.852 65.2472 247.747 66.5342 247.747C67.0932 247.747 67.5222 248.007 67.9382 248.371L68.5492 247.591C68.0422 247.149 67.4052 246.759 66.4822 246.759C64.6752 246.759 63.0762 248.124 63.0762 250.477C63.0762 252.817 64.5192 254.169 66.3912 254.169ZM72.753 254.169C73.715 254.169 74.469 253.844 75.093 253.441L74.664 252.661C74.144 253.012 73.585 253.22 72.896 253.22C71.557 253.22 70.634 252.258 70.556 250.75H75.314C75.34 250.581 75.366 250.334 75.366 250.074C75.366 248.059 74.352 246.759 72.558 246.759C70.92 246.759 69.373 248.189 69.373 250.477C69.373 252.804 70.881 254.169 72.753 254.169ZM70.543 249.892C70.686 248.514 71.57 247.708 72.571 247.708C73.676 247.708 74.326 248.475 74.326 249.892H70.543ZM80.2065 254H81.3895V247.903H82.8845V246.941H81.3895V245.823C81.3895 244.913 81.7145 244.432 82.3905 244.432C82.6375 244.432 82.9235 244.497 83.1835 244.614L83.4435 243.717C83.1185 243.574 82.6895 243.483 82.2605 243.483C80.8565 243.483 80.2065 244.38 80.2065 245.81V246.941L79.2445 247.006V247.903H80.2065V254ZM85.5721 254.169C86.4431 254.169 87.2361 253.714 87.9121 253.155H87.9511L88.0551 254H89.0301V249.658C89.0301 247.916 88.3021 246.759 86.5861 246.759C85.4551 246.759 84.4541 247.266 83.8041 247.682L84.2721 248.501C84.8311 248.124 85.5721 247.747 86.3911 247.747C87.5481 247.747 87.8471 248.618 87.8471 249.528C84.8441 249.866 83.5051 250.633 83.5051 252.167C83.5051 253.441 84.3891 254.169 85.5721 254.169ZM85.9101 253.22C85.2081 253.22 84.6621 252.895 84.6621 252.089C84.6621 251.179 85.4681 250.594 87.8471 250.308V252.284C87.1581 252.895 86.5991 253.22 85.9101 253.22ZM92.533 254.169C92.858 254.169 93.053 254.13 93.222 254.065L93.053 253.155C92.923 253.181 92.871 253.181 92.806 253.181C92.624 253.181 92.468 253.038 92.468 252.674V243.652H91.285V252.596C91.285 253.597 91.649 254.169 92.533 254.169ZM97.215 254.169C97.644 254.169 98.112 254.039 98.515 253.909L98.281 253.025C98.047 253.116 97.722 253.207 97.475 253.207C96.656 253.207 96.383 252.713 96.383 251.842V247.903H98.294V246.941H96.383V244.952H95.395L95.252 246.941L94.147 247.006V247.903H95.2V251.816C95.2 253.22 95.707 254.169 97.215 254.169ZM101.2 254.169C102.071 254.169 102.864 253.714 103.54 253.155H103.579L103.683 254H104.658V249.658C104.658 247.916 103.93 246.759 102.214 246.759C101.083 246.759 100.082 247.266 99.432 247.682L99.9 248.501C100.459 248.124 101.2 247.747 102.019 247.747C103.176 247.747 103.475 248.618 103.475 249.528C100.472 249.866 99.133 250.633 99.133 252.167C99.133 253.441 100.017 254.169 101.2 254.169ZM101.538 253.22C100.836 253.22 100.29 252.895 100.29 252.089C100.29 251.179 101.096 250.594 103.475 250.308V252.284C102.786 252.895 102.227 253.22 101.538 253.22ZM8.56864 273H9.75164V265.941H8.56864V273ZM9.16664 264.485C9.63464 264.485 9.95964 264.173 9.95964 263.692C9.95964 263.237 9.63464 262.925 9.16664 262.925C8.69864 262.925 8.37364 263.237 8.37364 263.692C8.37364 264.173 8.69864 264.485 9.16664 264.485ZM12.1487 273H13.3317V267.878C14.0467 267.163 14.5407 266.799 15.2687 266.799C16.2047 266.799 16.6077 267.358 16.6077 268.684V273H17.7907V268.528C17.7907 266.721 17.1147 265.759 15.6327 265.759C14.6707 265.759 13.9427 266.292 13.2667 266.955H13.2277L13.1237 265.941H12.1487V273ZM20.291 273H21.474V266.903H22.969V265.941H21.474V264.823C21.474 263.913 21.799 263.432 22.475 263.432C22.722 263.432 23.008 263.497 23.268 263.614L23.528 262.717C23.203 262.574 22.774 262.483 22.345 262.483C20.941 262.483 20.291 263.38 20.291 264.81V265.941L19.329 266.006V266.903H20.291V273ZM26.9269 273.169C28.6559 273.169 30.2029 271.817 30.2029 269.477C30.2029 267.124 28.6559 265.759 26.9269 265.759C25.1979 265.759 23.6509 267.124 23.6509 269.477C23.6509 271.817 25.1979 273.169 26.9269 273.169ZM26.9269 272.181C25.7049 272.181 24.8859 271.102 24.8859 269.477C24.8859 267.852 25.7049 266.747 26.9269 266.747C28.1489 266.747 28.9809 267.852 28.9809 269.477C28.9809 271.102 28.1489 272.181 26.9269 272.181ZM32.0677 273H33.2507V268.463C33.7187 267.254 34.4467 266.838 35.0317 266.838C35.3177 266.838 35.4867 266.864 35.7207 266.955L35.9417 265.915C35.7207 265.798 35.4997 265.759 35.1877 265.759C34.3947 265.759 33.6797 266.331 33.1857 267.228H33.1467L33.0427 265.941H32.0677V273ZM37.1077 273H38.2907V267.878C38.9407 267.15 39.5387 266.799 40.0717 266.799C40.9687 266.799 41.3847 267.358 41.3847 268.684V273H42.5677V267.878C43.2307 267.15 43.8027 266.799 44.3487 266.799C45.2457 266.799 45.6617 267.358 45.6617 268.684V273H46.8447V268.528C46.8447 266.721 46.1557 265.759 44.6997 265.759C43.8417 265.759 43.1007 266.318 42.3727 267.111C42.0867 266.279 41.5017 265.759 40.4227 265.759C39.5777 265.759 38.8367 266.292 38.2257 266.968H38.1867L38.0827 265.941H37.1077V273ZM50.7679 273.169C51.6389 273.169 52.4319 272.714 53.1079 272.155H53.1469L53.2509 273H54.2259V268.658C54.2259 266.916 53.4979 265.759 51.7819 265.759C50.6509 265.759 49.6499 266.266 48.9999 266.682L49.4679 267.501C50.0269 267.124 50.7679 266.747 51.5869 266.747C52.7439 266.747 53.0429 267.618 53.0429 268.528C50.0399 268.866 48.7009 269.633 48.7009 271.167C48.7009 272.441 49.5849 273.169 50.7679 273.169ZM51.1059 272.22C50.4039 272.22 49.8579 271.895 49.8579 271.089C49.8579 270.179 50.6639 269.594 53.0429 269.308V271.284C52.3539 271.895 51.7949 272.22 51.1059 272.22ZM59.2628 273.169C60.1078 273.169 60.9138 272.844 61.5508 272.272L61.0308 271.479C60.5888 271.882 60.0168 272.181 59.3668 272.181C58.0668 272.181 57.1828 271.102 57.1828 269.477C57.1828 267.852 58.1188 266.747 59.4058 266.747C59.9648 266.747 60.3938 267.007 60.8098 267.371L61.4208 266.591C60.9138 266.149 60.2768 265.759 59.3538 265.759C57.5468 265.759 55.9478 267.124 55.9478 269.477C55.9478 271.817 57.3908 273.169 59.2628 273.169ZM63.095 273H64.278V265.941H63.095V273ZM63.693 264.485C64.161 264.485 64.486 264.173 64.486 263.692C64.486 263.237 64.161 262.925 63.693 262.925C63.225 262.925 62.9 263.237 62.9 263.692C62.9 264.173 63.225 264.485 63.693 264.485ZM69.4181 273.169C71.1471 273.169 72.6941 271.817 72.6941 269.477C72.6941 267.124 71.1471 265.759 69.4181 265.759C67.6891 265.759 66.1421 267.124 66.1421 269.477C66.1421 271.817 67.6891 273.169 69.4181 273.169ZM69.4181 272.181C68.1961 272.181 67.3771 271.102 67.3771 269.477C67.3771 267.852 68.1961 266.747 69.4181 266.747C70.6401 266.747 71.4721 267.852 71.4721 269.477C71.4721 271.102 70.6401 272.181 69.4181 272.181ZM69.2101 264.667L71.4851 262.457L70.6531 261.664L68.5991 264.082L69.2101 264.667ZM74.5589 273H75.7419V267.878C76.4569 267.163 76.9509 266.799 77.6789 266.799C78.6149 266.799 79.0179 267.358 79.0179 268.684V273H80.2009V268.528C80.2009 266.721 79.5249 265.759 78.0429 265.759C77.0809 265.759 76.3529 266.292 75.6769 266.955H75.6379L75.5339 265.941H74.5589V273ZM87.8184 273.169C88.6634 273.169 89.4044 272.714 89.9634 272.168H90.0024L90.1064 273H91.0684V262.652H89.8984V265.369L89.9504 266.591C89.3264 266.071 88.7934 265.759 87.9614 265.759C86.3494 265.759 84.9064 267.189 84.9064 269.477C84.9064 271.83 86.0504 273.169 87.8184 273.169ZM88.0784 272.181C86.8304 272.181 86.1284 271.167 86.1284 269.464C86.1284 267.852 87.0254 266.76 88.1694 266.76C88.7544 266.76 89.2874 266.968 89.8984 267.501V271.206C89.3004 271.856 88.7284 272.181 88.0784 272.181ZM96.3219 273.169C97.2839 273.169 98.0379 272.844 98.6619 272.441L98.2329 271.661C97.7129 272.012 97.1539 272.22 96.4649 272.22C95.1259 272.22 94.2029 271.258 94.1249 269.75H98.8829C98.9089 269.581 98.9349 269.334 98.9349 269.074C98.9349 267.059 97.9209 265.759 96.1269 265.759C94.4889 265.759 92.9419 267.189 92.9419 269.477C92.9419 271.804 94.4499 273.169 96.3219 273.169ZM94.1119 268.892C94.2549 267.514 95.1389 266.708 96.1399 266.708C97.2449 266.708 97.8949 267.475 97.8949 268.892H94.1119ZM105.426 273.169C107.09 273.169 108 272.22 108 271.076C108 269.737 106.869 269.321 105.842 268.931C105.049 268.632 104.321 268.385 104.321 267.709C104.321 267.163 104.737 266.695 105.634 266.695C106.258 266.695 106.752 266.955 107.233 267.319L107.805 266.552C107.259 266.123 106.492 265.759 105.621 265.759C104.087 265.759 103.177 266.643 103.177 267.761C103.177 268.957 104.256 269.438 105.244 269.802C106.024 270.101 106.856 270.413 106.856 271.141C106.856 271.752 106.401 272.246 105.465 272.246C104.62 272.246 103.983 271.908 103.372 271.414L102.787 272.194C103.463 272.753 104.425 273.169 105.426 273.169ZM111.715 273.169C112.69 273.169 113.392 272.662 114.055 271.895H114.094L114.185 273H115.173V265.941H113.99V270.946C113.314 271.791 112.807 272.142 112.079 272.142C111.143 272.142 110.753 271.583 110.753 270.27V265.941H109.57V270.413C109.57 272.207 110.233 273.169 111.715 273.169ZM119.404 273.169C121.068 273.169 121.978 272.22 121.978 271.076C121.978 269.737 120.847 269.321 119.82 268.931C119.027 268.632 118.299 268.385 118.299 267.709C118.299 267.163 118.715 266.695 119.612 266.695C120.236 266.695 120.73 266.955 121.211 267.319L121.783 266.552C121.237 266.123 120.47 265.759 119.599 265.759C118.065 265.759 117.155 266.643 117.155 267.761C117.155 268.957 118.234 269.438 119.222 269.802C120.002 270.101 120.834 270.413 120.834 271.141C120.834 271.752 120.379 272.246 119.443 272.246C118.598 272.246 117.961 271.908 117.35 271.414L116.765 272.194C117.441 272.753 118.403 273.169 119.404 273.169ZM7.08964 294.977H8.27264V292.585L8.24664 291.35C8.88364 291.87 9.55964 292.169 10.1966 292.169C11.8216 292.169 13.2646 290.778 13.2646 288.36C13.2646 286.189 12.2766 284.759 10.4566 284.759C9.63764 284.759 8.84464 285.227 8.20764 285.747H8.16864L8.06464 284.941H7.08964V294.977ZM10.0016 291.181C9.53364 291.181 8.90964 290.986 8.27264 290.44V286.735C8.96164 286.098 9.57264 285.76 10.1706 285.76C11.5096 285.76 12.0296 286.813 12.0296 288.373C12.0296 290.128 11.1716 291.181 10.0016 291.181ZM15.1512 292H16.3342V287.463C16.8022 286.254 17.5302 285.838 18.1152 285.838C18.4012 285.838 18.5702 285.864 18.8042 285.955L19.0252 284.915C18.8042 284.798 18.5832 284.759 18.2712 284.759C17.4782 284.759 16.7632 285.331 16.2692 286.228H16.2302L16.1262 284.941H15.1512V292ZM22.7946 292.169C24.5236 292.169 26.0706 290.817 26.0706 288.477C26.0706 286.124 24.5236 284.759 22.7946 284.759C21.0656 284.759 19.5186 286.124 19.5186 288.477C19.5186 290.817 21.0656 292.169 22.7946 292.169ZM22.7946 291.181C21.5726 291.181 20.7536 290.102 20.7536 288.477C20.7536 286.852 21.5726 285.747 22.7946 285.747C24.0166 285.747 24.8486 286.852 24.8486 288.477C24.8486 290.102 24.0166 291.181 22.7946 291.181ZM27.9353 294.977H29.1183V292.585L29.0923 291.35C29.7293 291.87 30.4053 292.169 31.0423 292.169C32.6673 292.169 34.1103 290.778 34.1103 288.36C34.1103 286.189 33.1223 284.759 31.3023 284.759C30.4833 284.759 29.6903 285.227 29.0533 285.747H29.0143L28.9103 284.941H27.9353V294.977ZM30.8473 291.181C30.3793 291.181 29.7553 290.986 29.1183 290.44V286.735C29.8073 286.098 30.4183 285.76 31.0163 285.76C32.3553 285.76 32.8753 286.813 32.8753 288.373C32.8753 290.128 32.0173 291.181 30.8473 291.181ZM35.9969 292H37.1799V284.941H35.9969V292ZM36.5949 283.485C37.0629 283.485 37.3879 283.173 37.3879 282.692C37.3879 282.237 37.0629 281.925 36.5949 281.925C36.1269 281.925 35.8019 282.237 35.8019 282.692C35.8019 283.173 36.1269 283.485 36.5949 283.485ZM41.2019 292.169C42.0729 292.169 42.8659 291.714 43.5419 291.155H43.5809L43.6849 292H44.6599V287.658C44.6599 285.916 43.9319 284.759 42.2159 284.759C41.0849 284.759 40.0839 285.266 39.4339 285.682L39.9019 286.501C40.4609 286.124 41.2019 285.747 42.0209 285.747C43.1779 285.747 43.4769 286.618 43.4769 287.528C40.4739 287.866 39.1349 288.633 39.1349 290.167C39.1349 291.441 40.0189 292.169 41.2019 292.169ZM41.5399 291.22C40.8379 291.22 40.2919 290.895 40.2919 290.089C40.2919 289.179 41.0979 288.594 43.4769 288.308V290.284C42.7879 290.895 42.2289 291.22 41.5399 291.22ZM48.7608 292.169C50.4248 292.169 51.3348 291.22 51.3348 290.076C51.3348 288.737 50.2038 288.321 49.1768 287.931C48.3838 287.632 47.6558 287.385 47.6558 286.709C47.6558 286.163 48.0718 285.695 48.9688 285.695C49.5928 285.695 50.0868 285.955 50.5678 286.319L51.1398 285.552C50.5938 285.123 49.8268 284.759 48.9558 284.759C47.4218 284.759 46.5118 285.643 46.5118 286.761C46.5118 287.957 47.5908 288.438 48.5788 288.802C49.3588 289.101 50.1908 289.413 50.1908 290.141C50.1908 290.752 49.7358 291.246 48.7998 291.246C47.9548 291.246 47.3178 290.908 46.7068 290.414L46.1218 291.194C46.7978 291.753 47.7598 292.169 48.7608 292.169ZM55.9031 292H57.0861V284.941H55.9031V292ZM56.5011 283.485C56.9691 283.485 57.2941 283.173 57.2941 282.692C57.2941 282.237 56.9691 281.925 56.5011 281.925C56.0331 281.925 55.7081 282.237 55.7081 282.692C55.7081 283.173 56.0331 283.485 56.5011 283.485ZM59.4832 292H60.6662V286.878C61.3812 286.163 61.8752 285.799 62.6032 285.799C63.5392 285.799 63.9422 286.358 63.9422 287.684V292H65.1252V287.528C65.1252 285.721 64.4492 284.759 62.9672 284.759C62.0052 284.759 61.2772 285.292 60.6012 285.955H60.5622L60.4582 284.941H59.4832V292ZM68.9515 292H70.3295L72.8385 284.941H71.6685L70.3295 288.958C70.1215 289.647 69.9005 290.375 69.6795 291.038H69.6275C69.4065 290.375 69.1855 289.647 68.9645 288.958L67.6385 284.941H66.4035L68.9515 292ZM77.006 292.169C77.968 292.169 78.722 291.844 79.346 291.441L78.917 290.661C78.397 291.012 77.838 291.22 77.149 291.22C75.81 291.22 74.887 290.258 74.809 288.75H79.567C79.593 288.581 79.619 288.334 79.619 288.074C79.619 286.059 78.605 284.759 76.811 284.759C75.173 284.759 73.626 286.189 73.626 288.477C73.626 290.804 75.134 292.169 77.006 292.169ZM74.796 287.892C74.939 286.514 75.823 285.708 76.824 285.708C77.929 285.708 78.579 286.475 78.579 287.892H74.796ZM81.3572 292H82.5402V287.463C83.0082 286.254 83.7362 285.838 84.3212 285.838C84.6072 285.838 84.7762 285.864 85.0102 285.955L85.2312 284.915C85.0102 284.798 84.7892 284.759 84.4772 284.759C83.6842 284.759 82.9692 285.331 82.4752 286.228H82.4362L82.3322 284.941H81.3572V292ZM88.1925 292.169C89.8565 292.169 90.7665 291.22 90.7665 290.076C90.7665 288.737 89.6355 288.321 88.6085 287.931C87.8155 287.632 87.0875 287.385 87.0875 286.709C87.0875 286.163 87.5035 285.695 88.4005 285.695C89.0245 285.695 89.5185 285.955 89.9995 286.319L90.5715 285.552C90.0255 285.123 89.2585 284.759 88.3875 284.759C86.8535 284.759 85.9435 285.643 85.9435 286.761C85.9435 287.957 87.0225 288.438 88.0105 288.802C88.7905 289.101 89.6225 289.413 89.6225 290.141C89.6225 290.752 89.1675 291.246 88.2315 291.246C87.3865 291.246 86.7495 290.908 86.1385 290.414L85.5535 291.194C86.2295 291.753 87.1915 292.169 88.1925 292.169ZM92.4275 292H93.6105V284.941H92.4275V292ZM93.0255 283.485C93.4935 283.485 93.8185 283.173 93.8185 282.692C93.8185 282.237 93.4935 281.925 93.0255 281.925C92.5575 281.925 92.2325 282.237 92.2325 282.692C92.2325 283.173 92.5575 283.485 93.0255 283.485ZM98.7506 292.169C100.48 292.169 102.027 290.817 102.027 288.477C102.027 286.124 100.48 284.759 98.7506 284.759C97.0216 284.759 95.4746 286.124 95.4746 288.477C95.4746 290.817 97.0216 292.169 98.7506 292.169ZM98.7506 291.181C97.5286 291.181 96.7096 290.102 96.7096 288.477C96.7096 286.852 97.5286 285.747 98.7506 285.747C99.9726 285.747 100.805 286.852 100.805 288.477C100.805 290.102 99.9726 291.181 98.7506 291.181ZM103.891 292H105.074V286.878C105.789 286.163 106.283 285.799 107.011 285.799C107.947 285.799 108.35 286.358 108.35 287.684V292H109.533V287.528C109.533 285.721 108.857 284.759 107.375 284.759C106.413 284.759 105.685 285.292 105.009 285.955H104.97L104.866 284.941H103.891V292ZM114.686 292.169C115.648 292.169 116.402 291.844 117.026 291.441L116.597 290.661C116.077 291.012 115.518 291.22 114.829 291.22C113.49 291.22 112.567 290.258 112.489 288.75H117.247C117.273 288.581 117.299 288.334 117.299 288.074C117.299 286.059 116.285 284.759 114.491 284.759C112.853 284.759 111.306 286.189 111.306 288.477C111.306 290.804 112.814 292.169 114.686 292.169ZM112.476 287.892C112.619 286.514 113.503 285.708 114.504 285.708C115.609 285.708 116.259 286.475 116.259 287.892H112.476ZM120.883 292.169C122.547 292.169 123.457 291.22 123.457 290.076C123.457 288.737 122.326 288.321 121.299 287.931C120.506 287.632 119.778 287.385 119.778 286.709C119.778 286.163 120.194 285.695 121.091 285.695C121.715 285.695 122.209 285.955 122.69 286.319L123.262 285.552C122.716 285.123 121.949 284.759 121.078 284.759C119.544 284.759 118.634 285.643 118.634 286.761C118.634 287.957 119.713 288.438 120.701 288.802C121.481 289.101 122.313 289.413 122.313 290.141C122.313 290.752 121.858 291.246 120.922 291.246C120.077 291.246 119.44 290.908 118.829 290.414L118.244 291.194C118.92 291.753 119.882 292.169 120.883 292.169Z" fill="#484545"/>
<path d="M53.6343 209.273H59.0694V222H53.6343V209.273ZM63.1457 210.545H68.5808V222H63.1457V210.545ZM72.6571 204.182H78.0922V222H72.6571V204.182ZM72.6571 194H78.0922V199.091H76.7334V196.622L65.8225 206.842L60.4282 201.789L54.1778 207.644L52.7375 206.295L60.4282 199.091L65.8225 204.144L75.2931 195.273H72.6571V194Z" fill="#D29890"/>
</svg>
