<svg width="287" height="118" viewBox="0 0 287 118" fill="none" xmlns="http://www.w3.org/2000/svg">
<path d="M88.5344 16H95.5094V14.14H90.7544V11.17H94.6544V9.31H90.7544V6.745H95.3444V4.885H88.5344V16ZM101.161 16H107.896V14.14H103.381V4.885H101.161V16ZM116.63 16H119.795C123.065 16 125.165 14.14 125.165 10.405C125.165 6.655 123.065 4.885 119.675 4.885H116.63V16ZM118.85 14.215V6.67H119.54C121.61 6.67 122.9 7.69 122.9 10.405C122.9 13.105 121.61 14.215 119.54 14.215H118.85ZM130.737 16H137.712V14.14H132.957V11.17H136.857V9.31H132.957V6.745H137.547V4.885H130.737V16ZM146.679 16.21C149.244 16.21 150.759 14.665 150.759 12.85C150.759 11.245 149.874 10.39 148.524 9.835L147.069 9.22C146.124 8.845 145.344 8.56 145.344 7.765C145.344 7.03 145.959 6.595 146.934 6.595C147.849 6.595 148.584 6.925 149.289 7.51L150.414 6.115C149.514 5.2 148.224 4.69 146.934 4.69C144.684 4.69 143.094 6.085 143.094 7.9C143.094 9.52 144.219 10.42 145.344 10.885L146.829 11.515C147.819 11.935 148.494 12.19 148.494 13.015C148.494 13.795 147.879 14.29 146.724 14.29C145.749 14.29 144.699 13.795 143.904 13.06L142.629 14.59C143.709 15.625 145.194 16.21 146.679 16.21ZM158.537 10.21C158.867 9.055 159.197 7.795 159.482 6.58H159.557C159.872 7.78 160.172 9.055 160.517 10.21L160.847 11.425H158.207L158.537 10.21ZM154.697 16H156.947L157.727 13.15H161.327L162.107 16H164.432L160.862 4.885H158.252L154.697 16ZM169.13 16H171.35V11.5H175.295V9.64H171.35V6.745H175.97V4.885H169.13V16ZM181.303 16H183.523V4.885H181.303V16ZM182.233 4.345L185.203 2.35L184.033 0.909999L181.243 3.235L182.233 4.345ZM194.063 16.21C197.003 16.21 199.028 14.005 199.028 10.405C199.028 6.805 197.003 4.69 194.063 4.69C191.123 4.69 189.098 6.79 189.098 10.405C189.098 14.005 191.123 16.21 194.063 16.21ZM194.063 14.29C192.413 14.29 191.363 12.775 191.363 10.405C191.363 8.02 192.413 6.595 194.063 6.595C195.713 6.595 196.763 8.02 196.763 10.405C196.763 12.775 195.713 14.29 194.063 14.29Z" fill="#D29890"/>
<path d="M23.8842 60.821C24.9632 60.821 25.8342 60.301 26.4712 59.573L25.6262 58.806C25.1842 59.287 24.6642 59.599 24.0532 59.599C23.2342 59.599 22.7792 59.053 22.7792 58.325C22.7792 56.908 25.0412 56.076 24.7422 53.892H23.4162C23.6372 55.842 21.3362 56.557 21.3362 58.429C21.3362 59.963 22.3762 60.821 23.8842 60.821ZM24.0532 52.774C24.6252 52.774 25.0672 52.332 25.0672 51.721C25.0672 51.11 24.6252 50.668 24.0532 50.668C23.4942 50.668 23.0652 51.11 23.0652 51.721C23.0652 52.332 23.4942 52.774 24.0532 52.774ZM31.2 58.169C32.435 58.169 33.41 57.675 34.177 56.791L33.371 55.842C32.799 56.466 32.136 56.856 31.252 56.856C29.562 56.856 28.496 55.465 28.496 53.19C28.496 50.941 29.64 49.563 31.291 49.563C32.071 49.563 32.669 49.914 33.163 50.421L33.982 49.459C33.397 48.822 32.461 48.25 31.265 48.25C28.847 48.25 26.949 50.122 26.949 53.242C26.949 56.375 28.795 58.169 31.2 58.169ZM38.6033 58.169C40.3713 58.169 41.9703 56.804 41.9703 54.425C41.9703 52.046 40.3713 50.668 38.6033 50.668C36.8353 50.668 35.2363 52.046 35.2363 54.425C35.2363 56.804 36.8353 58.169 38.6033 58.169ZM38.6033 56.947C37.4853 56.947 36.7833 55.946 36.7833 54.425C36.7833 52.917 37.4853 51.903 38.6033 51.903C39.7343 51.903 40.4363 52.917 40.4363 54.425C40.4363 55.946 39.7343 56.947 38.6033 56.947ZM38.5123 49.628L40.9173 47.366L39.8773 46.378L37.7453 48.887L38.5123 49.628ZM43.7287 58H45.2237V52.93C45.8087 52.28 46.3417 51.955 46.8227 51.955C47.6417 51.955 48.0187 52.449 48.0187 53.684V58H49.5137V52.93C50.1117 52.28 50.6317 51.955 51.1257 51.955C51.9317 51.955 52.3217 52.449 52.3217 53.684V58H53.8167V53.502C53.8167 51.682 53.1147 50.668 51.6197 50.668C50.7227 50.668 49.9947 51.227 49.2927 51.981C48.9807 51.162 48.3827 50.668 47.3167 50.668C46.4327 50.668 45.7177 51.201 45.1067 51.851H45.0677L44.9507 50.85H43.7287V58ZM58.8396 58.169C60.6076 58.169 62.2066 56.804 62.2066 54.425C62.2066 52.046 60.6076 50.668 58.8396 50.668C57.0716 50.668 55.4726 52.046 55.4726 54.425C55.4726 56.804 57.0716 58.169 58.8396 58.169ZM58.8396 56.947C57.7216 56.947 57.0196 55.946 57.0196 54.425C57.0196 52.917 57.7216 51.903 58.8396 51.903C59.9706 51.903 60.6726 52.917 60.6726 54.425C60.6726 55.946 59.9706 56.947 58.8396 56.947ZM68.5749 58.169C69.4329 58.169 70.1999 57.74 70.8499 57.181H70.9019L71.0189 58H72.2409V53.697C72.2409 51.799 71.4219 50.668 69.6409 50.668C68.4969 50.668 67.4959 51.136 66.7549 51.604L67.3139 52.618C67.9249 52.228 68.6269 51.89 69.3809 51.89C70.4339 51.89 70.7329 52.618 70.7459 53.45C67.7689 53.775 66.4689 54.568 66.4689 56.102C66.4689 57.363 67.3399 58.169 68.5749 58.169ZM69.0299 56.986C68.3929 56.986 67.9119 56.7 67.9119 55.998C67.9119 55.192 68.6269 54.646 70.7459 54.399V56.154C70.1609 56.687 69.6539 56.986 69.0299 56.986ZM74.6874 60.99C76.1954 60.99 76.9494 59.963 77.5084 58.429L80.1344 50.85H78.6784L77.5344 54.529C77.3524 55.179 77.1574 55.894 76.9754 56.544H76.9104C76.6894 55.881 76.4684 55.166 76.2604 54.529L74.9344 50.85H73.4004L76.2344 57.948L76.0914 58.442C75.8314 59.209 75.3764 59.781 74.5964 59.781C74.4144 59.781 74.2064 59.716 74.0764 59.677L73.7904 60.847C74.0374 60.938 74.3234 60.99 74.6874 60.99ZM83.5397 58.169C84.5147 58.169 85.2167 57.675 85.8667 56.921H85.9057L86.0227 58H87.2447V50.85H85.7497V55.816C85.1517 56.57 84.6967 56.882 84.0337 56.882C83.1887 56.882 82.8377 56.388 82.8377 55.166V50.85H81.3427V55.348C81.3427 57.168 82.0057 58.169 83.5397 58.169ZM91.9653 58.169C92.7713 58.169 93.5123 57.74 94.0453 57.194H94.0973L94.2143 58H95.4363V47.639H93.9413V50.291L94.0063 51.474C93.4213 50.98 92.9013 50.668 92.0823 50.668C90.4833 50.668 89.0143 52.111 89.0143 54.425C89.0143 56.804 90.1713 58.169 91.9653 58.169ZM92.3163 56.934C91.1983 56.934 90.5613 56.037 90.5613 54.412C90.5613 52.865 91.3673 51.916 92.3683 51.916C92.9013 51.916 93.4083 52.085 93.9413 52.566V56.063C93.4213 56.661 92.9143 56.934 92.3163 56.934ZM99.3737 58.169C100.232 58.169 100.999 57.74 101.649 57.181H101.701L101.818 58H103.04V53.697C103.04 51.799 102.221 50.668 100.44 50.668C99.2957 50.668 98.2947 51.136 97.5537 51.604L98.1127 52.618C98.7237 52.228 99.4257 51.89 100.18 51.89C101.233 51.89 101.532 52.618 101.545 53.45C98.5677 53.775 97.2677 54.568 97.2677 56.102C97.2677 57.363 98.1387 58.169 99.3737 58.169ZM99.8287 56.986C99.1917 56.986 98.7107 56.7 98.7107 55.998C98.7107 55.192 99.4257 54.646 101.545 54.399V56.154C100.96 56.687 100.453 56.986 99.8287 56.986ZM105.161 58H106.656V53.541C107.098 52.41 107.8 52.007 108.385 52.007C108.671 52.007 108.853 52.046 109.1 52.124L109.373 50.824C109.152 50.72 108.918 50.668 108.567 50.668C107.8 50.668 107.046 51.214 106.539 52.137H106.5L106.383 50.85H105.161V58ZM115.091 58.169C115.949 58.169 116.716 57.74 117.366 57.181H117.418L117.535 58H118.757V53.697C118.757 51.799 117.938 50.668 116.157 50.668C115.013 50.668 114.012 51.136 113.271 51.604L113.83 52.618C114.441 52.228 115.143 51.89 115.897 51.89C116.95 51.89 117.249 52.618 117.262 53.45C114.285 53.775 112.985 54.568 112.985 56.102C112.985 57.363 113.856 58.169 115.091 58.169ZM115.546 56.986C114.909 56.986 114.428 56.7 114.428 55.998C114.428 55.192 115.143 54.646 117.262 54.399V56.154C116.677 56.687 116.17 56.986 115.546 56.986ZM125.28 58.169C125.657 58.169 125.904 58.117 126.086 58.052L125.891 56.921C125.761 56.947 125.709 56.947 125.644 56.947C125.462 56.947 125.293 56.804 125.293 56.401V47.639H123.798V56.323C123.798 57.48 124.201 58.169 125.28 58.169ZM130.53 58.169C132.298 58.169 133.897 56.804 133.897 54.425C133.897 52.046 132.298 50.668 130.53 50.668C128.762 50.668 127.163 52.046 127.163 54.425C127.163 56.804 128.762 58.169 130.53 58.169ZM130.53 56.947C129.412 56.947 128.71 55.946 128.71 54.425C128.71 52.917 129.412 51.903 130.53 51.903C131.661 51.903 132.363 52.917 132.363 54.425C132.363 55.946 131.661 56.947 130.53 56.947ZM137.554 58.169C139.322 58.169 140.271 57.194 140.271 55.998C140.271 54.646 139.166 54.204 138.165 53.827C137.385 53.541 136.683 53.307 136.683 52.696C136.683 52.202 137.047 51.812 137.84 51.812C138.425 51.812 138.932 52.072 139.426 52.436L140.128 51.513C139.556 51.058 138.763 50.668 137.814 50.668C136.228 50.668 135.266 51.565 135.266 52.761C135.266 53.97 136.319 54.477 137.281 54.841C138.048 55.14 138.854 55.426 138.854 56.076C138.854 56.622 138.451 57.038 137.593 57.038C136.826 57.038 136.202 56.713 135.565 56.219L134.863 57.181C135.565 57.753 136.566 58.169 137.554 58.169ZM144.783 58H146.278V50.85H144.783V58ZM145.524 49.511C146.07 49.511 146.46 49.16 146.46 48.614C146.46 48.081 146.07 47.73 145.524 47.73C144.978 47.73 144.601 48.081 144.601 48.614C144.601 49.16 144.978 49.511 145.524 49.511ZM148.516 58H150.011V52.93C150.635 52.293 151.09 51.955 151.753 51.955C152.598 51.955 152.962 52.449 152.962 53.684V58H154.457V53.502C154.457 51.682 153.781 50.668 152.26 50.668C151.285 50.668 150.557 51.201 149.894 51.838H149.855L149.738 50.85H148.516V58ZM158.201 58H159.93L162.4 50.85H160.944L159.722 54.698C159.527 55.4 159.306 56.128 159.098 56.83H159.046C158.838 56.128 158.63 55.4 158.422 54.698L157.2 50.85H155.666L158.201 58ZM166.613 58.169C167.549 58.169 168.368 57.857 169.031 57.415L168.511 56.466C167.991 56.804 167.445 56.999 166.808 56.999C165.573 56.999 164.715 56.18 164.598 54.815H169.239C169.278 54.633 169.317 54.347 169.317 54.048C169.317 52.033 168.29 50.668 166.392 50.668C164.728 50.668 163.129 52.111 163.129 54.425C163.129 56.791 164.676 58.169 166.613 58.169ZM164.585 53.775C164.728 52.527 165.521 51.838 166.418 51.838C167.458 51.838 168.017 52.553 168.017 53.775H164.585ZM170.986 58H172.481V53.541C172.923 52.41 173.625 52.007 174.21 52.007C174.496 52.007 174.678 52.046 174.925 52.124L175.198 50.824C174.977 50.72 174.743 50.668 174.392 50.668C173.625 50.668 172.871 51.214 172.364 52.137H172.325L172.208 50.85H170.986V58ZM178.167 58.169C179.935 58.169 180.884 57.194 180.884 55.998C180.884 54.646 179.779 54.204 178.778 53.827C177.998 53.541 177.296 53.307 177.296 52.696C177.296 52.202 177.66 51.812 178.453 51.812C179.038 51.812 179.545 52.072 180.039 52.436L180.741 51.513C180.169 51.058 179.376 50.668 178.427 50.668C176.841 50.668 175.879 51.565 175.879 52.761C175.879 53.97 176.932 54.477 177.894 54.841C178.661 55.14 179.467 55.426 179.467 56.076C179.467 56.622 179.064 57.038 178.206 57.038C177.439 57.038 176.815 56.713 176.178 56.219L175.476 57.181C176.178 57.753 177.179 58.169 178.167 58.169ZM182.476 58H183.971V50.85H182.476V58ZM183.217 49.511C183.763 49.511 184.153 49.16 184.153 48.614C184.153 48.081 183.763 47.73 183.217 47.73C182.671 47.73 182.294 48.081 182.294 48.614C182.294 49.16 182.671 49.511 183.217 49.511ZM189.068 58.169C190.836 58.169 192.435 56.804 192.435 54.425C192.435 52.046 190.836 50.668 189.068 50.668C187.3 50.668 185.701 52.046 185.701 54.425C185.701 56.804 187.3 58.169 189.068 58.169ZM189.068 56.947C187.95 56.947 187.248 55.946 187.248 54.425C187.248 52.917 187.95 51.903 189.068 51.903C190.199 51.903 190.901 52.917 190.901 54.425C190.901 55.946 190.199 56.947 189.068 56.947ZM194.194 58H195.689V52.93C196.312 52.293 196.768 51.955 197.431 51.955C198.276 51.955 198.64 52.449 198.64 53.684V58H200.135V53.502C200.135 51.682 199.459 50.668 197.938 50.668C196.963 50.668 196.235 51.201 195.572 51.838H195.533L195.416 50.85H194.194V58ZM202.306 58H203.801V50.85H202.306V58ZM203.047 49.511C203.593 49.511 203.983 49.16 203.983 48.614C203.983 48.081 203.593 47.73 203.047 47.73C202.501 47.73 202.124 48.081 202.124 48.614C202.124 49.16 202.501 49.511 203.047 49.511ZM207.975 58.169C209.743 58.169 210.692 57.194 210.692 55.998C210.692 54.646 209.587 54.204 208.586 53.827C207.806 53.541 207.104 53.307 207.104 52.696C207.104 52.202 207.468 51.812 208.261 51.812C208.846 51.812 209.353 52.072 209.847 52.436L210.549 51.513C209.977 51.058 209.184 50.668 208.235 50.668C206.649 50.668 205.687 51.565 205.687 52.761C205.687 53.97 206.74 54.477 207.702 54.841C208.469 55.14 209.275 55.426 209.275 56.076C209.275 56.622 208.872 57.038 208.014 57.038C207.247 57.038 206.623 56.713 205.986 56.219L205.284 57.181C205.986 57.753 206.987 58.169 207.975 58.169ZM214.397 58.169C214.917 58.169 215.398 58.039 215.801 57.909L215.528 56.804C215.32 56.895 215.008 56.973 214.761 56.973C214.02 56.973 213.721 56.531 213.721 55.673V52.046H215.58V50.85H213.721V48.874H212.473L212.304 50.85L211.186 50.928V52.046H212.226V55.66C212.226 57.168 212.785 58.169 214.397 58.169ZM218.519 58.169C219.377 58.169 220.144 57.74 220.794 57.181H220.846L220.963 58H222.185V53.697C222.185 51.799 221.366 50.668 219.585 50.668C218.441 50.668 217.44 51.136 216.699 51.604L217.258 52.618C217.869 52.228 218.571 51.89 219.325 51.89C220.378 51.89 220.677 52.618 220.69 53.45C217.713 53.775 216.413 54.568 216.413 56.102C216.413 57.363 217.284 58.169 218.519 58.169ZM218.974 56.986C218.337 56.986 217.856 56.7 217.856 55.998C217.856 55.192 218.571 54.646 220.69 54.399V56.154C220.105 56.687 219.598 56.986 218.974 56.986ZM226.244 58.169C228.012 58.169 228.961 57.194 228.961 55.998C228.961 54.646 227.856 54.204 226.855 53.827C226.075 53.541 225.373 53.307 225.373 52.696C225.373 52.202 225.737 51.812 226.53 51.812C227.115 51.812 227.622 52.072 228.116 52.436L228.818 51.513C228.246 51.058 227.453 50.668 226.504 50.668C224.918 50.668 223.956 51.565 223.956 52.761C223.956 53.97 225.009 54.477 225.971 54.841C226.738 55.14 227.544 55.426 227.544 56.076C227.544 56.622 227.141 57.038 226.283 57.038C225.516 57.038 224.892 56.713 224.255 56.219L223.553 57.181C224.255 57.753 225.256 58.169 226.244 58.169ZM235.163 58.169C236.021 58.169 236.788 57.74 237.438 57.181H237.49L237.607 58H238.829V53.697C238.829 51.799 238.01 50.668 236.229 50.668C235.085 50.668 234.084 51.136 233.343 51.604L233.902 52.618C234.513 52.228 235.215 51.89 235.969 51.89C237.022 51.89 237.321 52.618 237.334 53.45C234.357 53.775 233.057 54.568 233.057 56.102C233.057 57.363 233.928 58.169 235.163 58.169ZM235.618 56.986C234.981 56.986 234.5 56.7 234.5 55.998C234.5 55.192 235.215 54.646 237.334 54.399V56.154C236.749 56.687 236.242 56.986 235.618 56.986ZM248.316 60.899H249.811V50.85H248.628L248.498 51.539H248.459C247.848 50.967 247.263 50.668 246.457 50.668C244.858 50.668 243.389 52.111 243.389 54.425C243.389 56.804 244.546 58.169 246.34 58.169C247.107 58.169 247.835 57.766 248.381 57.233L248.316 58.468V60.899ZM246.691 56.934C245.573 56.934 244.936 56.037 244.936 54.412C244.936 52.865 245.742 51.916 246.743 51.916C247.276 51.916 247.783 52.085 248.316 52.566V56.063C247.796 56.661 247.289 56.934 246.691 56.934ZM254.165 58.169C255.14 58.169 255.842 57.675 256.492 56.921H256.531L256.648 58H257.87V50.85H256.375V55.816C255.777 56.57 255.322 56.882 254.659 56.882C253.814 56.882 253.463 56.388 253.463 55.166V50.85H251.968V55.348C251.968 57.168 252.631 58.169 254.165 58.169ZM263.097 58.169C264.033 58.169 264.852 57.857 265.515 57.415L264.995 56.466C264.475 56.804 263.929 56.999 263.292 56.999C262.057 56.999 261.199 56.18 261.082 54.815H265.723C265.762 54.633 265.801 54.347 265.801 54.048C265.801 52.033 264.774 50.668 262.876 50.668C261.212 50.668 259.613 52.111 259.613 54.425C259.613 56.791 261.16 58.169 263.097 58.169ZM261.069 53.775C261.212 52.527 262.005 51.838 262.902 51.838C263.942 51.838 264.501 52.553 264.501 53.775H261.069ZM38.714 79.899H40.209V77.585L40.157 76.363C40.768 76.883 41.405 77.169 42.042 77.169C43.654 77.169 45.123 75.765 45.123 73.308C45.123 71.111 44.109 69.668 42.302 69.668C41.496 69.668 40.716 70.11 40.092 70.63H40.053L39.936 69.85H38.714V79.899ZM41.756 75.934C41.314 75.934 40.768 75.765 40.209 75.284V71.787C40.807 71.202 41.34 70.916 41.899 70.916C43.095 70.916 43.576 71.839 43.576 73.334C43.576 75.011 42.796 75.934 41.756 75.934ZM49.0085 77.169C49.9835 77.169 50.6855 76.675 51.3355 75.921H51.3745L51.4915 77H52.7135V69.85H51.2185V74.816C50.6205 75.57 50.1655 75.882 49.5025 75.882C48.6575 75.882 48.3065 75.388 48.3065 74.166V69.85H46.8115V74.348C46.8115 76.168 47.4745 77.169 49.0085 77.169ZM57.941 77.169C58.877 77.169 59.696 76.857 60.359 76.415L59.839 75.466C59.319 75.804 58.773 75.999 58.136 75.999C56.901 75.999 56.043 75.18 55.926 73.815H60.567C60.606 73.633 60.645 73.347 60.645 73.048C60.645 71.033 59.618 69.668 57.72 69.668C56.056 69.668 54.457 71.111 54.457 73.425C54.457 75.791 56.004 77.169 57.941 77.169ZM55.913 72.775C56.056 71.527 56.849 70.838 57.746 70.838C58.786 70.838 59.345 71.553 59.345 72.775H55.913ZM64.7846 77.169C65.5906 77.169 66.3316 76.74 66.8646 76.194H66.9166L67.0336 77H68.2556V66.639H66.7606V69.291L66.8256 70.474C66.2406 69.98 65.7206 69.668 64.9016 69.668C63.3026 69.668 61.8336 71.111 61.8336 73.425C61.8336 75.804 62.9906 77.169 64.7846 77.169ZM65.1356 75.934C64.0176 75.934 63.3806 75.037 63.3806 73.412C63.3806 71.865 64.1866 70.916 65.1876 70.916C65.7206 70.916 66.2276 71.085 66.7606 71.566V75.063C66.2406 75.661 65.7336 75.934 65.1356 75.934ZM72.1931 77.169C73.0511 77.169 73.8181 76.74 74.4681 76.181H74.5201L74.6371 77H75.8591V72.697C75.8591 70.799 75.0401 69.668 73.2591 69.668C72.1151 69.668 71.1141 70.136 70.3731 70.604L70.9321 71.618C71.5431 71.228 72.2451 70.89 72.9991 70.89C74.0521 70.89 74.3511 71.618 74.3641 72.45C71.3871 72.775 70.0871 73.568 70.0871 75.102C70.0871 76.363 70.9581 77.169 72.1931 77.169ZM72.6481 75.986C72.0111 75.986 71.5301 75.7 71.5301 74.998C71.5301 74.192 72.2451 73.646 74.3641 73.399V75.154C73.7791 75.687 73.2721 75.986 72.6481 75.986ZM77.9806 77H79.4756V71.93C80.0996 71.293 80.5546 70.955 81.2176 70.955C82.0626 70.955 82.4266 71.449 82.4266 72.684V77H83.9216V72.502C83.9216 70.682 83.2456 69.668 81.7246 69.668C80.7496 69.668 80.0216 70.201 79.3586 70.838H79.3196L79.2026 69.85H77.9806V77ZM89.0128 77H90.5078V72.541C90.9498 71.41 91.6518 71.007 92.2368 71.007C92.5228 71.007 92.7048 71.046 92.9518 71.124L93.2248 69.824C93.0038 69.72 92.7698 69.668 92.4188 69.668C91.6518 69.668 90.8978 70.214 90.3908 71.137H90.3518L90.2348 69.85H89.0128V77ZM97.1695 77.169C98.1055 77.169 98.9245 76.857 99.5875 76.415L99.0675 75.466C98.5475 75.804 98.0015 75.999 97.3645 75.999C96.1295 75.999 95.2715 75.18 95.1545 73.815H99.7955C99.8345 73.633 99.8735 73.347 99.8735 73.048C99.8735 71.033 98.8465 69.668 96.9485 69.668C95.2845 69.668 93.6855 71.111 93.6855 73.425C93.6855 75.791 95.2325 77.169 97.1695 77.169ZM95.1415 72.775C95.2845 71.527 96.0775 70.838 96.9745 70.838C98.0145 70.838 98.5735 71.553 98.5735 72.775H95.1415ZM103.043 77.169C103.901 77.169 104.668 76.74 105.318 76.181H105.37L105.487 77H106.709V72.697C106.709 70.799 105.89 69.668 104.109 69.668C102.965 69.668 101.964 70.136 101.223 70.604L101.782 71.618C102.393 71.228 103.095 70.89 103.849 70.89C104.902 70.89 105.201 71.618 105.214 72.45C102.237 72.775 100.937 73.568 100.937 75.102C100.937 76.363 101.808 77.169 103.043 77.169ZM103.498 75.986C102.861 75.986 102.38 75.7 102.38 74.998C102.38 74.192 103.095 73.646 105.214 73.399V75.154C104.629 75.687 104.122 75.986 103.498 75.986ZM110.312 77.169C110.689 77.169 110.936 77.117 111.118 77.052L110.923 75.921C110.793 75.947 110.741 75.947 110.676 75.947C110.494 75.947 110.325 75.804 110.325 75.401V66.639H108.83V75.323C108.83 76.48 109.233 77.169 110.312 77.169ZM112.702 77H114.197V69.85H112.702V77ZM113.443 68.511C113.989 68.511 114.379 68.16 114.379 67.614C114.379 67.081 113.989 66.73 113.443 66.73C112.897 66.73 112.52 67.081 112.52 67.614C112.52 68.16 112.897 68.511 113.443 68.511ZM115.785 77H121.31V75.804H117.67L121.193 70.643V69.85H116.175V71.046H119.321L115.785 76.194V77ZM124.193 77.169C125.051 77.169 125.818 76.74 126.468 76.181H126.52L126.637 77H127.859V72.697C127.859 70.799 127.04 69.668 125.259 69.668C124.115 69.668 123.114 70.136 122.373 70.604L122.932 71.618C123.543 71.228 124.245 70.89 124.999 70.89C126.052 70.89 126.351 71.618 126.364 72.45C123.387 72.775 122.087 73.568 122.087 75.102C122.087 76.363 122.958 77.169 124.193 77.169ZM124.648 75.986C124.011 75.986 123.53 75.7 123.53 74.998C123.53 74.192 124.245 73.646 126.364 73.399V75.154C125.779 75.687 125.272 75.986 124.648 75.986ZM129.981 77H131.476V72.541C131.918 71.41 132.62 71.007 133.205 71.007C133.491 71.007 133.673 71.046 133.92 71.124L134.193 69.824C133.972 69.72 133.738 69.668 133.387 69.668C132.62 69.668 131.866 70.214 131.359 71.137H131.32L131.203 69.85H129.981V77ZM140.157 77.169C141.925 77.169 142.874 76.194 142.874 74.998C142.874 73.646 141.769 73.204 140.768 72.827C139.988 72.541 139.286 72.307 139.286 71.696C139.286 71.202 139.65 70.812 140.443 70.812C141.028 70.812 141.535 71.072 142.029 71.436L142.731 70.513C142.159 70.058 141.366 69.668 140.417 69.668C138.831 69.668 137.869 70.565 137.869 71.761C137.869 72.97 138.922 73.477 139.884 73.841C140.651 74.14 141.457 74.426 141.457 75.076C141.457 75.622 141.054 76.038 140.196 76.038C139.429 76.038 138.805 75.713 138.168 75.219L137.466 76.181C138.168 76.753 139.169 77.169 140.157 77.169ZM146.572 77.169C147.547 77.169 148.249 76.675 148.899 75.921H148.938L149.055 77H150.277V69.85H148.782V74.816C148.184 75.57 147.729 75.882 147.066 75.882C146.221 75.882 145.87 75.388 145.87 74.166V69.85H144.375V74.348C144.375 76.168 145.038 77.169 146.572 77.169ZM154.464 77.169C156.232 77.169 157.181 76.194 157.181 74.998C157.181 73.646 156.076 73.204 155.075 72.827C154.295 72.541 153.593 72.307 153.593 71.696C153.593 71.202 153.957 70.812 154.75 70.812C155.335 70.812 155.842 71.072 156.336 71.436L157.038 70.513C156.466 70.058 155.673 69.668 154.724 69.668C153.138 69.668 152.176 70.565 152.176 71.761C152.176 72.97 153.229 73.477 154.191 73.841C154.958 74.14 155.764 74.426 155.764 75.076C155.764 75.622 155.361 76.038 154.503 76.038C153.736 76.038 153.112 75.713 152.475 75.219L151.773 76.181C152.475 76.753 153.476 77.169 154.464 77.169ZM164.099 77.169C164.619 77.169 165.1 77.039 165.503 76.909L165.23 75.804C165.022 75.895 164.71 75.973 164.463 75.973C163.722 75.973 163.423 75.531 163.423 74.673V71.046H165.282V69.85H163.423V67.874H162.175L162.006 69.85L160.888 69.928V71.046H161.928V74.66C161.928 76.168 162.487 77.169 164.099 77.169ZM166.848 77H168.343V72.541C168.785 71.41 169.487 71.007 170.072 71.007C170.358 71.007 170.54 71.046 170.787 71.124L171.06 69.824C170.839 69.72 170.605 69.668 170.254 69.668C169.487 69.668 168.733 70.214 168.226 71.137H168.187L168.07 69.85H166.848V77ZM173.489 77.169C174.347 77.169 175.114 76.74 175.764 76.181H175.816L175.933 77H177.155V72.697C177.155 70.799 176.336 69.668 174.555 69.668C173.411 69.668 172.41 70.136 171.669 70.604L172.228 71.618C172.839 71.228 173.541 70.89 174.295 70.89C175.348 70.89 175.647 71.618 175.66 72.45C172.683 72.775 171.383 73.568 171.383 75.102C171.383 76.363 172.254 77.169 173.489 77.169ZM173.944 75.986C173.307 75.986 172.826 75.7 172.826 74.998C172.826 74.192 173.541 73.646 175.66 73.399V75.154C175.075 75.687 174.568 75.986 173.944 75.986ZM179.277 77H180.772V71.93C181.396 71.293 181.851 70.955 182.514 70.955C183.359 70.955 183.723 71.449 183.723 72.684V77H185.218V72.502C185.218 70.682 184.542 69.668 183.021 69.668C182.046 69.668 181.318 70.201 180.655 70.838H180.616L180.499 69.85H179.277V77ZM189.326 77.169C191.094 77.169 192.043 76.194 192.043 74.998C192.043 73.646 190.938 73.204 189.937 72.827C189.157 72.541 188.455 72.307 188.455 71.696C188.455 71.202 188.819 70.812 189.612 70.812C190.197 70.812 190.704 71.072 191.198 71.436L191.9 70.513C191.328 70.058 190.535 69.668 189.586 69.668C188 69.668 187.038 70.565 187.038 71.761C187.038 72.97 188.091 73.477 189.053 73.841C189.82 74.14 190.626 74.426 190.626 75.076C190.626 75.622 190.223 76.038 189.365 76.038C188.598 76.038 187.974 75.713 187.337 75.219L186.635 76.181C187.337 76.753 188.338 77.169 189.326 77.169ZM195.325 77.169C196.183 77.169 196.95 76.74 197.6 76.181H197.652L197.769 77H198.991V72.697C198.991 70.799 198.172 69.668 196.391 69.668C195.247 69.668 194.246 70.136 193.505 70.604L194.064 71.618C194.675 71.228 195.377 70.89 196.131 70.89C197.184 70.89 197.483 71.618 197.496 72.45C194.519 72.775 193.219 73.568 193.219 75.102C193.219 76.363 194.09 77.169 195.325 77.169ZM195.78 75.986C195.143 75.986 194.662 75.7 194.662 74.998C194.662 74.192 195.377 73.646 197.496 73.399V75.154C196.911 75.687 196.404 75.986 195.78 75.986ZM204.024 77.169C204.843 77.169 205.688 76.87 206.351 76.285L205.727 75.297C205.298 75.661 204.765 75.947 204.167 75.947C202.984 75.947 202.152 74.946 202.152 73.425C202.152 71.917 203.01 70.903 204.219 70.903C204.7 70.903 205.103 71.111 205.493 71.462L206.234 70.487C205.714 70.032 205.051 69.668 204.141 69.668C202.256 69.668 200.605 71.046 200.605 73.425C200.605 75.804 202.087 77.169 204.024 77.169ZM210.397 77.169C211.216 77.169 212.061 76.87 212.724 76.285L212.1 75.297C211.671 75.661 211.138 75.947 210.54 75.947C209.357 75.947 208.525 74.946 208.525 73.425C208.525 71.917 209.383 70.903 210.592 70.903C211.073 70.903 211.476 71.111 211.866 71.462L212.607 70.487C212.087 70.032 211.424 69.668 210.514 69.668C208.629 69.668 206.978 71.046 206.978 73.425C206.978 75.804 208.46 77.169 210.397 77.169ZM214.201 77H215.696V69.85H214.201V77ZM214.942 68.511C215.488 68.511 215.878 68.16 215.878 67.614C215.878 67.081 215.488 66.73 214.942 66.73C214.396 66.73 214.019 67.081 214.019 67.614C214.019 68.16 214.396 68.511 214.942 68.511ZM220.794 77.169C222.562 77.169 224.161 75.804 224.161 73.425C224.161 71.046 222.562 69.668 220.794 69.668C219.026 69.668 217.427 71.046 217.427 73.425C217.427 75.804 219.026 77.169 220.794 77.169ZM220.794 75.947C219.676 75.947 218.974 74.946 218.974 73.425C218.974 71.917 219.676 70.903 220.794 70.903C221.925 70.903 222.627 71.917 222.627 73.425C222.627 74.946 221.925 75.947 220.794 75.947ZM225.919 77H227.414V71.93C228.038 71.293 228.493 70.955 229.156 70.955C230.001 70.955 230.365 71.449 230.365 72.684V77H231.86V72.502C231.86 70.682 231.184 69.668 229.663 69.668C228.688 69.668 227.96 70.201 227.297 70.838H227.258L227.141 69.85H225.919V77ZM237.008 77.169C237.944 77.169 238.763 76.857 239.426 76.415L238.906 75.466C238.386 75.804 237.84 75.999 237.203 75.999C235.968 75.999 235.11 75.18 234.993 73.815H239.634C239.673 73.633 239.712 73.347 239.712 73.048C239.712 71.033 238.685 69.668 236.787 69.668C235.123 69.668 233.524 71.111 233.524 73.425C233.524 75.791 235.071 77.169 237.008 77.169ZM234.98 72.775C235.123 71.527 235.916 70.838 236.813 70.838C237.853 70.838 238.412 71.553 238.412 72.775H234.98ZM243.319 77.169C245.087 77.169 246.036 76.194 246.036 74.998C246.036 73.646 244.931 73.204 243.93 72.827C243.15 72.541 242.448 72.307 242.448 71.696C242.448 71.202 242.812 70.812 243.605 70.812C244.19 70.812 244.697 71.072 245.191 71.436L245.893 70.513C245.321 70.058 244.528 69.668 243.579 69.668C241.993 69.668 241.031 70.565 241.031 71.761C241.031 72.97 242.084 73.477 243.046 73.841C243.813 74.14 244.619 74.426 244.619 75.076C244.619 75.622 244.216 76.038 243.358 76.038C242.591 76.038 241.967 75.713 241.33 75.219L240.628 76.181C241.33 76.753 242.331 77.169 243.319 77.169ZM54.8759 96.169C55.6819 96.169 56.4229 95.74 56.9559 95.194H57.0079L57.1249 96H58.3469V85.639H56.8519V88.291L56.9169 89.474C56.3319 88.98 55.8119 88.668 54.9929 88.668C53.3939 88.668 51.9249 90.111 51.9249 92.425C51.9249 94.804 53.0819 96.169 54.8759 96.169ZM55.2269 94.934C54.1089 94.934 53.4719 94.037 53.4719 92.412C53.4719 90.865 54.2779 89.916 55.2789 89.916C55.8119 89.916 56.3189 90.085 56.8519 90.566V94.063C56.3319 94.661 55.8249 94.934 55.2269 94.934ZM63.5714 96.169C64.5074 96.169 65.3264 95.857 65.9894 95.415L65.4694 94.466C64.9494 94.804 64.4034 94.999 63.7664 94.999C62.5314 94.999 61.6734 94.18 61.5564 92.815H66.1974C66.2364 92.633 66.2754 92.347 66.2754 92.048C66.2754 90.033 65.2484 88.668 63.3504 88.668C61.6864 88.668 60.0874 90.111 60.0874 92.425C60.0874 94.791 61.6344 96.169 63.5714 96.169ZM61.5434 91.775C61.6864 90.527 62.4794 89.838 63.3764 89.838C64.4164 89.838 64.9754 90.553 64.9754 91.775H61.5434ZM71.1119 96H72.6069V90.046H74.0499V88.85H72.6069V87.94C72.6069 87.069 72.9189 86.653 73.5559 86.653C73.8029 86.653 74.0759 86.718 74.3359 86.835L74.6349 85.704C74.3099 85.574 73.8549 85.47 73.3739 85.47C71.7749 85.47 71.1119 86.484 71.1119 87.953V88.85L70.1369 88.928V90.046H71.1119V96ZM78.0667 96.169C79.8347 96.169 81.4337 94.804 81.4337 92.425C81.4337 90.046 79.8347 88.668 78.0667 88.668C76.2987 88.668 74.6997 90.046 74.6997 92.425C74.6997 94.804 76.2987 96.169 78.0667 96.169ZM78.0667 94.947C76.9487 94.947 76.2467 93.946 76.2467 92.425C76.2467 90.917 76.9487 89.903 78.0667 89.903C79.1977 89.903 79.8997 90.917 79.8997 92.425C79.8997 93.946 79.1977 94.947 78.0667 94.947ZM83.192 96H84.687V91.541C85.129 90.41 85.831 90.007 86.416 90.007C86.702 90.007 86.884 90.046 87.131 90.124L87.404 88.824C87.183 88.72 86.949 88.668 86.598 88.668C85.831 88.668 85.077 89.214 84.57 90.137H84.531L84.414 88.85H83.192V96ZM88.5114 96H90.0064V90.93C90.5914 90.28 91.1244 89.955 91.6054 89.955C92.4244 89.955 92.8014 90.449 92.8014 91.684V96H94.2964V90.93C94.8944 90.28 95.4144 89.955 95.9084 89.955C96.7144 89.955 97.1044 90.449 97.1044 91.684V96H98.5994V91.502C98.5994 89.682 97.8974 88.668 96.4024 88.668C95.5054 88.668 94.7774 89.227 94.0754 89.981C93.7634 89.162 93.1654 88.668 92.0994 88.668C91.2154 88.668 90.5004 89.201 89.8894 89.851H89.8504L89.7334 88.85H88.5114V96ZM102.452 96.169C103.31 96.169 104.077 95.74 104.727 95.181H104.779L104.896 96H106.118V91.697C106.118 89.799 105.299 88.668 103.518 88.668C102.374 88.668 101.373 89.136 100.632 89.604L101.191 90.618C101.802 90.228 102.504 89.89 103.258 89.89C104.311 89.89 104.61 90.618 104.623 91.45C101.646 91.775 100.346 92.568 100.346 94.102C100.346 95.363 101.217 96.169 102.452 96.169ZM102.907 94.986C102.27 94.986 101.789 94.7 101.789 93.998C101.789 93.192 102.504 92.646 104.623 92.399V94.154C104.038 94.687 103.531 94.986 102.907 94.986ZM113.097 96.169C114.865 96.169 115.814 95.194 115.814 93.998C115.814 92.646 114.709 92.204 113.708 91.827C112.928 91.541 112.226 91.307 112.226 90.696C112.226 90.202 112.59 89.812 113.383 89.812C113.968 89.812 114.475 90.072 114.969 90.436L115.671 89.513C115.099 89.058 114.306 88.668 113.357 88.668C111.771 88.668 110.809 89.565 110.809 90.761C110.809 91.97 111.862 92.477 112.824 92.841C113.591 93.14 114.397 93.426 114.397 94.076C114.397 94.622 113.994 95.038 113.136 95.038C112.369 95.038 111.745 94.713 111.108 94.219L110.406 95.181C111.108 95.753 112.109 96.169 113.097 96.169ZM120.383 96.169C121.319 96.169 122.138 95.857 122.801 95.415L122.281 94.466C121.761 94.804 121.215 94.999 120.578 94.999C119.343 94.999 118.485 94.18 118.368 92.815H123.009C123.048 92.633 123.087 92.347 123.087 92.048C123.087 90.033 122.06 88.668 120.162 88.668C118.498 88.668 116.899 90.111 116.899 92.425C116.899 94.791 118.446 96.169 120.383 96.169ZM118.355 91.775C118.498 90.527 119.291 89.838 120.188 89.838C121.228 89.838 121.787 90.553 121.787 91.775H118.355ZM127.061 99.211C129.349 99.211 130.805 98.093 130.805 96.715C130.805 95.493 129.921 94.973 128.231 94.973H126.918C126.008 94.973 125.722 94.7 125.722 94.271C125.722 93.92 125.878 93.725 126.112 93.517C126.424 93.66 126.788 93.738 127.113 93.738C128.608 93.738 129.791 92.841 129.791 91.281C129.791 90.735 129.596 90.254 129.323 89.968H130.688V88.85H128.153C127.88 88.746 127.516 88.668 127.113 88.668C125.631 88.668 124.344 89.617 124.344 91.229C124.344 92.087 124.799 92.763 125.293 93.14V93.192C124.89 93.478 124.487 93.959 124.487 94.518C124.487 95.103 124.773 95.48 125.137 95.701V95.766C124.474 96.169 124.097 96.728 124.097 97.326C124.097 98.574 125.345 99.211 127.061 99.211ZM127.113 92.776C126.372 92.776 125.761 92.191 125.761 91.229C125.761 90.267 126.359 89.721 127.113 89.721C127.867 89.721 128.465 90.28 128.465 91.229C128.465 92.191 127.854 92.776 127.113 92.776ZM127.282 98.223C126.099 98.223 125.371 97.807 125.371 97.105C125.371 96.741 125.553 96.377 125.982 96.065C126.281 96.13 126.606 96.169 126.944 96.169H128.023C128.894 96.169 129.362 96.351 129.362 96.949C129.362 97.612 128.53 98.223 127.282 98.223ZM134.238 96.169C135.213 96.169 135.915 95.675 136.565 94.921H136.604L136.721 96H137.943V88.85H136.448V93.816C135.85 94.57 135.395 94.882 134.732 94.882C133.887 94.882 133.536 94.388 133.536 93.166V88.85H132.041V93.348C132.041 95.168 132.704 96.169 134.238 96.169ZM140.194 96H141.689V91.541C142.131 90.41 142.833 90.007 143.418 90.007C143.704 90.007 143.886 90.046 144.133 90.124L144.406 88.824C144.185 88.72 143.951 88.668 143.6 88.668C142.833 88.668 142.079 89.214 141.572 90.137H141.533L141.416 88.85H140.194V96ZM146.835 96.169C147.693 96.169 148.46 95.74 149.11 95.181H149.162L149.279 96H150.501V91.697C150.501 89.799 149.682 88.668 147.901 88.668C146.757 88.668 145.756 89.136 145.015 89.604L145.574 90.618C146.185 90.228 146.887 89.89 147.641 89.89C148.694 89.89 148.993 90.618 149.006 91.45C146.029 91.775 144.729 92.568 144.729 94.102C144.729 95.363 145.6 96.169 146.835 96.169ZM147.29 94.986C146.653 94.986 146.172 94.7 146.172 93.998C146.172 93.192 146.887 92.646 149.006 92.399V94.154C148.421 94.687 147.914 94.986 147.29 94.986ZM152.519 98.6C153.858 98.093 154.651 97.04 154.651 95.675C154.651 94.674 154.222 94.063 153.494 94.063C152.922 94.063 152.454 94.44 152.454 95.025C152.454 95.649 152.922 95.987 153.455 95.987C153.507 95.987 153.546 95.987 153.598 95.974C153.598 96.728 153.078 97.391 152.181 97.755L152.519 98.6ZM162.392 96.169C163.328 96.169 164.147 95.857 164.81 95.415L164.29 94.466C163.77 94.804 163.224 94.999 162.587 94.999C161.352 94.999 160.494 94.18 160.377 92.815H165.018C165.057 92.633 165.096 92.347 165.096 92.048C165.096 90.033 164.069 88.668 162.171 88.668C160.507 88.668 158.908 90.111 158.908 92.425C158.908 94.791 160.455 96.169 162.392 96.169ZM160.364 91.775C160.507 90.527 161.3 89.838 162.197 89.838C163.237 89.838 163.796 90.553 163.796 91.775H160.364ZM166.765 96H168.26V90.93C168.884 90.293 169.339 89.955 170.002 89.955C170.847 89.955 171.211 90.449 171.211 91.684V96H172.706V91.502C172.706 89.682 172.03 88.668 170.509 88.668C169.534 88.668 168.806 89.201 168.143 89.838H168.104L167.987 88.85H166.765V96ZM180.775 96.169C181.711 96.169 182.53 95.857 183.193 95.415L182.673 94.466C182.153 94.804 181.607 94.999 180.97 94.999C179.735 94.999 178.877 94.18 178.76 92.815H183.401C183.44 92.633 183.479 92.347 183.479 92.048C183.479 90.033 182.452 88.668 180.554 88.668C178.89 88.668 177.291 90.111 177.291 92.425C177.291 94.791 178.838 96.169 180.775 96.169ZM178.747 91.775C178.89 90.527 179.683 89.838 180.58 89.838C181.62 89.838 182.179 90.553 182.179 91.775H178.747ZM186.63 96.169C187.007 96.169 187.254 96.117 187.436 96.052L187.241 94.921C187.111 94.947 187.059 94.947 186.994 94.947C186.812 94.947 186.643 94.804 186.643 94.401V85.639H185.148V94.323C185.148 95.48 185.551 96.169 186.63 96.169ZM193.422 96.169C193.799 96.169 194.046 96.117 194.228 96.052L194.033 94.921C193.903 94.947 193.851 94.947 193.786 94.947C193.604 94.947 193.435 94.804 193.435 94.401V85.639H191.94V94.323C191.94 95.48 192.343 96.169 193.422 96.169ZM197.918 96.169C198.893 96.169 199.595 95.675 200.245 94.921H200.284L200.401 96H201.623V88.85H200.128V93.816C199.53 94.57 199.075 94.882 198.412 94.882C197.567 94.882 197.216 94.388 197.216 93.166V88.85H195.721V93.348C195.721 95.168 196.384 96.169 197.918 96.169ZM206.318 99.211C208.606 99.211 210.062 98.093 210.062 96.715C210.062 95.493 209.178 94.973 207.488 94.973H206.175C205.265 94.973 204.979 94.7 204.979 94.271C204.979 93.92 205.135 93.725 205.369 93.517C205.681 93.66 206.045 93.738 206.37 93.738C207.865 93.738 209.048 92.841 209.048 91.281C209.048 90.735 208.853 90.254 208.58 89.968H209.945V88.85H207.41C207.137 88.746 206.773 88.668 206.37 88.668C204.888 88.668 203.601 89.617 203.601 91.229C203.601 92.087 204.056 92.763 204.55 93.14V93.192C204.147 93.478 203.744 93.959 203.744 94.518C203.744 95.103 204.03 95.48 204.394 95.701V95.766C203.731 96.169 203.354 96.728 203.354 97.326C203.354 98.574 204.602 99.211 206.318 99.211ZM206.37 92.776C205.629 92.776 205.018 92.191 205.018 91.229C205.018 90.267 205.616 89.721 206.37 89.721C207.124 89.721 207.722 90.28 207.722 91.229C207.722 92.191 207.111 92.776 206.37 92.776ZM206.539 98.223C205.356 98.223 204.628 97.807 204.628 97.105C204.628 96.741 204.81 96.377 205.239 96.065C205.538 96.13 205.863 96.169 206.201 96.169H207.28C208.151 96.169 208.619 96.351 208.619 96.949C208.619 97.612 207.787 98.223 206.539 98.223ZM212.838 96.169C213.696 96.169 214.463 95.74 215.113 95.181H215.165L215.282 96H216.504V91.697C216.504 89.799 215.685 88.668 213.904 88.668C212.76 88.668 211.759 89.136 211.018 89.604L211.577 90.618C212.188 90.228 212.89 89.89 213.644 89.89C214.697 89.89 214.996 90.618 215.009 91.45C212.032 91.775 210.732 92.568 210.732 94.102C210.732 95.363 211.603 96.169 212.838 96.169ZM213.293 94.986C212.656 94.986 212.175 94.7 212.175 93.998C212.175 93.192 212.89 92.646 215.009 92.399V94.154C214.424 94.687 213.917 94.986 213.293 94.986ZM218.626 96H220.121V91.541C220.563 90.41 221.265 90.007 221.85 90.007C222.136 90.007 222.318 90.046 222.565 90.124L222.838 88.824C222.617 88.72 222.383 88.668 222.032 88.668C221.265 88.668 220.511 89.214 220.004 90.137H219.965L219.848 88.85H218.626V96ZM227.19 98.99C228.698 98.99 229.452 97.963 230.011 96.429L232.637 88.85H231.181L230.037 92.529C229.855 93.179 229.66 93.894 229.478 94.544H229.413C229.192 93.881 228.971 93.166 228.763 92.529L227.437 88.85H225.903L228.737 95.948L228.594 96.442C228.334 97.209 227.879 97.781 227.099 97.781C226.917 97.781 226.709 97.716 226.579 97.677L226.293 98.847C226.54 98.938 226.826 98.99 227.19 98.99ZM63.984 115H65.479V109.93C66.103 109.293 66.558 108.955 67.221 108.955C68.066 108.955 68.43 109.449 68.43 110.684V115H69.925V110.502C69.925 108.682 69.249 107.668 67.728 107.668C66.753 107.668 66.038 108.201 65.414 108.799L65.479 107.382V104.639H63.984V115ZM74.9182 115.169C76.6862 115.169 78.2852 113.804 78.2852 111.425C78.2852 109.046 76.6862 107.668 74.9182 107.668C73.1502 107.668 71.5512 109.046 71.5512 111.425C71.5512 113.804 73.1502 115.169 74.9182 115.169ZM74.9182 113.947C73.8002 113.947 73.0982 112.946 73.0982 111.425C73.0982 109.917 73.8002 108.903 74.9182 108.903C76.0492 108.903 76.7512 109.917 76.7512 111.425C76.7512 112.946 76.0492 113.947 74.9182 113.947ZM80.0436 115H81.5386V110.541C81.9806 109.41 82.6826 109.007 83.2676 109.007C83.5536 109.007 83.7356 109.046 83.9826 109.124L84.2556 107.824C84.0346 107.72 83.8006 107.668 83.4496 107.668C82.6826 107.668 81.9286 108.214 81.4216 109.137H81.3826L81.2656 107.85H80.0436V115ZM86.6848 115.169C87.5428 115.169 88.3098 114.74 88.9598 114.181H89.0118L89.1288 115H90.3508V110.697C90.3508 108.799 89.5318 107.668 87.7508 107.668C86.6068 107.668 85.6058 108.136 84.8648 108.604L85.4238 109.618C86.0348 109.228 86.7368 108.89 87.4908 108.89C88.5438 108.89 88.8428 109.618 88.8558 110.45C85.8788 110.775 84.5788 111.568 84.5788 113.102C84.5788 114.363 85.4498 115.169 86.6848 115.169ZM87.1398 113.986C86.5028 113.986 86.0218 113.7 86.0218 112.998C86.0218 112.192 86.7368 111.646 88.8558 111.399V113.154C88.2708 113.687 87.7638 113.986 87.1398 113.986ZM92.4723 115H93.9673V110.541C94.4093 109.41 95.1113 109.007 95.6963 109.007C95.9823 109.007 96.1643 109.046 96.4113 109.124L96.6843 107.824C96.4633 107.72 96.2293 107.668 95.8783 107.668C95.1113 107.668 94.3573 108.214 93.8503 109.137H93.8113L93.6943 107.85H92.4723V115ZM97.7916 115H99.2866V107.85H97.7916V115ZM98.5326 106.511C99.0786 106.511 99.4686 106.16 99.4686 105.614C99.4686 105.081 99.0786 104.73 98.5326 104.73C97.9866 104.73 97.6096 105.081 97.6096 105.614C97.6096 106.16 97.9866 106.511 98.5326 106.511ZM104.384 115.169C106.152 115.169 107.751 113.804 107.751 111.425C107.751 109.046 106.152 107.668 104.384 107.668C102.616 107.668 101.017 109.046 101.017 111.425C101.017 113.804 102.616 115.169 104.384 115.169ZM104.384 113.947C103.266 113.947 102.564 112.946 102.564 111.425C102.564 109.917 103.266 108.903 104.384 108.903C105.515 108.903 106.217 109.917 106.217 111.425C106.217 112.946 105.515 113.947 104.384 113.947ZM116.875 117.899H118.37V107.85H117.187L117.057 108.539H117.018C116.407 107.967 115.822 107.668 115.016 107.668C113.417 107.668 111.948 109.111 111.948 111.425C111.948 113.804 113.105 115.169 114.899 115.169C115.666 115.169 116.394 114.766 116.94 114.233L116.875 115.468V117.899ZM115.25 113.934C114.132 113.934 113.495 113.037 113.495 111.412C113.495 109.865 114.301 108.916 115.302 108.916C115.835 108.916 116.342 109.085 116.875 109.566V113.063C116.355 113.661 115.848 113.934 115.25 113.934ZM122.724 115.169C123.699 115.169 124.401 114.675 125.051 113.921H125.09L125.207 115H126.429V107.85H124.934V112.816C124.336 113.57 123.881 113.882 123.218 113.882C122.373 113.882 122.022 113.388 122.022 112.166V107.85H120.527V112.348C120.527 114.168 121.19 115.169 122.724 115.169ZM131.656 115.169C132.592 115.169 133.411 114.857 134.074 114.415L133.554 113.466C133.034 113.804 132.488 113.999 131.851 113.999C130.616 113.999 129.758 113.18 129.641 111.815H134.282C134.321 111.633 134.36 111.347 134.36 111.048C134.36 109.033 133.333 107.668 131.435 107.668C129.771 107.668 128.172 109.111 128.172 111.425C128.172 113.791 129.719 115.169 131.656 115.169ZM129.628 110.775C129.771 109.527 130.564 108.838 131.461 108.838C132.501 108.838 133.06 109.553 133.06 110.775H129.628ZM141.927 115.169C142.863 115.169 143.682 114.857 144.345 114.415L143.825 113.466C143.305 113.804 142.759 113.999 142.122 113.999C140.887 113.999 140.029 113.18 139.912 111.815H144.553C144.592 111.633 144.631 111.347 144.631 111.048C144.631 109.033 143.604 107.668 141.706 107.668C140.042 107.668 138.443 109.111 138.443 111.425C138.443 113.791 139.99 115.169 141.927 115.169ZM139.899 110.775C140.042 109.527 140.835 108.838 141.732 108.838C142.772 108.838 143.331 109.553 143.331 110.775H139.899ZM147.782 115.169C148.159 115.169 148.406 115.117 148.588 115.052L148.393 113.921C148.263 113.947 148.211 113.947 148.146 113.947C147.964 113.947 147.795 113.804 147.795 113.401V104.639H146.3V113.323C146.3 114.48 146.703 115.169 147.782 115.169ZM151.655 115.169C152.032 115.169 152.279 115.117 152.461 115.052L152.266 113.921C152.136 113.947 152.084 113.947 152.019 113.947C151.837 113.947 151.668 113.804 151.668 113.401V104.639H150.173V113.323C150.173 114.48 150.576 115.169 151.655 115.169ZM156.905 115.169C158.673 115.169 160.272 113.804 160.272 111.425C160.272 109.046 158.673 107.668 156.905 107.668C155.137 107.668 153.538 109.046 153.538 111.425C153.538 113.804 155.137 115.169 156.905 115.169ZM156.905 113.947C155.787 113.947 155.085 112.946 155.085 111.425C155.085 109.917 155.787 108.903 156.905 108.903C158.036 108.903 158.738 109.917 158.738 111.425C158.738 112.946 158.036 113.947 156.905 113.947ZM163.929 115.169C165.697 115.169 166.646 114.194 166.646 112.998C166.646 111.646 165.541 111.204 164.54 110.827C163.76 110.541 163.058 110.307 163.058 109.696C163.058 109.202 163.422 108.812 164.215 108.812C164.8 108.812 165.307 109.072 165.801 109.436L166.503 108.513C165.931 108.058 165.138 107.668 164.189 107.668C162.603 107.668 161.641 108.565 161.641 109.761C161.641 110.97 162.694 111.477 163.656 111.841C164.423 112.14 165.229 112.426 165.229 113.076C165.229 113.622 164.826 114.038 163.968 114.038C163.201 114.038 162.577 113.713 161.94 113.219L161.238 114.181C161.94 114.753 162.941 115.169 163.929 115.169ZM175.604 117.899H177.099V107.85H175.916L175.786 108.539H175.747C175.136 107.967 174.551 107.668 173.745 107.668C172.146 107.668 170.677 109.111 170.677 111.425C170.677 113.804 171.834 115.169 173.628 115.169C174.395 115.169 175.123 114.766 175.669 114.233L175.604 115.468V117.899ZM173.979 113.934C172.861 113.934 172.224 113.037 172.224 111.412C172.224 109.865 173.03 108.916 174.031 108.916C174.564 108.916 175.071 109.085 175.604 109.566V113.063C175.084 113.661 174.577 113.934 173.979 113.934ZM181.452 115.169C182.427 115.169 183.129 114.675 183.779 113.921H183.818L183.935 115H185.157V107.85H183.662V112.816C183.064 113.57 182.609 113.882 181.946 113.882C181.101 113.882 180.75 113.388 180.75 112.166V107.85H179.255V112.348C179.255 114.168 179.918 115.169 181.452 115.169ZM187.408 115H188.903V107.85H187.408V115ZM188.149 106.511C188.695 106.511 189.085 106.16 189.085 105.614C189.085 105.081 188.695 104.73 188.149 104.73C187.603 104.73 187.226 105.081 187.226 105.614C187.226 106.16 187.603 106.511 188.149 106.511ZM194.117 115.169C195.053 115.169 195.872 114.857 196.535 114.415L196.015 113.466C195.495 113.804 194.949 113.999 194.312 113.999C193.077 113.999 192.219 113.18 192.102 111.815H196.743C196.782 111.633 196.821 111.347 196.821 111.048C196.821 109.033 195.794 107.668 193.896 107.668C192.232 107.668 190.633 109.111 190.633 111.425C190.633 113.791 192.18 115.169 194.117 115.169ZM192.089 110.775C192.232 109.527 193.025 108.838 193.922 108.838C194.962 108.838 195.521 109.553 195.521 110.775H192.089ZM198.491 115H199.986V110.541C200.428 109.41 201.13 109.007 201.715 109.007C202.001 109.007 202.183 109.046 202.43 109.124L202.703 107.824C202.482 107.72 202.248 107.668 201.897 107.668C201.13 107.668 200.376 108.214 199.869 109.137H199.83L199.713 107.85H198.491V115ZM205.132 115.169C205.99 115.169 206.757 114.74 207.407 114.181H207.459L207.576 115H208.798V110.697C208.798 108.799 207.979 107.668 206.198 107.668C205.054 107.668 204.053 108.136 203.312 108.604L203.871 109.618C204.482 109.228 205.184 108.89 205.938 108.89C206.991 108.89 207.29 109.618 207.303 110.45C204.326 110.775 203.026 111.568 203.026 113.102C203.026 114.363 203.897 115.169 205.132 115.169ZM205.587 113.986C204.95 113.986 204.469 113.7 204.469 112.998C204.469 112.192 205.184 111.646 207.303 111.399V113.154C206.718 113.687 206.211 113.986 205.587 113.986ZM210.92 115H212.415V109.93C213.039 109.293 213.494 108.955 214.157 108.955C215.002 108.955 215.366 109.449 215.366 110.684V115H216.861V110.502C216.861 108.682 216.185 107.668 214.664 107.668C213.689 107.668 212.961 108.201 212.298 108.838H212.259L212.142 107.85H210.92V115ZM220.075 111.945H221.388C221.167 110.008 223.481 109.306 223.481 107.408C223.481 105.887 222.441 105.029 220.92 105.029C219.841 105.029 218.97 105.549 218.333 106.277L219.178 107.044C219.607 106.563 220.14 106.251 220.751 106.251C221.57 106.251 222.025 106.784 222.025 107.512C222.025 108.929 219.763 109.761 220.075 111.945ZM220.751 115.169C221.31 115.169 221.752 114.74 221.752 114.129C221.752 113.505 221.31 113.063 220.751 113.063C220.179 113.063 219.75 113.505 219.75 114.129C219.75 114.74 220.179 115.169 220.751 115.169Z" fill="#484545"/>
</svg>
