<svg width="284" height="119" viewBox="0 0 284 119" fill="none" xmlns="http://www.w3.org/2000/svg">
<path d="M35.0398 18H37.2598V14.055H38.7448C41.1298 14.055 43.0348 12.915 43.0348 10.38C43.0348 7.755 41.1448 6.885 38.6848 6.885H35.0398V18ZM37.2598 12.3V8.655H38.5198C40.0498 8.655 40.8598 9.09 40.8598 10.38C40.8598 11.655 40.1248 12.3 38.5948 12.3H37.2598ZM48.4431 18H50.6631V13.8H52.2081L54.4881 18H56.9631L54.3681 13.455C55.6431 12.96 56.4831 11.925 56.4831 10.26C56.4831 7.71 54.6381 6.885 52.3131 6.885H48.4431V18ZM50.6631 12.045V8.655H52.1031C53.5281 8.655 54.3231 9.06 54.3231 10.26C54.3231 11.445 53.5281 12.045 52.1031 12.045H50.6631ZM66.4762 18.21C69.4162 18.21 71.4412 16.005 71.4412 12.405C71.4412 8.805 69.4162 6.69 66.4762 6.69C63.5362 6.69 61.5112 8.79 61.5112 12.405C61.5112 16.005 63.5362 18.21 66.4762 18.21ZM66.4762 16.29C64.8262 16.29 63.7762 14.775 63.7762 12.405C63.7762 10.02 64.8262 8.595 66.4762 8.595C68.1262 8.595 69.1762 10.02 69.1762 12.405C69.1762 14.775 68.1262 16.29 66.4762 16.29ZM77.0076 18H80.9676C83.4126 18 85.2726 16.965 85.2726 14.73C85.2726 13.23 84.3876 12.39 83.1876 12.105V12.03C84.1326 11.7 84.7026 10.65 84.7026 9.63C84.7026 7.56 82.9626 6.885 80.6826 6.885H77.0076V18ZM79.2276 11.415V8.595H80.5476C81.8826 8.595 82.5426 8.985 82.5426 9.96C82.5426 10.845 81.9276 11.415 80.5176 11.415H79.2276ZM79.2276 16.29V13.05H80.7726C82.3026 13.05 83.1126 13.515 83.1126 14.595C83.1126 15.75 82.2876 16.29 80.7726 16.29H79.2276ZM90.616 18H97.351V16.14H92.836V6.885H90.616V18ZM102.686 18H109.661V16.14H104.906V13.17H108.806V11.31H104.906V8.745H109.496V6.885H102.686V18ZM115.313 18H117.308V13.365C117.308 12.315 117.128 10.77 117.023 9.72H117.083L117.968 12.33L119.693 16.995H120.968L122.678 12.33L123.578 9.72H123.653C123.533 10.77 123.368 12.315 123.368 13.365V18H125.393V6.885H122.933L121.088 12.09C120.848 12.78 120.653 13.515 120.413 14.22H120.338C120.113 13.515 119.903 12.78 119.663 12.09L117.773 6.885H115.313V18ZM138.228 18.21C140.793 18.21 142.308 16.665 142.308 14.85C142.308 13.245 141.423 12.39 140.073 11.835L138.618 11.22C137.673 10.845 136.893 10.56 136.893 9.765C136.893 9.03 137.508 8.595 138.483 8.595C139.398 8.595 140.133 8.925 140.838 9.51L141.963 8.115C141.063 7.2 139.773 6.69 138.483 6.69C136.233 6.69 134.643 8.085 134.643 9.9C134.643 11.52 135.768 12.42 136.893 12.885L138.378 13.515C139.368 13.935 140.043 14.19 140.043 15.015C140.043 15.795 139.428 16.29 138.273 16.29C137.298 16.29 136.248 15.795 135.453 15.06L134.178 16.59C135.258 17.625 136.743 18.21 138.228 18.21ZM149.877 18H152.097V8.745H155.247V6.885H146.757V8.745H149.877V18ZM162.86 12.21C163.19 11.055 163.52 9.795 163.805 8.58H163.88C164.195 9.78 164.495 11.055 164.84 12.21L165.17 13.425H162.53L162.86 12.21ZM159.02 18H161.27L162.05 15.15H165.65L166.43 18H168.755L165.185 6.885H162.575L159.02 18ZM175.658 18H177.878V8.745H181.028V6.885H172.538V8.745H175.658V18ZM186.226 18H193.201V16.14H188.446V13.17H192.346V11.31H188.446V8.745H193.036V6.885H186.226V18ZM198.853 18H200.848V13.365C200.848 12.315 200.668 10.77 200.563 9.72H200.623L201.508 12.33L203.233 16.995H204.508L206.218 12.33L207.118 9.72H207.193C207.073 10.77 206.908 12.315 206.908 13.365V18H208.933V6.885H206.473L204.628 12.09C204.388 12.78 204.193 13.515 203.953 14.22H203.878C203.653 13.515 203.443 12.78 203.203 12.09L201.313 6.885H198.853V18ZM215.054 18H222.029V16.14H217.274V13.17H221.174V11.31H217.274V8.745H221.864V6.885H215.054V18ZM227.681 18H229.781V13.545C229.781 12.27 229.616 10.875 229.511 9.675H229.586L230.711 12.06L233.921 18H236.171V6.885H234.071V11.325C234.071 12.585 234.251 14.055 234.356 15.21H234.281L233.171 12.81L229.946 6.885H227.681V18ZM244.52 18H246.74V8.745H249.89V6.885H241.4V8.745H244.52V18Z" fill="#D29890"/>
<path d="M6.90791 58H12.2769V56.973H8.11691V48.458H6.90791V58ZM16.4405 58.169C18.1695 58.169 19.7165 56.817 19.7165 54.477C19.7165 52.124 18.1695 50.759 16.4405 50.759C14.7115 50.759 13.1645 52.124 13.1645 54.477C13.1645 56.817 14.7115 58.169 16.4405 58.169ZM16.4405 57.181C15.2185 57.181 14.3995 56.102 14.3995 54.477C14.3995 52.852 15.2185 51.747 16.4405 51.747C17.6625 51.747 18.4945 52.852 18.4945 54.477C18.4945 56.102 17.6625 57.181 16.4405 57.181ZM23.4273 58.169C25.0913 58.169 26.0013 57.22 26.0013 56.076C26.0013 54.737 24.8703 54.321 23.8433 53.931C23.0503 53.632 22.3223 53.385 22.3223 52.709C22.3223 52.163 22.7383 51.695 23.6353 51.695C24.2593 51.695 24.7533 51.955 25.2343 52.319L25.8063 51.552C25.2603 51.123 24.4933 50.759 23.6223 50.759C22.0883 50.759 21.1783 51.643 21.1783 52.761C21.1783 53.957 22.2573 54.438 23.2453 54.802C24.0253 55.101 24.8573 55.413 24.8573 56.141C24.8573 56.752 24.4023 57.246 23.4663 57.246C22.6213 57.246 21.9843 56.908 21.3733 56.414L20.7883 57.194C21.4643 57.753 22.4263 58.169 23.4273 58.169ZM30.5695 58H31.7525V50.941H30.5695V58ZM31.1675 49.485C31.6355 49.485 31.9605 49.173 31.9605 48.692C31.9605 48.237 31.6355 47.925 31.1675 47.925C30.6995 47.925 30.3745 48.237 30.3745 48.692C30.3745 49.173 30.6995 49.485 31.1675 49.485ZM34.1496 58H35.3326V52.878C36.0476 52.163 36.5416 51.799 37.2696 51.799C38.2056 51.799 38.6086 52.358 38.6086 53.684V58H39.7916V53.528C39.7916 51.721 39.1156 50.759 37.6336 50.759C36.6716 50.759 35.9436 51.292 35.2676 51.955H35.2286L35.1246 50.941H34.1496V58ZM43.6179 58H44.9959L47.5049 50.941H46.3349L44.9959 54.958C44.7879 55.647 44.5669 56.375 44.3459 57.038H44.2939C44.0729 56.375 43.8519 55.647 43.6309 54.958L42.3049 50.941H41.0699L43.6179 58ZM51.6724 58.169C52.6344 58.169 53.3884 57.844 54.0124 57.441L53.5834 56.661C53.0634 57.012 52.5044 57.22 51.8154 57.22C50.4764 57.22 49.5534 56.258 49.4754 54.75H54.2334C54.2594 54.581 54.2854 54.334 54.2854 54.074C54.2854 52.059 53.2714 50.759 51.4774 50.759C49.8394 50.759 48.2924 52.189 48.2924 54.477C48.2924 56.804 49.8004 58.169 51.6724 58.169ZM49.4624 53.892C49.6054 52.514 50.4894 51.708 51.4904 51.708C52.5954 51.708 53.2454 52.475 53.2454 53.892H49.4624ZM56.0236 58H57.2066V53.463C57.6746 52.254 58.4026 51.838 58.9876 51.838C59.2736 51.838 59.4426 51.864 59.6766 51.955L59.8976 50.915C59.6766 50.798 59.4556 50.759 59.1436 50.759C58.3506 50.759 57.6356 51.331 57.1416 52.228H57.1026L56.9986 50.941H56.0236V58ZM62.8589 58.169C64.5229 58.169 65.4329 57.22 65.4329 56.076C65.4329 54.737 64.3019 54.321 63.2749 53.931C62.4819 53.632 61.7539 53.385 61.7539 52.709C61.7539 52.163 62.1699 51.695 63.0669 51.695C63.6909 51.695 64.1849 51.955 64.6659 52.319L65.2379 51.552C64.6919 51.123 63.9249 50.759 63.0539 50.759C61.5199 50.759 60.6099 51.643 60.6099 52.761C60.6099 53.957 61.6889 54.438 62.6769 54.802C63.4569 55.101 64.2889 55.413 64.2889 56.141C64.2889 56.752 63.8339 57.246 62.8979 57.246C62.0529 57.246 61.4159 56.908 60.8049 56.414L60.2199 57.194C60.8959 57.753 61.8579 58.169 62.8589 58.169ZM67.0939 58H68.2769V50.941H67.0939V58ZM67.6919 49.485C68.1599 49.485 68.4849 49.173 68.4849 48.692C68.4849 48.237 68.1599 47.925 67.6919 47.925C67.2239 47.925 66.8989 48.237 66.8989 48.692C66.8989 49.173 67.2239 49.485 67.6919 49.485ZM73.417 58.169C75.146 58.169 76.693 56.817 76.693 54.477C76.693 52.124 75.146 50.759 73.417 50.759C71.688 50.759 70.141 52.124 70.141 54.477C70.141 56.817 71.688 58.169 73.417 58.169ZM73.417 57.181C72.195 57.181 71.376 56.102 71.376 54.477C71.376 52.852 72.195 51.747 73.417 51.747C74.639 51.747 75.471 52.852 75.471 54.477C75.471 56.102 74.639 57.181 73.417 57.181ZM78.5578 58H79.7408V52.878C80.4558 52.163 80.9498 51.799 81.6778 51.799C82.6138 51.799 83.0168 52.358 83.0168 53.684V58H84.1998V53.528C84.1998 51.721 83.5238 50.759 82.0418 50.759C81.0798 50.759 80.3518 51.292 79.6758 51.955H79.6368L79.5328 50.941H78.5578V58ZM86.5051 58H87.6881V50.941H86.5051V58ZM87.1031 49.485C87.5711 49.485 87.8961 49.173 87.8961 48.692C87.8961 48.237 87.5711 47.925 87.1031 47.925C86.6351 47.925 86.3101 48.237 86.3101 48.692C86.3101 49.173 86.6351 49.485 87.1031 49.485ZM91.9312 58.169C93.5952 58.169 94.5052 57.22 94.5052 56.076C94.5052 54.737 93.3742 54.321 92.3472 53.931C91.5542 53.632 90.8262 53.385 90.8262 52.709C90.8262 52.163 91.2422 51.695 92.1392 51.695C92.7632 51.695 93.2572 51.955 93.7382 52.319L94.3102 51.552C93.7642 51.123 92.9972 50.759 92.1262 50.759C90.5922 50.759 89.6822 51.643 89.6822 52.761C89.6822 53.957 90.7612 54.438 91.7492 54.802C92.5292 55.101 93.3612 55.413 93.3612 56.141C93.3612 56.752 92.9062 57.246 91.9702 57.246C91.1252 57.246 90.4882 56.908 89.8772 56.414L89.2922 57.194C89.9682 57.753 90.9302 58.169 91.9312 58.169ZM98.0972 58.169C98.5262 58.169 98.9942 58.039 99.3972 57.909L99.1632 57.025C98.9292 57.116 98.6042 57.207 98.3572 57.207C97.5382 57.207 97.2652 56.713 97.2652 55.842V51.903H99.1762V50.941H97.2652V48.952H96.2772L96.1342 50.941L95.0292 51.006V51.903H96.0822V55.816C96.0822 57.22 96.5892 58.169 98.0972 58.169ZM102.082 58.169C102.953 58.169 103.746 57.714 104.422 57.155H104.461L104.565 58H105.54V53.658C105.54 51.916 104.812 50.759 103.096 50.759C101.965 50.759 100.964 51.266 100.314 51.682L100.782 52.501C101.341 52.124 102.082 51.747 102.901 51.747C104.058 51.747 104.357 52.618 104.357 53.528C101.354 53.866 100.015 54.633 100.015 56.167C100.015 57.441 100.899 58.169 102.082 58.169ZM102.42 57.22C101.718 57.22 101.172 56.895 101.172 56.089C101.172 55.179 101.978 54.594 104.357 54.308V56.284C103.668 56.895 103.109 57.22 102.42 57.22ZM109.641 58.169C111.305 58.169 112.215 57.22 112.215 56.076C112.215 54.737 111.084 54.321 110.057 53.931C109.264 53.632 108.536 53.385 108.536 52.709C108.536 52.163 108.952 51.695 109.849 51.695C110.473 51.695 110.967 51.955 111.448 52.319L112.02 51.552C111.474 51.123 110.707 50.759 109.836 50.759C108.302 50.759 107.392 51.643 107.392 52.761C107.392 53.957 108.471 54.438 109.459 54.802C110.239 55.101 111.071 55.413 111.071 56.141C111.071 56.752 110.616 57.246 109.68 57.246C108.835 57.246 108.198 56.908 107.587 56.414L107.002 57.194C107.678 57.753 108.64 58.169 109.641 58.169ZM116.783 58H117.966V52.878C118.681 52.163 119.175 51.799 119.903 51.799C120.839 51.799 121.242 52.358 121.242 53.684V58H122.425V53.528C122.425 51.721 121.749 50.759 120.267 50.759C119.305 50.759 118.577 51.292 117.901 51.955H117.862L117.758 50.941H116.783V58ZM127.578 58.169C128.54 58.169 129.294 57.844 129.918 57.441L129.489 56.661C128.969 57.012 128.41 57.22 127.721 57.22C126.382 57.22 125.459 56.258 125.381 54.75H130.139C130.165 54.581 130.191 54.334 130.191 54.074C130.191 52.059 129.177 50.759 127.383 50.759C125.745 50.759 124.198 52.189 124.198 54.477C124.198 56.804 125.706 58.169 127.578 58.169ZM125.368 53.892C125.511 52.514 126.395 51.708 127.396 51.708C128.501 51.708 129.151 52.475 129.151 53.892H125.368ZM134.711 58.169C135.556 58.169 136.362 57.844 136.999 57.272L136.479 56.479C136.037 56.882 135.465 57.181 134.815 57.181C133.515 57.181 132.631 56.102 132.631 54.477C132.631 52.852 133.567 51.747 134.854 51.747C135.413 51.747 135.842 52.007 136.258 52.371L136.869 51.591C136.362 51.149 135.725 50.759 134.802 50.759C132.995 50.759 131.396 52.124 131.396 54.477C131.396 56.817 132.839 58.169 134.711 58.169ZM141.073 58.169C142.035 58.169 142.789 57.844 143.413 57.441L142.984 56.661C142.464 57.012 141.905 57.22 141.216 57.22C139.877 57.22 138.954 56.258 138.876 54.75H143.634C143.66 54.581 143.686 54.334 143.686 54.074C143.686 52.059 142.672 50.759 140.878 50.759C139.24 50.759 137.693 52.189 137.693 54.477C137.693 56.804 139.201 58.169 141.073 58.169ZM138.863 53.892C139.006 52.514 139.89 51.708 140.891 51.708C141.996 51.708 142.646 52.475 142.646 53.892H138.863ZM147.27 58.169C148.934 58.169 149.844 57.22 149.844 56.076C149.844 54.737 148.713 54.321 147.686 53.931C146.893 53.632 146.165 53.385 146.165 52.709C146.165 52.163 146.581 51.695 147.478 51.695C148.102 51.695 148.596 51.955 149.077 52.319L149.649 51.552C149.103 51.123 148.336 50.759 147.465 50.759C145.931 50.759 145.021 51.643 145.021 52.761C145.021 53.957 146.1 54.438 147.088 54.802C147.868 55.101 148.7 55.413 148.7 56.141C148.7 56.752 148.245 57.246 147.309 57.246C146.464 57.246 145.827 56.908 145.216 56.414L144.631 57.194C145.307 57.753 146.269 58.169 147.27 58.169ZM151.505 58H152.688V50.941H151.505V58ZM152.103 49.485C152.571 49.485 152.896 49.173 152.896 48.692C152.896 48.237 152.571 47.925 152.103 47.925C151.635 47.925 151.31 48.237 151.31 48.692C151.31 49.173 151.635 49.485 152.103 49.485ZM157.308 58.169C157.737 58.169 158.205 58.039 158.608 57.909L158.374 57.025C158.14 57.116 157.815 57.207 157.568 57.207C156.749 57.207 156.476 56.713 156.476 55.842V51.903H158.387V50.941H156.476V48.952H155.488L155.345 50.941L154.24 51.006V51.903H155.293V55.816C155.293 57.22 155.8 58.169 157.308 58.169ZM161.293 58.169C162.164 58.169 162.957 57.714 163.633 57.155H163.672L163.776 58H164.751V53.658C164.751 51.916 164.023 50.759 162.307 50.759C161.176 50.759 160.175 51.266 159.525 51.682L159.993 52.501C160.552 52.124 161.293 51.747 162.112 51.747C163.269 51.747 163.568 52.618 163.568 53.528C160.565 53.866 159.226 54.633 159.226 56.167C159.226 57.441 160.11 58.169 161.293 58.169ZM161.631 57.22C160.929 57.22 160.383 56.895 160.383 56.089C160.383 55.179 161.189 54.594 163.568 54.308V56.284C162.879 56.895 162.32 57.22 161.631 57.22ZM167.006 58H168.189V52.878C168.904 52.163 169.398 51.799 170.126 51.799C171.062 51.799 171.465 52.358 171.465 53.684V58H172.648V53.528C172.648 51.721 171.972 50.759 170.49 50.759C169.528 50.759 168.8 51.292 168.124 51.955H168.085L167.981 50.941H167.006V58ZM179.707 58.169C181.371 58.169 182.281 57.22 182.281 56.076C182.281 54.737 181.15 54.321 180.123 53.931C179.33 53.632 178.602 53.385 178.602 52.709C178.602 52.163 179.018 51.695 179.915 51.695C180.539 51.695 181.033 51.955 181.514 52.319L182.086 51.552C181.54 51.123 180.773 50.759 179.902 50.759C178.368 50.759 177.458 51.643 177.458 52.761C177.458 53.957 178.537 54.438 179.525 54.802C180.305 55.101 181.137 55.413 181.137 56.141C181.137 56.752 180.682 57.246 179.746 57.246C178.901 57.246 178.264 56.908 177.653 56.414L177.068 57.194C177.744 57.753 178.706 58.169 179.707 58.169ZM186.789 58.169C187.751 58.169 188.505 57.844 189.129 57.441L188.7 56.661C188.18 57.012 187.621 57.22 186.932 57.22C185.593 57.22 184.67 56.258 184.592 54.75H189.35C189.376 54.581 189.402 54.334 189.402 54.074C189.402 52.059 188.388 50.759 186.594 50.759C184.956 50.759 183.409 52.189 183.409 54.477C183.409 56.804 184.917 58.169 186.789 58.169ZM184.579 53.892C184.722 52.514 185.606 51.708 186.607 51.708C187.712 51.708 188.362 52.475 188.362 53.892H184.579ZM191.14 58H192.323V52.878C193.038 52.163 193.532 51.799 194.26 51.799C195.196 51.799 195.599 52.358 195.599 53.684V58H196.782V53.528C196.782 51.721 196.106 50.759 194.624 50.759C193.662 50.759 192.934 51.292 192.258 51.955H192.219L192.115 50.941H191.14V58ZM201.31 58.169C201.739 58.169 202.207 58.039 202.61 57.909L202.376 57.025C202.142 57.116 201.817 57.207 201.57 57.207C200.751 57.207 200.478 56.713 200.478 55.842V51.903H202.389V50.941H200.478V48.952H199.49L199.347 50.941L198.242 51.006V51.903H199.295V55.816C199.295 57.22 199.802 58.169 201.31 58.169ZM203.988 58H205.171V50.941H203.988V58ZM204.586 49.485C205.054 49.485 205.379 49.173 205.379 48.692C205.379 48.237 205.054 47.925 204.586 47.925C204.118 47.925 203.793 48.237 203.793 48.692C203.793 49.173 204.118 49.485 204.586 49.485ZM207.568 58H208.751V53.463C209.219 52.254 209.947 51.838 210.532 51.838C210.818 51.838 210.987 51.864 211.221 51.955L211.442 50.915C211.221 50.798 211 50.759 210.688 50.759C209.895 50.759 209.18 51.331 208.686 52.228H208.647L208.543 50.941H207.568V58ZM214.403 58.169C216.067 58.169 216.977 57.22 216.977 56.076C216.977 54.737 215.846 54.321 214.819 53.931C214.026 53.632 213.298 53.385 213.298 52.709C213.298 52.163 213.714 51.695 214.611 51.695C215.235 51.695 215.729 51.955 216.21 52.319L216.782 51.552C216.236 51.123 215.469 50.759 214.598 50.759C213.064 50.759 212.154 51.643 212.154 52.761C212.154 53.957 213.233 54.438 214.221 54.802C215.001 55.101 215.833 55.413 215.833 56.141C215.833 56.752 215.378 57.246 214.442 57.246C213.597 57.246 212.96 56.908 212.349 56.414L211.764 57.194C212.44 57.753 213.402 58.169 214.403 58.169ZM221.485 58.169C222.447 58.169 223.201 57.844 223.825 57.441L223.396 56.661C222.876 57.012 222.317 57.22 221.628 57.22C220.289 57.22 219.366 56.258 219.288 54.75H224.046C224.072 54.581 224.098 54.334 224.098 54.074C224.098 52.059 223.084 50.759 221.29 50.759C219.652 50.759 218.105 52.189 218.105 54.477C218.105 56.804 219.613 58.169 221.485 58.169ZM219.275 53.892C219.418 52.514 220.302 51.708 221.303 51.708C222.408 51.708 223.058 52.475 223.058 53.892H219.275ZM230.589 58.169C232.253 58.169 233.163 57.22 233.163 56.076C233.163 54.737 232.032 54.321 231.005 53.931C230.212 53.632 229.484 53.385 229.484 52.709C229.484 52.163 229.9 51.695 230.797 51.695C231.421 51.695 231.915 51.955 232.396 52.319L232.968 51.552C232.422 51.123 231.655 50.759 230.784 50.759C229.25 50.759 228.34 51.643 228.34 52.761C228.34 53.957 229.419 54.438 230.407 54.802C231.187 55.101 232.019 55.413 232.019 56.141C232.019 56.752 231.564 57.246 230.628 57.246C229.783 57.246 229.146 56.908 228.535 56.414L227.95 57.194C228.626 57.753 229.588 58.169 230.589 58.169ZM237.671 58.169C238.633 58.169 239.387 57.844 240.011 57.441L239.582 56.661C239.062 57.012 238.503 57.22 237.814 57.22C236.475 57.22 235.552 56.258 235.474 54.75H240.232C240.258 54.581 240.284 54.334 240.284 54.074C240.284 52.059 239.27 50.759 237.476 50.759C235.838 50.759 234.291 52.189 234.291 54.477C234.291 56.804 235.799 58.169 237.671 58.169ZM235.461 53.892C235.604 52.514 236.488 51.708 237.489 51.708C238.594 51.708 239.244 52.475 239.244 53.892H235.461ZM244.262 61.25C246.446 61.25 247.837 60.119 247.837 58.806C247.837 57.649 247.005 57.129 245.367 57.129H243.989C243.04 57.129 242.754 56.817 242.754 56.362C242.754 55.972 242.949 55.738 243.209 55.517C243.521 55.673 243.911 55.764 244.262 55.764C245.692 55.764 246.836 54.815 246.836 53.307C246.836 52.696 246.602 52.176 246.264 51.851H247.707V50.941H245.25C245.003 50.85 244.652 50.759 244.262 50.759C242.832 50.759 241.61 51.734 241.61 53.281C241.61 54.126 242.065 54.802 242.533 55.179V55.231C242.169 55.491 241.74 55.959 241.74 56.544C241.74 57.103 242.013 57.48 242.39 57.701V57.753C241.727 58.182 241.35 58.754 241.35 59.352C241.35 60.574 242.533 61.25 244.262 61.25ZM244.262 54.958C243.443 54.958 242.754 54.308 242.754 53.281C242.754 52.241 243.43 51.63 244.262 51.63C245.094 51.63 245.77 52.254 245.77 53.281C245.77 54.308 245.068 54.958 244.262 54.958ZM244.431 60.444C243.157 60.444 242.39 59.95 242.39 59.196C242.39 58.78 242.598 58.364 243.105 58C243.417 58.078 243.755 58.117 244.015 58.117H245.237C246.173 58.117 246.68 58.338 246.68 58.988C246.68 59.729 245.783 60.444 244.431 60.444ZM251.262 58.169C252.237 58.169 252.939 57.662 253.602 56.895H253.641L253.732 58H254.72V50.941H253.537V55.946C252.861 56.791 252.354 57.142 251.626 57.142C250.69 57.142 250.3 56.583 250.3 55.27V50.941H249.117V55.413C249.117 57.207 249.78 58.169 251.262 58.169ZM257.105 58H258.288V53.463C258.756 52.254 259.484 51.838 260.069 51.838C260.355 51.838 260.524 51.864 260.758 51.955L260.979 50.915C260.758 50.798 260.537 50.759 260.225 50.759C259.432 50.759 258.717 51.331 258.223 52.228H258.184L258.08 50.941H257.105V58ZM264.748 58.169C266.477 58.169 268.024 56.817 268.024 54.477C268.024 52.124 266.477 50.759 264.748 50.759C263.019 50.759 261.472 52.124 261.472 54.477C261.472 56.817 263.019 58.169 264.748 58.169ZM264.748 57.181C263.526 57.181 262.707 56.102 262.707 54.477C262.707 52.852 263.526 51.747 264.748 51.747C265.97 51.747 266.802 52.852 266.802 54.477C266.802 56.102 265.97 57.181 264.748 57.181ZM271.735 58.169C273.399 58.169 274.309 57.22 274.309 56.076C274.309 54.737 273.178 54.321 272.151 53.931C271.358 53.632 270.63 53.385 270.63 52.709C270.63 52.163 271.046 51.695 271.943 51.695C272.567 51.695 273.061 51.955 273.542 52.319L274.114 51.552C273.568 51.123 272.801 50.759 271.93 50.759C270.396 50.759 269.486 51.643 269.486 52.761C269.486 53.957 270.565 54.438 271.553 54.802C272.333 55.101 273.165 55.413 273.165 56.141C273.165 56.752 272.71 57.246 271.774 57.246C270.929 57.246 270.292 56.908 269.681 56.414L269.096 57.194C269.772 57.753 270.734 58.169 271.735 58.169ZM276.581 58.169C277.049 58.169 277.439 57.805 277.439 57.272C277.439 56.726 277.049 56.349 276.581 56.349C276.113 56.349 275.723 56.726 275.723 57.272C275.723 57.805 276.113 58.169 276.581 58.169ZM3.35957 77H9.00157V75.973H4.56857V72.502H8.18257V71.475H4.56857V68.485H8.85857V67.458H3.35957V77ZM12.1461 77.169C12.4711 77.169 12.6661 77.13 12.8351 77.065L12.6661 76.155C12.5361 76.181 12.4841 76.181 12.4191 76.181C12.2371 76.181 12.0811 76.038 12.0811 75.674V66.652H10.8981V75.596C10.8981 76.597 11.2621 77.169 12.1461 77.169ZM15.8532 77.169C16.1782 77.169 16.3732 77.13 16.5422 77.065L16.3732 76.155C16.2432 76.181 16.1912 76.181 16.1262 76.181C15.9442 76.181 15.7882 76.038 15.7882 75.674V66.652H14.6052V75.596C14.6052 76.597 14.9692 77.169 15.8532 77.169ZM21.0552 77.169C22.7842 77.169 24.3312 75.817 24.3312 73.477C24.3312 71.124 22.7842 69.759 21.0552 69.759C19.3262 69.759 17.7792 71.124 17.7792 73.477C17.7792 75.817 19.3262 77.169 21.0552 77.169ZM21.0552 76.181C19.8332 76.181 19.0142 75.102 19.0142 73.477C19.0142 71.852 19.8332 70.747 21.0552 70.747C22.2772 70.747 23.1092 71.852 23.1092 73.477C23.1092 75.102 22.2772 76.181 21.0552 76.181ZM28.042 77.169C29.706 77.169 30.616 76.22 30.616 75.076C30.616 73.737 29.485 73.321 28.458 72.931C27.665 72.632 26.937 72.385 26.937 71.709C26.937 71.163 27.353 70.695 28.25 70.695C28.874 70.695 29.368 70.955 29.849 71.319L30.421 70.552C29.875 70.123 29.108 69.759 28.237 69.759C26.703 69.759 25.793 70.643 25.793 71.761C25.793 72.957 26.872 73.438 27.86 73.802C28.64 74.101 29.472 74.413 29.472 75.141C29.472 75.752 29.017 76.246 28.081 76.246C27.236 76.246 26.599 75.908 25.988 75.414L25.403 76.194C26.079 76.753 27.041 77.169 28.042 77.169ZM39.6693 79.977H40.8393V69.941H39.9033L39.7863 70.617H39.7473C39.1363 70.058 38.5513 69.759 37.7323 69.759C36.1203 69.759 34.6773 71.189 34.6773 73.477C34.6773 75.83 35.8213 77.169 37.5893 77.169C38.4083 77.169 39.1493 76.74 39.7213 76.181L39.6693 77.468V79.977ZM37.8493 76.181C36.6013 76.181 35.8993 75.167 35.8993 73.464C35.8993 71.852 36.7963 70.76 37.9403 70.76C38.5253 70.76 39.0583 70.968 39.6693 71.501V75.206C39.0713 75.856 38.4993 76.181 37.8493 76.181ZM45.2998 77.169C46.2748 77.169 46.9768 76.662 47.6398 75.895H47.6788L47.7698 77H48.7578V69.941H47.5748V74.946C46.8988 75.791 46.3918 76.142 45.6638 76.142C44.7278 76.142 44.3378 75.583 44.3378 74.27V69.941H43.1548V74.413C43.1548 76.207 43.8178 77.169 45.2998 77.169ZM51.1423 77H52.3253V69.941H51.1423V77ZM51.7403 68.485C52.2083 68.485 52.5333 68.173 52.5333 67.692C52.5333 67.237 52.2083 66.925 51.7403 66.925C51.2723 66.925 50.9473 67.237 50.9473 67.692C50.9473 68.173 51.2723 68.485 51.7403 68.485ZM57.5694 77.169C58.5314 77.169 59.2854 76.844 59.9094 76.441L59.4804 75.661C58.9604 76.012 58.4014 76.22 57.7124 76.22C56.3734 76.22 55.4504 75.258 55.3724 73.75H60.1304C60.1564 73.581 60.1824 73.334 60.1824 73.074C60.1824 71.059 59.1684 69.759 57.3744 69.759C55.7364 69.759 54.1894 71.189 54.1894 73.477C54.1894 75.804 55.6974 77.169 57.5694 77.169ZM55.3594 72.892C55.5024 71.514 56.3864 70.708 57.3874 70.708C58.4924 70.708 59.1424 71.475 59.1424 72.892H55.3594ZM61.9206 77H63.1036V72.463C63.5716 71.254 64.2996 70.838 64.8846 70.838C65.1706 70.838 65.3396 70.864 65.5736 70.955L65.7946 69.915C65.5736 69.798 65.3526 69.759 65.0406 69.759C64.2476 69.759 63.5326 70.331 63.0386 71.228H62.9996L62.8956 69.941H61.9206V77ZM69.668 77.169C70.63 77.169 71.384 76.844 72.008 76.441L71.579 75.661C71.059 76.012 70.5 76.22 69.811 76.22C68.472 76.22 67.549 75.258 67.471 73.75H72.229C72.255 73.581 72.281 73.334 72.281 73.074C72.281 71.059 71.267 69.759 69.473 69.759C67.835 69.759 66.288 71.189 66.288 73.477C66.288 75.804 67.796 77.169 69.668 77.169ZM67.458 72.892C67.601 71.514 68.485 70.708 69.486 70.708C70.591 70.708 71.241 71.475 71.241 72.892H67.458ZM74.0192 77H75.2022V71.878C75.9172 71.163 76.4112 70.799 77.1392 70.799C78.0752 70.799 78.4782 71.358 78.4782 72.684V77H79.6612V72.528C79.6612 70.721 78.9852 69.759 77.5032 69.759C76.5412 69.759 75.8132 70.292 75.1372 70.955H75.0982L74.9942 69.941H74.0192V77ZM87.0967 77.169C87.5257 77.169 87.9937 77.039 88.3967 76.909L88.1627 76.025C87.9287 76.116 87.6037 76.207 87.3567 76.207C86.5377 76.207 86.2647 75.713 86.2647 74.842V70.903H88.1757V69.941H86.2647V67.952H85.2767L85.1337 69.941L84.0287 70.006V70.903H85.0817V74.816C85.0817 76.22 85.5887 77.169 87.0967 77.169ZM92.4307 77.169C93.3927 77.169 94.1467 76.844 94.7707 76.441L94.3417 75.661C93.8217 76.012 93.2627 76.22 92.5737 76.22C91.2347 76.22 90.3117 75.258 90.2337 73.75H94.9917C95.0177 73.581 95.0437 73.334 95.0437 73.074C95.0437 71.059 94.0297 69.759 92.2357 69.759C90.5977 69.759 89.0507 71.189 89.0507 73.477C89.0507 75.804 90.5587 77.169 92.4307 77.169ZM90.2207 72.892C90.3637 71.514 91.2477 70.708 92.2487 70.708C93.3537 70.708 94.0037 71.475 94.0037 72.892H90.2207ZM96.7819 77H97.9649V71.878C98.6799 71.163 99.1739 70.799 99.9019 70.799C100.838 70.799 101.241 71.358 101.241 72.684V77H102.424V72.528C102.424 70.721 101.748 69.759 100.266 69.759C99.3039 69.759 98.5759 70.292 97.8999 70.955H97.8609L97.7569 69.941H96.7819V77ZM107.576 77.169C108.538 77.169 109.292 76.844 109.916 76.441L109.487 75.661C108.967 76.012 108.408 76.22 107.719 76.22C106.38 76.22 105.457 75.258 105.379 73.75H110.137C110.163 73.581 110.189 73.334 110.189 73.074C110.189 71.059 109.175 69.759 107.381 69.759C105.743 69.759 104.196 71.189 104.196 73.477C104.196 75.804 105.704 77.169 107.576 77.169ZM105.366 72.892C105.509 71.514 106.393 70.708 107.394 70.708C108.499 70.708 109.149 71.475 109.149 72.892H105.366ZM111.927 77H113.11V72.463C113.578 71.254 114.306 70.838 114.891 70.838C115.177 70.838 115.346 70.864 115.58 70.955L115.801 69.915C115.58 69.798 115.359 69.759 115.047 69.759C114.254 69.759 113.539 70.331 113.045 71.228H113.006L112.902 69.941H111.927V77ZM121.929 77.169C122.904 77.169 123.606 76.662 124.269 75.895H124.308L124.399 77H125.387V69.941H124.204V74.946C123.528 75.791 123.021 76.142 122.293 76.142C121.357 76.142 120.967 75.583 120.967 74.27V69.941H119.784V74.413C119.784 76.207 120.447 77.169 121.929 77.169ZM127.771 77H128.954V71.878C129.669 71.163 130.163 70.799 130.891 70.799C131.827 70.799 132.23 71.358 132.23 72.684V77H133.413V72.528C133.413 70.721 132.737 69.759 131.255 69.759C130.293 69.759 129.565 70.292 128.889 70.955H128.85L128.746 69.941H127.771V77ZM140.472 77.169C142.136 77.169 143.046 76.22 143.046 75.076C143.046 73.737 141.915 73.321 140.888 72.931C140.095 72.632 139.367 72.385 139.367 71.709C139.367 71.163 139.783 70.695 140.68 70.695C141.304 70.695 141.798 70.955 142.279 71.319L142.851 70.552C142.305 70.123 141.538 69.759 140.667 69.759C139.133 69.759 138.223 70.643 138.223 71.761C138.223 72.957 139.302 73.438 140.29 73.802C141.07 74.101 141.902 74.413 141.902 75.141C141.902 75.752 141.447 76.246 140.511 76.246C139.666 76.246 139.029 75.908 138.418 75.414L137.833 76.194C138.509 76.753 139.471 77.169 140.472 77.169ZM147.554 77.169C148.516 77.169 149.27 76.844 149.894 76.441L149.465 75.661C148.945 76.012 148.386 76.22 147.697 76.22C146.358 76.22 145.435 75.258 145.357 73.75H150.115C150.141 73.581 150.167 73.334 150.167 73.074C150.167 71.059 149.153 69.759 147.359 69.759C145.721 69.759 144.174 71.189 144.174 73.477C144.174 75.804 145.682 77.169 147.554 77.169ZM145.344 72.892C145.487 71.514 146.371 70.708 147.372 70.708C148.477 70.708 149.127 71.475 149.127 72.892H145.344ZM154.144 80.25C156.328 80.25 157.719 79.119 157.719 77.806C157.719 76.649 156.887 76.129 155.249 76.129H153.871C152.922 76.129 152.636 75.817 152.636 75.362C152.636 74.972 152.831 74.738 153.091 74.517C153.403 74.673 153.793 74.764 154.144 74.764C155.574 74.764 156.718 73.815 156.718 72.307C156.718 71.696 156.484 71.176 156.146 70.851H157.589V69.941H155.132C154.885 69.85 154.534 69.759 154.144 69.759C152.714 69.759 151.492 70.734 151.492 72.281C151.492 73.126 151.947 73.802 152.415 74.179V74.231C152.051 74.491 151.622 74.959 151.622 75.544C151.622 76.103 151.895 76.48 152.272 76.701V76.753C151.609 77.182 151.232 77.754 151.232 78.352C151.232 79.574 152.415 80.25 154.144 80.25ZM154.144 73.958C153.325 73.958 152.636 73.308 152.636 72.281C152.636 71.241 153.312 70.63 154.144 70.63C154.976 70.63 155.652 71.254 155.652 72.281C155.652 73.308 154.95 73.958 154.144 73.958ZM154.313 79.444C153.039 79.444 152.272 78.95 152.272 78.196C152.272 77.78 152.48 77.364 152.987 77C153.299 77.078 153.637 77.117 153.897 77.117H155.119C156.055 77.117 156.562 77.338 156.562 77.988C156.562 78.729 155.665 79.444 154.313 79.444ZM161.145 77.169C162.12 77.169 162.822 76.662 163.485 75.895H163.524L163.615 77H164.603V69.941H163.42V74.946C162.744 75.791 162.237 76.142 161.509 76.142C160.573 76.142 160.183 75.583 160.183 74.27V69.941H159V74.413C159 76.207 159.663 77.169 161.145 77.169ZM166.987 77H168.17V69.941H166.987V77ZM167.585 68.485C168.053 68.485 168.378 68.173 168.378 67.692C168.378 67.237 168.053 66.925 167.585 66.925C167.117 66.925 166.792 67.237 166.792 67.692C166.792 68.173 167.117 68.485 167.585 68.485ZM170.567 77H171.75V71.878C172.4 71.15 172.998 70.799 173.531 70.799C174.428 70.799 174.844 71.358 174.844 72.684V77H176.027V71.878C176.69 71.15 177.262 70.799 177.808 70.799C178.705 70.799 179.121 71.358 179.121 72.684V77H180.304V72.528C180.304 70.721 179.615 69.759 178.159 69.759C177.301 69.759 176.56 70.318 175.832 71.111C175.546 70.279 174.961 69.759 173.882 69.759C173.037 69.759 172.296 70.292 171.685 70.968H171.646L171.542 69.941H170.567V77ZM182.602 77H183.785V69.941H182.602V77ZM183.2 68.485C183.668 68.485 183.993 68.173 183.993 67.692C183.993 67.237 183.668 66.925 183.2 66.925C182.732 66.925 182.407 67.237 182.407 67.692C182.407 68.173 182.732 68.485 183.2 68.485ZM189.029 77.169C189.991 77.169 190.745 76.844 191.369 76.441L190.94 75.661C190.42 76.012 189.861 76.22 189.172 76.22C187.833 76.22 186.91 75.258 186.832 73.75H191.59C191.616 73.581 191.642 73.334 191.642 73.074C191.642 71.059 190.628 69.759 188.834 69.759C187.196 69.759 185.649 71.189 185.649 73.477C185.649 75.804 187.157 77.169 189.029 77.169ZM186.819 72.892C186.962 71.514 187.846 70.708 188.847 70.708C189.952 70.708 190.602 71.475 190.602 72.892H186.819ZM193.381 77H194.564V71.878C195.279 71.163 195.773 70.799 196.501 70.799C197.437 70.799 197.84 71.358 197.84 72.684V77H199.023V72.528C199.023 70.721 198.347 69.759 196.865 69.759C195.903 69.759 195.175 70.292 194.499 70.955H194.46L194.356 69.941H193.381V77ZM203.551 77.169C203.98 77.169 204.448 77.039 204.851 76.909L204.617 76.025C204.383 76.116 204.058 76.207 203.811 76.207C202.992 76.207 202.719 75.713 202.719 74.842V70.903H204.63V69.941H202.719V67.952H201.731L201.588 69.941L200.483 70.006V70.903H201.536V74.816C201.536 76.22 202.043 77.169 203.551 77.169ZM208.781 77.169C210.51 77.169 212.057 75.817 212.057 73.477C212.057 71.124 210.51 69.759 208.781 69.759C207.052 69.759 205.505 71.124 205.505 73.477C205.505 75.817 207.052 77.169 208.781 77.169ZM208.781 76.181C207.559 76.181 206.74 75.102 206.74 73.477C206.74 71.852 207.559 70.747 208.781 70.747C210.003 70.747 210.835 71.852 210.835 73.477C210.835 75.102 210.003 76.181 208.781 76.181ZM217.024 77H218.207V70.903H219.702V69.941H218.207V68.823C218.207 67.913 218.532 67.432 219.208 67.432C219.455 67.432 219.741 67.497 220.001 67.614L220.261 66.717C219.936 66.574 219.507 66.483 219.078 66.483C217.674 66.483 217.024 67.38 217.024 68.81V69.941L216.062 70.006V70.903H217.024V77ZM222.389 77.169C223.26 77.169 224.053 76.714 224.729 76.155H224.768L224.872 77H225.847V72.658C225.847 70.916 225.119 69.759 223.403 69.759C222.272 69.759 221.271 70.266 220.621 70.682L221.089 71.501C221.648 71.124 222.389 70.747 223.208 70.747C224.365 70.747 224.664 71.618 224.664 72.528C221.661 72.866 220.322 73.633 220.322 75.167C220.322 76.441 221.206 77.169 222.389 77.169ZM222.727 76.22C222.025 76.22 221.479 75.895 221.479 75.089C221.479 74.179 222.285 73.594 224.664 73.308V75.284C223.975 75.895 223.416 76.22 222.727 76.22ZM223.247 68.667L225.522 66.457L224.69 65.664L222.636 68.082L223.247 68.667ZM230.884 77.169C231.729 77.169 232.535 76.844 233.172 76.272L232.652 75.479C232.21 75.882 231.638 76.181 230.988 76.181C229.688 76.181 228.804 75.102 228.804 73.477C228.804 71.852 229.74 70.747 231.027 70.747C231.586 70.747 232.015 71.007 232.431 71.371L233.042 70.591C232.535 70.149 231.898 69.759 230.975 69.759C229.168 69.759 227.569 71.124 227.569 73.477C227.569 75.817 229.012 77.169 230.884 77.169ZM234.717 77H235.9V69.941H234.717V77ZM235.315 68.485C235.783 68.485 236.108 68.173 236.108 67.692C236.108 67.237 235.783 66.925 235.315 66.925C234.847 66.925 234.522 67.237 234.522 67.692C234.522 68.173 234.847 68.485 235.315 68.485ZM239.545 77.169C239.87 77.169 240.065 77.13 240.234 77.065L240.065 76.155C239.935 76.181 239.883 76.181 239.818 76.181C239.636 76.181 239.48 76.038 239.48 75.674V66.652H238.297V75.596C238.297 76.597 238.661 77.169 239.545 77.169ZM247.316 77.169C248.161 77.169 248.902 76.714 249.461 76.168H249.5L249.604 77H250.566V66.652H249.396V69.369L249.448 70.591C248.824 70.071 248.291 69.759 247.459 69.759C245.847 69.759 244.404 71.189 244.404 73.477C244.404 75.83 245.548 77.169 247.316 77.169ZM247.576 76.181C246.328 76.181 245.626 75.167 245.626 73.464C245.626 71.852 246.523 70.76 247.667 70.76C248.252 70.76 248.785 70.968 249.396 71.501V75.206C248.798 75.856 248.226 76.181 247.576 76.181ZM255.819 77.169C256.781 77.169 257.535 76.844 258.159 76.441L257.73 75.661C257.21 76.012 256.651 76.22 255.962 76.22C254.623 76.22 253.7 75.258 253.622 73.75H258.38C258.406 73.581 258.432 73.334 258.432 73.074C258.432 71.059 257.418 69.759 255.624 69.759C253.986 69.759 252.439 71.189 252.439 73.477C252.439 75.804 253.947 77.169 255.819 77.169ZM253.609 72.892C253.752 71.514 254.636 70.708 255.637 70.708C256.742 70.708 257.392 71.475 257.392 72.892H253.609ZM264.924 77.169C266.588 77.169 267.498 76.22 267.498 75.076C267.498 73.737 266.367 73.321 265.34 72.931C264.547 72.632 263.819 72.385 263.819 71.709C263.819 71.163 264.235 70.695 265.132 70.695C265.756 70.695 266.25 70.955 266.731 71.319L267.303 70.552C266.757 70.123 265.99 69.759 265.119 69.759C263.585 69.759 262.675 70.643 262.675 71.761C262.675 72.957 263.754 73.438 264.742 73.802C265.522 74.101 266.354 74.413 266.354 75.141C266.354 75.752 265.899 76.246 264.963 76.246C264.118 76.246 263.481 75.908 262.87 75.414L262.285 76.194C262.961 76.753 263.923 77.169 264.924 77.169ZM271.213 77.169C272.188 77.169 272.89 76.662 273.553 75.895H273.592L273.683 77H274.671V69.941H273.488V74.946C272.812 75.791 272.305 76.142 271.577 76.142C270.641 76.142 270.251 75.583 270.251 74.27V69.941H269.068V74.413C269.068 76.207 269.731 77.169 271.213 77.169ZM278.901 77.169C280.565 77.169 281.475 76.22 281.475 75.076C281.475 73.737 280.344 73.321 279.317 72.931C278.524 72.632 277.796 72.385 277.796 71.709C277.796 71.163 278.212 70.695 279.109 70.695C279.733 70.695 280.227 70.955 280.708 71.319L281.28 70.552C280.734 70.123 279.967 69.759 279.096 69.759C277.562 69.759 276.652 70.643 276.652 71.761C276.652 72.957 277.731 73.438 278.719 73.802C279.499 74.101 280.331 74.413 280.331 75.141C280.331 75.752 279.876 76.246 278.94 76.246C278.095 76.246 277.458 75.908 276.847 75.414L276.262 76.194C276.938 76.753 277.9 77.169 278.901 77.169ZM30.3537 96H31.5367V88.941H30.3537V96ZM30.9517 87.485C31.4197 87.485 31.7447 87.173 31.7447 86.692C31.7447 86.237 31.4197 85.925 30.9517 85.925C30.4837 85.925 30.1587 86.237 30.1587 86.692C30.1587 87.173 30.4837 87.485 30.9517 87.485ZM33.9338 96H35.1168V90.878C35.8318 90.163 36.3258 89.799 37.0538 89.799C37.9898 89.799 38.3928 90.358 38.3928 91.684V96H39.5758V91.528C39.5758 89.721 38.8998 88.759 37.4178 88.759C36.4558 88.759 35.7278 89.292 35.0518 89.955H35.0128L34.9088 88.941H33.9338V96ZM43.4021 96H44.7801L47.2891 88.941H46.1191L44.7801 92.958C44.5721 93.647 44.3511 94.375 44.1301 95.038H44.0781C43.8571 94.375 43.6361 93.647 43.4151 92.958L42.0891 88.941H40.8541L43.4021 96ZM51.4566 96.169C52.4186 96.169 53.1726 95.844 53.7966 95.441L53.3676 94.661C52.8476 95.012 52.2886 95.22 51.5996 95.22C50.2606 95.22 49.3376 94.258 49.2596 92.75H54.0176C54.0436 92.581 54.0696 92.334 54.0696 92.074C54.0696 90.059 53.0556 88.759 51.2616 88.759C49.6236 88.759 48.0766 90.189 48.0766 92.477C48.0766 94.804 49.5846 96.169 51.4566 96.169ZM49.2466 91.892C49.3896 90.514 50.2736 89.708 51.2746 89.708C52.3796 89.708 53.0296 90.475 53.0296 91.892H49.2466ZM55.8078 96H56.9908V91.463C57.4588 90.254 58.1868 89.838 58.7718 89.838C59.0578 89.838 59.2268 89.864 59.4608 89.955L59.6818 88.915C59.4608 88.798 59.2398 88.759 58.9278 88.759C58.1348 88.759 57.4198 89.331 56.9258 90.228H56.8868L56.7828 88.941H55.8078V96ZM62.6431 96.169C64.3071 96.169 65.2171 95.22 65.2171 94.076C65.2171 92.737 64.0861 92.321 63.0591 91.931C62.2661 91.632 61.5381 91.385 61.5381 90.709C61.5381 90.163 61.9541 89.695 62.8511 89.695C63.4751 89.695 63.9691 89.955 64.4501 90.319L65.0221 89.552C64.4761 89.123 63.7091 88.759 62.8381 88.759C61.3041 88.759 60.3941 89.643 60.3941 90.761C60.3941 91.957 61.4731 92.438 62.4611 92.802C63.2411 93.101 64.0731 93.413 64.0731 94.141C64.0731 94.752 63.6181 95.246 62.6821 95.246C61.8371 95.246 61.2001 94.908 60.5891 94.414L60.0041 95.194C60.6801 95.753 61.6421 96.169 62.6431 96.169ZM66.8781 96H68.0611V88.941H66.8781V96ZM67.4761 87.485C67.9441 87.485 68.2691 87.173 68.2691 86.692C68.2691 86.237 67.9441 85.925 67.4761 85.925C67.0081 85.925 66.6831 86.237 66.6831 86.692C66.6831 87.173 67.0081 87.485 67.4761 87.485ZM73.2012 96.169C74.9302 96.169 76.4772 94.817 76.4772 92.477C76.4772 90.124 74.9302 88.759 73.2012 88.759C71.4722 88.759 69.9252 90.124 69.9252 92.477C69.9252 94.817 71.4722 96.169 73.2012 96.169ZM73.2012 95.181C71.9792 95.181 71.1602 94.102 71.1602 92.477C71.1602 90.852 71.9792 89.747 73.2012 89.747C74.4232 89.747 75.2552 90.852 75.2552 92.477C75.2552 94.102 74.4232 95.181 73.2012 95.181ZM78.342 96H79.525V90.878C80.24 90.163 80.734 89.799 81.462 89.799C82.398 89.799 82.801 90.358 82.801 91.684V96H83.984V91.528C83.984 89.721 83.308 88.759 81.826 88.759C80.864 88.759 80.136 89.292 79.46 89.955H79.421L79.317 88.941H78.342V96ZM89.1363 96.169C90.0983 96.169 90.8523 95.844 91.4763 95.441L91.0473 94.661C90.5273 95.012 89.9683 95.22 89.2793 95.22C87.9403 95.22 87.0173 94.258 86.9393 92.75H91.6973C91.7233 92.581 91.7493 92.334 91.7493 92.074C91.7493 90.059 90.7353 88.759 88.9413 88.759C87.3033 88.759 85.7563 90.189 85.7563 92.477C85.7563 94.804 87.2643 96.169 89.1363 96.169ZM86.9263 91.892C87.0693 90.514 87.9533 89.708 88.9543 89.708C90.0593 89.708 90.7093 90.475 90.7093 91.892H86.9263ZM95.3335 96.169C96.9975 96.169 97.9075 95.22 97.9075 94.076C97.9075 92.737 96.7765 92.321 95.7495 91.931C94.9565 91.632 94.2285 91.385 94.2285 90.709C94.2285 90.163 94.6445 89.695 95.5415 89.695C96.1655 89.695 96.6595 89.955 97.1405 90.319L97.7125 89.552C97.1665 89.123 96.3995 88.759 95.5285 88.759C93.9945 88.759 93.0845 89.643 93.0845 90.761C93.0845 91.957 94.1635 92.438 95.1515 92.802C95.9315 93.101 96.7635 93.413 96.7635 94.141C96.7635 94.752 96.3085 95.246 95.3725 95.246C94.5275 95.246 93.8905 94.908 93.2795 94.414L92.6945 95.194C93.3705 95.753 94.3325 96.169 95.3335 96.169ZM102.593 99.042C103.997 99.042 104.738 97.976 105.219 96.585L107.884 88.941H106.727L105.466 92.867C105.271 93.491 105.063 94.206 104.868 94.843H104.803C104.582 94.206 104.335 93.478 104.127 92.867L102.684 88.941H101.449L104.283 96.013L104.127 96.546C103.841 97.417 103.334 98.067 102.528 98.067C102.346 98.067 102.138 98.002 101.995 97.95L101.761 98.899C101.982 98.99 102.255 99.042 102.593 99.042ZM114.944 96.169C115.789 96.169 116.595 95.844 117.232 95.272L116.712 94.479C116.27 94.882 115.698 95.181 115.048 95.181C113.748 95.181 112.864 94.102 112.864 92.477C112.864 90.852 113.8 89.747 115.087 89.747C115.646 89.747 116.075 90.007 116.491 90.371L117.102 89.591C116.595 89.149 115.958 88.759 115.035 88.759C113.228 88.759 111.629 90.124 111.629 92.477C111.629 94.817 113.072 96.169 114.944 96.169ZM121.202 96.169C122.931 96.169 124.478 94.817 124.478 92.477C124.478 90.124 122.931 88.759 121.202 88.759C119.473 88.759 117.926 90.124 117.926 92.477C117.926 94.817 119.473 96.169 121.202 96.169ZM121.202 95.181C119.98 95.181 119.161 94.102 119.161 92.477C119.161 90.852 119.98 89.747 121.202 89.747C122.424 89.747 123.256 90.852 123.256 92.477C123.256 94.102 122.424 95.181 121.202 95.181ZM126.343 96H127.526V90.878C128.241 90.163 128.735 89.799 129.463 89.799C130.399 89.799 130.802 90.358 130.802 91.684V96H131.985V91.528C131.985 89.721 131.309 88.759 129.827 88.759C128.865 88.759 128.137 89.292 127.461 89.955H127.422L127.318 88.941H126.343V96ZM136.513 96.169C136.942 96.169 137.41 96.039 137.813 95.909L137.579 95.025C137.345 95.116 137.02 95.207 136.773 95.207C135.954 95.207 135.681 94.713 135.681 93.842V89.903H137.592V88.941H135.681V86.952H134.693L134.55 88.941L133.445 89.006V89.903H134.498V93.816C134.498 95.22 135.005 96.169 136.513 96.169ZM140.498 96.169C141.369 96.169 142.162 95.714 142.838 95.155H142.877L142.981 96H143.956V91.658C143.956 89.916 143.228 88.759 141.512 88.759C140.381 88.759 139.38 89.266 138.73 89.682L139.198 90.501C139.757 90.124 140.498 89.747 141.317 89.747C142.474 89.747 142.773 90.618 142.773 91.528C139.77 91.866 138.431 92.633 138.431 94.167C138.431 95.441 139.315 96.169 140.498 96.169ZM140.836 95.22C140.134 95.22 139.588 94.895 139.588 94.089C139.588 93.179 140.394 92.594 142.773 92.308V94.284C142.084 94.895 141.525 95.22 140.836 95.22ZM146.211 96H147.394V91.463C147.862 90.254 148.59 89.838 149.175 89.838C149.461 89.838 149.63 89.864 149.864 89.955L150.085 88.915C149.864 88.798 149.643 88.759 149.331 88.759C148.538 88.759 147.823 89.331 147.329 90.228H147.29L147.186 88.941H146.211V96ZM156.94 96.169C157.785 96.169 158.591 95.844 159.228 95.272L158.708 94.479C158.266 94.882 157.694 95.181 157.044 95.181C155.744 95.181 154.86 94.102 154.86 92.477C154.86 90.852 155.796 89.747 157.083 89.747C157.642 89.747 158.071 90.007 158.487 90.371L159.098 89.591C158.591 89.149 157.954 88.759 157.031 88.759C155.224 88.759 153.625 90.124 153.625 92.477C153.625 94.817 155.068 96.169 156.94 96.169ZM163.198 96.169C164.927 96.169 166.474 94.817 166.474 92.477C166.474 90.124 164.927 88.759 163.198 88.759C161.469 88.759 159.922 90.124 159.922 92.477C159.922 94.817 161.469 96.169 163.198 96.169ZM163.198 95.181C161.976 95.181 161.157 94.102 161.157 92.477C161.157 90.852 161.976 89.747 163.198 89.747C164.42 89.747 165.252 90.852 165.252 92.477C165.252 94.102 164.42 95.181 163.198 95.181ZM168.339 96H169.522V90.878C170.237 90.163 170.731 89.799 171.459 89.799C172.395 89.799 172.798 90.358 172.798 91.684V96H173.981V91.528C173.981 89.721 173.305 88.759 171.823 88.759C170.861 88.759 170.133 89.292 169.457 89.955H169.418L169.314 88.941H168.339V96ZM179.194 96H180.377V88.941H179.194V96ZM179.792 87.485C180.26 87.485 180.585 87.173 180.585 86.692C180.585 86.237 180.26 85.925 179.792 85.925C179.324 85.925 178.999 86.237 178.999 86.692C178.999 87.173 179.324 87.485 179.792 87.485ZM182.774 96H183.957V90.878C184.672 90.163 185.166 89.799 185.894 89.799C186.83 89.799 187.233 90.358 187.233 91.684V96H188.416V91.528C188.416 89.721 187.74 88.759 186.258 88.759C185.296 88.759 184.568 89.292 183.892 89.955H183.853L183.749 88.941H182.774V96ZM190.916 96H192.099V89.903H193.594V88.941H192.099V87.823C192.099 86.913 192.424 86.432 193.1 86.432C193.347 86.432 193.633 86.497 193.893 86.614L194.153 85.717C193.828 85.574 193.399 85.483 192.97 85.483C191.566 85.483 190.916 86.38 190.916 87.81V88.941L189.954 89.006V89.903H190.916V96ZM197.552 96.169C199.281 96.169 200.828 94.817 200.828 92.477C200.828 90.124 199.281 88.759 197.552 88.759C195.823 88.759 194.276 90.124 194.276 92.477C194.276 94.817 195.823 96.169 197.552 96.169ZM197.552 95.181C196.33 95.181 195.511 94.102 195.511 92.477C195.511 90.852 196.33 89.747 197.552 89.747C198.774 89.747 199.606 90.852 199.606 92.477C199.606 94.102 198.774 95.181 197.552 95.181ZM202.693 96H203.876V91.463C204.344 90.254 205.072 89.838 205.657 89.838C205.943 89.838 206.112 89.864 206.346 89.955L206.567 88.915C206.346 88.798 206.125 88.759 205.813 88.759C205.02 88.759 204.305 89.331 203.811 90.228H203.772L203.668 88.941H202.693V96ZM207.733 96H208.916V90.878C209.566 90.15 210.164 89.799 210.697 89.799C211.594 89.799 212.01 90.358 212.01 91.684V96H213.193V90.878C213.856 90.15 214.428 89.799 214.974 89.799C215.871 89.799 216.287 90.358 216.287 91.684V96H217.47V91.528C217.47 89.721 216.781 88.759 215.325 88.759C214.467 88.759 213.726 89.318 212.998 90.111C212.712 89.279 212.127 88.759 211.048 88.759C210.203 88.759 209.462 89.292 208.851 89.968H208.812L208.708 88.941H207.733V96ZM221.393 96.169C222.264 96.169 223.057 95.714 223.733 95.155H223.772L223.876 96H224.851V91.658C224.851 89.916 224.123 88.759 222.407 88.759C221.276 88.759 220.275 89.266 219.625 89.682L220.093 90.501C220.652 90.124 221.393 89.747 222.212 89.747C223.369 89.747 223.668 90.618 223.668 91.528C220.665 91.866 219.326 92.633 219.326 94.167C219.326 95.441 220.21 96.169 221.393 96.169ZM221.731 95.22C221.029 95.22 220.483 94.895 220.483 94.089C220.483 93.179 221.289 92.594 223.668 92.308V94.284C222.979 94.895 222.42 95.22 221.731 95.22ZM229.888 96.169C230.733 96.169 231.539 95.844 232.176 95.272L231.656 94.479C231.214 94.882 230.642 95.181 229.992 95.181C228.692 95.181 227.808 94.102 227.808 92.477C227.808 90.852 228.744 89.747 230.031 89.747C230.59 89.747 231.019 90.007 231.435 90.371L232.046 89.591C231.539 89.149 230.902 88.759 229.979 88.759C228.172 88.759 226.573 90.124 226.573 92.477C226.573 94.817 228.016 96.169 229.888 96.169ZM233.72 96H234.903V88.941H233.72V96ZM234.318 87.485C234.786 87.485 235.111 87.173 235.111 86.692C235.111 86.237 234.786 85.925 234.318 85.925C233.85 85.925 233.525 86.237 233.525 86.692C233.525 87.173 233.85 87.485 234.318 87.485ZM240.043 96.169C241.772 96.169 243.319 94.817 243.319 92.477C243.319 90.124 241.772 88.759 240.043 88.759C238.314 88.759 236.767 90.124 236.767 92.477C236.767 94.817 238.314 96.169 240.043 96.169ZM240.043 95.181C238.821 95.181 238.002 94.102 238.002 92.477C238.002 90.852 238.821 89.747 240.043 89.747C241.265 89.747 242.097 90.852 242.097 92.477C242.097 94.102 241.265 95.181 240.043 95.181ZM239.835 87.667L242.11 85.457L241.278 84.664L239.224 87.082L239.835 87.667ZM245.184 96H246.367V90.878C247.082 90.163 247.576 89.799 248.304 89.799C249.24 89.799 249.643 90.358 249.643 91.684V96H250.826V91.528C250.826 89.721 250.15 88.759 248.668 88.759C247.706 88.759 246.978 89.292 246.302 89.955H246.263L246.159 88.941H245.184V96ZM101.145 115.169C101.99 115.169 102.796 114.844 103.433 114.272L102.913 113.479C102.471 113.882 101.899 114.181 101.249 114.181C99.9485 114.181 99.0645 113.102 99.0645 111.477C99.0645 109.852 100.001 108.747 101.288 108.747C101.847 108.747 102.276 109.007 102.692 109.371L103.303 108.591C102.796 108.149 102.159 107.759 101.236 107.759C99.4285 107.759 97.8295 109.124 97.8295 111.477C97.8295 113.817 99.2725 115.169 101.145 115.169ZM106.225 115.169C106.55 115.169 106.745 115.13 106.914 115.065L106.745 114.155C106.615 114.181 106.563 114.181 106.498 114.181C106.316 114.181 106.16 114.038 106.16 113.674V104.652H104.977V113.596C104.977 114.597 105.341 115.169 106.225 115.169ZM110.309 115.169C111.18 115.169 111.973 114.714 112.649 114.155H112.688L112.792 115H113.767V110.658C113.767 108.916 113.039 107.759 111.323 107.759C110.192 107.759 109.191 108.266 108.541 108.682L109.009 109.501C109.568 109.124 110.309 108.747 111.128 108.747C112.285 108.747 112.584 109.618 112.584 110.528C109.581 110.866 108.242 111.633 108.242 113.167C108.242 114.441 109.126 115.169 110.309 115.169ZM110.647 114.22C109.945 114.22 109.399 113.895 109.399 113.089C109.399 112.179 110.205 111.594 112.584 111.308V113.284C111.895 113.895 111.336 114.22 110.647 114.22ZM116.022 115H117.205V110.463C117.673 109.254 118.401 108.838 118.986 108.838C119.272 108.838 119.441 108.864 119.675 108.955L119.896 107.915C119.675 107.798 119.454 107.759 119.142 107.759C118.349 107.759 117.634 108.331 117.14 109.228H117.101L116.997 107.941H116.022V115ZM122.331 115.169C123.202 115.169 123.995 114.714 124.671 114.155H124.71L124.814 115H125.789V110.658C125.789 108.916 125.061 107.759 123.345 107.759C122.214 107.759 121.213 108.266 120.563 108.682L121.031 109.501C121.59 109.124 122.331 108.747 123.15 108.747C124.307 108.747 124.606 109.618 124.606 110.528C121.603 110.866 120.264 111.633 120.264 113.167C120.264 114.441 121.148 115.169 122.331 115.169ZM122.669 114.22C121.967 114.22 121.421 113.895 121.421 113.089C121.421 112.179 122.227 111.594 124.606 111.308V113.284C123.917 113.895 123.358 114.22 122.669 114.22ZM131.068 118.042C132.472 118.042 133.213 116.976 133.694 115.585L136.359 107.941H135.202L133.941 111.867C133.746 112.491 133.538 113.206 133.343 113.843H133.278C133.057 113.206 132.81 112.478 132.602 111.867L131.159 107.941H129.924L132.758 115.013L132.602 115.546C132.316 116.417 131.809 117.067 131.003 117.067C130.821 117.067 130.613 117.002 130.47 116.95L130.236 117.899C130.457 117.99 130.73 118.042 131.068 118.042ZM140.638 117.977H141.821V115.585L141.795 114.35C142.432 114.87 143.108 115.169 143.745 115.169C145.37 115.169 146.813 113.778 146.813 111.36C146.813 109.189 145.825 107.759 144.005 107.759C143.186 107.759 142.393 108.227 141.756 108.747H141.717L141.613 107.941H140.638V117.977ZM143.55 114.181C143.082 114.181 142.458 113.986 141.821 113.44V109.735C142.51 109.098 143.121 108.76 143.719 108.76C145.058 108.76 145.578 109.813 145.578 111.373C145.578 113.128 144.72 114.181 143.55 114.181ZM148.699 115H149.882V110.463C150.35 109.254 151.078 108.838 151.663 108.838C151.949 108.838 152.118 108.864 152.352 108.955L152.573 107.915C152.352 107.798 152.131 107.759 151.819 107.759C151.026 107.759 150.311 108.331 149.817 109.228H149.778L149.674 107.941H148.699V115ZM156.447 115.169C157.409 115.169 158.163 114.844 158.787 114.441L158.358 113.661C157.838 114.012 157.279 114.22 156.59 114.22C155.251 114.22 154.328 113.258 154.25 111.75H159.008C159.034 111.581 159.06 111.334 159.06 111.074C159.06 109.059 158.046 107.759 156.252 107.759C154.614 107.759 153.067 109.189 153.067 111.477C153.067 113.804 154.575 115.169 156.447 115.169ZM154.237 110.892C154.38 109.514 155.264 108.708 156.265 108.708C157.37 108.708 158.02 109.475 158.02 110.892H154.237ZM163.58 115.169C164.425 115.169 165.231 114.844 165.868 114.272L165.348 113.479C164.906 113.882 164.334 114.181 163.684 114.181C162.384 114.181 161.5 113.102 161.5 111.477C161.5 109.852 162.436 108.747 163.723 108.747C164.282 108.747 164.711 109.007 165.127 109.371L165.738 108.591C165.231 108.149 164.594 107.759 163.671 107.759C161.864 107.759 160.265 109.124 160.265 111.477C160.265 113.817 161.708 115.169 163.58 115.169ZM167.412 115H168.595V107.941H167.412V115ZM168.01 106.485C168.478 106.485 168.803 106.173 168.803 105.692C168.803 105.237 168.478 104.925 168.01 104.925C167.542 104.925 167.217 105.237 167.217 105.692C167.217 106.173 167.542 106.485 168.01 106.485ZM172.838 115.169C174.502 115.169 175.412 114.22 175.412 113.076C175.412 111.737 174.281 111.321 173.254 110.931C172.461 110.632 171.733 110.385 171.733 109.709C171.733 109.163 172.149 108.695 173.046 108.695C173.67 108.695 174.164 108.955 174.645 109.319L175.217 108.552C174.671 108.123 173.904 107.759 173.033 107.759C171.499 107.759 170.589 108.643 170.589 109.761C170.589 110.957 171.668 111.438 172.656 111.802C173.436 112.101 174.268 112.413 174.268 113.141C174.268 113.752 173.813 114.246 172.877 114.246C172.032 114.246 171.395 113.908 170.784 113.414L170.199 114.194C170.875 114.753 171.837 115.169 172.838 115.169ZM178.698 115.169C179.569 115.169 180.362 114.714 181.038 114.155H181.077L181.181 115H182.156V110.658C182.156 108.916 181.428 107.759 179.712 107.759C178.581 107.759 177.58 108.266 176.93 108.682L177.398 109.501C177.957 109.124 178.698 108.747 179.517 108.747C180.674 108.747 180.973 109.618 180.973 110.528C177.97 110.866 176.631 111.633 176.631 113.167C176.631 114.441 177.515 115.169 178.698 115.169ZM179.036 114.22C178.334 114.22 177.788 113.895 177.788 113.089C177.788 112.179 178.594 111.594 180.973 111.308V113.284C180.284 113.895 179.725 114.22 179.036 114.22ZM185.022 115.169C185.49 115.169 185.88 114.805 185.88 114.272C185.88 113.726 185.49 113.349 185.022 113.349C184.554 113.349 184.164 113.726 184.164 114.272C184.164 114.805 184.554 115.169 185.022 115.169Z" fill="#484545"/>
</svg>
