<svg width="284" height="19" viewBox="0 0 284 19" fill="none" xmlns="http://www.w3.org/2000/svg">
<path d="M71.4412 18H78.4162V16.14H73.6612V13.17H77.5612V11.31H73.6612V8.745H78.2512V6.885H71.4412V18ZM84.0681 18H90.8031V16.14H86.2881V6.885H84.0681V18ZM99.5369 18H101.757V14.055H103.242C105.627 14.055 107.532 12.915 107.532 10.38C107.532 7.755 105.642 6.885 103.182 6.885H99.5369V18ZM101.757 12.3V8.655H103.017C104.547 8.655 105.357 9.09 105.357 10.38C105.357 11.655 104.622 12.3 103.092 12.3H101.757ZM112.94 18H115.16V13.8H116.705L118.985 18H121.46L118.865 13.455C120.14 12.96 120.98 11.925 120.98 10.26C120.98 7.71 119.135 6.885 116.81 6.885H112.94V18ZM115.16 12.045V8.655H116.6C118.025 8.655 118.82 9.06 118.82 10.26C118.82 11.445 118.025 12.045 116.6 12.045H115.16ZM130.973 18.21C133.913 18.21 135.938 16.005 135.938 12.405C135.938 8.805 133.913 6.69 130.973 6.69C128.033 6.69 126.008 8.79 126.008 12.405C126.008 16.005 128.033 18.21 130.973 18.21ZM130.973 16.29C129.323 16.29 128.273 14.775 128.273 12.405C128.273 10.02 129.323 8.595 130.973 8.595C132.623 8.595 133.673 10.02 133.673 12.405C133.673 14.775 132.623 16.29 130.973 16.29ZM143.71 18H145.93V8.745H149.08V6.885H140.59V8.745H143.71V18ZM158.688 18.21C161.628 18.21 163.653 16.005 163.653 12.405C163.653 8.805 161.628 6.69 158.688 6.69C155.748 6.69 153.723 8.79 153.723 12.405C153.723 16.005 155.748 18.21 158.688 18.21ZM158.688 16.29C157.038 16.29 155.988 14.775 155.988 12.405C155.988 10.02 157.038 8.595 158.688 8.595C160.338 8.595 161.388 10.02 161.388 12.405C161.388 14.775 160.338 16.29 158.688 16.29ZM171.424 18H173.644V8.745H176.794V6.885H168.304V8.745H171.424V18ZM181.993 18H184.213V6.885H181.993V18ZM190.343 18H192.563V14.055H194.048C196.433 14.055 198.338 12.915 198.338 10.38C198.338 7.755 196.448 6.885 193.988 6.885H190.343V18ZM192.563 12.3V8.655H193.823C195.353 8.655 196.163 9.09 196.163 10.38C196.163 11.655 195.428 12.3 193.898 12.3H192.563ZM208.156 18.21C211.096 18.21 213.121 16.005 213.121 12.405C213.121 8.805 211.096 6.69 208.156 6.69C205.216 6.69 203.191 8.79 203.191 12.405C203.191 16.005 205.216 18.21 208.156 18.21ZM208.156 16.29C206.506 16.29 205.456 14.775 205.456 12.405C205.456 10.02 206.506 8.595 208.156 8.595C209.806 8.595 210.856 10.02 210.856 12.405C210.856 14.775 209.806 16.29 208.156 16.29Z" fill="#D29890"/>
</svg>
