<svg width="284" height="277" viewBox="0 0 284 277" fill="none" xmlns="http://www.w3.org/2000/svg">
<path d="M5.895 18.21C7.335 18.21 8.52 17.64 9.435 16.575L8.265 15.195C7.665 15.84 6.93 16.29 5.97 16.29C4.215 16.29 3.075 14.835 3.075 12.42C3.075 10.035 4.335 8.595 6.015 8.595C6.855 8.595 7.5 8.985 8.07 9.525L9.225 8.115C8.505 7.365 7.38 6.69 5.97 6.69C3.165 6.69 0.81 8.835 0.81 12.495C0.81 16.2 3.09 18.21 5.895 18.21ZM19.0318 18.21C21.9718 18.21 23.9968 16.005 23.9968 12.405C23.9968 8.805 21.9718 6.69 19.0318 6.69C16.0918 6.69 14.0668 8.79 14.0668 12.405C14.0668 16.005 16.0918 18.21 19.0318 18.21ZM19.0318 16.29C17.3818 16.29 16.3318 14.775 16.3318 12.405C16.3318 10.02 17.3818 8.595 19.0318 8.595C20.6818 8.595 21.7318 10.02 21.7318 12.405C21.7318 14.775 20.6818 16.29 19.0318 16.29ZM29.5632 18H31.6632V13.545C31.6632 12.27 31.4982 10.875 31.3932 9.675H31.4682L32.5932 12.06L35.8032 18H38.0532V6.885H35.9532V11.325C35.9532 12.585 36.1332 14.055 36.2382 15.21H36.1632L35.0532 12.81L31.8282 6.885H29.5632V18ZM46.402 18H48.622V8.745H51.772V6.885H43.282V8.745H46.402V18ZM56.9705 18H63.9455V16.14H59.1905V13.17H63.0905V11.31H59.1905V8.745H63.7805V6.885H56.9705V18ZM68.4424 18H70.7974L71.9824 15.54C72.2524 14.97 72.5224 14.385 72.7924 13.71H72.8524C73.1824 14.385 73.4374 14.97 73.7224 15.54L74.9674 18H77.4274L74.3074 12.375L77.2324 6.885H74.8924L73.8424 9.18C73.6024 9.705 73.3774 10.245 73.1074 10.935H73.0324C72.7024 10.245 72.4774 9.705 72.2074 9.18L71.0974 6.885H68.6374L71.5624 12.27L68.4424 18ZM84.6052 18H86.8252V8.745H89.9752V6.885H81.4852V8.745H84.6052V18ZM99.5836 18.21C102.524 18.21 104.549 16.005 104.549 12.405C104.549 8.805 102.524 6.69 99.5836 6.69C96.6436 6.69 94.6186 8.79 94.6186 12.405C94.6186 16.005 96.6436 18.21 99.5836 18.21ZM99.5836 16.29C97.9336 16.29 96.8836 14.775 96.8836 12.405C96.8836 10.02 97.9336 8.595 99.5836 8.595C101.234 8.595 102.284 10.02 102.284 12.405C102.284 14.775 101.234 16.29 99.5836 16.29Z" fill="#262626"/>
<path d="M4.901 44.169C6.136 44.169 7.072 43.675 7.826 42.804L7.163 42.05C6.552 42.713 5.863 43.116 4.953 43.116C3.133 43.116 1.989 41.608 1.989 39.203C1.989 36.824 3.185 35.342 4.992 35.342C5.811 35.342 6.448 35.719 6.942 36.252L7.592 35.472C7.046 34.861 6.136 34.289 4.979 34.289C2.561 34.289 0.754 36.161 0.754 39.242C0.754 42.336 2.535 44.169 4.901 44.169ZM11.4004 44.169C12.3754 44.169 13.0774 43.662 13.7404 42.895H13.7794L13.8704 44H14.8584V36.941H13.6754V41.946C12.9994 42.791 12.4924 43.142 11.7644 43.142C10.8284 43.142 10.4384 42.583 10.4384 41.27V36.941H9.25539V41.413C9.25539 43.207 9.91839 44.169 11.4004 44.169ZM17.2429 44H18.4259V38.878C19.0759 38.15 19.6739 37.799 20.2069 37.799C21.1039 37.799 21.5199 38.358 21.5199 39.684V44H22.7029V38.878C23.3659 38.15 23.9379 37.799 24.4839 37.799C25.3809 37.799 25.7969 38.358 25.7969 39.684V44H26.9799V39.528C26.9799 37.721 26.2909 36.759 24.8349 36.759C23.9769 36.759 23.2359 37.318 22.5079 38.111C22.2219 37.279 21.6369 36.759 20.5579 36.759C19.7129 36.759 18.9719 37.292 18.3609 37.968H18.3219L18.2179 36.941H17.2429V44ZM29.278 46.977H30.461V44.585L30.435 43.35C31.072 43.87 31.748 44.169 32.385 44.169C34.01 44.169 35.453 42.778 35.453 40.36C35.453 38.189 34.465 36.759 32.645 36.759C31.826 36.759 31.033 37.227 30.396 37.747H30.357L30.253 36.941H29.278V46.977ZM32.19 43.181C31.722 43.181 31.098 42.986 30.461 42.44V38.735C31.15 38.098 31.761 37.76 32.359 37.76C33.698 37.76 34.218 38.813 34.218 40.373C34.218 42.128 33.36 43.181 32.19 43.181ZM38.5876 44.169C38.9126 44.169 39.1076 44.13 39.2766 44.065L39.1076 43.155C38.9776 43.181 38.9256 43.181 38.8606 43.181C38.6786 43.181 38.5226 43.038 38.5226 42.674V33.652H37.3396V42.596C37.3396 43.597 37.7036 44.169 38.5876 44.169ZM43.7896 44.169C45.5186 44.169 47.0656 42.817 47.0656 40.477C47.0656 38.124 45.5186 36.759 43.7896 36.759C42.0606 36.759 40.5136 38.124 40.5136 40.477C40.5136 42.817 42.0606 44.169 43.7896 44.169ZM43.7896 43.181C42.5676 43.181 41.7486 42.102 41.7486 40.477C41.7486 38.852 42.5676 37.747 43.7896 37.747C45.0116 37.747 45.8436 38.852 45.8436 40.477C45.8436 42.102 45.0116 43.181 43.7896 43.181ZM54.6846 44.169C55.6466 44.169 56.4006 43.844 57.0246 43.441L56.5956 42.661C56.0756 43.012 55.5166 43.22 54.8276 43.22C53.4886 43.22 52.5656 42.258 52.4876 40.75H57.2456C57.2716 40.581 57.2976 40.334 57.2976 40.074C57.2976 38.059 56.2836 36.759 54.4896 36.759C52.8516 36.759 51.3046 38.189 51.3046 40.477C51.3046 42.804 52.8126 44.169 54.6846 44.169ZM52.4746 39.892C52.6176 38.514 53.5016 37.708 54.5026 37.708C55.6076 37.708 56.2576 38.475 56.2576 39.892H52.4746ZM60.8818 44.169C62.5458 44.169 63.4558 43.22 63.4558 42.076C63.4558 40.737 62.3248 40.321 61.2978 39.931C60.5048 39.632 59.7768 39.385 59.7768 38.709C59.7768 38.163 60.1928 37.695 61.0898 37.695C61.7138 37.695 62.2078 37.955 62.6888 38.319L63.2608 37.552C62.7148 37.123 61.9478 36.759 61.0768 36.759C59.5428 36.759 58.6328 37.643 58.6328 38.761C58.6328 39.957 59.7118 40.438 60.6998 40.802C61.4798 41.101 62.3118 41.413 62.3118 42.141C62.3118 42.752 61.8568 43.246 60.9208 43.246C60.0758 43.246 59.4388 42.908 58.8278 42.414L58.2428 43.194C58.9188 43.753 59.8808 44.169 60.8818 44.169ZM70.0781 44.169C71.0531 44.169 71.7551 43.662 72.4181 42.895H72.4571L72.5481 44H73.5361V36.941H72.3531V41.946C71.6771 42.791 71.1701 43.142 70.4421 43.142C69.5061 43.142 69.1161 42.583 69.1161 41.27V36.941H67.9331V41.413C67.9331 43.207 68.5961 44.169 70.0781 44.169ZM75.9206 44H77.1036V38.878C77.8186 38.163 78.3126 37.799 79.0406 37.799C79.9766 37.799 80.3796 38.358 80.3796 39.684V44H81.5626V39.528C81.5626 37.721 80.8866 36.759 79.4046 36.759C78.4426 36.759 77.7146 37.292 77.0386 37.955H76.9996L76.8956 36.941H75.9206V44ZM85.4929 44.169C86.3639 44.169 87.1569 43.714 87.8329 43.155H87.8719L87.9759 44H88.9509V39.658C88.9509 37.916 88.2229 36.759 86.5069 36.759C85.3759 36.759 84.3749 37.266 83.7249 37.682L84.1929 38.501C84.7519 38.124 85.4929 37.747 86.3119 37.747C87.4689 37.747 87.7679 38.618 87.7679 39.528C84.7649 39.866 83.4259 40.633 83.4259 42.167C83.4259 43.441 84.3099 44.169 85.4929 44.169ZM85.8309 43.22C85.1289 43.22 84.5829 42.895 84.5829 42.089C84.5829 41.179 85.3889 40.594 87.7679 40.308V42.284C87.0789 42.895 86.5199 43.22 85.8309 43.22ZM94.113 46.977H95.296V44.585L95.27 43.35C95.907 43.87 96.583 44.169 97.22 44.169C98.845 44.169 100.288 42.778 100.288 40.36C100.288 38.189 99.3 36.759 97.48 36.759C96.661 36.759 95.868 37.227 95.231 37.747H95.192L95.088 36.941H94.113V46.977ZM97.025 43.181C96.557 43.181 95.933 42.986 95.296 42.44V38.735C95.985 38.098 96.596 37.76 97.194 37.76C98.533 37.76 99.053 38.813 99.053 40.373C99.053 42.128 98.195 43.181 97.025 43.181ZM103.423 44.169C103.748 44.169 103.943 44.13 104.112 44.065L103.943 43.155C103.813 43.181 103.761 43.181 103.696 43.181C103.514 43.181 103.358 43.038 103.358 42.674V33.652H102.175V42.596C102.175 43.597 102.539 44.169 103.423 44.169ZM107.507 44.169C108.378 44.169 109.171 43.714 109.847 43.155H109.886L109.99 44H110.965V39.658C110.965 37.916 110.237 36.759 108.521 36.759C107.39 36.759 106.389 37.266 105.739 37.682L106.207 38.501C106.766 38.124 107.507 37.747 108.326 37.747C109.483 37.747 109.782 38.618 109.782 39.528C106.779 39.866 105.44 40.633 105.44 42.167C105.44 43.441 106.324 44.169 107.507 44.169ZM107.845 43.22C107.143 43.22 106.597 42.895 106.597 42.089C106.597 41.179 107.403 40.594 109.782 40.308V42.284C109.093 42.895 108.534 43.22 107.845 43.22ZM115.252 44.169C115.681 44.169 116.149 44.039 116.552 43.909L116.318 43.025C116.084 43.116 115.759 43.207 115.512 43.207C114.693 43.207 114.42 42.713 114.42 41.842V37.903H116.331V36.941H114.42V34.952H113.432L113.289 36.941L112.184 37.006V37.903H113.237V41.816C113.237 43.22 113.744 44.169 115.252 44.169ZM119.237 44.169C120.108 44.169 120.901 43.714 121.577 43.155H121.616L121.72 44H122.695V39.658C122.695 37.916 121.967 36.759 120.251 36.759C119.12 36.759 118.119 37.266 117.469 37.682L117.937 38.501C118.496 38.124 119.237 37.747 120.056 37.747C121.213 37.747 121.512 38.618 121.512 39.528C118.509 39.866 117.17 40.633 117.17 42.167C117.17 43.441 118.054 44.169 119.237 44.169ZM119.575 43.22C118.873 43.22 118.327 42.895 118.327 42.089C118.327 41.179 119.133 40.594 121.512 40.308V42.284C120.823 42.895 120.264 43.22 119.575 43.22ZM125.145 44H126.328V37.903H127.823V36.941H126.328V35.823C126.328 34.913 126.653 34.432 127.329 34.432C127.576 34.432 127.862 34.497 128.122 34.614L128.382 33.717C128.057 33.574 127.628 33.483 127.199 33.483C125.795 33.483 125.145 34.38 125.145 35.81V36.941L124.183 37.006V37.903H125.145V44ZM131.781 44.169C133.51 44.169 135.057 42.817 135.057 40.477C135.057 38.124 133.51 36.759 131.781 36.759C130.052 36.759 128.505 38.124 128.505 40.477C128.505 42.817 130.052 44.169 131.781 44.169ZM131.781 43.181C130.559 43.181 129.74 42.102 129.74 40.477C129.74 38.852 130.559 37.747 131.781 37.747C133.003 37.747 133.835 38.852 133.835 40.477C133.835 42.102 133.003 43.181 131.781 43.181ZM136.922 44H138.105V39.463C138.573 38.254 139.301 37.838 139.886 37.838C140.172 37.838 140.341 37.864 140.575 37.955L140.796 36.915C140.575 36.798 140.354 36.759 140.042 36.759C139.249 36.759 138.534 37.331 138.04 38.228H138.001L137.897 36.941H136.922V44ZM141.962 44H143.145V38.878C143.795 38.15 144.393 37.799 144.926 37.799C145.823 37.799 146.239 38.358 146.239 39.684V44H147.422V38.878C148.085 38.15 148.657 37.799 149.203 37.799C150.1 37.799 150.516 38.358 150.516 39.684V44H151.699V39.528C151.699 37.721 151.01 36.759 149.554 36.759C148.696 36.759 147.955 37.318 147.227 38.111C146.941 37.279 146.356 36.759 145.277 36.759C144.432 36.759 143.691 37.292 143.08 37.968H143.041L142.937 36.941H141.962V44ZM155.622 44.169C156.493 44.169 157.286 43.714 157.962 43.155H158.001L158.105 44H159.08V39.658C159.08 37.916 158.352 36.759 156.636 36.759C155.505 36.759 154.504 37.266 153.854 37.682L154.322 38.501C154.881 38.124 155.622 37.747 156.441 37.747C157.598 37.747 157.897 38.618 157.897 39.528C154.894 39.866 153.555 40.633 153.555 42.167C153.555 43.441 154.439 44.169 155.622 44.169ZM155.96 43.22C155.258 43.22 154.712 42.895 154.712 42.089C154.712 41.179 155.518 40.594 157.897 40.308V42.284C157.208 42.895 156.649 43.22 155.96 43.22ZM168.727 46.977H169.897V36.941H168.961L168.844 37.617H168.805C168.194 37.058 167.609 36.759 166.79 36.759C165.178 36.759 163.735 38.189 163.735 40.477C163.735 42.83 164.879 44.169 166.647 44.169C167.466 44.169 168.207 43.74 168.779 43.181L168.727 44.468V46.977ZM166.907 43.181C165.659 43.181 164.957 42.167 164.957 40.464C164.957 38.852 165.854 37.76 166.998 37.76C167.583 37.76 168.116 37.968 168.727 38.501V42.206C168.129 42.856 167.557 43.181 166.907 43.181ZM174.357 44.169C175.332 44.169 176.034 43.662 176.697 42.895H176.736L176.827 44H177.815V36.941H176.632V41.946C175.956 42.791 175.449 43.142 174.721 43.142C173.785 43.142 173.395 42.583 173.395 41.27V36.941H172.212V41.413C172.212 43.207 172.875 44.169 174.357 44.169ZM183.047 44.169C184.009 44.169 184.763 43.844 185.387 43.441L184.958 42.661C184.438 43.012 183.879 43.22 183.19 43.22C181.851 43.22 180.928 42.258 180.85 40.75H185.608C185.634 40.581 185.66 40.334 185.66 40.074C185.66 38.059 184.646 36.759 182.852 36.759C181.214 36.759 179.667 38.189 179.667 40.477C179.667 42.804 181.175 44.169 183.047 44.169ZM180.837 39.892C180.98 38.514 181.864 37.708 182.865 37.708C183.97 37.708 184.62 38.475 184.62 39.892H180.837ZM190.305 46.977H191.488V44.585L191.462 43.35C192.099 43.87 192.775 44.169 193.412 44.169C195.037 44.169 196.48 42.778 196.48 40.36C196.48 38.189 195.492 36.759 193.672 36.759C192.853 36.759 192.06 37.227 191.423 37.747H191.384L191.28 36.941H190.305V46.977ZM193.217 43.181C192.749 43.181 192.125 42.986 191.488 42.44V38.735C192.177 38.098 192.788 37.76 193.386 37.76C194.725 37.76 195.245 38.813 195.245 40.373C195.245 42.128 194.387 43.181 193.217 43.181ZM198.367 44H199.55V39.463C200.018 38.254 200.746 37.838 201.331 37.838C201.617 37.838 201.786 37.864 202.02 37.955L202.241 36.915C202.02 36.798 201.799 36.759 201.487 36.759C200.694 36.759 199.979 37.331 199.485 38.228H199.446L199.342 36.941H198.367V44ZM206.01 44.169C207.739 44.169 209.286 42.817 209.286 40.477C209.286 38.124 207.739 36.759 206.01 36.759C204.281 36.759 202.734 38.124 202.734 40.477C202.734 42.817 204.281 44.169 206.01 44.169ZM206.01 43.181C204.788 43.181 203.969 42.102 203.969 40.477C203.969 38.852 204.788 37.747 206.01 37.747C207.232 37.747 208.064 38.852 208.064 40.477C208.064 42.102 207.232 43.181 206.01 43.181ZM211.151 46.977H212.334V44.585L212.308 43.35C212.945 43.87 213.621 44.169 214.258 44.169C215.883 44.169 217.326 42.778 217.326 40.36C217.326 38.189 216.338 36.759 214.518 36.759C213.699 36.759 212.906 37.227 212.269 37.747H212.23L212.126 36.941H211.151V46.977ZM214.063 43.181C213.595 43.181 212.971 42.986 212.334 42.44V38.735C213.023 38.098 213.634 37.76 214.232 37.76C215.571 37.76 216.091 38.813 216.091 40.373C216.091 42.128 215.233 43.181 214.063 43.181ZM221.956 44.169C223.685 44.169 225.232 42.817 225.232 40.477C225.232 38.124 223.685 36.759 221.956 36.759C220.227 36.759 218.68 38.124 218.68 40.477C218.68 42.817 220.227 44.169 221.956 44.169ZM221.956 43.181C220.734 43.181 219.915 42.102 219.915 40.477C219.915 38.852 220.734 37.747 221.956 37.747C223.178 37.747 224.01 38.852 224.01 40.477C224.01 42.102 223.178 43.181 221.956 43.181ZM227.096 44H228.279V39.463C228.747 38.254 229.475 37.838 230.06 37.838C230.346 37.838 230.515 37.864 230.749 37.955L230.97 36.915C230.749 36.798 230.528 36.759 230.216 36.759C229.423 36.759 228.708 37.331 228.214 38.228H228.175L228.071 36.941H227.096V44ZM234.779 44.169C235.624 44.169 236.43 43.844 237.067 43.272L236.547 42.479C236.105 42.882 235.533 43.181 234.883 43.181C233.583 43.181 232.699 42.102 232.699 40.477C232.699 38.852 233.635 37.747 234.922 37.747C235.481 37.747 235.91 38.007 236.326 38.371L236.937 37.591C236.43 37.149 235.793 36.759 234.87 36.759C233.063 36.759 231.464 38.124 231.464 40.477C231.464 42.817 232.907 44.169 234.779 44.169ZM238.611 44H239.794V36.941H238.611V44ZM239.209 35.485C239.677 35.485 240.002 35.173 240.002 34.692C240.002 34.237 239.677 33.925 239.209 33.925C238.741 33.925 238.416 34.237 238.416 34.692C238.416 35.173 238.741 35.485 239.209 35.485ZM244.934 44.169C246.663 44.169 248.21 42.817 248.21 40.477C248.21 38.124 246.663 36.759 244.934 36.759C243.205 36.759 241.658 38.124 241.658 40.477C241.658 42.817 243.205 44.169 244.934 44.169ZM244.934 43.181C243.712 43.181 242.893 42.102 242.893 40.477C242.893 38.852 243.712 37.747 244.934 37.747C246.156 37.747 246.988 38.852 246.988 40.477C246.988 42.102 246.156 43.181 244.934 43.181ZM250.075 44H251.258V38.878C251.973 38.163 252.467 37.799 253.195 37.799C254.131 37.799 254.534 38.358 254.534 39.684V44H255.717V39.528C255.717 37.721 255.041 36.759 253.559 36.759C252.597 36.759 251.869 37.292 251.193 37.955H251.154L251.05 36.941H250.075V44ZM259.647 44.169C260.518 44.169 261.311 43.714 261.987 43.155H262.026L262.13 44H263.105V39.658C263.105 37.916 262.377 36.759 260.661 36.759C259.53 36.759 258.529 37.266 257.879 37.682L258.347 38.501C258.906 38.124 259.647 37.747 260.466 37.747C261.623 37.747 261.922 38.618 261.922 39.528C258.919 39.866 257.58 40.633 257.58 42.167C257.58 43.441 258.464 44.169 259.647 44.169ZM259.985 43.22C259.283 43.22 258.737 42.895 258.737 42.089C258.737 41.179 259.543 40.594 261.922 40.308V42.284C261.233 42.895 260.674 43.22 259.985 43.22ZM270.321 44.169C271.296 44.169 271.998 43.662 272.661 42.895H272.7L272.791 44H273.779V36.941H272.596V41.946C271.92 42.791 271.413 43.142 270.685 43.142C269.749 43.142 269.359 42.583 269.359 41.27V36.941H268.176V41.413C268.176 43.207 268.839 44.169 270.321 44.169ZM276.164 44H277.347V38.878C278.062 38.163 278.556 37.799 279.284 37.799C280.22 37.799 280.623 38.358 280.623 39.684V44H281.806V39.528C281.806 37.721 281.13 36.759 279.648 36.759C278.686 36.759 277.958 37.292 277.282 37.955H277.243L277.139 36.941H276.164V44ZM1.196 65.977H2.379V63.585L2.353 62.35C2.99 62.87 3.666 63.169 4.303 63.169C5.928 63.169 7.371 61.778 7.371 59.36C7.371 57.189 6.383 55.759 4.563 55.759C3.744 55.759 2.951 56.227 2.314 56.747H2.275L2.171 55.941H1.196V65.977ZM4.108 62.181C3.64 62.181 3.016 61.986 2.379 61.44V57.735C3.068 57.098 3.679 56.76 4.277 56.76C5.616 56.76 6.136 57.813 6.136 59.373C6.136 61.128 5.278 62.181 4.108 62.181ZM11.3115 63.169C12.2865 63.169 12.9885 62.662 13.6515 61.895H13.6905L13.7815 63H14.7695V55.941H13.5865V60.946C12.9105 61.791 12.4035 62.142 11.6755 62.142C10.7395 62.142 10.3495 61.583 10.3495 60.27V55.941H9.16652V60.413C9.16652 62.207 9.82952 63.169 11.3115 63.169ZM17.154 63H18.337V57.878C19.052 57.163 19.546 56.799 20.274 56.799C21.21 56.799 21.613 57.358 21.613 58.684V63H22.796V58.528C22.796 56.721 22.12 55.759 20.638 55.759C19.676 55.759 18.948 56.292 18.272 56.955H18.233L18.129 55.941H17.154V63ZM27.3243 63.169C27.7533 63.169 28.2213 63.039 28.6243 62.909L28.3903 62.025C28.1563 62.116 27.8313 62.207 27.5843 62.207C26.7653 62.207 26.4923 61.713 26.4923 60.842V56.903H28.4033V55.941H26.4923V53.952H25.5043L25.3613 55.941L24.2563 56.006V56.903H25.3093V60.816C25.3093 62.22 25.8163 63.169 27.3243 63.169ZM32.5542 63.169C34.2832 63.169 35.8302 61.817 35.8302 59.477C35.8302 57.124 34.2832 55.759 32.5542 55.759C30.8252 55.759 29.2782 57.124 29.2782 59.477C29.2782 61.817 30.8252 63.169 32.5542 63.169ZM32.5542 62.181C31.3322 62.181 30.5132 61.102 30.5132 59.477C30.5132 57.852 31.3322 56.747 32.5542 56.747C33.7762 56.747 34.6082 57.852 34.6082 59.477C34.6082 61.102 33.7762 62.181 32.5542 62.181ZM43.0073 63.169C43.8523 63.169 44.5933 62.714 45.1523 62.168H45.1913L45.2953 63H46.2573V52.652H45.0873V55.369L45.1393 56.591C44.5153 56.071 43.9823 55.759 43.1503 55.759C41.5383 55.759 40.0953 57.189 40.0953 59.477C40.0953 61.83 41.2393 63.169 43.0073 63.169ZM43.2673 62.181C42.0193 62.181 41.3172 61.167 41.3172 59.464C41.3172 57.852 42.2143 56.76 43.3583 56.76C43.9433 56.76 44.4763 56.968 45.0873 57.501V61.206C44.4893 61.856 43.9173 62.181 43.2673 62.181ZM51.5108 63.169C52.4728 63.169 53.2268 62.844 53.8508 62.441L53.4218 61.661C52.9018 62.012 52.3428 62.22 51.6538 62.22C50.3148 62.22 49.3918 61.258 49.3138 59.75H54.0718C54.0978 59.581 54.1238 59.334 54.1238 59.074C54.1238 57.059 53.1098 55.759 51.3158 55.759C49.6778 55.759 48.1308 57.189 48.1308 59.477C48.1308 61.804 49.6388 63.169 51.5108 63.169ZM49.3008 58.892C49.4438 57.514 50.3278 56.708 51.3288 56.708C52.4338 56.708 53.0838 57.475 53.0838 58.892H49.3008ZM61.6162 63.169C62.5782 63.169 63.3322 62.844 63.9562 62.441L63.5272 61.661C63.0072 62.012 62.4482 62.22 61.7592 62.22C60.4202 62.22 59.4972 61.258 59.4192 59.75H64.1772C64.2032 59.581 64.2292 59.334 64.2292 59.074C64.2292 57.059 63.2152 55.759 61.4212 55.759C59.7832 55.759 58.2362 57.189 58.2362 59.477C58.2362 61.804 59.7442 63.169 61.6162 63.169ZM59.4062 58.892C59.5492 57.514 60.4332 56.708 61.4342 56.708C62.5392 56.708 63.1892 57.475 63.1892 58.892H59.4062ZM65.9675 63H67.1505V57.878C67.8655 57.163 68.3595 56.799 69.0875 56.799C70.0235 56.799 70.4265 57.358 70.4265 58.684V63H71.6095V58.528C71.6095 56.721 70.9335 55.759 69.4515 55.759C68.4895 55.759 67.7615 56.292 67.0855 56.955H67.0465L66.9425 55.941H65.9675V63ZM76.6968 63.169C77.5418 63.169 78.3478 62.844 78.9848 62.272L78.4648 61.479C78.0228 61.882 77.4508 62.181 76.8008 62.181C75.5008 62.181 74.6168 61.102 74.6168 59.477C74.6168 57.852 75.5528 56.747 76.8398 56.747C77.3988 56.747 77.8278 57.007 78.2438 57.371L78.8548 56.591C78.3478 56.149 77.7108 55.759 76.7878 55.759C74.9808 55.759 73.3818 57.124 73.3818 59.477C73.3818 61.817 74.8248 63.169 76.6968 63.169ZM82.583 63.169C83.558 63.169 84.26 62.662 84.923 61.895H84.962L85.053 63H86.041V55.941H84.858V60.946C84.182 61.791 83.675 62.142 82.947 62.142C82.011 62.142 81.621 61.583 81.621 60.27V55.941H80.438V60.413C80.438 62.207 81.101 63.169 82.583 63.169ZM91.2725 63.169C92.2345 63.169 92.9885 62.844 93.6125 62.441L93.1835 61.661C92.6635 62.012 92.1045 62.22 91.4155 62.22C90.0765 62.22 89.1535 61.258 89.0755 59.75H93.8335C93.8595 59.581 93.8855 59.334 93.8855 59.074C93.8855 57.059 92.8715 55.759 91.0775 55.759C89.4395 55.759 87.8925 57.189 87.8925 59.477C87.8925 61.804 89.4005 63.169 91.2725 63.169ZM89.0625 58.892C89.2055 57.514 90.0895 56.708 91.0905 56.708C92.1955 56.708 92.8455 57.475 92.8455 58.892H89.0625ZM95.6237 63H96.8067V57.878C97.5217 57.163 98.0157 56.799 98.7437 56.799C99.6797 56.799 100.083 57.358 100.083 58.684V63H101.266V58.528C101.266 56.721 100.59 55.759 99.1077 55.759C98.1457 55.759 97.4177 56.292 96.7417 56.955H96.7027L96.5987 55.941H95.6237V63ZM105.794 63.169C106.223 63.169 106.691 63.039 107.094 62.909L106.86 62.025C106.626 62.116 106.301 62.207 106.054 62.207C105.235 62.207 104.962 61.713 104.962 60.842V56.903H106.873V55.941H104.962V53.952H103.974L103.831 55.941L102.726 56.006V56.903H103.779V60.816C103.779 62.22 104.286 63.169 105.794 63.169ZM108.471 63H109.654V58.463C110.122 57.254 110.85 56.838 111.435 56.838C111.721 56.838 111.89 56.864 112.124 56.955L112.345 55.915C112.124 55.798 111.903 55.759 111.591 55.759C110.798 55.759 110.083 56.331 109.589 57.228H109.55L109.446 55.941H108.471V63ZM116.115 63.169C117.844 63.169 119.391 61.817 119.391 59.477C119.391 57.124 117.844 55.759 116.115 55.759C114.386 55.759 112.839 57.124 112.839 59.477C112.839 61.817 114.386 63.169 116.115 63.169ZM116.115 62.181C114.893 62.181 114.074 61.102 114.074 59.477C114.074 57.852 114.893 56.747 116.115 56.747C117.337 56.747 118.169 57.852 118.169 59.477C118.169 61.102 117.337 62.181 116.115 62.181ZM124.163 65.977H125.346V63.585L125.32 62.35C125.957 62.87 126.633 63.169 127.27 63.169C128.895 63.169 130.338 61.778 130.338 59.36C130.338 57.189 129.35 55.759 127.53 55.759C126.711 55.759 125.918 56.227 125.281 56.747H125.242L125.138 55.941H124.163V65.977ZM127.075 62.181C126.607 62.181 125.983 61.986 125.346 61.44V57.735C126.035 57.098 126.646 56.76 127.244 56.76C128.583 56.76 129.103 57.813 129.103 59.373C129.103 61.128 128.245 62.181 127.075 62.181ZM133.646 63.169C134.517 63.169 135.31 62.714 135.986 62.155H136.025L136.129 63H137.104V58.658C137.104 56.916 136.376 55.759 134.66 55.759C133.529 55.759 132.528 56.266 131.878 56.682L132.346 57.501C132.905 57.124 133.646 56.747 134.465 56.747C135.622 56.747 135.921 57.618 135.921 58.528C132.918 58.866 131.579 59.633 131.579 61.167C131.579 62.441 132.463 63.169 133.646 63.169ZM133.984 62.22C133.282 62.22 132.736 61.895 132.736 61.089C132.736 60.179 133.542 59.594 135.921 59.308V61.284C135.232 61.895 134.673 62.22 133.984 62.22ZM139.359 63H140.542V58.463C141.01 57.254 141.738 56.838 142.323 56.838C142.609 56.838 142.778 56.864 143.012 56.955L143.233 55.915C143.012 55.798 142.791 55.759 142.479 55.759C141.686 55.759 140.971 56.331 140.477 57.228H140.438L140.334 55.941H139.359V63ZM145.669 63.169C146.54 63.169 147.333 62.714 148.009 62.155H148.048L148.152 63H149.127V58.658C149.127 56.916 148.399 55.759 146.683 55.759C145.552 55.759 144.551 56.266 143.901 56.682L144.369 57.501C144.928 57.124 145.669 56.747 146.488 56.747C147.645 56.747 147.944 57.618 147.944 58.528C144.941 58.866 143.602 59.633 143.602 61.167C143.602 62.441 144.486 63.169 145.669 63.169ZM146.007 62.22C145.305 62.22 144.759 61.895 144.759 61.089C144.759 60.179 145.565 59.594 147.944 59.308V61.284C147.255 61.895 146.696 62.22 146.007 62.22ZM158.774 65.977H159.944V55.941H159.008L158.891 56.617H158.852C158.241 56.058 157.656 55.759 156.837 55.759C155.225 55.759 153.782 57.189 153.782 59.477C153.782 61.83 154.926 63.169 156.694 63.169C157.513 63.169 158.254 62.74 158.826 62.181L158.774 63.468V65.977ZM156.954 62.181C155.706 62.181 155.004 61.167 155.004 59.464C155.004 57.852 155.901 56.76 157.045 56.76C157.63 56.76 158.163 56.968 158.774 57.501V61.206C158.176 61.856 157.604 62.181 156.954 62.181ZM164.404 63.169C165.379 63.169 166.081 62.662 166.744 61.895H166.783L166.874 63H167.862V55.941H166.679V60.946C166.003 61.791 165.496 62.142 164.768 62.142C163.832 62.142 163.442 61.583 163.442 60.27V55.941H162.259V60.413C162.259 62.207 162.922 63.169 164.404 63.169ZM173.094 63.169C174.056 63.169 174.81 62.844 175.434 62.441L175.005 61.661C174.485 62.012 173.926 62.22 173.237 62.22C171.898 62.22 170.975 61.258 170.897 59.75H175.655C175.681 59.581 175.707 59.334 175.707 59.074C175.707 57.059 174.693 55.759 172.899 55.759C171.261 55.759 169.714 57.189 169.714 59.477C169.714 61.804 171.222 63.169 173.094 63.169ZM170.884 58.892C171.027 57.514 171.911 56.708 172.912 56.708C174.017 56.708 174.667 57.475 174.667 58.892H170.884ZM181.6 63.169C181.925 63.169 182.12 63.13 182.289 63.065L182.12 62.155C181.99 62.181 181.938 62.181 181.873 62.181C181.691 62.181 181.535 62.038 181.535 61.674V52.652H180.352V61.596C180.352 62.597 180.716 63.169 181.6 63.169ZM186.802 63.169C188.531 63.169 190.078 61.817 190.078 59.477C190.078 57.124 188.531 55.759 186.802 55.759C185.073 55.759 183.526 57.124 183.526 59.477C183.526 61.817 185.073 63.169 186.802 63.169ZM186.802 62.181C185.58 62.181 184.761 61.102 184.761 59.477C184.761 57.852 185.58 56.747 186.802 56.747C188.024 56.747 188.856 57.852 188.856 59.477C188.856 61.102 188.024 62.181 186.802 62.181ZM193.789 63.169C195.453 63.169 196.363 62.22 196.363 61.076C196.363 59.737 195.232 59.321 194.205 58.931C193.412 58.632 192.684 58.385 192.684 57.709C192.684 57.163 193.1 56.695 193.997 56.695C194.621 56.695 195.115 56.955 195.596 57.319L196.168 56.552C195.622 56.123 194.855 55.759 193.984 55.759C192.45 55.759 191.54 56.643 191.54 57.761C191.54 58.957 192.619 59.438 193.607 59.802C194.387 60.101 195.219 60.413 195.219 61.141C195.219 61.752 194.764 62.246 193.828 62.246C192.983 62.246 192.346 61.908 191.735 61.414L191.15 62.194C191.826 62.753 192.788 63.169 193.789 63.169ZM200.931 63H202.114V55.941H200.931V63ZM201.529 54.485C201.997 54.485 202.322 54.173 202.322 53.692C202.322 53.237 201.997 52.925 201.529 52.925C201.061 52.925 200.736 53.237 200.736 53.692C200.736 54.173 201.061 54.485 201.529 54.485ZM204.511 63H205.694V57.878C206.409 57.163 206.903 56.799 207.631 56.799C208.567 56.799 208.97 57.358 208.97 58.684V63H210.153V58.528C210.153 56.721 209.477 55.759 207.995 55.759C207.033 55.759 206.305 56.292 205.629 56.955H205.59L205.486 55.941H204.511V63ZM213.98 63H215.358L217.867 55.941H216.697L215.358 59.958C215.15 60.647 214.929 61.375 214.708 62.038H214.656C214.435 61.375 214.214 60.647 213.993 59.958L212.667 55.941H211.432L213.98 63ZM222.034 63.169C222.996 63.169 223.75 62.844 224.374 62.441L223.945 61.661C223.425 62.012 222.866 62.22 222.177 62.22C220.838 62.22 219.915 61.258 219.837 59.75H224.595C224.621 59.581 224.647 59.334 224.647 59.074C224.647 57.059 223.633 55.759 221.839 55.759C220.201 55.759 218.654 57.189 218.654 59.477C218.654 61.804 220.162 63.169 222.034 63.169ZM219.824 58.892C219.967 57.514 220.851 56.708 221.852 56.708C222.957 56.708 223.607 57.475 223.607 58.892H219.824ZM226.385 63H227.568V58.463C228.036 57.254 228.764 56.838 229.349 56.838C229.635 56.838 229.804 56.864 230.038 56.955L230.259 55.915C230.038 55.798 229.817 55.759 229.505 55.759C228.712 55.759 227.997 56.331 227.503 57.228H227.464L227.36 55.941H226.385V63ZM233.221 63.169C234.885 63.169 235.795 62.22 235.795 61.076C235.795 59.737 234.664 59.321 233.637 58.931C232.844 58.632 232.116 58.385 232.116 57.709C232.116 57.163 232.532 56.695 233.429 56.695C234.053 56.695 234.547 56.955 235.028 57.319L235.6 56.552C235.054 56.123 234.287 55.759 233.416 55.759C231.882 55.759 230.972 56.643 230.972 57.761C230.972 58.957 232.051 59.438 233.039 59.802C233.819 60.101 234.651 60.413 234.651 61.141C234.651 61.752 234.196 62.246 233.26 62.246C232.415 62.246 231.778 61.908 231.167 61.414L230.582 62.194C231.258 62.753 232.22 63.169 233.221 63.169ZM237.456 63H238.639V55.941H237.456V63ZM238.054 54.485C238.522 54.485 238.847 54.173 238.847 53.692C238.847 53.237 238.522 52.925 238.054 52.925C237.586 52.925 237.261 53.237 237.261 53.692C237.261 54.173 237.586 54.485 238.054 54.485ZM243.779 63.169C245.508 63.169 247.055 61.817 247.055 59.477C247.055 57.124 245.508 55.759 243.779 55.759C242.05 55.759 240.503 57.124 240.503 59.477C240.503 61.817 242.05 63.169 243.779 63.169ZM243.779 62.181C242.557 62.181 241.738 61.102 241.738 59.477C241.738 57.852 242.557 56.747 243.779 56.747C245.001 56.747 245.833 57.852 245.833 59.477C245.833 61.102 245.001 62.181 243.779 62.181ZM248.92 63H250.103V57.878C250.818 57.163 251.312 56.799 252.04 56.799C252.976 56.799 253.379 57.358 253.379 58.684V63H254.562V58.528C254.562 56.721 253.886 55.759 252.404 55.759C251.442 55.759 250.714 56.292 250.038 56.955H249.999L249.895 55.941H248.92V63ZM256.867 63H258.05V55.941H256.867V63ZM257.465 54.485C257.933 54.485 258.258 54.173 258.258 53.692C258.258 53.237 257.933 52.925 257.465 52.925C256.997 52.925 256.672 53.237 256.672 53.692C256.672 54.173 256.997 54.485 257.465 54.485ZM262.293 63.169C263.957 63.169 264.867 62.22 264.867 61.076C264.867 59.737 263.736 59.321 262.709 58.931C261.916 58.632 261.188 58.385 261.188 57.709C261.188 57.163 261.604 56.695 262.501 56.695C263.125 56.695 263.619 56.955 264.1 57.319L264.672 56.552C264.126 56.123 263.359 55.759 262.488 55.759C260.954 55.759 260.044 56.643 260.044 57.761C260.044 58.957 261.123 59.438 262.111 59.802C262.891 60.101 263.723 60.413 263.723 61.141C263.723 61.752 263.268 62.246 262.332 62.246C261.487 62.246 260.85 61.908 260.239 61.414L259.654 62.194C260.33 62.753 261.292 63.169 262.293 63.169ZM268.459 63.169C268.888 63.169 269.356 63.039 269.759 62.909L269.525 62.025C269.291 62.116 268.966 62.207 268.719 62.207C267.9 62.207 267.627 61.713 267.627 60.842V56.903H269.538V55.941H267.627V53.952H266.639L266.496 55.941L265.391 56.006V56.903H266.444V60.816C266.444 62.22 266.951 63.169 268.459 63.169ZM272.444 63.169C273.315 63.169 274.108 62.714 274.784 62.155H274.823L274.927 63H275.902V58.658C275.902 56.916 275.174 55.759 273.458 55.759C272.327 55.759 271.326 56.266 270.676 56.682L271.144 57.501C271.703 57.124 272.444 56.747 273.263 56.747C274.42 56.747 274.719 57.618 274.719 58.528C271.716 58.866 270.377 59.633 270.377 61.167C270.377 62.441 271.261 63.169 272.444 63.169ZM272.782 62.22C272.08 62.22 271.534 61.895 271.534 61.089C271.534 60.179 272.34 59.594 274.719 59.308V61.284C274.03 61.895 273.471 62.22 272.782 62.22ZM280.003 63.169C281.667 63.169 282.577 62.22 282.577 61.076C282.577 59.737 281.446 59.321 280.419 58.931C279.626 58.632 278.898 58.385 278.898 57.709C278.898 57.163 279.314 56.695 280.211 56.695C280.835 56.695 281.329 56.955 281.81 57.319L282.382 56.552C281.836 56.123 281.069 55.759 280.198 55.759C278.664 55.759 277.754 56.643 277.754 57.761C277.754 58.957 278.833 59.438 279.821 59.802C280.601 60.101 281.433 60.413 281.433 61.141C281.433 61.752 280.978 62.246 280.042 62.246C279.197 62.246 278.56 61.908 277.949 61.414L277.364 62.194C278.04 62.753 279.002 63.169 280.003 63.169ZM1.196 84.977H2.379V82.585L2.353 81.35C2.99 81.87 3.666 82.169 4.303 82.169C5.928 82.169 7.371 80.778 7.371 78.36C7.371 76.189 6.383 74.759 4.563 74.759C3.744 74.759 2.951 75.227 2.314 75.747H2.275L2.171 74.941H1.196V84.977ZM4.108 81.181C3.64 81.181 3.016 80.986 2.379 80.44V76.735C3.068 76.098 3.679 75.76 4.277 75.76C5.616 75.76 6.136 76.813 6.136 78.373C6.136 80.128 5.278 81.181 4.108 81.181ZM11.3115 82.169C12.2865 82.169 12.9885 81.662 13.6515 80.895H13.6905L13.7815 82H14.7695V74.941H13.5865V79.946C12.9105 80.791 12.4035 81.142 11.6755 81.142C10.7395 81.142 10.3495 80.583 10.3495 79.27V74.941H9.16652V79.413C9.16652 81.207 9.82952 82.169 11.3115 82.169ZM20.001 82.169C20.963 82.169 21.717 81.844 22.341 81.441L21.912 80.661C21.392 81.012 20.833 81.22 20.144 81.22C18.805 81.22 17.882 80.258 17.804 78.75H22.562C22.588 78.581 22.614 78.334 22.614 78.074C22.614 76.059 21.6 74.759 19.806 74.759C18.168 74.759 16.621 76.189 16.621 78.477C16.621 80.804 18.129 82.169 20.001 82.169ZM17.791 77.892C17.934 76.514 18.818 75.708 19.819 75.708C20.924 75.708 21.574 76.475 21.574 77.892H17.791ZM26.7573 82.169C27.6023 82.169 28.3433 81.714 28.9023 81.168H28.9413L29.0453 82H30.0073V71.652H28.8373V74.369L28.8893 75.591C28.2653 75.071 27.7323 74.759 26.9003 74.759C25.2883 74.759 23.8453 76.189 23.8453 78.477C23.8453 80.83 24.9893 82.169 26.7573 82.169ZM27.0173 81.181C25.7693 81.181 25.0672 80.167 25.0672 78.464C25.0672 76.852 25.9643 75.76 27.1083 75.76C27.6933 75.76 28.2263 75.968 28.8373 76.501V80.206C28.2393 80.856 27.6673 81.181 27.0173 81.181ZM34.0388 82.169C34.9098 82.169 35.7028 81.714 36.3788 81.155H36.4178L36.5218 82H37.4968V77.658C37.4968 75.916 36.7688 74.759 35.0528 74.759C33.9218 74.759 32.9208 75.266 32.2708 75.682L32.7388 76.501C33.2978 76.124 34.0388 75.747 34.8578 75.747C36.0148 75.747 36.3138 76.618 36.3138 77.528C33.3108 77.866 31.9718 78.633 31.9718 80.167C31.9718 81.441 32.8558 82.169 34.0388 82.169ZM34.3768 81.22C33.6748 81.22 33.1288 80.895 33.1288 80.089C33.1288 79.179 33.9348 78.594 36.3138 78.308V80.284C35.6248 80.895 35.0658 81.22 34.3768 81.22ZM39.7517 82H40.9347V76.878C41.6497 76.163 42.1437 75.799 42.8717 75.799C43.8077 75.799 44.2107 76.358 44.2107 77.684V82H45.3937V77.528C45.3937 75.721 44.7177 74.759 43.2357 74.759C42.2737 74.759 41.5457 75.292 40.8697 75.955H40.8307L40.7267 74.941H39.7517V82ZM50.6062 82H51.7892V74.941H50.6062V82ZM51.2042 73.485C51.6722 73.485 51.9972 73.173 51.9972 72.692C51.9972 72.237 51.6722 71.925 51.2042 71.925C50.7362 71.925 50.4112 72.237 50.4112 72.692C50.4112 73.173 50.7362 73.485 51.2042 73.485ZM54.1862 82H55.3692V76.878C56.0842 76.163 56.5782 75.799 57.3062 75.799C58.2422 75.799 58.6452 76.358 58.6452 77.684V82H59.8282V77.528C59.8282 75.721 59.1522 74.759 57.6702 74.759C56.7082 74.759 55.9802 75.292 55.3042 75.955H55.2652L55.1612 74.941H54.1862V82ZM63.6545 82H65.0325L67.5415 74.941H66.3715L65.0325 78.958C64.8245 79.647 64.6035 80.375 64.3825 81.038H64.3305C64.1095 80.375 63.8885 79.647 63.6675 78.958L62.3415 74.941H61.1065L63.6545 82ZM71.709 82.169C72.671 82.169 73.425 81.844 74.049 81.441L73.62 80.661C73.1 81.012 72.541 81.22 71.852 81.22C70.513 81.22 69.59 80.258 69.512 78.75H74.27C74.296 78.581 74.322 78.334 74.322 78.074C74.322 76.059 73.308 74.759 71.514 74.759C69.876 74.759 68.329 76.189 68.329 78.477C68.329 80.804 69.837 82.169 71.709 82.169ZM69.499 77.892C69.642 76.514 70.526 75.708 71.527 75.708C72.632 75.708 73.282 76.475 73.282 77.892H69.499ZM76.0603 82H77.2433V77.463C77.7113 76.254 78.4393 75.838 79.0243 75.838C79.3103 75.838 79.4793 75.864 79.7133 75.955L79.9343 74.915C79.7133 74.798 79.4923 74.759 79.1803 74.759C78.3873 74.759 77.6723 75.331 77.1783 76.228H77.1393L77.0353 74.941H76.0603V82ZM83.3233 82.169C83.7523 82.169 84.2203 82.039 84.6233 81.909L84.3893 81.025C84.1553 81.116 83.8303 81.207 83.5833 81.207C82.7643 81.207 82.4913 80.713 82.4913 79.842V75.903H84.4023V74.941H82.4913V72.952H81.5033L81.3603 74.941L80.2553 75.006V75.903H81.3083V79.816C81.3083 81.22 81.8153 82.169 83.3233 82.169ZM86.0007 82H87.1837V74.941H86.0007V82ZM86.5987 73.485C87.0667 73.485 87.3917 73.173 87.3917 72.692C87.3917 72.237 87.0667 71.925 86.5987 71.925C86.1307 71.925 85.8057 72.237 85.8057 72.692C85.8057 73.173 86.1307 73.485 86.5987 73.485ZM89.5808 82H90.7638V77.463C91.2318 76.254 91.9598 75.838 92.5448 75.838C92.8308 75.838 92.9998 75.864 93.2338 75.955L93.4548 74.915C93.2338 74.798 93.0128 74.759 92.7008 74.759C91.9078 74.759 91.1928 75.331 90.6988 76.228H90.6598L90.5558 74.941H89.5808V82ZM99.374 82.169C101.038 82.169 101.948 81.22 101.948 80.076C101.948 78.737 100.817 78.321 99.79 77.931C98.997 77.632 98.269 77.385 98.269 76.709C98.269 76.163 98.685 75.695 99.582 75.695C100.206 75.695 100.7 75.955 101.181 76.319L101.753 75.552C101.207 75.123 100.44 74.759 99.569 74.759C98.035 74.759 97.125 75.643 97.125 76.761C97.125 77.957 98.204 78.438 99.192 78.802C99.972 79.101 100.804 79.413 100.804 80.141C100.804 80.752 100.349 81.246 99.413 81.246C98.568 81.246 97.931 80.908 97.32 80.414L96.735 81.194C97.411 81.753 98.373 82.169 99.374 82.169ZM105.663 82.169C106.638 82.169 107.34 81.662 108.003 80.895H108.042L108.133 82H109.121V74.941H107.938V79.946C107.262 80.791 106.755 81.142 106.027 81.142C105.091 81.142 104.701 80.583 104.701 79.27V74.941H103.518V79.413C103.518 81.207 104.181 82.169 105.663 82.169ZM116.818 82.169C117.663 82.169 118.404 81.714 118.963 81.168H119.002L119.106 82H120.068V71.652H118.898V74.369L118.95 75.591C118.326 75.071 117.793 74.759 116.961 74.759C115.349 74.759 113.906 76.189 113.906 78.477C113.906 80.83 115.05 82.169 116.818 82.169ZM117.078 81.181C115.83 81.181 115.128 80.167 115.128 78.464C115.128 76.852 116.025 75.76 117.169 75.76C117.754 75.76 118.287 75.968 118.898 76.501V80.206C118.3 80.856 117.728 81.181 117.078 81.181ZM122.474 82H123.657V74.941H122.474V82ZM123.072 73.485C123.54 73.485 123.865 73.173 123.865 72.692C123.865 72.237 123.54 71.925 123.072 71.925C122.604 71.925 122.279 72.237 122.279 72.692C122.279 73.173 122.604 73.485 123.072 73.485ZM126.054 82H127.237V76.878C127.952 76.163 128.446 75.799 129.174 75.799C130.11 75.799 130.513 76.358 130.513 77.684V82H131.696V77.528C131.696 75.721 131.02 74.759 129.538 74.759C128.576 74.759 127.848 75.292 127.172 75.955H127.133L127.029 74.941H126.054V82ZM136.849 82.169C137.811 82.169 138.565 81.844 139.189 81.441L138.76 80.661C138.24 81.012 137.681 81.22 136.992 81.22C135.653 81.22 134.73 80.258 134.652 78.75H139.41C139.436 78.581 139.462 78.334 139.462 78.074C139.462 76.059 138.448 74.759 136.654 74.759C135.016 74.759 133.469 76.189 133.469 78.477C133.469 80.804 134.977 82.169 136.849 82.169ZM134.639 77.892C134.782 76.514 135.666 75.708 136.667 75.708C137.772 75.708 138.422 76.475 138.422 77.892H134.639ZM141.2 82H142.383V77.463C142.851 76.254 143.579 75.838 144.164 75.838C144.45 75.838 144.619 75.864 144.853 75.955L145.074 74.915C144.853 74.798 144.632 74.759 144.32 74.759C143.527 74.759 142.812 75.331 142.318 76.228H142.279L142.175 74.941H141.2V82ZM148.843 82.169C150.572 82.169 152.119 80.817 152.119 78.477C152.119 76.124 150.572 74.759 148.843 74.759C147.114 74.759 145.567 76.124 145.567 78.477C145.567 80.817 147.114 82.169 148.843 82.169ZM148.843 81.181C147.621 81.181 146.802 80.102 146.802 78.477C146.802 76.852 147.621 75.747 148.843 75.747C150.065 75.747 150.897 76.852 150.897 78.477C150.897 80.102 150.065 81.181 148.843 81.181ZM153.623 84.47C154.793 83.976 155.521 83.001 155.521 81.753C155.521 80.882 155.144 80.349 154.52 80.349C154.039 80.349 153.623 80.674 153.623 81.181C153.623 81.727 154.039 82.013 154.494 82.013C154.546 82.013 154.585 82.013 154.637 82C154.637 82.767 154.156 83.404 153.337 83.768L153.623 84.47ZM161.995 82.169C162.866 82.169 163.659 81.714 164.335 81.155H164.374L164.478 82H165.453V77.658C165.453 75.916 164.725 74.759 163.009 74.759C161.878 74.759 160.877 75.266 160.227 75.682L160.695 76.501C161.254 76.124 161.995 75.747 162.814 75.747C163.971 75.747 164.27 76.618 164.27 77.528C161.267 77.866 159.928 78.633 159.928 80.167C159.928 81.441 160.812 82.169 161.995 82.169ZM162.333 81.22C161.631 81.22 161.085 80.895 161.085 80.089C161.085 79.179 161.891 78.594 164.27 78.308V80.284C163.581 80.895 163.022 81.22 162.333 81.22ZM168.956 82.169C169.281 82.169 169.476 82.13 169.645 82.065L169.476 81.155C169.346 81.181 169.294 81.181 169.229 81.181C169.047 81.181 168.891 81.038 168.891 80.674V71.652H167.708V80.596C167.708 81.597 168.072 82.169 168.956 82.169ZM176.545 82.169C176.974 82.169 177.442 82.039 177.845 81.909L177.611 81.025C177.377 81.116 177.052 81.207 176.805 81.207C175.986 81.207 175.713 80.713 175.713 79.842V75.903H177.624V74.941H175.713V72.952H174.725L174.582 74.941L173.477 75.006V75.903H174.53V79.816C174.53 81.22 175.037 82.169 176.545 82.169ZM179.222 82H180.405V74.941H179.222V82ZM179.82 73.485C180.288 73.485 180.613 73.173 180.613 72.692C180.613 72.237 180.288 71.925 179.82 71.925C179.352 71.925 179.027 72.237 179.027 72.692C179.027 73.173 179.352 73.485 179.82 73.485ZM185.649 82.169C186.611 82.169 187.365 81.844 187.989 81.441L187.56 80.661C187.04 81.012 186.481 81.22 185.792 81.22C184.453 81.22 183.53 80.258 183.452 78.75H188.21C188.236 78.581 188.262 78.334 188.262 78.074C188.262 76.059 187.248 74.759 185.454 74.759C183.816 74.759 182.269 76.189 182.269 78.477C182.269 80.804 183.777 82.169 185.649 82.169ZM183.439 77.892C183.582 76.514 184.466 75.708 185.467 75.708C186.572 75.708 187.222 76.475 187.222 77.892H183.439ZM190.001 82H191.184V76.878C191.834 76.15 192.432 75.799 192.965 75.799C193.862 75.799 194.278 76.358 194.278 77.684V82H195.461V76.878C196.124 76.15 196.696 75.799 197.242 75.799C198.139 75.799 198.555 76.358 198.555 77.684V82H199.738V77.528C199.738 75.721 199.049 74.759 197.593 74.759C196.735 74.759 195.994 75.318 195.266 76.111C194.98 75.279 194.395 74.759 193.316 74.759C192.471 74.759 191.73 75.292 191.119 75.968H191.08L190.976 74.941H190.001V82ZM202.036 84.977H203.219V82.585L203.193 81.35C203.83 81.87 204.506 82.169 205.143 82.169C206.768 82.169 208.211 80.778 208.211 78.36C208.211 76.189 207.223 74.759 205.403 74.759C204.584 74.759 203.791 75.227 203.154 75.747H203.115L203.011 74.941H202.036V84.977ZM204.948 81.181C204.48 81.181 203.856 80.986 203.219 80.44V76.735C203.908 76.098 204.519 75.76 205.117 75.76C206.456 75.76 206.976 76.813 206.976 78.373C206.976 80.128 206.118 81.181 204.948 81.181ZM212.84 82.169C214.569 82.169 216.116 80.817 216.116 78.477C216.116 76.124 214.569 74.759 212.84 74.759C211.111 74.759 209.564 76.124 209.564 78.477C209.564 80.817 211.111 82.169 212.84 82.169ZM212.84 81.181C211.618 81.181 210.799 80.102 210.799 78.477C210.799 76.852 211.618 75.747 212.84 75.747C214.062 75.747 214.894 76.852 214.894 78.477C214.894 80.102 214.062 81.181 212.84 81.181ZM225.373 84.977H226.543V74.941H225.607L225.49 75.617H225.451C224.84 75.058 224.255 74.759 223.436 74.759C221.824 74.759 220.381 76.189 220.381 78.477C220.381 80.83 221.525 82.169 223.293 82.169C224.112 82.169 224.853 81.74 225.425 81.181L225.373 82.468V84.977ZM223.553 81.181C222.305 81.181 221.603 80.167 221.603 78.464C221.603 76.852 222.5 75.76 223.644 75.76C224.229 75.76 224.762 75.968 225.373 76.501V80.206C224.775 80.856 224.203 81.181 223.553 81.181ZM231.004 82.169C231.979 82.169 232.681 81.662 233.344 80.895H233.383L233.474 82H234.462V74.941H233.279V79.946C232.603 80.791 232.096 81.142 231.368 81.142C230.432 81.142 230.042 80.583 230.042 79.27V74.941H228.859V79.413C228.859 81.207 229.522 82.169 231.004 82.169ZM239.693 82.169C240.655 82.169 241.409 81.844 242.033 81.441L241.604 80.661C241.084 81.012 240.525 81.22 239.836 81.22C238.497 81.22 237.574 80.258 237.496 78.75H242.254C242.28 78.581 242.306 78.334 242.306 78.074C242.306 76.059 241.292 74.759 239.498 74.759C237.86 74.759 236.313 76.189 236.313 78.477C236.313 80.804 237.821 82.169 239.693 82.169ZM237.483 77.892C237.626 76.514 238.51 75.708 239.511 75.708C240.616 75.708 241.266 76.475 241.266 77.892H237.483ZM248.2 82.169C248.525 82.169 248.72 82.13 248.889 82.065L248.72 81.155C248.59 81.181 248.538 81.181 248.473 81.181C248.291 81.181 248.135 81.038 248.135 80.674V71.652H246.952V80.596C246.952 81.597 247.316 82.169 248.2 82.169ZM252.284 82.169C253.155 82.169 253.948 81.714 254.624 81.155H254.663L254.767 82H255.742V77.658C255.742 75.916 255.014 74.759 253.298 74.759C252.167 74.759 251.166 75.266 250.516 75.682L250.984 76.501C251.543 76.124 252.284 75.747 253.103 75.747C254.26 75.747 254.559 76.618 254.559 77.528C251.556 77.866 250.217 78.633 250.217 80.167C250.217 81.441 251.101 82.169 252.284 82.169ZM252.622 81.22C251.92 81.22 251.374 80.895 251.374 80.089C251.374 79.179 252.18 78.594 254.559 78.308V80.284C253.87 80.895 253.311 81.22 252.622 81.22ZM259.843 82.169C261.507 82.169 262.417 81.22 262.417 80.076C262.417 78.737 261.286 78.321 260.259 77.931C259.466 77.632 258.738 77.385 258.738 76.709C258.738 76.163 259.154 75.695 260.051 75.695C260.675 75.695 261.169 75.955 261.65 76.319L262.222 75.552C261.676 75.123 260.909 74.759 260.038 74.759C258.504 74.759 257.594 75.643 257.594 76.761C257.594 77.957 258.673 78.438 259.661 78.802C260.441 79.101 261.273 79.413 261.273 80.141C261.273 80.752 260.818 81.246 259.882 81.246C259.037 81.246 258.4 80.908 257.789 80.414L257.204 81.194C257.88 81.753 258.842 82.169 259.843 82.169ZM1.196 103.977H2.379V101.585L2.353 100.35C2.99 100.87 3.666 101.169 4.303 101.169C5.928 101.169 7.371 99.778 7.371 97.36C7.371 95.189 6.383 93.759 4.563 93.759C3.744 93.759 2.951 94.227 2.314 94.747H2.275L2.171 93.941H1.196V103.977ZM4.108 100.181C3.64 100.181 3.016 99.986 2.379 99.44V95.735C3.068 95.098 3.679 94.76 4.277 94.76C5.616 94.76 6.136 95.813 6.136 97.373C6.136 99.128 5.278 100.181 4.108 100.181ZM9.32374 104.042C10.7277 104.042 11.4687 102.976 11.9497 101.585L14.6147 93.941H13.4577L12.1967 97.867C12.0017 98.491 11.7937 99.206 11.5987 99.843H11.5337C11.3127 99.206 11.0657 98.478 10.8577 97.867L9.41474 93.941H8.17974L11.0137 101.013L10.8577 101.546C10.5717 102.417 10.0647 103.067 9.25874 103.067C9.07674 103.067 8.86874 103.002 8.72574 102.95L8.49174 103.899C8.71274 103.99 8.98574 104.042 9.32374 104.042ZM15.986 101H17.169V95.878C17.819 95.15 18.417 94.799 18.95 94.799C19.847 94.799 20.263 95.358 20.263 96.684V101H21.446V95.878C22.109 95.15 22.681 94.799 23.227 94.799C24.124 94.799 24.54 95.358 24.54 96.684V101H25.723V96.528C25.723 94.721 25.034 93.759 23.578 93.759C22.72 93.759 21.979 94.318 21.251 95.111C20.965 94.279 20.38 93.759 19.301 93.759C18.456 93.759 17.715 94.292 17.104 94.968H17.065L16.961 93.941H15.986V101ZM30.8682 101.169C31.8302 101.169 32.5842 100.844 33.2082 100.441L32.7792 99.661C32.2592 100.012 31.7002 100.22 31.0112 100.22C29.6722 100.22 28.7492 99.258 28.6712 97.75H33.4292C33.4552 97.581 33.4812 97.334 33.4812 97.074C33.4812 95.059 32.4672 93.759 30.6732 93.759C29.0352 93.759 27.4882 95.189 27.4882 97.477C27.4882 99.804 28.9962 101.169 30.8682 101.169ZM28.6582 96.892C28.8012 95.514 29.6852 94.708 30.6862 94.708C31.7912 94.708 32.4412 95.475 32.4412 96.892H28.6582ZM37.0654 101.169C38.7294 101.169 39.6394 100.22 39.6394 99.076C39.6394 97.737 38.5084 97.321 37.4814 96.931C36.6884 96.632 35.9604 96.385 35.9604 95.709C35.9604 95.163 36.3764 94.695 37.2734 94.695C37.8974 94.695 38.3914 94.955 38.8724 95.319L39.4444 94.552C38.8984 94.123 38.1314 93.759 37.2604 93.759C35.7264 93.759 34.8164 94.643 34.8164 95.761C34.8164 96.957 35.8954 97.438 36.8834 97.802C37.6634 98.101 38.4954 98.413 38.4954 99.141C38.4954 99.752 38.0404 100.246 37.1044 100.246C36.2594 100.246 35.6224 99.908 35.0114 99.414L34.4264 100.194C35.1024 100.753 36.0644 101.169 37.0654 101.169ZM44.2077 103.977H45.3907V101.585L45.3647 100.35C46.0017 100.87 46.6777 101.169 47.3147 101.169C48.9397 101.169 50.3827 99.778 50.3827 97.36C50.3827 95.189 49.3947 93.759 47.5747 93.759C46.7557 93.759 45.9627 94.227 45.3257 94.747H45.2867L45.1827 93.941H44.2077V103.977ZM47.1197 100.181C46.6517 100.181 46.0277 99.986 45.3907 99.44V95.735C46.0797 95.098 46.6907 94.76 47.2887 94.76C48.6277 94.76 49.1477 95.813 49.1477 97.373C49.1477 99.128 48.2897 100.181 47.1197 100.181ZM54.3232 101.169C55.2982 101.169 56.0002 100.662 56.6632 99.895H56.7022L56.7932 101H57.7812V93.941H56.5982V98.946C55.9222 99.791 55.4152 100.142 54.6872 100.142C53.7512 100.142 53.3612 99.583 53.3612 98.27V93.941H52.1782V98.413C52.1782 100.207 52.8412 101.169 54.3232 101.169ZM63.0127 101.169C63.9747 101.169 64.7287 100.844 65.3527 100.441L64.9237 99.661C64.4037 100.012 63.8447 100.22 63.1557 100.22C61.8167 100.22 60.8937 99.258 60.8157 97.75H65.5737C65.5997 97.581 65.6257 97.334 65.6257 97.074C65.6257 95.059 64.6117 93.759 62.8177 93.759C61.1797 93.759 59.6327 95.189 59.6327 97.477C59.6327 99.804 61.1407 101.169 63.0127 101.169ZM60.8027 96.892C60.9457 95.514 61.8297 94.708 62.8307 94.708C63.9357 94.708 64.5857 95.475 64.5857 96.892H60.8027ZM69.769 101.169C70.614 101.169 71.355 100.714 71.914 100.168H71.953L72.057 101H73.019V90.652H71.849V93.369L71.901 94.591C71.277 94.071 70.744 93.759 69.912 93.759C68.3 93.759 66.857 95.189 66.857 97.477C66.857 99.83 68.001 101.169 69.769 101.169ZM70.029 100.181C68.781 100.181 68.079 99.167 68.079 97.464C68.079 95.852 68.976 94.76 70.12 94.76C70.705 94.76 71.238 94.968 71.849 95.501V99.206C71.251 99.856 70.679 100.181 70.029 100.181ZM78.2725 101.169C79.2345 101.169 79.9885 100.844 80.6125 100.441L80.1835 99.661C79.6635 100.012 79.1045 100.22 78.4155 100.22C77.0765 100.22 76.1535 99.258 76.0755 97.75H80.8335C80.8595 97.581 80.8855 97.334 80.8855 97.074C80.8855 95.059 79.8715 93.759 78.0775 93.759C76.4395 93.759 74.8925 95.189 74.8925 97.477C74.8925 99.804 76.4005 101.169 78.2725 101.169ZM76.0625 96.892C76.2055 95.514 77.0895 94.708 78.0905 94.708C79.1955 94.708 79.8455 95.475 79.8455 96.892H76.0625ZM82.6237 101H83.8067V95.878C84.5217 95.163 85.0157 94.799 85.7437 94.799C86.6797 94.799 87.0827 95.358 87.0827 96.684V101H88.2657V96.528C88.2657 94.721 87.5897 93.759 86.1077 93.759C85.1457 93.759 84.4177 94.292 83.7417 94.955H83.7027L83.5987 93.941H82.6237V101ZM93.4782 101H94.6612V96.463C95.1292 95.254 95.8572 94.838 96.4422 94.838C96.7282 94.838 96.8972 94.864 97.1312 94.955L97.3522 93.915C97.1312 93.798 96.9102 93.759 96.5982 93.759C95.8052 93.759 95.0902 94.331 94.5962 95.228H94.5572L94.4532 93.941H93.4782V101ZM101.226 101.169C102.188 101.169 102.942 100.844 103.566 100.441L103.137 99.661C102.617 100.012 102.058 100.22 101.369 100.22C100.03 100.22 99.1066 99.258 99.0286 97.75H103.787C103.813 97.581 103.839 97.334 103.839 97.074C103.839 95.059 102.825 93.759 101.031 93.759C99.3926 93.759 97.8456 95.189 97.8456 97.477C97.8456 99.804 99.3536 101.169 101.226 101.169ZM99.0156 96.892C99.1586 95.514 100.043 94.708 101.044 94.708C102.149 94.708 102.799 95.475 102.799 96.892H99.0156ZM108.359 101.169C109.204 101.169 110.01 100.844 110.647 100.272L110.127 99.479C109.685 99.882 109.113 100.181 108.463 100.181C107.163 100.181 106.279 99.102 106.279 97.477C106.279 95.852 107.215 94.747 108.502 94.747C109.061 94.747 109.49 95.007 109.906 95.371L110.517 94.591C110.01 94.149 109.373 93.759 108.45 93.759C106.643 93.759 105.044 95.124 105.044 97.477C105.044 99.817 106.487 101.169 108.359 101.169ZM112.191 101H113.374V93.941H112.191V101ZM112.789 92.485C113.257 92.485 113.582 92.173 113.582 91.692C113.582 91.237 113.257 90.925 112.789 90.925C112.321 90.925 111.996 91.237 111.996 91.692C111.996 92.173 112.321 92.485 112.789 92.485ZM118.878 101.169C120.503 101.169 121.946 99.778 121.946 97.347C121.946 95.189 120.958 93.759 119.125 93.759C118.345 93.759 117.552 94.201 116.915 94.76L116.954 93.486V90.652H115.771V101H116.72L116.824 100.272H116.876C117.487 100.831 118.228 101.169 118.878 101.169ZM118.683 100.181C118.215 100.181 117.578 99.986 116.954 99.44V95.735C117.63 95.098 118.254 94.76 118.852 94.76C120.191 94.76 120.711 95.813 120.711 97.373C120.711 99.128 119.853 100.181 118.683 100.181ZM123.807 101H124.99V93.941H123.807V101ZM124.405 92.485C124.873 92.485 125.198 92.173 125.198 91.692C125.198 91.237 124.873 90.925 124.405 90.925C123.937 90.925 123.612 91.237 123.612 91.692C123.612 92.173 123.937 92.485 124.405 92.485ZM127.387 101H128.57V96.463C129.038 95.254 129.766 94.838 130.351 94.838C130.637 94.838 130.806 94.864 131.04 94.955L131.261 93.915C131.04 93.798 130.819 93.759 130.507 93.759C129.714 93.759 128.999 94.331 128.505 95.228H128.466L128.362 93.941H127.387V101ZM133.675 101.169C134 101.169 134.195 101.13 134.364 101.065L134.195 100.155C134.065 100.181 134.013 100.181 133.948 100.181C133.766 100.181 133.61 100.038 133.61 99.674V90.652H132.427V99.596C132.427 100.597 132.791 101.169 133.675 101.169ZM138.877 101.169C140.606 101.169 142.153 99.817 142.153 97.477C142.153 95.124 140.606 93.759 138.877 93.759C137.148 93.759 135.601 95.124 135.601 97.477C135.601 99.817 137.148 101.169 138.877 101.169ZM138.877 100.181C137.655 100.181 136.836 99.102 136.836 97.477C136.836 95.852 137.655 94.747 138.877 94.747C140.099 94.747 140.931 95.852 140.931 97.477C140.931 99.102 140.099 100.181 138.877 100.181ZM149.707 101.169C150.552 101.169 151.358 100.844 151.995 100.272L151.475 99.479C151.033 99.882 150.461 100.181 149.811 100.181C148.511 100.181 147.627 99.102 147.627 97.477C147.627 95.852 148.563 94.747 149.85 94.747C150.409 94.747 150.838 95.007 151.254 95.371L151.865 94.591C151.358 94.149 150.721 93.759 149.798 93.759C147.991 93.759 146.392 95.124 146.392 97.477C146.392 99.817 147.835 101.169 149.707 101.169ZM155.594 101.169C156.569 101.169 157.271 100.662 157.934 99.895H157.973L158.064 101H159.052V93.941H157.869V98.946C157.193 99.791 156.686 100.142 155.958 100.142C155.022 100.142 154.632 99.583 154.632 98.27V93.941H153.449V98.413C153.449 100.207 154.112 101.169 155.594 101.169ZM163.061 101.169C163.932 101.169 164.725 100.714 165.401 100.155H165.44L165.544 101H166.519V96.658C166.519 94.916 165.791 93.759 164.075 93.759C162.944 93.759 161.943 94.266 161.293 94.682L161.761 95.501C162.32 95.124 163.061 94.747 163.88 94.747C165.037 94.747 165.336 95.618 165.336 96.528C162.333 96.866 160.994 97.633 160.994 99.167C160.994 100.441 161.878 101.169 163.061 101.169ZM163.399 100.22C162.697 100.22 162.151 99.895 162.151 99.089C162.151 98.179 162.957 97.594 165.336 97.308V99.284C164.647 99.895 164.088 100.22 163.399 100.22ZM168.774 101H169.957V95.878C170.672 95.163 171.166 94.799 171.894 94.799C172.83 94.799 173.233 95.358 173.233 96.684V101H174.416V96.528C174.416 94.721 173.74 93.759 172.258 93.759C171.296 93.759 170.568 94.292 169.892 94.955H169.853L169.749 93.941H168.774V101ZM179.126 101.169C179.971 101.169 180.712 100.714 181.271 100.168H181.31L181.414 101H182.376V90.652H181.206V93.369L181.258 94.591C180.634 94.071 180.101 93.759 179.269 93.759C177.657 93.759 176.214 95.189 176.214 97.477C176.214 99.83 177.358 101.169 179.126 101.169ZM179.386 100.181C178.138 100.181 177.436 99.167 177.436 97.464C177.436 95.852 178.333 94.76 179.477 94.76C180.062 94.76 180.595 94.968 181.206 95.501V99.206C180.608 99.856 180.036 100.181 179.386 100.181ZM187.526 101.169C189.255 101.169 190.802 99.817 190.802 97.477C190.802 95.124 189.255 93.759 187.526 93.759C185.797 93.759 184.25 95.124 184.25 97.477C184.25 99.817 185.797 101.169 187.526 101.169ZM187.526 100.181C186.304 100.181 185.485 99.102 185.485 97.477C185.485 95.852 186.304 94.747 187.526 94.747C188.748 94.747 189.58 95.852 189.58 97.477C189.58 99.102 188.748 100.181 187.526 100.181ZM195.574 101H196.757V95.878C197.407 95.15 198.005 94.799 198.538 94.799C199.435 94.799 199.851 95.358 199.851 96.684V101H201.034V95.878C201.697 95.15 202.269 94.799 202.815 94.799C203.712 94.799 204.128 95.358 204.128 96.684V101H205.311V96.528C205.311 94.721 204.622 93.759 203.166 93.759C202.308 93.759 201.567 94.318 200.839 95.111C200.553 94.279 199.968 93.759 198.889 93.759C198.044 93.759 197.303 94.292 196.692 94.968H196.653L196.549 93.941H195.574V101ZM209.234 101.169C210.105 101.169 210.898 100.714 211.574 100.155H211.613L211.717 101H212.692V96.658C212.692 94.916 211.964 93.759 210.248 93.759C209.117 93.759 208.116 94.266 207.466 94.682L207.934 95.501C208.493 95.124 209.234 94.747 210.053 94.747C211.21 94.747 211.509 95.618 211.509 96.528C208.506 96.866 207.167 97.633 207.167 99.167C207.167 100.441 208.051 101.169 209.234 101.169ZM209.572 100.22C208.87 100.22 208.324 99.895 208.324 99.089C208.324 98.179 209.13 97.594 211.509 97.308V99.284C210.82 99.895 210.261 100.22 209.572 100.22ZM210.092 92.667L212.367 90.457L211.535 89.664L209.481 92.082L210.092 92.667ZM216.793 101.169C218.457 101.169 219.367 100.22 219.367 99.076C219.367 97.737 218.236 97.321 217.209 96.931C216.416 96.632 215.688 96.385 215.688 95.709C215.688 95.163 216.104 94.695 217.001 94.695C217.625 94.695 218.119 94.955 218.6 95.319L219.172 94.552C218.626 94.123 217.859 93.759 216.988 93.759C215.454 93.759 214.544 94.643 214.544 95.761C214.544 96.957 215.623 97.438 216.611 97.802C217.391 98.101 218.223 98.413 218.223 99.141C218.223 99.752 217.768 100.246 216.832 100.246C215.987 100.246 215.35 99.908 214.739 99.414L214.154 100.194C214.83 100.753 215.792 101.169 216.793 101.169ZM225.183 101.169C225.508 101.169 225.703 101.13 225.872 101.065L225.703 100.155C225.573 100.181 225.521 100.181 225.456 100.181C225.274 100.181 225.118 100.038 225.118 99.674V90.652H223.935V99.596C223.935 100.597 224.299 101.169 225.183 101.169ZM230.385 101.169C232.114 101.169 233.661 99.817 233.661 97.477C233.661 95.124 232.114 93.759 230.385 93.759C228.656 93.759 227.109 95.124 227.109 97.477C227.109 99.817 228.656 101.169 230.385 101.169ZM230.385 100.181C229.163 100.181 228.344 99.102 228.344 97.477C228.344 95.852 229.163 94.747 230.385 94.747C231.607 94.747 232.439 95.852 232.439 97.477C232.439 99.102 231.607 100.181 230.385 100.181ZM1.196 120H2.379V114.878C3.094 114.163 3.588 113.799 4.316 113.799C5.252 113.799 5.655 114.358 5.655 115.684V120H6.838V115.528C6.838 113.721 6.162 112.759 4.68 112.759C3.718 112.759 2.99 113.292 2.314 113.955H2.275L2.171 112.941H1.196V120ZM11.9903 120.169C12.9523 120.169 13.7063 119.844 14.3303 119.441L13.9013 118.661C13.3813 119.012 12.8223 119.22 12.1333 119.22C10.7943 119.22 9.87127 118.258 9.79327 116.75H14.5513C14.5773 116.581 14.6033 116.334 14.6033 116.074C14.6033 114.059 13.5893 112.759 11.7953 112.759C10.1573 112.759 8.61027 114.189 8.61027 116.477C8.61027 118.804 10.1183 120.169 11.9903 120.169ZM9.78027 115.892C9.92327 114.514 10.8073 113.708 11.8083 113.708C12.9133 113.708 13.5633 114.475 13.5633 115.892H9.78027ZM19.1235 120.169C19.9685 120.169 20.7745 119.844 21.4115 119.272L20.8915 118.479C20.4495 118.882 19.8775 119.181 19.2275 119.181C17.9275 119.181 17.0435 118.102 17.0435 116.477C17.0435 114.852 17.9795 113.747 19.2665 113.747C19.8255 113.747 20.2545 114.007 20.6705 114.371L21.2815 113.591C20.7745 113.149 20.1375 112.759 19.2145 112.759C17.4075 112.759 15.8085 114.124 15.8085 116.477C15.8085 118.817 17.2515 120.169 19.1235 120.169ZM25.4854 120.169C26.4474 120.169 27.2014 119.844 27.8254 119.441L27.3964 118.661C26.8764 119.012 26.3174 119.22 25.6284 119.22C24.2894 119.22 23.3664 118.258 23.2884 116.75H28.0464C28.0724 116.581 28.0984 116.334 28.0984 116.074C28.0984 114.059 27.0844 112.759 25.2904 112.759C23.6524 112.759 22.1054 114.189 22.1054 116.477C22.1054 118.804 23.6134 120.169 25.4854 120.169ZM23.2754 115.892C23.4184 114.514 24.3024 113.708 25.3034 113.708C26.4084 113.708 27.0584 114.475 27.0584 115.892H23.2754ZM31.6826 120.169C33.3466 120.169 34.2566 119.22 34.2566 118.076C34.2566 116.737 33.1256 116.321 32.0986 115.931C31.3056 115.632 30.5776 115.385 30.5776 114.709C30.5776 114.163 30.9936 113.695 31.8906 113.695C32.5146 113.695 33.0086 113.955 33.4896 114.319L34.0616 113.552C33.5156 113.123 32.7486 112.759 31.8776 112.759C30.3436 112.759 29.4336 113.643 29.4336 114.761C29.4336 115.957 30.5126 116.438 31.5006 116.802C32.2806 117.101 33.1126 117.413 33.1126 118.141C33.1126 118.752 32.6576 119.246 31.7216 119.246C30.8766 119.246 30.2396 118.908 29.6286 118.414L29.0436 119.194C29.7196 119.753 30.6816 120.169 31.6826 120.169ZM35.9177 120H37.1007V112.941H35.9177V120ZM36.5157 111.485C36.9837 111.485 37.3087 111.173 37.3087 110.692C37.3087 110.237 36.9837 109.925 36.5157 109.925C36.0477 109.925 35.7227 110.237 35.7227 110.692C35.7227 111.173 36.0477 111.485 36.5157 111.485ZM41.7208 120.169C42.1498 120.169 42.6178 120.039 43.0208 119.909L42.7868 119.025C42.5528 119.116 42.2278 119.207 41.9808 119.207C41.1618 119.207 40.8888 118.713 40.8888 117.842V113.903H42.7998V112.941H40.8888V110.952H39.9008L39.7578 112.941L38.6528 113.006V113.903H39.7058V117.816C39.7058 119.22 40.2128 120.169 41.7208 120.169ZM47.0547 120.169C48.0167 120.169 48.7707 119.844 49.3947 119.441L48.9657 118.661C48.4457 119.012 47.8867 119.22 47.1977 119.22C45.8587 119.22 44.9357 118.258 44.8577 116.75H49.6157C49.6417 116.581 49.6677 116.334 49.6677 116.074C49.6677 114.059 48.6537 112.759 46.8597 112.759C45.2217 112.759 43.6747 114.189 43.6747 116.477C43.6747 118.804 45.1827 120.169 47.0547 120.169ZM44.8447 115.892C44.9877 114.514 45.8717 113.708 46.8727 113.708C47.9777 113.708 48.6277 114.475 48.6277 115.892H44.8447ZM51.406 120H52.589V114.878C53.304 114.163 53.798 113.799 54.526 113.799C55.462 113.799 55.865 114.358 55.865 115.684V120H57.048V115.528C57.048 113.721 56.372 112.759 54.89 112.759C53.928 112.759 53.2 113.292 52.524 113.955H52.485L52.381 112.941H51.406V120ZM59.9642 120.169C60.4322 120.169 60.8222 119.805 60.8222 119.272C60.8222 118.726 60.4322 118.349 59.9642 118.349C59.4962 118.349 59.1062 118.726 59.1062 119.272C59.1062 119.805 59.4962 120.169 59.9642 120.169Z" fill="#484545"/>
<path d="M1.365 161H4.53C7.8 161 9.9 159.14 9.9 155.405C9.9 151.655 7.8 149.885 4.41 149.885H1.365V161ZM3.585 159.215V151.67H4.275C6.345 151.67 7.635 152.69 7.635 155.405C7.635 158.105 6.345 159.215 4.275 159.215H3.585ZM19.7314 161.21C22.4464 161.21 24.0214 159.695 24.0214 156.005V149.885H21.8914V156.2C21.8914 158.51 21.0514 159.29 19.7314 159.29C18.4414 159.29 17.6314 158.51 17.6314 156.2V149.885H15.4114V156.005C15.4114 159.695 17.0314 161.21 19.7314 161.21ZM30.0906 161H32.3106V156.8H33.8556L36.1356 161H38.6106L36.0156 156.455C37.2906 155.96 38.1306 154.925 38.1306 153.26C38.1306 150.71 36.2856 149.885 33.9606 149.885H30.0906V161ZM32.3106 155.045V151.655H33.7506C35.1756 151.655 35.9706 152.06 35.9706 153.26C35.9706 154.445 35.1756 155.045 33.7506 155.045H32.3106ZM46.1286 155.21C46.4586 154.055 46.7886 152.795 47.0736 151.58H47.1486C47.4636 152.78 47.7636 154.055 48.1086 155.21L48.4386 156.425H45.7986L46.1286 155.21ZM42.2886 161H44.5386L45.3186 158.15H48.9186L49.6986 161H52.0236L48.4536 149.885H45.8436L42.2886 161ZM61.2514 161.21C62.6914 161.21 63.8764 160.64 64.7914 159.575L63.6214 158.195C63.0214 158.84 62.2864 159.29 61.3264 159.29C59.5714 159.29 58.4314 157.835 58.4314 155.42C58.4314 153.035 59.6914 151.595 61.3714 151.595C62.2114 151.595 62.8564 151.985 63.4264 152.525L64.5814 151.115C63.8614 150.365 62.7364 149.69 61.3264 149.69C58.5214 149.69 56.1664 151.835 56.1664 155.495C56.1664 159.2 58.4464 161.21 61.2514 161.21ZM69.9783 161H72.1983V149.885H69.9783V161ZM82.7379 161.21C85.6779 161.21 87.7029 159.005 87.7029 155.405C87.7029 151.805 85.6779 149.69 82.7379 149.69C79.7979 149.69 77.7729 151.79 77.7729 155.405C77.7729 159.005 79.7979 161.21 82.7379 161.21ZM82.7379 159.29C81.0879 159.29 80.0379 157.775 80.0379 155.405C80.0379 153.02 81.0879 151.595 82.7379 151.595C84.3879 151.595 85.4379 153.02 85.4379 155.405C85.4379 157.775 84.3879 159.29 82.7379 159.29ZM82.5279 149.345L85.5129 147.35L84.3279 145.91L81.5529 148.235L82.5279 149.345ZM93.2693 161H95.3693V156.545C95.3693 155.27 95.2043 153.875 95.0993 152.675H95.1743L96.2993 155.06L99.5093 161H101.759V149.885H99.6593V154.325C99.6593 155.585 99.8393 157.055 99.9443 158.21H99.8693L98.7593 155.81L95.5343 149.885H93.2693V161Z" fill="#262626"/>
<path d="M0.572 187H6.565V185.973H3.874C3.38 185.973 2.808 186.025 2.314 186.064C4.511 183.75 6.097 182.021 6.097 180.279C6.097 178.641 5.031 177.562 3.328 177.562C2.119 177.562 1.3 178.121 0.52 178.966L1.209 179.629C1.729 179.018 2.405 178.524 3.185 178.524C4.368 178.524 4.94 179.278 4.94 180.331C4.94 181.852 3.367 183.516 0.572 186.298V187ZM14.0702 187.169C16.0592 187.169 17.3072 185.973 17.3072 184.465C17.3072 183.048 16.4492 182.398 15.3442 181.917L13.9792 181.332C13.2382 181.02 12.4062 180.669 12.4062 179.746C12.4062 178.888 13.1082 178.342 14.1872 178.342C15.0712 178.342 15.7732 178.693 16.3582 179.239L16.9952 178.472C16.3192 177.77 15.3182 177.289 14.1872 177.289C12.4582 177.289 11.1842 178.355 11.1842 179.824C11.1842 181.215 12.2372 181.891 13.1212 182.268L14.4992 182.866C15.3962 183.269 16.0852 183.581 16.0852 184.556C16.0852 185.492 15.3312 186.116 14.0832 186.116C13.0952 186.116 12.1332 185.648 11.4572 184.933L10.7292 185.752C11.5612 186.623 12.7182 187.169 14.0702 187.169ZM21.918 187.169C22.88 187.169 23.634 186.844 24.258 186.441L23.829 185.661C23.309 186.012 22.75 186.22 22.061 186.22C20.722 186.22 19.799 185.258 19.721 183.75H24.479C24.505 183.581 24.531 183.334 24.531 183.074C24.531 181.059 23.517 179.759 21.723 179.759C20.085 179.759 18.538 181.189 18.538 183.477C18.538 185.804 20.046 187.169 21.918 187.169ZM19.708 182.892C19.851 181.514 20.735 180.708 21.736 180.708C22.841 180.708 23.491 181.475 23.491 182.892H19.708ZM26.2692 187H27.4522V181.878C28.1022 181.15 28.7002 180.799 29.2332 180.799C30.1302 180.799 30.5462 181.358 30.5462 182.684V187H31.7292V181.878C32.3922 181.15 32.9642 180.799 33.5102 180.799C34.4072 180.799 34.8232 181.358 34.8232 182.684V187H36.0062V182.528C36.0062 180.721 35.3172 179.759 33.8612 179.759C33.0032 179.759 32.2622 180.318 31.5342 181.111C31.2482 180.279 30.6632 179.759 29.5842 179.759C28.7392 179.759 27.9982 180.292 27.3872 180.968H27.3482L27.2442 179.941H26.2692V187ZM39.9294 187.169C40.8004 187.169 41.5934 186.714 42.2694 186.155H42.3084L42.4124 187H43.3874V182.658C43.3874 180.916 42.6594 179.759 40.9434 179.759C39.8124 179.759 38.8114 180.266 38.1614 180.682L38.6294 181.501C39.1884 181.124 39.9294 180.747 40.7484 180.747C41.9054 180.747 42.2044 181.618 42.2044 182.528C39.2014 182.866 37.8624 183.633 37.8624 185.167C37.8624 186.441 38.7464 187.169 39.9294 187.169ZM40.2674 186.22C39.5654 186.22 39.0194 185.895 39.0194 185.089C39.0194 184.179 39.8254 183.594 42.2044 183.308V185.284C41.5154 185.895 40.9564 186.22 40.2674 186.22ZM45.6423 187H46.8253V181.878C47.5403 181.163 48.0343 180.799 48.7623 180.799C49.6983 180.799 50.1013 181.358 50.1013 182.684V187H51.2843V182.528C51.2843 180.721 50.6083 179.759 49.1263 179.759C48.1643 179.759 47.4363 180.292 46.7603 180.955H46.7213L46.6173 179.941H45.6423V187ZM55.2146 187.169C56.0856 187.169 56.8786 186.714 57.5546 186.155H57.5936L57.6976 187H58.6726V182.658C58.6726 180.916 57.9446 179.759 56.2286 179.759C55.0976 179.759 54.0966 180.266 53.4466 180.682L53.9146 181.501C54.4736 181.124 55.2146 180.747 56.0336 180.747C57.1906 180.747 57.4896 181.618 57.4896 182.528C54.4866 182.866 53.1476 183.633 53.1476 185.167C53.1476 186.441 54.0316 187.169 55.2146 187.169ZM55.5526 186.22C54.8506 186.22 54.3046 185.895 54.3046 185.089C54.3046 184.179 55.1106 183.594 57.4896 183.308V185.284C56.8006 185.895 56.2416 186.22 55.5526 186.22ZM62.7734 187.169C64.4374 187.169 65.3474 186.22 65.3474 185.076C65.3474 183.737 64.2164 183.321 63.1894 182.931C62.3964 182.632 61.6684 182.385 61.6684 181.709C61.6684 181.163 62.0844 180.695 62.9814 180.695C63.6054 180.695 64.0994 180.955 64.5804 181.319L65.1524 180.552C64.6064 180.123 63.8394 179.759 62.9684 179.759C61.4344 179.759 60.5244 180.643 60.5244 181.761C60.5244 182.957 61.6034 183.438 62.5914 183.802C63.3714 184.101 64.2034 184.413 64.2034 185.141C64.2034 185.752 63.7484 186.246 62.8124 186.246C61.9674 186.246 61.3304 185.908 60.7194 185.414L60.1344 186.194C60.8104 186.753 61.7724 187.169 62.7734 187.169Z" fill="#484545"/>
<path d="M1.365 228H3.36V223.365C3.36 222.315 3.18 220.77 3.075 219.72H3.135L4.02 222.33L5.745 226.995H7.02L8.73 222.33L9.63 219.72H9.705C9.585 220.77 9.42 222.315 9.42 223.365V228H11.445V216.885H8.985L7.14 222.09C6.9 222.78 6.705 223.515 6.465 224.22H6.39C6.165 223.515 5.955 222.78 5.715 222.09L3.825 216.885H1.365V228ZM17.5662 228H19.7862V216.885H17.5662V228ZM29.3142 228H31.5342V223.8H33.0792L35.3592 228H37.8342L35.2392 223.455C36.5142 222.96 37.3542 221.925 37.3542 220.26C37.3542 217.71 35.5092 216.885 33.1842 216.885H29.3142V228ZM31.5342 222.045V218.655H32.9742C34.3992 218.655 35.1942 219.06 35.1942 220.26C35.1942 221.445 34.3992 222.045 32.9742 222.045H31.5342ZM47.3473 228.21C50.2873 228.21 52.3123 226.005 52.3123 222.405C52.3123 218.805 50.2873 216.69 47.3473 216.69C44.4073 216.69 42.3823 218.79 42.3823 222.405C42.3823 226.005 44.4073 228.21 47.3473 228.21ZM47.3473 226.29C45.6973 226.29 44.6473 224.775 44.6473 222.405C44.6473 220.02 45.6973 218.595 47.3473 218.595C48.9973 218.595 50.0473 220.02 50.0473 222.405C50.0473 224.775 48.9973 226.29 47.3473 226.29ZM57.8787 228H64.6137V226.14H60.0987V216.885H57.8787V228Z" fill="#262626"/>
<path d="M1.3 255H6.942V253.973H2.509V250.502H6.123V249.475H2.509V246.485H6.799V245.458H1.3V255ZM8.83858 255H10.0216V249.878C10.7366 249.163 11.2306 248.799 11.9586 248.799C12.8946 248.799 13.2976 249.358 13.2976 250.684V255H14.4806V250.528C14.4806 248.721 13.8046 247.759 12.3226 247.759C11.3606 247.759 10.6326 248.292 9.95658 248.955H9.91758L9.81358 247.941H8.83858V255ZM19.0088 255.169C19.4378 255.169 19.9058 255.039 20.3088 254.909L20.0748 254.025C19.8408 254.116 19.5158 254.207 19.2688 254.207C18.4498 254.207 18.1768 253.713 18.1768 252.842V248.903H20.0878V247.941H18.1768V245.952H17.1888L17.0458 247.941L15.9408 248.006V248.903H16.9938V252.816C16.9938 254.22 17.5008 255.169 19.0088 255.169ZM21.6862 255H22.8692V250.463C23.3372 249.254 24.0652 248.838 24.6502 248.838C24.9362 248.838 25.1052 248.864 25.3392 248.955L25.5602 247.915C25.3392 247.798 25.1182 247.759 24.8062 247.759C24.0132 247.759 23.2982 248.331 22.8042 249.228H22.7652L22.6612 247.941H21.6862V255ZM29.4336 255.169C30.3956 255.169 31.1496 254.844 31.7736 254.441L31.3446 253.661C30.8246 254.012 30.2656 254.22 29.5766 254.22C28.2376 254.22 27.3146 253.258 27.2366 251.75H31.9946C32.0206 251.581 32.0466 251.334 32.0466 251.074C32.0466 249.059 31.0326 247.759 29.2386 247.759C27.6006 247.759 26.0536 249.189 26.0536 251.477C26.0536 253.804 27.5616 255.169 29.4336 255.169ZM27.2236 250.892C27.3666 249.514 28.2506 248.708 29.2516 248.708C30.3566 248.708 31.0066 249.475 31.0066 250.892H27.2236ZM35.3693 255H36.7473L39.2563 247.941H38.0863L36.7473 251.958C36.5393 252.647 36.3183 253.375 36.0973 254.038H36.0453C35.8243 253.375 35.6033 252.647 35.3823 251.958L34.0563 247.941H32.8213L35.3693 255ZM40.6276 255H41.8106V247.941H40.6276V255ZM41.2256 246.485C41.6936 246.485 42.0186 246.173 42.0186 245.692C42.0186 245.237 41.6936 244.925 41.2256 244.925C40.7576 244.925 40.4326 245.237 40.4326 245.692C40.4326 246.173 40.7576 246.485 41.2256 246.485ZM46.0537 255.169C47.7177 255.169 48.6277 254.22 48.6277 253.076C48.6277 251.737 47.4967 251.321 46.4697 250.931C45.6767 250.632 44.9487 250.385 44.9487 249.709C44.9487 249.163 45.3647 248.695 46.2617 248.695C46.8857 248.695 47.3797 248.955 47.8607 249.319L48.4327 248.552C47.8867 248.123 47.1197 247.759 46.2487 247.759C44.7147 247.759 43.8047 248.643 43.8047 249.761C43.8047 250.957 44.8837 251.438 45.8717 251.802C46.6517 252.101 47.4837 252.413 47.4837 253.141C47.4837 253.752 47.0287 254.246 46.0927 254.246C45.2477 254.246 44.6107 253.908 43.9997 253.414L43.4147 254.194C44.0907 254.753 45.0527 255.169 46.0537 255.169ZM52.2198 255.169C52.6488 255.169 53.1168 255.039 53.5198 254.909L53.2858 254.025C53.0518 254.116 52.7268 254.207 52.4798 254.207C51.6608 254.207 51.3878 253.713 51.3878 252.842V248.903H53.2988V247.941H51.3878V245.952H50.3998L50.2568 247.941L49.1518 248.006V248.903H50.2048V252.816C50.2048 254.22 50.7118 255.169 52.2198 255.169ZM56.2048 255.169C57.0758 255.169 57.8688 254.714 58.5448 254.155H58.5838L58.6878 255H59.6628V250.658C59.6628 248.916 58.9348 247.759 57.2188 247.759C56.0878 247.759 55.0868 248.266 54.4368 248.682L54.9048 249.501C55.4638 249.124 56.2048 248.747 57.0238 248.747C58.1808 248.747 58.4798 249.618 58.4798 250.528C55.4768 250.866 54.1378 251.633 54.1378 253.167C54.1378 254.441 55.0218 255.169 56.2048 255.169ZM56.5428 254.22C55.8408 254.22 55.2948 253.895 55.2948 253.089C55.2948 252.179 56.1008 251.594 58.4798 251.308V253.284C57.7908 253.895 57.2318 254.22 56.5428 254.22ZM67.6069 255.169C68.4519 255.169 69.2579 254.844 69.8949 254.272L69.3749 253.479C68.9329 253.882 68.3609 254.181 67.7109 254.181C66.4109 254.181 65.5269 253.102 65.5269 251.477C65.5269 249.852 66.4629 248.747 67.7499 248.747C68.3089 248.747 68.7379 249.007 69.1539 249.371L69.7649 248.591C69.2579 248.149 68.6209 247.759 67.6979 247.759C65.8909 247.759 64.2919 249.124 64.2919 251.477C64.2919 253.817 65.7349 255.169 67.6069 255.169ZM73.8648 255.169C75.5938 255.169 77.1408 253.817 77.1408 251.477C77.1408 249.124 75.5938 247.759 73.8648 247.759C72.1358 247.759 70.5888 249.124 70.5888 251.477C70.5888 253.817 72.1358 255.169 73.8648 255.169ZM73.8648 254.181C72.6428 254.181 71.8238 253.102 71.8238 251.477C71.8238 249.852 72.6428 248.747 73.8648 248.747C75.0868 248.747 75.9188 249.852 75.9188 251.477C75.9188 253.102 75.0868 254.181 73.8648 254.181ZM79.0056 255H80.1886V249.878C80.9036 249.163 81.3976 248.799 82.1256 248.799C83.0616 248.799 83.4646 249.358 83.4646 250.684V255H84.6476V250.528C84.6476 248.721 83.9716 247.759 82.4896 247.759C81.5276 247.759 80.7996 248.292 80.1236 248.955H80.0846L79.9806 247.941H79.0056V255ZM91.9141 255.169C92.8891 255.169 93.5911 254.662 94.2541 253.895H94.2931L94.3841 255H95.3721V247.941H94.1891V252.946C93.5131 253.791 93.0061 254.142 92.2781 254.142C91.3421 254.142 90.9521 253.583 90.9521 252.27V247.941H89.7691V252.413C89.7691 254.207 90.4321 255.169 91.9141 255.169ZM99.6025 255.169C101.267 255.169 102.177 254.22 102.177 253.076C102.177 251.737 101.046 251.321 100.019 250.931C99.2255 250.632 98.4975 250.385 98.4975 249.709C98.4975 249.163 98.9135 248.695 99.8105 248.695C100.435 248.695 100.929 248.955 101.41 249.319L101.982 248.552C101.436 248.123 100.669 247.759 99.7975 247.759C98.2635 247.759 97.3535 248.643 97.3535 249.761C97.3535 250.957 98.4325 251.438 99.4205 251.802C100.201 252.101 101.033 252.413 101.033 253.141C101.033 253.752 100.578 254.246 99.6415 254.246C98.7965 254.246 98.1595 253.908 97.5485 253.414L96.9635 254.194C97.6395 254.753 98.6015 255.169 99.6025 255.169ZM105.892 255.169C106.867 255.169 107.569 254.662 108.232 253.895H108.271L108.362 255H109.35V247.941H108.167V252.946C107.491 253.791 106.984 254.142 106.256 254.142C105.32 254.142 104.93 253.583 104.93 252.27V247.941H103.747V252.413C103.747 254.207 104.41 255.169 105.892 255.169ZM113.359 255.169C114.23 255.169 115.023 254.714 115.699 254.155H115.738L115.842 255H116.817V250.658C116.817 248.916 116.089 247.759 114.373 247.759C113.242 247.759 112.241 248.266 111.591 248.682L112.059 249.501C112.618 249.124 113.359 248.747 114.178 248.747C115.335 248.747 115.634 249.618 115.634 250.528C112.631 250.866 111.292 251.633 111.292 253.167C111.292 254.441 112.176 255.169 113.359 255.169ZM113.697 254.22C112.995 254.22 112.449 253.895 112.449 253.089C112.449 252.179 113.255 251.594 115.634 251.308V253.284C114.945 253.895 114.386 254.22 113.697 254.22ZM119.072 255H120.255V250.463C120.723 249.254 121.451 248.838 122.036 248.838C122.322 248.838 122.491 248.864 122.725 248.955L122.946 247.915C122.725 247.798 122.504 247.759 122.192 247.759C121.399 247.759 120.684 248.331 120.19 249.228H120.151L120.047 247.941H119.072V255ZM124.112 255H125.295V247.941H124.112V255ZM124.71 246.485C125.178 246.485 125.503 246.173 125.503 245.692C125.503 245.237 125.178 244.925 124.71 244.925C124.242 244.925 123.917 245.237 123.917 245.692C123.917 246.173 124.242 246.485 124.71 246.485ZM130.435 255.169C132.164 255.169 133.711 253.817 133.711 251.477C133.711 249.124 132.164 247.759 130.435 247.759C128.706 247.759 127.159 249.124 127.159 251.477C127.159 253.817 128.706 255.169 130.435 255.169ZM130.435 254.181C129.213 254.181 128.394 253.102 128.394 251.477C128.394 249.852 129.213 248.747 130.435 248.747C131.657 248.747 132.489 249.852 132.489 251.477C132.489 253.102 131.657 254.181 130.435 254.181ZM137.422 255.169C139.086 255.169 139.996 254.22 139.996 253.076C139.996 251.737 138.865 251.321 137.838 250.931C137.045 250.632 136.317 250.385 136.317 249.709C136.317 249.163 136.733 248.695 137.63 248.695C138.254 248.695 138.748 248.955 139.229 249.319L139.801 248.552C139.255 248.123 138.488 247.759 137.617 247.759C136.083 247.759 135.173 248.643 135.173 249.761C135.173 250.957 136.252 251.438 137.24 251.802C138.02 252.101 138.852 252.413 138.852 253.141C138.852 253.752 138.397 254.246 137.461 254.246C136.616 254.246 135.979 253.908 135.368 253.414L134.783 254.194C135.459 254.753 136.421 255.169 137.422 255.169ZM141.436 257.47C142.606 256.976 143.334 256.001 143.334 254.753C143.334 253.882 142.957 253.349 142.333 253.349C141.852 253.349 141.436 253.674 141.436 254.181C141.436 254.727 141.852 255.013 142.307 255.013C142.359 255.013 142.398 255.013 142.45 255C142.45 255.767 141.969 256.404 141.15 256.768L141.436 257.47ZM148.182 255H149.365V247.941H148.182V255ZM148.78 246.485C149.248 246.485 149.573 246.173 149.573 245.692C149.573 245.237 149.248 244.925 148.78 244.925C148.312 244.925 147.987 245.237 147.987 245.692C147.987 246.173 148.312 246.485 148.78 246.485ZM151.762 255H152.945V249.878C153.66 249.163 154.154 248.799 154.882 248.799C155.818 248.799 156.221 249.358 156.221 250.684V255H157.404V250.528C157.404 248.721 156.728 247.759 155.246 247.759C154.284 247.759 153.556 248.292 152.88 248.955H152.841L152.737 247.941H151.762V255ZM161.231 255H162.609L165.118 247.941H163.948L162.609 251.958C162.401 252.647 162.18 253.375 161.959 254.038H161.907C161.686 253.375 161.465 252.647 161.244 251.958L159.918 247.941H158.683L161.231 255ZM169.285 255.169C170.247 255.169 171.001 254.844 171.625 254.441L171.196 253.661C170.676 254.012 170.117 254.22 169.428 254.22C168.089 254.22 167.166 253.258 167.088 251.75H171.846C171.872 251.581 171.898 251.334 171.898 251.074C171.898 249.059 170.884 247.759 169.09 247.759C167.452 247.759 165.905 249.189 165.905 251.477C165.905 253.804 167.413 255.169 169.285 255.169ZM167.075 250.892C167.218 249.514 168.102 248.708 169.103 248.708C170.208 248.708 170.858 249.475 170.858 250.892H167.075ZM175.482 255.169C177.146 255.169 178.056 254.22 178.056 253.076C178.056 251.737 176.925 251.321 175.898 250.931C175.105 250.632 174.377 250.385 174.377 249.709C174.377 249.163 174.793 248.695 175.69 248.695C176.314 248.695 176.808 248.955 177.289 249.319L177.861 248.552C177.315 248.123 176.548 247.759 175.677 247.759C174.143 247.759 173.233 248.643 173.233 249.761C173.233 250.957 174.312 251.438 175.3 251.802C176.08 252.101 176.912 252.413 176.912 253.141C176.912 253.752 176.457 254.246 175.521 254.246C174.676 254.246 174.039 253.908 173.428 253.414L172.843 254.194C173.519 254.753 174.481 255.169 175.482 255.169ZM181.648 255.169C182.077 255.169 182.545 255.039 182.948 254.909L182.714 254.025C182.48 254.116 182.155 254.207 181.908 254.207C181.089 254.207 180.816 253.713 180.816 252.842V248.903H182.727V247.941H180.816V245.952H179.828L179.685 247.941L178.58 248.006V248.903H179.633V252.816C179.633 254.22 180.14 255.169 181.648 255.169ZM184.326 255H185.509V247.941H184.326V255ZM184.924 246.485C185.392 246.485 185.717 246.173 185.717 245.692C185.717 245.237 185.392 244.925 184.924 244.925C184.456 244.925 184.131 245.237 184.131 245.692C184.131 246.173 184.456 246.485 184.924 246.485ZM190.285 258.25C192.469 258.25 193.86 257.119 193.86 255.806C193.86 254.649 193.028 254.129 191.39 254.129H190.012C189.063 254.129 188.777 253.817 188.777 253.362C188.777 252.972 188.972 252.738 189.232 252.517C189.544 252.673 189.934 252.764 190.285 252.764C191.715 252.764 192.859 251.815 192.859 250.307C192.859 249.696 192.625 249.176 192.287 248.851H193.73V247.941H191.273C191.026 247.85 190.675 247.759 190.285 247.759C188.855 247.759 187.633 248.734 187.633 250.281C187.633 251.126 188.088 251.802 188.556 252.179V252.231C188.192 252.491 187.763 252.959 187.763 253.544C187.763 254.103 188.036 254.48 188.413 254.701V254.753C187.75 255.182 187.373 255.754 187.373 256.352C187.373 257.574 188.556 258.25 190.285 258.25ZM190.285 251.958C189.466 251.958 188.777 251.308 188.777 250.281C188.777 249.241 189.453 248.63 190.285 248.63C191.117 248.63 191.793 249.254 191.793 250.281C191.793 251.308 191.091 251.958 190.285 251.958ZM190.454 257.444C189.18 257.444 188.413 256.95 188.413 256.196C188.413 255.78 188.621 255.364 189.128 255C189.44 255.078 189.778 255.117 190.038 255.117H191.26C192.196 255.117 192.703 255.338 192.703 255.988C192.703 256.729 191.806 257.444 190.454 257.444ZM196.628 255.169C197.499 255.169 198.292 254.714 198.968 254.155H199.007L199.111 255H200.086V250.658C200.086 248.916 199.358 247.759 197.642 247.759C196.511 247.759 195.51 248.266 194.86 248.682L195.328 249.501C195.887 249.124 196.628 248.747 197.447 248.747C198.604 248.747 198.903 249.618 198.903 250.528C195.9 250.866 194.561 251.633 194.561 253.167C194.561 254.441 195.445 255.169 196.628 255.169ZM196.966 254.22C196.264 254.22 195.718 253.895 195.718 253.089C195.718 252.179 196.524 251.594 198.903 251.308V253.284C198.214 253.895 197.655 254.22 196.966 254.22ZM205.123 255.169C205.968 255.169 206.774 254.844 207.411 254.272L206.891 253.479C206.449 253.882 205.877 254.181 205.227 254.181C203.927 254.181 203.043 253.102 203.043 251.477C203.043 249.852 203.979 248.747 205.266 248.747C205.825 248.747 206.254 249.007 206.67 249.371L207.281 248.591C206.774 248.149 206.137 247.759 205.214 247.759C203.407 247.759 201.808 249.124 201.808 251.477C201.808 253.817 203.251 255.169 205.123 255.169ZM208.955 255H210.138V247.941H208.955V255ZM209.553 246.485C210.021 246.485 210.346 246.173 210.346 245.692C210.346 245.237 210.021 244.925 209.553 244.925C209.085 244.925 208.76 245.237 208.76 245.692C208.76 246.173 209.085 246.485 209.553 246.485ZM215.278 255.169C217.007 255.169 218.554 253.817 218.554 251.477C218.554 249.124 217.007 247.759 215.278 247.759C213.549 247.759 212.002 249.124 212.002 251.477C212.002 253.817 213.549 255.169 215.278 255.169ZM215.278 254.181C214.056 254.181 213.237 253.102 213.237 251.477C213.237 249.852 214.056 248.747 215.278 248.747C216.5 248.747 217.332 249.852 217.332 251.477C217.332 253.102 216.5 254.181 215.278 254.181ZM215.07 246.667L217.345 244.457L216.513 243.664L214.459 246.082L215.07 246.667ZM220.419 255H221.602V249.878C222.317 249.163 222.811 248.799 223.539 248.799C224.475 248.799 224.878 249.358 224.878 250.684V255H226.061V250.528C226.061 248.721 225.385 247.759 223.903 247.759C222.941 247.759 222.213 248.292 221.537 248.955H221.498L221.394 247.941H220.419V255ZM3.978 274.169C4.823 274.169 5.629 273.844 6.266 273.272L5.746 272.479C5.304 272.882 4.732 273.181 4.082 273.181C2.782 273.181 1.898 272.102 1.898 270.477C1.898 268.852 2.834 267.747 4.121 267.747C4.68 267.747 5.109 268.007 5.525 268.371L6.136 267.591C5.629 267.149 4.992 266.759 4.069 266.759C2.262 266.759 0.663 268.124 0.663 270.477C0.663 272.817 2.106 274.169 3.978 274.169ZM10.2359 274.169C11.9649 274.169 13.5119 272.817 13.5119 270.477C13.5119 268.124 11.9649 266.759 10.2359 266.759C8.50688 266.759 6.95988 268.124 6.95988 270.477C6.95988 272.817 8.50688 274.169 10.2359 274.169ZM10.2359 273.181C9.01388 273.181 8.19488 272.102 8.19488 270.477C8.19488 268.852 9.01388 267.747 10.2359 267.747C11.4579 267.747 12.2899 268.852 12.2899 270.477C12.2899 272.102 11.4579 273.181 10.2359 273.181ZM15.3767 274H16.5597V268.878C17.2747 268.163 17.7687 267.799 18.4967 267.799C19.4327 267.799 19.8357 268.358 19.8357 269.684V274H21.0187V269.528C21.0187 267.721 20.3427 266.759 18.8607 266.759C17.8987 266.759 17.1707 267.292 16.4947 267.955H16.4557L16.3517 266.941H15.3767V274ZM25.5469 274.169C25.9759 274.169 26.4439 274.039 26.8469 273.909L26.6129 273.025C26.3789 273.116 26.0539 273.207 25.8069 273.207C24.9879 273.207 24.7149 272.713 24.7149 271.842V267.903H26.6259V266.941H24.7149V264.952H23.7269L23.5839 266.941L22.4789 267.006V267.903H23.5319V271.816C23.5319 273.22 24.0389 274.169 25.5469 274.169ZM30.8809 274.169C31.8429 274.169 32.5969 273.844 33.2209 273.441L32.7919 272.661C32.2719 273.012 31.7129 273.22 31.0239 273.22C29.6849 273.22 28.7619 272.258 28.6839 270.75H33.4419C33.4679 270.581 33.4939 270.334 33.4939 270.074C33.4939 268.059 32.4799 266.759 30.6859 266.759C29.0479 266.759 27.5009 268.189 27.5009 270.477C27.5009 272.804 29.0089 274.169 30.8809 274.169ZM28.6709 269.892C28.8139 268.514 29.6979 267.708 30.6989 267.708C31.8039 267.708 32.4539 268.475 32.4539 269.892H28.6709ZM34.1296 274H35.3776L36.3266 272.349C36.5736 271.92 36.8076 271.491 37.0546 271.088H37.1196C37.3796 271.491 37.6396 271.92 37.8736 272.349L38.9136 274H40.2136L37.8866 270.438L40.0316 266.941H38.7966L37.9256 268.488C37.7176 268.891 37.5096 269.281 37.2886 269.671H37.2366C37.0026 269.281 36.7556 268.891 36.5346 268.488L35.5856 266.941H34.3116L36.4566 270.321L34.1296 274ZM43.4727 274.169C43.9017 274.169 44.3697 274.039 44.7727 273.909L44.5387 273.025C44.3047 273.116 43.9797 273.207 43.7327 273.207C42.9137 273.207 42.6407 272.713 42.6407 271.842V267.903H44.5517V266.941H42.6407V264.952H41.6527L41.5097 266.941L40.4047 267.006V267.903H41.4577V271.816C41.4577 273.22 41.9647 274.169 43.4727 274.169ZM48.2041 274.169C49.1791 274.169 49.8811 273.662 50.5441 272.895H50.5831L50.6741 274H51.6621V266.941H50.4791V271.946C49.8031 272.791 49.2961 273.142 48.5681 273.142C47.6321 273.142 47.2421 272.583 47.2421 271.27V266.941H46.0591V271.413C46.0591 273.207 46.7221 274.169 48.2041 274.169ZM55.6716 274.169C56.5426 274.169 57.3356 273.714 58.0116 273.155H58.0506L58.1546 274H59.1296V269.658C59.1296 267.916 58.4016 266.759 56.6856 266.759C55.5546 266.759 54.5536 267.266 53.9036 267.682L54.3716 268.501C54.9306 268.124 55.6716 267.747 56.4906 267.747C57.6476 267.747 57.9466 268.618 57.9466 269.528C54.9436 269.866 53.6046 270.633 53.6046 272.167C53.6046 273.441 54.4886 274.169 55.6716 274.169ZM56.0096 273.22C55.3076 273.22 54.7616 272.895 54.7616 272.089C54.7616 271.179 55.5676 270.594 57.9466 270.308V272.284C57.2576 272.895 56.6986 273.22 56.0096 273.22ZM62.6325 274.169C62.9575 274.169 63.1525 274.13 63.3215 274.065L63.1525 273.155C63.0225 273.181 62.9705 273.181 62.9055 273.181C62.7235 273.181 62.5675 273.038 62.5675 272.674V263.652H61.3845V272.596C61.3845 273.597 61.7485 274.169 62.6325 274.169ZM64.8705 276.47C66.0405 275.976 66.7685 275.001 66.7685 273.753C66.7685 272.882 66.3915 272.349 65.7675 272.349C65.2865 272.349 64.8705 272.674 64.8705 273.181C64.8705 273.727 65.2865 274.013 65.7415 274.013C65.7935 274.013 65.8325 274.013 65.8845 274C65.8845 274.767 65.4035 275.404 64.5845 275.768L64.8705 276.47ZM71.6169 276.977H72.7999V274.585L72.7739 273.35C73.4109 273.87 74.0869 274.169 74.7239 274.169C76.3489 274.169 77.7919 272.778 77.7919 270.36C77.7919 268.189 76.8039 266.759 74.9839 266.759C74.1649 266.759 73.3719 267.227 72.7349 267.747H72.6959L72.5919 266.941H71.6169V276.977ZM74.5289 273.181C74.0609 273.181 73.4369 272.986 72.7999 272.44V268.735C73.4889 268.098 74.0999 267.76 74.6979 267.76C76.0369 267.76 76.5569 268.813 76.5569 270.373C76.5569 272.128 75.6989 273.181 74.5289 273.181ZM79.6784 274H80.8614V269.463C81.3294 268.254 82.0574 267.838 82.6424 267.838C82.9284 267.838 83.0974 267.864 83.3314 267.955L83.5524 266.915C83.3314 266.798 83.1104 266.759 82.7984 266.759C82.0054 266.759 81.2904 267.331 80.7964 268.228H80.7574L80.6534 266.941H79.6784V274ZM87.3218 274.169C89.0508 274.169 90.5978 272.817 90.5978 270.477C90.5978 268.124 89.0508 266.759 87.3218 266.759C85.5928 266.759 84.0458 268.124 84.0458 270.477C84.0458 272.817 85.5928 274.169 87.3218 274.169ZM87.3218 273.181C86.0998 273.181 85.2808 272.102 85.2808 270.477C85.2808 268.852 86.0998 267.747 87.3218 267.747C88.5438 267.747 89.3758 268.852 89.3758 270.477C89.3758 272.102 88.5438 273.181 87.3218 273.181ZM94.4444 274.169C94.8734 274.169 95.3414 274.039 95.7444 273.909L95.5104 273.025C95.2764 273.116 94.9514 273.207 94.7044 273.207C93.8854 273.207 93.6124 272.713 93.6124 271.842V267.903H95.5234V266.941H93.6124V264.952H92.6244L92.4814 266.941L91.3764 267.006V267.903H92.4294V271.816C92.4294 273.22 92.9364 274.169 94.4444 274.169ZM99.6744 274.169C101.403 274.169 102.95 272.817 102.95 270.477C102.95 268.124 101.403 266.759 99.6744 266.759C97.9454 266.759 96.3984 268.124 96.3984 270.477C96.3984 272.817 97.9454 274.169 99.6744 274.169ZM99.6744 273.181C98.4524 273.181 97.6334 272.102 97.6334 270.477C97.6334 268.852 98.4524 267.747 99.6744 267.747C100.896 267.747 101.728 268.852 101.728 270.477C101.728 272.102 100.896 273.181 99.6744 273.181ZM106.797 274.169C107.226 274.169 107.694 274.039 108.097 273.909L107.863 273.025C107.629 273.116 107.304 273.207 107.057 273.207C106.238 273.207 105.965 272.713 105.965 271.842V267.903H107.876V266.941H105.965V264.952H104.977L104.834 266.941L103.729 267.006V267.903H104.782V271.816C104.782 273.22 105.289 274.169 106.797 274.169ZM109.474 274H110.657V266.941H109.474V274ZM110.072 265.485C110.54 265.485 110.865 265.173 110.865 264.692C110.865 264.237 110.54 263.925 110.072 263.925C109.604 263.925 109.279 264.237 109.279 264.692C109.279 265.173 109.604 265.485 110.072 265.485ZM113.054 276.977H114.237V274.585L114.211 273.35C114.848 273.87 115.524 274.169 116.161 274.169C117.786 274.169 119.229 272.778 119.229 270.36C119.229 268.189 118.241 266.759 116.421 266.759C115.602 266.759 114.809 267.227 114.172 267.747H114.133L114.029 266.941H113.054V276.977ZM115.966 273.181C115.498 273.181 114.874 272.986 114.237 272.44V268.735C114.926 268.098 115.537 267.76 116.135 267.76C117.474 267.76 117.994 268.813 117.994 270.373C117.994 272.128 117.136 273.181 115.966 273.181ZM122.538 274.169C123.409 274.169 124.202 273.714 124.878 273.155H124.917L125.021 274H125.996V269.658C125.996 267.916 125.268 266.759 123.552 266.759C122.421 266.759 121.42 267.266 120.77 267.682L121.238 268.501C121.797 268.124 122.538 267.747 123.357 267.747C124.514 267.747 124.813 268.618 124.813 269.528C121.81 269.866 120.471 270.633 120.471 272.167C120.471 273.441 121.355 274.169 122.538 274.169ZM122.876 273.22C122.174 273.22 121.628 272.895 121.628 272.089C121.628 271.179 122.434 270.594 124.813 270.308V272.284C124.124 272.895 123.565 273.22 122.876 273.22ZM130.656 274.169C131.501 274.169 132.242 273.714 132.801 273.168H132.84L132.944 274H133.906V263.652H132.736V266.369L132.788 267.591C132.164 267.071 131.631 266.759 130.799 266.759C129.187 266.759 127.744 268.189 127.744 270.477C127.744 272.83 128.888 274.169 130.656 274.169ZM130.916 273.181C129.668 273.181 128.966 272.167 128.966 270.464C128.966 268.852 129.863 267.76 131.007 267.76C131.592 267.76 132.125 267.968 132.736 268.501V272.206C132.138 272.856 131.566 273.181 130.916 273.181ZM139.055 274.169C140.784 274.169 142.331 272.817 142.331 270.477C142.331 268.124 140.784 266.759 139.055 266.759C137.326 266.759 135.779 268.124 135.779 270.477C135.779 272.817 137.326 274.169 139.055 274.169ZM139.055 273.181C137.833 273.181 137.014 272.102 137.014 270.477C137.014 268.852 137.833 267.747 139.055 267.747C140.277 267.747 141.109 268.852 141.109 270.477C141.109 272.102 140.277 273.181 139.055 273.181ZM143.835 276.47C145.005 275.976 145.733 275.001 145.733 273.753C145.733 272.882 145.356 272.349 144.732 272.349C144.251 272.349 143.835 272.674 143.835 273.181C143.835 273.727 144.251 274.013 144.706 274.013C144.758 274.013 144.797 274.013 144.849 274C144.849 274.767 144.368 275.404 143.549 275.768L143.835 276.47ZM152.805 274.169C153.234 274.169 153.702 274.039 154.105 273.909L153.871 273.025C153.637 273.116 153.312 273.207 153.065 273.207C152.246 273.207 151.973 272.713 151.973 271.842V267.903H153.884V266.941H151.973V264.952H150.985L150.842 266.941L149.737 267.006V267.903H150.79V271.816C150.79 273.22 151.297 274.169 152.805 274.169ZM158.139 274.169C159.101 274.169 159.855 273.844 160.479 273.441L160.05 272.661C159.53 273.012 158.971 273.22 158.282 273.22C156.943 273.22 156.02 272.258 155.942 270.75H160.7C160.726 270.581 160.752 270.334 160.752 270.074C160.752 268.059 159.738 266.759 157.944 266.759C156.306 266.759 154.759 268.189 154.759 270.477C154.759 272.804 156.267 274.169 158.139 274.169ZM155.929 269.892C156.072 268.514 156.956 267.708 157.957 267.708C159.062 267.708 159.712 268.475 159.712 269.892H155.929ZM164.336 274.169C166 274.169 166.91 273.22 166.91 272.076C166.91 270.737 165.779 270.321 164.752 269.931C163.959 269.632 163.231 269.385 163.231 268.709C163.231 268.163 163.647 267.695 164.544 267.695C165.168 267.695 165.662 267.955 166.143 268.319L166.715 267.552C166.169 267.123 165.402 266.759 164.531 266.759C162.997 266.759 162.087 267.643 162.087 268.761C162.087 269.957 163.166 270.438 164.154 270.802C164.934 271.101 165.766 271.413 165.766 272.141C165.766 272.752 165.311 273.246 164.375 273.246C163.53 273.246 162.893 272.908 162.282 272.414L161.697 273.194C162.373 273.753 163.335 274.169 164.336 274.169ZM170.502 274.169C170.931 274.169 171.399 274.039 171.802 273.909L171.568 273.025C171.334 273.116 171.009 273.207 170.762 273.207C169.943 273.207 169.67 272.713 169.67 271.842V267.903H171.581V266.941H169.67V264.952H168.682L168.539 266.941L167.434 267.006V267.903H168.487V271.816C168.487 273.22 168.994 274.169 170.502 274.169ZM175.836 274.169C176.798 274.169 177.552 273.844 178.176 273.441L177.747 272.661C177.227 273.012 176.668 273.22 175.979 273.22C174.64 273.22 173.717 272.258 173.639 270.75H178.397C178.423 270.581 178.449 270.334 178.449 270.074C178.449 268.059 177.435 266.759 175.641 266.759C174.003 266.759 172.456 268.189 172.456 270.477C172.456 272.804 173.964 274.169 175.836 274.169ZM173.626 269.892C173.769 268.514 174.653 267.708 175.654 267.708C176.759 267.708 177.409 268.475 177.409 269.892H173.626ZM182.93 274.169C184.659 274.169 186.206 272.817 186.206 270.477C186.206 268.124 184.659 266.759 182.93 266.759C181.201 266.759 179.654 268.124 179.654 270.477C179.654 272.817 181.201 274.169 182.93 274.169ZM182.93 273.181C181.708 273.181 180.889 272.102 180.889 270.477C180.889 268.852 181.708 267.747 182.93 267.747C184.152 267.747 184.984 268.852 184.984 270.477C184.984 272.102 184.152 273.181 182.93 273.181ZM189.917 274.169C191.581 274.169 192.491 273.22 192.491 272.076C192.491 270.737 191.36 270.321 190.333 269.931C189.54 269.632 188.812 269.385 188.812 268.709C188.812 268.163 189.228 267.695 190.125 267.695C190.749 267.695 191.243 267.955 191.724 268.319L192.296 267.552C191.75 267.123 190.983 266.759 190.112 266.759C188.578 266.759 187.668 267.643 187.668 268.761C187.668 269.957 188.747 270.438 189.735 270.802C190.515 271.101 191.347 271.413 191.347 272.141C191.347 272.752 190.892 273.246 189.956 273.246C189.111 273.246 188.474 272.908 187.863 272.414L187.278 273.194C187.954 273.753 188.916 274.169 189.917 274.169ZM199.464 274.169C200.309 274.169 201.05 273.714 201.609 273.168H201.648L201.752 274H202.714V263.652H201.544V266.369L201.596 267.591C200.972 267.071 200.439 266.759 199.607 266.759C197.995 266.759 196.552 268.189 196.552 270.477C196.552 272.83 197.696 274.169 199.464 274.169ZM199.724 273.181C198.476 273.181 197.774 272.167 197.774 270.464C197.774 268.852 198.671 267.76 199.815 267.76C200.4 267.76 200.933 267.968 201.544 268.501V272.206C200.946 272.856 200.374 273.181 199.724 273.181ZM207.968 274.169C208.93 274.169 209.684 273.844 210.308 273.441L209.879 272.661C209.359 273.012 208.8 273.22 208.111 273.22C206.772 273.22 205.849 272.258 205.771 270.75H210.529C210.555 270.581 210.581 270.334 210.581 270.074C210.581 268.059 209.567 266.759 207.773 266.759C206.135 266.759 204.588 268.189 204.588 270.477C204.588 272.804 206.096 274.169 207.968 274.169ZM205.758 269.892C205.901 268.514 206.785 267.708 207.786 267.708C208.891 267.708 209.541 268.475 209.541 269.892H205.758ZM217.28 274.169C218.255 274.169 218.957 273.662 219.62 272.895H219.659L219.75 274H220.738V266.941H219.555V271.946C218.879 272.791 218.372 273.142 217.644 273.142C216.708 273.142 216.318 272.583 216.318 271.27V266.941H215.135V271.413C215.135 273.207 215.798 274.169 217.28 274.169ZM224.969 274.169C226.633 274.169 227.543 273.22 227.543 272.076C227.543 270.737 226.412 270.321 225.385 269.931C224.592 269.632 223.864 269.385 223.864 268.709C223.864 268.163 224.28 267.695 225.177 267.695C225.801 267.695 226.295 267.955 226.776 268.319L227.348 267.552C226.802 267.123 226.035 266.759 225.164 266.759C223.63 266.759 222.72 267.643 222.72 268.761C222.72 269.957 223.799 270.438 224.787 270.802C225.567 271.101 226.399 271.413 226.399 272.141C226.399 272.752 225.944 273.246 225.008 273.246C224.163 273.246 223.526 272.908 222.915 272.414L222.33 273.194C223.006 273.753 223.968 274.169 224.969 274.169ZM230.829 274.169C231.7 274.169 232.493 273.714 233.169 273.155H233.208L233.312 274H234.287V269.658C234.287 267.916 233.559 266.759 231.843 266.759C230.712 266.759 229.711 267.266 229.061 267.682L229.529 268.501C230.088 268.124 230.829 267.747 231.648 267.747C232.805 267.747 233.104 268.618 233.104 269.528C230.101 269.866 228.762 270.633 228.762 272.167C228.762 273.441 229.646 274.169 230.829 274.169ZM231.167 273.22C230.465 273.22 229.919 272.895 229.919 272.089C229.919 271.179 230.725 270.594 233.104 270.308V272.284C232.415 272.895 231.856 273.22 231.167 273.22ZM239.649 274.169C241.274 274.169 242.717 272.778 242.717 270.347C242.717 268.189 241.729 266.759 239.896 266.759C239.116 266.759 238.323 267.201 237.686 267.76L237.725 266.486V263.652H236.542V274H237.491L237.595 273.272H237.647C238.258 273.831 238.999 274.169 239.649 274.169ZM239.454 273.181C238.986 273.181 238.349 272.986 237.725 272.44V268.735C238.401 268.098 239.025 267.76 239.623 267.76C240.962 267.76 241.482 268.813 241.482 270.373C241.482 272.128 240.624 273.181 239.454 273.181ZM244.578 274H245.761V266.941H244.578V274ZM245.176 265.485C245.644 265.485 245.969 265.173 245.969 264.692C245.969 264.237 245.644 263.925 245.176 263.925C244.708 263.925 244.383 264.237 244.383 264.692C244.383 265.173 244.708 265.485 245.176 265.485ZM249.406 274.169C249.731 274.169 249.926 274.13 250.095 274.065L249.926 273.155C249.796 273.181 249.744 273.181 249.679 273.181C249.497 273.181 249.341 273.038 249.341 272.674V263.652H248.158V272.596C248.158 273.597 248.522 274.169 249.406 274.169ZM251.865 274H253.048V266.941H251.865V274ZM252.463 265.485C252.931 265.485 253.256 265.173 253.256 264.692C253.256 264.237 252.931 263.925 252.463 263.925C251.995 263.925 251.67 264.237 251.67 264.692C251.67 265.173 251.995 265.485 252.463 265.485ZM257.85 274.169C258.695 274.169 259.436 273.714 259.995 273.168H260.034L260.138 274H261.1V263.652H259.93V266.369L259.982 267.591C259.358 267.071 258.825 266.759 257.993 266.759C256.381 266.759 254.938 268.189 254.938 270.477C254.938 272.83 256.082 274.169 257.85 274.169ZM258.11 273.181C256.862 273.181 256.16 272.167 256.16 270.464C256.16 268.852 257.057 267.76 258.201 267.76C258.786 267.76 259.319 267.968 259.93 268.501V272.206C259.332 272.856 258.76 273.181 258.11 273.181ZM265.132 274.169C266.003 274.169 266.796 273.714 267.472 273.155H267.511L267.615 274H268.59V269.658C268.59 267.916 267.862 266.759 266.146 266.759C265.015 266.759 264.014 267.266 263.364 267.682L263.832 268.501C264.391 268.124 265.132 267.747 265.951 267.747C267.108 267.747 267.407 268.618 267.407 269.528C264.404 269.866 263.065 270.633 263.065 272.167C263.065 273.441 263.949 274.169 265.132 274.169ZM265.47 273.22C264.768 273.22 264.222 272.895 264.222 272.089C264.222 271.179 265.028 270.594 267.407 270.308V272.284C266.718 272.895 266.159 273.22 265.47 273.22ZM273.249 274.169C274.094 274.169 274.835 273.714 275.394 273.168H275.433L275.537 274H276.499V263.652H275.329V266.369L275.381 267.591C274.757 267.071 274.224 266.759 273.392 266.759C271.78 266.759 270.337 268.189 270.337 270.477C270.337 272.83 271.481 274.169 273.249 274.169ZM273.509 273.181C272.261 273.181 271.559 272.167 271.559 270.464C271.559 268.852 272.456 267.76 273.6 267.76C274.185 267.76 274.718 267.968 275.329 268.501V272.206C274.731 272.856 274.159 273.181 273.509 273.181ZM279.517 274.169C279.985 274.169 280.375 273.805 280.375 273.272C280.375 272.726 279.985 272.349 279.517 272.349C279.049 272.349 278.659 272.726 278.659 273.272C278.659 273.805 279.049 274.169 279.517 274.169Z" fill="#484545"/>
</svg>
