<svg width="247" height="105" viewBox="0 0 247 105" fill="none" xmlns="http://www.w3.org/2000/svg">
<path d="M68.689 52.504C72.145 52.504 74.989 51.136 77.185 48.58L74.377 45.268C72.937 46.816 71.173 47.896 68.869 47.896C64.657 47.896 61.921 44.404 61.921 38.608C61.921 32.884 64.945 29.428 68.977 29.428C70.993 29.428 72.541 30.364 73.909 31.66L76.681 28.276C74.953 26.476 72.253 24.856 68.869 24.856C62.137 24.856 56.485 30.004 56.485 38.788C56.485 47.68 61.957 52.504 68.689 52.504ZM86.6353 52.504C89.3713 52.504 91.3153 51.172 93.0433 49.12H93.1873L93.5833 52H97.9033V31.84H92.6113V45.448C91.2433 47.248 90.1633 47.968 88.5073 47.968C86.5633 47.968 85.6993 46.852 85.6993 43.756V31.84H80.4073V44.44C80.4073 49.48 82.2793 52.504 86.6353 52.504ZM103.545 52H108.837V38.14C110.241 36.628 111.537 35.872 112.689 35.872C114.597 35.872 115.533 36.952 115.533 40.084V52H120.789V38.14C122.229 36.628 123.525 35.872 124.677 35.872C126.585 35.872 127.485 36.952 127.485 40.084V52H132.777V39.436C132.777 34.36 130.797 31.336 126.513 31.336C123.885 31.336 121.941 32.92 120.105 34.864C119.133 32.632 117.441 31.336 114.561 31.336C111.933 31.336 110.061 32.776 108.369 34.54H108.261L107.865 31.84H103.545V52ZM138.244 59.74H143.536V53.62L143.356 50.308C144.904 51.712 146.596 52.504 148.36 52.504C152.788 52.504 156.928 48.508 156.928 41.596C156.928 35.404 153.976 31.336 149.008 31.336C146.848 31.336 144.76 32.488 143.068 33.928H142.96L142.564 31.84H138.244V59.74ZM147.172 48.148C146.092 48.148 144.796 47.752 143.536 46.636V37.78C144.904 36.376 146.128 35.692 147.496 35.692C150.268 35.692 151.492 37.816 151.492 41.668C151.492 46.06 149.62 48.148 147.172 48.148ZM166.38 52.504C167.64 52.504 168.504 52.288 169.116 52.036L168.468 48.112C168.108 48.184 167.964 48.184 167.748 48.184C167.244 48.184 166.704 47.788 166.704 46.564V23.272H161.412V46.348C161.412 50.092 162.708 52.504 166.38 52.504ZM181.192 52.504C186.232 52.504 190.876 48.616 190.876 41.92C190.876 35.224 186.232 31.336 181.192 31.336C176.152 31.336 171.508 35.224 171.508 41.92C171.508 48.616 176.152 52.504 181.192 52.504ZM181.192 48.184C178.456 48.184 176.908 45.736 176.908 41.92C176.908 38.14 178.456 35.656 181.192 35.656C183.928 35.656 185.476 38.14 185.476 41.92C185.476 45.736 183.928 48.184 181.192 48.184ZM3.13892 104H8.43092V83.84H3.13892V104ZM5.80292 80.6C7.60292 80.6 8.86292 79.448 8.86292 77.684C8.86292 75.956 7.60292 74.804 5.80292 74.804C3.96692 74.804 2.70692 75.956 2.70692 77.684C2.70692 79.448 3.96692 80.6 5.80292 80.6ZM14.0725 104H19.3645V90.14C20.8405 88.664 21.8845 87.872 23.5405 87.872C25.5205 87.872 26.3845 88.952 26.3845 92.084V104H31.6765V91.436C31.6765 86.36 29.8045 83.336 25.4485 83.336C22.7125 83.336 20.6605 84.776 18.8965 86.504H18.7885L18.3925 83.84H14.0725V104ZM41.671 104H47.791L54.523 83.84H49.447L46.495 93.884C45.955 95.864 45.415 97.952 44.875 100.004H44.695C44.155 97.952 43.615 95.864 43.075 93.884L40.123 83.84H34.795L41.671 104ZM66.38 104.504C68.864 104.504 71.42 103.64 73.4 102.272L71.6 99.032C70.16 99.932 68.72 100.436 67.064 100.436C64.076 100.436 61.916 98.708 61.484 95.396H73.904C74.048 94.928 74.156 93.956 74.156 92.948C74.156 87.404 71.276 83.336 65.732 83.336C60.944 83.336 56.336 87.404 56.336 93.92C56.336 100.58 60.728 104.504 66.38 104.504ZM61.412 91.868C61.808 88.952 63.68 87.44 65.804 87.44C68.396 87.44 69.62 89.168 69.62 91.868H61.412ZM78.5139 104H83.8059V91.976C84.9219 89.06 86.8299 88.016 88.4139 88.016C89.2419 88.016 89.8179 88.124 90.5379 88.34L91.4379 83.768C90.8259 83.516 90.1779 83.336 89.0619 83.336C86.9739 83.336 84.8139 84.776 83.3379 87.404H83.2299L82.8339 83.84H78.5139V104ZM99.6724 104.504C104.928 104.504 107.7 101.66 107.7 98.132C107.7 94.388 104.748 93.056 102.084 92.048C99.9604 91.256 98.0884 90.716 98.0884 89.24C98.0884 88.088 98.9524 87.296 100.788 87.296C102.264 87.296 103.668 87.98 105.108 89.024L107.484 85.82C105.828 84.56 103.56 83.336 100.644 83.336C96.0364 83.336 93.1204 85.892 93.1204 89.492C93.1204 92.876 95.9644 94.424 98.5204 95.396C100.644 96.224 102.732 96.908 102.732 98.42C102.732 99.68 101.832 100.544 99.8164 100.544C97.9444 100.544 96.2164 99.752 94.4164 98.348L92.0044 101.66C94.0204 103.316 96.9724 104.504 99.6724 104.504ZM111.737 104H117.029V83.84H111.737V104ZM114.401 80.6C116.201 80.6 117.461 79.448 117.461 77.684C117.461 75.956 116.201 74.804 114.401 74.804C112.565 74.804 111.305 75.956 111.305 77.684C111.305 79.448 112.565 80.6 114.401 80.6ZM131.094 104.504C136.134 104.504 140.778 100.616 140.778 93.92C140.778 87.224 136.134 83.336 131.094 83.336C126.054 83.336 121.41 87.224 121.41 93.92C121.41 100.616 126.054 104.504 131.094 104.504ZM131.094 100.184C128.358 100.184 126.81 97.736 126.81 93.92C126.81 90.14 128.358 87.656 131.094 87.656C133.83 87.656 135.378 90.14 135.378 93.92C135.378 97.736 133.83 100.184 131.094 100.184ZM145.205 104H150.497V90.14C151.973 88.664 153.017 87.872 154.673 87.872C156.653 87.872 157.517 88.952 157.517 92.084V104H162.809V91.436C162.809 86.36 160.937 83.336 156.581 83.336C153.845 83.336 151.793 84.776 150.029 86.504H149.921L149.525 83.84H145.205V104ZM168.268 104H173.56V83.84H168.268V104ZM170.932 80.6C172.732 80.6 173.992 79.448 173.992 77.684C173.992 75.956 172.732 74.804 170.932 74.804C169.096 74.804 167.836 75.956 167.836 77.684C167.836 79.448 169.096 80.6 170.932 80.6ZM184.961 104.504C190.217 104.504 192.989 101.66 192.989 98.132C192.989 94.388 190.037 93.056 187.373 92.048C185.249 91.256 183.377 90.716 183.377 89.24C183.377 88.088 184.241 87.296 186.077 87.296C187.553 87.296 188.957 87.98 190.397 89.024L192.773 85.82C191.117 84.56 188.849 83.336 185.933 83.336C181.325 83.336 178.409 85.892 178.409 89.492C178.409 92.876 181.253 94.424 183.809 95.396C185.933 96.224 188.021 96.908 188.021 98.42C188.021 99.68 187.121 100.544 185.105 100.544C183.233 100.544 181.505 99.752 179.705 98.348L177.293 101.66C179.309 103.316 182.261 104.504 184.961 104.504ZM203.562 104.504C205.326 104.504 206.73 104.108 207.81 103.748L206.946 99.896C206.406 100.112 205.614 100.328 204.966 100.328C203.166 100.328 202.23 99.248 202.23 96.944V88.016H207.198V83.84H202.23V78.404H197.838L197.226 83.84L194.094 84.092V88.016H196.938V96.944C196.938 101.444 198.774 104.504 203.562 104.504ZM215.423 104.504C217.727 104.504 219.743 103.352 221.507 101.84H221.651L222.011 104H226.331V92.228C226.331 86.396 223.703 83.336 218.591 83.336C215.423 83.336 212.543 84.524 210.167 86L212.075 89.492C213.947 88.412 215.747 87.584 217.619 87.584C220.103 87.584 220.967 89.096 221.075 91.076C212.939 91.94 209.447 94.208 209.447 98.528C209.447 101.948 211.823 104.504 215.423 104.504ZM217.151 100.364C215.603 100.364 214.487 99.68 214.487 98.096C214.487 96.296 216.143 94.928 221.075 94.316V98.384C219.779 99.644 218.663 100.364 217.151 100.364ZM237.485 104.504C242.741 104.504 245.513 101.66 245.513 98.132C245.513 94.388 242.561 93.056 239.897 92.048C237.773 91.256 235.901 90.716 235.901 89.24C235.901 88.088 236.765 87.296 238.601 87.296C240.077 87.296 241.481 87.98 242.921 89.024L245.297 85.82C243.641 84.56 241.373 83.336 238.457 83.336C233.849 83.336 230.933 85.892 230.933 89.492C230.933 92.876 233.777 94.424 236.333 95.396C238.457 96.224 240.545 96.908 240.545 98.42C240.545 99.68 239.645 100.544 237.629 100.544C235.757 100.544 234.029 99.752 232.229 98.348L229.817 101.66C231.833 103.316 234.785 104.504 237.485 104.504Z" fill="#1F1F1F"/>
<path d="M52.4727 13.154C54.4637 13.154 55.6187 12.043 55.6187 9.337V4.849H54.0567V9.48C54.0567 11.174 53.4407 11.746 52.4727 11.746C51.5267 11.746 50.9327 11.174 50.9327 9.48V4.849H49.3047V9.337C49.3047 12.043 50.4927 13.154 52.4727 13.154ZM59.2224 13H60.9494L61.8184 11.196C62.0164 10.778 62.2144 10.349 62.4124 9.854H62.4564C62.6984 10.349 62.8854 10.778 63.0944 11.196L64.0074 13H65.8114L63.5234 8.875L65.6684 4.849H63.9524L63.1824 6.532C63.0064 6.917 62.8414 7.313 62.6434 7.819H62.5884C62.3464 7.313 62.1814 6.917 61.9834 6.532L61.1694 4.849H59.3654L61.5104 8.798L59.2224 13ZM71.9502 13H77.0652V11.636H73.5782V9.458H76.4382V8.094H73.5782V6.213H76.9442V4.849H71.9502V13ZM81.21 13H82.75V9.733C82.75 8.798 82.629 7.775 82.552 6.895H82.607L83.432 8.644L85.786 13H87.436V4.849H85.896V8.105C85.896 9.029 86.028 10.107 86.105 10.954H86.05L85.236 9.194L82.871 4.849H81.21V13ZM94.4336 13H96.0616V9.92H97.1946L98.8666 13H100.682L98.7786 9.667C99.7136 9.304 100.33 8.545 100.33 7.324C100.33 5.454 98.9766 4.849 97.2716 4.849H94.4336V13ZM96.0616 8.633V6.147H97.1176C98.1626 6.147 98.7456 6.444 98.7456 7.324C98.7456 8.193 98.1626 8.633 97.1176 8.633H96.0616ZM104.424 13H109.539V11.636H106.052V9.458H108.912V8.094H106.052V6.213H109.418V4.849H104.424V13ZM113.684 13H116.005C118.403 13 119.943 11.636 119.943 8.897C119.943 6.147 118.403 4.849 115.917 4.849H113.684V13ZM115.312 11.691V6.158H115.818C117.336 6.158 118.282 6.906 118.282 8.897C118.282 10.877 117.336 11.691 115.818 11.691H115.312ZM124.028 13H125.656V4.849H124.028V13ZM132.582 13.154C134.463 13.154 135.574 12.021 135.574 10.69C135.574 9.513 134.925 8.886 133.935 8.479L132.868 8.028C132.175 7.753 131.603 7.544 131.603 6.961C131.603 6.422 132.054 6.103 132.769 6.103C133.44 6.103 133.979 6.345 134.496 6.774L135.321 5.751C134.661 5.08 133.715 4.706 132.769 4.706C131.119 4.706 129.953 5.729 129.953 7.06C129.953 8.248 130.778 8.908 131.603 9.249L132.692 9.711C133.418 10.019 133.913 10.206 133.913 10.811C133.913 11.383 133.462 11.746 132.615 11.746C131.9 11.746 131.13 11.383 130.547 10.844L129.612 11.966C130.404 12.725 131.493 13.154 132.582 13.154ZM139.508 13H144.623V11.636H141.136V9.458H143.996V8.094H141.136V6.213H144.502V4.849H139.508V13ZM148.768 13H150.308V9.733C150.308 8.798 150.187 7.775 150.11 6.895H150.165L150.99 8.644L153.344 13H154.994V4.849H153.454V8.105C153.454 9.029 153.586 10.107 153.663 10.954H153.608L152.794 9.194L150.429 4.849H148.768V13ZM152.882 4.299C153.707 4.299 154.312 3.76 154.367 2.572L153.322 2.506C153.267 2.979 153.08 3.166 152.827 3.166C152.354 3.166 151.969 2.407 151.067 2.407C150.242 2.407 149.637 2.957 149.571 4.123L150.627 4.211C150.671 3.727 150.869 3.54 151.122 3.54C151.584 3.54 151.969 4.299 152.882 4.299ZM162.733 13.154C164.889 13.154 166.374 11.537 166.374 8.897C166.374 6.257 164.889 4.706 162.733 4.706C160.577 4.706 159.092 6.246 159.092 8.897C159.092 11.537 160.577 13.154 162.733 13.154ZM162.733 11.746C161.523 11.746 160.753 10.635 160.753 8.897C160.753 7.148 161.523 6.103 162.733 6.103C163.943 6.103 164.713 7.148 164.713 8.897C164.713 10.635 163.943 11.746 162.733 11.746ZM174.719 8.754C174.961 7.907 175.203 6.983 175.412 6.092H175.467C175.698 6.972 175.918 7.907 176.171 8.754L176.413 9.645H174.477L174.719 8.754ZM171.903 13H173.553L174.125 10.91H176.765L177.337 13H179.042L176.424 4.849H174.51L171.903 13ZM182.487 13H184.115V10.107H185.204C186.953 10.107 188.35 9.271 188.35 7.412C188.35 5.487 186.964 4.849 185.16 4.849H182.487V13ZM184.115 8.82V6.147H185.039C186.161 6.147 186.755 6.466 186.755 7.412C186.755 8.347 186.216 8.82 185.094 8.82H184.115ZM192.316 13H193.944V10.107H195.033C196.782 10.107 198.179 9.271 198.179 7.412C198.179 5.487 196.793 4.849 194.989 4.849H192.316V13ZM193.944 8.82V6.147H194.868C195.99 6.147 196.584 6.466 196.584 7.412C196.584 8.347 196.045 8.82 194.923 8.82H193.944Z" fill="#8A8A8A"/>
</svg>
