<svg width="284" height="103" viewBox="0 0 284 103" fill="none" xmlns="http://www.w3.org/2000/svg">
<path d="M87.0344 16H94.0094V14.14H89.2544V11.17H93.1544V9.31H89.2544V6.745H93.8444V4.885H87.0344V16ZM99.6614 16H106.396V14.14H101.881V4.885H99.6614V16ZM115.13 16H118.295C121.565 16 123.665 14.14 123.665 10.405C123.665 6.655 121.565 4.885 118.175 4.885H115.13V16ZM117.35 14.215V6.67H118.04C120.11 6.67 121.4 7.69 121.4 10.405C121.4 13.105 120.11 14.215 118.04 14.215H117.35ZM129.237 16H136.212V14.14H131.457V11.17H135.357V9.31H131.457V6.745H136.047V4.885H129.237V16ZM145.179 16.21C147.744 16.21 149.259 14.665 149.259 12.85C149.259 11.245 148.374 10.39 147.024 9.835L145.569 9.22C144.624 8.845 143.844 8.56 143.844 7.765C143.844 7.03 144.459 6.595 145.434 6.595C146.349 6.595 147.084 6.925 147.789 7.51L148.914 6.115C148.014 5.2 146.724 4.69 145.434 4.69C143.184 4.69 141.594 6.085 141.594 7.9C141.594 9.52 142.719 10.42 143.844 10.885L145.329 11.515C146.319 11.935 146.994 12.19 146.994 13.015C146.994 13.795 146.379 14.29 145.224 14.29C144.249 14.29 143.199 13.795 142.404 13.06L141.129 14.59C142.209 15.625 143.694 16.21 145.179 16.21ZM157.037 10.21C157.367 9.055 157.697 7.795 157.982 6.58H158.057C158.372 7.78 158.672 9.055 159.017 10.21L159.347 11.425H156.707L157.037 10.21ZM153.197 16H155.447L156.227 13.15H159.827L160.607 16H162.932L159.362 4.885H156.752L153.197 16ZM167.63 16H169.85V11.5H173.795V9.64H169.85V6.745H174.47V4.885H167.63V16ZM179.803 16H182.023V4.885H179.803V16ZM180.733 4.345L183.703 2.35L182.533 0.909999L179.743 3.235L180.733 4.345ZM192.563 16.21C195.503 16.21 197.528 14.005 197.528 10.405C197.528 6.805 195.503 4.69 192.563 4.69C189.623 4.69 187.598 6.79 187.598 10.405C187.598 14.005 189.623 16.21 192.563 16.21ZM192.563 14.29C190.913 14.29 189.863 12.775 189.863 10.405C189.863 8.02 190.913 6.595 192.563 6.595C194.213 6.595 195.263 8.02 195.263 10.405C195.263 12.775 194.213 14.29 192.563 14.29Z" fill="#D29890"/>
<path d="M8.86 62.066C9.994 62.066 10.876 61.52 11.548 60.778L10.806 60.106C10.316 60.666 9.7 61.016 9 61.016C8.006 61.016 7.488 60.33 7.488 59.476C7.488 57.824 9.98 56.928 9.644 54.492H8.51C8.762 56.69 6.242 57.516 6.242 59.574C6.242 61.114 7.292 62.066 8.86 62.066ZM9.042 53.162C9.56 53.162 9.966 52.756 9.966 52.182C9.966 51.608 9.56 51.202 9.042 51.202C8.538 51.202 8.118 51.608 8.118 52.182C8.118 52.756 8.538 53.162 9.042 53.162ZM16.7253 59.182C18.0553 59.182 19.0633 58.65 19.8753 57.712L19.1613 56.9C18.5033 57.614 17.7613 58.048 16.7813 58.048C14.8213 58.048 13.5893 56.424 13.5893 53.834C13.5893 51.272 14.8773 49.676 16.8233 49.676C17.7053 49.676 18.3913 50.082 18.9233 50.656L19.6233 49.816C19.0353 49.158 18.0553 48.542 16.8093 48.542C14.2053 48.542 12.2593 50.558 12.2593 53.876C12.2593 57.208 14.1773 59.182 16.7253 59.182ZM24.617 59.182C26.479 59.182 28.145 57.726 28.145 55.206C28.145 52.672 26.479 51.202 24.617 51.202C22.755 51.202 21.089 52.672 21.089 55.206C21.089 57.726 22.755 59.182 24.617 59.182ZM24.617 58.118C23.301 58.118 22.419 56.956 22.419 55.206C22.419 53.456 23.301 52.266 24.617 52.266C25.933 52.266 26.829 53.456 26.829 55.206C26.829 56.956 25.933 58.118 24.617 58.118ZM24.393 50.026L26.843 47.646L25.947 46.792L23.735 49.396L24.393 50.026ZM30.1532 59H31.4272V53.484C32.1272 52.7 32.7712 52.322 33.3452 52.322C34.3112 52.322 34.7592 52.924 34.7592 54.352V59H36.0332V53.484C36.7472 52.7 37.3632 52.322 37.9512 52.322C38.9172 52.322 39.3652 52.924 39.3652 54.352V59H40.6392V54.184C40.6392 52.238 39.8972 51.202 38.3292 51.202C37.4052 51.202 36.6072 51.804 35.8232 52.658C35.5152 51.762 34.8852 51.202 33.7232 51.202C32.8132 51.202 32.0152 51.776 31.3572 52.504H31.3152L31.2032 51.398H30.1532V59ZM46.0682 59.182C47.9302 59.182 49.5962 57.726 49.5962 55.206C49.5962 52.672 47.9302 51.202 46.0682 51.202C44.2062 51.202 42.5402 52.672 42.5402 55.206C42.5402 57.726 44.2062 59.182 46.0682 59.182ZM46.0682 58.118C44.7522 58.118 43.8702 56.956 43.8702 55.206C43.8702 53.456 44.7522 52.266 46.0682 52.266C47.3842 52.266 48.2802 53.456 48.2802 55.206C48.2802 56.956 47.3842 58.118 46.0682 58.118ZM54.7353 62.206H56.0093V59.63L55.9813 58.3C56.6673 58.86 57.3953 59.182 58.0813 59.182C59.8313 59.182 61.3853 57.684 61.3853 55.08C61.3853 52.742 60.3213 51.202 58.3613 51.202C57.4793 51.202 56.6253 51.706 55.9393 52.266H55.8973L55.7853 51.398H54.7353V62.206ZM57.8713 58.118C57.3673 58.118 56.6953 57.908 56.0093 57.32V53.33C56.7513 52.644 57.4093 52.28 58.0533 52.28C59.4953 52.28 60.0553 53.414 60.0553 55.094C60.0553 56.984 59.1313 58.118 57.8713 58.118ZM66.3709 59.182C68.2329 59.182 69.8989 57.726 69.8989 55.206C69.8989 52.672 68.2329 51.202 66.3709 51.202C64.5089 51.202 62.8429 52.672 62.8429 55.206C62.8429 57.726 64.5089 59.182 66.3709 59.182ZM66.3709 58.118C65.0549 58.118 64.1729 56.956 64.1729 55.206C64.1729 53.456 65.0549 52.266 66.3709 52.266C67.6869 52.266 68.5829 53.456 68.5829 55.206C68.5829 56.956 67.6869 58.118 66.3709 58.118ZM74.4971 59.182C75.4071 59.182 76.2051 58.692 76.8071 58.104H76.8491L76.9611 59H77.9971V47.856H76.7371V50.782L76.7931 52.098C76.1211 51.538 75.5471 51.202 74.6511 51.202C72.9151 51.202 71.3611 52.742 71.3611 55.206C71.3611 57.74 72.5931 59.182 74.4971 59.182ZM74.7771 58.118C73.4331 58.118 72.6771 57.026 72.6771 55.192C72.6771 53.456 73.6431 52.28 74.8751 52.28C75.5051 52.28 76.0791 52.504 76.7371 53.078V57.068C76.0931 57.768 75.4771 58.118 74.7771 58.118ZM83.6548 59.182C84.6908 59.182 85.5028 58.832 86.1748 58.398L85.7128 57.558C85.1528 57.936 84.5508 58.16 83.8088 58.16C82.3668 58.16 81.3728 57.124 81.2888 55.5H86.4128C86.4408 55.318 86.4688 55.052 86.4688 54.772C86.4688 52.602 85.3768 51.202 83.4448 51.202C81.6808 51.202 80.0148 52.742 80.0148 55.206C80.0148 57.712 81.6388 59.182 83.6548 59.182ZM81.2748 54.576C81.4288 53.092 82.3808 52.224 83.4588 52.224C84.6488 52.224 85.3488 53.05 85.3488 54.576H81.2748ZM88.3407 59H89.6147V53.484C90.3147 52.7 90.9587 52.322 91.5327 52.322C92.4987 52.322 92.9467 52.924 92.9467 54.352V59H94.2207V53.484C94.9347 52.7 95.5507 52.322 96.1387 52.322C97.1047 52.322 97.5527 52.924 97.5527 54.352V59H98.8267V54.184C98.8267 52.238 98.0847 51.202 96.5167 51.202C95.5927 51.202 94.7947 51.804 94.0107 52.658C93.7027 51.762 93.0727 51.202 91.9107 51.202C91.0007 51.202 90.2027 51.776 89.5447 52.504H89.5027L89.3907 51.398H88.3407V59ZM104.256 59.182C106.118 59.182 107.784 57.726 107.784 55.206C107.784 52.672 106.118 51.202 104.256 51.202C102.394 51.202 100.728 52.672 100.728 55.206C100.728 57.726 102.394 59.182 104.256 59.182ZM104.256 58.118C102.94 58.118 102.058 56.956 102.058 55.206C102.058 53.456 102.94 52.266 104.256 52.266C105.572 52.266 106.468 53.456 106.468 55.206C106.468 56.956 105.572 58.118 104.256 58.118ZM111.78 59.182C113.572 59.182 114.552 58.16 114.552 56.928C114.552 55.486 113.334 55.038 112.228 54.618C111.374 54.296 110.59 54.03 110.59 53.302C110.59 52.714 111.038 52.21 112.004 52.21C112.676 52.21 113.208 52.49 113.726 52.882L114.342 52.056C113.754 51.594 112.928 51.202 111.99 51.202C110.338 51.202 109.358 52.154 109.358 53.358C109.358 54.646 110.52 55.164 111.584 55.556C112.424 55.878 113.32 56.214 113.32 56.998C113.32 57.656 112.83 58.188 111.822 58.188C110.912 58.188 110.226 57.824 109.568 57.292L108.938 58.132C109.666 58.734 110.702 59.182 111.78 59.182ZM119.472 59H120.746V54.114C121.25 52.812 122.034 52.364 122.664 52.364C122.972 52.364 123.154 52.392 123.406 52.49L123.644 51.37C123.406 51.244 123.168 51.202 122.832 51.202C121.978 51.202 121.208 51.818 120.676 52.784H120.634L120.522 51.398H119.472V59ZM127.815 59.182C128.851 59.182 129.663 58.832 130.335 58.398L129.873 57.558C129.313 57.936 128.711 58.16 127.969 58.16C126.527 58.16 125.533 57.124 125.449 55.5H130.573C130.601 55.318 130.629 55.052 130.629 54.772C130.629 52.602 129.537 51.202 127.605 51.202C125.841 51.202 124.175 52.742 124.175 55.206C124.175 57.712 125.799 59.182 127.815 59.182ZM125.435 54.576C125.589 53.092 126.541 52.224 127.619 52.224C128.809 52.224 129.509 53.05 129.509 54.576H125.435ZM135.091 59.182C136.001 59.182 136.799 58.692 137.401 58.104H137.443L137.555 59H138.591V47.856H137.331V50.782L137.387 52.098C136.715 51.538 136.141 51.202 135.245 51.202C133.509 51.202 131.955 52.742 131.955 55.206C131.955 57.74 133.187 59.182 135.091 59.182ZM135.371 58.118C134.027 58.118 133.271 57.026 133.271 55.192C133.271 53.456 134.237 52.28 135.469 52.28C136.099 52.28 136.673 52.504 137.331 53.078V57.068C136.687 57.768 136.071 58.118 135.371 58.118ZM141.183 59H142.457V51.398H141.183V59ZM141.827 49.83C142.331 49.83 142.681 49.494 142.681 48.976C142.681 48.486 142.331 48.15 141.827 48.15C141.323 48.15 140.973 48.486 140.973 48.976C140.973 49.494 141.323 49.83 141.827 49.83ZM147.026 59.182C148.818 59.182 149.798 58.16 149.798 56.928C149.798 55.486 148.58 55.038 147.474 54.618C146.62 54.296 145.836 54.03 145.836 53.302C145.836 52.714 146.284 52.21 147.25 52.21C147.922 52.21 148.454 52.49 148.972 52.882L149.588 52.056C149 51.594 148.174 51.202 147.236 51.202C145.584 51.202 144.604 52.154 144.604 53.358C144.604 54.646 145.766 55.164 146.83 55.556C147.67 55.878 148.566 56.214 148.566 56.998C148.566 57.656 148.076 58.188 147.068 58.188C146.158 58.188 145.472 57.824 144.814 57.292L144.184 58.132C144.912 58.734 145.948 59.182 147.026 59.182ZM154.653 59.182C155.689 59.182 156.501 58.832 157.173 58.398L156.711 57.558C156.151 57.936 155.549 58.16 154.807 58.16C153.365 58.16 152.371 57.124 152.287 55.5H157.411C157.439 55.318 157.467 55.052 157.467 54.772C157.467 52.602 156.375 51.202 154.443 51.202C152.679 51.202 151.013 52.742 151.013 55.206C151.013 57.712 152.637 59.182 154.653 59.182ZM152.273 54.576C152.427 53.092 153.379 52.224 154.457 52.224C155.647 52.224 156.347 53.05 156.347 54.576H152.273ZM159.339 59H160.613V53.484C161.383 52.714 161.915 52.322 162.699 52.322C163.707 52.322 164.141 52.924 164.141 54.352V59H165.415V54.184C165.415 52.238 164.687 51.202 163.091 51.202C162.055 51.202 161.271 51.776 160.543 52.49H160.501L160.389 51.398H159.339V59ZM163.791 49.97C164.869 49.97 165.317 49.046 165.359 47.856L164.505 47.814C164.463 48.528 164.253 49.032 163.791 49.032C163.049 49.032 162.629 47.716 161.537 47.716C160.445 47.716 159.997 48.626 159.955 49.844L160.823 49.9C160.851 49.144 161.075 48.654 161.537 48.654C162.265 48.654 162.685 49.97 163.791 49.97ZM169.647 59.182C170.585 59.182 171.439 58.692 172.167 58.09H172.209L172.321 59H173.371V54.324C173.371 52.448 172.587 51.202 170.739 51.202C169.521 51.202 168.443 51.748 167.743 52.196L168.247 53.078C168.849 52.672 169.647 52.266 170.529 52.266C171.775 52.266 172.097 53.204 172.097 54.184C168.863 54.548 167.421 55.374 167.421 57.026C167.421 58.398 168.373 59.182 169.647 59.182ZM170.011 58.16C169.255 58.16 168.667 57.81 168.667 56.942C168.667 55.962 169.535 55.332 172.097 55.024V57.152C171.355 57.81 170.753 58.16 170.011 58.16ZM175.8 59H177.074V54.114C177.578 52.812 178.362 52.364 178.992 52.364C179.3 52.364 179.482 52.392 179.734 52.49L179.972 51.37C179.734 51.244 179.496 51.202 179.16 51.202C178.306 51.202 177.536 51.818 177.004 52.784H176.962L176.85 51.398H175.8V59ZM186.57 59.182C187.62 59.182 188.376 58.636 189.09 57.81H189.132L189.23 59H190.294V51.398H189.02V56.788C188.292 57.698 187.746 58.076 186.962 58.076C185.954 58.076 185.534 57.474 185.534 56.06V51.398H184.26V56.214C184.26 58.146 184.974 59.182 186.57 59.182ZM192.862 59H194.136V53.484C194.906 52.714 195.438 52.322 196.222 52.322C197.23 52.322 197.664 52.924 197.664 54.352V59H198.938V54.184C198.938 52.238 198.21 51.202 196.614 51.202C195.578 51.202 194.794 51.776 194.066 52.49H194.024L193.912 51.398H192.862V59ZM203.171 59.182C204.109 59.182 204.963 58.692 205.691 58.09H205.733L205.845 59H206.895V54.324C206.895 52.448 206.111 51.202 204.263 51.202C203.045 51.202 201.967 51.748 201.267 52.196L201.771 53.078C202.373 52.672 203.171 52.266 204.053 52.266C205.299 52.266 205.621 53.204 205.621 54.184C202.387 54.548 200.945 55.374 200.945 57.026C200.945 58.398 201.897 59.182 203.171 59.182ZM203.535 58.16C202.779 58.16 202.191 57.81 202.191 56.942C202.191 55.962 203.059 55.332 205.621 55.024V57.152C204.879 57.81 204.277 58.16 203.535 58.16ZM214.204 59.182C215.142 59.182 215.996 58.692 216.724 58.09H216.766L216.878 59H217.928V54.324C217.928 52.448 217.144 51.202 215.296 51.202C214.078 51.202 213 51.748 212.3 52.196L212.804 53.078C213.406 52.672 214.204 52.266 215.086 52.266C216.332 52.266 216.654 53.204 216.654 54.184C213.42 54.548 211.978 55.374 211.978 57.026C211.978 58.398 212.93 59.182 214.204 59.182ZM214.568 58.16C213.812 58.16 213.224 57.81 213.224 56.942C213.224 55.962 214.092 55.332 216.654 55.024V57.152C215.912 57.81 215.31 58.16 214.568 58.16ZM220.356 62.206H221.63V59.63L221.602 58.3C222.288 58.86 223.016 59.182 223.702 59.182C225.452 59.182 227.006 57.684 227.006 55.08C227.006 52.742 225.942 51.202 223.982 51.202C223.1 51.202 222.246 51.706 221.56 52.266H221.518L221.406 51.398H220.356V62.206ZM223.492 58.118C222.988 58.118 222.316 57.908 221.63 57.32V53.33C222.372 52.644 223.03 52.28 223.674 52.28C225.116 52.28 225.676 53.414 225.676 55.094C225.676 56.984 224.752 58.118 223.492 58.118ZM230.382 59.182C230.732 59.182 230.942 59.14 231.124 59.07L230.942 58.09C230.802 58.118 230.746 58.118 230.676 58.118C230.48 58.118 230.312 57.964 230.312 57.572V47.856H229.038V57.488C229.038 58.566 229.43 59.182 230.382 59.182ZM233.03 59H234.304V51.398H233.03V59ZM233.674 49.83C234.178 49.83 234.528 49.494 234.528 48.976C234.528 48.486 234.178 48.15 233.674 48.15C233.17 48.15 232.82 48.486 232.82 48.976C232.82 49.494 233.17 49.83 233.674 49.83ZM239.882 59.182C240.792 59.182 241.66 58.832 242.346 58.216L241.786 57.362C241.31 57.796 240.694 58.118 239.994 58.118C238.594 58.118 237.642 56.956 237.642 55.206C237.642 53.456 238.65 52.266 240.036 52.266C240.638 52.266 241.1 52.546 241.548 52.938L242.206 52.098C241.66 51.622 240.974 51.202 239.98 51.202C238.034 51.202 236.312 52.672 236.312 55.206C236.312 57.726 237.866 59.182 239.882 59.182ZM245.608 59.182C246.546 59.182 247.4 58.692 248.128 58.09H248.17L248.282 59H249.332V54.324C249.332 52.448 248.548 51.202 246.7 51.202C245.482 51.202 244.404 51.748 243.704 52.196L244.208 53.078C244.81 52.672 245.608 52.266 246.49 52.266C247.736 52.266 248.058 53.204 248.058 54.184C244.824 54.548 243.382 55.374 243.382 57.026C243.382 58.398 244.334 59.182 245.608 59.182ZM245.972 58.16C245.216 58.16 244.628 57.81 244.628 56.942C244.628 55.962 245.496 55.332 248.058 55.024V57.152C247.316 57.81 246.714 58.16 245.972 58.16ZM254.757 59.182C255.667 59.182 256.535 58.832 257.221 58.216L256.661 57.362C256.185 57.796 255.569 58.118 254.869 58.118C253.469 58.118 252.517 56.956 252.517 55.206C252.517 53.456 253.525 52.266 254.911 52.266C255.513 52.266 255.975 52.546 256.423 52.938L257.081 52.098C256.535 51.622 255.849 51.202 254.855 51.202C252.909 51.202 251.187 52.672 251.187 55.206C251.187 57.726 252.741 59.182 254.757 59.182ZM258.884 59H260.158V51.398H258.884V59ZM259.528 49.83C260.032 49.83 260.382 49.494 260.382 48.976C260.382 48.486 260.032 48.15 259.528 48.15C259.024 48.15 258.674 48.486 258.674 48.976C258.674 49.494 259.024 49.83 259.528 49.83ZM265.693 59.182C267.555 59.182 269.221 57.726 269.221 55.206C269.221 52.672 267.555 51.202 265.693 51.202C263.831 51.202 262.165 52.672 262.165 55.206C262.165 57.726 263.831 59.182 265.693 59.182ZM265.693 58.118C264.377 58.118 263.495 56.956 263.495 55.206C263.495 53.456 264.377 52.266 265.693 52.266C267.009 52.266 267.905 53.456 267.905 55.206C267.905 56.956 267.009 58.118 265.693 58.118ZM265.469 50.026L267.919 47.646L267.023 46.792L264.811 49.396L265.469 50.026ZM271.229 59H272.503V53.484C273.273 52.714 273.805 52.322 274.589 52.322C275.597 52.322 276.031 52.924 276.031 54.352V59H277.305V54.184C277.305 52.238 276.577 51.202 274.981 51.202C273.945 51.202 273.161 51.776 272.433 52.49H272.391L272.279 51.398H271.229V59ZM46.8091 79.182C47.8451 79.182 48.6571 78.832 49.3291 78.398L48.8671 77.558C48.3071 77.936 47.7051 78.16 46.9631 78.16C45.5211 78.16 44.5271 77.124 44.4431 75.5H49.5671C49.5951 75.318 49.6231 75.052 49.6231 74.772C49.6231 72.602 48.5311 71.202 46.5991 71.202C44.8351 71.202 43.1691 72.742 43.1691 75.206C43.1691 77.712 44.7931 79.182 46.8091 79.182ZM44.4291 74.576C44.5831 73.092 45.5351 72.224 46.6131 72.224C47.8031 72.224 48.5031 73.05 48.5031 74.576H44.4291ZM51.495 79H52.769V73.484C53.539 72.714 54.071 72.322 54.855 72.322C55.863 72.322 56.297 72.924 56.297 74.352V79H57.571V74.184C57.571 72.238 56.843 71.202 55.247 71.202C54.211 71.202 53.427 71.776 52.699 72.49H52.657L52.545 71.398H51.495V79ZM65.3965 79.182C66.4465 79.182 67.2025 78.636 67.9165 77.81H67.9585L68.0565 79H69.1205V71.398H67.8465V76.788C67.1185 77.698 66.5725 78.076 65.7885 78.076C64.7805 78.076 64.3605 77.474 64.3605 76.06V71.398H63.0865V76.214C63.0865 78.146 63.8005 79.182 65.3965 79.182ZM71.6884 79H72.9624V73.484C73.7324 72.714 74.2644 72.322 75.0484 72.322C76.0564 72.322 76.4904 72.924 76.4904 74.352V79H77.7644V74.184C77.7644 72.238 77.0364 71.202 75.4404 71.202C74.4044 71.202 73.6204 71.776 72.8924 72.49H72.8504L72.7384 71.398H71.6884V79ZM81.997 79.182C82.935 79.182 83.789 78.692 84.517 78.09H84.559L84.671 79H85.721V74.324C85.721 72.448 84.937 71.202 83.089 71.202C81.871 71.202 80.793 71.748 80.093 72.196L80.597 73.078C81.199 72.672 81.997 72.266 82.879 72.266C84.125 72.266 84.447 73.204 84.447 74.184C81.213 74.548 79.771 75.374 79.771 77.026C79.771 78.398 80.723 79.182 81.997 79.182ZM82.361 78.16C81.605 78.16 81.017 77.81 81.017 76.942C81.017 75.962 81.885 75.332 84.447 75.024V77.152C83.705 77.81 83.103 78.16 82.361 78.16ZM93.2682 79.182C95.0602 79.182 96.0402 78.16 96.0402 76.928C96.0402 75.486 94.8222 75.038 93.7162 74.618C92.8622 74.296 92.0782 74.03 92.0782 73.302C92.0782 72.714 92.5262 72.21 93.4922 72.21C94.1642 72.21 94.6962 72.49 95.2142 72.882L95.8302 72.056C95.2422 71.594 94.4162 71.202 93.4782 71.202C91.8262 71.202 90.8462 72.154 90.8462 73.358C90.8462 74.646 92.0082 75.164 93.0722 75.556C93.9122 75.878 94.8082 76.214 94.8082 76.998C94.8082 77.656 94.3182 78.188 93.3102 78.188C92.4002 78.188 91.7142 77.824 91.0562 77.292L90.4262 78.132C91.1542 78.734 92.1902 79.182 93.2682 79.182ZM100.895 79.182C101.931 79.182 102.743 78.832 103.415 78.398L102.953 77.558C102.393 77.936 101.791 78.16 101.049 78.16C99.607 78.16 98.613 77.124 98.529 75.5H103.653C103.681 75.318 103.709 75.052 103.709 74.772C103.709 72.602 102.617 71.202 100.685 71.202C98.921 71.202 97.255 72.742 97.255 75.206C97.255 77.712 98.879 79.182 100.895 79.182ZM98.515 74.576C98.669 73.092 99.621 72.224 100.699 72.224C101.889 72.224 102.589 73.05 102.589 74.576H98.515ZM105.581 79H106.855V73.484C107.555 72.7 108.199 72.322 108.773 72.322C109.739 72.322 110.187 72.924 110.187 74.352V79H111.461V73.484C112.175 72.7 112.791 72.322 113.379 72.322C114.345 72.322 114.793 72.924 114.793 74.352V79H116.067V74.184C116.067 72.238 115.325 71.202 113.757 71.202C112.833 71.202 112.035 71.804 111.251 72.658C110.943 71.762 110.313 71.202 109.151 71.202C108.241 71.202 107.443 71.776 106.785 72.504H106.743L106.631 71.398H105.581V79ZM120.292 79.182C121.23 79.182 122.084 78.692 122.812 78.09H122.854L122.966 79H124.016V74.324C124.016 72.448 123.232 71.202 121.384 71.202C120.166 71.202 119.088 71.748 118.388 72.196L118.892 73.078C119.494 72.672 120.292 72.266 121.174 72.266C122.42 72.266 122.742 73.204 122.742 74.184C119.508 74.548 118.066 75.374 118.066 77.026C118.066 78.398 119.018 79.182 120.292 79.182ZM120.656 78.16C119.9 78.16 119.312 77.81 119.312 76.942C119.312 75.962 120.18 75.332 122.742 75.024V77.152C122 77.81 121.398 78.16 120.656 78.16ZM126.444 79H127.718V73.484C128.488 72.714 129.02 72.322 129.804 72.322C130.812 72.322 131.246 72.924 131.246 74.352V79H132.52V74.184C132.52 72.238 131.792 71.202 130.196 71.202C129.16 71.202 128.376 71.776 127.648 72.49H127.606L127.494 71.398H126.444V79ZM136.753 79.182C137.691 79.182 138.545 78.692 139.273 78.09H139.315L139.427 79H140.477V74.324C140.477 72.448 139.693 71.202 137.845 71.202C136.627 71.202 135.549 71.748 134.849 72.196L135.353 73.078C135.955 72.672 136.753 72.266 137.635 72.266C138.881 72.266 139.203 73.204 139.203 74.184C135.969 74.548 134.527 75.374 134.527 77.026C134.527 78.398 135.479 79.182 136.753 79.182ZM137.117 78.16C136.361 78.16 135.773 77.81 135.773 76.942C135.773 75.962 136.641 75.332 139.203 75.024V77.152C138.461 77.81 137.859 78.16 137.117 78.16ZM146.162 82.276C147.674 82.276 148.472 81.128 148.99 79.63L151.86 71.398H150.614L149.256 75.626C149.046 76.298 148.822 77.068 148.612 77.754H148.542C148.304 77.068 148.038 76.284 147.814 75.626L146.26 71.398H144.93L147.982 79.014L147.814 79.588C147.506 80.526 146.96 81.226 146.092 81.226C145.896 81.226 145.672 81.156 145.518 81.1L145.266 82.122C145.504 82.22 145.798 82.276 146.162 82.276ZM161.298 82.206H162.558V71.398H161.55L161.424 72.126H161.382C160.724 71.524 160.094 71.202 159.212 71.202C157.476 71.202 155.922 72.742 155.922 75.206C155.922 77.74 157.154 79.182 159.058 79.182C159.94 79.182 160.738 78.72 161.354 78.118L161.298 79.504V82.206ZM159.338 78.118C157.994 78.118 157.238 77.026 157.238 75.192C157.238 73.456 158.204 72.28 159.436 72.28C160.066 72.28 160.64 72.504 161.298 73.078V77.068C160.654 77.768 160.038 78.118 159.338 78.118ZM167.361 79.182C168.411 79.182 169.167 78.636 169.881 77.81H169.923L170.021 79H171.085V71.398H169.811V76.788C169.083 77.698 168.537 78.076 167.753 78.076C166.745 78.076 166.325 77.474 166.325 76.06V71.398H165.051V76.214C165.051 78.146 165.765 79.182 167.361 79.182ZM176.719 79.182C177.755 79.182 178.567 78.832 179.239 78.398L178.777 77.558C178.217 77.936 177.615 78.16 176.873 78.16C175.431 78.16 174.437 77.124 174.353 75.5H179.477C179.505 75.318 179.533 75.052 179.533 74.772C179.533 72.602 178.441 71.202 176.509 71.202C174.745 71.202 173.079 72.742 173.079 75.206C173.079 77.712 174.703 79.182 176.719 79.182ZM174.339 74.576C174.493 73.092 175.445 72.224 176.523 72.224C177.713 72.224 178.413 73.05 178.413 74.576H174.339ZM186.286 79.182C187.224 79.182 188.078 78.692 188.806 78.09H188.848L188.96 79H190.01V74.324C190.01 72.448 189.226 71.202 187.378 71.202C186.16 71.202 185.082 71.748 184.382 72.196L184.886 73.078C185.488 72.672 186.286 72.266 187.168 72.266C188.414 72.266 188.736 73.204 188.736 74.184C185.502 74.548 184.06 75.374 184.06 77.026C184.06 78.398 185.012 79.182 186.286 79.182ZM186.65 78.16C185.894 78.16 185.306 77.81 185.306 76.942C185.306 75.962 186.174 75.332 188.736 75.024V77.152C187.994 77.81 187.392 78.16 186.65 78.16ZM192.564 82.276C194.076 82.276 194.874 81.128 195.392 79.63L198.262 71.398H197.016L195.658 75.626C195.448 76.298 195.224 77.068 195.014 77.754H194.944C194.706 77.068 194.44 76.284 194.216 75.626L192.662 71.398H191.332L194.384 79.014L194.216 79.588C193.908 80.526 193.362 81.226 192.494 81.226C192.298 81.226 192.074 81.156 191.92 81.1L191.668 82.122C191.906 82.22 192.2 82.276 192.564 82.276ZM201.951 79.182C203.001 79.182 203.757 78.636 204.471 77.81H204.513L204.611 79H205.675V71.398H204.401V76.788C203.673 77.698 203.127 78.076 202.343 78.076C201.335 78.076 200.915 77.474 200.915 76.06V71.398H199.641V76.214C199.641 78.146 200.355 79.182 201.951 79.182ZM210.833 79.182C211.743 79.182 212.541 78.692 213.143 78.104H213.185L213.297 79H214.333V67.856H213.073V70.782L213.129 72.098C212.457 71.538 211.883 71.202 210.987 71.202C209.251 71.202 207.697 72.742 207.697 75.206C207.697 77.74 208.929 79.182 210.833 79.182ZM211.113 78.118C209.769 78.118 209.013 77.026 209.013 75.192C209.013 73.456 209.979 72.28 211.211 72.28C211.841 72.28 212.415 72.504 213.073 73.078V77.068C212.429 77.768 211.813 78.118 211.113 78.118ZM219.991 79.182C221.027 79.182 221.839 78.832 222.511 78.398L222.049 77.558C221.489 77.936 220.887 78.16 220.145 78.16C218.703 78.16 217.709 77.124 217.625 75.5H222.749C222.777 75.318 222.805 75.052 222.805 74.772C222.805 72.602 221.713 71.202 219.781 71.202C218.017 71.202 216.351 72.742 216.351 75.206C216.351 77.712 217.975 79.182 219.991 79.182ZM217.611 74.576C217.765 73.092 218.717 72.224 219.795 72.224C220.985 72.224 221.685 73.05 221.685 74.576H217.611ZM229.558 79.182C230.496 79.182 231.35 78.692 232.078 78.09H232.12L232.232 79H233.282V74.324C233.282 72.448 232.498 71.202 230.65 71.202C229.432 71.202 228.354 71.748 227.654 72.196L228.158 73.078C228.76 72.672 229.558 72.266 230.44 72.266C231.686 72.266 232.008 73.204 232.008 74.184C228.774 74.548 227.332 75.374 227.332 77.026C227.332 78.398 228.284 79.182 229.558 79.182ZM229.922 78.16C229.166 78.16 228.578 77.81 228.578 76.942C228.578 75.962 229.446 75.332 232.008 75.024V77.152C231.266 77.81 230.664 78.16 229.922 78.16ZM237.054 79.182C237.404 79.182 237.614 79.14 237.796 79.07L237.614 78.09C237.474 78.118 237.418 78.118 237.348 78.118C237.152 78.118 236.984 77.964 236.984 77.572V67.856H235.71V77.488C235.71 78.566 236.102 79.182 237.054 79.182ZM34.3368 102.206H35.6108V99.63L35.5828 98.3C36.2688 98.86 36.9968 99.182 37.6828 99.182C39.4328 99.182 40.9868 97.684 40.9868 95.08C40.9868 92.742 39.9228 91.202 37.9628 91.202C37.0808 91.202 36.2268 91.706 35.5408 92.266H35.4988L35.3868 91.398H34.3368V102.206ZM37.4728 98.118C36.9688 98.118 36.2968 97.908 35.6108 97.32V93.33C36.3528 92.644 37.0108 92.28 37.6548 92.28C39.0968 92.28 39.6568 93.414 39.6568 95.094C39.6568 96.984 38.7328 98.118 37.4728 98.118ZM43.0185 99H44.2925V94.114C44.7965 92.812 45.5805 92.364 46.2105 92.364C46.5185 92.364 46.7005 92.392 46.9525 92.49L47.1905 91.37C46.9525 91.244 46.7145 91.202 46.3785 91.202C45.5245 91.202 44.7545 91.818 44.2225 92.784H44.1805L44.0685 91.398H43.0185V99ZM51.2498 99.182C53.1118 99.182 54.7778 97.726 54.7778 95.206C54.7778 92.672 53.1118 91.202 51.2498 91.202C49.3878 91.202 47.7218 92.672 47.7218 95.206C47.7218 97.726 49.3878 99.182 51.2498 99.182ZM51.2498 98.118C49.9338 98.118 49.0518 96.956 49.0518 95.206C49.0518 93.456 49.9338 92.266 51.2498 92.266C52.5658 92.266 53.4618 93.456 53.4618 95.206C53.4618 96.956 52.5658 98.118 51.2498 98.118ZM56.996 99H58.27V92.434H59.88V91.398H58.27V90.194C58.27 89.214 58.62 88.696 59.348 88.696C59.614 88.696 59.922 88.766 60.202 88.892L60.482 87.926C60.132 87.772 59.67 87.674 59.208 87.674C57.696 87.674 56.996 88.64 56.996 90.18V91.398L55.96 91.468V92.434H56.996V99ZM64.2544 99.182C65.2904 99.182 66.1024 98.832 66.7744 98.398L66.3124 97.558C65.7524 97.936 65.1504 98.16 64.4084 98.16C62.9664 98.16 61.9724 97.124 61.8884 95.5H67.0124C67.0404 95.318 67.0684 95.052 67.0684 94.772C67.0684 92.602 65.9764 91.202 64.0444 91.202C62.2804 91.202 60.6144 92.742 60.6144 95.206C60.6144 97.712 62.2384 99.182 64.2544 99.182ZM61.8744 94.576C62.0284 93.092 62.9804 92.224 64.0584 92.224C65.2484 92.224 65.9484 93.05 65.9484 94.576H61.8744ZM70.9283 99.182C72.7203 99.182 73.7003 98.16 73.7003 96.928C73.7003 95.486 72.4823 95.038 71.3763 94.618C70.5223 94.296 69.7383 94.03 69.7383 93.302C69.7383 92.714 70.1863 92.21 71.1523 92.21C71.8243 92.21 72.3563 92.49 72.8743 92.882L73.4903 92.056C72.9023 91.594 72.0763 91.202 71.1383 91.202C69.4863 91.202 68.5063 92.154 68.5063 93.358C68.5063 94.646 69.6683 95.164 70.7323 95.556C71.5723 95.878 72.4683 96.214 72.4683 96.998C72.4683 97.656 71.9783 98.188 70.9703 98.188C70.0603 98.188 69.3743 97.824 68.7163 97.292L68.0863 98.132C68.8143 98.734 69.8503 99.182 70.9283 99.182ZM75.4892 99H76.7632V91.398H75.4892V99ZM76.1332 89.83C76.6372 89.83 76.9872 89.494 76.9872 88.976C76.9872 88.486 76.6372 88.15 76.1332 88.15C75.6292 88.15 75.2792 88.486 75.2792 88.976C75.2792 89.494 75.6292 89.83 76.1332 89.83ZM82.2986 99.182C84.1606 99.182 85.8266 97.726 85.8266 95.206C85.8266 92.672 84.1606 91.202 82.2986 91.202C80.4366 91.202 78.7706 92.672 78.7706 95.206C78.7706 97.726 80.4366 99.182 82.2986 99.182ZM82.2986 98.118C80.9826 98.118 80.1006 96.956 80.1006 95.206C80.1006 93.456 80.9826 92.266 82.2986 92.266C83.6146 92.266 84.5106 93.456 84.5106 95.206C84.5106 96.956 83.6146 98.118 82.2986 98.118ZM87.8349 99H89.1089V93.484C89.8789 92.714 90.4109 92.322 91.1949 92.322C92.2029 92.322 92.6369 92.924 92.6369 94.352V99H93.9109V94.184C93.9109 92.238 93.1829 91.202 91.5869 91.202C90.5509 91.202 89.7669 91.776 89.0389 92.49H88.9969L88.8849 91.398H87.8349V99ZM98.1435 99.182C99.0815 99.182 99.9355 98.692 100.663 98.09H100.705L100.817 99H101.867V94.324C101.867 92.448 101.083 91.202 99.2355 91.202C98.0175 91.202 96.9395 91.748 96.2395 92.196L96.7435 93.078C97.3455 92.672 98.1435 92.266 99.0255 92.266C100.271 92.266 100.593 93.204 100.593 94.184C97.3595 94.548 95.9175 95.374 95.9175 97.026C95.9175 98.398 96.8695 99.182 98.1435 99.182ZM98.5075 98.16C97.7515 98.16 97.1635 97.81 97.1635 96.942C97.1635 95.962 98.0315 95.332 100.593 95.024V97.152C99.8515 97.81 99.2495 98.16 98.5075 98.16ZM105.64 99.182C105.99 99.182 106.2 99.14 106.382 99.07L106.2 98.09C106.06 98.118 106.004 98.118 105.934 98.118C105.738 98.118 105.57 97.964 105.57 97.572V87.856H104.296V97.488C104.296 98.566 104.688 99.182 105.64 99.182ZM113.169 99.182C114.107 99.182 114.961 98.692 115.689 98.09H115.731L115.843 99H116.893V94.324C116.893 92.448 116.109 91.202 114.261 91.202C113.043 91.202 111.965 91.748 111.265 92.196L111.769 93.078C112.371 92.672 113.169 92.266 114.051 92.266C115.297 92.266 115.619 93.204 115.619 94.184C112.385 94.548 110.943 95.374 110.943 97.026C110.943 98.398 111.895 99.182 113.169 99.182ZM113.533 98.16C112.777 98.16 112.189 97.81 112.189 96.942C112.189 95.962 113.057 95.332 115.619 95.024V97.152C114.877 97.81 114.275 98.16 113.533 98.16ZM122.452 99H123.726V94.114C124.23 92.812 125.014 92.364 125.644 92.364C125.952 92.364 126.134 92.392 126.386 92.49L126.624 91.37C126.386 91.244 126.148 91.202 125.812 91.202C124.958 91.202 124.188 91.818 123.656 92.784H123.614L123.502 91.398H122.452V99ZM130.795 99.182C131.831 99.182 132.643 98.832 133.315 98.398L132.853 97.558C132.293 97.936 131.691 98.16 130.949 98.16C129.507 98.16 128.513 97.124 128.429 95.5H133.553C133.581 95.318 133.609 95.052 133.609 94.772C133.609 92.602 132.517 91.202 130.585 91.202C128.821 91.202 127.155 92.742 127.155 95.206C127.155 97.712 128.779 99.182 130.795 99.182ZM128.415 94.576C128.569 93.092 129.521 92.224 130.599 92.224C131.789 92.224 132.489 93.05 132.489 94.576H128.415ZM137.893 102.5C140.245 102.5 141.743 101.282 141.743 99.868C141.743 98.622 140.847 98.062 139.083 98.062H137.599C136.577 98.062 136.269 97.726 136.269 97.236C136.269 96.816 136.479 96.564 136.759 96.326C137.095 96.494 137.515 96.592 137.893 96.592C139.433 96.592 140.665 95.57 140.665 93.946C140.665 93.288 140.413 92.728 140.049 92.378H141.603V91.398H138.957C138.691 91.3 138.313 91.202 137.893 91.202C136.353 91.202 135.037 92.252 135.037 93.918C135.037 94.828 135.527 95.556 136.031 95.962V96.018C135.639 96.298 135.177 96.802 135.177 97.432C135.177 98.034 135.471 98.44 135.877 98.678V98.734C135.163 99.196 134.757 99.812 134.757 100.456C134.757 101.772 136.031 102.5 137.893 102.5ZM137.893 95.724C137.011 95.724 136.269 95.024 136.269 93.918C136.269 92.798 136.997 92.14 137.893 92.14C138.789 92.14 139.517 92.812 139.517 93.918C139.517 95.024 138.761 95.724 137.893 95.724ZM138.075 101.632C136.703 101.632 135.877 101.1 135.877 100.288C135.877 99.84 136.101 99.392 136.647 99C136.983 99.084 137.347 99.126 137.627 99.126H138.943C139.951 99.126 140.497 99.364 140.497 100.064C140.497 100.862 139.531 101.632 138.075 101.632ZM143.22 99H144.494V91.398H143.22V99ZM143.864 89.83C144.368 89.83 144.718 89.494 144.718 88.976C144.718 88.486 144.368 88.15 143.864 88.15C143.36 88.15 143.01 88.486 143.01 88.976C143.01 89.494 143.36 89.83 143.864 89.83ZM149.063 99.182C150.855 99.182 151.835 98.16 151.835 96.928C151.835 95.486 150.617 95.038 149.511 94.618C148.657 94.296 147.873 94.03 147.873 93.302C147.873 92.714 148.321 92.21 149.287 92.21C149.959 92.21 150.491 92.49 151.009 92.882L151.625 92.056C151.037 91.594 150.211 91.202 149.273 91.202C147.621 91.202 146.641 92.154 146.641 93.358C146.641 94.646 147.803 95.164 148.867 95.556C149.707 95.878 150.603 96.214 150.603 96.998C150.603 97.656 150.113 98.188 149.105 98.188C148.195 98.188 147.509 97.824 146.851 97.292L146.221 98.132C146.949 98.734 147.985 99.182 149.063 99.182ZM155.703 99.182C156.165 99.182 156.669 99.042 157.103 98.902L156.851 97.95C156.599 98.048 156.249 98.146 155.983 98.146C155.101 98.146 154.807 97.614 154.807 96.676V92.434H156.865V91.398H154.807V89.256H153.743L153.589 91.398L152.399 91.468V92.434H153.533V96.648C153.533 98.16 154.079 99.182 155.703 99.182ZM158.587 99H159.861V94.114C160.365 92.812 161.149 92.364 161.779 92.364C162.087 92.364 162.269 92.392 162.521 92.49L162.759 91.37C162.521 91.244 162.283 91.202 161.947 91.202C161.093 91.202 160.323 91.818 159.791 92.784H159.749L159.637 91.398H158.587V99ZM165.382 99.182C166.32 99.182 167.174 98.692 167.902 98.09H167.944L168.056 99H169.106V94.324C169.106 92.448 168.322 91.202 166.474 91.202C165.256 91.202 164.178 91.748 163.478 92.196L163.982 93.078C164.584 92.672 165.382 92.266 166.264 92.266C167.51 92.266 167.832 93.204 167.832 94.184C164.598 94.548 163.156 95.374 163.156 97.026C163.156 98.398 164.108 99.182 165.382 99.182ZM165.746 98.16C164.99 98.16 164.402 97.81 164.402 96.942C164.402 95.962 165.27 95.332 167.832 95.024V97.152C167.09 97.81 166.488 98.16 165.746 98.16ZM171.534 99H172.808V94.114C173.312 92.812 174.096 92.364 174.726 92.364C175.034 92.364 175.216 92.392 175.468 92.49L175.706 91.37C175.468 91.244 175.23 91.202 174.894 91.202C174.04 91.202 173.27 91.818 172.738 92.784H172.696L172.584 91.398H171.534V99ZM182.081 99.182C183.873 99.182 184.853 98.16 184.853 96.928C184.853 95.486 183.635 95.038 182.529 94.618C181.675 94.296 180.891 94.03 180.891 93.302C180.891 92.714 181.339 92.21 182.305 92.21C182.977 92.21 183.509 92.49 184.027 92.882L184.643 92.056C184.055 91.594 183.229 91.202 182.291 91.202C180.639 91.202 179.659 92.154 179.659 93.358C179.659 94.646 180.821 95.164 181.885 95.556C182.725 95.878 183.621 96.214 183.621 96.998C183.621 97.656 183.131 98.188 182.123 98.188C181.213 98.188 180.527 97.824 179.869 97.292L179.239 98.132C179.967 98.734 181.003 99.182 182.081 99.182ZM188.854 99.182C189.904 99.182 190.66 98.636 191.374 97.81H191.416L191.514 99H192.578V91.398H191.304V96.788C190.576 97.698 190.03 98.076 189.246 98.076C188.238 98.076 187.818 97.474 187.818 96.06V91.398H186.544V96.214C186.544 98.146 187.258 99.182 188.854 99.182ZM197.133 99.182C198.925 99.182 199.905 98.16 199.905 96.928C199.905 95.486 198.687 95.038 197.581 94.618C196.727 94.296 195.943 94.03 195.943 93.302C195.943 92.714 196.391 92.21 197.357 92.21C198.029 92.21 198.561 92.49 199.079 92.882L199.695 92.056C199.107 91.594 198.281 91.202 197.343 91.202C195.691 91.202 194.711 92.154 194.711 93.358C194.711 94.646 195.873 95.164 196.937 95.556C197.777 95.878 198.673 96.214 198.673 96.998C198.673 97.656 198.183 98.188 197.175 98.188C196.265 98.188 195.579 97.824 194.921 97.292L194.291 98.132C195.019 98.734 196.055 99.182 197.133 99.182ZM206.463 99H207.947L210.649 91.398H209.389L207.947 95.724C207.723 96.466 207.485 97.25 207.247 97.964H207.191C206.953 97.25 206.715 96.466 206.477 95.724L205.049 91.398H203.719L206.463 99ZM212.126 99H213.4V91.398H212.126V99ZM212.77 89.83C213.274 89.83 213.624 89.494 213.624 88.976C213.624 88.486 213.274 88.15 212.77 88.15C212.266 88.15 211.916 88.486 211.916 88.976C211.916 89.494 212.266 89.83 212.77 89.83ZM217.969 99.182C219.761 99.182 220.741 98.16 220.741 96.928C220.741 95.486 219.523 95.038 218.417 94.618C217.563 94.296 216.779 94.03 216.779 93.302C216.779 92.714 217.227 92.21 218.193 92.21C218.865 92.21 219.397 92.49 219.915 92.882L220.531 92.056C219.943 91.594 219.117 91.202 218.179 91.202C216.527 91.202 215.547 92.154 215.547 93.358C215.547 94.646 216.709 95.164 217.773 95.556C218.613 95.878 219.509 96.214 219.509 96.998C219.509 97.656 219.019 98.188 218.011 98.188C217.101 98.188 216.415 97.824 215.757 97.292L215.127 98.132C215.855 98.734 216.891 99.182 217.969 99.182ZM222.53 99H223.804V91.398H222.53V99ZM223.174 89.83C223.678 89.83 224.028 89.494 224.028 88.976C224.028 88.486 223.678 88.15 223.174 88.15C222.67 88.15 222.32 88.486 222.32 88.976C222.32 89.494 222.67 89.83 223.174 89.83ZM228.78 99.182C229.242 99.182 229.746 99.042 230.18 98.902L229.928 97.95C229.676 98.048 229.326 98.146 229.06 98.146C228.178 98.146 227.884 97.614 227.884 96.676V92.434H229.942V91.398H227.884V89.256H226.82L226.666 91.398L225.476 91.468V92.434H226.61V96.648C226.61 98.16 227.156 99.182 228.78 99.182ZM233.071 99.182C234.009 99.182 234.863 98.692 235.591 98.09H235.633L235.745 99H236.795V94.324C236.795 92.448 236.011 91.202 234.163 91.202C232.945 91.202 231.867 91.748 231.167 92.196L231.671 93.078C232.273 92.672 233.071 92.266 233.953 92.266C235.199 92.266 235.521 93.204 235.521 94.184C232.287 94.548 230.845 95.374 230.845 97.026C230.845 98.398 231.797 99.182 233.071 99.182ZM233.435 98.16C232.679 98.16 232.091 97.81 232.091 96.942C232.091 95.962 232.959 95.332 235.521 95.024V97.152C234.779 97.81 234.177 98.16 233.435 98.16ZM241.212 99.182C243.004 99.182 243.984 98.16 243.984 96.928C243.984 95.486 242.766 95.038 241.66 94.618C240.806 94.296 240.022 94.03 240.022 93.302C240.022 92.714 240.47 92.21 241.436 92.21C242.108 92.21 242.64 92.49 243.158 92.882L243.774 92.056C243.186 91.594 242.36 91.202 241.422 91.202C239.77 91.202 238.79 92.154 238.79 93.358C238.79 94.646 239.952 95.164 241.016 95.556C241.856 95.878 242.752 96.214 242.752 96.998C242.752 97.656 242.262 98.188 241.254 98.188C240.344 98.188 239.658 97.824 239 97.292L238.37 98.132C239.098 98.734 240.134 99.182 241.212 99.182ZM246.812 95.906H247.946C247.694 93.708 250.214 92.882 250.214 90.824C250.214 89.298 249.178 88.332 247.596 88.332C246.462 88.332 245.566 88.878 244.922 89.62L245.65 90.292C246.14 89.732 246.756 89.396 247.456 89.396C248.45 89.396 248.968 90.068 248.968 90.908C248.968 92.574 246.49 93.47 246.812 95.906ZM247.414 99.182C247.932 99.182 248.352 98.79 248.352 98.216C248.352 97.628 247.932 97.222 247.414 97.222C246.91 97.222 246.49 97.628 246.49 98.216C246.49 98.79 246.91 99.182 247.414 99.182Z" fill="#484545"/>
</svg>
