<svg width="284" height="135" viewBox="0 0 284 135" fill="none" xmlns="http://www.w3.org/2000/svg">
<path d="M35.0398 18H37.2598V14.055H38.7448C41.1298 14.055 43.0348 12.915 43.0348 10.38C43.0348 7.755 41.1448 6.885 38.6848 6.885H35.0398V18ZM37.2598 12.3V8.655H38.5198C40.0498 8.655 40.8598 9.09 40.8598 10.38C40.8598 11.655 40.1248 12.3 38.5948 12.3H37.2598ZM48.4431 18H50.6631V13.8H52.2081L54.4881 18H56.9631L54.3681 13.455C55.6431 12.96 56.4831 11.925 56.4831 10.26C56.4831 7.71 54.6381 6.885 52.3131 6.885H48.4431V18ZM50.6631 12.045V8.655H52.1031C53.5281 8.655 54.3231 9.06 54.3231 10.26C54.3231 11.445 53.5281 12.045 52.1031 12.045H50.6631ZM66.4762 18.21C69.4162 18.21 71.4412 16.005 71.4412 12.405C71.4412 8.805 69.4162 6.69 66.4762 6.69C63.5362 6.69 61.5112 8.79 61.5112 12.405C61.5112 16.005 63.5362 18.21 66.4762 18.21ZM66.4762 16.29C64.8262 16.29 63.7762 14.775 63.7762 12.405C63.7762 10.02 64.8262 8.595 66.4762 8.595C68.1262 8.595 69.1762 10.02 69.1762 12.405C69.1762 14.775 68.1262 16.29 66.4762 16.29ZM77.0076 18H80.9676C83.4126 18 85.2726 16.965 85.2726 14.73C85.2726 13.23 84.3876 12.39 83.1876 12.105V12.03C84.1326 11.7 84.7026 10.65 84.7026 9.63C84.7026 7.56 82.9626 6.885 80.6826 6.885H77.0076V18ZM79.2276 11.415V8.595H80.5476C81.8826 8.595 82.5426 8.985 82.5426 9.96C82.5426 10.845 81.9276 11.415 80.5176 11.415H79.2276ZM79.2276 16.29V13.05H80.7726C82.3026 13.05 83.1126 13.515 83.1126 14.595C83.1126 15.75 82.2876 16.29 80.7726 16.29H79.2276ZM90.616 18H97.351V16.14H92.836V6.885H90.616V18ZM102.686 18H109.661V16.14H104.906V13.17H108.806V11.31H104.906V8.745H109.496V6.885H102.686V18ZM115.313 18H117.308V13.365C117.308 12.315 117.128 10.77 117.023 9.72H117.083L117.968 12.33L119.693 16.995H120.968L122.678 12.33L123.578 9.72H123.653C123.533 10.77 123.368 12.315 123.368 13.365V18H125.393V6.885H122.933L121.088 12.09C120.848 12.78 120.653 13.515 120.413 14.22H120.338C120.113 13.515 119.903 12.78 119.663 12.09L117.773 6.885H115.313V18ZM138.228 18.21C140.793 18.21 142.308 16.665 142.308 14.85C142.308 13.245 141.423 12.39 140.073 11.835L138.618 11.22C137.673 10.845 136.893 10.56 136.893 9.765C136.893 9.03 137.508 8.595 138.483 8.595C139.398 8.595 140.133 8.925 140.838 9.51L141.963 8.115C141.063 7.2 139.773 6.69 138.483 6.69C136.233 6.69 134.643 8.085 134.643 9.9C134.643 11.52 135.768 12.42 136.893 12.885L138.378 13.515C139.368 13.935 140.043 14.19 140.043 15.015C140.043 15.795 139.428 16.29 138.273 16.29C137.298 16.29 136.248 15.795 135.453 15.06L134.178 16.59C135.258 17.625 136.743 18.21 138.228 18.21ZM149.877 18H152.097V8.745H155.247V6.885H146.757V8.745H149.877V18ZM162.86 12.21C163.19 11.055 163.52 9.795 163.805 8.58H163.88C164.195 9.78 164.495 11.055 164.84 12.21L165.17 13.425H162.53L162.86 12.21ZM159.02 18H161.27L162.05 15.15H165.65L166.43 18H168.755L165.185 6.885H162.575L159.02 18ZM175.658 18H177.878V8.745H181.028V6.885H172.538V8.745H175.658V18ZM186.226 18H193.201V16.14H188.446V13.17H192.346V11.31H188.446V8.745H193.036V6.885H186.226V18ZM198.853 18H200.848V13.365C200.848 12.315 200.668 10.77 200.563 9.72H200.623L201.508 12.33L203.233 16.995H204.508L206.218 12.33L207.118 9.72H207.193C207.073 10.77 206.908 12.315 206.908 13.365V18H208.933V6.885H206.473L204.628 12.09C204.388 12.78 204.193 13.515 203.953 14.22H203.878C203.653 13.515 203.443 12.78 203.203 12.09L201.313 6.885H198.853V18ZM215.054 18H222.029V16.14H217.274V13.17H221.174V11.31H217.274V8.745H221.864V6.885H215.054V18ZM227.681 18H229.781V13.545C229.781 12.27 229.616 10.875 229.511 9.675H229.586L230.711 12.06L233.921 18H236.171V6.885H234.071V11.325C234.071 12.585 234.251 14.055 234.356 15.21H234.281L233.171 12.81L229.946 6.885H227.681V18ZM244.52 18H246.74V8.745H249.89V6.885H241.4V8.745H244.52V18Z" fill="#D29890"/>
<path d="M7.83467 58H13.2037V56.973H9.04367V48.458H7.83467V58ZM17.3672 58.169C19.0962 58.169 20.6432 56.817 20.6432 54.477C20.6432 52.124 19.0962 50.759 17.3672 50.759C15.6382 50.759 14.0912 52.124 14.0912 54.477C14.0912 56.817 15.6382 58.169 17.3672 58.169ZM17.3672 57.181C16.1452 57.181 15.3262 56.102 15.3262 54.477C15.3262 52.852 16.1452 51.747 17.3672 51.747C18.5892 51.747 19.4212 52.852 19.4212 54.477C19.4212 56.102 18.5892 57.181 17.3672 57.181ZM24.354 58.169C26.018 58.169 26.928 57.22 26.928 56.076C26.928 54.737 25.797 54.321 24.77 53.931C23.977 53.632 23.249 53.385 23.249 52.709C23.249 52.163 23.665 51.695 24.562 51.695C25.186 51.695 25.68 51.955 26.161 52.319L26.733 51.552C26.187 51.123 25.42 50.759 24.549 50.759C23.015 50.759 22.105 51.643 22.105 52.761C22.105 53.957 23.184 54.438 24.172 54.802C24.952 55.101 25.784 55.413 25.784 56.141C25.784 56.752 25.329 57.246 24.393 57.246C23.548 57.246 22.911 56.908 22.3 56.414L21.715 57.194C22.391 57.753 23.353 58.169 24.354 58.169ZM33.0173 58H34.3953L36.9043 50.941H35.7343L34.3953 54.958C34.1873 55.647 33.9663 56.375 33.7453 57.038H33.6933C33.4723 56.375 33.2513 55.647 33.0303 54.958L31.7043 50.941H30.4693L33.0173 58ZM38.2756 58H39.4586V50.941H38.2756V58ZM38.8736 49.485C39.3416 49.485 39.6666 49.173 39.6666 48.692C39.6666 48.237 39.3416 47.925 38.8736 47.925C38.4056 47.925 38.0806 48.237 38.0806 48.692C38.0806 49.173 38.4056 49.485 38.8736 49.485ZM43.7017 58.169C45.3657 58.169 46.2757 57.22 46.2757 56.076C46.2757 54.737 45.1447 54.321 44.1177 53.931C43.3247 53.632 42.5967 53.385 42.5967 52.709C42.5967 52.163 43.0127 51.695 43.9097 51.695C44.5337 51.695 45.0277 51.955 45.5087 52.319L46.0807 51.552C45.5347 51.123 44.7677 50.759 43.8967 50.759C42.3627 50.759 41.4527 51.643 41.4527 52.761C41.4527 53.957 42.5317 54.438 43.5197 54.802C44.2997 55.101 45.1317 55.413 45.1317 56.141C45.1317 56.752 44.6767 57.246 43.7407 57.246C42.8957 57.246 42.2587 56.908 41.6477 56.414L41.0627 57.194C41.7387 57.753 42.7007 58.169 43.7017 58.169ZM47.9367 58H49.1197V50.941H47.9367V58ZM48.5347 49.485C49.0027 49.485 49.3277 49.173 49.3277 48.692C49.3277 48.237 49.0027 47.925 48.5347 47.925C48.0667 47.925 47.7417 48.237 47.7417 48.692C47.7417 49.173 48.0667 49.485 48.5347 49.485ZM53.7398 58.169C54.1688 58.169 54.6368 58.039 55.0398 57.909L54.8058 57.025C54.5718 57.116 54.2468 57.207 53.9998 57.207C53.1808 57.207 52.9078 56.713 52.9078 55.842V51.903H54.8188V50.941H52.9078V48.952H51.9198L51.7768 50.941L50.6718 51.006V51.903H51.7248V55.816C51.7248 57.22 52.2318 58.169 53.7398 58.169ZM57.7248 58.169C58.5958 58.169 59.3888 57.714 60.0648 57.155H60.1038L60.2078 58H61.1828V53.658C61.1828 51.916 60.4548 50.759 58.7388 50.759C57.6078 50.759 56.6068 51.266 55.9568 51.682L56.4248 52.501C56.9838 52.124 57.7248 51.747 58.5438 51.747C59.7008 51.747 59.9998 52.618 59.9998 53.528C56.9968 53.866 55.6578 54.633 55.6578 56.167C55.6578 57.441 56.5418 58.169 57.7248 58.169ZM58.0628 57.22C57.3608 57.22 56.8148 56.895 56.8148 56.089C56.8148 55.179 57.6208 54.594 59.9998 54.308V56.284C59.3108 56.895 58.7518 57.22 58.0628 57.22ZM65.8427 58.169C66.6877 58.169 67.4287 57.714 67.9877 57.168H68.0267L68.1307 58H69.0927V47.652H67.9227V50.369L67.9747 51.591C67.3507 51.071 66.8177 50.759 65.9857 50.759C64.3737 50.759 62.9307 52.189 62.9307 54.477C62.9307 56.83 64.0747 58.169 65.8427 58.169ZM66.1027 57.181C64.8547 57.181 64.1527 56.167 64.1527 54.464C64.1527 52.852 65.0497 51.76 66.1937 51.76C66.7787 51.76 67.3117 51.968 67.9227 52.501V56.206C67.3247 56.856 66.7527 57.181 66.1027 57.181ZM74.2422 58.169C75.9712 58.169 77.5182 56.817 77.5182 54.477C77.5182 52.124 75.9712 50.759 74.2422 50.759C72.5132 50.759 70.9662 52.124 70.9662 54.477C70.9662 56.817 72.5132 58.169 74.2422 58.169ZM74.2422 57.181C73.0202 57.181 72.2012 56.102 72.2012 54.477C72.2012 52.852 73.0202 51.747 74.2422 51.747C75.4642 51.747 76.2962 52.852 76.2962 54.477C76.2962 56.102 75.4642 57.181 74.2422 57.181ZM79.383 58H80.566V53.463C81.034 52.254 81.762 51.838 82.347 51.838C82.633 51.838 82.802 51.864 83.036 51.955L83.257 50.915C83.036 50.798 82.815 50.759 82.503 50.759C81.71 50.759 80.995 51.331 80.501 52.228H80.462L80.358 50.941H79.383V58ZM87.1304 58.169C88.0924 58.169 88.8464 57.844 89.4704 57.441L89.0414 56.661C88.5214 57.012 87.9624 57.22 87.2734 57.22C85.9344 57.22 85.0114 56.258 84.9334 54.75H89.6914C89.7174 54.581 89.7434 54.334 89.7434 54.074C89.7434 52.059 88.7294 50.759 86.9354 50.759C85.2974 50.759 83.7504 52.189 83.7504 54.477C83.7504 56.804 85.2584 58.169 87.1304 58.169ZM84.9204 53.892C85.0634 52.514 85.9474 51.708 86.9484 51.708C88.0534 51.708 88.7034 52.475 88.7034 53.892H84.9204ZM93.3276 58.169C94.9916 58.169 95.9016 57.22 95.9016 56.076C95.9016 54.737 94.7706 54.321 93.7436 53.931C92.9506 53.632 92.2226 53.385 92.2226 52.709C92.2226 52.163 92.6386 51.695 93.5356 51.695C94.1596 51.695 94.6536 51.955 95.1346 52.319L95.7066 51.552C95.1606 51.123 94.3936 50.759 93.5226 50.759C91.9886 50.759 91.0786 51.643 91.0786 52.761C91.0786 53.957 92.1576 54.438 93.1456 54.802C93.9256 55.101 94.7576 55.413 94.7576 56.141C94.7576 56.752 94.3026 57.246 93.3666 57.246C92.5216 57.246 91.8846 56.908 91.2736 56.414L90.6886 57.194C91.3646 57.753 92.3266 58.169 93.3276 58.169ZM102.316 58.169C103.98 58.169 104.89 57.22 104.89 56.076C104.89 54.737 103.759 54.321 102.732 53.931C101.939 53.632 101.211 53.385 101.211 52.709C101.211 52.163 101.627 51.695 102.524 51.695C103.148 51.695 103.642 51.955 104.123 52.319L104.695 51.552C104.149 51.123 103.382 50.759 102.511 50.759C100.977 50.759 100.067 51.643 100.067 52.761C100.067 53.957 101.146 54.438 102.134 54.802C102.914 55.101 103.746 55.413 103.746 56.141C103.746 56.752 103.291 57.246 102.355 57.246C101.51 57.246 100.873 56.908 100.262 56.414L99.6769 57.194C100.353 57.753 101.315 58.169 102.316 58.169ZM109.294 58.169C111.023 58.169 112.57 56.817 112.57 54.477C112.57 52.124 111.023 50.759 109.294 50.759C107.565 50.759 106.018 52.124 106.018 54.477C106.018 56.817 107.565 58.169 109.294 58.169ZM109.294 57.181C108.072 57.181 107.253 56.102 107.253 54.477C107.253 52.852 108.072 51.747 109.294 51.747C110.516 51.747 111.348 52.852 111.348 54.477C111.348 56.102 110.516 57.181 109.294 57.181ZM117.217 58.169C118.062 58.169 118.868 57.844 119.505 57.272L118.985 56.479C118.543 56.882 117.971 57.181 117.321 57.181C116.021 57.181 115.137 56.102 115.137 54.477C115.137 52.852 116.073 51.747 117.36 51.747C117.919 51.747 118.348 52.007 118.764 52.371L119.375 51.591C118.868 51.149 118.231 50.759 117.308 50.759C115.501 50.759 113.902 52.124 113.902 54.477C113.902 56.817 115.345 58.169 117.217 58.169ZM121.049 58H122.232V50.941H121.049V58ZM121.647 49.485C122.115 49.485 122.44 49.173 122.44 48.692C122.44 48.237 122.115 47.925 121.647 47.925C121.179 47.925 120.854 48.237 120.854 48.692C120.854 49.173 121.179 49.485 121.647 49.485ZM126.254 58.169C127.125 58.169 127.918 57.714 128.594 57.155H128.633L128.737 58H129.712V53.658C129.712 51.916 128.984 50.759 127.268 50.759C126.137 50.759 125.136 51.266 124.486 51.682L124.954 52.501C125.513 52.124 126.254 51.747 127.073 51.747C128.23 51.747 128.529 52.618 128.529 53.528C125.526 53.866 124.187 54.633 124.187 56.167C124.187 57.441 125.071 58.169 126.254 58.169ZM126.592 57.22C125.89 57.22 125.344 56.895 125.344 56.089C125.344 55.179 126.15 54.594 128.529 54.308V56.284C127.84 56.895 127.281 57.22 126.592 57.22ZM133.215 58.169C133.54 58.169 133.735 58.13 133.904 58.065L133.735 57.155C133.605 57.181 133.553 57.181 133.488 57.181C133.306 57.181 133.15 57.038 133.15 56.674V47.652H131.967V56.596C131.967 57.597 132.331 58.169 133.215 58.169ZM138.521 58.169C139.483 58.169 140.237 57.844 140.861 57.441L140.432 56.661C139.912 57.012 139.353 57.22 138.664 57.22C137.325 57.22 136.402 56.258 136.324 54.75H141.082C141.108 54.581 141.134 54.334 141.134 54.074C141.134 52.059 140.12 50.759 138.326 50.759C136.688 50.759 135.141 52.189 135.141 54.477C135.141 56.804 136.649 58.169 138.521 58.169ZM136.311 53.892C136.454 52.514 137.338 51.708 138.339 51.708C139.444 51.708 140.094 52.475 140.094 53.892H136.311ZM144.718 58.169C146.382 58.169 147.292 57.22 147.292 56.076C147.292 54.737 146.161 54.321 145.134 53.931C144.341 53.632 143.613 53.385 143.613 52.709C143.613 52.163 144.029 51.695 144.926 51.695C145.55 51.695 146.044 51.955 146.525 52.319L147.097 51.552C146.551 51.123 145.784 50.759 144.913 50.759C143.379 50.759 142.469 51.643 142.469 52.761C142.469 53.957 143.548 54.438 144.536 54.802C145.316 55.101 146.148 55.413 146.148 56.141C146.148 56.752 145.693 57.246 144.757 57.246C143.912 57.246 143.275 56.908 142.664 56.414L142.079 57.194C142.755 57.753 143.717 58.169 144.718 58.169ZM154.084 58.169C154.513 58.169 154.981 58.039 155.384 57.909L155.15 57.025C154.916 57.116 154.591 57.207 154.344 57.207C153.525 57.207 153.252 56.713 153.252 55.842V51.903H155.163V50.941H153.252V48.952H152.264L152.121 50.941L151.016 51.006V51.903H152.069V55.816C152.069 57.22 152.576 58.169 154.084 58.169ZM156.761 58H157.944V50.941H156.761V58ZM157.359 49.485C157.827 49.485 158.152 49.173 158.152 48.692C158.152 48.237 157.827 47.925 157.359 47.925C156.891 47.925 156.566 48.237 156.566 48.692C156.566 49.173 156.891 49.485 157.359 49.485ZM163.188 58.169C164.15 58.169 164.904 57.844 165.528 57.441L165.099 56.661C164.579 57.012 164.02 57.22 163.331 57.22C161.992 57.22 161.069 56.258 160.991 54.75H165.749C165.775 54.581 165.801 54.334 165.801 54.074C165.801 52.059 164.787 50.759 162.993 50.759C161.355 50.759 159.808 52.189 159.808 54.477C159.808 56.804 161.316 58.169 163.188 58.169ZM160.978 53.892C161.121 52.514 162.005 51.708 163.006 51.708C164.111 51.708 164.761 52.475 164.761 53.892H160.978ZM167.539 58H168.722V52.878C169.437 52.163 169.931 51.799 170.659 51.799C171.595 51.799 171.998 52.358 171.998 53.684V58H173.181V53.528C173.181 51.721 172.505 50.759 171.023 50.759C170.061 50.759 169.333 51.292 168.657 51.955H168.618L168.514 50.941H167.539V58ZM178.334 58.169C179.296 58.169 180.05 57.844 180.674 57.441L180.245 56.661C179.725 57.012 179.166 57.22 178.477 57.22C177.138 57.22 176.215 56.258 176.137 54.75H180.895C180.921 54.581 180.947 54.334 180.947 54.074C180.947 52.059 179.933 50.759 178.139 50.759C176.501 50.759 174.954 52.189 174.954 54.477C174.954 56.804 176.462 58.169 178.334 58.169ZM176.124 53.892C176.267 52.514 177.151 51.708 178.152 51.708C179.257 51.708 179.907 52.475 179.907 53.892H176.124ZM182.685 58H183.868V52.878C184.583 52.163 185.077 51.799 185.805 51.799C186.741 51.799 187.144 52.358 187.144 53.684V58H188.327V53.528C188.327 51.721 187.651 50.759 186.169 50.759C185.207 50.759 184.479 51.292 183.803 51.955H183.764L183.66 50.941H182.685V58ZM193.656 61.042C195.06 61.042 195.801 59.976 196.282 58.585L198.947 50.941H197.79L196.529 54.867C196.334 55.491 196.126 56.206 195.931 56.843H195.866C195.645 56.206 195.398 55.478 195.19 54.867L193.747 50.941H192.512L195.346 58.013L195.19 58.546C194.904 59.417 194.397 60.067 193.591 60.067C193.409 60.067 193.201 60.002 193.058 59.95L192.824 60.899C193.045 60.99 193.318 61.042 193.656 61.042ZM201.652 58.169C202.523 58.169 203.316 57.714 203.992 57.155H204.031L204.135 58H205.11V53.658C205.11 51.916 204.382 50.759 202.666 50.759C201.535 50.759 200.534 51.266 199.884 51.682L200.352 52.501C200.911 52.124 201.652 51.747 202.471 51.747C203.628 51.747 203.927 52.618 203.927 53.528C200.924 53.866 199.585 54.633 199.585 56.167C199.585 57.441 200.469 58.169 201.652 58.169ZM201.99 57.22C201.288 57.22 200.742 56.895 200.742 56.089C200.742 55.179 201.548 54.594 203.927 54.308V56.284C203.238 56.895 202.679 57.22 201.99 57.22ZM210.272 58H211.455V52.878C212.105 52.15 212.703 51.799 213.236 51.799C214.133 51.799 214.549 52.358 214.549 53.684V58H215.732V52.878C216.395 52.15 216.967 51.799 217.513 51.799C218.41 51.799 218.826 52.358 218.826 53.684V58H220.009V53.528C220.009 51.721 219.32 50.759 217.864 50.759C217.006 50.759 216.265 51.318 215.537 52.111C215.251 51.279 214.666 50.759 213.587 50.759C212.742 50.759 212.001 51.292 211.39 51.968H211.351L211.247 50.941H210.272V58ZM224.361 58.169C225.336 58.169 226.038 57.662 226.701 56.895H226.74L226.831 58H227.819V50.941H226.636V55.946C225.96 56.791 225.453 57.142 224.725 57.142C223.789 57.142 223.399 56.583 223.399 55.27V50.941H222.216V55.413C222.216 57.207 222.879 58.169 224.361 58.169ZM232.985 58.169C233.83 58.169 234.636 57.844 235.273 57.272L234.753 56.479C234.311 56.882 233.739 57.181 233.089 57.181C231.789 57.181 230.905 56.102 230.905 54.477C230.905 52.852 231.841 51.747 233.128 51.747C233.687 51.747 234.116 52.007 234.532 52.371L235.143 51.591C234.636 51.149 233.999 50.759 233.076 50.759C231.269 50.759 229.67 52.124 229.67 54.477C229.67 56.817 231.113 58.169 232.985 58.169ZM236.818 58H238.001V52.878C238.716 52.163 239.21 51.799 239.938 51.799C240.874 51.799 241.277 52.358 241.277 53.684V58H242.46V53.528C242.46 51.721 241.784 50.759 240.302 50.759C239.34 50.759 238.612 51.292 237.962 51.942L238.001 50.486V47.652H236.818V58ZM247.457 58.169C249.186 58.169 250.733 56.817 250.733 54.477C250.733 52.124 249.186 50.759 247.457 50.759C245.728 50.759 244.181 52.124 244.181 54.477C244.181 56.817 245.728 58.169 247.457 58.169ZM247.457 57.181C246.235 57.181 245.416 56.102 245.416 54.477C245.416 52.852 246.235 51.747 247.457 51.747C248.679 51.747 249.511 52.852 249.511 54.477C249.511 56.102 248.679 57.181 247.457 57.181ZM259.99 60.977H261.16V50.941H260.224L260.107 51.617H260.068C259.457 51.058 258.872 50.759 258.053 50.759C256.441 50.759 254.998 52.189 254.998 54.477C254.998 56.83 256.142 58.169 257.91 58.169C258.729 58.169 259.47 57.74 260.042 57.181L259.99 58.468V60.977ZM258.17 57.181C256.922 57.181 256.22 56.167 256.22 54.464C256.22 52.852 257.117 51.76 258.261 51.76C258.846 51.76 259.379 51.968 259.99 52.501V56.206C259.392 56.856 258.82 57.181 258.17 57.181ZM265.621 58.169C266.596 58.169 267.298 57.662 267.961 56.895H268L268.091 58H269.079V50.941H267.896V55.946C267.22 56.791 266.713 57.142 265.985 57.142C265.049 57.142 264.659 56.583 264.659 55.27V50.941H263.476V55.413C263.476 57.207 264.139 58.169 265.621 58.169ZM274.31 58.169C275.272 58.169 276.026 57.844 276.65 57.441L276.221 56.661C275.701 57.012 275.142 57.22 274.453 57.22C273.114 57.22 272.191 56.258 272.113 54.75H276.871C276.897 54.581 276.923 54.334 276.923 54.074C276.923 52.059 275.909 50.759 274.115 50.759C272.477 50.759 270.93 52.189 270.93 54.477C270.93 56.804 272.438 58.169 274.31 58.169ZM272.1 53.892C272.243 52.514 273.127 51.708 274.128 51.708C275.233 51.708 275.883 52.475 275.883 53.892H272.1ZM15.1003 77H16.2833V71.878C16.9983 71.163 17.4923 70.799 18.2203 70.799C19.1563 70.799 19.5593 71.358 19.5593 72.684V77H20.7423V72.528C20.7423 70.721 20.0663 69.759 18.5843 69.759C17.6223 69.759 16.8943 70.292 16.2443 70.942L16.2833 69.486V66.652H15.1003V77ZM24.6218 77.169C25.4928 77.169 26.2858 76.714 26.9618 76.155H27.0008L27.1048 77H28.0798V72.658C28.0798 70.916 27.3518 69.759 25.6358 69.759C24.5048 69.759 23.5038 70.266 22.8538 70.682L23.3218 71.501C23.8808 71.124 24.6218 70.747 25.4408 70.747C26.5978 70.747 26.8968 71.618 26.8968 72.528C23.8938 72.866 22.5548 73.633 22.5548 75.167C22.5548 76.441 23.4388 77.169 24.6218 77.169ZM24.9598 76.22C24.2578 76.22 23.7118 75.895 23.7118 75.089C23.7118 74.179 24.5178 73.594 26.8968 73.308V75.284C26.2078 75.895 25.6488 76.22 24.9598 76.22ZM33.1167 77.169C33.9617 77.169 34.7677 76.844 35.4047 76.272L34.8847 75.479C34.4427 75.882 33.8707 76.181 33.2207 76.181C31.9207 76.181 31.0367 75.102 31.0367 73.477C31.0367 71.852 31.9727 70.747 33.2597 70.747C33.8187 70.747 34.2477 71.007 34.6637 71.371L35.2747 70.591C34.7677 70.149 34.1307 69.759 33.2077 69.759C31.4007 69.759 29.8017 71.124 29.8017 73.477C29.8017 75.817 31.2447 77.169 33.1167 77.169ZM39.4785 77.169C40.4405 77.169 41.1945 76.844 41.8185 76.441L41.3895 75.661C40.8695 76.012 40.3105 76.22 39.6215 76.22C38.2825 76.22 37.3595 75.258 37.2815 73.75H42.0395C42.0655 73.581 42.0915 73.334 42.0915 73.074C42.0915 71.059 41.0775 69.759 39.2835 69.759C37.6455 69.759 36.0985 71.189 36.0985 73.477C36.0985 75.804 37.6065 77.169 39.4785 77.169ZM37.2685 72.892C37.4115 71.514 38.2955 70.708 39.2965 70.708C40.4015 70.708 41.0515 71.475 41.0515 72.892H37.2685ZM43.8298 77H45.0128V72.463C45.4808 71.254 46.2088 70.838 46.7938 70.838C47.0798 70.838 47.2488 70.864 47.4828 70.955L47.7038 69.915C47.4828 69.798 47.2618 69.759 46.9498 69.759C46.1568 69.759 45.4418 70.331 44.9478 71.228H44.9088L44.8048 69.941H43.8298V77ZM54.6241 77.169C55.5861 77.169 56.3401 76.844 56.9641 76.441L56.5351 75.661C56.0151 76.012 55.4561 76.22 54.7671 76.22C53.4281 76.22 52.5051 75.258 52.4271 73.75H57.1851C57.2111 73.581 57.2371 73.334 57.2371 73.074C57.2371 71.059 56.2231 69.759 54.4291 69.759C52.7911 69.759 51.2441 71.189 51.2441 73.477C51.2441 75.804 52.7521 77.169 54.6241 77.169ZM52.4141 72.892C52.5571 71.514 53.4411 70.708 54.4421 70.708C55.5471 70.708 56.1971 71.475 56.1971 72.892H52.4141ZM58.9753 77H60.1583V71.878C60.8733 71.163 61.3673 70.799 62.0953 70.799C63.0313 70.799 63.4343 71.358 63.4343 72.684V77H64.6173V72.528C64.6173 70.721 63.9413 69.759 62.4593 69.759C61.4973 69.759 60.7693 70.292 60.0933 70.955H60.0543L59.9503 69.941H58.9753V77ZM71.6758 77.169C73.3398 77.169 74.2498 76.22 74.2498 75.076C74.2498 73.737 73.1188 73.321 72.0918 72.931C71.2988 72.632 70.5708 72.385 70.5708 71.709C70.5708 71.163 70.9868 70.695 71.8838 70.695C72.5078 70.695 73.0018 70.955 73.4828 71.319L74.0548 70.552C73.5088 70.123 72.7418 69.759 71.8708 69.759C70.3368 69.759 69.4268 70.643 69.4268 71.761C69.4268 72.957 70.5058 73.438 71.4938 73.802C72.2738 74.101 73.1058 74.413 73.1058 75.141C73.1058 75.752 72.6508 76.246 71.7148 76.246C70.8698 76.246 70.2328 75.908 69.6218 75.414L69.0368 76.194C69.7128 76.753 70.6748 77.169 71.6758 77.169ZM77.9648 77.169C78.9398 77.169 79.6418 76.662 80.3048 75.895H80.3438L80.4348 77H81.4228V69.941H80.2398V74.946C79.5638 75.791 79.0568 76.142 78.3288 76.142C77.3928 76.142 77.0028 75.583 77.0028 74.27V69.941H75.8198V74.413C75.8198 76.207 76.4828 77.169 77.9648 77.169ZM88.9376 77.169C89.3666 77.169 89.8346 77.039 90.2376 76.909L90.0036 76.025C89.7696 76.116 89.4446 76.207 89.1976 76.207C88.3786 76.207 88.1056 75.713 88.1056 74.842V70.903H90.0166V69.941H88.1056V67.952H87.1176L86.9746 69.941L85.8696 70.006V70.903H86.9226V74.816C86.9226 76.22 87.4296 77.169 88.9376 77.169ZM91.6149 77H92.7979V72.463C93.2659 71.254 93.9939 70.838 94.5789 70.838C94.8649 70.838 95.0339 70.864 95.2679 70.955L95.4889 69.915C95.2679 69.798 95.0469 69.759 94.7349 69.759C93.9419 69.759 93.2269 70.331 92.7329 71.228H92.6939L92.5899 69.941H91.6149V77ZM97.9245 77.169C98.7955 77.169 99.5885 76.714 100.265 76.155H100.304L100.408 77H101.383V72.658C101.383 70.916 100.655 69.759 98.9385 69.759C97.8075 69.759 96.8065 70.266 96.1565 70.682L96.6245 71.501C97.1835 71.124 97.9245 70.747 98.7435 70.747C99.9005 70.747 100.2 71.618 100.2 72.528C97.1965 72.866 95.8575 73.633 95.8575 75.167C95.8575 76.441 96.7415 77.169 97.9245 77.169ZM98.2625 76.22C97.5605 76.22 97.0145 75.895 97.0145 75.089C97.0145 74.179 97.8205 73.594 100.2 73.308V75.284C99.5105 75.895 98.9515 76.22 98.2625 76.22ZM106.744 77.169C108.369 77.169 109.812 75.778 109.812 73.347C109.812 71.189 108.824 69.759 106.991 69.759C106.211 69.759 105.418 70.201 104.781 70.76L104.82 69.486V66.652H103.637V77H104.586L104.69 76.272H104.742C105.353 76.831 106.094 77.169 106.744 77.169ZM106.549 76.181C106.081 76.181 105.444 75.986 104.82 75.44V71.735C105.496 71.098 106.12 70.76 106.718 70.76C108.057 70.76 108.577 71.813 108.577 73.373C108.577 75.128 107.719 76.181 106.549 76.181ZM113.095 77.169C113.966 77.169 114.759 76.714 115.435 76.155H115.474L115.578 77H116.553V72.658C116.553 70.916 115.825 69.759 114.109 69.759C112.978 69.759 111.977 70.266 111.327 70.682L111.795 71.501C112.354 71.124 113.095 70.747 113.914 70.747C115.071 70.747 115.37 71.618 115.37 72.528C112.367 72.866 111.028 73.633 111.028 75.167C111.028 76.441 111.912 77.169 113.095 77.169ZM113.433 76.22C112.731 76.22 112.185 75.895 112.185 75.089C112.185 74.179 112.991 73.594 115.37 73.308V75.284C114.681 75.895 114.122 76.22 113.433 76.22ZM118.08 80.159C119.471 80.159 120.004 79.249 120.004 77.806V69.941H118.821V77.806C118.821 78.664 118.652 79.197 117.95 79.197C117.69 79.197 117.456 79.132 117.274 79.067L117.04 79.977C117.287 80.068 117.651 80.159 118.08 80.159ZM119.406 68.485C119.861 68.485 120.186 68.173 120.186 67.692C120.186 67.237 119.861 66.925 119.406 66.925C118.938 66.925 118.613 67.237 118.613 67.692C118.613 68.173 118.938 68.485 119.406 68.485ZM125.144 77.169C126.873 77.169 128.42 75.817 128.42 73.477C128.42 71.124 126.873 69.759 125.144 69.759C123.415 69.759 121.868 71.124 121.868 73.477C121.868 75.817 123.415 77.169 125.144 77.169ZM125.144 76.181C123.922 76.181 123.103 75.102 123.103 73.477C123.103 71.852 123.922 70.747 125.144 70.747C126.366 70.747 127.198 71.852 127.198 73.477C127.198 75.102 126.366 76.181 125.144 76.181ZM129.924 79.47C131.094 78.976 131.822 78.001 131.822 76.753C131.822 75.882 131.445 75.349 130.821 75.349C130.34 75.349 129.924 75.674 129.924 76.181C129.924 76.727 130.34 77.013 130.795 77.013C130.847 77.013 130.886 77.013 130.938 77C130.938 77.767 130.457 78.404 129.638 78.768L129.924 79.47ZM139.518 77.169C140.48 77.169 141.234 76.844 141.858 76.441L141.429 75.661C140.909 76.012 140.35 76.22 139.661 76.22C138.322 76.22 137.399 75.258 137.321 73.75H142.079C142.105 73.581 142.131 73.334 142.131 73.074C142.131 71.059 141.117 69.759 139.323 69.759C137.685 69.759 136.138 71.189 136.138 73.477C136.138 75.804 137.646 77.169 139.518 77.169ZM137.308 72.892C137.451 71.514 138.335 70.708 139.336 70.708C140.441 70.708 141.091 71.475 141.091 72.892H137.308ZM145.117 77.169C145.442 77.169 145.637 77.13 145.806 77.065L145.637 76.155C145.507 76.181 145.455 76.181 145.39 76.181C145.208 76.181 145.052 76.038 145.052 75.674V66.652H143.869V75.596C143.869 76.597 144.233 77.169 145.117 77.169ZM148.824 77.169C149.149 77.169 149.344 77.13 149.513 77.065L149.344 76.155C149.214 76.181 149.162 76.181 149.097 76.181C148.915 76.181 148.759 76.038 148.759 75.674V66.652H147.576V75.596C147.576 76.597 147.94 77.169 148.824 77.169ZM154.026 77.169C155.755 77.169 157.302 75.817 157.302 73.477C157.302 71.124 155.755 69.759 154.026 69.759C152.297 69.759 150.75 71.124 150.75 73.477C150.75 75.817 152.297 77.169 154.026 77.169ZM154.026 76.181C152.804 76.181 151.985 75.102 151.985 73.477C151.985 71.852 152.804 70.747 154.026 70.747C155.248 70.747 156.08 71.852 156.08 73.477C156.08 75.102 155.248 76.181 154.026 76.181ZM161.013 77.169C162.677 77.169 163.587 76.22 163.587 75.076C163.587 73.737 162.456 73.321 161.429 72.931C160.636 72.632 159.908 72.385 159.908 71.709C159.908 71.163 160.324 70.695 161.221 70.695C161.845 70.695 162.339 70.955 162.82 71.319L163.392 70.552C162.846 70.123 162.079 69.759 161.208 69.759C159.674 69.759 158.764 70.643 158.764 71.761C158.764 72.957 159.843 73.438 160.831 73.802C161.611 74.101 162.443 74.413 162.443 75.141C162.443 75.752 161.988 76.246 161.052 76.246C160.207 76.246 159.57 75.908 158.959 75.414L158.374 76.194C159.05 76.753 160.012 77.169 161.013 77.169ZM168.155 77H169.338V72.463C169.806 71.254 170.534 70.838 171.119 70.838C171.405 70.838 171.574 70.864 171.808 70.955L172.029 69.915C171.808 69.798 171.587 69.759 171.275 69.759C170.482 69.759 169.767 70.331 169.273 71.228H169.234L169.13 69.941H168.155V77ZM175.902 77.169C176.864 77.169 177.618 76.844 178.242 76.441L177.813 75.661C177.293 76.012 176.734 76.22 176.045 76.22C174.706 76.22 173.783 75.258 173.705 73.75H178.463C178.489 73.581 178.515 73.334 178.515 73.074C178.515 71.059 177.501 69.759 175.707 69.759C174.069 69.759 172.522 71.189 172.522 73.477C172.522 75.804 174.03 77.169 175.902 77.169ZM173.692 72.892C173.835 71.514 174.719 70.708 175.72 70.708C176.825 70.708 177.475 71.475 177.475 72.892H173.692ZM184.739 79.977H185.909V69.941H184.973L184.856 70.617H184.817C184.206 70.058 183.621 69.759 182.802 69.759C181.19 69.759 179.747 71.189 179.747 73.477C179.747 75.83 180.891 77.169 182.659 77.169C183.478 77.169 184.219 76.74 184.791 76.181L184.739 77.468V79.977ZM182.919 76.181C181.671 76.181 180.969 75.167 180.969 73.464C180.969 71.852 181.866 70.76 183.01 70.76C183.595 70.76 184.128 70.968 184.739 71.501V75.206C184.141 75.856 183.569 76.181 182.919 76.181ZM190.369 77.169C191.344 77.169 192.046 76.662 192.709 75.895H192.748L192.839 77H193.827V69.941H192.644V74.946C191.968 75.791 191.461 76.142 190.733 76.142C189.797 76.142 189.407 75.583 189.407 74.27V69.941H188.224V74.413C188.224 76.207 188.887 77.169 190.369 77.169ZM196.212 77H197.395V69.941H196.212V77ZM196.81 68.485C197.278 68.485 197.603 68.173 197.603 67.692C197.603 67.237 197.278 66.925 196.81 66.925C196.342 66.925 196.017 67.237 196.017 67.692C196.017 68.173 196.342 68.485 196.81 68.485ZM202.639 77.169C203.601 77.169 204.355 76.844 204.979 76.441L204.55 75.661C204.03 76.012 203.471 76.22 202.782 76.22C201.443 76.22 200.52 75.258 200.442 73.75H205.2C205.226 73.581 205.252 73.334 205.252 73.074C205.252 71.059 204.238 69.759 202.444 69.759C200.806 69.759 199.259 71.189 199.259 73.477C199.259 75.804 200.767 77.169 202.639 77.169ZM200.429 72.892C200.572 71.514 201.456 70.708 202.457 70.708C203.562 70.708 204.212 71.475 204.212 72.892H200.429ZM206.99 77H208.173V72.463C208.641 71.254 209.369 70.838 209.954 70.838C210.24 70.838 210.409 70.864 210.643 70.955L210.864 69.915C210.643 69.798 210.422 69.759 210.11 69.759C209.317 69.759 208.602 70.331 208.108 71.228H208.069L207.965 69.941H206.99V77ZM214.737 77.169C215.699 77.169 216.453 76.844 217.077 76.441L216.648 75.661C216.128 76.012 215.569 76.22 214.88 76.22C213.541 76.22 212.618 75.258 212.54 73.75H217.298C217.324 73.581 217.35 73.334 217.35 73.074C217.35 71.059 216.336 69.759 214.542 69.759C212.904 69.759 211.357 71.189 211.357 73.477C211.357 75.804 212.865 77.169 214.737 77.169ZM212.527 72.892C212.67 71.514 213.554 70.708 214.555 70.708C215.66 70.708 216.31 71.475 216.31 72.892H212.527ZM219.089 77H220.272V71.878C220.987 71.163 221.481 70.799 222.209 70.799C223.145 70.799 223.548 71.358 223.548 72.684V77H224.731V72.528C224.731 70.721 224.055 69.759 222.573 69.759C221.611 69.759 220.883 70.292 220.207 70.955H220.168L220.064 69.941H219.089V77ZM232.348 77.169C233.193 77.169 233.934 76.714 234.493 76.168H234.532L234.636 77H235.598V66.652H234.428V69.369L234.48 70.591C233.856 70.071 233.323 69.759 232.491 69.759C230.879 69.759 229.436 71.189 229.436 73.477C229.436 75.83 230.58 77.169 232.348 77.169ZM232.608 76.181C231.36 76.181 230.658 75.167 230.658 73.464C230.658 71.852 231.555 70.76 232.699 70.76C233.284 70.76 233.817 70.968 234.428 71.501V75.206C233.83 75.856 233.258 76.181 232.608 76.181ZM240.852 77.169C241.814 77.169 242.568 76.844 243.192 76.441L242.763 75.661C242.243 76.012 241.684 76.22 240.995 76.22C239.656 76.22 238.733 75.258 238.655 73.75H243.413C243.439 73.581 243.465 73.334 243.465 73.074C243.465 71.059 242.451 69.759 240.657 69.759C239.019 69.759 237.472 71.189 237.472 73.477C237.472 75.804 238.98 77.169 240.852 77.169ZM238.642 72.892C238.785 71.514 239.669 70.708 240.67 70.708C241.775 70.708 242.425 71.475 242.425 72.892H238.642ZM250.164 77.169C251.139 77.169 251.841 76.662 252.504 75.895H252.543L252.634 77H253.622V69.941H252.439V74.946C251.763 75.791 251.256 76.142 250.528 76.142C249.592 76.142 249.202 75.583 249.202 74.27V69.941H248.019V74.413C248.019 76.207 248.682 77.169 250.164 77.169ZM256.007 77H257.19V71.878C257.905 71.163 258.399 70.799 259.127 70.799C260.063 70.799 260.466 71.358 260.466 72.684V77H261.649V72.528C261.649 70.721 260.973 69.759 259.491 69.759C258.529 69.759 257.801 70.292 257.125 70.955H257.086L256.982 69.941H256.007V77ZM265.579 77.169C266.45 77.169 267.243 76.714 267.919 76.155H267.958L268.062 77H269.037V72.658C269.037 70.916 268.309 69.759 266.593 69.759C265.462 69.759 264.461 70.266 263.811 70.682L264.279 71.501C264.838 71.124 265.579 70.747 266.398 70.747C267.555 70.747 267.854 71.618 267.854 72.528C264.851 72.866 263.512 73.633 263.512 75.167C263.512 76.441 264.396 77.169 265.579 77.169ZM265.917 76.22C265.215 76.22 264.669 75.895 264.669 75.089C264.669 74.179 265.475 73.594 267.854 73.308V75.284C267.165 75.895 266.606 76.22 265.917 76.22ZM22.8 96H23.983V90.878C24.698 90.163 25.192 89.799 25.92 89.799C26.856 89.799 27.259 90.358 27.259 91.684V96H28.442V91.528C28.442 89.721 27.766 88.759 26.284 88.759C25.322 88.759 24.594 89.292 23.944 89.942L23.983 88.486V85.652H22.8V96ZM33.5435 96.169C34.5055 96.169 35.2595 95.844 35.8835 95.441L35.4545 94.661C34.9345 95.012 34.3755 95.22 33.6865 95.22C32.3475 95.22 31.4245 94.258 31.3465 92.75H36.1045C36.1305 92.581 36.1565 92.334 36.1565 92.074C36.1565 90.059 35.1425 88.759 33.3485 88.759C31.7105 88.759 30.1635 90.189 30.1635 92.477C30.1635 94.804 31.6715 96.169 33.5435 96.169ZM31.3335 91.892C31.4765 90.514 32.3605 89.708 33.3615 89.708C34.4665 89.708 35.1165 90.475 35.1165 91.892H31.3335ZM37.8947 96H39.0777V91.463C39.5457 90.254 40.2737 89.838 40.8587 89.838C41.1447 89.838 41.3137 89.864 41.5477 89.955L41.7687 88.915C41.5477 88.798 41.3267 88.759 41.0147 88.759C40.2217 88.759 39.5067 89.331 39.0127 90.228H38.9737L38.8697 88.941H37.8947V96ZM42.9348 96H44.1178V91.463C44.5858 90.254 45.3138 89.838 45.8988 89.838C46.1848 89.838 46.3538 89.864 46.5878 89.955L46.8088 88.915C46.5878 88.798 46.3668 88.759 46.0548 88.759C45.2618 88.759 44.5468 89.331 44.0528 90.228H44.0138L43.9098 88.941H42.9348V96ZM49.2443 96.169C50.1153 96.169 50.9083 95.714 51.5843 95.155H51.6233L51.7273 96H52.7023V91.658C52.7023 89.916 51.9743 88.759 50.2583 88.759C49.1273 88.759 48.1263 89.266 47.4763 89.682L47.9443 90.501C48.5033 90.124 49.2443 89.747 50.0633 89.747C51.2203 89.747 51.5193 90.618 51.5193 91.528C48.5163 91.866 47.1773 92.633 47.1773 94.167C47.1773 95.441 48.0613 96.169 49.2443 96.169ZM49.5823 95.22C48.8803 95.22 48.3343 94.895 48.3343 94.089C48.3343 93.179 49.1403 92.594 51.5193 92.308V94.284C50.8303 94.895 50.2713 95.22 49.5823 95.22ZM54.9572 96H56.1402V90.878C56.7902 90.15 57.3882 89.799 57.9212 89.799C58.8182 89.799 59.2342 90.358 59.2342 91.684V96H60.4172V90.878C61.0802 90.15 61.6522 89.799 62.1982 89.799C63.0952 89.799 63.5112 90.358 63.5112 91.684V96H64.6942V91.528C64.6942 89.721 64.0052 88.759 62.5492 88.759C61.6912 88.759 60.9502 89.318 60.2222 90.111C59.9362 89.279 59.3512 88.759 58.2722 88.759C57.4272 88.759 56.6862 89.292 56.0752 89.968H56.0362L55.9322 88.941H54.9572V96ZM66.9924 96H68.1754V88.941H66.9924V96ZM67.5904 87.485C68.0584 87.485 68.3834 87.173 68.3834 86.692C68.3834 86.237 68.0584 85.925 67.5904 85.925C67.1224 85.925 66.7974 86.237 66.7974 86.692C66.7974 87.173 67.1224 87.485 67.5904 87.485ZM73.4195 96.169C74.3815 96.169 75.1355 95.844 75.7595 95.441L75.3305 94.661C74.8105 95.012 74.2515 95.22 73.5625 95.22C72.2235 95.22 71.3005 94.258 71.2225 92.75H75.9805C76.0065 92.581 76.0325 92.334 76.0325 92.074C76.0325 90.059 75.0185 88.759 73.2245 88.759C71.5865 88.759 70.0395 90.189 70.0395 92.477C70.0395 94.804 71.5475 96.169 73.4195 96.169ZM71.2095 91.892C71.3525 90.514 72.2365 89.708 73.2375 89.708C74.3425 89.708 74.9925 90.475 74.9925 91.892H71.2095ZM77.7707 96H78.9537V90.878C79.6687 90.163 80.1627 89.799 80.8907 89.799C81.8267 89.799 82.2297 90.358 82.2297 91.684V96H83.4127V91.528C83.4127 89.721 82.7367 88.759 81.2547 88.759C80.2927 88.759 79.5647 89.292 78.8887 89.955H78.8497L78.7457 88.941H77.7707V96ZM87.941 96.169C88.37 96.169 88.838 96.039 89.241 95.909L89.007 95.025C88.773 95.116 88.448 95.207 88.201 95.207C87.382 95.207 87.109 94.713 87.109 93.842V89.903H89.02V88.941H87.109V86.952H86.121L85.978 88.941L84.873 89.006V89.903H85.926V93.816C85.926 95.22 86.433 96.169 87.941 96.169ZM91.926 96.169C92.797 96.169 93.59 95.714 94.266 95.155H94.305L94.409 96H95.384V91.658C95.384 89.916 94.656 88.759 92.94 88.759C91.809 88.759 90.808 89.266 90.158 89.682L90.626 90.501C91.185 90.124 91.926 89.747 92.745 89.747C93.902 89.747 94.201 90.618 94.201 91.528C91.198 91.866 89.859 92.633 89.859 94.167C89.859 95.441 90.743 96.169 91.926 96.169ZM92.264 95.22C91.562 95.22 91.016 94.895 91.016 94.089C91.016 93.179 91.822 92.594 94.201 92.308V94.284C93.512 94.895 92.953 95.22 92.264 95.22ZM102.457 98.561L103.198 98.21C102.067 96.364 101.534 94.167 101.534 91.957C101.534 89.747 102.067 87.563 103.198 85.704L102.457 85.366C101.261 87.303 100.546 89.409 100.546 91.957C100.546 94.518 101.261 96.611 102.457 98.561ZM106.564 96.169C107.435 96.169 108.228 95.714 108.904 95.155H108.943L109.047 96H110.022V91.658C110.022 89.916 109.294 88.759 107.578 88.759C106.447 88.759 105.446 89.266 104.796 89.682L105.264 90.501C105.823 90.124 106.564 89.747 107.383 89.747C108.54 89.747 108.839 90.618 108.839 91.528C105.836 91.866 104.497 92.633 104.497 94.167C104.497 95.441 105.381 96.169 106.564 96.169ZM106.902 95.22C106.2 95.22 105.654 94.895 105.654 94.089C105.654 93.179 106.46 92.594 108.839 92.308V94.284C108.15 94.895 107.591 95.22 106.902 95.22ZM112.277 98.977H113.46V96.585L113.434 95.35C114.071 95.87 114.747 96.169 115.384 96.169C117.009 96.169 118.452 94.778 118.452 92.36C118.452 90.189 117.464 88.759 115.644 88.759C114.825 88.759 114.032 89.227 113.395 89.747H113.356L113.252 88.941H112.277V98.977ZM115.189 95.181C114.721 95.181 114.097 94.986 113.46 94.44V90.735C114.149 90.098 114.76 89.76 115.358 89.76C116.697 89.76 117.217 90.813 117.217 92.373C117.217 94.128 116.359 95.181 115.189 95.181ZM120.338 98.977H121.521V96.585L121.495 95.35C122.132 95.87 122.808 96.169 123.445 96.169C125.07 96.169 126.513 94.778 126.513 92.36C126.513 90.189 125.525 88.759 123.705 88.759C122.886 88.759 122.093 89.227 121.456 89.747H121.417L121.313 88.941H120.338V98.977ZM123.25 95.181C122.782 95.181 122.158 94.986 121.521 94.44V90.735C122.21 90.098 122.821 89.76 123.419 89.76C124.758 89.76 125.278 90.813 125.278 92.373C125.278 94.128 124.42 95.181 123.25 95.181ZM127.89 92.815H131.218V91.905H127.89V92.815ZM134.837 96.169C135.266 96.169 135.734 96.039 136.137 95.909L135.903 95.025C135.669 95.116 135.344 95.207 135.097 95.207C134.278 95.207 134.005 94.713 134.005 93.842V89.903H135.916V88.941H134.005V86.952H133.017L132.874 88.941L131.769 89.006V89.903H132.822V93.816C132.822 95.22 133.329 96.169 134.837 96.169ZM138.822 96.169C139.693 96.169 140.486 95.714 141.162 95.155H141.201L141.305 96H142.28V91.658C142.28 89.916 141.552 88.759 139.836 88.759C138.705 88.759 137.704 89.266 137.054 89.682L137.522 90.501C138.081 90.124 138.822 89.747 139.641 89.747C140.798 89.747 141.097 90.618 141.097 91.528C138.094 91.866 136.755 92.633 136.755 94.167C136.755 95.441 137.639 96.169 138.822 96.169ZM139.16 95.22C138.458 95.22 137.912 94.895 137.912 94.089C137.912 93.179 138.718 92.594 141.097 92.308V94.284C140.408 94.895 139.849 95.22 139.16 95.22ZM147.642 96.169C149.267 96.169 150.71 94.778 150.71 92.347C150.71 90.189 149.722 88.759 147.889 88.759C147.109 88.759 146.316 89.201 145.679 89.76L145.718 88.486V85.652H144.535V96H145.484L145.588 95.272H145.64C146.251 95.831 146.992 96.169 147.642 96.169ZM147.447 95.181C146.979 95.181 146.342 94.986 145.718 94.44V90.735C146.394 90.098 147.018 89.76 147.616 89.76C148.955 89.76 149.475 90.813 149.475 92.373C149.475 94.128 148.617 95.181 147.447 95.181ZM153.819 96.169C154.144 96.169 154.339 96.13 154.508 96.065L154.339 95.155C154.209 95.181 154.157 95.181 154.092 95.181C153.91 95.181 153.754 95.038 153.754 94.674V85.652H152.571V94.596C152.571 95.597 152.935 96.169 153.819 96.169ZM159.126 96.169C160.088 96.169 160.842 95.844 161.466 95.441L161.037 94.661C160.517 95.012 159.958 95.22 159.269 95.22C157.93 95.22 157.007 94.258 156.929 92.75H161.687C161.713 92.581 161.739 92.334 161.739 92.074C161.739 90.059 160.725 88.759 158.931 88.759C157.293 88.759 155.746 90.189 155.746 92.477C155.746 94.804 157.254 96.169 159.126 96.169ZM156.916 91.892C157.059 90.514 157.943 89.708 158.944 89.708C160.049 89.708 160.699 90.475 160.699 91.892H156.916ZM165.56 96.169C165.989 96.169 166.457 96.039 166.86 95.909L166.626 95.025C166.392 95.116 166.067 95.207 165.82 95.207C165.001 95.207 164.728 94.713 164.728 93.842V89.903H166.639V88.941H164.728V86.952H163.74L163.597 88.941L162.492 89.006V89.903H163.545V93.816C163.545 95.22 164.052 96.169 165.56 96.169ZM168.329 98.561C169.538 96.611 170.253 94.518 170.253 91.957C170.253 89.409 169.538 87.303 168.329 85.366L167.601 85.704C168.719 87.563 169.265 89.747 169.265 91.957C169.265 94.167 168.719 96.364 167.601 98.21L168.329 98.561ZM180.022 98.977H181.192V88.941H180.256L180.139 89.617H180.1C179.489 89.058 178.904 88.759 178.085 88.759C176.473 88.759 175.03 90.189 175.03 92.477C175.03 94.83 176.174 96.169 177.942 96.169C178.761 96.169 179.502 95.74 180.074 95.181L180.022 96.468V98.977ZM178.202 95.181C176.954 95.181 176.252 94.167 176.252 92.464C176.252 90.852 177.149 89.76 178.293 89.76C178.878 89.76 179.411 89.968 180.022 90.501V94.206C179.424 94.856 178.852 95.181 178.202 95.181ZM185.653 96.169C186.628 96.169 187.33 95.662 187.993 94.895H188.032L188.123 96H189.111V88.941H187.928V93.946C187.252 94.791 186.745 95.142 186.017 95.142C185.081 95.142 184.691 94.583 184.691 93.27V88.941H183.508V93.413C183.508 95.207 184.171 96.169 185.653 96.169ZM194.342 96.169C195.304 96.169 196.058 95.844 196.682 95.441L196.253 94.661C195.733 95.012 195.174 95.22 194.485 95.22C193.146 95.22 192.223 94.258 192.145 92.75H196.903C196.929 92.581 196.955 92.334 196.955 92.074C196.955 90.059 195.941 88.759 194.147 88.759C192.509 88.759 190.962 90.189 190.962 92.477C190.962 94.804 192.47 96.169 194.342 96.169ZM192.132 91.892C192.275 90.514 193.159 89.708 194.16 89.708C195.265 89.708 195.915 90.475 195.915 91.892H192.132ZM203.226 96.169C204.097 96.169 204.89 95.714 205.566 95.155H205.605L205.709 96H206.684V91.658C206.684 89.916 205.956 88.759 204.24 88.759C203.109 88.759 202.108 89.266 201.458 89.682L201.926 90.501C202.485 90.124 203.226 89.747 204.045 89.747C205.202 89.747 205.501 90.618 205.501 91.528C202.498 91.866 201.159 92.633 201.159 94.167C201.159 95.441 202.043 96.169 203.226 96.169ZM203.564 95.22C202.862 95.22 202.316 94.895 202.316 94.089C202.316 93.179 203.122 92.594 205.501 92.308V94.284C204.812 94.895 204.253 95.22 203.564 95.22ZM211.318 99.25C213.502 99.25 214.893 98.119 214.893 96.806C214.893 95.649 214.061 95.129 212.423 95.129H211.045C210.096 95.129 209.81 94.817 209.81 94.362C209.81 93.972 210.005 93.738 210.265 93.517C210.577 93.673 210.967 93.764 211.318 93.764C212.748 93.764 213.892 92.815 213.892 91.307C213.892 90.696 213.658 90.176 213.32 89.851H214.763V88.941H212.306C212.059 88.85 211.708 88.759 211.318 88.759C209.888 88.759 208.666 89.734 208.666 91.281C208.666 92.126 209.121 92.802 209.589 93.179V93.231C209.225 93.491 208.796 93.959 208.796 94.544C208.796 95.103 209.069 95.48 209.446 95.701V95.753C208.783 96.182 208.406 96.754 208.406 97.352C208.406 98.574 209.589 99.25 211.318 99.25ZM211.318 92.958C210.499 92.958 209.81 92.308 209.81 91.281C209.81 90.241 210.486 89.63 211.318 89.63C212.15 89.63 212.826 90.254 212.826 91.281C212.826 92.308 212.124 92.958 211.318 92.958ZM211.487 98.444C210.213 98.444 209.446 97.95 209.446 97.196C209.446 96.78 209.654 96.364 210.161 96C210.473 96.078 210.811 96.117 211.071 96.117H212.293C213.229 96.117 213.736 96.338 213.736 96.988C213.736 97.729 212.839 98.444 211.487 98.444ZM216.264 96H217.447V88.941H216.264V96ZM216.862 87.485C217.33 87.485 217.655 87.173 217.655 86.692C217.655 86.237 217.33 85.925 216.862 85.925C216.394 85.925 216.069 86.237 216.069 86.692C216.069 87.173 216.394 87.485 216.862 87.485ZM221.092 96.169C221.417 96.169 221.612 96.13 221.781 96.065L221.612 95.155C221.482 95.181 221.43 95.181 221.365 95.181C221.183 95.181 221.027 95.038 221.027 94.674V85.652H219.844V94.596C219.844 95.597 220.208 96.169 221.092 96.169ZM223.551 96H224.734V88.941H223.551V96ZM224.149 87.485C224.617 87.485 224.942 87.173 224.942 86.692C224.942 86.237 224.617 85.925 224.149 85.925C223.681 85.925 223.356 86.237 223.356 86.692C223.356 87.173 223.681 87.485 224.149 87.485ZM229.913 96.169C230.758 96.169 231.564 95.844 232.201 95.272L231.681 94.479C231.239 94.882 230.667 95.181 230.017 95.181C228.717 95.181 227.833 94.102 227.833 92.477C227.833 90.852 228.769 89.747 230.056 89.747C230.615 89.747 231.044 90.007 231.46 90.371L232.071 89.591C231.564 89.149 230.927 88.759 230.004 88.759C228.197 88.759 226.598 90.124 226.598 92.477C226.598 94.817 228.041 96.169 229.913 96.169ZM236.275 96.169C237.237 96.169 237.991 95.844 238.615 95.441L238.186 94.661C237.666 95.012 237.107 95.22 236.418 95.22C235.079 95.22 234.156 94.258 234.078 92.75H238.836C238.862 92.581 238.888 92.334 238.888 92.074C238.888 90.059 237.874 88.759 236.08 88.759C234.442 88.759 232.895 90.189 232.895 92.477C232.895 94.804 234.403 96.169 236.275 96.169ZM234.065 91.892C234.208 90.514 235.092 89.708 236.093 89.708C237.198 89.708 237.848 90.475 237.848 91.892H234.065ZM245.379 96.169C247.043 96.169 247.953 95.22 247.953 94.076C247.953 92.737 246.822 92.321 245.795 91.931C245.002 91.632 244.274 91.385 244.274 90.709C244.274 90.163 244.69 89.695 245.587 89.695C246.211 89.695 246.705 89.955 247.186 90.319L247.758 89.552C247.212 89.123 246.445 88.759 245.574 88.759C244.04 88.759 243.13 89.643 243.13 90.761C243.13 91.957 244.209 92.438 245.197 92.802C245.977 93.101 246.809 93.413 246.809 94.141C246.809 94.752 246.354 95.246 245.418 95.246C244.573 95.246 243.936 94.908 243.325 94.414L242.74 95.194C243.416 95.753 244.378 96.169 245.379 96.169ZM251.668 96.169C252.643 96.169 253.345 95.662 254.008 94.895H254.047L254.138 96H255.126V88.941H253.943V93.946C253.267 94.791 252.76 95.142 252.032 95.142C251.096 95.142 250.706 94.583 250.706 93.27V88.941H249.523V93.413C249.523 95.207 250.186 96.169 251.668 96.169ZM259.357 96.169C261.021 96.169 261.931 95.22 261.931 94.076C261.931 92.737 260.8 92.321 259.773 91.931C258.98 91.632 258.252 91.385 258.252 90.709C258.252 90.163 258.668 89.695 259.565 89.695C260.189 89.695 260.683 89.955 261.164 90.319L261.736 89.552C261.19 89.123 260.423 88.759 259.552 88.759C258.018 88.759 257.108 89.643 257.108 90.761C257.108 91.957 258.187 92.438 259.175 92.802C259.955 93.101 260.787 93.413 260.787 94.141C260.787 94.752 260.332 95.246 259.396 95.246C258.551 95.246 257.914 94.908 257.303 94.414L256.718 95.194C257.394 95.753 258.356 96.169 259.357 96.169ZM11.7462 115.169C12.0712 115.169 12.2662 115.13 12.4352 115.065L12.2662 114.155C12.1362 114.181 12.0842 114.181 12.0192 114.181C11.8372 114.181 11.6812 114.038 11.6812 113.674V104.652H10.4982V113.596C10.4982 114.597 10.8622 115.169 11.7462 115.169ZM15.8303 115.169C16.7013 115.169 17.4943 114.714 18.1703 114.155H18.2093L18.3133 115H19.2883V110.658C19.2883 108.916 18.5603 107.759 16.8443 107.759C15.7133 107.759 14.7123 108.266 14.0623 108.682L14.5303 109.501C15.0893 109.124 15.8303 108.747 16.6493 108.747C17.8063 108.747 18.1053 109.618 18.1053 110.528C15.1023 110.866 13.7633 111.633 13.7633 113.167C13.7633 114.441 14.6473 115.169 15.8303 115.169ZM16.1683 114.22C15.4663 114.22 14.9203 113.895 14.9203 113.089C14.9203 112.179 15.7263 111.594 18.1053 111.308V113.284C17.4163 113.895 16.8573 114.22 16.1683 114.22ZM24.6502 115.169C26.2752 115.169 27.7182 113.778 27.7182 111.347C27.7182 109.189 26.7302 107.759 24.8972 107.759C24.1172 107.759 23.3242 108.201 22.6872 108.76L22.7262 107.486V104.652H21.5432V115H22.4922L22.5962 114.272H22.6482C23.2592 114.831 24.0002 115.169 24.6502 115.169ZM24.4552 114.181C23.9872 114.181 23.3502 113.986 22.7262 113.44V109.735C23.4022 109.098 24.0262 108.76 24.6242 108.76C25.9632 108.76 26.4832 109.813 26.4832 111.373C26.4832 113.128 25.6252 114.181 24.4552 114.181ZM32.3223 115.169C34.0513 115.169 35.5983 113.817 35.5983 111.477C35.5983 109.124 34.0513 107.759 32.3223 107.759C30.5933 107.759 29.0463 109.124 29.0463 111.477C29.0463 113.817 30.5933 115.169 32.3223 115.169ZM32.3223 114.181C31.1003 114.181 30.2813 113.102 30.2813 111.477C30.2813 109.852 31.1003 108.747 32.3223 108.747C33.5443 108.747 34.3763 109.852 34.3763 111.477C34.3763 113.102 33.5443 114.181 32.3223 114.181ZM37.4631 115H38.6461V110.463C39.1141 109.254 39.8421 108.838 40.4271 108.838C40.7131 108.838 40.8821 108.864 41.1161 108.955L41.3371 107.915C41.1161 107.798 40.8951 107.759 40.5831 107.759C39.7901 107.759 39.0751 108.331 38.5811 109.228H38.5421L38.4381 107.941H37.4631V115ZM45.2105 115.169C46.1725 115.169 46.9265 114.844 47.5505 114.441L47.1215 113.661C46.6015 114.012 46.0425 114.22 45.3535 114.22C44.0145 114.22 43.0915 113.258 43.0135 111.75H47.7715C47.7975 111.581 47.8235 111.334 47.8235 111.074C47.8235 109.059 46.8095 107.759 45.0155 107.759C43.3775 107.759 41.8305 109.189 41.8305 111.477C41.8305 113.804 43.3385 115.169 45.2105 115.169ZM43.0005 110.892C43.1435 109.514 44.0275 108.708 45.0285 108.708C46.1335 108.708 46.7835 109.475 46.7835 110.892H43.0005ZM51.4077 115.169C53.0717 115.169 53.9817 114.22 53.9817 113.076C53.9817 111.737 52.8507 111.321 51.8237 110.931C51.0307 110.632 50.3027 110.385 50.3027 109.709C50.3027 109.163 50.7187 108.695 51.6157 108.695C52.2397 108.695 52.7337 108.955 53.2147 109.319L53.7867 108.552C53.2407 108.123 52.4737 107.759 51.6027 107.759C50.0687 107.759 49.1587 108.643 49.1587 109.761C49.1587 110.957 50.2377 111.438 51.2257 111.802C52.0057 112.101 52.8377 112.413 52.8377 113.141C52.8377 113.752 52.3827 114.246 51.4467 114.246C50.6017 114.246 49.9647 113.908 49.3537 113.414L48.7687 114.194C49.4447 114.753 50.4067 115.169 51.4077 115.169ZM60.955 115.169C61.8 115.169 62.541 114.714 63.1 114.168H63.139L63.243 115H64.205V104.652H63.035V107.369L63.087 108.591C62.463 108.071 61.93 107.759 61.098 107.759C59.486 107.759 58.043 109.189 58.043 111.477C58.043 113.83 59.187 115.169 60.955 115.169ZM61.215 114.181C59.967 114.181 59.265 113.167 59.265 111.464C59.265 109.852 60.162 108.76 61.306 108.76C61.891 108.76 62.424 108.968 63.035 109.501V113.206C62.437 113.856 61.865 114.181 61.215 114.181ZM69.4585 115.169C70.4205 115.169 71.1745 114.844 71.7985 114.441L71.3695 113.661C70.8495 114.012 70.2905 114.22 69.6015 114.22C68.2625 114.22 67.3395 113.258 67.2615 111.75H72.0195C72.0455 111.581 72.0715 111.334 72.0715 111.074C72.0715 109.059 71.0575 107.759 69.2635 107.759C67.6255 107.759 66.0785 109.189 66.0785 111.477C66.0785 113.804 67.5865 115.169 69.4585 115.169ZM67.2485 110.892C67.3915 109.514 68.2755 108.708 69.2765 108.708C70.3815 108.708 71.0315 109.475 71.0315 110.892H67.2485ZM76.717 115H77.9V110.463C78.368 109.254 79.096 108.838 79.681 108.838C79.967 108.838 80.136 108.864 80.37 108.955L80.591 107.915C80.37 107.798 80.149 107.759 79.837 107.759C79.044 107.759 78.329 108.331 77.835 109.228H77.796L77.692 107.941H76.717V115ZM84.4644 115.169C85.4264 115.169 86.1804 114.844 86.8044 114.441L86.3754 113.661C85.8554 114.012 85.2964 114.22 84.6074 114.22C83.2684 114.22 82.3454 113.258 82.2674 111.75H87.0254C87.0514 111.581 87.0774 111.334 87.0774 111.074C87.0774 109.059 86.0634 107.759 84.2694 107.759C82.6314 107.759 81.0844 109.189 81.0844 111.477C81.0844 113.804 82.5924 115.169 84.4644 115.169ZM82.2544 110.892C82.3974 109.514 83.2814 108.708 84.2824 108.708C85.3874 108.708 86.0374 109.475 86.0374 110.892H82.2544ZM91.055 118.25C93.239 118.25 94.63 117.119 94.63 115.806C94.63 114.649 93.798 114.129 92.16 114.129H90.782C89.833 114.129 89.547 113.817 89.547 113.362C89.547 112.972 89.742 112.738 90.002 112.517C90.314 112.673 90.704 112.764 91.055 112.764C92.485 112.764 93.629 111.815 93.629 110.307C93.629 109.696 93.395 109.176 93.057 108.851H94.5V107.941H92.043C91.796 107.85 91.445 107.759 91.055 107.759C89.625 107.759 88.403 108.734 88.403 110.281C88.403 111.126 88.858 111.802 89.326 112.179V112.231C88.962 112.491 88.533 112.959 88.533 113.544C88.533 114.103 88.806 114.48 89.183 114.701V114.753C88.52 115.182 88.143 115.754 88.143 116.352C88.143 117.574 89.326 118.25 91.055 118.25ZM91.055 111.958C90.236 111.958 89.547 111.308 89.547 110.281C89.547 109.241 90.223 108.63 91.055 108.63C91.887 108.63 92.563 109.254 92.563 110.281C92.563 111.308 91.861 111.958 91.055 111.958ZM91.224 117.444C89.95 117.444 89.183 116.95 89.183 116.196C89.183 115.78 89.391 115.364 89.898 115C90.21 115.078 90.548 115.117 90.808 115.117H92.03C92.966 115.117 93.473 115.338 93.473 115.988C93.473 116.729 92.576 117.444 91.224 117.444ZM96.0012 115H97.1842V107.941H96.0012V115ZM96.5992 106.485C97.0672 106.485 97.3922 106.173 97.3922 105.692C97.3922 105.237 97.0672 104.925 96.5992 104.925C96.1312 104.925 95.8062 105.237 95.8062 105.692C95.8062 106.173 96.1312 106.485 96.5992 106.485ZM101.427 115.169C103.091 115.169 104.001 114.22 104.001 113.076C104.001 111.737 102.87 111.321 101.843 110.931C101.05 110.632 100.322 110.385 100.322 109.709C100.322 109.163 100.738 108.695 101.635 108.695C102.259 108.695 102.753 108.955 103.234 109.319L103.806 108.552C103.26 108.123 102.493 107.759 101.622 107.759C100.088 107.759 99.1783 108.643 99.1783 109.761C99.1783 110.957 100.257 111.438 101.245 111.802C102.025 112.101 102.857 112.413 102.857 113.141C102.857 113.752 102.402 114.246 101.466 114.246C100.621 114.246 99.9843 113.908 99.3733 113.414L98.7883 114.194C99.4643 114.753 100.426 115.169 101.427 115.169ZM107.593 115.169C108.022 115.169 108.49 115.039 108.893 114.909L108.659 114.025C108.425 114.116 108.1 114.207 107.853 114.207C107.034 114.207 106.761 113.713 106.761 112.842V108.903H108.672V107.941H106.761V105.952H105.773L105.63 107.941L104.525 108.006V108.903H105.578V112.816C105.578 114.22 106.085 115.169 107.593 115.169ZM110.271 115H111.454V110.463C111.922 109.254 112.65 108.838 113.235 108.838C113.521 108.838 113.69 108.864 113.924 108.955L114.145 107.915C113.924 107.798 113.703 107.759 113.391 107.759C112.598 107.759 111.883 108.331 111.389 109.228H111.35L111.246 107.941H110.271V115ZM117.914 115.169C119.643 115.169 121.19 113.817 121.19 111.477C121.19 109.124 119.643 107.759 117.914 107.759C116.185 107.759 114.638 109.124 114.638 111.477C114.638 113.817 116.185 115.169 117.914 115.169ZM117.914 114.181C116.692 114.181 115.873 113.102 115.873 111.477C115.873 109.852 116.692 108.747 117.914 108.747C119.136 108.747 119.968 109.852 119.968 111.477C119.968 113.102 119.136 114.181 117.914 114.181ZM126.079 118.042C127.483 118.042 128.224 116.976 128.705 115.585L131.37 107.941H130.213L128.952 111.867C128.757 112.491 128.549 113.206 128.354 113.843H128.289C128.068 113.206 127.821 112.478 127.613 111.867L126.17 107.941H124.935L127.769 115.013L127.613 115.546C127.327 116.417 126.82 117.067 126.014 117.067C125.832 117.067 125.624 117.002 125.481 116.95L125.247 117.899C125.468 117.99 125.741 118.042 126.079 118.042ZM140.134 117.977H141.304V107.941H140.368L140.251 108.617H140.212C139.601 108.058 139.016 107.759 138.197 107.759C136.585 107.759 135.142 109.189 135.142 111.477C135.142 113.83 136.286 115.169 138.054 115.169C138.873 115.169 139.614 114.74 140.186 114.181L140.134 115.468V117.977ZM138.314 114.181C137.066 114.181 136.364 113.167 136.364 111.464C136.364 109.852 137.261 108.76 138.405 108.76C138.99 108.76 139.523 108.968 140.134 109.501V113.206C139.536 113.856 138.964 114.181 138.314 114.181ZM145.764 115.169C146.739 115.169 147.441 114.662 148.104 113.895H148.143L148.234 115H149.222V107.941H148.039V112.946C147.363 113.791 146.856 114.142 146.128 114.142C145.192 114.142 144.802 113.583 144.802 112.27V107.941H143.619V112.413C143.619 114.207 144.282 115.169 145.764 115.169ZM154.454 115.169C155.416 115.169 156.17 114.844 156.794 114.441L156.365 113.661C155.845 114.012 155.286 114.22 154.597 114.22C153.258 114.22 152.335 113.258 152.257 111.75H157.015C157.041 111.581 157.067 111.334 157.067 111.074C157.067 109.059 156.053 107.759 154.259 107.759C152.621 107.759 151.074 109.189 151.074 111.477C151.074 113.804 152.582 115.169 154.454 115.169ZM152.244 110.892C152.387 109.514 153.271 108.708 154.272 108.708C155.377 108.708 156.027 109.475 156.027 110.892H152.244ZM163.558 115.169C165.222 115.169 166.132 114.22 166.132 113.076C166.132 111.737 165.001 111.321 163.974 110.931C163.181 110.632 162.453 110.385 162.453 109.709C162.453 109.163 162.869 108.695 163.766 108.695C164.39 108.695 164.884 108.955 165.365 109.319L165.937 108.552C165.391 108.123 164.624 107.759 163.753 107.759C162.219 107.759 161.309 108.643 161.309 109.761C161.309 110.957 162.388 111.438 163.376 111.802C164.156 112.101 164.988 112.413 164.988 113.141C164.988 113.752 164.533 114.246 163.597 114.246C162.752 114.246 162.115 113.908 161.504 113.414L160.919 114.194C161.595 114.753 162.557 115.169 163.558 115.169ZM170.64 115.169C171.602 115.169 172.356 114.844 172.98 114.441L172.551 113.661C172.031 114.012 171.472 114.22 170.783 114.22C169.444 114.22 168.521 113.258 168.443 111.75H173.201C173.227 111.581 173.253 111.334 173.253 111.074C173.253 109.059 172.239 107.759 170.445 107.759C168.807 107.759 167.26 109.189 167.26 111.477C167.26 113.804 168.768 115.169 170.64 115.169ZM168.43 110.892C168.573 109.514 169.457 108.708 170.458 108.708C171.563 108.708 172.213 109.475 172.213 110.892H168.43ZM176.413 115.169C177.284 115.169 178.077 114.714 178.753 114.155H178.792L178.896 115H179.871V110.658C179.871 108.916 179.143 107.759 177.427 107.759C176.296 107.759 175.295 108.266 174.645 108.682L175.113 109.501C175.672 109.124 176.413 108.747 177.232 108.747C178.389 108.747 178.688 109.618 178.688 110.528C175.685 110.866 174.346 111.633 174.346 113.167C174.346 114.441 175.23 115.169 176.413 115.169ZM176.751 114.22C176.049 114.22 175.503 113.895 175.503 113.089C175.503 112.179 176.309 111.594 178.688 111.308V113.284C177.999 113.895 177.44 114.22 176.751 114.22ZM187.087 115.169C188.062 115.169 188.764 114.662 189.427 113.895H189.466L189.557 115H190.545V107.941H189.362V112.946C188.686 113.791 188.179 114.142 187.451 114.142C186.515 114.142 186.125 113.583 186.125 112.27V107.941H184.942V112.413C184.942 114.207 185.605 115.169 187.087 115.169ZM187.568 106.667L189.843 104.457L189.011 103.664L186.957 106.082L187.568 106.667ZM195.153 115.169C195.582 115.169 196.05 115.039 196.453 114.909L196.219 114.025C195.985 114.116 195.66 114.207 195.413 114.207C194.594 114.207 194.321 113.713 194.321 112.842V108.903H196.232V107.941H194.321V105.952H193.333L193.19 107.941L192.085 108.006V108.903H193.138V112.816C193.138 114.22 193.645 115.169 195.153 115.169ZM197.83 115H199.013V107.941H197.83V115ZM198.428 106.485C198.896 106.485 199.221 106.173 199.221 105.692C199.221 105.237 198.896 104.925 198.428 104.925C197.96 104.925 197.635 105.237 197.635 105.692C197.635 106.173 197.96 106.485 198.428 106.485ZM202.658 115.169C202.983 115.169 203.178 115.13 203.347 115.065L203.178 114.155C203.048 114.181 202.996 114.181 202.931 114.181C202.749 114.181 202.593 114.038 202.593 113.674V104.652H201.41V113.596C201.41 114.597 201.774 115.169 202.658 115.169ZM210.43 115.169C211.275 115.169 212.016 114.714 212.575 114.168H212.614L212.718 115H213.68V104.652H212.51V107.369L212.562 108.591C211.938 108.071 211.405 107.759 210.573 107.759C208.961 107.759 207.518 109.189 207.518 111.477C207.518 113.83 208.662 115.169 210.43 115.169ZM210.69 114.181C209.442 114.181 208.74 113.167 208.74 111.464C208.74 109.852 209.637 108.76 210.781 108.76C211.366 108.76 211.899 108.968 212.51 109.501V113.206C211.912 113.856 211.34 114.181 210.69 114.181ZM218.14 115.169C219.115 115.169 219.817 114.662 220.48 113.895H220.519L220.61 115H221.598V107.941H220.415V112.946C219.739 113.791 219.232 114.142 218.504 114.142C217.568 114.142 217.178 113.583 217.178 112.27V107.941H215.995V112.413C215.995 114.207 216.658 115.169 218.14 115.169ZM223.983 115H225.166V110.463C225.634 109.254 226.362 108.838 226.947 108.838C227.233 108.838 227.402 108.864 227.636 108.955L227.857 107.915C227.636 107.798 227.415 107.759 227.103 107.759C226.31 107.759 225.595 108.331 225.101 109.228H225.062L224.958 107.941H223.983V115ZM230.292 115.169C231.163 115.169 231.956 114.714 232.632 114.155H232.671L232.775 115H233.75V110.658C233.75 108.916 233.022 107.759 231.306 107.759C230.175 107.759 229.174 108.266 228.524 108.682L228.992 109.501C229.551 109.124 230.292 108.747 231.111 108.747C232.268 108.747 232.567 109.618 232.567 110.528C229.564 110.866 228.225 111.633 228.225 113.167C228.225 114.441 229.109 115.169 230.292 115.169ZM230.63 114.22C229.928 114.22 229.382 113.895 229.382 113.089C229.382 112.179 230.188 111.594 232.567 111.308V113.284C231.878 113.895 231.319 114.22 230.63 114.22ZM236.005 115H237.188V109.878C237.903 109.163 238.397 108.799 239.125 108.799C240.061 108.799 240.464 109.358 240.464 110.684V115H241.647V110.528C241.647 108.721 240.971 107.759 239.489 107.759C238.527 107.759 237.799 108.292 237.123 108.955H237.084L236.98 107.941H236.005V115ZM246.175 115.169C246.604 115.169 247.072 115.039 247.475 114.909L247.241 114.025C247.007 114.116 246.682 114.207 246.435 114.207C245.616 114.207 245.343 113.713 245.343 112.842V108.903H247.254V107.941H245.343V105.952H244.355L244.212 107.941L243.107 108.006V108.903H244.16V112.816C244.16 114.22 244.667 115.169 246.175 115.169ZM251.509 115.169C252.471 115.169 253.225 114.844 253.849 114.441L253.42 113.661C252.9 114.012 252.341 114.22 251.652 114.22C250.313 114.22 249.39 113.258 249.312 111.75H254.07C254.096 111.581 254.122 111.334 254.122 111.074C254.122 109.059 253.108 107.759 251.314 107.759C249.676 107.759 248.129 109.189 248.129 111.477C248.129 113.804 249.637 115.169 251.509 115.169ZM249.299 110.892C249.442 109.514 250.326 108.708 251.327 108.708C252.432 108.708 253.082 109.475 253.082 110.892H249.299ZM260.016 115.169C260.341 115.169 260.536 115.13 260.705 115.065L260.536 114.155C260.406 114.181 260.354 114.181 260.289 114.181C260.107 114.181 259.951 114.038 259.951 113.674V104.652H258.768V113.596C258.768 114.597 259.132 115.169 260.016 115.169ZM264.1 115.169C264.971 115.169 265.764 114.714 266.44 114.155H266.479L266.583 115H267.558V110.658C267.558 108.916 266.83 107.759 265.114 107.759C263.983 107.759 262.982 108.266 262.332 108.682L262.8 109.501C263.359 109.124 264.1 108.747 264.919 108.747C266.076 108.747 266.375 109.618 266.375 110.528C263.372 110.866 262.033 111.633 262.033 113.167C262.033 114.441 262.917 115.169 264.1 115.169ZM264.438 114.22C263.736 114.22 263.19 113.895 263.19 113.089C263.19 112.179 263.996 111.594 266.375 111.308V113.284C265.686 113.895 265.127 114.22 264.438 114.22ZM271.659 115.169C273.323 115.169 274.233 114.22 274.233 113.076C274.233 111.737 273.102 111.321 272.075 110.931C271.282 110.632 270.554 110.385 270.554 109.709C270.554 109.163 270.97 108.695 271.867 108.695C272.491 108.695 272.985 108.955 273.466 109.319L274.038 108.552C273.492 108.123 272.725 107.759 271.854 107.759C270.32 107.759 269.41 108.643 269.41 109.761C269.41 110.957 270.489 111.438 271.477 111.802C272.257 112.101 273.089 112.413 273.089 113.141C273.089 113.752 272.634 114.246 271.698 114.246C270.853 114.246 270.216 113.908 269.605 113.414L269.02 114.194C269.696 114.753 270.658 115.169 271.659 115.169ZM85.0427 134H86.4207L88.9297 126.941H87.7597L86.4207 130.958C86.2127 131.647 85.9917 132.375 85.7707 133.038H85.7187C85.4977 132.375 85.2767 131.647 85.0557 130.958L83.7297 126.941H82.4947L85.0427 134ZM90.301 134H91.484V126.941H90.301V134ZM90.899 125.485C91.367 125.485 91.692 125.173 91.692 124.692C91.692 124.237 91.367 123.925 90.899 123.925C90.431 123.925 90.106 124.237 90.106 124.692C90.106 125.173 90.431 125.485 90.899 125.485ZM95.7271 134.169C97.3911 134.169 98.3011 133.22 98.3011 132.076C98.3011 130.737 97.1701 130.321 96.1431 129.931C95.3501 129.632 94.6221 129.385 94.6221 128.709C94.6221 128.163 95.0381 127.695 95.9351 127.695C96.5591 127.695 97.0531 127.955 97.5341 128.319L98.1061 127.552C97.5601 127.123 96.7931 126.759 95.9221 126.759C94.3881 126.759 93.4781 127.643 93.4781 128.761C93.4781 129.957 94.5571 130.438 95.5451 130.802C96.3251 131.101 97.1571 131.413 97.1571 132.141C97.1571 132.752 96.7021 133.246 95.7661 133.246C94.9211 133.246 94.2841 132.908 93.6731 132.414L93.0881 133.194C93.7641 133.753 94.7261 134.169 95.7271 134.169ZM99.9621 134H101.145V126.941H99.9621V134ZM100.56 125.485C101.028 125.485 101.353 125.173 101.353 124.692C101.353 124.237 101.028 123.925 100.56 123.925C100.092 123.925 99.7671 124.237 99.7671 124.692C99.7671 125.173 100.092 125.485 100.56 125.485ZM105.765 134.169C106.194 134.169 106.662 134.039 107.065 133.909L106.831 133.025C106.597 133.116 106.272 133.207 106.025 133.207C105.206 133.207 104.933 132.713 104.933 131.842V127.903H106.844V126.941H104.933V124.952H103.945L103.802 126.941L102.697 127.006V127.903H103.75V131.816C103.75 133.22 104.257 134.169 105.765 134.169ZM109.75 134.169C110.621 134.169 111.414 133.714 112.09 133.155H112.129L112.233 134H113.208V129.658C113.208 127.916 112.48 126.759 110.764 126.759C109.633 126.759 108.632 127.266 107.982 127.682L108.45 128.501C109.009 128.124 109.75 127.747 110.569 127.747C111.726 127.747 112.025 128.618 112.025 129.528C109.022 129.866 107.683 130.633 107.683 132.167C107.683 133.441 108.567 134.169 109.75 134.169ZM110.088 133.22C109.386 133.22 108.84 132.895 108.84 132.089C108.84 131.179 109.646 130.594 112.025 130.308V132.284C111.336 132.895 110.777 133.22 110.088 133.22ZM117.309 134.169C118.973 134.169 119.883 133.22 119.883 132.076C119.883 130.737 118.752 130.321 117.725 129.931C116.932 129.632 116.204 129.385 116.204 128.709C116.204 128.163 116.62 127.695 117.517 127.695C118.141 127.695 118.635 127.955 119.116 128.319L119.688 127.552C119.142 127.123 118.375 126.759 117.504 126.759C115.97 126.759 115.06 127.643 115.06 128.761C115.06 129.957 116.139 130.438 117.127 130.802C117.907 131.101 118.739 131.413 118.739 132.141C118.739 132.752 118.284 133.246 117.348 133.246C116.503 133.246 115.866 132.908 115.255 132.414L114.67 133.194C115.346 133.753 116.308 134.169 117.309 134.169ZM126.856 134.169C127.701 134.169 128.442 133.714 129.001 133.168H129.04L129.144 134H130.106V123.652H128.936V126.369L128.988 127.591C128.364 127.071 127.831 126.759 126.999 126.759C125.387 126.759 123.944 128.189 123.944 130.477C123.944 132.83 125.088 134.169 126.856 134.169ZM127.116 133.181C125.868 133.181 125.166 132.167 125.166 130.464C125.166 128.852 126.063 127.76 127.207 127.76C127.792 127.76 128.325 127.968 128.936 128.501V132.206C128.338 132.856 127.766 133.181 127.116 133.181ZM135.256 134.169C136.985 134.169 138.532 132.817 138.532 130.477C138.532 128.124 136.985 126.759 135.256 126.759C133.527 126.759 131.98 128.124 131.98 130.477C131.98 132.817 133.527 134.169 135.256 134.169ZM135.256 133.181C134.034 133.181 133.215 132.102 133.215 130.477C133.215 128.852 134.034 127.747 135.256 127.747C136.478 127.747 137.31 128.852 137.31 130.477C137.31 132.102 136.478 133.181 135.256 133.181ZM140.397 134H141.58V128.878C142.23 128.15 142.828 127.799 143.361 127.799C144.258 127.799 144.674 128.358 144.674 129.684V134H145.857V128.878C146.52 128.15 147.092 127.799 147.638 127.799C148.535 127.799 148.951 128.358 148.951 129.684V134H150.134V129.528C150.134 127.721 149.445 126.759 147.989 126.759C147.131 126.759 146.39 127.318 145.662 128.111C145.376 127.279 144.791 126.759 143.712 126.759C142.867 126.759 142.126 127.292 141.515 127.968H141.476L141.372 126.941H140.397V134ZM152.432 134H153.615V126.941H152.432V134ZM153.03 125.485C153.498 125.485 153.823 125.173 153.823 124.692C153.823 124.237 153.498 123.925 153.03 123.925C152.562 123.925 152.237 124.237 152.237 124.692C152.237 125.173 152.562 125.485 153.03 125.485ZM158.794 134.169C159.639 134.169 160.445 133.844 161.082 133.272L160.562 132.479C160.12 132.882 159.548 133.181 158.898 133.181C157.598 133.181 156.714 132.102 156.714 130.477C156.714 128.852 157.65 127.747 158.937 127.747C159.496 127.747 159.925 128.007 160.341 128.371L160.952 127.591C160.445 127.149 159.808 126.759 158.885 126.759C157.078 126.759 155.479 128.124 155.479 130.477C155.479 132.817 156.922 134.169 158.794 134.169ZM162.626 134H163.809V126.941H162.626V134ZM163.224 125.485C163.692 125.485 164.017 125.173 164.017 124.692C164.017 124.237 163.692 123.925 163.224 123.925C162.756 123.925 162.431 124.237 162.431 124.692C162.431 125.173 162.756 125.485 163.224 125.485ZM167.454 134.169C167.779 134.169 167.974 134.13 168.143 134.065L167.974 133.155C167.844 133.181 167.792 133.181 167.727 133.181C167.545 133.181 167.389 133.038 167.389 132.674V123.652H166.206V132.596C166.206 133.597 166.57 134.169 167.454 134.169ZM169.913 134H171.096V126.941H169.913V134ZM170.511 125.485C170.979 125.485 171.304 125.173 171.304 124.692C171.304 124.237 170.979 123.925 170.511 123.925C170.043 123.925 169.718 124.237 169.718 124.692C169.718 125.173 170.043 125.485 170.511 125.485ZM175.118 134.169C175.989 134.169 176.782 133.714 177.458 133.155H177.497L177.601 134H178.576V129.658C178.576 127.916 177.848 126.759 176.132 126.759C175.001 126.759 174 127.266 173.35 127.682L173.818 128.501C174.377 128.124 175.118 127.747 175.937 127.747C177.094 127.747 177.393 128.618 177.393 129.528C174.39 129.866 173.051 130.633 173.051 132.167C173.051 133.441 173.935 134.169 175.118 134.169ZM175.456 133.22C174.754 133.22 174.208 132.895 174.208 132.089C174.208 131.179 175.014 130.594 177.393 130.308V132.284C176.704 132.895 176.145 133.22 175.456 133.22ZM180.831 134H182.014V129.463C182.482 128.254 183.21 127.838 183.795 127.838C184.081 127.838 184.25 127.864 184.484 127.955L184.705 126.915C184.484 126.798 184.263 126.759 183.951 126.759C183.158 126.759 182.443 127.331 181.949 128.228H181.91L181.806 126.941H180.831V134ZM185.871 134H187.054V126.941H185.871V134ZM186.469 125.485C186.937 125.485 187.262 125.173 187.262 124.692C187.262 124.237 186.937 123.925 186.469 123.925C186.001 123.925 185.676 124.237 185.676 124.692C185.676 125.173 186.001 125.485 186.469 125.485ZM191.076 134.169C191.947 134.169 192.74 133.714 193.416 133.155H193.455L193.559 134H194.534V129.658C194.534 127.916 193.806 126.759 192.09 126.759C190.959 126.759 189.958 127.266 189.308 127.682L189.776 128.501C190.335 128.124 191.076 127.747 191.895 127.747C193.052 127.747 193.351 128.618 193.351 129.528C190.348 129.866 189.009 130.633 189.009 132.167C189.009 133.441 189.893 134.169 191.076 134.169ZM191.414 133.22C190.712 133.22 190.166 132.895 190.166 132.089C190.166 131.179 190.972 130.594 193.351 130.308V132.284C192.662 132.895 192.103 133.22 191.414 133.22ZM198.635 134.169C200.299 134.169 201.209 133.22 201.209 132.076C201.209 130.737 200.078 130.321 199.051 129.931C198.258 129.632 197.53 129.385 197.53 128.709C197.53 128.163 197.946 127.695 198.843 127.695C199.467 127.695 199.961 127.955 200.442 128.319L201.014 127.552C200.468 127.123 199.701 126.759 198.83 126.759C197.296 126.759 196.386 127.643 196.386 128.761C196.386 129.957 197.465 130.438 198.453 130.802C199.233 131.101 200.065 131.413 200.065 132.141C200.065 132.752 199.61 133.246 198.674 133.246C197.829 133.246 197.192 132.908 196.581 132.414L195.996 133.194C196.672 133.753 197.634 134.169 198.635 134.169Z" fill="#484545"/>
</svg>
