<svg width="284" height="19" viewBox="0 0 284 19" fill="none" xmlns="http://www.w3.org/2000/svg">
<path d="M1.365 18H3.585V14.055H5.07C7.455 14.055 9.36 12.915 9.36 10.38C9.36 7.755 7.47 6.885 5.01 6.885H1.365V18ZM3.585 12.3V8.655H4.845C6.375 8.655 7.185 9.09 7.185 10.38C7.185 11.655 6.45 12.3 4.92 12.3H3.585ZM14.7683 18H16.9883V13.8H18.5333L20.8133 18H23.2883L20.6933 13.455C21.9683 12.96 22.8083 11.925 22.8083 10.26C22.8083 7.71 20.9633 6.885 18.6383 6.885H14.7683V18ZM16.9883 12.045V8.655H18.4283C19.8533 8.655 20.6483 9.06 20.6483 10.26C20.6483 11.445 19.8533 12.045 18.4283 12.045H16.9883ZM36.1998 18.21C39.1398 18.21 41.1648 16.005 41.1648 12.405C41.1648 8.805 39.1398 6.69 36.1998 6.69C33.2598 6.69 31.2348 8.79 31.2348 12.405C31.2348 16.005 33.2598 18.21 36.1998 18.21ZM36.1998 16.29C34.5498 16.29 33.4998 14.775 33.4998 12.405C33.4998 10.02 34.5498 8.595 36.1998 8.595C37.8498 8.595 38.8998 10.02 38.8998 12.405C38.8998 14.775 37.8498 16.29 36.1998 16.29ZM46.7312 18H48.9512V14.055H50.4362C52.8212 14.055 54.7262 12.915 54.7262 10.38C54.7262 7.755 52.8362 6.885 50.3762 6.885H46.7312V18ZM48.9512 12.3V8.655H50.2112C51.7412 8.655 52.5512 9.09 52.5512 10.38C52.5512 11.655 51.8162 12.3 50.2862 12.3H48.9512ZM64.3945 18.21C67.1095 18.21 68.6845 16.695 68.6845 13.005V6.885H66.5545V13.2C66.5545 15.51 65.7145 16.29 64.3945 16.29C63.1045 16.29 62.2945 15.51 62.2945 13.2V6.885H60.0745V13.005C60.0745 16.695 61.6945 18.21 64.3945 18.21ZM74.7537 18H81.7287V16.14H76.9737V13.17H80.8737V11.31H76.9737V8.745H81.5637V6.885H74.7537V18ZM90.6956 18.21C93.2606 18.21 94.7756 16.665 94.7756 14.85C94.7756 13.245 93.8906 12.39 92.5406 11.835L91.0856 11.22C90.1406 10.845 89.3606 10.56 89.3606 9.765C89.3606 9.03 89.9756 8.595 90.9506 8.595C91.8656 8.595 92.6006 8.925 93.3056 9.51L94.4306 8.115C93.5306 7.2 92.2406 6.69 90.9506 6.69C88.7006 6.69 87.1106 8.085 87.1106 9.9C87.1106 11.52 88.2356 12.42 89.3606 12.885L90.8456 13.515C91.8356 13.935 92.5106 14.19 92.5106 15.015C92.5106 15.795 91.8956 16.29 90.7406 16.29C89.7656 16.29 88.7156 15.795 87.9206 15.06L86.6456 16.59C87.7256 17.625 89.2106 18.21 90.6956 18.21ZM102.344 18H104.564V8.745H107.714V6.885H99.2244V8.745H102.344V18ZM115.328 12.21C115.658 11.055 115.988 9.795 116.273 8.58H116.348C116.663 9.78 116.963 11.055 117.308 12.21L117.638 13.425H114.998L115.328 12.21ZM111.488 18H113.738L114.518 15.15H118.118L118.898 18H121.223L117.653 6.885H115.043L111.488 18ZM129.319 18H132.484C135.754 18 137.854 16.14 137.854 12.405C137.854 8.655 135.754 6.885 132.364 6.885H129.319V18ZM131.539 16.215V8.67H132.229C134.299 8.67 135.589 9.69 135.589 12.405C135.589 15.105 134.299 16.215 132.229 16.215H131.539ZM143.426 18H150.401V16.14H145.646V13.17H149.546V11.31H145.646V8.745H150.236V6.885H143.426V18ZM162.766 18.21C165.331 18.21 166.846 16.665 166.846 14.85C166.846 13.245 165.961 12.39 164.611 11.835L163.156 11.22C162.211 10.845 161.431 10.56 161.431 9.765C161.431 9.03 162.046 8.595 163.021 8.595C163.936 8.595 164.671 8.925 165.376 9.51L166.501 8.115C165.601 7.2 164.311 6.69 163.021 6.69C160.771 6.69 159.181 8.085 159.181 9.9C159.181 11.52 160.306 12.42 161.431 12.885L162.916 13.515C163.906 13.935 164.581 14.19 164.581 15.015C164.581 15.795 163.966 16.29 162.811 16.29C161.836 16.29 160.786 15.795 159.991 15.06L158.716 16.59C159.796 17.625 161.281 18.21 162.766 18.21ZM176.62 18.21C179.56 18.21 181.585 16.005 181.585 12.405C181.585 8.805 179.56 6.69 176.62 6.69C173.68 6.69 171.655 8.79 171.655 12.405C171.655 16.005 173.68 18.21 176.62 18.21ZM176.62 16.29C174.97 16.29 173.92 14.775 173.92 12.405C173.92 10.02 174.97 8.595 176.62 8.595C178.27 8.595 179.32 10.02 179.32 12.405C179.32 14.775 178.27 16.29 176.62 16.29ZM187.151 18H193.886V16.14H189.371V6.885H187.151V18ZM203.481 18.21C206.196 18.21 207.771 16.695 207.771 13.005V6.885H205.641V13.2C205.641 15.51 204.801 16.29 203.481 16.29C202.191 16.29 201.381 15.51 201.381 13.2V6.885H199.161V13.005C199.161 16.695 200.781 18.21 203.481 18.21ZM218.371 18.21C219.811 18.21 220.996 17.64 221.911 16.575L220.741 15.195C220.141 15.84 219.406 16.29 218.446 16.29C216.691 16.29 215.551 14.835 215.551 12.42C215.551 10.035 216.811 8.595 218.491 8.595C219.331 8.595 219.976 8.985 220.546 9.525L221.701 8.115C220.981 7.365 219.856 6.69 218.446 6.69C215.641 6.69 213.286 8.835 213.286 12.495C213.286 16.2 215.566 18.21 218.371 18.21ZM227.097 18H229.317V6.885H227.097V18ZM239.857 18.21C242.797 18.21 244.822 16.005 244.822 12.405C244.822 8.805 242.797 6.69 239.857 6.69C236.917 6.69 234.892 8.79 234.892 12.405C234.892 16.005 236.917 18.21 239.857 18.21ZM239.857 16.29C238.207 16.29 237.157 14.775 237.157 12.405C237.157 10.02 238.207 8.595 239.857 8.595C241.507 8.595 242.557 10.02 242.557 12.405C242.557 14.775 241.507 16.29 239.857 16.29ZM239.647 6.345L242.632 4.35L241.447 2.91L238.672 5.235L239.647 6.345ZM250.388 18H252.488V13.545C252.488 12.27 252.323 10.875 252.218 9.675H252.293L253.418 12.06L256.628 18H258.878V6.885H256.778V11.325C256.778 12.585 256.958 14.055 257.063 15.21H256.988L255.878 12.81L252.653 6.885H250.388V18Z" fill="#262626"/>
</svg>
