<svg width="284" height="86" viewBox="0 0 284 86" fill="none" xmlns="http://www.w3.org/2000/svg">
<path d="M111.144 59H117.516L125.652 32.324H120.252L116.796 45.32C115.968 48.272 115.392 50.936 114.528 53.924H114.348C113.52 50.936 112.944 48.272 112.116 45.32L108.588 32.324H103.007L111.144 59ZM128.285 59H133.577V38.84H128.285V59ZM130.949 35.6C132.749 35.6 134.009 34.448 134.009 32.684C134.009 30.956 132.749 29.804 130.949 29.804C129.113 29.804 127.853 30.956 127.853 32.684C127.853 34.448 129.113 35.6 130.949 35.6ZM146.311 59.504C148.399 59.504 150.415 58.352 151.891 56.912H152.035L152.431 59H156.715V30.272H151.459V37.364L151.639 40.532C150.199 39.2 148.795 38.336 146.527 38.336C142.171 38.336 138.067 42.368 138.067 48.92C138.067 55.544 141.307 59.504 146.311 59.504ZM147.679 55.148C145.015 55.148 143.503 53.06 143.503 48.884C143.503 44.852 145.411 42.692 147.679 42.692C148.939 42.692 150.235 43.088 151.459 44.204V53.06C150.271 54.572 149.083 55.148 147.679 55.148ZM167.355 59.504C169.659 59.504 171.675 58.352 173.439 56.84H173.583L173.943 59H178.263V47.228C178.263 41.396 175.635 38.336 170.523 38.336C167.355 38.336 164.475 39.524 162.099 41L164.007 44.492C165.879 43.412 167.679 42.584 169.551 42.584C172.035 42.584 172.899 44.096 173.007 46.076C164.871 46.94 161.379 49.208 161.379 53.528C161.379 56.948 163.755 59.504 167.355 59.504ZM169.083 55.364C167.535 55.364 166.419 54.68 166.419 53.096C166.419 51.296 168.075 49.928 173.007 49.316V53.384C171.711 54.644 170.595 55.364 169.083 55.364Z" fill="#262626"/>
<path d="M59.9243 19.154C61.9153 19.154 63.0703 18.043 63.0703 15.337V10.849H61.5083V15.48C61.5083 17.174 60.8923 17.746 59.9243 17.746C58.9783 17.746 58.3843 17.174 58.3843 15.48V10.849H56.7563V15.337C56.7563 18.043 57.9443 19.154 59.9243 19.154ZM66.674 19H68.401L69.27 17.196C69.468 16.778 69.666 16.349 69.864 15.854H69.908C70.15 16.349 70.337 16.778 70.546 17.196L71.459 19H73.263L70.975 14.875L73.12 10.849H71.404L70.634 12.532C70.458 12.917 70.293 13.313 70.095 13.819H70.04C69.798 13.313 69.633 12.917 69.435 12.532L68.621 10.849H66.817L68.962 14.798L66.674 19ZM79.4019 19H84.5169V17.636H81.0299V15.458H83.8899V14.094H81.0299V12.213H84.3959V10.849H79.4019V19ZM88.6616 19H90.2016V15.733C90.2016 14.798 90.0806 13.775 90.0036 12.895H90.0586L90.8836 14.644L93.2376 19H94.8876V10.849H93.3476V14.105C93.3476 15.029 93.4796 16.107 93.5566 16.954H93.5016L92.6876 15.194L90.3226 10.849H88.6616V19ZM101.885 19H103.513V15.92H104.646L106.318 19H108.133L106.23 15.667C107.165 15.304 107.781 14.545 107.781 13.324C107.781 11.454 106.428 10.849 104.723 10.849H101.885V19ZM103.513 14.633V12.147H104.569C105.614 12.147 106.197 12.444 106.197 13.324C106.197 14.193 105.614 14.633 104.569 14.633H103.513ZM111.876 19H116.991V17.636H113.504V15.458H116.364V14.094H113.504V12.213H116.87V10.849H111.876V19ZM121.135 19H123.456C125.854 19 127.394 17.636 127.394 14.897C127.394 12.147 125.854 10.849 123.368 10.849H121.135V19ZM122.763 17.691V12.158H123.269C124.787 12.158 125.733 12.906 125.733 14.897C125.733 16.877 124.787 17.691 123.269 17.691H122.763ZM131.48 19H133.108V10.849H131.48V19ZM140.034 19.154C141.915 19.154 143.026 18.021 143.026 16.69C143.026 15.513 142.377 14.886 141.387 14.479L140.32 14.028C139.627 13.753 139.055 13.544 139.055 12.961C139.055 12.422 139.506 12.103 140.221 12.103C140.892 12.103 141.431 12.345 141.948 12.774L142.773 11.751C142.113 11.08 141.167 10.706 140.221 10.706C138.571 10.706 137.405 11.729 137.405 13.06C137.405 14.248 138.23 14.908 139.055 15.249L140.144 15.711C140.87 16.019 141.365 16.206 141.365 16.811C141.365 17.383 140.914 17.746 140.067 17.746C139.352 17.746 138.582 17.383 137.999 16.844L137.064 17.966C137.856 18.725 138.945 19.154 140.034 19.154ZM146.959 19H152.074V17.636H148.587V15.458H151.447V14.094H148.587V12.213H151.953V10.849H146.959V19ZM156.219 19H157.759V15.733C157.759 14.798 157.638 13.775 157.561 12.895H157.616L158.441 14.644L160.795 19H162.445V10.849H160.905V14.105C160.905 15.029 161.037 16.107 161.114 16.954H161.059L160.245 15.194L157.88 10.849H156.219V19ZM160.333 10.299C161.158 10.299 161.763 9.76 161.818 8.572L160.773 8.506C160.718 8.979 160.531 9.166 160.278 9.166C159.805 9.166 159.42 8.407 158.518 8.407C157.693 8.407 157.088 8.957 157.022 10.123L158.078 10.211C158.122 9.727 158.32 9.54 158.573 9.54C159.035 9.54 159.42 10.299 160.333 10.299ZM170.185 19.154C172.341 19.154 173.826 17.537 173.826 14.897C173.826 12.257 172.341 10.706 170.185 10.706C168.029 10.706 166.544 12.246 166.544 14.897C166.544 17.537 168.029 19.154 170.185 19.154ZM170.185 17.746C168.975 17.746 168.205 16.635 168.205 14.897C168.205 13.148 168.975 12.103 170.185 12.103C171.395 12.103 172.165 13.148 172.165 14.897C172.165 16.635 171.395 17.746 170.185 17.746ZM180.4 19H182.721C185.119 19 186.659 17.636 186.659 14.897C186.659 12.147 185.119 10.849 182.633 10.849H180.4V19ZM182.028 17.691V12.158H182.534C184.052 12.158 184.998 12.906 184.998 14.897C184.998 16.877 184.052 17.691 182.534 17.691H182.028ZM190.745 19H195.86V17.636H192.373V15.458H195.233V14.094H192.373V12.213H195.739V10.849H190.745V19ZM204.268 14.754C204.51 13.907 204.752 12.983 204.961 12.092H205.016C205.247 12.972 205.467 13.907 205.72 14.754L205.962 15.645H204.026L204.268 14.754ZM201.452 19H203.102L203.674 16.91H206.314L206.886 19H208.591L205.973 10.849H204.059L201.452 19ZM212.036 19H213.664V16.107H214.753C216.502 16.107 217.899 15.271 217.899 13.412C217.899 11.487 216.513 10.849 214.709 10.849H212.036V19ZM213.664 14.82V12.147H214.588C215.71 12.147 216.304 12.466 216.304 13.412C216.304 14.347 215.765 14.82 214.643 14.82H213.664ZM221.865 19H223.493V16.107H224.582C226.331 16.107 227.728 15.271 227.728 13.412C227.728 11.487 226.342 10.849 224.538 10.849H221.865V19ZM223.493 14.82V12.147H224.417C225.539 12.147 226.133 12.466 226.133 13.412C226.133 14.347 225.594 14.82 224.472 14.82H223.493Z" fill="#8A8A8A"/>
</svg>
